<?xml version="1.0" encoding="UTF-8" standalone="no"?>
<!DOCTYPE svg PUBLIC "-//W3C//DTD SVG 1.1//EN"
 "http://www.w3.org/Graphics/SVG/1.1/DTD/svg11.dtd">
<!-- Generated by graphviz version 2.43.0 (0)
 -->
<!-- Title: ntp/include/details/allocator.hpp Pages: 1 -->
<svg width="296pt" height="207pt"
 viewBox="0.00 0.00 295.50 207.00" xmlns="http://www.w3.org/2000/svg" xmlns:xlink="http://www.w3.org/1999/xlink">
<g id="graph0" class="graph" transform="scale(1 1) rotate(0) translate(4 203)">
<title>ntp/include/details/allocator.hpp</title>
<!-- Node1 -->
<g id="node1" class="node">
<title>Node1</title>
<g id="a_node1"><a xlink:title="Allocator implementations.">
<polygon fill="#bfbfbf" stroke="black" points="100,-168.5 100,-198.5 207,-198.5 207,-168.5 100,-168.5"/>
<text text-anchor="start" x="108" y="-186.5" font-family="Helvetica,sans-Serif" font-size="10.00">ntp/include/details</text>
<text text-anchor="middle" x="153.5" y="-175.5" font-family="Helvetica,sans-Serif" font-size="10.00">/allocator.hpp</text>
</a>
</g>
</g>
<!-- Node2 -->
<g id="node2" class="node">
<title>Node2</title>
<g id="a_node2"><a xlink:href="exception_8hpp.html" target="_top" xlink:title="Win32 error wrapper implementations.">
<polygon fill="none" stroke="black" points="48.5,-112.5 48.5,-131.5 170.5,-131.5 170.5,-112.5 48.5,-112.5"/>
<text text-anchor="middle" x="109.5" y="-119.5" font-family="Helvetica,sans-Serif" font-size="10.00">details/exception.hpp</text>
</a>
</g>
</g>
<!-- Node1&#45;&gt;Node2 -->
<g id="edge1" class="edge">
<title>Node1&#45;&gt;Node2</title>
<path fill="none" stroke="midnightblue" d="M143.07,-168.4C136.74,-159.84 128.63,-148.87 121.97,-139.86"/>
<polygon fill="midnightblue" stroke="midnightblue" points="124.66,-137.62 115.9,-131.66 119.03,-141.78 124.66,-137.62"/>
</g>
<!-- Node5 -->
<g id="node5" class="node">
<title>Node5</title>
<g id="a_node5"><a xlink:href="windows_8hpp_source.html" target="_top" xlink:title=" ">
<polygon fill="none" stroke="black" points="145.5,-56.5 145.5,-75.5 261.5,-75.5 261.5,-56.5 145.5,-56.5"/>
<text text-anchor="middle" x="203.5" y="-63.5" font-family="Helvetica,sans-Serif" font-size="10.00">details/windows.hpp</text>
</a>
</g>
</g>
<!-- Node1&#45;&gt;Node5 -->
<g id="edge7" class="edge">
<title>Node1&#45;&gt;Node5</title>
<path fill="none" stroke="midnightblue" d="M161.49,-168.14C166.89,-158.16 174.02,-144.46 179.5,-132 186.31,-116.52 192.88,-98.43 197.42,-85.27"/>
<polygon fill="midnightblue" stroke="midnightblue" points="200.82,-86.14 200.72,-75.54 194.19,-83.89 200.82,-86.14"/>
</g>
<!-- Node3 -->
<g id="node3" class="node">
<title>Node3</title>
<g id="a_node3"><a xlink:title=" ">
<polygon fill="none" stroke="#bfbfbf" points="0,-56.5 0,-75.5 65,-75.5 65,-56.5 0,-56.5"/>
<text text-anchor="middle" x="32.5" y="-63.5" font-family="Helvetica,sans-Serif" font-size="10.00">stdexcept</text>
</a>
</g>
</g>
<!-- Node2&#45;&gt;Node3 -->
<g id="edge2" class="edge">
<title>Node2&#45;&gt;Node3</title>
<path fill="none" stroke="midnightblue" d="M97.13,-112.32C85.34,-104.06 67.37,-91.45 53.36,-81.63"/>
<polygon fill="midnightblue" stroke="midnightblue" points="55.04,-78.53 44.84,-75.65 51.02,-84.26 55.04,-78.53"/>
</g>
<!-- Node4 -->
<g id="node4" class="node">
<title>Node4</title>
<g id="a_node4"><a xlink:title=" ">
<polygon fill="none" stroke="#bfbfbf" points="83.5,-56.5 83.5,-75.5 127.5,-75.5 127.5,-56.5 83.5,-56.5"/>
<text text-anchor="middle" x="105.5" y="-63.5" font-family="Helvetica,sans-Serif" font-size="10.00">string</text>
</a>
</g>
</g>
<!-- Node2&#45;&gt;Node4 -->
<g id="edge3" class="edge">
<title>Node2&#45;&gt;Node4</title>
<path fill="none" stroke="midnightblue" d="M108.84,-112.08C108.32,-105.01 107.56,-94.86 106.91,-85.99"/>
<polygon fill="midnightblue" stroke="midnightblue" points="110.38,-85.47 106.15,-75.75 103.4,-85.98 110.38,-85.47"/>
</g>
<!-- Node2&#45;&gt;Node5 -->
<g id="edge4" class="edge">
<title>Node2&#45;&gt;Node5</title>
<path fill="none" stroke="midnightblue" d="M124.6,-112.32C139.4,-103.82 162.19,-90.73 179.48,-80.8"/>
<polygon fill="midnightblue" stroke="midnightblue" points="181.51,-83.67 188.43,-75.65 178.02,-77.6 181.51,-83.67"/>
</g>
<!-- Node6 -->
<g id="node6" class="node">
<title>Node6</title>
<g id="a_node6"><a xlink:href="ntp__config_8hpp_source.html" target="_top" xlink:title=" ">
<polygon fill="none" stroke="black" points="111.5,-0.5 111.5,-19.5 199.5,-19.5 199.5,-0.5 111.5,-0.5"/>
<text text-anchor="middle" x="155.5" y="-7.5" font-family="Helvetica,sans-Serif" font-size="10.00">ntp_config.hpp</text>
</a>
</g>
</g>
<!-- Node5&#45;&gt;Node6 -->
<g id="edge5" class="edge">
<title>Node5&#45;&gt;Node6</title>
<path fill="none" stroke="midnightblue" d="M195.57,-56.08C188.65,-48.3 178.43,-36.8 170.05,-27.37"/>
<polygon fill="midnightblue" stroke="midnightblue" points="172.54,-24.9 163.28,-19.75 167.31,-29.55 172.54,-24.9"/>
</g>
<!-- Node7 -->
<g id="node7" class="node">
<title>Node7</title>
<g id="a_node7"><a xlink:title=" ">
<polygon fill="none" stroke="#bfbfbf" points="217.5,-0.5 217.5,-19.5 287.5,-19.5 287.5,-0.5 217.5,-0.5"/>
<text text-anchor="middle" x="252.5" y="-7.5" font-family="Helvetica,sans-Serif" font-size="10.00">Windows.h</text>
</a>
</g>
</g>
<!-- Node5&#45;&gt;Node7 -->
<g id="edge6" class="edge">
<title>Node5&#45;&gt;Node7</title>
<path fill="none" stroke="midnightblue" d="M211.59,-56.08C218.66,-48.3 229.09,-36.8 237.65,-27.37"/>
<polygon fill="midnightblue" stroke="midnightblue" points="240.43,-29.51 244.56,-19.75 235.25,-24.8 240.43,-29.51"/>
</g>
</g>
</svg>
