<?xml version="1.0" encoding="UTF-8" standalone="no"?>
<!DOCTYPE svg PUBLIC "-//W3C//DTD SVG 1.1//EN"
 "http://www.w3.org/Graphics/SVG/1.1/DTD/svg11.dtd">
<!-- Generated by graphviz version 2.43.0 (0)
 -->
<!-- Title: ntp/include/details/allocator.hpp Pages: 1 -->
<svg width="737pt" height="341pt"
 viewBox="0.00 0.00 736.62 341.00" xmlns="http://www.w3.org/2000/svg" xmlns:xlink="http://www.w3.org/1999/xlink">
<g id="graph0" class="graph" transform="scale(1 1) rotate(0) translate(4 337)">
<title>ntp/include/details/allocator.hpp</title>
<!-- Node1 -->
<g id="node1" class="node">
<title>Node1</title>
<g id="a_node1"><a xlink:title="Allocator implementations.">
<polygon fill="#bfbfbf" stroke="black" points="599.62,-302.5 599.62,-332.5 706.62,-332.5 706.62,-302.5 599.62,-302.5"/>
<text text-anchor="start" x="607.62" y="-320.5" font-family="Helvetica,sans-Serif" font-size="10.00">ntp/include/details</text>
<text text-anchor="middle" x="653.12" y="-309.5" font-family="Helvetica,sans-Serif" font-size="10.00">/allocator.hpp</text>
</a>
</g>
</g>
<!-- Node2 -->
<g id="node2" class="node">
<title>Node2</title>
<g id="a_node2"><a xlink:href="utils_8hpp.html" target="_top" xlink:title="Some useful implementation stuff.">
<polygon fill="none" stroke="black" points="296.62,-235.5 296.62,-265.5 403.62,-265.5 403.62,-235.5 296.62,-235.5"/>
<text text-anchor="start" x="304.62" y="-253.5" font-family="Helvetica,sans-Serif" font-size="10.00">ntp/include/details</text>
<text text-anchor="middle" x="350.12" y="-242.5" font-family="Helvetica,sans-Serif" font-size="10.00">/utils.hpp</text>
</a>
</g>
</g>
<!-- Node1&#45;&gt;Node2 -->
<g id="edge1" class="edge">
<title>Node1&#45;&gt;Node2</title>
<path fill="none" stroke="midnightblue" d="M589.3,-302.81C534.22,-290.99 455.56,-274.12 403.7,-262.99"/>
<polygon fill="midnightblue" stroke="midnightblue" points="588.79,-306.28 599.3,-304.95 590.26,-299.43 588.79,-306.28"/>
</g>
<!-- Node6 -->
<g id="node6" class="node">
<title>Node6</title>
<g id="a_node6"><a xlink:href="threadpool_8hpp.html" target="_top" xlink:title="Threadpool implementations.">
<polygon fill="none" stroke="black" points="383.62,-56.5 383.62,-75.5 554.62,-75.5 554.62,-56.5 383.62,-56.5"/>
<text text-anchor="middle" x="469.12" y="-63.5" font-family="Helvetica,sans-Serif" font-size="10.00">ntp/include/pool/threadpool.hpp</text>
</a>
</g>
</g>
<!-- Node1&#45;&gt;Node6 -->
<g id="edge19" class="edge">
<title>Node1&#45;&gt;Node6</title>
<path fill="none" stroke="midnightblue" d="M658.8,-292.44C667.16,-250.52 677.48,-163.62 634.12,-112 620.14,-95.35 568.12,-83.02 526.19,-75.51"/>
<polygon fill="midnightblue" stroke="midnightblue" points="655.36,-291.81 656.7,-302.32 662.21,-293.26 655.36,-291.81"/>
</g>
<!-- Node8 -->
<g id="node8" class="node">
<title>Node8</title>
<g id="a_node8"><a xlink:href="threadpool_8cpp.html" target="_top" xlink:title="Threadpool implementation (traits and some helper functions)">
<polygon fill="none" stroke="black" points="579.62,-0.5 579.62,-19.5 728.62,-19.5 728.62,-0.5 579.62,-0.5"/>
<text text-anchor="middle" x="654.12" y="-7.5" font-family="Helvetica,sans-Serif" font-size="10.00">ntp/src/pool/threadpool.cpp</text>
</a>
</g>
</g>
<!-- Node1&#45;&gt;Node8 -->
<g id="edge20" class="edge">
<title>Node1&#45;&gt;Node8</title>
<path fill="none" stroke="midnightblue" d="M665.83,-293.2C669.96,-284.83 674.22,-275.18 677.12,-266 688.23,-230.96 691.12,-221.25 691.12,-184.5 691.12,-184.5 691.12,-184.5 691.12,-121 691.12,-81.31 669.21,-37.56 659.11,-19.51"/>
<polygon fill="midnightblue" stroke="midnightblue" points="662.59,-291.85 661.14,-302.34 668.82,-295.04 662.59,-291.85"/>
</g>
<!-- Node3 -->
<g id="node3" class="node">
<title>Node3</title>
<g id="a_node3"><a xlink:href="logger__internal_8hpp.html" target="_top" xlink:title="Internal logger subsystem implementation.">
<polygon fill="none" stroke="black" points="163.12,-168.5 163.12,-198.5 277.12,-198.5 277.12,-168.5 163.12,-168.5"/>
<text text-anchor="start" x="171.12" y="-186.5" font-family="Helvetica,sans-Serif" font-size="10.00">ntp/include/logger</text>
<text text-anchor="middle" x="220.12" y="-175.5" font-family="Helvetica,sans-Serif" font-size="10.00">/logger_internal.hpp</text>
</a>
</g>
</g>
<!-- Node2&#45;&gt;Node3 -->
<g id="edge2" class="edge">
<title>Node2&#45;&gt;Node3</title>
<path fill="none" stroke="midnightblue" d="M312.83,-230.85C292.28,-220.58 267.17,-208.03 248.28,-198.58"/>
<polygon fill="midnightblue" stroke="midnightblue" points="311.41,-234.05 321.92,-235.4 314.54,-227.79 311.41,-234.05"/>
</g>
<!-- Node4 -->
<g id="node4" class="node">
<title>Node4</title>
<g id="a_node4"><a xlink:href="basic__callback_8hpp.html" target="_top" xlink:title="Interfaces and base classes for callback wrappers.">
<polygon fill="none" stroke="black" points="333.62,-168.5 333.62,-198.5 456.62,-198.5 456.62,-168.5 333.62,-168.5"/>
<text text-anchor="start" x="341.62" y="-186.5" font-family="Helvetica,sans-Serif" font-size="10.00">ntp/include/pool/basic</text>
<text text-anchor="middle" x="395.12" y="-175.5" font-family="Helvetica,sans-Serif" font-size="10.00">_callback.hpp</text>
</a>
</g>
</g>
<!-- Node2&#45;&gt;Node4 -->
<g id="edge3" class="edge">
<title>Node2&#45;&gt;Node4</title>
<path fill="none" stroke="midnightblue" d="M365.59,-227.16C372.15,-217.68 379.6,-206.92 385.38,-198.58"/>
<polygon fill="midnightblue" stroke="midnightblue" points="362.7,-225.18 359.89,-235.4 368.46,-229.17 362.7,-225.18"/>
</g>
<!-- Node5 -->
<g id="node5" class="node">
<title>Node5</title>
<g id="a_node5"><a xlink:href="io_8hpp.html" target="_top" xlink:title="Implementation of threadpool IO callback.">
<polygon fill="none" stroke="black" points="177.12,-112.5 177.12,-131.5 305.12,-131.5 305.12,-112.5 177.12,-112.5"/>
<text text-anchor="middle" x="241.12" y="-119.5" font-family="Helvetica,sans-Serif" font-size="10.00">ntp/include/pool/io.hpp</text>
</a>
</g>
</g>
<!-- Node2&#45;&gt;Node5 -->
<g id="edge14" class="edge">
<title>Node2&#45;&gt;Node5</title>
<path fill="none" stroke="midnightblue" d="M333.72,-227.15C321.18,-210.44 303.2,-187.26 286.12,-168 274.39,-154.77 259.75,-140.5 250.41,-131.66"/>
<polygon fill="midnightblue" stroke="midnightblue" points="330.97,-229.32 339.75,-235.25 336.58,-225.13 330.97,-229.32"/>
</g>
<!-- Node9 -->
<g id="node9" class="node">
<title>Node9</title>
<g id="a_node9"><a xlink:href="timer_8hpp.html" target="_top" xlink:title="Implementation of threadpool timer callback.">
<polygon fill="none" stroke="black" points="323.12,-112.5 323.12,-131.5 467.12,-131.5 467.12,-112.5 323.12,-112.5"/>
<text text-anchor="middle" x="395.12" y="-119.5" font-family="Helvetica,sans-Serif" font-size="10.00">ntp/include/pool/timer.hpp</text>
</a>
</g>
</g>
<!-- Node2&#45;&gt;Node9 -->
<g id="edge15" class="edge">
<title>Node2&#45;&gt;Node9</title>
<path fill="none" stroke="midnightblue" d="M413.35,-236.59C433.69,-229.13 454.07,-217.4 466.12,-199 473.68,-187.48 472.77,-180.07 466.12,-168 456.42,-150.35 436.54,-138.66 420.29,-131.62"/>
<polygon fill="midnightblue" stroke="midnightblue" points="412.09,-233.33 403.73,-239.83 414.32,-239.96 412.09,-233.33"/>
</g>
<!-- Node10 -->
<g id="node10" class="node">
<title>Node10</title>
<g id="a_node10"><a xlink:href="wait_8hpp.html" target="_top" xlink:title="Implementation of threadpool wait callback.">
<polygon fill="none" stroke="black" points="485.12,-112.5 485.12,-131.5 625.12,-131.5 625.12,-112.5 485.12,-112.5"/>
<text text-anchor="middle" x="555.12" y="-119.5" font-family="Helvetica,sans-Serif" font-size="10.00">ntp/include/pool/wait.hpp</text>
</a>
</g>
</g>
<!-- Node2&#45;&gt;Node10 -->
<g id="edge16" class="edge">
<title>Node2&#45;&gt;Node10</title>
<path fill="none" stroke="midnightblue" d="M411.89,-232.17C435.02,-224.11 460.83,-213.12 482.12,-199 511.1,-179.79 537.27,-147.23 548.85,-131.72"/>
<polygon fill="midnightblue" stroke="midnightblue" points="410.52,-228.94 402.16,-235.45 412.76,-235.58 410.52,-228.94"/>
</g>
<!-- Node11 -->
<g id="node11" class="node">
<title>Node11</title>
<g id="a_node11"><a xlink:href="work_8hpp.html" target="_top" xlink:title="Work callback wrapper and manager implementation.">
<polygon fill="none" stroke="black" points="15.62,-112.5 15.62,-131.5 158.62,-131.5 158.62,-112.5 15.62,-112.5"/>
<text text-anchor="middle" x="87.12" y="-119.5" font-family="Helvetica,sans-Serif" font-size="10.00">ntp/include/pool/work.hpp</text>
</a>
</g>
</g>
<!-- Node2&#45;&gt;Node11 -->
<g id="edge17" class="edge">
<title>Node2&#45;&gt;Node11</title>
<path fill="none" stroke="midnightblue" d="M286.29,-249.66C196.97,-248.36 41.6,-240.07 6.12,-199 -2.88,-188.57 -0.86,-179.87 6.12,-168 16.89,-149.7 38.09,-138.31 56.1,-131.56"/>
<polygon fill="midnightblue" stroke="midnightblue" points="286.27,-253.16 296.32,-249.78 286.36,-246.16 286.27,-253.16"/>
</g>
<!-- Node12 -->
<g id="node12" class="node">
<title>Node12</title>
<g id="a_node12"><a xlink:href="utils_8cpp.html" target="_top" xlink:title="Implementation of helper functions and classes.">
<polygon fill="none" stroke="black" points="15.12,-174 15.12,-193 145.12,-193 145.12,-174 15.12,-174"/>
<text text-anchor="middle" x="80.12" y="-181" font-family="Helvetica,sans-Serif" font-size="10.00">ntp/src/details/utils.cpp</text>
</a>
</g>
</g>
<!-- Node2&#45;&gt;Node12 -->
<g id="edge18" class="edge">
<title>Node2&#45;&gt;Node12</title>
<path fill="none" stroke="midnightblue" d="M286.42,-234.16C233.1,-221.33 158.97,-203.48 115.62,-193.05"/>
<polygon fill="midnightblue" stroke="midnightblue" points="285.92,-237.64 296.46,-236.58 287.55,-230.84 285.92,-237.64"/>
</g>
<!-- Node4&#45;&gt;Node5 -->
<g id="edge4" class="edge">
<title>Node4&#45;&gt;Node5</title>
<path fill="none" stroke="midnightblue" d="M348.95,-164.66C320.7,-153.75 285.83,-140.27 263.53,-131.66"/>
<polygon fill="midnightblue" stroke="midnightblue" points="348.04,-168.06 358.63,-168.4 350.56,-161.53 348.04,-168.06"/>
</g>
<!-- Node4&#45;&gt;Node9 -->
<g id="edge8" class="edge">
<title>Node4&#45;&gt;Node9</title>
<path fill="none" stroke="midnightblue" d="M395.12,-158.29C395.12,-148.86 395.12,-138.65 395.12,-131.66"/>
<polygon fill="midnightblue" stroke="midnightblue" points="391.62,-158.4 395.12,-168.4 398.62,-158.4 391.62,-158.4"/>
</g>
<!-- Node4&#45;&gt;Node10 -->
<g id="edge10" class="edge">
<title>Node4&#45;&gt;Node10</title>
<path fill="none" stroke="midnightblue" d="M442.72,-164.8C472.13,-153.86 508.58,-140.31 531.84,-131.66"/>
<polygon fill="midnightblue" stroke="midnightblue" points="441.19,-161.63 433.04,-168.4 443.63,-168.19 441.19,-161.63"/>
</g>
<!-- Node4&#45;&gt;Node11 -->
<g id="edge12" class="edge">
<title>Node4&#45;&gt;Node11</title>
<path fill="none" stroke="midnightblue" d="M323.46,-168.66C264,-157.17 181.35,-141.2 131.19,-131.51"/>
<polygon fill="midnightblue" stroke="midnightblue" points="323.05,-172.14 333.54,-170.6 324.38,-165.27 323.05,-172.14"/>
</g>
<!-- Node5&#45;&gt;Node6 -->
<g id="edge5" class="edge">
<title>Node5&#45;&gt;Node6</title>
<path fill="none" stroke="midnightblue" d="M287.2,-110.09C330.27,-99.89 393.71,-84.86 433.17,-75.52"/>
<polygon fill="midnightblue" stroke="midnightblue" points="286.18,-106.73 277.25,-112.44 287.79,-113.54 286.18,-106.73"/>
</g>
<!-- Node7 -->
<g id="node7" class="node">
<title>Node7</title>
<g id="a_node7"><a xlink:href="ntp_8hpp.html" target="_top" xlink:title="Main ntp library header.">
<polygon fill="none" stroke="black" points="414.12,-0.5 414.12,-19.5 524.12,-19.5 524.12,-0.5 414.12,-0.5"/>
<text text-anchor="middle" x="469.12" y="-7.5" font-family="Helvetica,sans-Serif" font-size="10.00">ntp/include/ntp.hpp</text>
</a>
</g>
</g>
<!-- Node6&#45;&gt;Node7 -->
<g id="edge6" class="edge">
<title>Node6&#45;&gt;Node7</title>
<path fill="none" stroke="midnightblue" d="M469.12,-45.8C469.12,-36.91 469.12,-26.78 469.12,-19.75"/>
<polygon fill="midnightblue" stroke="midnightblue" points="465.62,-46.08 469.12,-56.08 472.62,-46.08 465.62,-46.08"/>
</g>
<!-- Node6&#45;&gt;Node8 -->
<g id="edge7" class="edge">
<title>Node6&#45;&gt;Node8</title>
<path fill="none" stroke="midnightblue" d="M508.29,-53.57C543.19,-43.38 593.47,-28.7 624.95,-19.52"/>
<polygon fill="midnightblue" stroke="midnightblue" points="507.06,-50.28 498.44,-56.44 509.02,-57 507.06,-50.28"/>
</g>
<!-- Node9&#45;&gt;Node6 -->
<g id="edge9" class="edge">
<title>Node9&#45;&gt;Node6</title>
<path fill="none" stroke="midnightblue" d="M415.16,-106.38C428.53,-96.62 445.68,-84.11 457.02,-75.83"/>
<polygon fill="midnightblue" stroke="midnightblue" points="413.03,-103.6 407.01,-112.32 417.15,-109.26 413.03,-103.6"/>
</g>
<!-- Node10&#45;&gt;Node6 -->
<g id="edge11" class="edge">
<title>Node10&#45;&gt;Node6</title>
<path fill="none" stroke="midnightblue" d="M532.67,-106.9C516.9,-97 496.31,-84.07 482.91,-75.65"/>
<polygon fill="midnightblue" stroke="midnightblue" points="530.98,-109.97 541.31,-112.32 534.7,-104.04 530.98,-109.97"/>
</g>
<!-- Node11&#45;&gt;Node6 -->
<g id="edge13" class="edge">
<title>Node11&#45;&gt;Node6</title>
<path fill="none" stroke="midnightblue" d="M157.57,-111.04C229.71,-100.84 340.68,-85.16 408.88,-75.52"/>
<polygon fill="midnightblue" stroke="midnightblue" points="157.06,-107.58 147.65,-112.44 158.04,-114.51 157.06,-107.58"/>
</g>
</g>
</svg>
