<?xml version="1.0" encoding="UTF-8" standalone="no"?>
<!DOCTYPE svg PUBLIC "-//W3C//DTD SVG 1.1//EN"
 "http://www.w3.org/Graphics/SVG/1.1/DTD/svg11.dtd">
<!-- Generated by graphviz version 2.43.0 (0)
 -->
<!-- Title: ntp/include/details/allocator.hpp Pages: 1 -->
<svg width="247pt" height="151pt"
 viewBox="0.00 0.00 247.46 151.00" xmlns="http://www.w3.org/2000/svg" xmlns:xlink="http://www.w3.org/1999/xlink">
<g id="graph0" class="graph" transform="scale(1 1) rotate(0) translate(4 147)">
<title>ntp/include/details/allocator.hpp</title>
<polygon fill="white" stroke="transparent" points="-4,4 -4,-147 243.46,-147 243.46,4 -4,4"/>
<!-- Node1 -->
<g id="node1" class="node">
<title>Node1</title>
<g id="a_node1"><a xlink:title="Allocator implementations.">
<polygon fill="#bfbfbf" stroke="black" points="1.96,-112.5 1.96,-142.5 108.96,-142.5 108.96,-112.5 1.96,-112.5"/>
<text text-anchor="start" x="9.96" y="-130.5" font-family="Helvetica,sans-Serif" font-size="10.00">ntp/include/details</text>
<text text-anchor="middle" x="55.46" y="-119.5" font-family="Helvetica,sans-Serif" font-size="10.00">/allocator.hpp</text>
</a>
</g>
</g>
<!-- Node2 -->
<g id="node2" class="node">
<title>Node2</title>
<g id="a_node2"><a xlink:title=" ">
<polygon fill="white" stroke="#bfbfbf" points="2.46,-0.5 2.46,-19.5 72.46,-19.5 72.46,-0.5 2.46,-0.5"/>
<text text-anchor="middle" x="37.46" y="-7.5" font-family="Helvetica,sans-Serif" font-size="10.00">Windows.h</text>
</a>
</g>
</g>
<!-- Node1&#45;&gt;Node2 -->
<g id="edge1" class="edge">
<title>Node1&#45;&gt;Node2</title>
<path fill="none" stroke="midnightblue" d="M33.76,-112.47C22.12,-103.58 8.87,-90.95 2.46,-76 -4.98,-58.63 7.75,-39.72 19.89,-26.79"/>
<polygon fill="midnightblue" stroke="midnightblue" points="22.53,-29.1 27.19,-19.59 17.61,-24.12 22.53,-29.1"/>
</g>
<!-- Node3 -->
<g id="node3" class="node">
<title>Node3</title>
<g id="a_node3"><a xlink:href="ntp__config_8hpp_source.html" target="_top" xlink:title=" ">
<polygon fill="white" stroke="black" points="11.46,-56.5 11.46,-75.5 99.46,-75.5 99.46,-56.5 11.46,-56.5"/>
<text text-anchor="middle" x="55.46" y="-63.5" font-family="Helvetica,sans-Serif" font-size="10.00">ntp_config.hpp</text>
</a>
</g>
</g>
<!-- Node1&#45;&gt;Node3 -->
<g id="edge2" class="edge">
<title>Node1&#45;&gt;Node3</title>
<path fill="none" stroke="midnightblue" d="M55.46,-112.4C55.46,-104.47 55.46,-94.46 55.46,-85.86"/>
<polygon fill="midnightblue" stroke="midnightblue" points="58.96,-85.66 55.46,-75.66 51.96,-85.66 58.96,-85.66"/>
</g>
<!-- Node4 -->
<g id="node4" class="node">
<title>Node4</title>
<g id="a_node4"><a xlink:href="exception_8hpp.html" target="_top" xlink:title="Win32 error wrapper implementations.">
<polygon fill="white" stroke="black" points="117.46,-56.5 117.46,-75.5 239.46,-75.5 239.46,-56.5 117.46,-56.5"/>
<text text-anchor="middle" x="178.46" y="-63.5" font-family="Helvetica,sans-Serif" font-size="10.00">details/exception.hpp</text>
</a>
</g>
</g>
<!-- Node1&#45;&gt;Node4 -->
<g id="edge3" class="edge">
<title>Node1&#45;&gt;Node4</title>
<path fill="none" stroke="midnightblue" d="M84.61,-112.4C104.88,-102.59 131.7,-89.62 151.48,-80.05"/>
<polygon fill="midnightblue" stroke="midnightblue" points="153.08,-83.16 160.56,-75.66 150.04,-76.86 153.08,-83.16"/>
</g>
<!-- Node4&#45;&gt;Node2 -->
<g id="edge4" class="edge">
<title>Node4&#45;&gt;Node2</title>
<path fill="none" stroke="midnightblue" d="M156.12,-56.44C132.71,-47.48 95.72,-33.31 69.27,-23.18"/>
<polygon fill="midnightblue" stroke="midnightblue" points="70.29,-19.82 59.7,-19.52 67.78,-26.36 70.29,-19.82"/>
</g>
<!-- Node5 -->
<g id="node5" class="node">
<title>Node5</title>
<g id="a_node5"><a xlink:title=" ">
<polygon fill="white" stroke="#bfbfbf" points="108.96,-0.5 108.96,-19.5 173.96,-19.5 173.96,-0.5 108.96,-0.5"/>
<text text-anchor="middle" x="141.46" y="-7.5" font-family="Helvetica,sans-Serif" font-size="10.00">stdexcept</text>
</a>
</g>
</g>
<!-- Node4&#45;&gt;Node5 -->
<g id="edge5" class="edge">
<title>Node4&#45;&gt;Node5</title>
<path fill="none" stroke="midnightblue" d="M172.35,-56.08C167.18,-48.53 159.61,-37.49 153.26,-28.23"/>
<polygon fill="midnightblue" stroke="midnightblue" points="156,-26.02 147.46,-19.75 150.22,-29.98 156,-26.02"/>
</g>
<!-- Node6 -->
<g id="node6" class="node">
<title>Node6</title>
<g id="a_node6"><a xlink:title=" ">
<polygon fill="white" stroke="#bfbfbf" points="192.46,-0.5 192.46,-19.5 236.46,-19.5 236.46,-0.5 192.46,-0.5"/>
<text text-anchor="middle" x="214.46" y="-7.5" font-family="Helvetica,sans-Serif" font-size="10.00">string</text>
</a>
</g>
</g>
<!-- Node4&#45;&gt;Node6 -->
<g id="edge6" class="edge">
<title>Node4&#45;&gt;Node6</title>
<path fill="none" stroke="midnightblue" d="M184.4,-56.08C189.44,-48.53 196.8,-37.49 202.97,-28.23"/>
<polygon fill="midnightblue" stroke="midnightblue" points="205.99,-30.01 208.63,-19.75 200.17,-26.13 205.99,-30.01"/>
</g>
</g>
</svg>
