<?xml version="1.0" encoding="UTF-8" standalone="no"?>
<!DOCTYPE svg PUBLIC "-//W3C//DTD SVG 1.1//EN"
 "http://www.w3.org/Graphics/SVG/1.1/DTD/svg11.dtd">
<!-- Generated by graphviz version 2.43.0 (0)
 -->
<!-- Title: ntp/include/pool/basic_callback.hpp Pages: 1 -->
<svg width="618pt" height="207pt"
 viewBox="0.00 0.00 617.50 207.00" xmlns="http://www.w3.org/2000/svg" xmlns:xlink="http://www.w3.org/1999/xlink">
<g id="graph0" class="graph" transform="scale(1 1) rotate(0) translate(4 203)">
<title>ntp/include/pool/basic_callback.hpp</title>
<!-- Node1 -->
<g id="node1" class="node">
<title>Node1</title>
<g id="a_node1"><a xlink:title="Interfaces and base classes for callback wrappers.">
<polygon fill="#bfbfbf" stroke="black" points="236.5,-168.5 236.5,-198.5 359.5,-198.5 359.5,-168.5 236.5,-168.5"/>
<text text-anchor="start" x="244.5" y="-186.5" font-family="Helvetica,sans-Serif" font-size="10.00">ntp/include/pool/basic</text>
<text text-anchor="middle" x="298" y="-175.5" font-family="Helvetica,sans-Serif" font-size="10.00">_callback.hpp</text>
</a>
</g>
</g>
<!-- Node2 -->
<g id="node2" class="node">
<title>Node2</title>
<g id="a_node2"><a xlink:href="io_8hpp.html" target="_top" xlink:title="Implementation of threadpool IO callback.">
<polygon fill="none" stroke="black" points="0,-112.5 0,-131.5 128,-131.5 128,-112.5 0,-112.5"/>
<text text-anchor="middle" x="64" y="-119.5" font-family="Helvetica,sans-Serif" font-size="10.00">ntp/include/pool/io.hpp</text>
</a>
</g>
</g>
<!-- Node1&#45;&gt;Node2 -->
<g id="edge1" class="edge">
<title>Node1&#45;&gt;Node2</title>
<path fill="none" stroke="midnightblue" d="M233.08,-165.99C189.06,-154.8 132.69,-140.47 97.45,-131.51"/>
<polygon fill="midnightblue" stroke="midnightblue" points="232.29,-169.4 242.84,-168.47 234.01,-162.62 232.29,-169.4"/>
</g>
<!-- Node6 -->
<g id="node6" class="node">
<title>Node6</title>
<g id="a_node6"><a xlink:href="timer_8hpp.html" target="_top" xlink:title="Implementation of threadpool timer callback.">
<polygon fill="none" stroke="black" points="146,-112.5 146,-131.5 290,-131.5 290,-112.5 146,-112.5"/>
<text text-anchor="middle" x="218" y="-119.5" font-family="Helvetica,sans-Serif" font-size="10.00">ntp/include/pool/timer.hpp</text>
</a>
</g>
</g>
<!-- Node1&#45;&gt;Node6 -->
<g id="edge5" class="edge">
<title>Node1&#45;&gt;Node6</title>
<path fill="none" stroke="midnightblue" d="M270.69,-162.19C256.68,-151.77 240.36,-139.63 229.64,-131.66"/>
<polygon fill="midnightblue" stroke="midnightblue" points="268.93,-165.24 279.04,-168.4 273.11,-159.62 268.93,-165.24"/>
</g>
<!-- Node7 -->
<g id="node7" class="node">
<title>Node7</title>
<g id="a_node7"><a xlink:href="wait_8hpp.html" target="_top" xlink:title="Implementation of threadpool wait callback.">
<polygon fill="none" stroke="black" points="308,-112.5 308,-131.5 448,-131.5 448,-112.5 308,-112.5"/>
<text text-anchor="middle" x="378" y="-119.5" font-family="Helvetica,sans-Serif" font-size="10.00">ntp/include/pool/wait.hpp</text>
</a>
</g>
</g>
<!-- Node1&#45;&gt;Node7 -->
<g id="edge7" class="edge">
<title>Node1&#45;&gt;Node7</title>
<path fill="none" stroke="midnightblue" d="M325.31,-162.19C339.32,-151.77 355.64,-139.63 366.36,-131.66"/>
<polygon fill="midnightblue" stroke="midnightblue" points="322.89,-159.62 316.96,-168.4 327.07,-165.24 322.89,-159.62"/>
</g>
<!-- Node8 -->
<g id="node8" class="node">
<title>Node8</title>
<g id="a_node8"><a xlink:href="work_8hpp.html" target="_top" xlink:title="Work callback wrapper and manager implementation.">
<polygon fill="none" stroke="black" points="466.5,-112.5 466.5,-131.5 609.5,-131.5 609.5,-112.5 466.5,-112.5"/>
<text text-anchor="middle" x="538" y="-119.5" font-family="Helvetica,sans-Serif" font-size="10.00">ntp/include/pool/work.hpp</text>
</a>
</g>
</g>
<!-- Node1&#45;&gt;Node8 -->
<g id="edge9" class="edge">
<title>Node1&#45;&gt;Node8</title>
<path fill="none" stroke="midnightblue" d="M364.3,-166.06C409.49,-154.86 467.47,-140.49 503.69,-131.51"/>
<polygon fill="midnightblue" stroke="midnightblue" points="363.44,-162.67 354.57,-168.47 365.12,-169.47 363.44,-162.67"/>
</g>
<!-- Node3 -->
<g id="node3" class="node">
<title>Node3</title>
<g id="a_node3"><a xlink:href="threadpool_8hpp.html" target="_top" xlink:title="Threadpool implementations.">
<polygon fill="none" stroke="black" points="212.5,-56.5 212.5,-75.5 383.5,-75.5 383.5,-56.5 212.5,-56.5"/>
<text text-anchor="middle" x="298" y="-63.5" font-family="Helvetica,sans-Serif" font-size="10.00">ntp/include/pool/threadpool.hpp</text>
</a>
</g>
</g>
<!-- Node2&#45;&gt;Node3 -->
<g id="edge2" class="edge">
<title>Node2&#45;&gt;Node3</title>
<path fill="none" stroke="midnightblue" d="M111,-110.15C155.22,-99.95 220.52,-84.88 261.1,-75.52"/>
<polygon fill="midnightblue" stroke="midnightblue" points="110.03,-106.78 101.08,-112.44 111.61,-113.61 110.03,-106.78"/>
</g>
<!-- Node4 -->
<g id="node4" class="node">
<title>Node4</title>
<g id="a_node4"><a xlink:href="ntp_8hpp.html" target="_top" xlink:title="Main ntp library header.">
<polygon fill="none" stroke="black" points="169,-0.5 169,-19.5 279,-19.5 279,-0.5 169,-0.5"/>
<text text-anchor="middle" x="224" y="-7.5" font-family="Helvetica,sans-Serif" font-size="10.00">ntp/include/ntp.hpp</text>
</a>
</g>
</g>
<!-- Node3&#45;&gt;Node4 -->
<g id="edge3" class="edge">
<title>Node3&#45;&gt;Node4</title>
<path fill="none" stroke="midnightblue" d="M277.97,-50.38C264.59,-40.62 247.44,-28.11 236.11,-19.83"/>
<polygon fill="midnightblue" stroke="midnightblue" points="275.97,-53.26 286.11,-56.32 280.1,-47.6 275.97,-53.26"/>
</g>
<!-- Node5 -->
<g id="node5" class="node">
<title>Node5</title>
<g id="a_node5"><a xlink:href="threadpool_8cpp.html" target="_top" xlink:title="Threadpool implementation (traits and some helper functions)">
<polygon fill="none" stroke="black" points="297.5,-0.5 297.5,-19.5 446.5,-19.5 446.5,-0.5 297.5,-0.5"/>
<text text-anchor="middle" x="372" y="-7.5" font-family="Helvetica,sans-Serif" font-size="10.00">ntp/src/pool/threadpool.cpp</text>
</a>
</g>
</g>
<!-- Node3&#45;&gt;Node5 -->
<g id="edge4" class="edge">
<title>Node3&#45;&gt;Node5</title>
<path fill="none" stroke="midnightblue" d="M318.03,-50.38C331.41,-40.62 348.56,-28.11 359.89,-19.83"/>
<polygon fill="midnightblue" stroke="midnightblue" points="315.9,-47.6 309.89,-56.32 320.03,-53.26 315.9,-47.6"/>
</g>
<!-- Node6&#45;&gt;Node3 -->
<g id="edge6" class="edge">
<title>Node6&#45;&gt;Node3</title>
<path fill="none" stroke="midnightblue" d="M239.3,-106.62C253.92,-96.76 272.83,-83.99 285.18,-75.65"/>
<polygon fill="midnightblue" stroke="midnightblue" points="237.18,-103.83 230.85,-112.32 241.1,-109.63 237.18,-103.83"/>
</g>
<!-- Node7&#45;&gt;Node3 -->
<g id="edge8" class="edge">
<title>Node7&#45;&gt;Node3</title>
<path fill="none" stroke="midnightblue" d="M356.7,-106.62C342.08,-96.76 323.17,-83.99 310.82,-75.65"/>
<polygon fill="midnightblue" stroke="midnightblue" points="354.9,-109.63 365.15,-112.32 358.82,-103.83 354.9,-109.63"/>
</g>
<!-- Node8&#45;&gt;Node3 -->
<g id="edge10" class="edge">
<title>Node8&#45;&gt;Node3</title>
<path fill="none" stroke="midnightblue" d="M490.08,-110.22C444.73,-100.01 377.56,-84.9 335.85,-75.52"/>
<polygon fill="midnightblue" stroke="midnightblue" points="489.45,-113.66 499.97,-112.44 490.98,-106.83 489.45,-113.66"/>
</g>
</g>
</svg>
