<?xml version="1.0" encoding="UTF-8" standalone="no"?>
<!DOCTYPE svg PUBLIC "-//W3C//DTD SVG 1.1//EN"
 "http://www.w3.org/Graphics/SVG/1.1/DTD/svg11.dtd">
<!-- Generated by graphviz version 2.43.0 (0)
 -->
<!-- Title: ntp/include/pool/basic_callback.hpp Pages: 1 -->
<svg width="895pt" height="263pt"
 viewBox="0.00 0.00 895.48 263.00" xmlns="http://www.w3.org/2000/svg" xmlns:xlink="http://www.w3.org/1999/xlink">
<g id="graph0" class="graph" transform="scale(1 1) rotate(0) translate(4 259)">
<title>ntp/include/pool/basic_callback.hpp</title>
<!-- Node1 -->
<g id="node1" class="node">
<title>Node1</title>
<g id="a_node1"><a xlink:title="Interfaces and base classes for callback wrappers.">
<polygon fill="#bfbfbf" stroke="black" points="450.98,-224.5 450.98,-254.5 573.98,-254.5 573.98,-224.5 450.98,-224.5"/>
<text text-anchor="start" x="458.98" y="-242.5" font-family="Helvetica,sans-Serif" font-size="10.00">ntp/include/pool/basic</text>
<text text-anchor="middle" x="512.48" y="-231.5" font-family="Helvetica,sans-Serif" font-size="10.00">_callback.hpp</text>
</a>
</g>
</g>
<!-- Node2 -->
<g id="node2" class="node">
<title>Node2</title>
<g id="a_node2"><a xlink:title=" ">
<polygon fill="none" stroke="#bfbfbf" points="157.48,-0.5 157.48,-19.5 227.48,-19.5 227.48,-0.5 157.48,-0.5"/>
<text text-anchor="middle" x="192.48" y="-7.5" font-family="Helvetica,sans-Serif" font-size="10.00">Windows.h</text>
</a>
</g>
</g>
<!-- Node1&#45;&gt;Node2 -->
<g id="edge1" class="edge">
<title>Node1&#45;&gt;Node2</title>
<path fill="none" stroke="midnightblue" d="M450.6,-238.52C355.62,-235.64 171.84,-218.26 47.48,-132 21.47,-113.96 13.83,-105.91 3.48,-76 0.58,-67.6 -2.03,-62.98 3.48,-56 21.08,-33.71 97.31,-21.28 147.42,-15.37"/>
<polygon fill="midnightblue" stroke="midnightblue" points="147.83,-18.85 157.37,-14.24 147.04,-11.89 147.83,-18.85"/>
</g>
<!-- Node3 -->
<g id="node3" class="node">
<title>Node3</title>
<g id="a_node3"><a xlink:title=" ">
<polygon fill="none" stroke="#bfbfbf" points="432.48,-168.5 432.48,-187.5 470.48,-187.5 470.48,-168.5 432.48,-168.5"/>
<text text-anchor="middle" x="451.48" y="-175.5" font-family="Helvetica,sans-Serif" font-size="10.00">map</text>
</a>
</g>
</g>
<!-- Node1&#45;&gt;Node3 -->
<g id="edge2" class="edge">
<title>Node1&#45;&gt;Node3</title>
<path fill="none" stroke="midnightblue" d="M498.03,-224.4C488.89,-215.49 477.06,-203.95 467.62,-194.74"/>
<polygon fill="midnightblue" stroke="midnightblue" points="469.96,-192.13 460.36,-187.66 465.07,-197.15 469.96,-192.13"/>
</g>
<!-- Node4 -->
<g id="node4" class="node">
<title>Node4</title>
<g id="a_node4"><a xlink:title=" ">
<polygon fill="none" stroke="#bfbfbf" points="488.48,-168.5 488.48,-187.5 536.48,-187.5 536.48,-168.5 488.48,-168.5"/>
<text text-anchor="middle" x="512.48" y="-175.5" font-family="Helvetica,sans-Serif" font-size="10.00">mutex</text>
</a>
</g>
</g>
<!-- Node1&#45;&gt;Node4 -->
<g id="edge3" class="edge">
<title>Node1&#45;&gt;Node4</title>
<path fill="none" stroke="midnightblue" d="M512.48,-224.4C512.48,-216.47 512.48,-206.46 512.48,-197.86"/>
<polygon fill="midnightblue" stroke="midnightblue" points="515.98,-197.66 512.48,-187.66 508.98,-197.66 515.98,-197.66"/>
</g>
<!-- Node5 -->
<g id="node5" class="node">
<title>Node5</title>
<g id="a_node5"><a xlink:title=" ">
<polygon fill="none" stroke="#bfbfbf" points="554.48,-168.5 554.48,-187.5 612.48,-187.5 612.48,-168.5 554.48,-168.5"/>
<text text-anchor="middle" x="583.48" y="-175.5" font-family="Helvetica,sans-Serif" font-size="10.00">memory</text>
</a>
</g>
</g>
<!-- Node1&#45;&gt;Node5 -->
<g id="edge4" class="edge">
<title>Node1&#45;&gt;Node5</title>
<path fill="none" stroke="midnightblue" d="M529.31,-224.4C540.16,-215.31 554.26,-203.49 565.35,-194.19"/>
<polygon fill="midnightblue" stroke="midnightblue" points="567.73,-196.76 573.15,-187.66 563.24,-191.4 567.73,-196.76"/>
</g>
<!-- Node6 -->
<g id="node6" class="node">
<title>Node6</title>
<g id="a_node6"><a xlink:title=" ">
<polygon fill="none" stroke="#bfbfbf" points="630.98,-168.5 630.98,-187.5 695.98,-187.5 695.98,-168.5 630.98,-168.5"/>
<text text-anchor="middle" x="663.48" y="-175.5" font-family="Helvetica,sans-Serif" font-size="10.00">functional</text>
</a>
</g>
</g>
<!-- Node1&#45;&gt;Node6 -->
<g id="edge5" class="edge">
<title>Node1&#45;&gt;Node6</title>
<path fill="none" stroke="midnightblue" d="M548.27,-224.4C573.71,-214.37 607.58,-201.03 632,-191.4"/>
<polygon fill="midnightblue" stroke="midnightblue" points="633.49,-194.58 641.51,-187.66 630.92,-188.07 633.49,-194.58"/>
</g>
<!-- Node7 -->
<g id="node7" class="node">
<title>Node7</title>
<g id="a_node7"><a xlink:title=" ">
<polygon fill="none" stroke="#bfbfbf" points="713.98,-168.5 713.98,-187.5 782.98,-187.5 782.98,-168.5 713.98,-168.5"/>
<text text-anchor="middle" x="748.48" y="-175.5" font-family="Helvetica,sans-Serif" font-size="10.00">type_traits</text>
</a>
</g>
</g>
<!-- Node1&#45;&gt;Node7 -->
<g id="edge6" class="edge">
<title>Node1&#45;&gt;Node7</title>
<path fill="none" stroke="midnightblue" d="M568.11,-224.47C609.89,-213.94 666.31,-199.72 704.86,-190"/>
<polygon fill="midnightblue" stroke="midnightblue" points="705.9,-193.34 714.74,-187.51 704.19,-186.56 705.9,-193.34"/>
</g>
<!-- Node8 -->
<g id="node8" class="node">
<title>Node8</title>
<g id="a_node8"><a xlink:title=" ">
<polygon fill="none" stroke="#bfbfbf" points="801.48,-168.5 801.48,-187.5 887.48,-187.5 887.48,-168.5 801.48,-168.5"/>
<text text-anchor="middle" x="844.48" y="-175.5" font-family="Helvetica,sans-Serif" font-size="10.00">shared_mutex</text>
</a>
</g>
</g>
<!-- Node1&#45;&gt;Node8 -->
<g id="edge7" class="edge">
<title>Node1&#45;&gt;Node8</title>
<path fill="none" stroke="midnightblue" d="M574.15,-227.45C636.55,-216.27 732.02,-199.15 791.22,-188.54"/>
<polygon fill="midnightblue" stroke="midnightblue" points="791.89,-191.98 801.12,-186.77 790.66,-185.09 791.89,-191.98"/>
</g>
<!-- Node9 -->
<g id="node9" class="node">
<title>Node9</title>
<g id="a_node9"><a xlink:href="ntp__config_8hpp_source.html" target="_top" xlink:title=" ">
<polygon fill="none" stroke="black" points="360.48,-56.5 360.48,-75.5 448.48,-75.5 448.48,-56.5 360.48,-56.5"/>
<text text-anchor="middle" x="404.48" y="-63.5" font-family="Helvetica,sans-Serif" font-size="10.00">ntp_config.hpp</text>
</a>
</g>
</g>
<!-- Node1&#45;&gt;Node9 -->
<g id="edge8" class="edge">
<title>Node1&#45;&gt;Node9</title>
<path fill="none" stroke="midnightblue" d="M471.35,-224.5C453.91,-216.49 435,-204.66 423.48,-188 402.08,-157.06 401.18,-111.1 402.67,-85.65"/>
<polygon fill="midnightblue" stroke="midnightblue" points="406.17,-85.77 403.46,-75.53 399.19,-85.23 406.17,-85.77"/>
</g>
<!-- Node10 -->
<g id="node10" class="node">
<title>Node10</title>
<g id="a_node10"><a xlink:href="utils_8hpp.html" target="_top" xlink:title="Some useful implementation stuff.">
<polygon fill="none" stroke="black" points="232.98,-168.5 232.98,-187.5 327.98,-187.5 327.98,-168.5 232.98,-168.5"/>
<text text-anchor="middle" x="280.48" y="-175.5" font-family="Helvetica,sans-Serif" font-size="10.00">details/utils.hpp</text>
</a>
</g>
</g>
<!-- Node1&#45;&gt;Node10 -->
<g id="edge9" class="edge">
<title>Node1&#45;&gt;Node10</title>
<path fill="none" stroke="midnightblue" d="M457.79,-224.47C416.72,-213.94 361.26,-199.72 323.36,-190"/>
<polygon fill="midnightblue" stroke="midnightblue" points="324.2,-186.6 313.65,-187.51 322.47,-193.38 324.2,-186.6"/>
</g>
<!-- Node10&#45;&gt;Node9 -->
<g id="edge11" class="edge">
<title>Node10&#45;&gt;Node9</title>
<path fill="none" stroke="midnightblue" d="M295.65,-168.37C309.78,-159.99 331.06,-146.43 347.48,-132 364.31,-117.2 380.9,-97.56 391.8,-83.75"/>
<polygon fill="midnightblue" stroke="midnightblue" points="394.73,-85.68 398.09,-75.63 389.2,-81.4 394.73,-85.68"/>
</g>
<!-- Node11 -->
<g id="node11" class="node">
<title>Node11</title>
<g id="a_node11"><a xlink:title=" ">
<polygon fill="none" stroke="#bfbfbf" points="154.48,-112.5 154.48,-131.5 204.48,-131.5 204.48,-112.5 154.48,-112.5"/>
<text text-anchor="middle" x="179.48" y="-119.5" font-family="Helvetica,sans-Serif" font-size="10.00">atomic</text>
</a>
</g>
</g>
<!-- Node10&#45;&gt;Node11 -->
<g id="edge10" class="edge">
<title>Node10&#45;&gt;Node11</title>
<path fill="none" stroke="midnightblue" d="M264.25,-168.32C248.13,-159.7 223.18,-146.36 204.52,-136.39"/>
<polygon fill="midnightblue" stroke="midnightblue" points="206.14,-133.28 195.67,-131.65 202.84,-139.46 206.14,-133.28"/>
</g>
<!-- Node12 -->
<g id="node12" class="node">
<title>Node12</title>
<g id="a_node12"><a xlink:href="ntrtl_8h.html" target="_top" xlink:title="Contains necessary declarations/definitions of internal windows objects and functions.">
<polygon fill="none" stroke="black" points="56.48,-112.5 56.48,-131.5 136.48,-131.5 136.48,-112.5 56.48,-112.5"/>
<text text-anchor="middle" x="96.48" y="-119.5" font-family="Helvetica,sans-Serif" font-size="10.00">native/ntrtl.h</text>
</a>
</g>
</g>
<!-- Node10&#45;&gt;Node12 -->
<g id="edge12" class="edge">
<title>Node10&#45;&gt;Node12</title>
<path fill="none" stroke="midnightblue" d="M251.33,-168.44C219.97,-159.24 169.95,-144.56 135.28,-134.39"/>
<polygon fill="midnightblue" stroke="midnightblue" points="136.08,-130.97 125.5,-131.52 134.11,-137.69 136.08,-130.97"/>
</g>
<!-- Node15 -->
<g id="node15" class="node">
<title>Node15</title>
<g id="a_node15"><a xlink:href="allocator_8hpp.html" target="_top" xlink:title="Allocator implementations.">
<polygon fill="none" stroke="black" points="222.48,-112.5 222.48,-131.5 338.48,-131.5 338.48,-112.5 222.48,-112.5"/>
<text text-anchor="middle" x="280.48" y="-119.5" font-family="Helvetica,sans-Serif" font-size="10.00">details/allocator.hpp</text>
</a>
</g>
</g>
<!-- Node10&#45;&gt;Node15 -->
<g id="edge15" class="edge">
<title>Node10&#45;&gt;Node15</title>
<path fill="none" stroke="midnightblue" d="M280.48,-168.08C280.48,-161.01 280.48,-150.86 280.48,-141.99"/>
<polygon fill="midnightblue" stroke="midnightblue" points="283.98,-141.75 280.48,-131.75 276.98,-141.75 283.98,-141.75"/>
</g>
<!-- Node13 -->
<g id="node13" class="node">
<title>Node13</title>
<g id="a_node13"><a xlink:title=" ">
<polygon fill="none" stroke="#bfbfbf" points="96.48,-56.5 96.48,-75.5 164.48,-75.5 164.48,-56.5 96.48,-56.5"/>
<text text-anchor="middle" x="130.48" y="-63.5" font-family="Helvetica,sans-Serif" font-size="10.00">windows.h</text>
</a>
</g>
</g>
<!-- Node12&#45;&gt;Node13 -->
<g id="edge13" class="edge">
<title>Node12&#45;&gt;Node13</title>
<path fill="none" stroke="midnightblue" d="M102.1,-112.08C106.85,-104.53 113.8,-93.49 119.63,-84.23"/>
<polygon fill="midnightblue" stroke="midnightblue" points="122.6,-86.08 124.97,-75.75 116.68,-82.35 122.6,-86.08"/>
</g>
<!-- Node14 -->
<g id="node14" class="node">
<title>Node14</title>
<g id="a_node14"><a xlink:title=" ">
<polygon fill="none" stroke="#bfbfbf" points="12.98,-56.5 12.98,-75.5 77.98,-75.5 77.98,-56.5 12.98,-56.5"/>
<text text-anchor="middle" x="45.48" y="-63.5" font-family="Helvetica,sans-Serif" font-size="10.00">winternl.h</text>
</a>
</g>
</g>
<!-- Node12&#45;&gt;Node14 -->
<g id="edge14" class="edge">
<title>Node12&#45;&gt;Node14</title>
<path fill="none" stroke="midnightblue" d="M88.06,-112.08C80.63,-104.22 69.63,-92.57 60.67,-83.08"/>
<polygon fill="midnightblue" stroke="midnightblue" points="63.16,-80.62 53.75,-75.75 58.07,-85.42 63.16,-80.62"/>
</g>
<!-- Node15&#45;&gt;Node2 -->
<g id="edge16" class="edge">
<title>Node15&#45;&gt;Node2</title>
<path fill="none" stroke="midnightblue" d="M259.79,-112.35C244.34,-104.88 223.84,-92.65 211.48,-76 201.52,-62.58 196.76,-44.01 194.5,-30.16"/>
<polygon fill="midnightblue" stroke="midnightblue" points="197.92,-29.3 193.13,-19.85 190.98,-30.22 197.92,-29.3"/>
</g>
<!-- Node15&#45;&gt;Node9 -->
<g id="edge17" class="edge">
<title>Node15&#45;&gt;Node9</title>
<path fill="none" stroke="midnightblue" d="M300.13,-112.44C320.45,-103.6 352.38,-89.69 375.58,-79.59"/>
<polygon fill="midnightblue" stroke="midnightblue" points="377.15,-82.72 384.92,-75.52 374.36,-76.3 377.15,-82.72"/>
</g>
<!-- Node16 -->
<g id="node16" class="node">
<title>Node16</title>
<g id="a_node16"><a xlink:href="exception_8hpp.html" target="_top" xlink:title="Win32 error wrapper implementations.">
<polygon fill="none" stroke="black" points="220.48,-56.5 220.48,-75.5 342.48,-75.5 342.48,-56.5 220.48,-56.5"/>
<text text-anchor="middle" x="281.48" y="-63.5" font-family="Helvetica,sans-Serif" font-size="10.00">details/exception.hpp</text>
</a>
</g>
</g>
<!-- Node15&#45;&gt;Node16 -->
<g id="edge18" class="edge">
<title>Node15&#45;&gt;Node16</title>
<path fill="none" stroke="midnightblue" d="M280.65,-112.08C280.78,-105.01 280.97,-94.86 281.13,-85.99"/>
<polygon fill="midnightblue" stroke="midnightblue" points="284.63,-85.81 281.32,-75.75 277.63,-85.68 284.63,-85.81"/>
</g>
<!-- Node16&#45;&gt;Node2 -->
<g id="edge19" class="edge">
<title>Node16&#45;&gt;Node2</title>
<path fill="none" stroke="midnightblue" d="M267.18,-56.32C253.3,-47.9 231.99,-34.97 215.68,-25.07"/>
<polygon fill="midnightblue" stroke="midnightblue" points="217.11,-21.85 206.75,-19.65 213.48,-27.83 217.11,-21.85"/>
</g>
<!-- Node17 -->
<g id="node17" class="node">
<title>Node17</title>
<g id="a_node17"><a xlink:title=" ">
<polygon fill="none" stroke="#bfbfbf" points="314.98,-0.5 314.98,-19.5 379.98,-19.5 379.98,-0.5 314.98,-0.5"/>
<text text-anchor="middle" x="347.48" y="-7.5" font-family="Helvetica,sans-Serif" font-size="10.00">stdexcept</text>
</a>
</g>
</g>
<!-- Node16&#45;&gt;Node17 -->
<g id="edge20" class="edge">
<title>Node16&#45;&gt;Node17</title>
<path fill="none" stroke="midnightblue" d="M292.09,-56.32C301.94,-48.26 316.83,-36.08 328.7,-26.37"/>
<polygon fill="midnightblue" stroke="midnightblue" points="331.16,-28.88 336.68,-19.83 326.73,-23.46 331.16,-28.88"/>
</g>
<!-- Node18 -->
<g id="node18" class="node">
<title>Node18</title>
<g id="a_node18"><a xlink:title=" ">
<polygon fill="none" stroke="#bfbfbf" points="252.48,-0.5 252.48,-19.5 296.48,-19.5 296.48,-0.5 252.48,-0.5"/>
<text text-anchor="middle" x="274.48" y="-7.5" font-family="Helvetica,sans-Serif" font-size="10.00">string</text>
</a>
</g>
</g>
<!-- Node16&#45;&gt;Node18 -->
<g id="edge21" class="edge">
<title>Node16&#45;&gt;Node18</title>
<path fill="none" stroke="midnightblue" d="M280.33,-56.08C279.4,-48.93 278.06,-38.64 276.9,-29.69"/>
<polygon fill="midnightblue" stroke="midnightblue" points="280.37,-29.22 275.62,-19.75 273.43,-30.12 280.37,-29.22"/>
</g>
</g>
</svg>
