<?xml version="1.0" encoding="UTF-8" standalone="no"?>
<!DOCTYPE svg PUBLIC "-//W3C//DTD SVG 1.1//EN"
 "http://www.w3.org/Graphics/SVG/1.1/DTD/svg11.dtd">
<!-- Generated by graphviz version 2.43.0 (0)
 -->
<!-- Title: ntp/include/pool/basic_callback.hpp Pages: 1 -->
<svg width="881pt" height="319pt"
 viewBox="0.00 0.00 881.41 319.00" xmlns="http://www.w3.org/2000/svg" xmlns:xlink="http://www.w3.org/1999/xlink">
<g id="graph0" class="graph" transform="scale(1 1) rotate(0) translate(4 315)">
<title>ntp/include/pool/basic_callback.hpp</title>
<!-- Node1 -->
<g id="node1" class="node">
<title>Node1</title>
<g id="a_node1"><a xlink:title="Interfaces and base classes for callback wrappers.">
<polygon fill="#bfbfbf" stroke="black" points="211.5,-280.5 211.5,-310.5 334.5,-310.5 334.5,-280.5 211.5,-280.5"/>
<text text-anchor="start" x="219.5" y="-298.5" font-family="Helvetica,sans-Serif" font-size="10.00">ntp/include/pool/basic</text>
<text text-anchor="middle" x="273" y="-287.5" font-family="Helvetica,sans-Serif" font-size="10.00">_callback.hpp</text>
</a>
</g>
</g>
<!-- Node2 -->
<g id="node2" class="node">
<title>Node2</title>
<g id="a_node2"><a xlink:title=" ">
<polygon fill="none" stroke="#bfbfbf" points="0,-224.5 0,-243.5 38,-243.5 38,-224.5 0,-224.5"/>
<text text-anchor="middle" x="19" y="-231.5" font-family="Helvetica,sans-Serif" font-size="10.00">map</text>
</a>
</g>
</g>
<!-- Node1&#45;&gt;Node2 -->
<g id="edge1" class="edge">
<title>Node1&#45;&gt;Node2</title>
<path fill="none" stroke="midnightblue" d="M211.24,-282.29C167.92,-273.35 108.49,-260.38 47.94,-244.07"/>
<polygon fill="midnightblue" stroke="midnightblue" points="48.78,-240.68 38.21,-241.43 46.94,-247.43 48.78,-240.68"/>
</g>
<!-- Node3 -->
<g id="node3" class="node">
<title>Node3</title>
<g id="a_node3"><a xlink:title=" ">
<polygon fill="none" stroke="#bfbfbf" points="56,-224.5 56,-243.5 104,-243.5 104,-224.5 56,-224.5"/>
<text text-anchor="middle" x="80" y="-231.5" font-family="Helvetica,sans-Serif" font-size="10.00">mutex</text>
</a>
</g>
</g>
<!-- Node1&#45;&gt;Node3 -->
<g id="edge2" class="edge">
<title>Node1&#45;&gt;Node3</title>
<path fill="none" stroke="midnightblue" d="M227.26,-280.4C192.46,-269.67 145.34,-255.14 113.87,-245.44"/>
<polygon fill="midnightblue" stroke="midnightblue" points="114.83,-242.07 104.24,-242.47 112.76,-248.76 114.83,-242.07"/>
</g>
<!-- Node4 -->
<g id="node4" class="node">
<title>Node4</title>
<g id="a_node4"><a xlink:title=" ">
<polygon fill="none" stroke="#bfbfbf" points="122,-224.5 122,-243.5 180,-243.5 180,-224.5 122,-224.5"/>
<text text-anchor="middle" x="151" y="-231.5" font-family="Helvetica,sans-Serif" font-size="10.00">memory</text>
</a>
</g>
</g>
<!-- Node1&#45;&gt;Node4 -->
<g id="edge3" class="edge">
<title>Node1&#45;&gt;Node4</title>
<path fill="none" stroke="midnightblue" d="M244.09,-280.4C223.98,-270.59 197.38,-257.62 177.76,-248.05"/>
<polygon fill="midnightblue" stroke="midnightblue" points="179.27,-244.9 168.75,-243.66 176.21,-251.19 179.27,-244.9"/>
</g>
<!-- Node5 -->
<g id="node5" class="node">
<title>Node5</title>
<g id="a_node5"><a xlink:title=" ">
<polygon fill="none" stroke="#bfbfbf" points="198.5,-224.5 198.5,-243.5 263.5,-243.5 263.5,-224.5 198.5,-224.5"/>
<text text-anchor="middle" x="231" y="-231.5" font-family="Helvetica,sans-Serif" font-size="10.00">functional</text>
</a>
</g>
</g>
<!-- Node1&#45;&gt;Node5 -->
<g id="edge4" class="edge">
<title>Node1&#45;&gt;Node5</title>
<path fill="none" stroke="midnightblue" d="M263.05,-280.4C257.01,-271.84 249.26,-260.87 242.9,-251.86"/>
<polygon fill="midnightblue" stroke="midnightblue" points="245.74,-249.81 237.11,-243.66 240.02,-253.85 245.74,-249.81"/>
</g>
<!-- Node6 -->
<g id="node6" class="node">
<title>Node6</title>
<g id="a_node6"><a xlink:title=" ">
<polygon fill="none" stroke="#bfbfbf" points="281.5,-224.5 281.5,-243.5 350.5,-243.5 350.5,-224.5 281.5,-224.5"/>
<text text-anchor="middle" x="316" y="-231.5" font-family="Helvetica,sans-Serif" font-size="10.00">type_traits</text>
</a>
</g>
</g>
<!-- Node1&#45;&gt;Node6 -->
<g id="edge5" class="edge">
<title>Node1&#45;&gt;Node6</title>
<path fill="none" stroke="midnightblue" d="M283.19,-280.4C289.37,-271.84 297.3,-260.87 303.82,-251.86"/>
<polygon fill="midnightblue" stroke="midnightblue" points="306.72,-253.81 309.74,-243.66 301.05,-249.71 306.72,-253.81"/>
</g>
<!-- Node7 -->
<g id="node7" class="node">
<title>Node7</title>
<g id="a_node7"><a xlink:title=" ">
<polygon fill="none" stroke="#bfbfbf" points="369,-224.5 369,-243.5 455,-243.5 455,-224.5 369,-224.5"/>
<text text-anchor="middle" x="412" y="-231.5" font-family="Helvetica,sans-Serif" font-size="10.00">shared_mutex</text>
</a>
</g>
</g>
<!-- Node1&#45;&gt;Node7 -->
<g id="edge6" class="edge">
<title>Node1&#45;&gt;Node7</title>
<path fill="none" stroke="midnightblue" d="M305.94,-280.4C329.16,-270.46 359.99,-257.26 382.42,-247.66"/>
<polygon fill="midnightblue" stroke="midnightblue" points="383.96,-250.81 391.77,-243.66 381.2,-244.38 383.96,-250.81"/>
</g>
<!-- Node8 -->
<g id="node8" class="node">
<title>Node8</title>
<g id="a_node8"><a xlink:href="windows_8hpp_source.html" target="_top" xlink:title=" ">
<polygon fill="none" stroke="black" points="596,-56.5 596,-75.5 712,-75.5 712,-56.5 596,-56.5"/>
<text text-anchor="middle" x="654" y="-63.5" font-family="Helvetica,sans-Serif" font-size="10.00">details/windows.hpp</text>
</a>
</g>
</g>
<!-- Node1&#45;&gt;Node8 -->
<g id="edge7" class="edge">
<title>Node1&#45;&gt;Node8</title>
<path fill="none" stroke="midnightblue" d="M334.87,-293.39C376.54,-289.37 429.92,-277.34 464,-244 507.64,-201.31 458.99,-155.33 502,-112 524.02,-89.81 556.44,-78.45 585.68,-72.68"/>
<polygon fill="midnightblue" stroke="midnightblue" points="586.63,-76.07 595.87,-70.87 585.41,-69.18 586.63,-76.07"/>
</g>
<!-- Node11 -->
<g id="node11" class="node">
<title>Node11</title>
<g id="a_node11"><a xlink:href="utils_8hpp.html" target="_top" xlink:title="Some useful implementation stuff.">
<polygon fill="none" stroke="black" points="612.5,-224.5 612.5,-243.5 707.5,-243.5 707.5,-224.5 612.5,-224.5"/>
<text text-anchor="middle" x="660" y="-231.5" font-family="Helvetica,sans-Serif" font-size="10.00">details/utils.hpp</text>
</a>
</g>
</g>
<!-- Node1&#45;&gt;Node11 -->
<g id="edge10" class="edge">
<title>Node1&#45;&gt;Node11</title>
<path fill="none" stroke="midnightblue" d="M334.75,-285.01C408.38,-273.69 530.48,-254.91 602.28,-243.87"/>
<polygon fill="midnightblue" stroke="midnightblue" points="603.15,-247.28 612.5,-242.3 602.08,-240.36 603.15,-247.28"/>
</g>
<!-- Node9 -->
<g id="node9" class="node">
<title>Node9</title>
<g id="a_node9"><a xlink:href="ntp__config_8hpp_source.html" target="_top" xlink:title=" ">
<polygon fill="none" stroke="black" points="774,-0.5 774,-19.5 862,-19.5 862,-0.5 774,-0.5"/>
<text text-anchor="middle" x="818" y="-7.5" font-family="Helvetica,sans-Serif" font-size="10.00">ntp_config.hpp</text>
</a>
</g>
</g>
<!-- Node8&#45;&gt;Node9 -->
<g id="edge8" class="edge">
<title>Node8&#45;&gt;Node9</title>
<path fill="none" stroke="midnightblue" d="M679.99,-56.44C707.7,-47.32 751.75,-32.81 782.62,-22.65"/>
<polygon fill="midnightblue" stroke="midnightblue" points="783.73,-25.97 792.14,-19.52 781.54,-19.32 783.73,-25.97"/>
</g>
<!-- Node10 -->
<g id="node10" class="node">
<title>Node10</title>
<g id="a_node10"><a xlink:title=" ">
<polygon fill="none" stroke="#bfbfbf" points="619,-0.5 619,-19.5 689,-19.5 689,-0.5 619,-0.5"/>
<text text-anchor="middle" x="654" y="-7.5" font-family="Helvetica,sans-Serif" font-size="10.00">Windows.h</text>
</a>
</g>
</g>
<!-- Node8&#45;&gt;Node10 -->
<g id="edge9" class="edge">
<title>Node8&#45;&gt;Node10</title>
<path fill="none" stroke="midnightblue" d="M654,-56.08C654,-49.01 654,-38.86 654,-29.99"/>
<polygon fill="midnightblue" stroke="midnightblue" points="657.5,-29.75 654,-19.75 650.5,-29.75 657.5,-29.75"/>
</g>
<!-- Node11&#45;&gt;Node9 -->
<g id="edge11" class="edge">
<title>Node11&#45;&gt;Node9</title>
<path fill="none" stroke="midnightblue" d="M698.19,-224.48C742.93,-212.3 815.35,-185.22 850,-132 868.89,-102.99 880.92,-87.69 867,-56 861.61,-43.73 851.04,-33.34 841.1,-25.65"/>
<polygon fill="midnightblue" stroke="midnightblue" points="842.83,-22.58 832.66,-19.6 838.75,-28.27 842.83,-22.58"/>
</g>
<!-- Node12 -->
<g id="node12" class="node">
<title>Node12</title>
<g id="a_node12"><a xlink:href="ntrtl_8h.html" target="_top" xlink:title="Contains necessary declarations/definitions of internal windows objects and functions.">
<polygon fill="none" stroke="black" points="562,-168.5 562,-187.5 642,-187.5 642,-168.5 562,-168.5"/>
<text text-anchor="middle" x="602" y="-175.5" font-family="Helvetica,sans-Serif" font-size="10.00">native/ntrtl.h</text>
</a>
</g>
</g>
<!-- Node11&#45;&gt;Node12 -->
<g id="edge12" class="edge">
<title>Node11&#45;&gt;Node12</title>
<path fill="none" stroke="midnightblue" d="M650.68,-224.32C642.11,-216.34 629.19,-204.31 618.81,-194.65"/>
<polygon fill="midnightblue" stroke="midnightblue" points="621.19,-192.09 611.49,-187.83 616.42,-197.21 621.19,-192.09"/>
</g>
<!-- Node15 -->
<g id="node15" class="node">
<title>Node15</title>
<g id="a_node15"><a xlink:href="allocator_8hpp.html" target="_top" xlink:title="Allocator implementations.">
<polygon fill="none" stroke="black" points="660,-168.5 660,-187.5 776,-187.5 776,-168.5 660,-168.5"/>
<text text-anchor="middle" x="718" y="-175.5" font-family="Helvetica,sans-Serif" font-size="10.00">details/allocator.hpp</text>
</a>
</g>
</g>
<!-- Node11&#45;&gt;Node15 -->
<g id="edge15" class="edge">
<title>Node11&#45;&gt;Node15</title>
<path fill="none" stroke="midnightblue" d="M669.32,-224.32C677.89,-216.34 690.81,-204.31 701.19,-194.65"/>
<polygon fill="midnightblue" stroke="midnightblue" points="703.58,-197.21 708.51,-187.83 698.81,-192.09 703.58,-197.21"/>
</g>
<!-- Node13 -->
<g id="node13" class="node">
<title>Node13</title>
<g id="a_node13"><a xlink:title=" ">
<polygon fill="none" stroke="#bfbfbf" points="595,-112.5 595,-131.5 663,-131.5 663,-112.5 595,-112.5"/>
<text text-anchor="middle" x="629" y="-119.5" font-family="Helvetica,sans-Serif" font-size="10.00">windows.h</text>
</a>
</g>
</g>
<!-- Node12&#45;&gt;Node13 -->
<g id="edge13" class="edge">
<title>Node12&#45;&gt;Node13</title>
<path fill="none" stroke="midnightblue" d="M606.46,-168.08C610.15,-160.69 615.52,-149.95 620.09,-140.81"/>
<polygon fill="midnightblue" stroke="midnightblue" points="623.28,-142.26 624.62,-131.75 617.02,-139.13 623.28,-142.26"/>
</g>
<!-- Node14 -->
<g id="node14" class="node">
<title>Node14</title>
<g id="a_node14"><a xlink:title=" ">
<polygon fill="none" stroke="#bfbfbf" points="511.5,-112.5 511.5,-131.5 576.5,-131.5 576.5,-112.5 511.5,-112.5"/>
<text text-anchor="middle" x="544" y="-119.5" font-family="Helvetica,sans-Serif" font-size="10.00">winternl.h</text>
</a>
</g>
</g>
<!-- Node12&#45;&gt;Node14 -->
<g id="edge14" class="edge">
<title>Node12&#45;&gt;Node14</title>
<path fill="none" stroke="midnightblue" d="M592.68,-168.32C584.11,-160.34 571.19,-148.31 560.81,-138.65"/>
<polygon fill="midnightblue" stroke="midnightblue" points="563.19,-136.09 553.49,-131.83 558.42,-141.21 563.19,-136.09"/>
</g>
<!-- Node15&#45;&gt;Node8 -->
<g id="edge20" class="edge">
<title>Node15&#45;&gt;Node8</title>
<path fill="none" stroke="midnightblue" d="M712.98,-168.37C702.46,-150.3 677.96,-108.18 664.07,-84.31"/>
<polygon fill="midnightblue" stroke="midnightblue" points="667.05,-82.47 659,-75.59 661,-86 667.05,-82.47"/>
</g>
<!-- Node16 -->
<g id="node16" class="node">
<title>Node16</title>
<g id="a_node16"><a xlink:href="exception_8hpp.html" target="_top" xlink:title="Win32 error wrapper implementations.">
<polygon fill="none" stroke="black" points="719,-112.5 719,-131.5 841,-131.5 841,-112.5 719,-112.5"/>
<text text-anchor="middle" x="780" y="-119.5" font-family="Helvetica,sans-Serif" font-size="10.00">details/exception.hpp</text>
</a>
</g>
</g>
<!-- Node15&#45;&gt;Node16 -->
<g id="edge16" class="edge">
<title>Node15&#45;&gt;Node16</title>
<path fill="none" stroke="midnightblue" d="M727.96,-168.32C737.13,-160.34 750.94,-148.31 762.03,-138.65"/>
<polygon fill="midnightblue" stroke="midnightblue" points="764.62,-141.04 769.86,-131.83 760.02,-135.76 764.62,-141.04"/>
</g>
<!-- Node16&#45;&gt;Node8 -->
<g id="edge19" class="edge">
<title>Node16&#45;&gt;Node8</title>
<path fill="none" stroke="midnightblue" d="M760.03,-112.44C739.39,-103.6 706.94,-89.69 683.37,-79.59"/>
<polygon fill="midnightblue" stroke="midnightblue" points="684.44,-76.24 673.87,-75.52 681.68,-82.67 684.44,-76.24"/>
</g>
<!-- Node17 -->
<g id="node17" class="node">
<title>Node17</title>
<g id="a_node17"><a xlink:title=" ">
<polygon fill="none" stroke="#bfbfbf" points="730.5,-56.5 730.5,-75.5 795.5,-75.5 795.5,-56.5 730.5,-56.5"/>
<text text-anchor="middle" x="763" y="-63.5" font-family="Helvetica,sans-Serif" font-size="10.00">stdexcept</text>
</a>
</g>
</g>
<!-- Node16&#45;&gt;Node17 -->
<g id="edge17" class="edge">
<title>Node16&#45;&gt;Node17</title>
<path fill="none" stroke="midnightblue" d="M777.19,-112.08C774.92,-104.85 771.63,-94.41 768.79,-85.4"/>
<polygon fill="midnightblue" stroke="midnightblue" points="772.1,-84.24 765.75,-75.75 765.42,-86.34 772.1,-84.24"/>
</g>
<!-- Node18 -->
<g id="node18" class="node">
<title>Node18</title>
<g id="a_node18"><a xlink:title=" ">
<polygon fill="none" stroke="#bfbfbf" points="814,-56.5 814,-75.5 858,-75.5 858,-56.5 814,-56.5"/>
<text text-anchor="middle" x="836" y="-63.5" font-family="Helvetica,sans-Serif" font-size="10.00">string</text>
</a>
</g>
</g>
<!-- Node16&#45;&gt;Node18 -->
<g id="edge18" class="edge">
<title>Node16&#45;&gt;Node18</title>
<path fill="none" stroke="midnightblue" d="M789,-112.32C797.19,-104.42 809.51,-92.55 819.47,-82.94"/>
<polygon fill="midnightblue" stroke="midnightblue" points="822.07,-85.29 826.84,-75.83 817.21,-80.26 822.07,-85.29"/>
</g>
</g>
</svg>
