<?xml version="1.0" encoding="UTF-8" standalone="no"?>
<!DOCTYPE svg PUBLIC "-//W3C//DTD SVG 1.1//EN"
 "http://www.w3.org/Graphics/SVG/1.1/DTD/svg11.dtd">
<!-- Generated by graphviz version 2.43.0 (0)
 -->
<!-- Title: ntp/include/pool/basic_callback.hpp Pages: 1 -->
<svg width="897pt" height="263pt"
 viewBox="0.00 0.00 897.07 263.00" xmlns="http://www.w3.org/2000/svg" xmlns:xlink="http://www.w3.org/1999/xlink">
<g id="graph0" class="graph" transform="scale(1 1) rotate(0) translate(4 259)">
<title>ntp/include/pool/basic_callback.hpp</title>
<!-- Node1 -->
<g id="node1" class="node">
<title>Node1</title>
<g id="a_node1"><a xlink:title="Interfaces and base classes for callback wrappers.">
<polygon fill="#bfbfbf" stroke="black" points="452.57,-224.5 452.57,-254.5 575.57,-254.5 575.57,-224.5 452.57,-224.5"/>
<text text-anchor="start" x="460.57" y="-242.5" font-family="Helvetica,sans-Serif" font-size="10.00">ntp/include/pool/basic</text>
<text text-anchor="middle" x="514.07" y="-231.5" font-family="Helvetica,sans-Serif" font-size="10.00">_callback.hpp</text>
</a>
</g>
</g>
<!-- Node2 -->
<g id="node2" class="node">
<title>Node2</title>
<g id="a_node2"><a xlink:title=" ">
<polygon fill="none" stroke="#bfbfbf" points="159.07,-0.5 159.07,-19.5 229.07,-19.5 229.07,-0.5 159.07,-0.5"/>
<text text-anchor="middle" x="194.07" y="-7.5" font-family="Helvetica,sans-Serif" font-size="10.00">Windows.h</text>
</a>
</g>
</g>
<!-- Node1&#45;&gt;Node2 -->
<g id="edge1" class="edge">
<title>Node1&#45;&gt;Node2</title>
<path fill="none" stroke="midnightblue" d="M452.55,-229.61C326.43,-209.83 46.84,-157.4 5.07,-76 -23.74,-19.85 83.78,-10.68 148.47,-10.07"/>
<polygon fill="midnightblue" stroke="midnightblue" points="148.85,-13.57 158.84,-10.04 148.83,-6.57 148.85,-13.57"/>
</g>
<!-- Node3 -->
<g id="node3" class="node">
<title>Node3</title>
<g id="a_node3"><a xlink:title=" ">
<polygon fill="none" stroke="#bfbfbf" points="434.07,-168.5 434.07,-187.5 472.07,-187.5 472.07,-168.5 434.07,-168.5"/>
<text text-anchor="middle" x="453.07" y="-175.5" font-family="Helvetica,sans-Serif" font-size="10.00">map</text>
</a>
</g>
</g>
<!-- Node1&#45;&gt;Node3 -->
<g id="edge2" class="edge">
<title>Node1&#45;&gt;Node3</title>
<path fill="none" stroke="midnightblue" d="M499.62,-224.4C490.48,-215.49 478.65,-203.95 469.21,-194.74"/>
<polygon fill="midnightblue" stroke="midnightblue" points="471.55,-192.13 461.95,-187.66 466.66,-197.15 471.55,-192.13"/>
</g>
<!-- Node4 -->
<g id="node4" class="node">
<title>Node4</title>
<g id="a_node4"><a xlink:title=" ">
<polygon fill="none" stroke="#bfbfbf" points="490.07,-168.5 490.07,-187.5 538.07,-187.5 538.07,-168.5 490.07,-168.5"/>
<text text-anchor="middle" x="514.07" y="-175.5" font-family="Helvetica,sans-Serif" font-size="10.00">mutex</text>
</a>
</g>
</g>
<!-- Node1&#45;&gt;Node4 -->
<g id="edge3" class="edge">
<title>Node1&#45;&gt;Node4</title>
<path fill="none" stroke="midnightblue" d="M514.07,-224.4C514.07,-216.47 514.07,-206.46 514.07,-197.86"/>
<polygon fill="midnightblue" stroke="midnightblue" points="517.57,-197.66 514.07,-187.66 510.57,-197.66 517.57,-197.66"/>
</g>
<!-- Node5 -->
<g id="node5" class="node">
<title>Node5</title>
<g id="a_node5"><a xlink:title=" ">
<polygon fill="none" stroke="#bfbfbf" points="556.07,-168.5 556.07,-187.5 614.07,-187.5 614.07,-168.5 556.07,-168.5"/>
<text text-anchor="middle" x="585.07" y="-175.5" font-family="Helvetica,sans-Serif" font-size="10.00">memory</text>
</a>
</g>
</g>
<!-- Node1&#45;&gt;Node5 -->
<g id="edge4" class="edge">
<title>Node1&#45;&gt;Node5</title>
<path fill="none" stroke="midnightblue" d="M530.9,-224.4C541.75,-215.31 555.85,-203.49 566.95,-194.19"/>
<polygon fill="midnightblue" stroke="midnightblue" points="569.32,-196.76 574.74,-187.66 564.83,-191.4 569.32,-196.76"/>
</g>
<!-- Node6 -->
<g id="node6" class="node">
<title>Node6</title>
<g id="a_node6"><a xlink:title=" ">
<polygon fill="none" stroke="#bfbfbf" points="632.57,-168.5 632.57,-187.5 697.57,-187.5 697.57,-168.5 632.57,-168.5"/>
<text text-anchor="middle" x="665.07" y="-175.5" font-family="Helvetica,sans-Serif" font-size="10.00">functional</text>
</a>
</g>
</g>
<!-- Node1&#45;&gt;Node6 -->
<g id="edge5" class="edge">
<title>Node1&#45;&gt;Node6</title>
<path fill="none" stroke="midnightblue" d="M549.86,-224.4C575.31,-214.37 609.17,-201.03 633.59,-191.4"/>
<polygon fill="midnightblue" stroke="midnightblue" points="635.08,-194.58 643.1,-187.66 632.51,-188.07 635.08,-194.58"/>
</g>
<!-- Node7 -->
<g id="node7" class="node">
<title>Node7</title>
<g id="a_node7"><a xlink:title=" ">
<polygon fill="none" stroke="#bfbfbf" points="715.57,-168.5 715.57,-187.5 784.57,-187.5 784.57,-168.5 715.57,-168.5"/>
<text text-anchor="middle" x="750.07" y="-175.5" font-family="Helvetica,sans-Serif" font-size="10.00">type_traits</text>
</a>
</g>
</g>
<!-- Node1&#45;&gt;Node7 -->
<g id="edge6" class="edge">
<title>Node1&#45;&gt;Node7</title>
<path fill="none" stroke="midnightblue" d="M569.7,-224.47C611.48,-213.94 667.91,-199.72 706.45,-190"/>
<polygon fill="midnightblue" stroke="midnightblue" points="707.49,-193.34 716.33,-187.51 705.78,-186.56 707.49,-193.34"/>
</g>
<!-- Node8 -->
<g id="node8" class="node">
<title>Node8</title>
<g id="a_node8"><a xlink:title=" ">
<polygon fill="none" stroke="#bfbfbf" points="803.07,-168.5 803.07,-187.5 889.07,-187.5 889.07,-168.5 803.07,-168.5"/>
<text text-anchor="middle" x="846.07" y="-175.5" font-family="Helvetica,sans-Serif" font-size="10.00">shared_mutex</text>
</a>
</g>
</g>
<!-- Node1&#45;&gt;Node8 -->
<g id="edge7" class="edge">
<title>Node1&#45;&gt;Node8</title>
<path fill="none" stroke="midnightblue" d="M575.74,-227.45C638.14,-216.27 733.61,-199.15 792.81,-188.54"/>
<polygon fill="midnightblue" stroke="midnightblue" points="793.49,-191.98 802.71,-186.77 792.25,-185.09 793.49,-191.98"/>
</g>
<!-- Node9 -->
<g id="node9" class="node">
<title>Node9</title>
<g id="a_node9"><a xlink:href="ntp__config_8hpp_source.html" target="_top" xlink:title=" ">
<polygon fill="none" stroke="black" points="362.07,-56.5 362.07,-75.5 450.07,-75.5 450.07,-56.5 362.07,-56.5"/>
<text text-anchor="middle" x="406.07" y="-63.5" font-family="Helvetica,sans-Serif" font-size="10.00">ntp_config.hpp</text>
</a>
</g>
</g>
<!-- Node1&#45;&gt;Node9 -->
<g id="edge8" class="edge">
<title>Node1&#45;&gt;Node9</title>
<path fill="none" stroke="midnightblue" d="M472.94,-224.5C455.5,-216.49 436.59,-204.66 425.07,-188 403.67,-157.06 402.77,-111.1 404.26,-85.65"/>
<polygon fill="midnightblue" stroke="midnightblue" points="407.76,-85.77 405.05,-75.53 400.79,-85.23 407.76,-85.77"/>
</g>
<!-- Node10 -->
<g id="node10" class="node">
<title>Node10</title>
<g id="a_node10"><a xlink:href="utils_8hpp.html" target="_top" xlink:title="Some useful implementation stuff.">
<polygon fill="none" stroke="black" points="258.57,-168.5 258.57,-187.5 353.57,-187.5 353.57,-168.5 258.57,-168.5"/>
<text text-anchor="middle" x="306.07" y="-175.5" font-family="Helvetica,sans-Serif" font-size="10.00">details/utils.hpp</text>
</a>
</g>
</g>
<!-- Node1&#45;&gt;Node10 -->
<g id="edge9" class="edge">
<title>Node1&#45;&gt;Node10</title>
<path fill="none" stroke="midnightblue" d="M465.04,-224.47C428.69,-214.08 379.76,-200.08 345.83,-190.37"/>
<polygon fill="midnightblue" stroke="midnightblue" points="346.39,-186.89 335.81,-187.51 344.46,-193.62 346.39,-186.89"/>
</g>
<!-- Node10&#45;&gt;Node9 -->
<g id="edge10" class="edge">
<title>Node10&#45;&gt;Node9</title>
<path fill="none" stroke="midnightblue" d="M314.43,-168.48C323.17,-159.5 337.25,-144.91 349.07,-132 364.04,-115.65 380.7,-96.54 392.13,-83.29"/>
<polygon fill="midnightblue" stroke="midnightblue" points="394.94,-85.38 398.81,-75.52 389.63,-80.82 394.94,-85.38"/>
</g>
<!-- Node11 -->
<g id="node11" class="node">
<title>Node11</title>
<g id="a_node11"><a xlink:href="ntrtl_8h.html" target="_top" xlink:title="Contains necessary declarations/definitions of internal windows objects and functions.">
<polygon fill="none" stroke="black" points="92.07,-112.5 92.07,-131.5 172.07,-131.5 172.07,-112.5 92.07,-112.5"/>
<text text-anchor="middle" x="132.07" y="-119.5" font-family="Helvetica,sans-Serif" font-size="10.00">native/ntrtl.h</text>
</a>
</g>
</g>
<!-- Node10&#45;&gt;Node11 -->
<g id="edge11" class="edge">
<title>Node10&#45;&gt;Node11</title>
<path fill="none" stroke="midnightblue" d="M278.5,-168.44C248.97,-159.28 201.95,-144.69 169.19,-134.52"/>
<polygon fill="midnightblue" stroke="midnightblue" points="170.1,-131.14 159.51,-131.52 168.03,-137.82 170.1,-131.14"/>
</g>
<!-- Node14 -->
<g id="node14" class="node">
<title>Node14</title>
<g id="a_node14"><a xlink:href="allocator_8hpp.html" target="_top" xlink:title="Allocator implementations.">
<polygon fill="none" stroke="black" points="224.07,-112.5 224.07,-131.5 340.07,-131.5 340.07,-112.5 224.07,-112.5"/>
<text text-anchor="middle" x="282.07" y="-119.5" font-family="Helvetica,sans-Serif" font-size="10.00">details/allocator.hpp</text>
</a>
</g>
</g>
<!-- Node10&#45;&gt;Node14 -->
<g id="edge14" class="edge">
<title>Node10&#45;&gt;Node14</title>
<path fill="none" stroke="midnightblue" d="M302.11,-168.08C298.86,-160.77 294.15,-150.18 290.12,-141.1"/>
<polygon fill="midnightblue" stroke="midnightblue" points="293.22,-139.47 285.96,-131.75 286.82,-142.31 293.22,-139.47"/>
</g>
<!-- Node12 -->
<g id="node12" class="node">
<title>Node12</title>
<g id="a_node12"><a xlink:title=" ">
<polygon fill="none" stroke="#bfbfbf" points="98.07,-56.5 98.07,-75.5 166.07,-75.5 166.07,-56.5 98.07,-56.5"/>
<text text-anchor="middle" x="132.07" y="-63.5" font-family="Helvetica,sans-Serif" font-size="10.00">windows.h</text>
</a>
</g>
</g>
<!-- Node11&#45;&gt;Node12 -->
<g id="edge12" class="edge">
<title>Node11&#45;&gt;Node12</title>
<path fill="none" stroke="midnightblue" d="M132.07,-112.08C132.07,-105.01 132.07,-94.86 132.07,-85.99"/>
<polygon fill="midnightblue" stroke="midnightblue" points="135.57,-85.75 132.07,-75.75 128.57,-85.75 135.57,-85.75"/>
</g>
<!-- Node13 -->
<g id="node13" class="node">
<title>Node13</title>
<g id="a_node13"><a xlink:title=" ">
<polygon fill="none" stroke="#bfbfbf" points="14.57,-56.5 14.57,-75.5 79.57,-75.5 79.57,-56.5 14.57,-56.5"/>
<text text-anchor="middle" x="47.07" y="-63.5" font-family="Helvetica,sans-Serif" font-size="10.00">winternl.h</text>
</a>
</g>
</g>
<!-- Node11&#45;&gt;Node13 -->
<g id="edge13" class="edge">
<title>Node11&#45;&gt;Node13</title>
<path fill="none" stroke="midnightblue" d="M118.42,-112.32C105.16,-103.9 84.8,-90.97 69.23,-81.07"/>
<polygon fill="midnightblue" stroke="midnightblue" points="71.01,-78.06 60.69,-75.65 67.26,-83.97 71.01,-78.06"/>
</g>
<!-- Node14&#45;&gt;Node2 -->
<g id="edge15" class="edge">
<title>Node14&#45;&gt;Node2</title>
<path fill="none" stroke="midnightblue" d="M261.38,-112.35C245.93,-104.88 225.43,-92.65 213.07,-76 203.11,-62.58 198.35,-44.01 196.09,-30.16"/>
<polygon fill="midnightblue" stroke="midnightblue" points="199.51,-29.3 194.72,-19.85 192.57,-30.22 199.51,-29.3"/>
</g>
<!-- Node14&#45;&gt;Node9 -->
<g id="edge16" class="edge">
<title>Node14&#45;&gt;Node9</title>
<path fill="none" stroke="midnightblue" d="M301.72,-112.44C322.04,-103.6 353.97,-89.69 377.17,-79.59"/>
<polygon fill="midnightblue" stroke="midnightblue" points="378.75,-82.72 386.52,-75.52 375.95,-76.3 378.75,-82.72"/>
</g>
<!-- Node15 -->
<g id="node15" class="node">
<title>Node15</title>
<g id="a_node15"><a xlink:href="exception_8hpp.html" target="_top" xlink:title="Win32 error wrapper implementations.">
<polygon fill="none" stroke="black" points="222.07,-56.5 222.07,-75.5 344.07,-75.5 344.07,-56.5 222.07,-56.5"/>
<text text-anchor="middle" x="283.07" y="-63.5" font-family="Helvetica,sans-Serif" font-size="10.00">details/exception.hpp</text>
</a>
</g>
</g>
<!-- Node14&#45;&gt;Node15 -->
<g id="edge17" class="edge">
<title>Node14&#45;&gt;Node15</title>
<path fill="none" stroke="midnightblue" d="M282.24,-112.08C282.37,-105.01 282.56,-94.86 282.72,-85.99"/>
<polygon fill="midnightblue" stroke="midnightblue" points="286.22,-85.81 282.91,-75.75 279.23,-85.68 286.22,-85.81"/>
</g>
<!-- Node15&#45;&gt;Node2 -->
<g id="edge18" class="edge">
<title>Node15&#45;&gt;Node2</title>
<path fill="none" stroke="midnightblue" d="M268.77,-56.32C254.89,-47.9 233.58,-34.97 217.27,-25.07"/>
<polygon fill="midnightblue" stroke="midnightblue" points="218.7,-21.85 208.34,-19.65 215.07,-27.83 218.7,-21.85"/>
</g>
<!-- Node16 -->
<g id="node16" class="node">
<title>Node16</title>
<g id="a_node16"><a xlink:title=" ">
<polygon fill="none" stroke="#bfbfbf" points="316.57,-0.5 316.57,-19.5 381.57,-19.5 381.57,-0.5 316.57,-0.5"/>
<text text-anchor="middle" x="349.07" y="-7.5" font-family="Helvetica,sans-Serif" font-size="10.00">stdexcept</text>
</a>
</g>
</g>
<!-- Node15&#45;&gt;Node16 -->
<g id="edge19" class="edge">
<title>Node15&#45;&gt;Node16</title>
<path fill="none" stroke="midnightblue" d="M293.68,-56.32C303.53,-48.26 318.42,-36.08 330.29,-26.37"/>
<polygon fill="midnightblue" stroke="midnightblue" points="332.75,-28.88 338.28,-19.83 328.32,-23.46 332.75,-28.88"/>
</g>
<!-- Node17 -->
<g id="node17" class="node">
<title>Node17</title>
<g id="a_node17"><a xlink:title=" ">
<polygon fill="none" stroke="#bfbfbf" points="254.07,-0.5 254.07,-19.5 298.07,-19.5 298.07,-0.5 254.07,-0.5"/>
<text text-anchor="middle" x="276.07" y="-7.5" font-family="Helvetica,sans-Serif" font-size="10.00">string</text>
</a>
</g>
</g>
<!-- Node15&#45;&gt;Node17 -->
<g id="edge20" class="edge">
<title>Node15&#45;&gt;Node17</title>
<path fill="none" stroke="midnightblue" d="M281.92,-56.08C280.99,-48.93 279.65,-38.64 278.5,-29.69"/>
<polygon fill="midnightblue" stroke="midnightblue" points="281.96,-29.22 277.21,-19.75 275.02,-30.12 281.96,-29.22"/>
</g>
</g>
</svg>
