<?xml version="1.0" encoding="UTF-8" standalone="no"?>
<!DOCTYPE svg PUBLIC "-//W3C//DTD SVG 1.1//EN"
 "http://www.w3.org/Graphics/SVG/1.1/DTD/svg11.dtd">
<!-- Generated by graphviz version 2.43.0 (0)
 -->
<!-- Title: ntp::io::details::IoManager Pages: 1 -->
<svg width="154pt" height="162pt"
 viewBox="0.00 0.00 154.00 162.00" xmlns="http://www.w3.org/2000/svg" xmlns:xlink="http://www.w3.org/1999/xlink">
<g id="graph0" class="graph" transform="scale(1 1) rotate(0) translate(4 158)">
<title>ntp::io::details::IoManager</title>
<!-- Node1 -->
<g id="node1" class="node">
<title>Node1</title>
<g id="a_node1"><a xlink:title="Manager for wait callbacks. Binds callbacks and threadpool implementation.">
<polygon fill="#bfbfbf" stroke="black" points="1,-0.5 1,-19.5 145,-19.5 145,-0.5 1,-0.5"/>
<text text-anchor="middle" x="73" y="-7.5" font-family="Helvetica,sans-Serif" font-size="10.00">ntp::io::details::IoManager</text>
</a>
</g>
</g>
<!-- Node2 -->
<g id="node2" class="node">
<title>Node2</title>
<g id="a_node2"><a xlink:href="classntp_1_1details_1_1BasicManagerEx.html" target="_top" xlink:title=" ">
<polygon fill="none" stroke="black" points="0,-56.5 0,-97.5 146,-97.5 146,-56.5 0,-56.5"/>
<text text-anchor="start" x="8" y="-85.5" font-family="Helvetica,sans-Serif" font-size="10.00">ntp::details::BasicManager</text>
<text text-anchor="start" x="8" y="-74.5" font-family="Helvetica,sans-Serif" font-size="10.00">Ex&lt; PTP_IO, IoContext,</text>
<text text-anchor="middle" x="73" y="-63.5" font-family="Helvetica,sans-Serif" font-size="10.00"> IoManager &gt;</text>
</a>
</g>
</g>
<!-- Node2&#45;&gt;Node1 -->
<g id="edge1" class="edge">
<title>Node2&#45;&gt;Node1</title>
<path fill="none" stroke="midnightblue" d="M73,-46.26C73,-36.56 73,-26.52 73,-19.65"/>
<polygon fill="midnightblue" stroke="midnightblue" points="69.5,-46.5 73,-56.5 76.5,-46.5 69.5,-46.5"/>
</g>
<!-- Node3 -->
<g id="node3" class="node">
<title>Node3</title>
<g id="a_node3"><a xlink:href="classntp_1_1details_1_1BasicManager.html" target="_top" xlink:title="Base class for all callbacks&#39; managers.">
<polygon fill="none" stroke="black" points="0,-134.5 0,-153.5 146,-153.5 146,-134.5 0,-134.5"/>
<text text-anchor="middle" x="73" y="-141.5" font-family="Helvetica,sans-Serif" font-size="10.00">ntp::details::BasicManager</text>
</a>
</g>
</g>
<!-- Node3&#45;&gt;Node2 -->
<g id="edge2" class="edge">
<title>Node3&#45;&gt;Node2</title>
<path fill="none" stroke="midnightblue" d="M73,-124.04C73,-115.71 73,-105.94 73,-97.54"/>
<polygon fill="midnightblue" stroke="midnightblue" points="69.5,-124.23 73,-134.23 76.5,-124.23 69.5,-124.23"/>
</g>
</g>
</svg>
