<?xml version="1.0" encoding="UTF-8" standalone="no"?>
<!DOCTYPE svg PUBLIC "-//W3C//DTD SVG 1.1//EN"
 "http://www.w3.org/Graphics/SVG/1.1/DTD/svg11.dtd">
<!-- Generated by graphviz version 2.43.0 (0)
 -->
<!-- Title: ntp::wait::details::WaitManager Pages: 1 -->
<svg width="184pt" height="173pt"
 viewBox="0.00 0.00 184.00 173.00" xmlns="http://www.w3.org/2000/svg" xmlns:xlink="http://www.w3.org/1999/xlink">
<g id="graph0" class="graph" transform="scale(1 1) rotate(0) translate(4 169)">
<title>ntp::wait::details::WaitManager</title>
<!-- Node1 -->
<g id="node1" class="node">
<title>Node1</title>
<g id="a_node1"><a xlink:title="Manager for wait callbacks. Binds callbacks and threadpool implementation.">
<polygon fill="#bfbfbf" stroke="black" points="39,-0.5 39,-30.5 137,-30.5 137,-0.5 39,-0.5"/>
<text text-anchor="start" x="47" y="-18.5" font-family="Helvetica,sans-Serif" font-size="10.00">ntp::wait::details</text>
<text text-anchor="middle" x="88" y="-7.5" font-family="Helvetica,sans-Serif" font-size="10.00">::WaitManager</text>
</a>
</g>
</g>
<!-- Node2 -->
<g id="node2" class="node">
<title>Node2</title>
<g id="a_node2"><a xlink:href="classntp_1_1details_1_1BasicManager.html" target="_top" xlink:title=" ">
<polygon fill="none" stroke="black" points="15,-67.5 15,-108.5 161,-108.5 161,-67.5 15,-67.5"/>
<text text-anchor="start" x="23" y="-96.5" font-family="Helvetica,sans-Serif" font-size="10.00">ntp::details::BasicManager</text>
<text text-anchor="start" x="23" y="-85.5" font-family="Helvetica,sans-Serif" font-size="10.00">&lt; PTP_WAIT, WaitContext,</text>
<text text-anchor="middle" x="88" y="-74.5" font-family="Helvetica,sans-Serif" font-size="10.00"> WaitManager &gt;</text>
</a>
</g>
</g>
<!-- Node2&#45;&gt;Node1 -->
<g id="edge1" class="edge">
<title>Node2&#45;&gt;Node1</title>
<path fill="none" stroke="midnightblue" d="M88,-57.08C88,-48.01 88,-38.45 88,-30.89"/>
<polygon fill="midnightblue" stroke="midnightblue" points="84.5,-57.36 88,-67.36 91.5,-57.36 84.5,-57.36"/>
</g>
<!-- Node3 -->
<g id="node3" class="node">
<title>Node3</title>
<g id="a_node3"><a xlink:href="classntp_1_1details_1_1TpEnvironmentView.html" target="_top" xlink:title="Class, that binds a manager with a pool. Manager should inherit this class to bind itself with the th...">
<polygon fill="none" stroke="black" points="0,-145.5 0,-164.5 176,-164.5 176,-145.5 0,-145.5"/>
<text text-anchor="middle" x="88" y="-152.5" font-family="Helvetica,sans-Serif" font-size="10.00">ntp::details::TpEnvironmentView</text>
</a>
</g>
</g>
<!-- Node3&#45;&gt;Node2 -->
<g id="edge2" class="edge">
<title>Node3&#45;&gt;Node2</title>
<path fill="none" stroke="midnightblue" d="M88,-135.04C88,-126.71 88,-116.94 88,-108.54"/>
<polygon fill="midnightblue" stroke="midnightblue" points="84.5,-135.23 88,-145.23 91.5,-135.23 84.5,-135.23"/>
</g>
</g>
</svg>
