<?xml version="1.0" encoding="UTF-8" standalone="no"?>
<!DOCTYPE svg PUBLIC "-//W3C//DTD SVG 1.1//EN"
 "http://www.w3.org/Graphics/SVG/1.1/DTD/svg11.dtd">
<!-- Generated by graphviz version 2.43.0 (0)
 -->
<!-- Title: ntp::io::details::IoManager Pages: 1 -->
<svg width="192pt" height="151pt"
 viewBox="0.00 0.00 192.00 151.00" xmlns="http://www.w3.org/2000/svg" xmlns:xlink="http://www.w3.org/1999/xlink">
<g id="graph0" class="graph" transform="scale(1 1) rotate(0) translate(4 147)">
<title>ntp::io::details::IoManager</title>
<!-- Node1 -->
<g id="node1" class="node">
<title>Node1</title>
<g id="a_node1"><a xlink:title="Manager for wait callbacks. Binds callbacks and threadpool implementation.">
<polygon fill="#bfbfbf" stroke="black" points="20,-0.5 20,-19.5 164,-19.5 164,-0.5 20,-0.5"/>
<text text-anchor="middle" x="92" y="-7.5" font-family="Helvetica,sans-Serif" font-size="10.00">ntp::io::details::IoManager</text>
</a>
</g>
</g>
<!-- Node2 -->
<g id="node2" class="node">
<title>Node2</title>
<g id="a_node2"><a xlink:href="classntp_1_1details_1_1BasicManager.html" target="_top" xlink:title=" ">
<polygon fill="none" stroke="black" points="0,-56.5 0,-86.5 184,-86.5 184,-56.5 0,-56.5"/>
<text text-anchor="start" x="8" y="-74.5" font-family="Helvetica,sans-Serif" font-size="10.00">ntp::details::BasicManager</text>
<text text-anchor="middle" x="92" y="-63.5" font-family="Helvetica,sans-Serif" font-size="10.00">&lt; PTP_IO, IoContext, IoManager &gt;</text>
</a>
</g>
</g>
<!-- Node2&#45;&gt;Node1 -->
<g id="edge1" class="edge">
<title>Node2&#45;&gt;Node1</title>
<path fill="none" stroke="midnightblue" d="M92,-46.29C92,-36.86 92,-26.65 92,-19.66"/>
<polygon fill="midnightblue" stroke="midnightblue" points="88.5,-46.4 92,-56.4 95.5,-46.4 88.5,-46.4"/>
</g>
<!-- Node3 -->
<g id="node3" class="node">
<title>Node3</title>
<g id="a_node3"><a xlink:href="classntp_1_1details_1_1TpEnvironmentView.html" target="_top" xlink:title="Class, that binds a manager with a pool. Manager should inherit this class to bind itself with the th...">
<polygon fill="none" stroke="black" points="4,-123.5 4,-142.5 180,-142.5 180,-123.5 4,-123.5"/>
<text text-anchor="middle" x="92" y="-130.5" font-family="Helvetica,sans-Serif" font-size="10.00">ntp::details::TpEnvironmentView</text>
</a>
</g>
</g>
<!-- Node3&#45;&gt;Node2 -->
<g id="edge2" class="edge">
<title>Node3&#45;&gt;Node2</title>
<path fill="none" stroke="midnightblue" d="M92,-113.23C92,-104.59 92,-94.5 92,-86.52"/>
<polygon fill="midnightblue" stroke="midnightblue" points="88.5,-113.48 92,-123.48 95.5,-113.48 88.5,-113.48"/>
</g>
</g>
</svg>
