<?xml version="1.0" encoding="UTF-8" standalone="no"?>
<!DOCTYPE svg PUBLIC "-//W3C//DTD SVG 1.1//EN"
 "http://www.w3.org/Graphics/SVG/1.1/DTD/svg11.dtd">
<!-- Generated by graphviz version 2.43.0 (0)
 -->
<!-- Title: ntp::details::BasicManager Pages: 1 -->
<svg width="555pt" height="280pt"
 viewBox="0.00 0.00 555.00 279.50" xmlns="http://www.w3.org/2000/svg" xmlns:xlink="http://www.w3.org/1999/xlink">
<g id="graph0" class="graph" transform="scale(1 1) rotate(0) translate(4 275.5)">
<title>ntp::details::BasicManager</title>
<!-- Node1 -->
<g id="node1" class="node">
<title>Node1</title>
<g id="a_node1"><a xlink:title="Base class for all callbacks&#39; managers.">
<polygon fill="#bfbfbf" stroke="black" points="0,-121 0,-140 146,-140 146,-121 0,-121"/>
<text text-anchor="middle" x="73" y="-128" font-family="Helvetica,sans-Serif" font-size="10.00">ntp::details::BasicManager</text>
</a>
</g>
</g>
<!-- Node2 -->
<g id="node2" class="node">
<title>Node2</title>
<g id="a_node2"><a xlink:href="classntp_1_1details_1_1BasicManagerEx.html" target="_top" xlink:title=" ">
<polygon fill="none" stroke="black" points="201.5,-230 201.5,-271 347.5,-271 347.5,-230 201.5,-230"/>
<text text-anchor="start" x="209.5" y="-259" font-family="Helvetica,sans-Serif" font-size="10.00">ntp::details::BasicManager</text>
<text text-anchor="start" x="209.5" y="-248" font-family="Helvetica,sans-Serif" font-size="10.00">Ex&lt; PTP_IO, IoContext,</text>
<text text-anchor="middle" x="274.5" y="-237" font-family="Helvetica,sans-Serif" font-size="10.00"> IoManager &gt;</text>
</a>
</g>
</g>
<!-- Node1&#45;&gt;Node2 -->
<g id="edge1" class="edge">
<title>Node1&#45;&gt;Node2</title>
<path fill="none" stroke="midnightblue" d="M89.95,-147.21C109.83,-167.16 145.62,-200.35 182,-220.5 188.29,-223.98 195.05,-227.14 201.94,-229.99"/>
<polygon fill="midnightblue" stroke="midnightblue" points="92.41,-144.72 82.92,-140.02 87.41,-149.62 92.41,-144.72"/>
</g>
<!-- Node4 -->
<g id="node4" class="node">
<title>Node4</title>
<g id="a_node4"><a xlink:href="classntp_1_1details_1_1BasicManagerEx.html" target="_top" xlink:title=" ">
<polygon fill="none" stroke="black" points="196,-170 196,-211 353,-211 353,-170 196,-170"/>
<text text-anchor="start" x="204" y="-199" font-family="Helvetica,sans-Serif" font-size="10.00">ntp::details::BasicManager</text>
<text text-anchor="start" x="204" y="-188" font-family="Helvetica,sans-Serif" font-size="10.00">Ex&lt; PTP_WAIT, WaitContext,</text>
<text text-anchor="middle" x="274.5" y="-177" font-family="Helvetica,sans-Serif" font-size="10.00"> WaitManager &gt;</text>
</a>
</g>
</g>
<!-- Node1&#45;&gt;Node4 -->
<g id="edge3" class="edge">
<title>Node1&#45;&gt;Node4</title>
<path fill="none" stroke="midnightblue" d="M115.48,-142.98C141.42,-150.78 175.44,-161.01 205.28,-169.98"/>
<polygon fill="midnightblue" stroke="midnightblue" points="116.2,-139.54 105.61,-140.01 114.18,-146.24 116.2,-139.54"/>
</g>
<!-- Node6 -->
<g id="node6" class="node">
<title>Node6</title>
<g id="a_node6"><a xlink:href="classntp_1_1details_1_1BasicManagerEx.html" target="_top" xlink:title=" ">
<polygon fill="none" stroke="black" points="189.5,-110 189.5,-151 359.5,-151 359.5,-110 189.5,-110"/>
<text text-anchor="start" x="197.5" y="-139" font-family="Helvetica,sans-Serif" font-size="10.00">ntp::details::BasicManager</text>
<text text-anchor="start" x="197.5" y="-128" font-family="Helvetica,sans-Serif" font-size="10.00">Ex&lt; PTP_TIMER, TimerContext,</text>
<text text-anchor="middle" x="274.5" y="-117" font-family="Helvetica,sans-Serif" font-size="10.00"> TimerManager &gt;</text>
</a>
</g>
</g>
<!-- Node1&#45;&gt;Node6 -->
<g id="edge5" class="edge">
<title>Node1&#45;&gt;Node6</title>
<path fill="none" stroke="midnightblue" d="M156.03,-130.5C167.03,-130.5 178.33,-130.5 189.36,-130.5"/>
<polygon fill="midnightblue" stroke="midnightblue" points="156.02,-127 146.02,-130.5 156.02,-134 156.02,-127"/>
</g>
<!-- Node8 -->
<g id="node8" class="node">
<title>Node8</title>
<g id="a_node8"><a xlink:href="classntp_1_1details_1_1BasicManagerEx.html" target="_top" xlink:title="Extended version of ntp::details::BasicManager with container of callbacks.">
<polygon fill="none" stroke="black" points="182,-50 182,-91 367,-91 367,-50 182,-50"/>
<text text-anchor="start" x="190" y="-79" font-family="Helvetica,sans-Serif" font-size="10.00">ntp::details::BasicManager</text>
<text text-anchor="start" x="190" y="-68" font-family="Helvetica,sans-Serif" font-size="10.00">Ex&lt; NativeHandle, ObjectContext,</text>
<text text-anchor="middle" x="274.5" y="-57" font-family="Helvetica,sans-Serif" font-size="10.00"> Derived &gt;</text>
</a>
</g>
</g>
<!-- Node1&#45;&gt;Node8 -->
<g id="edge7" class="edge">
<title>Node1&#45;&gt;Node8</title>
<path fill="none" stroke="midnightblue" d="M115.48,-118.02C141.42,-110.22 175.44,-99.99 205.28,-91.02"/>
<polygon fill="midnightblue" stroke="midnightblue" points="114.18,-114.76 105.61,-120.99 116.2,-121.46 114.18,-114.76"/>
</g>
<!-- Node9 -->
<g id="node9" class="node">
<title>Node9</title>
<g id="a_node9"><a xlink:href="classntp_1_1work_1_1details_1_1WorkManager.html" target="_top" xlink:title="WorkManager for work callbacks. Binds callbacks and threadpool implementation.">
<polygon fill="none" stroke="black" points="224,-0.5 224,-30.5 325,-30.5 325,-0.5 224,-0.5"/>
<text text-anchor="start" x="232" y="-18.5" font-family="Helvetica,sans-Serif" font-size="10.00">ntp::work::details</text>
<text text-anchor="middle" x="274.5" y="-7.5" font-family="Helvetica,sans-Serif" font-size="10.00">::WorkManager</text>
</a>
</g>
</g>
<!-- Node1&#45;&gt;Node9 -->
<g id="edge8" class="edge">
<title>Node1&#45;&gt;Node9</title>
<path fill="none" stroke="midnightblue" d="M89.79,-113.49C109.5,-93.23 145.13,-59.73 182,-40.5 194.85,-33.8 209.68,-28.75 223.6,-25.01"/>
<polygon fill="midnightblue" stroke="midnightblue" points="87.19,-111.14 82.81,-120.79 92.25,-115.97 87.19,-111.14"/>
</g>
<!-- Node3 -->
<g id="node3" class="node">
<title>Node3</title>
<g id="a_node3"><a xlink:href="classntp_1_1io_1_1details_1_1IoManager.html" target="_top" xlink:title="Manager for wait callbacks. Binds callbacks and threadpool implementation.">
<polygon fill="none" stroke="black" points="403,-241 403,-260 547,-260 547,-241 403,-241"/>
<text text-anchor="middle" x="475" y="-248" font-family="Helvetica,sans-Serif" font-size="10.00">ntp::io::details::IoManager</text>
</a>
</g>
</g>
<!-- Node2&#45;&gt;Node3 -->
<g id="edge2" class="edge">
<title>Node2&#45;&gt;Node3</title>
<path fill="none" stroke="midnightblue" d="M357.94,-250.5C372.85,-250.5 388.28,-250.5 402.83,-250.5"/>
<polygon fill="midnightblue" stroke="midnightblue" points="357.72,-247 347.72,-250.5 357.72,-254 357.72,-247"/>
</g>
<!-- Node5 -->
<g id="node5" class="node">
<title>Node5</title>
<g id="a_node5"><a xlink:href="classntp_1_1wait_1_1details_1_1WaitManager.html" target="_top" xlink:title="Manager for wait callbacks. Binds callbacks and threadpool implementation.">
<polygon fill="none" stroke="black" points="426,-175.5 426,-205.5 524,-205.5 524,-175.5 426,-175.5"/>
<text text-anchor="start" x="434" y="-193.5" font-family="Helvetica,sans-Serif" font-size="10.00">ntp::wait::details</text>
<text text-anchor="middle" x="475" y="-182.5" font-family="Helvetica,sans-Serif" font-size="10.00">::WaitManager</text>
</a>
</g>
</g>
<!-- Node4&#45;&gt;Node5 -->
<g id="edge4" class="edge">
<title>Node4&#45;&gt;Node5</title>
<path fill="none" stroke="midnightblue" d="M363.27,-190.5C384.82,-190.5 407.1,-190.5 425.98,-190.5"/>
<polygon fill="midnightblue" stroke="midnightblue" points="363.1,-187 353.1,-190.5 363.1,-194 363.1,-187"/>
</g>
<!-- Node7 -->
<g id="node7" class="node">
<title>Node7</title>
<g id="a_node7"><a xlink:href="classntp_1_1timer_1_1details_1_1TimerManager.html" target="_top" xlink:title="Manager for wait callbacks. Binds callbacks and threadpool implementation.">
<polygon fill="none" stroke="black" points="423,-115.5 423,-145.5 527,-145.5 527,-115.5 423,-115.5"/>
<text text-anchor="start" x="431" y="-133.5" font-family="Helvetica,sans-Serif" font-size="10.00">ntp::timer::details</text>
<text text-anchor="middle" x="475" y="-122.5" font-family="Helvetica,sans-Serif" font-size="10.00">::TimerManager</text>
</a>
</g>
</g>
<!-- Node6&#45;&gt;Node7 -->
<g id="edge6" class="edge">
<title>Node6&#45;&gt;Node7</title>
<path fill="none" stroke="midnightblue" d="M369.79,-130.5C388.06,-130.5 406.55,-130.5 422.78,-130.5"/>
<polygon fill="midnightblue" stroke="midnightblue" points="369.68,-127 359.68,-130.5 369.68,-134 369.68,-127"/>
</g>
</g>
</svg>
