<?xml version="1.0" encoding="UTF-8" standalone="no"?>
<!DOCTYPE svg PUBLIC "-//W3C//DTD SVG 1.1//EN"
 "http://www.w3.org/Graphics/SVG/1.1/DTD/svg11.dtd">
<!-- Generated by graphviz version 2.43.0 (0)
 -->
<!-- Title: ntp::io::details::IoCallback&lt; Functor, Args &gt; Pages: 1 -->
<svg width="171pt" height="296pt"
 viewBox="0.00 0.00 171.00 296.00" xmlns="http://www.w3.org/2000/svg" xmlns:xlink="http://www.w3.org/1999/xlink">
<g id="graph0" class="graph" transform="scale(1 1) rotate(0) translate(4 292)">
<title>ntp::io::details::IoCallback&lt; Functor, Args &gt;</title>
<!-- Node1 -->
<g id="node1" class="node">
<title>Node1</title>
<g id="a_node1"><a xlink:title="IO callback wrapper (PTP_IO).">
<polygon fill="#bfbfbf" stroke="black" points="10,-0.5 10,-30.5 153,-30.5 153,-0.5 10,-0.5"/>
<text text-anchor="start" x="18" y="-18.5" font-family="Helvetica,sans-Serif" font-size="10.00">ntp::io::details::IoCallback</text>
<text text-anchor="middle" x="81.5" y="-7.5" font-family="Helvetica,sans-Serif" font-size="10.00">&lt; Functor, Args &gt;</text>
</a>
</g>
</g>
<!-- Node2 -->
<g id="node2" class="node">
<title>Node2</title>
<g id="a_node2"><a xlink:href="classntp_1_1details_1_1BasicCallback.html" target="_top" xlink:title=" ">
<polygon fill="none" stroke="black" points="0,-67.5 0,-108.5 163,-108.5 163,-67.5 0,-67.5"/>
<text text-anchor="start" x="8" y="-96.5" font-family="Helvetica,sans-Serif" font-size="10.00">ntp::details::BasicCallback</text>
<text text-anchor="start" x="8" y="-85.5" font-family="Helvetica,sans-Serif" font-size="10.00">&lt; IoCallback&lt; Functor, Args...</text>
<text text-anchor="middle" x="81.5" y="-74.5" font-family="Helvetica,sans-Serif" font-size="10.00"> &gt;, Functor, Args... &gt;</text>
</a>
</g>
</g>
<!-- Node2&#45;&gt;Node1 -->
<g id="edge1" class="edge">
<title>Node2&#45;&gt;Node1</title>
<path fill="none" stroke="midnightblue" d="M81.5,-57.08C81.5,-48.01 81.5,-38.45 81.5,-30.89"/>
<polygon fill="midnightblue" stroke="midnightblue" points="78,-57.36 81.5,-67.36 85,-57.36 78,-57.36"/>
</g>
<!-- Node3 -->
<g id="node3" class="node">
<title>Node3</title>
<g id="a_node3"><a xlink:href="structntp_1_1details_1_1ICallback.html" target="_top" xlink:title="Interface for callback wrapper.">
<polygon fill="none" stroke="black" points="20.5,-145.5 20.5,-164.5 142.5,-164.5 142.5,-145.5 20.5,-145.5"/>
<text text-anchor="middle" x="81.5" y="-152.5" font-family="Helvetica,sans-Serif" font-size="10.00">ntp::details::ICallback</text>
</a>
</g>
</g>
<!-- Node3&#45;&gt;Node2 -->
<g id="edge2" class="edge">
<title>Node3&#45;&gt;Node2</title>
<path fill="none" stroke="midnightblue" d="M81.5,-135.04C81.5,-126.71 81.5,-116.94 81.5,-108.54"/>
<polygon fill="midnightblue" stroke="midnightblue" points="78,-135.23 81.5,-145.23 85,-135.23 78,-135.23"/>
</g>
<!-- Node4 -->
<g id="node4" class="node">
<title>Node4</title>
<g id="a_node4"><a xlink:href="classntp_1_1details_1_1NativeSlistEntry.html" target="_top" xlink:title="Wrapper for SLIST_ENTRY (actually inherits from it).">
<polygon fill="none" stroke="black" points="16,-201.5 16,-231.5 147,-231.5 147,-201.5 16,-201.5"/>
<text text-anchor="start" x="24" y="-219.5" font-family="Helvetica,sans-Serif" font-size="10.00">ntp::details::NativeSlist</text>
<text text-anchor="middle" x="81.5" y="-208.5" font-family="Helvetica,sans-Serif" font-size="10.00">Entry</text>
</a>
</g>
</g>
<!-- Node4&#45;&gt;Node3 -->
<g id="edge3" class="edge">
<title>Node4&#45;&gt;Node3</title>
<path fill="none" stroke="midnightblue" d="M81.5,-191.29C81.5,-181.86 81.5,-171.65 81.5,-164.66"/>
<polygon fill="midnightblue" stroke="midnightblue" points="78,-191.4 81.5,-201.4 85,-191.4 78,-191.4"/>
</g>
<!-- Node5 -->
<g id="node5" class="node">
<title>Node5</title>
<g id="a_node5"><a xlink:title=" ">
<polygon fill="none" stroke="#bfbfbf" points="41.5,-268.5 41.5,-287.5 121.5,-287.5 121.5,-268.5 41.5,-268.5"/>
<text text-anchor="middle" x="81.5" y="-275.5" font-family="Helvetica,sans-Serif" font-size="10.00">SLIST_ENTRY</text>
</a>
</g>
</g>
<!-- Node5&#45;&gt;Node4 -->
<g id="edge4" class="edge">
<title>Node5&#45;&gt;Node4</title>
<path fill="none" stroke="midnightblue" d="M81.5,-258.23C81.5,-249.59 81.5,-239.5 81.5,-231.52"/>
<polygon fill="midnightblue" stroke="midnightblue" points="78,-258.48 81.5,-268.48 85,-258.48 78,-258.48"/>
</g>
</g>
</svg>
