<?xml version="1.0" encoding="UTF-8" standalone="no"?>
<!DOCTYPE svg PUBLIC "-//W3C//DTD SVG 1.1//EN"
 "http://www.w3.org/Graphics/SVG/1.1/DTD/svg11.dtd">
<!-- Generated by graphviz version 2.43.0 (0)
 -->
<!-- Title: ntp::details::TpEnvironmentView Pages: 1 -->
<svg width="584pt" height="269pt"
 viewBox="0.00 0.00 584.00 269.00" xmlns="http://www.w3.org/2000/svg" xmlns:xlink="http://www.w3.org/1999/xlink">
<g id="graph0" class="graph" transform="scale(1 1) rotate(0) translate(4 265)">
<title>ntp::details::TpEnvironmentView</title>
<!-- Node1 -->
<g id="node1" class="node">
<title>Node1</title>
<g id="a_node1"><a xlink:title="Class, that binds a manager with a pool. Manager should inherit this class to bind itself with the th...">
<polygon fill="#bfbfbf" stroke="black" points="0,-121 0,-140 176,-140 176,-121 0,-121"/>
<text text-anchor="middle" x="88" y="-128" font-family="Helvetica,sans-Serif" font-size="10.00">ntp::details::TpEnvironmentView</text>
</a>
</g>
</g>
<!-- Node2 -->
<g id="node2" class="node">
<title>Node2</title>
<g id="a_node2"><a xlink:href="classntp_1_1details_1_1BasicManager.html" target="_top" xlink:title=" ">
<polygon fill="none" stroke="black" points="212,-230.5 212,-260.5 396,-260.5 396,-230.5 212,-230.5"/>
<text text-anchor="start" x="220" y="-248.5" font-family="Helvetica,sans-Serif" font-size="10.00">ntp::details::BasicManager</text>
<text text-anchor="middle" x="304" y="-237.5" font-family="Helvetica,sans-Serif" font-size="10.00">&lt; PTP_IO, IoContext, IoManager &gt;</text>
</a>
</g>
</g>
<!-- Node1&#45;&gt;Node2 -->
<g id="edge1" class="edge">
<title>Node1&#45;&gt;Node2</title>
<path fill="none" stroke="midnightblue" d="M106.84,-146.86C129.63,-166.93 171.04,-200.72 212,-220.5 219.82,-224.28 228.3,-227.56 236.84,-230.39"/>
<polygon fill="midnightblue" stroke="midnightblue" points="109.11,-144.19 99.33,-140.13 104.45,-149.41 109.11,-144.19"/>
</g>
<!-- Node4 -->
<g id="node4" class="node">
<title>Node4</title>
<g id="a_node4"><a xlink:href="classntp_1_1details_1_1BasicManager.html" target="_top" xlink:title=" ">
<polygon fill="none" stroke="black" points="231,-170 231,-211 377,-211 377,-170 231,-170"/>
<text text-anchor="start" x="239" y="-199" font-family="Helvetica,sans-Serif" font-size="10.00">ntp::details::BasicManager</text>
<text text-anchor="start" x="239" y="-188" font-family="Helvetica,sans-Serif" font-size="10.00">&lt; PTP_WAIT, WaitContext,</text>
<text text-anchor="middle" x="304" y="-177" font-family="Helvetica,sans-Serif" font-size="10.00"> WaitManager &gt;</text>
</a>
</g>
</g>
<!-- Node1&#45;&gt;Node4 -->
<g id="edge3" class="edge">
<title>Node1&#45;&gt;Node4</title>
<path fill="none" stroke="midnightblue" d="M132.85,-142.79C161,-150.69 198.25,-161.13 230.71,-170.23"/>
<polygon fill="midnightblue" stroke="midnightblue" points="133.48,-139.34 122.91,-140.01 131.59,-146.08 133.48,-139.34"/>
</g>
<!-- Node6 -->
<g id="node6" class="node">
<title>Node6</title>
<g id="a_node6"><a xlink:href="classntp_1_1details_1_1BasicManager.html" target="_top" xlink:title=" ">
<polygon fill="none" stroke="black" points="225,-110 225,-151 383,-151 383,-110 225,-110"/>
<text text-anchor="start" x="233" y="-139" font-family="Helvetica,sans-Serif" font-size="10.00">ntp::details::BasicManager</text>
<text text-anchor="start" x="233" y="-128" font-family="Helvetica,sans-Serif" font-size="10.00">&lt; PTP_TIMER, TimerContext,</text>
<text text-anchor="middle" x="304" y="-117" font-family="Helvetica,sans-Serif" font-size="10.00"> TimerManager &gt;</text>
</a>
</g>
</g>
<!-- Node1&#45;&gt;Node6 -->
<g id="edge5" class="edge">
<title>Node1&#45;&gt;Node6</title>
<path fill="none" stroke="midnightblue" d="M186.36,-130.5C199.3,-130.5 212.43,-130.5 224.98,-130.5"/>
<polygon fill="midnightblue" stroke="midnightblue" points="186.04,-127 176.04,-130.5 186.04,-134 186.04,-127"/>
</g>
<!-- Node8 -->
<g id="node8" class="node">
<title>Node8</title>
<g id="a_node8"><a xlink:href="classntp_1_1details_1_1BasicManager.html" target="_top" xlink:title="Direct base class for all context managers of threadpool callbacks.">
<polygon fill="none" stroke="black" points="217.5,-50 217.5,-91 390.5,-91 390.5,-50 217.5,-50"/>
<text text-anchor="start" x="225.5" y="-79" font-family="Helvetica,sans-Serif" font-size="10.00">ntp::details::BasicManager</text>
<text text-anchor="start" x="225.5" y="-68" font-family="Helvetica,sans-Serif" font-size="10.00">&lt; NativeHandle, ObjectContext,</text>
<text text-anchor="middle" x="304" y="-57" font-family="Helvetica,sans-Serif" font-size="10.00"> Derived &gt;</text>
</a>
</g>
</g>
<!-- Node1&#45;&gt;Node8 -->
<g id="edge7" class="edge">
<title>Node1&#45;&gt;Node8</title>
<path fill="none" stroke="midnightblue" d="M132.76,-118.23C160.67,-110.41 197.53,-100.07 229.82,-91.02"/>
<polygon fill="midnightblue" stroke="midnightblue" points="131.59,-114.92 122.91,-120.99 133.48,-121.66 131.59,-114.92"/>
</g>
<!-- Node10 -->
<g id="node10" class="node">
<title>Node10</title>
<g id="a_node10"><a xlink:href="classntp_1_1details_1_1BasicManager_3_01void_00_01void_00_01void_01_4.html" target="_top" xlink:title="Direct base class for all context managers of threadpool callbacks. &quot;Empty&quot; context specialization.">
<polygon fill="none" stroke="black" points="231,-0.5 231,-30.5 377,-30.5 377,-0.5 231,-0.5"/>
<text text-anchor="start" x="239" y="-18.5" font-family="Helvetica,sans-Serif" font-size="10.00">ntp::details::BasicManager</text>
<text text-anchor="middle" x="304" y="-7.5" font-family="Helvetica,sans-Serif" font-size="10.00">&lt; void, void, void &gt;</text>
</a>
</g>
</g>
<!-- Node1&#45;&gt;Node10 -->
<g id="edge9" class="edge">
<title>Node1&#45;&gt;Node10</title>
<path fill="none" stroke="midnightblue" d="M106.84,-114.14C129.63,-94.07 171.04,-60.28 212,-40.5 219.82,-36.72 228.3,-33.44 236.84,-30.61"/>
<polygon fill="midnightblue" stroke="midnightblue" points="104.45,-111.59 99.33,-120.87 109.11,-116.81 104.45,-111.59"/>
</g>
<!-- Node3 -->
<g id="node3" class="node">
<title>Node3</title>
<g id="a_node3"><a xlink:href="classntp_1_1io_1_1details_1_1IoManager.html" target="_top" xlink:title="Manager for wait callbacks. Binds callbacks and threadpool implementation.">
<polygon fill="none" stroke="black" points="432,-236 432,-255 576,-255 576,-236 432,-236"/>
<text text-anchor="middle" x="504" y="-243" font-family="Helvetica,sans-Serif" font-size="10.00">ntp::io::details::IoManager</text>
</a>
</g>
</g>
<!-- Node2&#45;&gt;Node3 -->
<g id="edge2" class="edge">
<title>Node2&#45;&gt;Node3</title>
<path fill="none" stroke="midnightblue" d="M406.3,-245.5C414.93,-245.5 423.54,-245.5 431.86,-245.5"/>
<polygon fill="midnightblue" stroke="midnightblue" points="406.18,-242 396.18,-245.5 406.18,-249 406.18,-242"/>
</g>
<!-- Node5 -->
<g id="node5" class="node">
<title>Node5</title>
<g id="a_node5"><a xlink:href="classntp_1_1wait_1_1details_1_1WaitManager.html" target="_top" xlink:title="Manager for wait callbacks. Binds callbacks and threadpool implementation.">
<polygon fill="none" stroke="black" points="455,-175.5 455,-205.5 553,-205.5 553,-175.5 455,-175.5"/>
<text text-anchor="start" x="463" y="-193.5" font-family="Helvetica,sans-Serif" font-size="10.00">ntp::wait::details</text>
<text text-anchor="middle" x="504" y="-182.5" font-family="Helvetica,sans-Serif" font-size="10.00">::WaitManager</text>
</a>
</g>
</g>
<!-- Node4&#45;&gt;Node5 -->
<g id="edge4" class="edge">
<title>Node4&#45;&gt;Node5</title>
<path fill="none" stroke="midnightblue" d="M387.16,-190.5C410.19,-190.5 434.46,-190.5 454.81,-190.5"/>
<polygon fill="midnightblue" stroke="midnightblue" points="387.04,-187 377.04,-190.5 387.04,-194 387.04,-187"/>
</g>
<!-- Node7 -->
<g id="node7" class="node">
<title>Node7</title>
<g id="a_node7"><a xlink:href="classntp_1_1timer_1_1details_1_1TimerManager.html" target="_top" xlink:title="Manager for wait callbacks. Binds callbacks and threadpool implementation.">
<polygon fill="none" stroke="black" points="452,-115.5 452,-145.5 556,-145.5 556,-115.5 452,-115.5"/>
<text text-anchor="start" x="460" y="-133.5" font-family="Helvetica,sans-Serif" font-size="10.00">ntp::timer::details</text>
<text text-anchor="middle" x="504" y="-122.5" font-family="Helvetica,sans-Serif" font-size="10.00">::TimerManager</text>
</a>
</g>
</g>
<!-- Node6&#45;&gt;Node7 -->
<g id="edge6" class="edge">
<title>Node6&#45;&gt;Node7</title>
<path fill="none" stroke="midnightblue" d="M393.32,-130.5C413.31,-130.5 433.89,-130.5 451.74,-130.5"/>
<polygon fill="midnightblue" stroke="midnightblue" points="393.25,-127 383.25,-130.5 393.25,-134 393.25,-127"/>
</g>
<!-- Node9 -->
<g id="node9" class="node">
<title>Node9</title>
<g id="a_node9"><a xlink:href="classntp_1_1work_1_1details_1_1WorkManager.html" target="_top" xlink:title="Manager for work callbacks. Binds callbacks and threadpool implementation.">
<polygon fill="none" stroke="black" points="450.5,-55.5 450.5,-85.5 557.5,-85.5 557.5,-55.5 450.5,-55.5"/>
<text text-anchor="start" x="458.5" y="-73.5" font-family="Helvetica,sans-Serif" font-size="10.00">ntp::work::details</text>
<text text-anchor="middle" x="504" y="-62.5" font-family="Helvetica,sans-Serif" font-size="10.00">::WorkManager&lt;&gt;</text>
</a>
</g>
</g>
<!-- Node8&#45;&gt;Node9 -->
<g id="edge8" class="edge">
<title>Node8&#45;&gt;Node9</title>
<path fill="none" stroke="midnightblue" d="M400.72,-70.5C417.8,-70.5 435.01,-70.5 450.31,-70.5"/>
<polygon fill="midnightblue" stroke="midnightblue" points="400.69,-67 390.69,-70.5 400.69,-74 400.69,-67"/>
</g>
</g>
</svg>
