<?xml version="1.0" encoding="UTF-8" standalone="no"?>
<!DOCTYPE svg PUBLIC "-//W3C//DTD SVG 1.1//EN"
 "http://www.w3.org/Graphics/SVG/1.1/DTD/svg11.dtd">
<!-- Generated by graphviz version 2.43.0 (0)
 -->
<!-- Title: ntp::work::details::WorkCallback&lt; Functor, Args &gt; Pages: 1 -->
<svg width="777pt" height="50pt"
 viewBox="0.00 0.00 777.00 50.00" xmlns="http://www.w3.org/2000/svg" xmlns:xlink="http://www.w3.org/1999/xlink">
<g id="graph0" class="graph" transform="scale(1 1) rotate(0) translate(4 46)">
<title>ntp::work::details::WorkCallback&lt; Functor, Args &gt;</title>
<polygon fill="white" stroke="transparent" points="-4,4 -4,-46 773,-46 773,4 -4,4"/>
<!-- Node1 -->
<g id="node1" class="node">
<title>Node1</title>
<g id="a_node1"><a xlink:title="Work callback wrapper (PTP_WORK)">
<polygon fill="#bfbfbf" stroke="black" points="629,-0.5 629,-41.5 769,-41.5 769,-0.5 629,-0.5"/>
<text text-anchor="start" x="637" y="-29.5" font-family="Helvetica,sans-Serif" font-size="10.00">ntp::work::details</text>
<text text-anchor="start" x="637" y="-18.5" font-family="Helvetica,sans-Serif" font-size="10.00">::WorkCallback&lt; Functor,</text>
<text text-anchor="middle" x="699" y="-7.5" font-family="Helvetica,sans-Serif" font-size="10.00"> Args &gt;</text>
</a>
</g>
</g>
<!-- Node2 -->
<g id="node2" class="node">
<title>Node2</title>
<g id="a_node2"><a xlink:href="classntp_1_1details_1_1BasicCallback.html" target="_top" xlink:title=" ">
<polygon fill="white" stroke="black" points="441,-0.5 441,-41.5 593,-41.5 593,-0.5 441,-0.5"/>
<text text-anchor="start" x="449" y="-29.5" font-family="Helvetica,sans-Serif" font-size="10.00">ntp::details::BasicCallback</text>
<text text-anchor="start" x="449" y="-18.5" font-family="Helvetica,sans-Serif" font-size="10.00">&lt; WorkCallback&lt; Functor,</text>
<text text-anchor="middle" x="517" y="-7.5" font-family="Helvetica,sans-Serif" font-size="10.00"> Args... &gt;, Functor, Args... &gt;</text>
</a>
</g>
</g>
<!-- Node2&#45;&gt;Node1 -->
<g id="edge1" class="edge">
<title>Node2&#45;&gt;Node1</title>
<path fill="none" stroke="midnightblue" d="M603.11,-21C611.73,-21 620.42,-21 628.84,-21"/>
<polygon fill="midnightblue" stroke="midnightblue" points="603.03,-17.5 593.03,-21 603.03,-24.5 603.03,-17.5"/>
</g>
<!-- Node3 -->
<g id="node3" class="node">
<title>Node3</title>
<g id="a_node3"><a xlink:href="structntp_1_1details_1_1ICallback.html" target="_top" xlink:title="Interface for callback wrapper.">
<polygon fill="white" stroke="black" points="283,-11.5 283,-30.5 405,-30.5 405,-11.5 283,-11.5"/>
<text text-anchor="middle" x="344" y="-18.5" font-family="Helvetica,sans-Serif" font-size="10.00">ntp::details::ICallback</text>
</a>
</g>
</g>
<!-- Node3&#45;&gt;Node2 -->
<g id="edge2" class="edge">
<title>Node3&#45;&gt;Node2</title>
<path fill="none" stroke="midnightblue" d="M415.44,-21C423.86,-21 432.49,-21 440.97,-21"/>
<polygon fill="midnightblue" stroke="midnightblue" points="415.29,-17.5 405.29,-21 415.29,-24.5 415.29,-17.5"/>
</g>
<!-- Node4 -->
<g id="node4" class="node">
<title>Node4</title>
<g id="a_node4"><a xlink:href="classntp_1_1details_1_1NativeSlistEntry.html" target="_top" xlink:title="Wrapper for SLIST_ENTRY (actually inherits from it).">
<polygon fill="white" stroke="black" points="116,-6 116,-36 247,-36 247,-6 116,-6"/>
<text text-anchor="start" x="124" y="-24" font-family="Helvetica,sans-Serif" font-size="10.00">ntp::details::NativeSlist</text>
<text text-anchor="middle" x="181.5" y="-13" font-family="Helvetica,sans-Serif" font-size="10.00">Entry</text>
</a>
</g>
</g>
<!-- Node4&#45;&gt;Node3 -->
<g id="edge3" class="edge">
<title>Node4&#45;&gt;Node3</title>
<path fill="none" stroke="midnightblue" d="M257.59,-21C266.07,-21 274.62,-21 282.87,-21"/>
<polygon fill="midnightblue" stroke="midnightblue" points="257.32,-17.5 247.32,-21 257.32,-24.5 257.32,-17.5"/>
</g>
<!-- Node5 -->
<g id="node5" class="node">
<title>Node5</title>
<g id="a_node5"><a xlink:title=" ">
<polygon fill="white" stroke="#bfbfbf" points="0,-11.5 0,-30.5 80,-30.5 80,-11.5 0,-11.5"/>
<text text-anchor="middle" x="40" y="-18.5" font-family="Helvetica,sans-Serif" font-size="10.00">SLIST_ENTRY</text>
</a>
</g>
</g>
<!-- Node5&#45;&gt;Node4 -->
<g id="edge4" class="edge">
<title>Node5&#45;&gt;Node4</title>
<path fill="none" stroke="midnightblue" d="M90.44,-21C98.7,-21 107.38,-21 115.96,-21"/>
<polygon fill="midnightblue" stroke="midnightblue" points="90.23,-17.5 80.23,-21 90.23,-24.5 90.23,-17.5"/>
</g>
</g>
</svg>
