<?xml version="1.0" encoding="UTF-8" standalone="no"?>
<!DOCTYPE svg PUBLIC "-//W3C//DTD SVG 1.1//EN"
 "http://www.w3.org/Graphics/SVG/1.1/DTD/svg11.dtd">
<!-- Generated by graphviz version 2.43.0 (0)
 -->
<!-- Title: ntp::wait::details::WaitManager Pages: 1 -->
<svg width="165pt" height="173pt"
 viewBox="0.00 0.00 165.00 173.00" xmlns="http://www.w3.org/2000/svg" xmlns:xlink="http://www.w3.org/1999/xlink">
<g id="graph0" class="graph" transform="scale(1 1) rotate(0) translate(4 169)">
<title>ntp::wait::details::WaitManager</title>
<polygon fill="white" stroke="transparent" points="-4,4 -4,-169 161,-169 161,4 -4,4"/>
<!-- Node1 -->
<g id="node1" class="node">
<title>Node1</title>
<g id="a_node1"><a xlink:title="Manager for wait callbacks. Binds callbacks and threadpool implementation.">
<polygon fill="#bfbfbf" stroke="black" points="29.5,-0.5 29.5,-30.5 127.5,-30.5 127.5,-0.5 29.5,-0.5"/>
<text text-anchor="start" x="37.5" y="-18.5" font-family="Helvetica,sans-Serif" font-size="10.00">ntp::wait::details</text>
<text text-anchor="middle" x="78.5" y="-7.5" font-family="Helvetica,sans-Serif" font-size="10.00">::WaitManager</text>
</a>
</g>
</g>
<!-- Node2 -->
<g id="node2" class="node">
<title>Node2</title>
<g id="a_node2"><a xlink:href="classntp_1_1details_1_1BasicManagerEx.html" target="_top" xlink:title=" ">
<polygon fill="white" stroke="black" points="0,-67.5 0,-108.5 157,-108.5 157,-67.5 0,-67.5"/>
<text text-anchor="start" x="8" y="-96.5" font-family="Helvetica,sans-Serif" font-size="10.00">ntp::details::BasicManager</text>
<text text-anchor="start" x="8" y="-85.5" font-family="Helvetica,sans-Serif" font-size="10.00">Ex&lt; PTP_WAIT, WaitContext,</text>
<text text-anchor="middle" x="78.5" y="-74.5" font-family="Helvetica,sans-Serif" font-size="10.00"> WaitManager &gt;</text>
</a>
</g>
</g>
<!-- Node2&#45;&gt;Node1 -->
<g id="edge1" class="edge">
<title>Node2&#45;&gt;Node1</title>
<path fill="none" stroke="midnightblue" d="M78.5,-57.08C78.5,-48.01 78.5,-38.45 78.5,-30.89"/>
<polygon fill="midnightblue" stroke="midnightblue" points="75,-57.36 78.5,-67.36 82,-57.36 75,-57.36"/>
</g>
<!-- Node3 -->
<g id="node3" class="node">
<title>Node3</title>
<g id="a_node3"><a xlink:href="classntp_1_1details_1_1BasicManager.html" target="_top" xlink:title="Base class for all callbacks&#39; managers.">
<polygon fill="white" stroke="black" points="5.5,-145.5 5.5,-164.5 151.5,-164.5 151.5,-145.5 5.5,-145.5"/>
<text text-anchor="middle" x="78.5" y="-152.5" font-family="Helvetica,sans-Serif" font-size="10.00">ntp::details::BasicManager</text>
</a>
</g>
</g>
<!-- Node3&#45;&gt;Node2 -->
<g id="edge2" class="edge">
<title>Node3&#45;&gt;Node2</title>
<path fill="none" stroke="midnightblue" d="M78.5,-135.04C78.5,-126.71 78.5,-116.94 78.5,-108.54"/>
<polygon fill="midnightblue" stroke="midnightblue" points="75,-135.23 78.5,-145.23 82,-135.23 75,-135.23"/>
</g>
</g>
</svg>
