<?xml version="1.0" encoding="UTF-8" standalone="no"?>
<!DOCTYPE svg PUBLIC "-//W3C//DTD SVG 1.1//EN"
 "http://www.w3.org/Graphics/SVG/1.1/DTD/svg11.dtd">
<!-- Generated by graphviz version 2.43.0 (0)
 -->
<!-- Title: ntp/include Pages: 1 -->
<svg width="202pt" height="327pt"
 viewBox="0.00 0.00 202.00 327.00" xmlns="http://www.w3.org/2000/svg" xmlns:xlink="http://www.w3.org/1999/xlink">
<g id="graph0" class="graph" transform="scale(1 1) rotate(0) translate(4 323)">
<title>ntp/include</title>
<g id="clust1" class="cluster">
<title>clusterdir_12a93777c2835b14eab543fe425a2b1e</title>
<g id="a_clust1"><a xlink:href="dir_12a93777c2835b14eab543fe425a2b1e.html" target="_top" xlink:title="ntp">
<polygon fill="#ddddee" stroke="black" points="8,-8 8,-311 186,-311 186,-8 8,-8"/>
<text text-anchor="middle" x="97" y="-299" font-family="Helvetica,sans-Serif" font-size="10.00">ntp</text>
</a>
</g>
</g>
<g id="clust2" class="cluster">
<title>clusterdir_732709f0eb07a19ab7415b8df6a497c7</title>
<g id="a_clust2"><a xlink:href="dir_732709f0eb07a19ab7415b8df6a497c7.html" target="_top">
<polygon fill="#eeeeff" stroke="black" points="16,-16 16,-284 178,-284 178,-16 16,-16"/>
</a>
</g>
</g>
<!-- dir_732709f0eb07a19ab7415b8df6a497c7 -->
<g id="node1" class="node">
<title>dir_732709f0eb07a19ab7415b8df6a497c7</title>
<text text-anchor="middle" x="71" y="-255.5" font-family="Helvetica,sans-Serif" font-size="10.00">include</text>
</g>
<!-- dir_f6ac0c14f74c22565ad02ca34f6f32e7 -->
<g id="node2" class="node">
<title>dir_f6ac0c14f74c22565ad02ca34f6f32e7</title>
<g id="a_node2"><a xlink:href="dir_f6ac0c14f74c22565ad02ca34f6f32e7.html" target="_top" xlink:title="details">
<polygon fill="white" stroke="black" points="98,-132 44,-132 44,-96 98,-96 98,-132"/>
<text text-anchor="middle" x="71" y="-111.5" font-family="Helvetica,sans-Serif" font-size="10.00">details</text>
</a>
</g>
</g>
<!-- dir_732709f0eb07a19ab7415b8df6a497c7&#45;&gt;dir_f6ac0c14f74c22565ad02ca34f6f32e7 -->
<g id="edge3" class="edge">
<title>dir_732709f0eb07a19ab7415b8df6a497c7&#45;&gt;dir_f6ac0c14f74c22565ad02ca34f6f32e7</title>
<path fill="none" stroke="black" d="M55.39,-239.77C47.63,-230.03 39.05,-217.18 35,-204 30.3,-188.71 30.3,-183.29 35,-168 38.01,-158.22 43.51,-148.62 49.32,-140.33"/>
<polygon fill="black" stroke="black" points="52.19,-142.33 55.39,-132.23 46.59,-138.13 52.19,-142.33"/>
<g id="a_edge3&#45;headlabel"><a xlink:href="dir_000001_000002.html" target="_top" xlink:title="11">
<text text-anchor="middle" x="52.31" y="-144.41" font-family="Helvetica,sans-Serif" font-size="10.00">11</text>
</a>
</g>
</g>
<!-- dir_b0cc1cabb858804282efbcea0717cddb -->
<g id="node3" class="node">
<title>dir_b0cc1cabb858804282efbcea0717cddb</title>
<g id="a_node3"><a xlink:href="dir_b0cc1cabb858804282efbcea0717cddb.html" target="_top" xlink:title="logger">
<polygon fill="white" stroke="black" points="98,-204 44,-204 44,-168 98,-168 98,-204"/>
<text text-anchor="middle" x="71" y="-183.5" font-family="Helvetica,sans-Serif" font-size="10.00">logger</text>
</a>
</g>
</g>
<!-- dir_732709f0eb07a19ab7415b8df6a497c7&#45;&gt;dir_b0cc1cabb858804282efbcea0717cddb -->
<g id="edge2" class="edge">
<title>dir_732709f0eb07a19ab7415b8df6a497c7&#45;&gt;dir_b0cc1cabb858804282efbcea0717cddb</title>
<path fill="none" stroke="black" d="M71,-239.7C71,-231.98 71,-222.71 71,-214.11"/>
<polygon fill="black" stroke="black" points="74.5,-214.1 71,-204.1 67.5,-214.1 74.5,-214.1"/>
<g id="a_edge2&#45;headlabel"><a xlink:href="dir_000001_000003.html" target="_top" xlink:title="1">
<text text-anchor="middle" x="77.34" y="-215.2" font-family="Helvetica,sans-Serif" font-size="10.00">1</text>
</a>
</g>
</g>
<!-- dir_5767c34366a3af4c495bfce7f8138985 -->
<g id="node5" class="node">
<title>dir_5767c34366a3af4c495bfce7f8138985</title>
<g id="a_node5"><a xlink:href="dir_5767c34366a3af4c495bfce7f8138985.html" target="_top" xlink:title="pool">
<polygon fill="white" stroke="black" points="170,-204 116,-204 116,-168 170,-168 170,-204"/>
<text text-anchor="middle" x="143" y="-183.5" font-family="Helvetica,sans-Serif" font-size="10.00">pool</text>
</a>
</g>
</g>
<!-- dir_732709f0eb07a19ab7415b8df6a497c7&#45;&gt;dir_5767c34366a3af4c495bfce7f8138985 -->
<g id="edge1" class="edge">
<title>dir_732709f0eb07a19ab7415b8df6a497c7&#45;&gt;dir_5767c34366a3af4c495bfce7f8138985</title>
<path fill="none" stroke="black" d="M88.8,-239.7C97.6,-231.14 108.38,-220.66 118,-211.3"/>
<polygon fill="black" stroke="black" points="120.68,-213.58 125.41,-204.1 115.8,-208.57 120.68,-213.58"/>
<g id="a_edge1&#45;headlabel"><a xlink:href="dir_000001_000005.html" target="_top" xlink:title="1">
<text text-anchor="middle" x="120.08" y="-215.63" font-family="Helvetica,sans-Serif" font-size="10.00">1</text>
</a>
</g>
</g>
<!-- dir_2811f29fb045323412d86bf7785127e6 -->
<g id="node4" class="node">
<title>dir_2811f29fb045323412d86bf7785127e6</title>
<g id="a_node4"><a xlink:href="dir_2811f29fb045323412d86bf7785127e6.html" target="_top" xlink:title="native">
<polygon fill="white" stroke="black" points="98,-60 44,-60 44,-24 98,-24 98,-60"/>
<text text-anchor="middle" x="71" y="-39.5" font-family="Helvetica,sans-Serif" font-size="10.00">native</text>
</a>
</g>
</g>
<!-- dir_f6ac0c14f74c22565ad02ca34f6f32e7&#45;&gt;dir_2811f29fb045323412d86bf7785127e6 -->
<g id="edge4" class="edge">
<title>dir_f6ac0c14f74c22565ad02ca34f6f32e7&#45;&gt;dir_2811f29fb045323412d86bf7785127e6</title>
<path fill="none" stroke="black" d="M71,-95.7C71,-87.98 71,-78.71 71,-70.11"/>
<polygon fill="black" stroke="black" points="74.5,-70.1 71,-60.1 67.5,-70.1 74.5,-70.1"/>
<g id="a_edge4&#45;headlabel"><a xlink:href="dir_000002_000004.html" target="_top" xlink:title="1">
<text text-anchor="middle" x="77.34" y="-71.2" font-family="Helvetica,sans-Serif" font-size="10.00">1</text>
</a>
</g>
</g>
<!-- dir_b0cc1cabb858804282efbcea0717cddb&#45;&gt;dir_f6ac0c14f74c22565ad02ca34f6f32e7 -->
<g id="edge5" class="edge">
<title>dir_b0cc1cabb858804282efbcea0717cddb&#45;&gt;dir_f6ac0c14f74c22565ad02ca34f6f32e7</title>
<path fill="none" stroke="black" d="M71,-167.7C71,-159.98 71,-150.71 71,-142.11"/>
<polygon fill="black" stroke="black" points="74.5,-142.1 71,-132.1 67.5,-142.1 74.5,-142.1"/>
<g id="a_edge5&#45;headlabel"><a xlink:href="dir_000003_000002.html" target="_top" xlink:title="1">
<text text-anchor="middle" x="77.34" y="-143.2" font-family="Helvetica,sans-Serif" font-size="10.00">1</text>
</a>
</g>
</g>
<!-- dir_5767c34366a3af4c495bfce7f8138985&#45;&gt;dir_f6ac0c14f74c22565ad02ca34f6f32e7 -->
<g id="edge6" class="edge">
<title>dir_5767c34366a3af4c495bfce7f8138985&#45;&gt;dir_f6ac0c14f74c22565ad02ca34f6f32e7</title>
<path fill="none" stroke="black" d="M125.2,-167.7C116.4,-159.14 105.62,-148.66 96,-139.3"/>
<polygon fill="black" stroke="black" points="98.2,-136.57 88.59,-132.1 93.32,-141.58 98.2,-136.57"/>
<g id="a_edge6&#45;headlabel"><a xlink:href="dir_000005_000002.html" target="_top" xlink:title="9">
<text text-anchor="middle" x="102.76" y="-134.54" font-family="Helvetica,sans-Serif" font-size="10.00">9</text>
</a>
</g>
</g>
</g>
</svg>
