<?xml version="1.0" encoding="UTF-8" standalone="no"?>
<!DOCTYPE svg PUBLIC "-//W3C//DTD SVG 1.1//EN"
 "http://www.w3.org/Graphics/SVG/1.1/DTD/svg11.dtd">
<!-- Generated by graphviz version 2.43.0 (0)
 -->
<!-- Title: ntp/src Pages: 1 -->
<svg width="326pt" height="175pt"
 viewBox="0.00 0.00 326.00 175.00" xmlns="http://www.w3.org/2000/svg" xmlns:xlink="http://www.w3.org/1999/xlink">
<g id="graph0" class="graph" transform="scale(1 1) rotate(0) translate(4 171)">
<title>ntp/src</title>
<g id="clust1" class="cluster">
<title>clusterdir_12a93777c2835b14eab543fe425a2b1e</title>
<g id="a_clust1"><a xlink:href="dir_12a93777c2835b14eab543fe425a2b1e.html" target="_top" xlink:title="ntp">
<polygon fill="#ddddee" stroke="black" points="8,-8 8,-159 310,-159 310,-8 8,-8"/>
<text text-anchor="middle" x="159" y="-147" font-family="Helvetica,sans-Serif" font-size="10.00">ntp</text>
</a>
</g>
</g>
<g id="clust2" class="cluster">
<title>clusterdir_bd0dde57184c1d426492455d9e7ff45b</title>
<g id="a_clust2"><a xlink:href="dir_bd0dde57184c1d426492455d9e7ff45b.html" target="_top">
<polygon fill="#eeeeff" stroke="black" points="16,-80 16,-132 302,-132 302,-80 16,-80"/>
</a>
</g>
</g>
<!-- dir_732709f0eb07a19ab7415b8df6a497c7 -->
<g id="node1" class="node">
<title>dir_732709f0eb07a19ab7415b8df6a497c7</title>
<g id="a_node1"><a xlink:href="dir_732709f0eb07a19ab7415b8df6a497c7.html" target="_top" xlink:title="include">
<polygon fill="none" stroke="red" points="150,-52 96,-52 96,-16 150,-16 150,-52"/>
<text text-anchor="middle" x="123" y="-31.5" font-family="Helvetica,sans-Serif" font-size="10.00">include</text>
</a>
</g>
</g>
<!-- dir_bd0dde57184c1d426492455d9e7ff45b -->
<g id="node2" class="node">
<title>dir_bd0dde57184c1d426492455d9e7ff45b</title>
<text text-anchor="middle" x="267" y="-103.5" font-family="Helvetica,sans-Serif" font-size="10.00">src</text>
</g>
<!-- dir_9813c5dfb667be86face65027f95f9f0 -->
<g id="node3" class="node">
<title>dir_9813c5dfb667be86face65027f95f9f0</title>
<g id="a_node3"><a xlink:href="dir_9813c5dfb667be86face65027f95f9f0.html" target="_top" xlink:title="details">
<polygon fill="white" stroke="black" points="222,-124 168,-124 168,-88 222,-88 222,-124"/>
<text text-anchor="middle" x="195" y="-103.5" font-family="Helvetica,sans-Serif" font-size="10.00">details</text>
</a>
</g>
</g>
<!-- dir_9813c5dfb667be86face65027f95f9f0&#45;&gt;dir_732709f0eb07a19ab7415b8df6a497c7 -->
<g id="edge2" class="edge">
<title>dir_9813c5dfb667be86face65027f95f9f0&#45;&gt;dir_732709f0eb07a19ab7415b8df6a497c7</title>
<path fill="none" stroke="black" d="M177.2,-87.7C168.4,-79.14 157.62,-68.66 148,-59.3"/>
<polygon fill="black" stroke="black" points="150.2,-56.57 140.59,-52.1 145.32,-61.58 150.2,-56.57"/>
<g id="a_edge2&#45;headlabel"><a xlink:href="dir_000007_000001.html" target="_top" xlink:title="3">
<text text-anchor="middle" x="154.76" y="-54.54" font-family="Helvetica,sans-Serif" font-size="10.00">3</text>
</a>
</g>
</g>
<!-- dir_0c66453f00e96e872694cd0c6ef13455 -->
<g id="node4" class="node">
<title>dir_0c66453f00e96e872694cd0c6ef13455</title>
<g id="a_node4"><a xlink:href="dir_0c66453f00e96e872694cd0c6ef13455.html" target="_top" xlink:title="logger">
<polygon fill="white" stroke="black" points="150,-124 96,-124 96,-88 150,-88 150,-124"/>
<text text-anchor="middle" x="123" y="-103.5" font-family="Helvetica,sans-Serif" font-size="10.00">logger</text>
</a>
</g>
</g>
<!-- dir_0c66453f00e96e872694cd0c6ef13455&#45;&gt;dir_732709f0eb07a19ab7415b8df6a497c7 -->
<g id="edge1" class="edge">
<title>dir_0c66453f00e96e872694cd0c6ef13455&#45;&gt;dir_732709f0eb07a19ab7415b8df6a497c7</title>
<path fill="none" stroke="black" d="M123,-87.7C123,-79.98 123,-70.71 123,-62.11"/>
<polygon fill="black" stroke="black" points="126.5,-62.1 123,-52.1 119.5,-62.1 126.5,-62.1"/>
<g id="a_edge1&#45;headlabel"><a xlink:href="dir_000008_000001.html" target="_top" xlink:title="2">
<text text-anchor="middle" x="129.34" y="-63.2" font-family="Helvetica,sans-Serif" font-size="10.00">2</text>
</a>
</g>
</g>
<!-- dir_af9faf5255708a6d8ae430180f04cfe7 -->
<g id="node5" class="node">
<title>dir_af9faf5255708a6d8ae430180f04cfe7</title>
<g id="a_node5"><a xlink:href="dir_af9faf5255708a6d8ae430180f04cfe7.html" target="_top" xlink:title="pool">
<polygon fill="white" stroke="black" points="78,-124 24,-124 24,-88 78,-88 78,-124"/>
<text text-anchor="middle" x="51" y="-103.5" font-family="Helvetica,sans-Serif" font-size="10.00">pool</text>
</a>
</g>
</g>
<!-- dir_af9faf5255708a6d8ae430180f04cfe7&#45;&gt;dir_732709f0eb07a19ab7415b8df6a497c7 -->
<g id="edge3" class="edge">
<title>dir_af9faf5255708a6d8ae430180f04cfe7&#45;&gt;dir_732709f0eb07a19ab7415b8df6a497c7</title>
<path fill="none" stroke="black" d="M68.8,-87.7C77.6,-79.14 88.38,-68.66 98,-59.3"/>
<polygon fill="black" stroke="black" points="100.68,-61.58 105.41,-52.1 95.8,-56.57 100.68,-61.58"/>
<g id="a_edge3&#45;headlabel"><a xlink:href="dir_000009_000001.html" target="_top" xlink:title="16">
<text text-anchor="middle" x="100.08" y="-63.63" font-family="Helvetica,sans-Serif" font-size="10.00">16</text>
</a>
</g>
</g>
</g>
</svg>
