<?xml version="1.0" encoding="UTF-8" standalone="no"?>
<!DOCTYPE svg PUBLIC "-//W3C//DTD SVG 1.1//EN"
 "http://www.w3.org/Graphics/SVG/1.1/DTD/svg11.dtd">
<!-- Generated by graphviz version 2.43.0 (0)
 -->
<!-- Title: ntp/include Pages: 1 -->
<svg width="182pt" height="327pt"
 viewBox="0.00 0.00 182.00 327.00" xmlns="http://www.w3.org/2000/svg" xmlns:xlink="http://www.w3.org/1999/xlink">
<g id="graph0" class="graph" transform="scale(1 1) rotate(0) translate(4 323)">
<title>ntp/include</title>
<g id="clust1" class="cluster">
<title>clusterdir_12a93777c2835b14eab543fe425a2b1e</title>
<g id="a_clust1"><a xlink:href="dir_12a93777c2835b14eab543fe425a2b1e.html" target="_top" xlink:title="ntp">
<polygon fill="#ddddee" stroke="black" points="8,-8 8,-311 166,-311 166,-8 8,-8"/>
<text text-anchor="middle" x="87" y="-299" font-family="Helvetica,sans-Serif" font-size="10.00">ntp</text>
</a>
</g>
</g>
<g id="clust2" class="cluster">
<title>clusterdir_732709f0eb07a19ab7415b8df6a497c7</title>
<g id="a_clust2"><a xlink:href="dir_732709f0eb07a19ab7415b8df6a497c7.html" target="_top">
<polygon fill="#eeeeff" stroke="black" points="16,-16 16,-284 158,-284 158,-16 16,-16"/>
</a>
</g>
</g>
<!-- dir_732709f0eb07a19ab7415b8df6a497c7 -->
<g id="node1" class="node">
<title>dir_732709f0eb07a19ab7415b8df6a497c7</title>
<text text-anchor="middle" x="87" y="-255.5" font-family="Helvetica,sans-Serif" font-size="10.00">include</text>
</g>
<!-- dir_b0cc1cabb858804282efbcea0717cddb -->
<g id="node3" class="node">
<title>dir_b0cc1cabb858804282efbcea0717cddb</title>
<g id="a_node3"><a xlink:href="dir_b0cc1cabb858804282efbcea0717cddb.html" target="_top" xlink:title="logger">
<polygon fill="white" stroke="black" points="78,-204 24,-204 24,-168 78,-168 78,-204"/>
<text text-anchor="middle" x="51" y="-183.5" font-family="Helvetica,sans-Serif" font-size="10.00">logger</text>
</a>
</g>
</g>
<!-- dir_732709f0eb07a19ab7415b8df6a497c7&#45;&gt;dir_b0cc1cabb858804282efbcea0717cddb -->
<g id="edge2" class="edge">
<title>dir_732709f0eb07a19ab7415b8df6a497c7&#45;&gt;dir_b0cc1cabb858804282efbcea0717cddb</title>
<path fill="none" stroke="black" d="M78.1,-239.7C74,-231.73 69.05,-222.1 64.51,-213.26"/>
<polygon fill="black" stroke="black" points="67.48,-211.4 59.8,-204.1 61.26,-214.6 67.48,-211.4"/>
<g id="a_edge2&#45;headlabel"><a xlink:href="dir_000001_000003.html" target="_top" xlink:title="1">
<text text-anchor="middle" x="71.65" y="-210.79" font-family="Helvetica,sans-Serif" font-size="10.00">1</text>
</a>
</g>
</g>
<!-- dir_5767c34366a3af4c495bfce7f8138985 -->
<g id="node5" class="node">
<title>dir_5767c34366a3af4c495bfce7f8138985</title>
<g id="a_node5"><a xlink:href="dir_5767c34366a3af4c495bfce7f8138985.html" target="_top" xlink:title="pool">
<polygon fill="white" stroke="black" points="150,-204 96,-204 96,-168 150,-168 150,-204"/>
<text text-anchor="middle" x="123" y="-183.5" font-family="Helvetica,sans-Serif" font-size="10.00">pool</text>
</a>
</g>
</g>
<!-- dir_732709f0eb07a19ab7415b8df6a497c7&#45;&gt;dir_5767c34366a3af4c495bfce7f8138985 -->
<g id="edge1" class="edge">
<title>dir_732709f0eb07a19ab7415b8df6a497c7&#45;&gt;dir_5767c34366a3af4c495bfce7f8138985</title>
<path fill="none" stroke="black" d="M95.9,-239.7C100,-231.73 104.95,-222.1 109.49,-213.26"/>
<polygon fill="black" stroke="black" points="112.74,-214.6 114.2,-204.1 106.52,-211.4 112.74,-214.6"/>
<g id="a_edge1&#45;headlabel"><a xlink:href="dir_000001_000005.html" target="_top" xlink:title="1">
<text text-anchor="middle" x="113.62" y="-216.59" font-family="Helvetica,sans-Serif" font-size="10.00">1</text>
</a>
</g>
</g>
<!-- dir_f6ac0c14f74c22565ad02ca34f6f32e7 -->
<g id="node2" class="node">
<title>dir_f6ac0c14f74c22565ad02ca34f6f32e7</title>
<g id="a_node2"><a xlink:href="dir_f6ac0c14f74c22565ad02ca34f6f32e7.html" target="_top" xlink:title="details">
<polygon fill="white" stroke="black" points="114,-132 60,-132 60,-96 114,-96 114,-132"/>
<text text-anchor="middle" x="87" y="-111.5" font-family="Helvetica,sans-Serif" font-size="10.00">details</text>
</a>
</g>
</g>
<!-- dir_2811f29fb045323412d86bf7785127e6 -->
<g id="node4" class="node">
<title>dir_2811f29fb045323412d86bf7785127e6</title>
<g id="a_node4"><a xlink:href="dir_2811f29fb045323412d86bf7785127e6.html" target="_top" xlink:title="native">
<polygon fill="white" stroke="black" points="114,-60 60,-60 60,-24 114,-24 114,-60"/>
<text text-anchor="middle" x="87" y="-39.5" font-family="Helvetica,sans-Serif" font-size="10.00">native</text>
</a>
</g>
</g>
<!-- dir_f6ac0c14f74c22565ad02ca34f6f32e7&#45;&gt;dir_2811f29fb045323412d86bf7785127e6 -->
<g id="edge3" class="edge">
<title>dir_f6ac0c14f74c22565ad02ca34f6f32e7&#45;&gt;dir_2811f29fb045323412d86bf7785127e6</title>
<path fill="none" stroke="black" d="M87,-95.7C87,-87.98 87,-78.71 87,-70.11"/>
<polygon fill="black" stroke="black" points="90.5,-70.1 87,-60.1 83.5,-70.1 90.5,-70.1"/>
<g id="a_edge3&#45;headlabel"><a xlink:href="dir_000002_000004.html" target="_top" xlink:title="1">
<text text-anchor="middle" x="93.34" y="-71.2" font-family="Helvetica,sans-Serif" font-size="10.00">1</text>
</a>
</g>
</g>
<!-- dir_b0cc1cabb858804282efbcea0717cddb&#45;&gt;dir_f6ac0c14f74c22565ad02ca34f6f32e7 -->
<g id="edge4" class="edge">
<title>dir_b0cc1cabb858804282efbcea0717cddb&#45;&gt;dir_f6ac0c14f74c22565ad02ca34f6f32e7</title>
<path fill="none" stroke="black" d="M59.9,-167.7C64,-159.73 68.95,-150.1 73.49,-141.26"/>
<polygon fill="black" stroke="black" points="76.74,-142.6 78.2,-132.1 70.52,-139.4 76.74,-142.6"/>
<g id="a_edge4&#45;headlabel"><a xlink:href="dir_000003_000002.html" target="_top" xlink:title="1">
<text text-anchor="middle" x="77.62" y="-144.59" font-family="Helvetica,sans-Serif" font-size="10.00">1</text>
</a>
</g>
</g>
<!-- dir_5767c34366a3af4c495bfce7f8138985&#45;&gt;dir_f6ac0c14f74c22565ad02ca34f6f32e7 -->
<g id="edge5" class="edge">
<title>dir_5767c34366a3af4c495bfce7f8138985&#45;&gt;dir_f6ac0c14f74c22565ad02ca34f6f32e7</title>
<path fill="none" stroke="black" d="M114.1,-167.7C110,-159.73 105.05,-150.1 100.51,-141.26"/>
<polygon fill="black" stroke="black" points="103.48,-139.4 95.8,-132.1 97.26,-142.6 103.48,-139.4"/>
<g id="a_edge5&#45;headlabel"><a xlink:href="dir_000005_000002.html" target="_top" xlink:title="9">
<text text-anchor="middle" x="107.65" y="-138.79" font-family="Helvetica,sans-Serif" font-size="10.00">9</text>
</a>
</g>
</g>
</g>
</svg>
