<?xml version="1.0" encoding="UTF-8" standalone="no"?>
<!DOCTYPE svg PUBLIC "-//W3C//DTD SVG 1.1//EN"
 "http://www.w3.org/Graphics/SVG/1.1/DTD/svg11.dtd">
<!-- Generated by graphviz version 2.43.0 (0)
 -->
<!-- Title: ntp/include/details/exception.hpp Pages: 1 -->
<svg width="759pt" height="408pt"
 viewBox="0.00 0.00 758.50 408.00" xmlns="http://www.w3.org/2000/svg" xmlns:xlink="http://www.w3.org/1999/xlink">
<g id="graph0" class="graph" transform="scale(1 1) rotate(0) translate(4 404)">
<title>ntp/include/details/exception.hpp</title>
<polygon fill="white" stroke="transparent" points="-4,4 -4,-404 754.5,-404 754.5,4 -4,4"/>
<!-- Node1 -->
<g id="node1" class="node">
<title>Node1</title>
<g id="a_node1"><a xlink:title="Win32 error wrapper implementations.">
<polygon fill="#bfbfbf" stroke="black" points="578.5,-369.5 578.5,-399.5 685.5,-399.5 685.5,-369.5 578.5,-369.5"/>
<text text-anchor="start" x="586.5" y="-387.5" font-family="Helvetica,sans-Serif" font-size="10.00">ntp/include/details</text>
<text text-anchor="middle" x="632" y="-376.5" font-family="Helvetica,sans-Serif" font-size="10.00">/exception.hpp</text>
</a>
</g>
</g>
<!-- Node2 -->
<g id="node2" class="node">
<title>Node2</title>
<g id="a_node2"><a xlink:href="allocator_8hpp.html" target="_top" xlink:title="Allocator implementations.">
<polygon fill="white" stroke="black" points="578.5,-302.5 578.5,-332.5 685.5,-332.5 685.5,-302.5 578.5,-302.5"/>
<text text-anchor="start" x="586.5" y="-320.5" font-family="Helvetica,sans-Serif" font-size="10.00">ntp/include/details</text>
<text text-anchor="middle" x="632" y="-309.5" font-family="Helvetica,sans-Serif" font-size="10.00">/allocator.hpp</text>
</a>
</g>
</g>
<!-- Node1&#45;&gt;Node2 -->
<g id="edge1" class="edge">
<title>Node1&#45;&gt;Node2</title>
<path fill="none" stroke="midnightblue" d="M632,-359.11C632,-350.15 632,-340.32 632,-332.58"/>
<polygon fill="midnightblue" stroke="midnightblue" points="628.5,-359.4 632,-369.4 635.5,-359.4 628.5,-359.4"/>
</g>
<!-- Node9 -->
<g id="node9" class="node">
<title>Node9</title>
<g id="a_node9"><a xlink:href="threadpool_8cpp.html" target="_top" xlink:title="Threadpool implementation (traits and some helper functions)">
<polygon fill="white" stroke="black" points="601.5,-0.5 601.5,-19.5 750.5,-19.5 750.5,-0.5 601.5,-0.5"/>
<text text-anchor="middle" x="676" y="-7.5" font-family="Helvetica,sans-Serif" font-size="10.00">ntp/src/pool/threadpool.cpp</text>
</a>
</g>
</g>
<!-- Node1&#45;&gt;Node9 -->
<g id="edge23" class="edge">
<title>Node1&#45;&gt;Node9</title>
<path fill="none" stroke="midnightblue" d="M664.35,-363.46C675.23,-355.25 686.49,-344.87 694,-333 713.94,-301.48 714,-288.8 714,-251.5 714,-251.5 714,-251.5 714,-121 714,-81.4 691.73,-37.96 681.28,-19.77"/>
<polygon fill="midnightblue" stroke="midnightblue" points="662.28,-360.64 656.18,-369.3 666.35,-366.33 662.28,-360.64"/>
</g>
<!-- Node13 -->
<g id="node13" class="node">
<title>Node13</title>
<g id="a_node13"><a xlink:href="utils_8cpp.html" target="_top" xlink:title="Implementation of helper functions and classes.">
<polygon fill="white" stroke="black" points="26,-174 26,-193 156,-193 156,-174 26,-174"/>
<text text-anchor="middle" x="91" y="-181" font-family="Helvetica,sans-Serif" font-size="10.00">ntp/src/details/utils.cpp</text>
</a>
</g>
</g>
<!-- Node1&#45;&gt;Node13 -->
<g id="edge22" class="edge">
<title>Node1&#45;&gt;Node13</title>
<path fill="none" stroke="midnightblue" d="M579.77,-366.2C513.13,-343.92 394.45,-303.6 294,-266 226.6,-240.77 147.75,-208.24 111.33,-193.03"/>
<polygon fill="midnightblue" stroke="midnightblue" points="579.02,-369.64 589.62,-369.48 581.24,-363 579.02,-369.64"/>
</g>
<!-- Node3 -->
<g id="node3" class="node">
<title>Node3</title>
<g id="a_node3"><a xlink:href="utils_8hpp.html" target="_top" xlink:title="Some useful implementation stuff.">
<polygon fill="white" stroke="black" points="303.5,-235.5 303.5,-265.5 410.5,-265.5 410.5,-235.5 303.5,-235.5"/>
<text text-anchor="start" x="311.5" y="-253.5" font-family="Helvetica,sans-Serif" font-size="10.00">ntp/include/details</text>
<text text-anchor="middle" x="357" y="-242.5" font-family="Helvetica,sans-Serif" font-size="10.00">/utils.hpp</text>
</a>
</g>
</g>
<!-- Node2&#45;&gt;Node3 -->
<g id="edge2" class="edge">
<title>Node2&#45;&gt;Node3</title>
<path fill="none" stroke="midnightblue" d="M568.39,-301.46C520.55,-290.16 455.74,-274.84 410.54,-264.15"/>
<polygon fill="midnightblue" stroke="midnightblue" points="567.79,-304.92 578.32,-303.81 569.4,-298.11 567.79,-304.92"/>
</g>
<!-- Node7 -->
<g id="node7" class="node">
<title>Node7</title>
<g id="a_node7"><a xlink:href="threadpool_8hpp.html" target="_top" xlink:title="Threadpool implementations.">
<polygon fill="white" stroke="black" points="374.5,-56.5 374.5,-75.5 545.5,-75.5 545.5,-56.5 374.5,-56.5"/>
<text text-anchor="middle" x="460" y="-63.5" font-family="Helvetica,sans-Serif" font-size="10.00">ntp/include/pool/threadpool.hpp</text>
</a>
</g>
</g>
<!-- Node2&#45;&gt;Node7 -->
<g id="edge20" class="edge">
<title>Node2&#45;&gt;Node7</title>
<path fill="none" stroke="midnightblue" d="M638.47,-292.59C648.19,-250.89 661.25,-164.33 619,-112 605.71,-95.54 554.95,-83.11 514.31,-75.53"/>
<polygon fill="midnightblue" stroke="midnightblue" points="635.04,-291.86 636.04,-302.41 641.84,-293.54 635.04,-291.86"/>
</g>
<!-- Node2&#45;&gt;Node9 -->
<g id="edge21" class="edge">
<title>Node2&#45;&gt;Node9</title>
<path fill="none" stroke="midnightblue" d="M646.04,-293.57C650.72,-285.15 655.6,-275.37 659,-266 671.63,-231.22 676,-221.5 676,-184.5 676,-184.5 676,-184.5 676,-121 676,-83.19 676,-38.06 676,-19.56"/>
<polygon fill="midnightblue" stroke="midnightblue" points="642.9,-292.01 640.94,-302.42 648.97,-295.51 642.9,-292.01"/>
</g>
<!-- Node4 -->
<g id="node4" class="node">
<title>Node4</title>
<g id="a_node4"><a xlink:href="logger__internal_8hpp.html" target="_top" xlink:title="Internal logger subsystem implementation.">
<polygon fill="white" stroke="black" points="430,-168.5 430,-198.5 544,-198.5 544,-168.5 430,-168.5"/>
<text text-anchor="start" x="438" y="-186.5" font-family="Helvetica,sans-Serif" font-size="10.00">ntp/include/logger</text>
<text text-anchor="middle" x="487" y="-175.5" font-family="Helvetica,sans-Serif" font-size="10.00">/logger_internal.hpp</text>
</a>
</g>
</g>
<!-- Node3&#45;&gt;Node4 -->
<g id="edge3" class="edge">
<title>Node3&#45;&gt;Node4</title>
<path fill="none" stroke="midnightblue" d="M394.29,-230.85C414.85,-220.58 439.95,-208.03 458.85,-198.58"/>
<polygon fill="midnightblue" stroke="midnightblue" points="392.59,-227.79 385.21,-235.4 395.72,-234.05 392.59,-227.79"/>
</g>
<!-- Node5 -->
<g id="node5" class="node">
<title>Node5</title>
<g id="a_node5"><a xlink:href="basic__callback_8hpp.html" target="_top" xlink:title="Interfaces and base classes for callback wrappers.">
<polygon fill="white" stroke="black" points="250.5,-168.5 250.5,-198.5 373.5,-198.5 373.5,-168.5 250.5,-168.5"/>
<text text-anchor="start" x="258.5" y="-186.5" font-family="Helvetica,sans-Serif" font-size="10.00">ntp/include/pool/basic</text>
<text text-anchor="middle" x="312" y="-175.5" font-family="Helvetica,sans-Serif" font-size="10.00">_callback.hpp</text>
</a>
</g>
</g>
<!-- Node3&#45;&gt;Node5 -->
<g id="edge4" class="edge">
<title>Node3&#45;&gt;Node5</title>
<path fill="none" stroke="midnightblue" d="M341.53,-227.16C334.97,-217.68 327.52,-206.92 321.75,-198.58"/>
<polygon fill="midnightblue" stroke="midnightblue" points="338.67,-229.17 347.24,-235.4 344.42,-225.18 338.67,-229.17"/>
</g>
<!-- Node6 -->
<g id="node6" class="node">
<title>Node6</title>
<g id="a_node6"><a xlink:href="io_8hpp.html" target="_top" xlink:title="Implementation of threadpool IO callback.">
<polygon fill="white" stroke="black" points="482,-112.5 482,-131.5 610,-131.5 610,-112.5 482,-112.5"/>
<text text-anchor="middle" x="546" y="-119.5" font-family="Helvetica,sans-Serif" font-size="10.00">ntp/include/pool/io.hpp</text>
</a>
</g>
</g>
<!-- Node3&#45;&gt;Node6 -->
<g id="edge15" class="edge">
<title>Node3&#45;&gt;Node6</title>
<path fill="none" stroke="midnightblue" d="M420.73,-241.56C471.53,-233.76 536.76,-219.96 553,-199 568.42,-179.1 557.1,-146.88 550.23,-131.58"/>
<polygon fill="midnightblue" stroke="midnightblue" points="420.16,-238.1 410.78,-243.04 421.19,-245.03 420.16,-238.1"/>
</g>
<!-- Node10 -->
<g id="node10" class="node">
<title>Node10</title>
<g id="a_node10"><a xlink:href="timer_8hpp.html" target="_top" xlink:title="Implementation of threadpool timer callback.">
<polygon fill="white" stroke="black" points="0,-112.5 0,-131.5 144,-131.5 144,-112.5 0,-112.5"/>
<text text-anchor="middle" x="72" y="-119.5" font-family="Helvetica,sans-Serif" font-size="10.00">ntp/include/pool/timer.hpp</text>
</a>
</g>
</g>
<!-- Node3&#45;&gt;Node10 -->
<g id="edge16" class="edge">
<title>Node3&#45;&gt;Node10</title>
<path fill="none" stroke="midnightblue" d="M307.75,-231.88C282.98,-222.67 252.63,-210.86 226,-199 198.22,-186.63 192.24,-181.51 165,-168 138.97,-155.09 108.64,-140.5 89.88,-131.52"/>
<polygon fill="midnightblue" stroke="midnightblue" points="306.71,-235.22 317.3,-235.4 309.13,-228.65 306.71,-235.22"/>
</g>
<!-- Node11 -->
<g id="node11" class="node">
<title>Node11</title>
<g id="a_node11"><a xlink:href="wait_8hpp.html" target="_top" xlink:title="Implementation of threadpool wait callback.">
<polygon fill="white" stroke="black" points="162,-112.5 162,-131.5 302,-131.5 302,-112.5 162,-112.5"/>
<text text-anchor="middle" x="232" y="-119.5" font-family="Helvetica,sans-Serif" font-size="10.00">ntp/include/pool/wait.hpp</text>
</a>
</g>
</g>
<!-- Node3&#45;&gt;Node11 -->
<g id="edge17" class="edge">
<title>Node3&#45;&gt;Node11</title>
<path fill="none" stroke="midnightblue" d="M293.63,-235.27C273.83,-227.72 253.83,-216.27 241,-199 225.94,-178.74 228.28,-146.69 230.48,-131.51"/>
<polygon fill="midnightblue" stroke="midnightblue" points="292.71,-238.66 303.31,-238.68 295.04,-232.06 292.71,-238.66"/>
</g>
<!-- Node12 -->
<g id="node12" class="node">
<title>Node12</title>
<g id="a_node12"><a xlink:href="work_8hpp.html" target="_top" xlink:title="Work callback wrapper and manager implementation.">
<polygon fill="white" stroke="black" points="320.5,-112.5 320.5,-131.5 463.5,-131.5 463.5,-112.5 320.5,-112.5"/>
<text text-anchor="middle" x="392" y="-119.5" font-family="Helvetica,sans-Serif" font-size="10.00">ntp/include/pool/work.hpp</text>
</a>
</g>
</g>
<!-- Node3&#45;&gt;Node12 -->
<g id="edge18" class="edge">
<title>Node3&#45;&gt;Node12</title>
<path fill="none" stroke="midnightblue" d="M370.33,-226.59C374.69,-218.16 379.15,-208.38 382,-199 389.2,-175.32 391.22,-145.93 391.78,-131.63"/>
<polygon fill="midnightblue" stroke="midnightblue" points="367.22,-224.98 365.53,-235.44 373.38,-228.31 367.22,-224.98"/>
</g>
<!-- Node3&#45;&gt;Node13 -->
<g id="edge19" class="edge">
<title>Node3&#45;&gt;Node13</title>
<path fill="none" stroke="midnightblue" d="M293.6,-234.01C241.04,-221.16 168.31,-203.39 125.8,-193"/>
<polygon fill="midnightblue" stroke="midnightblue" points="292.95,-237.45 303.49,-236.42 294.61,-230.65 292.95,-237.45"/>
</g>
<!-- Node5&#45;&gt;Node6 -->
<g id="edge5" class="edge">
<title>Node5&#45;&gt;Node6</title>
<path fill="none" stroke="midnightblue" d="M376.92,-165.99C420.94,-154.8 477.31,-140.47 512.55,-131.51"/>
<polygon fill="midnightblue" stroke="midnightblue" points="375.99,-162.62 367.16,-168.47 377.71,-169.4 375.99,-162.62"/>
</g>
<!-- Node5&#45;&gt;Node10 -->
<g id="edge9" class="edge">
<title>Node5&#45;&gt;Node10</title>
<path fill="none" stroke="midnightblue" d="M245.7,-166.06C200.51,-154.86 142.53,-140.49 106.31,-131.51"/>
<polygon fill="midnightblue" stroke="midnightblue" points="244.88,-169.47 255.43,-168.47 246.56,-162.67 244.88,-169.47"/>
</g>
<!-- Node5&#45;&gt;Node11 -->
<g id="edge11" class="edge">
<title>Node5&#45;&gt;Node11</title>
<path fill="none" stroke="midnightblue" d="M284.69,-162.19C270.68,-151.77 254.36,-139.63 243.64,-131.66"/>
<polygon fill="midnightblue" stroke="midnightblue" points="282.93,-165.24 293.04,-168.4 287.11,-159.62 282.93,-165.24"/>
</g>
<!-- Node5&#45;&gt;Node12 -->
<g id="edge13" class="edge">
<title>Node5&#45;&gt;Node12</title>
<path fill="none" stroke="midnightblue" d="M339.31,-162.19C353.32,-151.77 369.64,-139.63 380.36,-131.66"/>
<polygon fill="midnightblue" stroke="midnightblue" points="336.89,-159.62 330.96,-168.4 341.07,-165.24 336.89,-159.62"/>
</g>
<!-- Node6&#45;&gt;Node7 -->
<g id="edge6" class="edge">
<title>Node6&#45;&gt;Node7</title>
<path fill="none" stroke="midnightblue" d="M523.55,-106.9C507.78,-97 487.19,-84.07 473.78,-75.65"/>
<polygon fill="midnightblue" stroke="midnightblue" points="521.85,-109.97 532.18,-112.32 525.57,-104.04 521.85,-109.97"/>
</g>
<!-- Node8 -->
<g id="node8" class="node">
<title>Node8</title>
<g id="a_node8"><a xlink:href="ntp_8hpp.html" target="_top" xlink:title="Main ntp library header.">
<polygon fill="white" stroke="black" points="405,-0.5 405,-19.5 515,-19.5 515,-0.5 405,-0.5"/>
<text text-anchor="middle" x="460" y="-7.5" font-family="Helvetica,sans-Serif" font-size="10.00">ntp/include/ntp.hpp</text>
</a>
</g>
</g>
<!-- Node7&#45;&gt;Node8 -->
<g id="edge7" class="edge">
<title>Node7&#45;&gt;Node8</title>
<path fill="none" stroke="midnightblue" d="M460,-45.8C460,-36.91 460,-26.78 460,-19.75"/>
<polygon fill="midnightblue" stroke="midnightblue" points="456.5,-46.08 460,-56.08 463.5,-46.08 456.5,-46.08"/>
</g>
<!-- Node7&#45;&gt;Node9 -->
<g id="edge8" class="edge">
<title>Node7&#45;&gt;Node9</title>
<path fill="none" stroke="midnightblue" d="M504.16,-53.96C544.96,-43.76 604.71,-28.82 641.93,-19.52"/>
<polygon fill="midnightblue" stroke="midnightblue" points="503.08,-50.62 494.23,-56.44 504.78,-57.41 503.08,-50.62"/>
</g>
<!-- Node10&#45;&gt;Node7 -->
<g id="edge10" class="edge">
<title>Node10&#45;&gt;Node7</title>
<path fill="none" stroke="midnightblue" d="M143.55,-111.04C216.83,-100.84 329.54,-85.16 398.81,-75.52"/>
<polygon fill="midnightblue" stroke="midnightblue" points="142.9,-107.6 133.48,-112.44 143.87,-114.53 142.9,-107.6"/>
</g>
<!-- Node11&#45;&gt;Node7 -->
<g id="edge12" class="edge">
<title>Node11&#45;&gt;Node7</title>
<path fill="none" stroke="midnightblue" d="M278.07,-110.09C321.15,-99.89 384.59,-84.86 424.04,-75.52"/>
<polygon fill="midnightblue" stroke="midnightblue" points="277.05,-106.73 268.13,-112.44 278.66,-113.54 277.05,-106.73"/>
</g>
<!-- Node12&#45;&gt;Node7 -->
<g id="edge14" class="edge">
<title>Node12&#45;&gt;Node7</title>
<path fill="none" stroke="midnightblue" d="M410.76,-106.1C423,-96.38 438.56,-84.03 448.88,-75.83"/>
<polygon fill="midnightblue" stroke="midnightblue" points="408.58,-103.36 402.93,-112.32 412.93,-108.85 408.58,-103.36"/>
</g>
</g>
</svg>
