<?xml version="1.0" encoding="UTF-8" standalone="no"?>
<!DOCTYPE svg PUBLIC "-//W3C//DTD SVG 1.1//EN"
 "http://www.w3.org/Graphics/SVG/1.1/DTD/svg11.dtd">
<!-- Generated by graphviz version 2.43.0 (0)
 -->
<!-- Title: Graphical Class Hierarchy Pages: 1 -->
<svg width="257pt" height="132pt"
 viewBox="0.00 0.00 257.00 132.00" xmlns="http://www.w3.org/2000/svg" xmlns:xlink="http://www.w3.org/1999/xlink">
<g id="graph0" class="graph" transform="scale(1 1) rotate(0) translate(4 128)">
<title>Graphical Class Hierarchy</title>
<!-- Node43 -->
<g id="node1" class="node">
<title>Node43</title>
<g id="a_node1"><a xlink:title=" ">
<polygon fill="none" stroke="#bfbfbf" points="0,-52 0,-71 84,-71 84,-52 0,-52"/>
<text text-anchor="middle" x="42" y="-59" font-family="Helvetica,sans-Serif" font-size="10.00">std::true_type</text>
</a>
</g>
</g>
<!-- Node0 -->
<g id="node2" class="node">
<title>Node0</title>
<g id="a_node2"><a xlink:href="structntp_1_1time_1_1details_1_1is__duration_3_01std_1_1chrono_1_1duration_3_01Rep_00_01Period_01_4_01_4.html" target="_top" xlink:title="Trait that detects std::chono::duration specializations.">
<polygon fill="none" stroke="black" points="120,-71.5 120,-123.5 249,-123.5 249,-71.5 120,-71.5"/>
<text text-anchor="start" x="128" y="-111.5" font-family="Helvetica,sans-Serif" font-size="10.00">ntp::time::details</text>
<text text-anchor="start" x="128" y="-100.5" font-family="Helvetica,sans-Serif" font-size="10.00">::is_duration&lt; std::</text>
<text text-anchor="start" x="128" y="-89.5" font-family="Helvetica,sans-Serif" font-size="10.00">chrono::duration&lt; Rep,</text>
<text text-anchor="middle" x="184.5" y="-78.5" font-family="Helvetica,sans-Serif" font-size="10.00"> Period &gt; &gt;</text>
</a>
</g>
</g>
<!-- Node43&#45;&gt;Node0 -->
<g id="edge1" class="edge">
<title>Node43&#45;&gt;Node0</title>
<path fill="none" stroke="midnightblue" d="M90.02,-73.55C99.63,-76.01 109.88,-78.64 119.96,-81.22"/>
<polygon fill="midnightblue" stroke="midnightblue" points="90.84,-70.14 80.28,-71.05 89.1,-76.93 90.84,-70.14"/>
</g>
<!-- Node45 -->
<g id="node3" class="node">
<title>Node45</title>
<g id="a_node3"><a xlink:href="structntp_1_1time_1_1details_1_1is__time__point_3_01std_1_1chrono_1_1time__point_3_01Clock_00_01Duration_01_4_01_4.html" target="_top" xlink:title="Trait that detects std::chono::time_point specializations.">
<polygon fill="none" stroke="black" points="122,-0.5 122,-52.5 247,-52.5 247,-0.5 122,-0.5"/>
<text text-anchor="start" x="130" y="-40.5" font-family="Helvetica,sans-Serif" font-size="10.00">ntp::time::details</text>
<text text-anchor="start" x="130" y="-29.5" font-family="Helvetica,sans-Serif" font-size="10.00">::is_time_point&lt; std</text>
<text text-anchor="start" x="130" y="-18.5" font-family="Helvetica,sans-Serif" font-size="10.00">::chrono::time_point</text>
<text text-anchor="middle" x="184.5" y="-7.5" font-family="Helvetica,sans-Serif" font-size="10.00">&lt; Clock, Duration &gt; &gt;</text>
</a>
</g>
</g>
<!-- Node43&#45;&gt;Node45 -->
<g id="edge2" class="edge">
<title>Node43&#45;&gt;Node45</title>
<path fill="none" stroke="midnightblue" d="M91.37,-49.45C101.21,-47 111.68,-44.39 121.9,-41.85"/>
<polygon fill="midnightblue" stroke="midnightblue" points="90.25,-46.12 81.39,-51.94 91.94,-52.92 90.25,-46.12"/>
</g>
</g>
</svg>
