<?xml version="1.0" encoding="UTF-8" standalone="no"?>
<!DOCTYPE svg PUBLIC "-//W3C//DTD SVG 1.1//EN"
 "http://www.w3.org/Graphics/SVG/1.1/DTD/svg11.dtd">
<!-- Generated by graphviz version 2.43.0 (0)
 -->
<!-- Title: ntp/include/pool/io.hpp Pages: 1 -->
<svg width="1089pt" height="308pt"
 viewBox="0.00 0.00 1089.00 308.00" xmlns="http://www.w3.org/2000/svg" xmlns:xlink="http://www.w3.org/1999/xlink">
<g id="graph0" class="graph" transform="scale(1 1) rotate(0) translate(4 304)">
<title>ntp/include/pool/io.hpp</title>
<!-- Node1 -->
<g id="node1" class="node">
<title>Node1</title>
<g id="a_node1"><a xlink:title="Implementation of threadpool IO callback.">
<polygon fill="#bfbfbf" stroke="black" points="193.5,-280.5 193.5,-299.5 321.5,-299.5 321.5,-280.5 193.5,-280.5"/>
<text text-anchor="middle" x="257.5" y="-287.5" font-family="Helvetica,sans-Serif" font-size="10.00">ntp/include/pool/io.hpp</text>
</a>
</g>
</g>
<!-- Node2 -->
<g id="node2" class="node">
<title>Node2</title>
<g id="a_node2"><a xlink:title=" ">
<polygon fill="none" stroke="#bfbfbf" points="0,-224.5 0,-243.5 41,-243.5 41,-224.5 0,-224.5"/>
<text text-anchor="middle" x="20.5" y="-231.5" font-family="Helvetica,sans-Serif" font-size="10.00">tuple</text>
</a>
</g>
</g>
<!-- Node1&#45;&gt;Node2 -->
<g id="edge1" class="edge">
<title>Node1&#45;&gt;Node2</title>
<path fill="none" stroke="midnightblue" d="M212.6,-280.47C172.44,-272.58 111.79,-260.01 50.82,-244.18"/>
<polygon fill="midnightblue" stroke="midnightblue" points="51.59,-240.77 41.03,-241.62 49.82,-247.54 51.59,-240.77"/>
</g>
<!-- Node3 -->
<g id="node3" class="node">
<title>Node3</title>
<g id="a_node3"><a xlink:title=" ">
<polygon fill="none" stroke="#bfbfbf" points="59,-224.5 59,-243.5 104,-243.5 104,-224.5 59,-224.5"/>
<text text-anchor="middle" x="81.5" y="-231.5" font-family="Helvetica,sans-Serif" font-size="10.00">utility</text>
</a>
</g>
</g>
<!-- Node1&#45;&gt;Node3 -->
<g id="edge2" class="edge">
<title>Node1&#45;&gt;Node3</title>
<path fill="none" stroke="midnightblue" d="M229.61,-280.44C198.17,-270.79 147.1,-255.13 113.91,-244.94"/>
<polygon fill="midnightblue" stroke="midnightblue" points="114.81,-241.56 104.22,-241.97 112.75,-248.25 114.81,-241.56"/>
</g>
<!-- Node4 -->
<g id="node4" class="node">
<title>Node4</title>
<g id="a_node4"><a xlink:href="ntp__config_8hpp_source.html" target="_top" xlink:title=" ">
<polygon fill="none" stroke="black" points="637.5,-56.5 637.5,-75.5 725.5,-75.5 725.5,-56.5 637.5,-56.5"/>
<text text-anchor="middle" x="681.5" y="-63.5" font-family="Helvetica,sans-Serif" font-size="10.00">ntp_config.hpp</text>
</a>
</g>
</g>
<!-- Node1&#45;&gt;Node4 -->
<g id="edge3" class="edge">
<title>Node1&#45;&gt;Node4</title>
<path fill="none" stroke="midnightblue" d="M321.67,-281.94C427.52,-269 632.06,-238.11 682.5,-188 707.06,-163.61 706.05,-145.99 699.5,-112 697.71,-102.7 694.02,-92.89 690.44,-84.8"/>
<polygon fill="midnightblue" stroke="midnightblue" points="693.56,-83.21 686.12,-75.66 687.23,-86.2 693.56,-83.21"/>
</g>
<!-- Node5 -->
<g id="node5" class="node">
<title>Node5</title>
<g id="a_node5"><a xlink:href="time_8hpp.html" target="_top" xlink:title="Utils to work with std::chrono.">
<polygon fill="none" stroke="black" points="130.5,-112.5 130.5,-131.5 226.5,-131.5 226.5,-112.5 130.5,-112.5"/>
<text text-anchor="middle" x="178.5" y="-119.5" font-family="Helvetica,sans-Serif" font-size="10.00">details/time.hpp</text>
</a>
</g>
</g>
<!-- Node1&#45;&gt;Node5 -->
<g id="edge4" class="edge">
<title>Node1&#45;&gt;Node5</title>
<path fill="none" stroke="midnightblue" d="M242.63,-280.47C218.15,-265.45 170.22,-231.69 151.5,-188 144.54,-171.76 154.06,-153.12 163.66,-139.98"/>
<polygon fill="midnightblue" stroke="midnightblue" points="166.64,-141.86 170.12,-131.86 161.16,-137.51 166.64,-141.86"/>
</g>
<!-- Node9 -->
<g id="node9" class="node">
<title>Node9</title>
<g id="a_node9"><a xlink:href="utils_8hpp.html" target="_top" xlink:title="Some useful implementation stuff.">
<polygon fill="none" stroke="black" points="748,-168.5 748,-187.5 843,-187.5 843,-168.5 748,-168.5"/>
<text text-anchor="middle" x="795.5" y="-175.5" font-family="Helvetica,sans-Serif" font-size="10.00">details/utils.hpp</text>
</a>
</g>
</g>
<!-- Node1&#45;&gt;Node9 -->
<g id="edge9" class="edge">
<title>Node1&#45;&gt;Node9</title>
<path fill="none" stroke="midnightblue" d="M321.51,-288.44C434.12,-286.56 662.46,-278.46 733.5,-244 755.35,-233.4 773.55,-211.66 784.46,-196.24"/>
<polygon fill="midnightblue" stroke="midnightblue" points="787.59,-197.86 790.28,-187.61 781.79,-193.95 787.59,-197.86"/>
</g>
<!-- Node17 -->
<g id="node17" class="node">
<title>Node17</title>
<g id="a_node17"><a xlink:href="basic__callback_8hpp.html" target="_top" xlink:title="Interfaces and base classes for callback wrappers.">
<polygon fill="none" stroke="black" points="351,-224.5 351,-243.5 484,-243.5 484,-224.5 351,-224.5"/>
<text text-anchor="middle" x="417.5" y="-231.5" font-family="Helvetica,sans-Serif" font-size="10.00">pool/basic_callback.hpp</text>
</a>
</g>
</g>
<!-- Node1&#45;&gt;Node17 -->
<g id="edge21" class="edge">
<title>Node1&#45;&gt;Node17</title>
<path fill="none" stroke="midnightblue" d="M282.85,-280.44C309.77,-271.36 352.5,-256.94 382.59,-246.78"/>
<polygon fill="midnightblue" stroke="midnightblue" points="383.91,-250.03 392.27,-243.52 381.67,-243.4 383.91,-250.03"/>
</g>
<!-- Node5&#45;&gt;Node4 -->
<g id="edge8" class="edge">
<title>Node5&#45;&gt;Node4</title>
<path fill="none" stroke="midnightblue" d="M226.73,-115.82C320.89,-105.71 528.61,-83.41 627.34,-72.81"/>
<polygon fill="midnightblue" stroke="midnightblue" points="627.83,-76.28 637.4,-71.73 627.08,-69.32 627.83,-76.28"/>
</g>
<!-- Node6 -->
<g id="node6" class="node">
<title>Node6</title>
<g id="a_node6"><a xlink:title=" ">
<polygon fill="none" stroke="#bfbfbf" points="570.5,-0.5 570.5,-19.5 640.5,-19.5 640.5,-0.5 570.5,-0.5"/>
<text text-anchor="middle" x="605.5" y="-7.5" font-family="Helvetica,sans-Serif" font-size="10.00">Windows.h</text>
</a>
</g>
</g>
<!-- Node5&#45;&gt;Node6 -->
<g id="edge5" class="edge">
<title>Node5&#45;&gt;Node6</title>
<path fill="none" stroke="midnightblue" d="M178.37,-112.22C178.69,-97.97 181.58,-70 198.5,-56 225.94,-33.29 459.85,-18.56 560.14,-13.23"/>
<polygon fill="midnightblue" stroke="midnightblue" points="560.47,-16.72 570.27,-12.7 560.1,-9.73 560.47,-16.72"/>
</g>
<!-- Node7 -->
<g id="node7" class="node">
<title>Node7</title>
<g id="a_node7"><a xlink:title=" ">
<polygon fill="none" stroke="#bfbfbf" points="207,-56.5 207,-75.5 246,-75.5 246,-56.5 207,-56.5"/>
<text text-anchor="middle" x="226.5" y="-63.5" font-family="Helvetica,sans-Serif" font-size="10.00">ratio</text>
</a>
</g>
</g>
<!-- Node5&#45;&gt;Node7 -->
<g id="edge6" class="edge">
<title>Node5&#45;&gt;Node7</title>
<path fill="none" stroke="midnightblue" d="M186.43,-112.08C193.35,-104.3 203.57,-92.8 211.95,-83.37"/>
<polygon fill="midnightblue" stroke="midnightblue" points="214.69,-85.55 218.72,-75.75 209.46,-80.9 214.69,-85.55"/>
</g>
<!-- Node8 -->
<g id="node8" class="node">
<title>Node8</title>
<g id="a_node8"><a xlink:title=" ">
<polygon fill="none" stroke="#bfbfbf" points="100.5,-56.5 100.5,-75.5 150.5,-75.5 150.5,-56.5 100.5,-56.5"/>
<text text-anchor="middle" x="125.5" y="-63.5" font-family="Helvetica,sans-Serif" font-size="10.00">chrono</text>
</a>
</g>
</g>
<!-- Node5&#45;&gt;Node8 -->
<g id="edge7" class="edge">
<title>Node5&#45;&gt;Node8</title>
<path fill="none" stroke="midnightblue" d="M169.75,-112.08C162.03,-104.22 150.6,-92.57 141.28,-83.08"/>
<polygon fill="midnightblue" stroke="midnightblue" points="143.59,-80.44 134.09,-75.75 138.6,-85.34 143.59,-80.44"/>
</g>
<!-- Node9&#45;&gt;Node4 -->
<g id="edge10" class="edge">
<title>Node9&#45;&gt;Node4</title>
<path fill="none" stroke="midnightblue" d="M787.73,-168.33C776.22,-155.63 753.82,-131.36 733.5,-112 722.7,-101.71 710.04,-90.74 699.93,-82.2"/>
<polygon fill="midnightblue" stroke="midnightblue" points="702.04,-79.41 692.12,-75.68 697.55,-84.78 702.04,-79.41"/>
</g>
<!-- Node10 -->
<g id="node10" class="node">
<title>Node10</title>
<g id="a_node10"><a xlink:href="ntrtl_8h.html" target="_top" xlink:title="Contains necessary declarations/definitions of internal windows objects and functions.">
<polygon fill="none" stroke="black" points="785.5,-112.5 785.5,-131.5 865.5,-131.5 865.5,-112.5 785.5,-112.5"/>
<text text-anchor="middle" x="825.5" y="-119.5" font-family="Helvetica,sans-Serif" font-size="10.00">native/ntrtl.h</text>
</a>
</g>
</g>
<!-- Node9&#45;&gt;Node10 -->
<g id="edge11" class="edge">
<title>Node9&#45;&gt;Node10</title>
<path fill="none" stroke="midnightblue" d="M800.45,-168.08C804.6,-160.61 810.65,-149.72 815.77,-140.52"/>
<polygon fill="midnightblue" stroke="midnightblue" points="818.84,-142.19 820.64,-131.75 812.72,-138.79 818.84,-142.19"/>
</g>
<!-- Node13 -->
<g id="node13" class="node">
<title>Node13</title>
<g id="a_node13"><a xlink:href="allocator_8hpp.html" target="_top" xlink:title="Allocator implementations.">
<polygon fill="none" stroke="black" points="883.5,-112.5 883.5,-131.5 999.5,-131.5 999.5,-112.5 883.5,-112.5"/>
<text text-anchor="middle" x="941.5" y="-119.5" font-family="Helvetica,sans-Serif" font-size="10.00">details/allocator.hpp</text>
</a>
</g>
</g>
<!-- Node9&#45;&gt;Node13 -->
<g id="edge14" class="edge">
<title>Node9&#45;&gt;Node13</title>
<path fill="none" stroke="midnightblue" d="M818.63,-168.44C842.98,-159.44 881.51,-145.19 908.92,-135.05"/>
<polygon fill="midnightblue" stroke="midnightblue" points="910.31,-138.27 918.47,-131.52 907.88,-131.7 910.31,-138.27"/>
</g>
<!-- Node11 -->
<g id="node11" class="node">
<title>Node11</title>
<g id="a_node11"><a xlink:title=" ">
<polygon fill="none" stroke="#bfbfbf" points="827.5,-56.5 827.5,-75.5 895.5,-75.5 895.5,-56.5 827.5,-56.5"/>
<text text-anchor="middle" x="861.5" y="-63.5" font-family="Helvetica,sans-Serif" font-size="10.00">windows.h</text>
</a>
</g>
</g>
<!-- Node10&#45;&gt;Node11 -->
<g id="edge12" class="edge">
<title>Node10&#45;&gt;Node11</title>
<path fill="none" stroke="midnightblue" d="M831.44,-112.08C836.48,-104.53 843.84,-93.49 850.01,-84.23"/>
<polygon fill="midnightblue" stroke="midnightblue" points="853.03,-86.01 855.67,-75.75 847.21,-82.13 853.03,-86.01"/>
</g>
<!-- Node12 -->
<g id="node12" class="node">
<title>Node12</title>
<g id="a_node12"><a xlink:title=" ">
<polygon fill="none" stroke="#bfbfbf" points="744,-56.5 744,-75.5 809,-75.5 809,-56.5 744,-56.5"/>
<text text-anchor="middle" x="776.5" y="-63.5" font-family="Helvetica,sans-Serif" font-size="10.00">winternl.h</text>
</a>
</g>
</g>
<!-- Node10&#45;&gt;Node12 -->
<g id="edge13" class="edge">
<title>Node10&#45;&gt;Node12</title>
<path fill="none" stroke="midnightblue" d="M817.41,-112.08C810.34,-104.3 799.91,-92.8 791.35,-83.37"/>
<polygon fill="midnightblue" stroke="midnightblue" points="793.75,-80.8 784.44,-75.75 788.57,-85.51 793.75,-80.8"/>
</g>
<!-- Node13&#45;&gt;Node4 -->
<g id="edge16" class="edge">
<title>Node13&#45;&gt;Node4</title>
<path fill="none" stroke="midnightblue" d="M900.3,-112.44C854.85,-103 781.66,-87.8 732.59,-77.61"/>
<polygon fill="midnightblue" stroke="midnightblue" points="733.01,-74.12 722.51,-75.52 731.58,-80.98 733.01,-74.12"/>
</g>
<!-- Node13&#45;&gt;Node6 -->
<g id="edge15" class="edge">
<title>Node13&#45;&gt;Node6</title>
<path fill="none" stroke="midnightblue" d="M939.18,-112.14C934.92,-97.79 924.42,-69.66 904.5,-56 864.17,-28.33 724.14,-17.1 650.92,-13.04"/>
<polygon fill="midnightblue" stroke="midnightblue" points="650.79,-9.52 640.62,-12.49 650.42,-16.51 650.79,-9.52"/>
</g>
<!-- Node14 -->
<g id="node14" class="node">
<title>Node14</title>
<g id="a_node14"><a xlink:href="exception_8hpp.html" target="_top" xlink:title="Win32 error wrapper implementations.">
<polygon fill="none" stroke="black" points="951.5,-56.5 951.5,-75.5 1073.5,-75.5 1073.5,-56.5 951.5,-56.5"/>
<text text-anchor="middle" x="1012.5" y="-63.5" font-family="Helvetica,sans-Serif" font-size="10.00">details/exception.hpp</text>
</a>
</g>
</g>
<!-- Node13&#45;&gt;Node14 -->
<g id="edge17" class="edge">
<title>Node13&#45;&gt;Node14</title>
<path fill="none" stroke="midnightblue" d="M952.91,-112.32C963.61,-104.18 979.84,-91.84 992.66,-82.09"/>
<polygon fill="midnightblue" stroke="midnightblue" points="995.04,-84.67 1000.89,-75.83 990.81,-79.1 995.04,-84.67"/>
</g>
<!-- Node14&#45;&gt;Node6 -->
<g id="edge18" class="edge">
<title>Node14&#45;&gt;Node6</title>
<path fill="none" stroke="midnightblue" d="M951.13,-56.86C868.69,-45.92 724.09,-26.73 650.81,-17.01"/>
<polygon fill="midnightblue" stroke="midnightblue" points="650.91,-13.49 640.53,-15.65 649.99,-20.43 650.91,-13.49"/>
</g>
<!-- Node15 -->
<g id="node15" class="node">
<title>Node15</title>
<g id="a_node15"><a xlink:title=" ">
<polygon fill="none" stroke="#bfbfbf" points="1016,-0.5 1016,-19.5 1081,-19.5 1081,-0.5 1016,-0.5"/>
<text text-anchor="middle" x="1048.5" y="-7.5" font-family="Helvetica,sans-Serif" font-size="10.00">stdexcept</text>
</a>
</g>
</g>
<!-- Node14&#45;&gt;Node15 -->
<g id="edge19" class="edge">
<title>Node14&#45;&gt;Node15</title>
<path fill="none" stroke="midnightblue" d="M1018.44,-56.08C1023.48,-48.53 1030.84,-37.49 1037.01,-28.23"/>
<polygon fill="midnightblue" stroke="midnightblue" points="1040.03,-30.01 1042.67,-19.75 1034.21,-26.13 1040.03,-30.01"/>
</g>
<!-- Node16 -->
<g id="node16" class="node">
<title>Node16</title>
<g id="a_node16"><a xlink:title=" ">
<polygon fill="none" stroke="#bfbfbf" points="953.5,-0.5 953.5,-19.5 997.5,-19.5 997.5,-0.5 953.5,-0.5"/>
<text text-anchor="middle" x="975.5" y="-7.5" font-family="Helvetica,sans-Serif" font-size="10.00">string</text>
</a>
</g>
</g>
<!-- Node14&#45;&gt;Node16 -->
<g id="edge20" class="edge">
<title>Node14&#45;&gt;Node16</title>
<path fill="none" stroke="midnightblue" d="M1006.39,-56.08C1001.22,-48.53 993.65,-37.49 987.31,-28.23"/>
<polygon fill="midnightblue" stroke="midnightblue" points="990.04,-26.02 981.5,-19.75 984.26,-29.98 990.04,-26.02"/>
</g>
<!-- Node17&#45;&gt;Node4 -->
<g id="edge29" class="edge">
<title>Node17&#45;&gt;Node4</title>
<path fill="none" stroke="midnightblue" d="M484.24,-229.26C548.13,-224.23 638.28,-212.86 662.5,-188 689.12,-160.68 687.76,-112.24 684.57,-85.69"/>
<polygon fill="midnightblue" stroke="midnightblue" points="688.03,-85.19 683.16,-75.78 681.1,-86.17 688.03,-85.19"/>
</g>
<!-- Node17&#45;&gt;Node6 -->
<g id="edge22" class="edge">
<title>Node17&#45;&gt;Node6</title>
<path fill="none" stroke="midnightblue" d="M360.25,-224.5C319.32,-215.68 274.56,-198.73 293.5,-168 352.32,-72.55 488.94,-33.08 560.29,-18.51"/>
<polygon fill="midnightblue" stroke="midnightblue" points="561.19,-21.91 570.32,-16.54 559.84,-15.04 561.19,-21.91"/>
</g>
<!-- Node17&#45;&gt;Node9 -->
<g id="edge30" class="edge">
<title>Node17&#45;&gt;Node9</title>
<path fill="none" stroke="midnightblue" d="M477.4,-224.44C548.83,-214.24 667.38,-197.3 737.82,-187.24"/>
<polygon fill="midnightblue" stroke="midnightblue" points="738.45,-190.69 747.85,-185.81 737.46,-183.76 738.45,-190.69"/>
</g>
<!-- Node18 -->
<g id="node18" class="node">
<title>Node18</title>
<g id="a_node18"><a xlink:title=" ">
<polygon fill="none" stroke="#bfbfbf" points="302.5,-168.5 302.5,-187.5 340.5,-187.5 340.5,-168.5 302.5,-168.5"/>
<text text-anchor="middle" x="321.5" y="-175.5" font-family="Helvetica,sans-Serif" font-size="10.00">map</text>
</a>
</g>
</g>
<!-- Node17&#45;&gt;Node18 -->
<g id="edge23" class="edge">
<title>Node17&#45;&gt;Node18</title>
<path fill="none" stroke="midnightblue" d="M402.08,-224.32C386.96,-215.82 363.68,-202.73 346.03,-192.8"/>
<polygon fill="midnightblue" stroke="midnightblue" points="347.32,-189.51 336.89,-187.65 343.89,-195.61 347.32,-189.51"/>
</g>
<!-- Node19 -->
<g id="node19" class="node">
<title>Node19</title>
<g id="a_node19"><a xlink:title=" ">
<polygon fill="none" stroke="#bfbfbf" points="358.5,-168.5 358.5,-187.5 406.5,-187.5 406.5,-168.5 358.5,-168.5"/>
<text text-anchor="middle" x="382.5" y="-175.5" font-family="Helvetica,sans-Serif" font-size="10.00">mutex</text>
</a>
</g>
</g>
<!-- Node17&#45;&gt;Node19 -->
<g id="edge24" class="edge">
<title>Node17&#45;&gt;Node19</title>
<path fill="none" stroke="midnightblue" d="M411.72,-224.08C406.83,-216.53 399.67,-205.49 393.67,-196.23"/>
<polygon fill="midnightblue" stroke="midnightblue" points="396.55,-194.24 388.17,-187.75 390.67,-198.05 396.55,-194.24"/>
</g>
<!-- Node20 -->
<g id="node20" class="node">
<title>Node20</title>
<g id="a_node20"><a xlink:title=" ">
<polygon fill="none" stroke="#bfbfbf" points="424.5,-168.5 424.5,-187.5 482.5,-187.5 482.5,-168.5 424.5,-168.5"/>
<text text-anchor="middle" x="453.5" y="-175.5" font-family="Helvetica,sans-Serif" font-size="10.00">memory</text>
</a>
</g>
</g>
<!-- Node17&#45;&gt;Node20 -->
<g id="edge25" class="edge">
<title>Node17&#45;&gt;Node20</title>
<path fill="none" stroke="midnightblue" d="M423.44,-224.08C428.48,-216.53 435.84,-205.49 442.01,-196.23"/>
<polygon fill="midnightblue" stroke="midnightblue" points="445.03,-198.01 447.67,-187.75 439.21,-194.13 445.03,-198.01"/>
</g>
<!-- Node21 -->
<g id="node21" class="node">
<title>Node21</title>
<g id="a_node21"><a xlink:title=" ">
<polygon fill="none" stroke="#bfbfbf" points="501,-168.5 501,-187.5 566,-187.5 566,-168.5 501,-168.5"/>
<text text-anchor="middle" x="533.5" y="-175.5" font-family="Helvetica,sans-Serif" font-size="10.00">functional</text>
</a>
</g>
</g>
<!-- Node17&#45;&gt;Node21 -->
<g id="edge26" class="edge">
<title>Node17&#45;&gt;Node21</title>
<path fill="none" stroke="midnightblue" d="M435.88,-224.44C454.72,-215.68 484.23,-201.94 505.88,-191.86"/>
<polygon fill="midnightblue" stroke="midnightblue" points="507.62,-194.91 515.21,-187.52 504.66,-188.56 507.62,-194.91"/>
</g>
<!-- Node22 -->
<g id="node22" class="node">
<title>Node22</title>
<g id="a_node22"><a xlink:title=" ">
<polygon fill="none" stroke="#bfbfbf" points="584,-168.5 584,-187.5 653,-187.5 653,-168.5 584,-168.5"/>
<text text-anchor="middle" x="618.5" y="-175.5" font-family="Helvetica,sans-Serif" font-size="10.00">type_traits</text>
</a>
</g>
</g>
<!-- Node17&#45;&gt;Node22 -->
<g id="edge27" class="edge">
<title>Node17&#45;&gt;Node22</title>
<path fill="none" stroke="midnightblue" d="M449.35,-224.44C483.9,-215.16 539.18,-200.31 577.08,-190.13"/>
<polygon fill="midnightblue" stroke="midnightblue" points="578.05,-193.49 586.8,-187.52 576.23,-186.73 578.05,-193.49"/>
</g>
<!-- Node23 -->
<g id="node23" class="node">
<title>Node23</title>
<g id="a_node23"><a xlink:title=" ">
<polygon fill="none" stroke="#bfbfbf" points="160.5,-168.5 160.5,-187.5 246.5,-187.5 246.5,-168.5 160.5,-168.5"/>
<text text-anchor="middle" x="203.5" y="-175.5" font-family="Helvetica,sans-Serif" font-size="10.00">shared_mutex</text>
</a>
</g>
</g>
<!-- Node17&#45;&gt;Node23 -->
<g id="edge28" class="edge">
<title>Node17&#45;&gt;Node23</title>
<path fill="none" stroke="midnightblue" d="M383.59,-224.44C346.65,-215.12 287.45,-200.18 247.08,-190"/>
<polygon fill="midnightblue" stroke="midnightblue" points="247.8,-186.57 237.25,-187.52 246.09,-193.36 247.8,-186.57"/>
</g>
</g>
</svg>
