<?xml version="1.0" encoding="UTF-8" standalone="no"?>
<!DOCTYPE svg PUBLIC "-//W3C//DTD SVG 1.1//EN"
 "http://www.w3.org/Graphics/SVG/1.1/DTD/svg11.dtd">
<!-- Generated by graphviz version 2.43.0 (0)
 -->
<!-- Title: ntp/include/pool/io.hpp Pages: 1 -->
<svg width="1086pt" height="364pt"
 viewBox="0.00 0.00 1085.50 364.00" xmlns="http://www.w3.org/2000/svg" xmlns:xlink="http://www.w3.org/1999/xlink">
<g id="graph0" class="graph" transform="scale(1 1) rotate(0) translate(4 360)">
<title>ntp/include/pool/io.hpp</title>
<!-- Node1 -->
<g id="node1" class="node">
<title>Node1</title>
<g id="a_node1"><a xlink:title="Implementation of threadpool IO callback.">
<polygon fill="#bfbfbf" stroke="black" points="115.5,-336.5 115.5,-355.5 243.5,-355.5 243.5,-336.5 115.5,-336.5"/>
<text text-anchor="middle" x="179.5" y="-343.5" font-family="Helvetica,sans-Serif" font-size="10.00">ntp/include/pool/io.hpp</text>
</a>
</g>
</g>
<!-- Node2 -->
<g id="node2" class="node">
<title>Node2</title>
<g id="a_node2"><a xlink:title=" ">
<polygon fill="none" stroke="#bfbfbf" points="0,-280.5 0,-299.5 41,-299.5 41,-280.5 0,-280.5"/>
<text text-anchor="middle" x="20.5" y="-287.5" font-family="Helvetica,sans-Serif" font-size="10.00">tuple</text>
</a>
</g>
</g>
<!-- Node1&#45;&gt;Node2 -->
<g id="edge1" class="edge">
<title>Node1&#45;&gt;Node2</title>
<path fill="none" stroke="midnightblue" d="M154.31,-336.44C126.14,-326.88 80.56,-311.4 50.56,-301.21"/>
<polygon fill="midnightblue" stroke="midnightblue" points="51.62,-297.87 41.03,-297.97 49.37,-304.5 51.62,-297.87"/>
</g>
<!-- Node3 -->
<g id="node3" class="node">
<title>Node3</title>
<g id="a_node3"><a xlink:title=" ">
<polygon fill="none" stroke="#bfbfbf" points="59,-280.5 59,-299.5 104,-299.5 104,-280.5 59,-280.5"/>
<text text-anchor="middle" x="81.5" y="-287.5" font-family="Helvetica,sans-Serif" font-size="10.00">utility</text>
</a>
</g>
</g>
<!-- Node1&#45;&gt;Node3 -->
<g id="edge2" class="edge">
<title>Node1&#45;&gt;Node3</title>
<path fill="none" stroke="midnightblue" d="M163.75,-336.32C148.18,-327.74 124.12,-314.49 106.04,-304.52"/>
<polygon fill="midnightblue" stroke="midnightblue" points="107.65,-301.42 97.21,-299.65 104.28,-307.55 107.65,-301.42"/>
</g>
<!-- Node4 -->
<g id="node4" class="node">
<title>Node4</title>
<g id="a_node4"><a xlink:href="ntp__config_8hpp_source.html" target="_top" xlink:title=" ">
<polygon fill="none" stroke="black" points="126.5,-0.5 126.5,-19.5 214.5,-19.5 214.5,-0.5 126.5,-0.5"/>
<text text-anchor="middle" x="170.5" y="-7.5" font-family="Helvetica,sans-Serif" font-size="10.00">ntp_config.hpp</text>
</a>
</g>
</g>
<!-- Node1&#45;&gt;Node4 -->
<g id="edge3" class="edge">
<title>Node1&#45;&gt;Node4</title>
<path fill="none" stroke="midnightblue" d="M172.96,-336.41C160.05,-318.56 132.5,-275.7 132.5,-235 132.5,-235 132.5,-235 132.5,-121 132.5,-86.81 149.1,-49.76 160.36,-28.57"/>
<polygon fill="midnightblue" stroke="midnightblue" points="163.45,-30.22 165.22,-19.77 157.32,-26.83 163.45,-30.22"/>
</g>
<!-- Node5 -->
<g id="node5" class="node">
<title>Node5</title>
<g id="a_node5"><a xlink:href="time_8hpp.html" target="_top" xlink:title="Utils to work with std::chrono.">
<polygon fill="none" stroke="black" points="178.5,-280.5 178.5,-299.5 274.5,-299.5 274.5,-280.5 178.5,-280.5"/>
<text text-anchor="middle" x="226.5" y="-287.5" font-family="Helvetica,sans-Serif" font-size="10.00">details/time.hpp</text>
</a>
</g>
</g>
<!-- Node1&#45;&gt;Node5 -->
<g id="edge4" class="edge">
<title>Node1&#45;&gt;Node5</title>
<path fill="none" stroke="midnightblue" d="M187.26,-336.08C194.04,-328.3 204.04,-316.8 212.26,-307.37"/>
<polygon fill="midnightblue" stroke="midnightblue" points="214.96,-309.59 218.88,-299.75 209.68,-305 214.96,-309.59"/>
</g>
<!-- Node10 -->
<g id="node10" class="node">
<title>Node10</title>
<g id="a_node10"><a xlink:href="utils_8hpp.html" target="_top" xlink:title="Some useful implementation stuff.">
<polygon fill="none" stroke="black" points="287,-224.5 287,-243.5 382,-243.5 382,-224.5 287,-224.5"/>
<text text-anchor="middle" x="334.5" y="-231.5" font-family="Helvetica,sans-Serif" font-size="10.00">details/utils.hpp</text>
</a>
</g>
</g>
<!-- Node1&#45;&gt;Node10 -->
<g id="edge10" class="edge">
<title>Node1&#45;&gt;Node10</title>
<path fill="none" stroke="midnightblue" d="M209.38,-336.48C231.38,-329.21 261.22,-317.18 283.5,-300 300.48,-286.9 315.02,-266.94 324.18,-252.59"/>
<polygon fill="midnightblue" stroke="midnightblue" points="327.38,-254.06 329.63,-243.71 321.42,-250.4 327.38,-254.06"/>
</g>
<!-- Node18 -->
<g id="node18" class="node">
<title>Node18</title>
<g id="a_node18"><a xlink:href="basic__callback_8hpp.html" target="_top" xlink:title="Interfaces and base classes for callback wrappers.">
<polygon fill="none" stroke="black" points="636,-280.5 636,-299.5 769,-299.5 769,-280.5 636,-280.5"/>
<text text-anchor="middle" x="702.5" y="-287.5" font-family="Helvetica,sans-Serif" font-size="10.00">pool/basic_callback.hpp</text>
</a>
</g>
</g>
<!-- Node1&#45;&gt;Node18 -->
<g id="edge21" class="edge">
<title>Node1&#45;&gt;Node18</title>
<path fill="none" stroke="midnightblue" d="M243.63,-338.38C340.11,-328.42 522.3,-309.61 625.72,-298.93"/>
<polygon fill="midnightblue" stroke="midnightblue" points="626.19,-302.4 635.78,-297.89 625.47,-295.43 626.19,-302.4"/>
</g>
<!-- Node6 -->
<g id="node6" class="node">
<title>Node6</title>
<g id="a_node6"><a xlink:title=" ">
<polygon fill="none" stroke="#bfbfbf" points="161,-224.5 161,-243.5 200,-243.5 200,-224.5 161,-224.5"/>
<text text-anchor="middle" x="180.5" y="-231.5" font-family="Helvetica,sans-Serif" font-size="10.00">ratio</text>
</a>
</g>
</g>
<!-- Node5&#45;&gt;Node6 -->
<g id="edge5" class="edge">
<title>Node5&#45;&gt;Node6</title>
<path fill="none" stroke="midnightblue" d="M218.9,-280.08C212.27,-272.3 202.48,-260.8 194.44,-251.37"/>
<polygon fill="midnightblue" stroke="midnightblue" points="197.1,-249.09 187.95,-243.75 191.77,-253.63 197.1,-249.09"/>
</g>
<!-- Node7 -->
<g id="node7" class="node">
<title>Node7</title>
<g id="a_node7"><a xlink:title=" ">
<polygon fill="none" stroke="#bfbfbf" points="218.5,-224.5 218.5,-243.5 268.5,-243.5 268.5,-224.5 218.5,-224.5"/>
<text text-anchor="middle" x="243.5" y="-231.5" font-family="Helvetica,sans-Serif" font-size="10.00">chrono</text>
</a>
</g>
</g>
<!-- Node5&#45;&gt;Node7 -->
<g id="edge6" class="edge">
<title>Node5&#45;&gt;Node7</title>
<path fill="none" stroke="midnightblue" d="M229.31,-280.08C231.58,-272.85 234.87,-262.41 237.71,-253.4"/>
<polygon fill="midnightblue" stroke="midnightblue" points="241.08,-254.34 240.75,-243.75 234.4,-252.24 241.08,-254.34"/>
</g>
<!-- Node8 -->
<g id="node8" class="node">
<title>Node8</title>
<g id="a_node8"><a xlink:href="windows_8hpp_source.html" target="_top" xlink:title=" ">
<polygon fill="none" stroke="black" points="469.5,-56.5 469.5,-75.5 585.5,-75.5 585.5,-56.5 469.5,-56.5"/>
<text text-anchor="middle" x="527.5" y="-63.5" font-family="Helvetica,sans-Serif" font-size="10.00">details/windows.hpp</text>
</a>
</g>
</g>
<!-- Node5&#45;&gt;Node8 -->
<g id="edge7" class="edge">
<title>Node5&#45;&gt;Node8</title>
<path fill="none" stroke="midnightblue" d="M274.55,-284.56C335.56,-276.31 439.91,-253.02 498.5,-188 524.32,-159.34 528.23,-111.79 528.23,-85.65"/>
<polygon fill="midnightblue" stroke="midnightblue" points="531.73,-85.51 528.04,-75.58 524.73,-85.64 531.73,-85.51"/>
</g>
<!-- Node8&#45;&gt;Node4 -->
<g id="edge8" class="edge">
<title>Node8&#45;&gt;Node4</title>
<path fill="none" stroke="midnightblue" d="M470.93,-56.44C403.47,-46.24 291.49,-29.3 224.96,-19.24"/>
<polygon fill="midnightblue" stroke="midnightblue" points="225.1,-15.72 214.69,-17.68 224.06,-22.64 225.1,-15.72"/>
</g>
<!-- Node9 -->
<g id="node9" class="node">
<title>Node9</title>
<g id="a_node9"><a xlink:title=" ">
<polygon fill="none" stroke="#bfbfbf" points="492.5,-0.5 492.5,-19.5 562.5,-19.5 562.5,-0.5 492.5,-0.5"/>
<text text-anchor="middle" x="527.5" y="-7.5" font-family="Helvetica,sans-Serif" font-size="10.00">Windows.h</text>
</a>
</g>
</g>
<!-- Node8&#45;&gt;Node9 -->
<g id="edge9" class="edge">
<title>Node8&#45;&gt;Node9</title>
<path fill="none" stroke="midnightblue" d="M527.5,-56.08C527.5,-49.01 527.5,-38.86 527.5,-29.99"/>
<polygon fill="midnightblue" stroke="midnightblue" points="531,-29.75 527.5,-19.75 524,-29.75 531,-29.75"/>
</g>
<!-- Node10&#45;&gt;Node4 -->
<g id="edge11" class="edge">
<title>Node10&#45;&gt;Node4</title>
<path fill="none" stroke="midnightblue" d="M312.19,-224.39C279.29,-210.42 218.55,-179.5 189.5,-132 169.97,-100.07 168.32,-54.83 169.19,-29.69"/>
<polygon fill="midnightblue" stroke="midnightblue" points="172.68,-29.85 169.71,-19.68 165.69,-29.48 172.68,-29.85"/>
</g>
<!-- Node11 -->
<g id="node11" class="node">
<title>Node11</title>
<g id="a_node11"><a xlink:href="ntrtl_8h.html" target="_top" xlink:title="Contains necessary declarations/definitions of internal windows objects and functions.">
<polygon fill="none" stroke="black" points="275.5,-168.5 275.5,-187.5 355.5,-187.5 355.5,-168.5 275.5,-168.5"/>
<text text-anchor="middle" x="315.5" y="-175.5" font-family="Helvetica,sans-Serif" font-size="10.00">native/ntrtl.h</text>
</a>
</g>
</g>
<!-- Node10&#45;&gt;Node11 -->
<g id="edge12" class="edge">
<title>Node10&#45;&gt;Node11</title>
<path fill="none" stroke="midnightblue" d="M331.36,-224.08C328.82,-216.85 325.14,-206.41 321.97,-197.4"/>
<polygon fill="midnightblue" stroke="midnightblue" points="325.2,-196.02 318.58,-187.75 318.6,-198.35 325.2,-196.02"/>
</g>
<!-- Node14 -->
<g id="node14" class="node">
<title>Node14</title>
<g id="a_node14"><a xlink:href="allocator_8hpp.html" target="_top" xlink:title="Allocator implementations.">
<polygon fill="none" stroke="black" points="373.5,-168.5 373.5,-187.5 489.5,-187.5 489.5,-168.5 373.5,-168.5"/>
<text text-anchor="middle" x="431.5" y="-175.5" font-family="Helvetica,sans-Serif" font-size="10.00">details/allocator.hpp</text>
</a>
</g>
</g>
<!-- Node10&#45;&gt;Node14 -->
<g id="edge15" class="edge">
<title>Node10&#45;&gt;Node14</title>
<path fill="none" stroke="midnightblue" d="M350.08,-224.32C365.5,-215.74 389.31,-202.49 407.21,-192.52"/>
<polygon fill="midnightblue" stroke="midnightblue" points="408.92,-195.58 415.95,-187.65 405.51,-189.46 408.92,-195.58"/>
</g>
<!-- Node12 -->
<g id="node12" class="node">
<title>Node12</title>
<g id="a_node12"><a xlink:title=" ">
<polygon fill="none" stroke="#bfbfbf" points="198.5,-112.5 198.5,-131.5 266.5,-131.5 266.5,-112.5 198.5,-112.5"/>
<text text-anchor="middle" x="232.5" y="-119.5" font-family="Helvetica,sans-Serif" font-size="10.00">windows.h</text>
</a>
</g>
</g>
<!-- Node11&#45;&gt;Node12 -->
<g id="edge13" class="edge">
<title>Node11&#45;&gt;Node12</title>
<path fill="none" stroke="midnightblue" d="M302.16,-168.32C289.34,-159.98 269.72,-147.21 254.56,-137.35"/>
<polygon fill="midnightblue" stroke="midnightblue" points="256.09,-134.17 245.8,-131.65 252.28,-140.04 256.09,-134.17"/>
</g>
<!-- Node13 -->
<g id="node13" class="node">
<title>Node13</title>
<g id="a_node13"><a xlink:title=" ">
<polygon fill="none" stroke="#bfbfbf" points="285,-112.5 285,-131.5 350,-131.5 350,-112.5 285,-112.5"/>
<text text-anchor="middle" x="317.5" y="-119.5" font-family="Helvetica,sans-Serif" font-size="10.00">winternl.h</text>
</a>
</g>
</g>
<!-- Node11&#45;&gt;Node13 -->
<g id="edge14" class="edge">
<title>Node11&#45;&gt;Node13</title>
<path fill="none" stroke="midnightblue" d="M315.83,-168.08C316.09,-161.01 316.47,-150.86 316.8,-141.99"/>
<polygon fill="midnightblue" stroke="midnightblue" points="320.3,-141.87 317.18,-131.75 313.31,-141.61 320.3,-141.87"/>
</g>
<!-- Node14&#45;&gt;Node8 -->
<g id="edge20" class="edge">
<title>Node14&#45;&gt;Node8</title>
<path fill="none" stroke="midnightblue" d="M450.12,-168.47C465.15,-160.77 485.97,-148.18 499.5,-132 510.82,-118.46 518.25,-99.66 522.59,-85.76"/>
<polygon fill="midnightblue" stroke="midnightblue" points="526.04,-86.43 525.43,-75.85 519.31,-84.5 526.04,-86.43"/>
</g>
<!-- Node15 -->
<g id="node15" class="node">
<title>Node15</title>
<g id="a_node15"><a xlink:href="exception_8hpp.html" target="_top" xlink:title="Win32 error wrapper implementations.">
<polygon fill="none" stroke="black" points="368.5,-112.5 368.5,-131.5 490.5,-131.5 490.5,-112.5 368.5,-112.5"/>
<text text-anchor="middle" x="429.5" y="-119.5" font-family="Helvetica,sans-Serif" font-size="10.00">details/exception.hpp</text>
</a>
</g>
</g>
<!-- Node14&#45;&gt;Node15 -->
<g id="edge16" class="edge">
<title>Node14&#45;&gt;Node15</title>
<path fill="none" stroke="midnightblue" d="M431.17,-168.08C430.91,-161.01 430.53,-150.86 430.2,-141.99"/>
<polygon fill="midnightblue" stroke="midnightblue" points="433.69,-141.61 429.82,-131.75 426.7,-141.87 433.69,-141.61"/>
</g>
<!-- Node15&#45;&gt;Node8 -->
<g id="edge19" class="edge">
<title>Node15&#45;&gt;Node8</title>
<path fill="none" stroke="midnightblue" d="M445.25,-112.32C460.82,-103.74 484.88,-90.49 502.96,-80.52"/>
<polygon fill="midnightblue" stroke="midnightblue" points="504.72,-83.55 511.79,-75.65 501.35,-77.42 504.72,-83.55"/>
</g>
<!-- Node16 -->
<g id="node16" class="node">
<title>Node16</title>
<g id="a_node16"><a xlink:title=" ">
<polygon fill="none" stroke="#bfbfbf" points="324,-56.5 324,-75.5 389,-75.5 389,-56.5 324,-56.5"/>
<text text-anchor="middle" x="356.5" y="-63.5" font-family="Helvetica,sans-Serif" font-size="10.00">stdexcept</text>
</a>
</g>
</g>
<!-- Node15&#45;&gt;Node16 -->
<g id="edge17" class="edge">
<title>Node15&#45;&gt;Node16</title>
<path fill="none" stroke="midnightblue" d="M417.77,-112.32C406.66,-104.11 389.76,-91.6 376.52,-81.81"/>
<polygon fill="midnightblue" stroke="midnightblue" points="378.56,-78.97 368.44,-75.83 374.4,-84.59 378.56,-78.97"/>
</g>
<!-- Node17 -->
<g id="node17" class="node">
<title>Node17</title>
<g id="a_node17"><a xlink:title=" ">
<polygon fill="none" stroke="#bfbfbf" points="407.5,-56.5 407.5,-75.5 451.5,-75.5 451.5,-56.5 407.5,-56.5"/>
<text text-anchor="middle" x="429.5" y="-63.5" font-family="Helvetica,sans-Serif" font-size="10.00">string</text>
</a>
</g>
</g>
<!-- Node15&#45;&gt;Node17 -->
<g id="edge18" class="edge">
<title>Node15&#45;&gt;Node17</title>
<path fill="none" stroke="midnightblue" d="M429.5,-112.08C429.5,-105.01 429.5,-94.86 429.5,-85.99"/>
<polygon fill="midnightblue" stroke="midnightblue" points="433,-85.75 429.5,-75.75 426,-85.75 433,-85.75"/>
</g>
<!-- Node18&#45;&gt;Node8 -->
<g id="edge28" class="edge">
<title>Node18&#45;&gt;Node8</title>
<path fill="none" stroke="midnightblue" d="M672.27,-280.39C652.99,-273.46 628.83,-261.88 613.5,-244 573.34,-197.16 602.16,-164.96 570.5,-112 563.95,-101.04 554.27,-90.6 545.76,-82.55"/>
<polygon fill="midnightblue" stroke="midnightblue" points="547.86,-79.72 538.1,-75.61 543.17,-84.92 547.86,-79.72"/>
</g>
<!-- Node18&#45;&gt;Node10 -->
<g id="edge29" class="edge">
<title>Node18&#45;&gt;Node10</title>
<path fill="none" stroke="midnightblue" d="M644.19,-280.44C575.18,-270.32 460.98,-253.56 392.22,-243.47"/>
<polygon fill="midnightblue" stroke="midnightblue" points="392.41,-239.96 382.01,-241.97 391.39,-246.89 392.41,-239.96"/>
</g>
<!-- Node19 -->
<g id="node19" class="node">
<title>Node19</title>
<g id="a_node19"><a xlink:title=" ">
<polygon fill="none" stroke="#bfbfbf" points="622.5,-224.5 622.5,-243.5 660.5,-243.5 660.5,-224.5 622.5,-224.5"/>
<text text-anchor="middle" x="641.5" y="-231.5" font-family="Helvetica,sans-Serif" font-size="10.00">map</text>
</a>
</g>
</g>
<!-- Node18&#45;&gt;Node19 -->
<g id="edge22" class="edge">
<title>Node18&#45;&gt;Node19</title>
<path fill="none" stroke="midnightblue" d="M692.7,-280.32C683.68,-272.34 670.09,-260.31 659.18,-250.65"/>
<polygon fill="midnightblue" stroke="midnightblue" points="661.29,-247.84 651.48,-243.83 656.65,-253.08 661.29,-247.84"/>
</g>
<!-- Node20 -->
<g id="node20" class="node">
<title>Node20</title>
<g id="a_node20"><a xlink:title=" ">
<polygon fill="none" stroke="#bfbfbf" points="678.5,-224.5 678.5,-243.5 726.5,-243.5 726.5,-224.5 678.5,-224.5"/>
<text text-anchor="middle" x="702.5" y="-231.5" font-family="Helvetica,sans-Serif" font-size="10.00">mutex</text>
</a>
</g>
</g>
<!-- Node18&#45;&gt;Node20 -->
<g id="edge23" class="edge">
<title>Node18&#45;&gt;Node20</title>
<path fill="none" stroke="midnightblue" d="M702.5,-280.08C702.5,-273.01 702.5,-262.86 702.5,-253.99"/>
<polygon fill="midnightblue" stroke="midnightblue" points="706,-253.75 702.5,-243.75 699,-253.75 706,-253.75"/>
</g>
<!-- Node21 -->
<g id="node21" class="node">
<title>Node21</title>
<g id="a_node21"><a xlink:title=" ">
<polygon fill="none" stroke="#bfbfbf" points="744.5,-224.5 744.5,-243.5 802.5,-243.5 802.5,-224.5 744.5,-224.5"/>
<text text-anchor="middle" x="773.5" y="-231.5" font-family="Helvetica,sans-Serif" font-size="10.00">memory</text>
</a>
</g>
</g>
<!-- Node18&#45;&gt;Node21 -->
<g id="edge24" class="edge">
<title>Node18&#45;&gt;Node21</title>
<path fill="none" stroke="midnightblue" d="M713.91,-280.32C724.61,-272.18 740.84,-259.84 753.66,-250.09"/>
<polygon fill="midnightblue" stroke="midnightblue" points="756.04,-252.67 761.89,-243.83 751.81,-247.1 756.04,-252.67"/>
</g>
<!-- Node22 -->
<g id="node22" class="node">
<title>Node22</title>
<g id="a_node22"><a xlink:title=" ">
<polygon fill="none" stroke="#bfbfbf" points="821,-224.5 821,-243.5 886,-243.5 886,-224.5 821,-224.5"/>
<text text-anchor="middle" x="853.5" y="-231.5" font-family="Helvetica,sans-Serif" font-size="10.00">functional</text>
</a>
</g>
</g>
<!-- Node18&#45;&gt;Node22 -->
<g id="edge25" class="edge">
<title>Node18&#45;&gt;Node22</title>
<path fill="none" stroke="midnightblue" d="M726.43,-280.44C751.72,-271.4 791.8,-257.06 820.18,-246.92"/>
<polygon fill="midnightblue" stroke="midnightblue" points="821.45,-250.18 829.69,-243.52 819.09,-243.59 821.45,-250.18"/>
</g>
<!-- Node23 -->
<g id="node23" class="node">
<title>Node23</title>
<g id="a_node23"><a xlink:title=" ">
<polygon fill="none" stroke="#bfbfbf" points="904,-224.5 904,-243.5 973,-243.5 973,-224.5 904,-224.5"/>
<text text-anchor="middle" x="938.5" y="-231.5" font-family="Helvetica,sans-Serif" font-size="10.00">type_traits</text>
</a>
</g>
</g>
<!-- Node18&#45;&gt;Node23 -->
<g id="edge26" class="edge">
<title>Node18&#45;&gt;Node23</title>
<path fill="none" stroke="midnightblue" d="M739.89,-280.44C781.74,-270.87 849.48,-255.37 894.01,-245.18"/>
<polygon fill="midnightblue" stroke="midnightblue" points="895,-248.54 903.97,-242.9 893.44,-241.72 895,-248.54"/>
</g>
<!-- Node24 -->
<g id="node24" class="node">
<title>Node24</title>
<g id="a_node24"><a xlink:title=" ">
<polygon fill="none" stroke="#bfbfbf" points="991.5,-224.5 991.5,-243.5 1077.5,-243.5 1077.5,-224.5 991.5,-224.5"/>
<text text-anchor="middle" x="1034.5" y="-231.5" font-family="Helvetica,sans-Serif" font-size="10.00">shared_mutex</text>
</a>
</g>
</g>
<!-- Node18&#45;&gt;Node24 -->
<g id="edge27" class="edge">
<title>Node18&#45;&gt;Node24</title>
<path fill="none" stroke="midnightblue" d="M756.73,-280.48C811.01,-271.91 897.2,-258.18 981.39,-244.17"/>
<polygon fill="midnightblue" stroke="midnightblue" points="982.09,-247.6 991.38,-242.5 980.94,-240.7 982.09,-247.6"/>
</g>
</g>
</svg>
