<?xml version="1.0" encoding="UTF-8" standalone="no"?>
<!DOCTYPE svg PUBLIC "-//W3C//DTD SVG 1.1//EN"
 "http://www.w3.org/Graphics/SVG/1.1/DTD/svg11.dtd">
<!-- Generated by graphviz version 2.43.0 (0)
 -->
<!-- Title: ntp/include/pool/io.hpp Pages: 1 -->
<svg width="286pt" height="140pt"
 viewBox="0.00 0.00 285.50 140.00" xmlns="http://www.w3.org/2000/svg" xmlns:xlink="http://www.w3.org/1999/xlink">
<g id="graph0" class="graph" transform="scale(1 1) rotate(0) translate(4 136)">
<title>ntp/include/pool/io.hpp</title>
<polygon fill="white" stroke="transparent" points="-4,4 -4,-136 281.5,-136 281.5,4 -4,4"/>
<!-- Node1 -->
<g id="node1" class="node">
<title>Node1</title>
<g id="a_node1"><a xlink:title="Implementation of threadpool IO callback.">
<polygon fill="#bfbfbf" stroke="black" points="65,-112.5 65,-131.5 193,-131.5 193,-112.5 65,-112.5"/>
<text text-anchor="middle" x="129" y="-119.5" font-family="Helvetica,sans-Serif" font-size="10.00">ntp/include/pool/io.hpp</text>
</a>
</g>
</g>
<!-- Node2 -->
<g id="node2" class="node">
<title>Node2</title>
<g id="a_node2"><a xlink:href="threadpool_8hpp.html" target="_top" xlink:title="Threadpool implementations.">
<polygon fill="white" stroke="black" points="43.5,-56.5 43.5,-75.5 214.5,-75.5 214.5,-56.5 43.5,-56.5"/>
<text text-anchor="middle" x="129" y="-63.5" font-family="Helvetica,sans-Serif" font-size="10.00">ntp/include/pool/threadpool.hpp</text>
</a>
</g>
</g>
<!-- Node1&#45;&gt;Node2 -->
<g id="edge1" class="edge">
<title>Node1&#45;&gt;Node2</title>
<path fill="none" stroke="midnightblue" d="M129,-101.8C129,-92.91 129,-82.78 129,-75.75"/>
<polygon fill="midnightblue" stroke="midnightblue" points="125.5,-102.08 129,-112.08 132.5,-102.08 125.5,-102.08"/>
</g>
<!-- Node3 -->
<g id="node3" class="node">
<title>Node3</title>
<g id="a_node3"><a xlink:href="ntp_8hpp.html" target="_top" xlink:title="Main ntp library header.">
<polygon fill="white" stroke="black" points="0,-0.5 0,-19.5 110,-19.5 110,-0.5 0,-0.5"/>
<text text-anchor="middle" x="55" y="-7.5" font-family="Helvetica,sans-Serif" font-size="10.00">ntp/include/ntp.hpp</text>
</a>
</g>
</g>
<!-- Node2&#45;&gt;Node3 -->
<g id="edge2" class="edge">
<title>Node2&#45;&gt;Node3</title>
<path fill="none" stroke="midnightblue" d="M108.97,-50.38C95.59,-40.62 78.44,-28.11 67.11,-19.83"/>
<polygon fill="midnightblue" stroke="midnightblue" points="106.97,-53.26 117.11,-56.32 111.1,-47.6 106.97,-53.26"/>
</g>
<!-- Node4 -->
<g id="node4" class="node">
<title>Node4</title>
<g id="a_node4"><a xlink:href="threadpool_8cpp.html" target="_top" xlink:title="Threadpool implementation (traits and some helper functions)">
<polygon fill="white" stroke="black" points="128.5,-0.5 128.5,-19.5 277.5,-19.5 277.5,-0.5 128.5,-0.5"/>
<text text-anchor="middle" x="203" y="-7.5" font-family="Helvetica,sans-Serif" font-size="10.00">ntp/src/pool/threadpool.cpp</text>
</a>
</g>
</g>
<!-- Node2&#45;&gt;Node4 -->
<g id="edge3" class="edge">
<title>Node2&#45;&gt;Node4</title>
<path fill="none" stroke="midnightblue" d="M149.03,-50.38C162.41,-40.62 179.56,-28.11 190.89,-19.83"/>
<polygon fill="midnightblue" stroke="midnightblue" points="146.9,-47.6 140.89,-56.32 151.03,-53.26 146.9,-47.6"/>
</g>
</g>
</svg>
