<?xml version="1.0" encoding="UTF-8" standalone="no"?>
<!DOCTYPE svg PUBLIC "-//W3C//DTD SVG 1.1//EN"
 "http://www.w3.org/Graphics/SVG/1.1/DTD/svg11.dtd">
<!-- Generated by graphviz version 2.43.0 (0)
 -->
<!-- Title: ntp/include/logger/logger_internal.hpp Pages: 1 -->
<svg width="466pt" height="263pt"
 viewBox="0.00 0.00 465.94 263.00" xmlns="http://www.w3.org/2000/svg" xmlns:xlink="http://www.w3.org/1999/xlink">
<g id="graph0" class="graph" transform="scale(1 1) rotate(0) translate(4 259)">
<title>ntp/include/logger/logger_internal.hpp</title>
<!-- Node1 -->
<g id="node1" class="node">
<title>Node1</title>
<g id="a_node1"><a xlink:title="Internal logger subsystem implementation.">
<polygon fill="#bfbfbf" stroke="black" points="102.94,-224.5 102.94,-254.5 216.94,-254.5 216.94,-224.5 102.94,-224.5"/>
<text text-anchor="start" x="110.94" y="-242.5" font-family="Helvetica,sans-Serif" font-size="10.00">ntp/include/logger</text>
<text text-anchor="middle" x="159.94" y="-231.5" font-family="Helvetica,sans-Serif" font-size="10.00">/logger_internal.hpp</text>
</a>
</g>
</g>
<!-- Node2 -->
<g id="node2" class="node">
<title>Node2</title>
<g id="a_node2"><a xlink:title=" ">
<polygon fill="none" stroke="#bfbfbf" points="166.94,-0.5 166.94,-19.5 236.94,-19.5 236.94,-0.5 166.94,-0.5"/>
<text text-anchor="middle" x="201.94" y="-7.5" font-family="Helvetica,sans-Serif" font-size="10.00">Windows.h</text>
</a>
</g>
</g>
<!-- Node1&#45;&gt;Node2 -->
<g id="edge1" class="edge">
<title>Node1&#45;&gt;Node2</title>
<path fill="none" stroke="midnightblue" d="M133.04,-224.38C78.25,-193.82 -36.99,-119.21 12.94,-56 30.55,-33.71 106.77,-21.28 156.88,-15.37"/>
<polygon fill="midnightblue" stroke="midnightblue" points="157.29,-18.85 166.84,-14.24 156.5,-11.89 157.29,-18.85"/>
</g>
<!-- Node3 -->
<g id="node3" class="node">
<title>Node3</title>
<g id="a_node3"><a xlink:title=" ">
<polygon fill="none" stroke="#bfbfbf" points="89.94,-168.5 89.94,-187.5 139.94,-187.5 139.94,-168.5 89.94,-168.5"/>
<text text-anchor="middle" x="114.94" y="-175.5" font-family="Helvetica,sans-Serif" font-size="10.00">atomic</text>
</a>
</g>
</g>
<!-- Node1&#45;&gt;Node3 -->
<g id="edge2" class="edge">
<title>Node1&#45;&gt;Node3</title>
<path fill="none" stroke="midnightblue" d="M149.28,-224.4C142.81,-215.84 134.51,-204.87 127.69,-195.86"/>
<polygon fill="midnightblue" stroke="midnightblue" points="130.31,-193.52 121.49,-187.66 124.73,-197.74 130.31,-193.52"/>
</g>
<!-- Node4 -->
<g id="node4" class="node">
<title>Node4</title>
<g id="a_node4"><a xlink:href="utils_8hpp.html" target="_top" xlink:title="Some useful implementation stuff.">
<polygon fill="none" stroke="black" points="158.44,-168.5 158.44,-187.5 253.44,-187.5 253.44,-168.5 158.44,-168.5"/>
<text text-anchor="middle" x="205.94" y="-175.5" font-family="Helvetica,sans-Serif" font-size="10.00">details/utils.hpp</text>
</a>
</g>
</g>
<!-- Node1&#45;&gt;Node4 -->
<g id="edge3" class="edge">
<title>Node1&#45;&gt;Node4</title>
<path fill="none" stroke="midnightblue" d="M170.84,-224.4C177.53,-215.75 186.12,-204.64 193.13,-195.58"/>
<polygon fill="midnightblue" stroke="midnightblue" points="195.9,-197.71 199.25,-187.66 190.36,-193.43 195.9,-197.71"/>
</g>
<!-- Node13 -->
<g id="node13" class="node">
<title>Node13</title>
<g id="a_node13"><a xlink:href="logger_8hpp.html" target="_top" xlink:title="Interface for custom logger function.">
<polygon fill="none" stroke="black" points="271.44,-168.5 271.44,-187.5 372.44,-187.5 372.44,-168.5 271.44,-168.5"/>
<text text-anchor="middle" x="321.94" y="-175.5" font-family="Helvetica,sans-Serif" font-size="10.00">logger/logger.hpp</text>
</a>
</g>
</g>
<!-- Node1&#45;&gt;Node13 -->
<g id="edge15" class="edge">
<title>Node1&#45;&gt;Node13</title>
<path fill="none" stroke="midnightblue" d="M198.33,-224.4C225.88,-214.28 262.61,-200.79 288.86,-191.15"/>
<polygon fill="midnightblue" stroke="midnightblue" points="290.19,-194.39 298.37,-187.66 287.78,-187.82 290.19,-194.39"/>
</g>
<!-- Node5 -->
<g id="node5" class="node">
<title>Node5</title>
<g id="a_node5"><a xlink:href="ntp__config_8hpp_source.html" target="_top" xlink:title=" ">
<polygon fill="none" stroke="black" points="369.94,-56.5 369.94,-75.5 457.94,-75.5 457.94,-56.5 369.94,-56.5"/>
<text text-anchor="middle" x="413.94" y="-63.5" font-family="Helvetica,sans-Serif" font-size="10.00">ntp_config.hpp</text>
</a>
</g>
</g>
<!-- Node4&#45;&gt;Node5 -->
<g id="edge4" class="edge">
<title>Node4&#45;&gt;Node5</title>
<path fill="none" stroke="midnightblue" d="M244.32,-168.44C272.08,-161.25 309.85,-149.33 339.94,-132 362.95,-118.75 385.27,-97.67 399.27,-83.12"/>
<polygon fill="midnightblue" stroke="midnightblue" points="401.85,-85.49 406.15,-75.81 396.75,-80.7 401.85,-85.49"/>
</g>
<!-- Node6 -->
<g id="node6" class="node">
<title>Node6</title>
<g id="a_node6"><a xlink:href="ntrtl_8h.html" target="_top" xlink:title="Contains necessary declarations/definitions of internal windows objects and functions.">
<polygon fill="none" stroke="black" points="99.94,-112.5 99.94,-131.5 179.94,-131.5 179.94,-112.5 99.94,-112.5"/>
<text text-anchor="middle" x="139.94" y="-119.5" font-family="Helvetica,sans-Serif" font-size="10.00">native/ntrtl.h</text>
</a>
</g>
</g>
<!-- Node4&#45;&gt;Node6 -->
<g id="edge5" class="edge">
<title>Node4&#45;&gt;Node6</title>
<path fill="none" stroke="midnightblue" d="M195.34,-168.32C185.49,-160.26 170.59,-148.08 158.73,-138.37"/>
<polygon fill="midnightblue" stroke="midnightblue" points="160.7,-135.46 150.74,-131.83 156.26,-140.88 160.7,-135.46"/>
</g>
<!-- Node9 -->
<g id="node9" class="node">
<title>Node9</title>
<g id="a_node9"><a xlink:href="allocator_8hpp.html" target="_top" xlink:title="Allocator implementations.">
<polygon fill="none" stroke="black" points="214.94,-112.5 214.94,-131.5 330.94,-131.5 330.94,-112.5 214.94,-112.5"/>
<text text-anchor="middle" x="272.94" y="-119.5" font-family="Helvetica,sans-Serif" font-size="10.00">details/allocator.hpp</text>
</a>
</g>
</g>
<!-- Node4&#45;&gt;Node9 -->
<g id="edge8" class="edge">
<title>Node4&#45;&gt;Node9</title>
<path fill="none" stroke="midnightblue" d="M216.71,-168.32C226.71,-160.26 241.83,-148.08 253.87,-138.37"/>
<polygon fill="midnightblue" stroke="midnightblue" points="256.39,-140.83 261.98,-131.83 252,-135.38 256.39,-140.83"/>
</g>
<!-- Node7 -->
<g id="node7" class="node">
<title>Node7</title>
<g id="a_node7"><a xlink:title=" ">
<polygon fill="none" stroke="#bfbfbf" points="105.94,-56.5 105.94,-75.5 173.94,-75.5 173.94,-56.5 105.94,-56.5"/>
<text text-anchor="middle" x="139.94" y="-63.5" font-family="Helvetica,sans-Serif" font-size="10.00">windows.h</text>
</a>
</g>
</g>
<!-- Node6&#45;&gt;Node7 -->
<g id="edge6" class="edge">
<title>Node6&#45;&gt;Node7</title>
<path fill="none" stroke="midnightblue" d="M139.94,-112.08C139.94,-105.01 139.94,-94.86 139.94,-85.99"/>
<polygon fill="midnightblue" stroke="midnightblue" points="143.44,-85.75 139.94,-75.75 136.44,-85.75 143.44,-85.75"/>
</g>
<!-- Node8 -->
<g id="node8" class="node">
<title>Node8</title>
<g id="a_node8"><a xlink:title=" ">
<polygon fill="none" stroke="#bfbfbf" points="22.44,-56.5 22.44,-75.5 87.44,-75.5 87.44,-56.5 22.44,-56.5"/>
<text text-anchor="middle" x="54.94" y="-63.5" font-family="Helvetica,sans-Serif" font-size="10.00">winternl.h</text>
</a>
</g>
</g>
<!-- Node6&#45;&gt;Node8 -->
<g id="edge7" class="edge">
<title>Node6&#45;&gt;Node8</title>
<path fill="none" stroke="midnightblue" d="M126.29,-112.32C113.03,-103.9 92.67,-90.97 77.1,-81.07"/>
<polygon fill="midnightblue" stroke="midnightblue" points="78.88,-78.06 68.57,-75.65 75.13,-83.97 78.88,-78.06"/>
</g>
<!-- Node9&#45;&gt;Node2 -->
<g id="edge9" class="edge">
<title>Node9&#45;&gt;Node2</title>
<path fill="none" stroke="midnightblue" d="M259.02,-112.31C247.24,-104.27 230.75,-91.27 220.94,-76 211.91,-61.93 207.05,-43.44 204.51,-29.78"/>
<polygon fill="midnightblue" stroke="midnightblue" points="207.93,-28.96 202.89,-19.64 201.01,-30.07 207.93,-28.96"/>
</g>
<!-- Node9&#45;&gt;Node5 -->
<g id="edge10" class="edge">
<title>Node9&#45;&gt;Node5</title>
<path fill="none" stroke="midnightblue" d="M295.28,-112.44C318.7,-103.48 355.68,-89.31 382.13,-79.18"/>
<polygon fill="midnightblue" stroke="midnightblue" points="383.62,-82.36 391.71,-75.52 381.11,-75.82 383.62,-82.36"/>
</g>
<!-- Node10 -->
<g id="node10" class="node">
<title>Node10</title>
<g id="a_node10"><a xlink:href="exception_8hpp.html" target="_top" xlink:title="Win32 error wrapper implementations.">
<polygon fill="none" stroke="black" points="229.94,-56.5 229.94,-75.5 351.94,-75.5 351.94,-56.5 229.94,-56.5"/>
<text text-anchor="middle" x="290.94" y="-63.5" font-family="Helvetica,sans-Serif" font-size="10.00">details/exception.hpp</text>
</a>
</g>
</g>
<!-- Node9&#45;&gt;Node10 -->
<g id="edge11" class="edge">
<title>Node9&#45;&gt;Node10</title>
<path fill="none" stroke="midnightblue" d="M275.91,-112.08C278.33,-104.85 281.81,-94.41 284.81,-85.4"/>
<polygon fill="midnightblue" stroke="midnightblue" points="288.18,-86.34 288.03,-75.75 281.54,-84.13 288.18,-86.34"/>
</g>
<!-- Node10&#45;&gt;Node2 -->
<g id="edge12" class="edge">
<title>Node10&#45;&gt;Node2</title>
<path fill="none" stroke="midnightblue" d="M276.64,-56.32C262.76,-47.9 241.45,-34.97 225.14,-25.07"/>
<polygon fill="midnightblue" stroke="midnightblue" points="226.57,-21.85 216.21,-19.65 222.94,-27.83 226.57,-21.85"/>
</g>
<!-- Node11 -->
<g id="node11" class="node">
<title>Node11</title>
<g id="a_node11"><a xlink:title=" ">
<polygon fill="none" stroke="#bfbfbf" points="256.44,-0.5 256.44,-19.5 321.44,-19.5 321.44,-0.5 256.44,-0.5"/>
<text text-anchor="middle" x="288.94" y="-7.5" font-family="Helvetica,sans-Serif" font-size="10.00">stdexcept</text>
</a>
</g>
</g>
<!-- Node10&#45;&gt;Node11 -->
<g id="edge13" class="edge">
<title>Node10&#45;&gt;Node11</title>
<path fill="none" stroke="midnightblue" d="M290.61,-56.08C290.35,-49.01 289.97,-38.86 289.65,-29.99"/>
<polygon fill="midnightblue" stroke="midnightblue" points="293.13,-29.61 289.27,-19.75 286.14,-29.87 293.13,-29.61"/>
</g>
<!-- Node12 -->
<g id="node12" class="node">
<title>Node12</title>
<g id="a_node12"><a xlink:title=" ">
<polygon fill="none" stroke="#bfbfbf" points="339.94,-0.5 339.94,-19.5 383.94,-19.5 383.94,-0.5 339.94,-0.5"/>
<text text-anchor="middle" x="361.94" y="-7.5" font-family="Helvetica,sans-Serif" font-size="10.00">string</text>
</a>
</g>
</g>
<!-- Node10&#45;&gt;Node12 -->
<g id="edge14" class="edge">
<title>Node10&#45;&gt;Node12</title>
<path fill="none" stroke="midnightblue" d="M302.35,-56.32C313.05,-48.18 329.28,-35.84 342.11,-26.09"/>
<polygon fill="midnightblue" stroke="midnightblue" points="344.49,-28.67 350.33,-19.83 340.25,-23.1 344.49,-28.67"/>
</g>
</g>
</svg>
