<?xml version="1.0" encoding="UTF-8" standalone="no"?>
<!DOCTYPE svg PUBLIC "-//W3C//DTD SVG 1.1//EN"
 "http://www.w3.org/Graphics/SVG/1.1/DTD/svg11.dtd">
<!-- Generated by graphviz version 2.43.0 (0)
 -->
<!-- Title: ntp/include/logger/logger_internal.hpp Pages: 1 -->
<svg width="510pt" height="319pt"
 viewBox="0.00 0.00 509.84 319.00" xmlns="http://www.w3.org/2000/svg" xmlns:xlink="http://www.w3.org/1999/xlink">
<g id="graph0" class="graph" transform="scale(1 1) rotate(0) translate(4 315)">
<title>ntp/include/logger/logger_internal.hpp</title>
<!-- Node1 -->
<g id="node1" class="node">
<title>Node1</title>
<g id="a_node1"><a xlink:title="Internal logger subsystem implementation.">
<polygon fill="#bfbfbf" stroke="black" points="263.34,-280.5 263.34,-310.5 377.34,-310.5 377.34,-280.5 263.34,-280.5"/>
<text text-anchor="start" x="271.34" y="-298.5" font-family="Helvetica,sans-Serif" font-size="10.00">ntp/include/logger</text>
<text text-anchor="middle" x="320.34" y="-287.5" font-family="Helvetica,sans-Serif" font-size="10.00">/logger_internal.hpp</text>
</a>
</g>
</g>
<!-- Node2 -->
<g id="node2" class="node">
<title>Node2</title>
<g id="a_node2"><a xlink:title=" ">
<polygon fill="none" stroke="#bfbfbf" points="152.34,-224.5 152.34,-243.5 202.34,-243.5 202.34,-224.5 152.34,-224.5"/>
<text text-anchor="middle" x="177.34" y="-231.5" font-family="Helvetica,sans-Serif" font-size="10.00">atomic</text>
</a>
</g>
</g>
<!-- Node1&#45;&gt;Node2 -->
<g id="edge1" class="edge">
<title>Node1&#45;&gt;Node2</title>
<path fill="none" stroke="midnightblue" d="M286.45,-280.4C262.45,-270.42 230.56,-257.15 207.46,-247.53"/>
<polygon fill="midnightblue" stroke="midnightblue" points="208.72,-244.27 198.14,-243.66 206.03,-250.73 208.72,-244.27"/>
</g>
<!-- Node3 -->
<g id="node3" class="node">
<title>Node3</title>
<g id="a_node3"><a xlink:href="utils_8hpp.html" target="_top" xlink:title="Some useful implementation stuff.">
<polygon fill="none" stroke="black" points="220.84,-224.5 220.84,-243.5 315.84,-243.5 315.84,-224.5 220.84,-224.5"/>
<text text-anchor="middle" x="268.34" y="-231.5" font-family="Helvetica,sans-Serif" font-size="10.00">details/utils.hpp</text>
</a>
</g>
</g>
<!-- Node1&#45;&gt;Node3 -->
<g id="edge2" class="edge">
<title>Node1&#45;&gt;Node3</title>
<path fill="none" stroke="midnightblue" d="M308.01,-280.4C300.38,-271.66 290.54,-260.41 282.58,-251.3"/>
<polygon fill="midnightblue" stroke="midnightblue" points="285.12,-248.88 275.9,-243.66 279.85,-253.49 285.12,-248.88"/>
</g>
<!-- Node12 -->
<g id="node12" class="node">
<title>Node12</title>
<g id="a_node12"><a xlink:href="windows_8hpp_source.html" target="_top" xlink:title=" ">
<polygon fill="none" stroke="black" points="280.34,-56.5 280.34,-75.5 396.34,-75.5 396.34,-56.5 280.34,-56.5"/>
<text text-anchor="middle" x="338.34" y="-63.5" font-family="Helvetica,sans-Serif" font-size="10.00">details/windows.hpp</text>
</a>
</g>
</g>
<!-- Node1&#45;&gt;Node12 -->
<g id="edge15" class="edge">
<title>Node1&#45;&gt;Node12</title>
<path fill="none" stroke="midnightblue" d="M322.84,-280.43C326.35,-260.11 332.59,-221.31 335.34,-188 338.32,-151.83 338.64,-109.38 338.54,-85.59"/>
<polygon fill="midnightblue" stroke="midnightblue" points="342.04,-85.5 338.46,-75.53 335.04,-85.55 342.04,-85.5"/>
</g>
<!-- Node14 -->
<g id="node14" class="node">
<title>Node14</title>
<g id="a_node14"><a xlink:href="logger_8hpp.html" target="_top" xlink:title="Interface for custom logger function.">
<polygon fill="none" stroke="black" points="400.84,-224.5 400.84,-243.5 501.84,-243.5 501.84,-224.5 400.84,-224.5"/>
<text text-anchor="middle" x="451.34" y="-231.5" font-family="Helvetica,sans-Serif" font-size="10.00">logger/logger.hpp</text>
</a>
</g>
</g>
<!-- Node1&#45;&gt;Node14 -->
<g id="edge16" class="edge">
<title>Node1&#45;&gt;Node14</title>
<path fill="none" stroke="midnightblue" d="M351.38,-280.4C373.07,-270.55 401.79,-257.5 422.89,-247.92"/>
<polygon fill="midnightblue" stroke="midnightblue" points="424.62,-250.98 432.27,-243.66 421.72,-244.61 424.62,-250.98"/>
</g>
<!-- Node4 -->
<g id="node4" class="node">
<title>Node4</title>
<g id="a_node4"><a xlink:href="ntp__config_8hpp_source.html" target="_top" xlink:title=" ">
<polygon fill="none" stroke="black" points="72.34,-0.5 72.34,-19.5 160.34,-19.5 160.34,-0.5 72.34,-0.5"/>
<text text-anchor="middle" x="116.34" y="-7.5" font-family="Helvetica,sans-Serif" font-size="10.00">ntp_config.hpp</text>
</a>
</g>
</g>
<!-- Node3&#45;&gt;Node4 -->
<g id="edge3" class="edge">
<title>Node3&#45;&gt;Node4</title>
<path fill="none" stroke="midnightblue" d="M225.31,-224.43C179.16,-214.89 109.17,-199.34 84.34,-188 45.18,-170.13 25.1,-170.23 5.34,-132 -18.48,-85.93 47.6,-44.24 87.85,-23.96"/>
<polygon fill="midnightblue" stroke="midnightblue" points="89.52,-27.04 96.97,-19.51 86.44,-20.75 89.52,-27.04"/>
</g>
<!-- Node5 -->
<g id="node5" class="node">
<title>Node5</title>
<g id="a_node5"><a xlink:href="ntrtl_8h.html" target="_top" xlink:title="Contains necessary declarations/definitions of internal windows objects and functions.">
<polygon fill="none" stroke="black" points="93.34,-168.5 93.34,-187.5 173.34,-187.5 173.34,-168.5 93.34,-168.5"/>
<text text-anchor="middle" x="133.34" y="-175.5" font-family="Helvetica,sans-Serif" font-size="10.00">native/ntrtl.h</text>
</a>
</g>
</g>
<!-- Node3&#45;&gt;Node5 -->
<g id="edge4" class="edge">
<title>Node3&#45;&gt;Node5</title>
<path fill="none" stroke="midnightblue" d="M246.94,-224.44C224.63,-215.52 189.43,-201.44 164.13,-191.32"/>
<polygon fill="midnightblue" stroke="midnightblue" points="165.21,-187.98 154.63,-187.52 162.61,-194.48 165.21,-187.98"/>
</g>
<!-- Node8 -->
<g id="node8" class="node">
<title>Node8</title>
<g id="a_node8"><a xlink:href="allocator_8hpp.html" target="_top" xlink:title="Allocator implementations.">
<polygon fill="none" stroke="black" points="210.34,-168.5 210.34,-187.5 326.34,-187.5 326.34,-168.5 210.34,-168.5"/>
<text text-anchor="middle" x="268.34" y="-175.5" font-family="Helvetica,sans-Serif" font-size="10.00">details/allocator.hpp</text>
</a>
</g>
</g>
<!-- Node3&#45;&gt;Node8 -->
<g id="edge7" class="edge">
<title>Node3&#45;&gt;Node8</title>
<path fill="none" stroke="midnightblue" d="M268.34,-224.08C268.34,-217.01 268.34,-206.86 268.34,-197.99"/>
<polygon fill="midnightblue" stroke="midnightblue" points="271.84,-197.75 268.34,-187.75 264.84,-197.75 271.84,-197.75"/>
</g>
<!-- Node6 -->
<g id="node6" class="node">
<title>Node6</title>
<g id="a_node6"><a xlink:title=" ">
<polygon fill="none" stroke="#bfbfbf" points="14.34,-112.5 14.34,-131.5 82.34,-131.5 82.34,-112.5 14.34,-112.5"/>
<text text-anchor="middle" x="48.34" y="-119.5" font-family="Helvetica,sans-Serif" font-size="10.00">windows.h</text>
</a>
</g>
</g>
<!-- Node5&#45;&gt;Node6 -->
<g id="edge5" class="edge">
<title>Node5&#45;&gt;Node6</title>
<path fill="none" stroke="midnightblue" d="M119.68,-168.32C106.42,-159.9 86.07,-146.97 70.49,-137.07"/>
<polygon fill="midnightblue" stroke="midnightblue" points="72.28,-134.06 61.96,-131.65 68.52,-139.97 72.28,-134.06"/>
</g>
<!-- Node7 -->
<g id="node7" class="node">
<title>Node7</title>
<g id="a_node7"><a xlink:title=" ">
<polygon fill="none" stroke="#bfbfbf" points="100.84,-112.5 100.84,-131.5 165.84,-131.5 165.84,-112.5 100.84,-112.5"/>
<text text-anchor="middle" x="133.34" y="-119.5" font-family="Helvetica,sans-Serif" font-size="10.00">winternl.h</text>
</a>
</g>
</g>
<!-- Node5&#45;&gt;Node7 -->
<g id="edge6" class="edge">
<title>Node5&#45;&gt;Node7</title>
<path fill="none" stroke="midnightblue" d="M133.34,-168.08C133.34,-161.01 133.34,-150.86 133.34,-141.99"/>
<polygon fill="midnightblue" stroke="midnightblue" points="136.84,-141.75 133.34,-131.75 129.84,-141.75 136.84,-141.75"/>
</g>
<!-- Node9 -->
<g id="node9" class="node">
<title>Node9</title>
<g id="a_node9"><a xlink:href="exception_8hpp.html" target="_top" xlink:title="Win32 error wrapper implementations.">
<polygon fill="none" stroke="black" points="184.34,-112.5 184.34,-131.5 306.34,-131.5 306.34,-112.5 184.34,-112.5"/>
<text text-anchor="middle" x="245.34" y="-119.5" font-family="Helvetica,sans-Serif" font-size="10.00">details/exception.hpp</text>
</a>
</g>
</g>
<!-- Node8&#45;&gt;Node9 -->
<g id="edge8" class="edge">
<title>Node8&#45;&gt;Node9</title>
<path fill="none" stroke="midnightblue" d="M264.54,-168.08C261.42,-160.77 256.91,-150.18 253.05,-141.1"/>
<polygon fill="midnightblue" stroke="midnightblue" points="256.2,-139.58 249.06,-131.75 249.76,-142.32 256.2,-139.58"/>
</g>
<!-- Node8&#45;&gt;Node12 -->
<g id="edge14" class="edge">
<title>Node8&#45;&gt;Node12</title>
<path fill="none" stroke="midnightblue" d="M280.28,-168.22C290.8,-159.93 305.89,-146.61 315.34,-132 324.57,-117.7 330.64,-99.24 334.22,-85.64"/>
<polygon fill="midnightblue" stroke="midnightblue" points="337.7,-86.11 336.64,-75.57 330.9,-84.47 337.7,-86.11"/>
</g>
<!-- Node10 -->
<g id="node10" class="node">
<title>Node10</title>
<g id="a_node10"><a xlink:title=" ">
<polygon fill="none" stroke="#bfbfbf" points="134.84,-56.5 134.84,-75.5 199.84,-75.5 199.84,-56.5 134.84,-56.5"/>
<text text-anchor="middle" x="167.34" y="-63.5" font-family="Helvetica,sans-Serif" font-size="10.00">stdexcept</text>
</a>
</g>
</g>
<!-- Node9&#45;&gt;Node10 -->
<g id="edge9" class="edge">
<title>Node9&#45;&gt;Node10</title>
<path fill="none" stroke="midnightblue" d="M232.8,-112.32C220.75,-103.98 202.31,-91.21 188.07,-81.35"/>
<polygon fill="midnightblue" stroke="midnightblue" points="190.05,-78.47 179.84,-75.65 186.07,-84.22 190.05,-78.47"/>
</g>
<!-- Node11 -->
<g id="node11" class="node">
<title>Node11</title>
<g id="a_node11"><a xlink:title=" ">
<polygon fill="none" stroke="#bfbfbf" points="218.34,-56.5 218.34,-75.5 262.34,-75.5 262.34,-56.5 218.34,-56.5"/>
<text text-anchor="middle" x="240.34" y="-63.5" font-family="Helvetica,sans-Serif" font-size="10.00">string</text>
</a>
</g>
</g>
<!-- Node9&#45;&gt;Node11 -->
<g id="edge10" class="edge">
<title>Node9&#45;&gt;Node11</title>
<path fill="none" stroke="midnightblue" d="M244.51,-112.08C243.85,-105.01 242.92,-94.86 242.09,-85.99"/>
<polygon fill="midnightblue" stroke="midnightblue" points="245.55,-85.39 241.15,-75.75 238.58,-86.03 245.55,-85.39"/>
</g>
<!-- Node9&#45;&gt;Node12 -->
<g id="edge11" class="edge">
<title>Node9&#45;&gt;Node12</title>
<path fill="none" stroke="midnightblue" d="M260.28,-112.32C274.92,-103.82 297.47,-90.73 314.57,-80.8"/>
<polygon fill="midnightblue" stroke="midnightblue" points="316.54,-83.7 323.43,-75.65 313.03,-77.65 316.54,-83.7"/>
</g>
<!-- Node12&#45;&gt;Node4 -->
<g id="edge12" class="edge">
<title>Node12&#45;&gt;Node4</title>
<path fill="none" stroke="midnightblue" d="M303.16,-56.44C264.76,-47.1 203.16,-32.12 161.28,-21.93"/>
<polygon fill="midnightblue" stroke="midnightblue" points="161.89,-18.48 151.35,-19.52 160.24,-25.28 161.89,-18.48"/>
</g>
<!-- Node13 -->
<g id="node13" class="node">
<title>Node13</title>
<g id="a_node13"><a xlink:title=" ">
<polygon fill="none" stroke="#bfbfbf" points="303.34,-0.5 303.34,-19.5 373.34,-19.5 373.34,-0.5 303.34,-0.5"/>
<text text-anchor="middle" x="338.34" y="-7.5" font-family="Helvetica,sans-Serif" font-size="10.00">Windows.h</text>
</a>
</g>
</g>
<!-- Node12&#45;&gt;Node13 -->
<g id="edge13" class="edge">
<title>Node12&#45;&gt;Node13</title>
<path fill="none" stroke="midnightblue" d="M338.34,-56.08C338.34,-49.01 338.34,-38.86 338.34,-29.99"/>
<polygon fill="midnightblue" stroke="midnightblue" points="341.84,-29.75 338.34,-19.75 334.84,-29.75 341.84,-29.75"/>
</g>
</g>
</svg>
