<?xml version="1.0" encoding="UTF-8" standalone="no"?>
<!DOCTYPE svg PUBLIC "-//W3C//DTD SVG 1.1//EN"
 "http://www.w3.org/Graphics/SVG/1.1/DTD/svg11.dtd">
<!-- Generated by graphviz version 2.43.0 (0)
 -->
<!-- Title: ntp/include/logger/logger_internal.hpp Pages: 1 -->
<svg width="469pt" height="263pt"
 viewBox="0.00 0.00 468.50 263.00" xmlns="http://www.w3.org/2000/svg" xmlns:xlink="http://www.w3.org/1999/xlink">
<g id="graph0" class="graph" transform="scale(1 1) rotate(0) translate(4 259)">
<title>ntp/include/logger/logger_internal.hpp</title>
<polygon fill="white" stroke="transparent" points="-4,4 -4,-259 464.5,-259 464.5,4 -4,4"/>
<!-- Node1 -->
<g id="node1" class="node">
<title>Node1</title>
<g id="a_node1"><a xlink:title="Internal logger subsystem implementation.">
<polygon fill="#bfbfbf" stroke="black" points="40,-224.5 40,-254.5 154,-254.5 154,-224.5 40,-224.5"/>
<text text-anchor="start" x="48" y="-242.5" font-family="Helvetica,sans-Serif" font-size="10.00">ntp/include/logger</text>
<text text-anchor="middle" x="97" y="-231.5" font-family="Helvetica,sans-Serif" font-size="10.00">/logger_internal.hpp</text>
</a>
</g>
</g>
<!-- Node2 -->
<g id="node2" class="node">
<title>Node2</title>
<g id="a_node2"><a xlink:title=" ">
<polygon fill="white" stroke="#bfbfbf" points="0,-0.5 0,-19.5 70,-19.5 70,-0.5 0,-0.5"/>
<text text-anchor="middle" x="35" y="-7.5" font-family="Helvetica,sans-Serif" font-size="10.00">Windows.h</text>
</a>
</g>
</g>
<!-- Node1&#45;&gt;Node2 -->
<g id="edge1" class="edge">
<title>Node1&#45;&gt;Node2</title>
<path fill="none" stroke="midnightblue" d="M81.93,-224.39C62.97,-205.48 31.4,-169.9 19,-132 7.52,-96.89 19.09,-53.5 27.64,-29.38"/>
<polygon fill="midnightblue" stroke="midnightblue" points="31.02,-30.34 31.27,-19.75 24.47,-27.88 31.02,-30.34"/>
</g>
<!-- Node3 -->
<g id="node3" class="node">
<title>Node3</title>
<g id="a_node3"><a xlink:title=" ">
<polygon fill="white" stroke="#bfbfbf" points="28,-112.5 28,-131.5 78,-131.5 78,-112.5 28,-112.5"/>
<text text-anchor="middle" x="53" y="-119.5" font-family="Helvetica,sans-Serif" font-size="10.00">atomic</text>
</a>
</g>
</g>
<!-- Node1&#45;&gt;Node3 -->
<g id="edge2" class="edge">
<title>Node1&#45;&gt;Node3</title>
<path fill="none" stroke="midnightblue" d="M91.6,-224.34C83.64,-203.43 68.74,-164.31 59.96,-141.27"/>
<polygon fill="midnightblue" stroke="midnightblue" points="63.13,-139.77 56.3,-131.67 56.59,-142.26 63.13,-139.77"/>
</g>
<!-- Node4 -->
<g id="node4" class="node">
<title>Node4</title>
<g id="a_node4"><a xlink:href="utils_8hpp.html" target="_top" xlink:title="Some useful implementation stuff.">
<polygon fill="white" stroke="black" points="99.5,-168.5 99.5,-187.5 194.5,-187.5 194.5,-168.5 99.5,-168.5"/>
<text text-anchor="middle" x="147" y="-175.5" font-family="Helvetica,sans-Serif" font-size="10.00">details/utils.hpp</text>
</a>
</g>
</g>
<!-- Node1&#45;&gt;Node4 -->
<g id="edge3" class="edge">
<title>Node1&#45;&gt;Node4</title>
<path fill="none" stroke="midnightblue" d="M108.85,-224.4C116.11,-215.75 125.45,-204.64 133.07,-195.58"/>
<polygon fill="midnightblue" stroke="midnightblue" points="135.97,-197.57 139.72,-187.66 130.61,-193.06 135.97,-197.57"/>
</g>
<!-- Node13 -->
<g id="node13" class="node">
<title>Node13</title>
<g id="a_node13"><a xlink:href="logger_8hpp.html" target="_top" xlink:title="Interface for custom logger function.">
<polygon fill="white" stroke="black" points="212.5,-168.5 212.5,-187.5 313.5,-187.5 313.5,-168.5 212.5,-168.5"/>
<text text-anchor="middle" x="263" y="-175.5" font-family="Helvetica,sans-Serif" font-size="10.00">logger/logger.hpp</text>
</a>
</g>
</g>
<!-- Node1&#45;&gt;Node13 -->
<g id="edge16" class="edge">
<title>Node1&#45;&gt;Node13</title>
<path fill="none" stroke="midnightblue" d="M136.34,-224.4C164.56,-214.28 202.21,-200.79 229.1,-191.15"/>
<polygon fill="midnightblue" stroke="midnightblue" points="230.61,-194.33 238.85,-187.66 228.25,-187.74 230.61,-194.33"/>
</g>
<!-- Node4&#45;&gt;Node3 -->
<g id="edge4" class="edge">
<title>Node4&#45;&gt;Node3</title>
<path fill="none" stroke="midnightblue" d="M131.9,-168.32C117.1,-159.82 94.31,-146.73 77.02,-136.8"/>
<polygon fill="midnightblue" stroke="midnightblue" points="78.48,-133.6 68.07,-131.65 74.99,-139.67 78.48,-133.6"/>
</g>
<!-- Node5 -->
<g id="node5" class="node">
<title>Node5</title>
<g id="a_node5"><a xlink:href="ntp__config_8hpp_source.html" target="_top" xlink:title=" ">
<polygon fill="white" stroke="black" points="203,-56.5 203,-75.5 291,-75.5 291,-56.5 203,-56.5"/>
<text text-anchor="middle" x="247" y="-63.5" font-family="Helvetica,sans-Serif" font-size="10.00">ntp_config.hpp</text>
</a>
</g>
</g>
<!-- Node4&#45;&gt;Node5 -->
<g id="edge5" class="edge">
<title>Node4&#45;&gt;Node5</title>
<path fill="none" stroke="midnightblue" d="M168.39,-168.5C184.74,-161.04 206.82,-148.76 221,-132 232.28,-118.68 239.08,-99.85 242.89,-85.88"/>
<polygon fill="midnightblue" stroke="midnightblue" points="246.35,-86.47 245.32,-75.92 239.55,-84.8 246.35,-86.47"/>
</g>
<!-- Node6 -->
<g id="node6" class="node">
<title>Node6</title>
<g id="a_node6"><a xlink:href="ntrtl_8h.html" target="_top" xlink:title="Contains necessary declarations/definitions of internal windows objects and functions.">
<polygon fill="white" stroke="black" points="303,-112.5 303,-131.5 383,-131.5 383,-112.5 303,-112.5"/>
<text text-anchor="middle" x="343" y="-119.5" font-family="Helvetica,sans-Serif" font-size="10.00">native/ntrtl.h</text>
</a>
</g>
</g>
<!-- Node4&#45;&gt;Node6 -->
<g id="edge6" class="edge">
<title>Node4&#45;&gt;Node6</title>
<path fill="none" stroke="midnightblue" d="M178.06,-168.44C211.6,-159.2 265.2,-144.44 302.14,-134.26"/>
<polygon fill="midnightblue" stroke="midnightblue" points="303.38,-137.55 312.09,-131.52 301.52,-130.8 303.38,-137.55"/>
</g>
<!-- Node9 -->
<g id="node9" class="node">
<title>Node9</title>
<g id="a_node9"><a xlink:href="allocator_8hpp.html" target="_top" xlink:title="Allocator implementations.">
<polygon fill="white" stroke="black" points="96,-112.5 96,-131.5 212,-131.5 212,-112.5 96,-112.5"/>
<text text-anchor="middle" x="154" y="-119.5" font-family="Helvetica,sans-Serif" font-size="10.00">details/allocator.hpp</text>
</a>
</g>
</g>
<!-- Node4&#45;&gt;Node9 -->
<g id="edge9" class="edge">
<title>Node4&#45;&gt;Node9</title>
<path fill="none" stroke="midnightblue" d="M148.16,-168.08C149.08,-160.93 150.42,-150.64 151.58,-141.69"/>
<polygon fill="midnightblue" stroke="midnightblue" points="155.05,-142.12 152.87,-131.75 148.11,-141.22 155.05,-142.12"/>
</g>
<!-- Node7 -->
<g id="node7" class="node">
<title>Node7</title>
<g id="a_node7"><a xlink:title=" ">
<polygon fill="white" stroke="#bfbfbf" points="309,-56.5 309,-75.5 377,-75.5 377,-56.5 309,-56.5"/>
<text text-anchor="middle" x="343" y="-63.5" font-family="Helvetica,sans-Serif" font-size="10.00">windows.h</text>
</a>
</g>
</g>
<!-- Node6&#45;&gt;Node7 -->
<g id="edge7" class="edge">
<title>Node6&#45;&gt;Node7</title>
<path fill="none" stroke="midnightblue" d="M343,-112.08C343,-105.01 343,-94.86 343,-85.99"/>
<polygon fill="midnightblue" stroke="midnightblue" points="346.5,-85.75 343,-75.75 339.5,-85.75 346.5,-85.75"/>
</g>
<!-- Node8 -->
<g id="node8" class="node">
<title>Node8</title>
<g id="a_node8"><a xlink:title=" ">
<polygon fill="white" stroke="#bfbfbf" points="395.5,-56.5 395.5,-75.5 460.5,-75.5 460.5,-56.5 395.5,-56.5"/>
<text text-anchor="middle" x="428" y="-63.5" font-family="Helvetica,sans-Serif" font-size="10.00">winternl.h</text>
</a>
</g>
</g>
<!-- Node6&#45;&gt;Node8 -->
<g id="edge8" class="edge">
<title>Node6&#45;&gt;Node8</title>
<path fill="none" stroke="midnightblue" d="M356.66,-112.32C369.92,-103.9 390.27,-90.97 405.85,-81.07"/>
<polygon fill="midnightblue" stroke="midnightblue" points="407.81,-83.97 414.38,-75.65 404.06,-78.06 407.81,-83.97"/>
</g>
<!-- Node9&#45;&gt;Node2 -->
<g id="edge10" class="edge">
<title>Node9&#45;&gt;Node2</title>
<path fill="none" stroke="midnightblue" d="M116.49,-112.44C95.39,-105.81 70.12,-94.53 54,-76 42.79,-63.12 38.19,-43.95 36.3,-29.76"/>
<polygon fill="midnightblue" stroke="midnightblue" points="39.77,-29.26 35.29,-19.66 32.8,-29.96 39.77,-29.26"/>
</g>
<!-- Node9&#45;&gt;Node5 -->
<g id="edge11" class="edge">
<title>Node9&#45;&gt;Node5</title>
<path fill="none" stroke="midnightblue" d="M168.94,-112.32C183.59,-103.82 206.13,-90.73 223.24,-80.8"/>
<polygon fill="midnightblue" stroke="midnightblue" points="225.2,-83.7 232.1,-75.65 221.69,-77.65 225.2,-83.7"/>
</g>
<!-- Node10 -->
<g id="node10" class="node">
<title>Node10</title>
<g id="a_node10"><a xlink:href="exception_8hpp.html" target="_top" xlink:title="Win32 error wrapper implementations.">
<polygon fill="white" stroke="black" points="63,-56.5 63,-75.5 185,-75.5 185,-56.5 63,-56.5"/>
<text text-anchor="middle" x="124" y="-63.5" font-family="Helvetica,sans-Serif" font-size="10.00">details/exception.hpp</text>
</a>
</g>
</g>
<!-- Node9&#45;&gt;Node10 -->
<g id="edge12" class="edge">
<title>Node9&#45;&gt;Node10</title>
<path fill="none" stroke="midnightblue" d="M149.05,-112.08C144.9,-104.61 138.85,-93.72 133.73,-84.52"/>
<polygon fill="midnightblue" stroke="midnightblue" points="136.78,-82.79 128.86,-75.75 130.66,-86.19 136.78,-82.79"/>
</g>
<!-- Node10&#45;&gt;Node2 -->
<g id="edge13" class="edge">
<title>Node10&#45;&gt;Node2</title>
<path fill="none" stroke="midnightblue" d="M109.7,-56.32C95.82,-47.9 74.51,-34.97 58.2,-25.07"/>
<polygon fill="midnightblue" stroke="midnightblue" points="59.63,-21.85 49.26,-19.65 56,-27.83 59.63,-21.85"/>
</g>
<!-- Node11 -->
<g id="node11" class="node">
<title>Node11</title>
<g id="a_node11"><a xlink:title=" ">
<polygon fill="white" stroke="#bfbfbf" points="89.5,-0.5 89.5,-19.5 154.5,-19.5 154.5,-0.5 89.5,-0.5"/>
<text text-anchor="middle" x="122" y="-7.5" font-family="Helvetica,sans-Serif" font-size="10.00">stdexcept</text>
</a>
</g>
</g>
<!-- Node10&#45;&gt;Node11 -->
<g id="edge14" class="edge">
<title>Node10&#45;&gt;Node11</title>
<path fill="none" stroke="midnightblue" d="M123.67,-56.08C123.41,-49.01 123.03,-38.86 122.7,-29.99"/>
<polygon fill="midnightblue" stroke="midnightblue" points="126.19,-29.61 122.32,-19.75 119.2,-29.87 126.19,-29.61"/>
</g>
<!-- Node12 -->
<g id="node12" class="node">
<title>Node12</title>
<g id="a_node12"><a xlink:title=" ">
<polygon fill="white" stroke="#bfbfbf" points="173,-0.5 173,-19.5 217,-19.5 217,-0.5 173,-0.5"/>
<text text-anchor="middle" x="195" y="-7.5" font-family="Helvetica,sans-Serif" font-size="10.00">string</text>
</a>
</g>
</g>
<!-- Node10&#45;&gt;Node12 -->
<g id="edge15" class="edge">
<title>Node10&#45;&gt;Node12</title>
<path fill="none" stroke="midnightblue" d="M135.41,-56.32C146.11,-48.18 162.34,-35.84 175.16,-26.09"/>
<polygon fill="midnightblue" stroke="midnightblue" points="177.54,-28.67 183.39,-19.83 173.31,-23.1 177.54,-28.67"/>
</g>
</g>
</svg>
