<?xml version="1.0" encoding="UTF-8" standalone="no"?>
<!DOCTYPE svg PUBLIC "-//W3C//DTD SVG 1.1//EN"
 "http://www.w3.org/Graphics/SVG/1.1/DTD/svg11.dtd">
<!-- Generated by graphviz version 2.43.0 (0)
 -->
<!-- Title: ntp/include/logger/logger.hpp Pages: 1 -->
<svg width="250pt" height="106pt"
 viewBox="0.00 0.00 250.00 106.00" xmlns="http://www.w3.org/2000/svg" xmlns:xlink="http://www.w3.org/1999/xlink">
<g id="graph0" class="graph" transform="scale(1 1) rotate(0) translate(4 102)">
<title>ntp/include/logger/logger.hpp</title>
<!-- Node1 -->
<g id="node1" class="node">
<title>Node1</title>
<g id="a_node1"><a xlink:title="Interface for custom logger function.">
<polygon fill="#bfbfbf" stroke="black" points="70,-67.5 70,-97.5 174,-97.5 174,-67.5 70,-67.5"/>
<text text-anchor="start" x="78" y="-85.5" font-family="Helvetica,sans-Serif" font-size="10.00">ntp/include/logger</text>
<text text-anchor="middle" x="122" y="-74.5" font-family="Helvetica,sans-Serif" font-size="10.00">/logger.hpp</text>
</a>
</g>
</g>
<!-- Node2 -->
<g id="node2" class="node">
<title>Node2</title>
<g id="a_node2"><a xlink:href="logger__internal_8hpp.html" target="_top" xlink:title="Internal logger subsystem implementation.">
<polygon fill="none" stroke="black" points="0,-0.5 0,-30.5 114,-30.5 114,-0.5 0,-0.5"/>
<text text-anchor="start" x="8" y="-18.5" font-family="Helvetica,sans-Serif" font-size="10.00">ntp/include/logger</text>
<text text-anchor="middle" x="57" y="-7.5" font-family="Helvetica,sans-Serif" font-size="10.00">/logger_internal.hpp</text>
</a>
</g>
</g>
<!-- Node1&#45;&gt;Node2 -->
<g id="edge1" class="edge">
<title>Node1&#45;&gt;Node2</title>
<path fill="none" stroke="midnightblue" d="M100.81,-60.31C91.06,-50.56 79.76,-39.26 71.08,-30.58"/>
<polygon fill="midnightblue" stroke="midnightblue" points="98.35,-62.8 107.9,-67.4 103.3,-57.85 98.35,-62.8"/>
</g>
<!-- Node3 -->
<g id="node3" class="node">
<title>Node3</title>
<g id="a_node3"><a xlink:href="ntp_8hpp.html" target="_top" xlink:title="Main ntp library header.">
<polygon fill="none" stroke="black" points="132,-6 132,-25 242,-25 242,-6 132,-6"/>
<text text-anchor="middle" x="187" y="-13" font-family="Helvetica,sans-Serif" font-size="10.00">ntp/include/ntp.hpp</text>
</a>
</g>
</g>
<!-- Node1&#45;&gt;Node3 -->
<g id="edge2" class="edge">
<title>Node1&#45;&gt;Node3</title>
<path fill="none" stroke="midnightblue" d="M143.5,-60C155.37,-48.13 169.45,-34.05 178.31,-25.19"/>
<polygon fill="midnightblue" stroke="midnightblue" points="140.7,-57.85 136.1,-67.4 145.65,-62.8 140.7,-57.85"/>
</g>
</g>
</svg>
