<?xml version="1.0" encoding="UTF-8" standalone="no"?>
<!DOCTYPE svg PUBLIC "-//W3C//DTD SVG 1.1//EN"
 "http://www.w3.org/Graphics/SVG/1.1/DTD/svg11.dtd">
<!-- Generated by graphviz version 2.43.0 (0)
 -->
<!-- Title: ntp/include/ntp.hpp Pages: 1 -->
<svg width="1533pt" height="420pt"
 viewBox="0.00 0.00 1532.50 420.00" xmlns="http://www.w3.org/2000/svg" xmlns:xlink="http://www.w3.org/1999/xlink">
<g id="graph0" class="graph" transform="scale(1 1) rotate(0) translate(4 416)">
<title>ntp/include/ntp.hpp</title>
<!-- Node1 -->
<g id="node1" class="node">
<title>Node1</title>
<g id="a_node1"><a xlink:title="Main ntp library header.">
<polygon fill="#bfbfbf" stroke="black" points="1340,-392.5 1340,-411.5 1450,-411.5 1450,-392.5 1340,-392.5"/>
<text text-anchor="middle" x="1395" y="-399.5" font-family="Helvetica,sans-Serif" font-size="10.00">ntp/include/ntp.hpp</text>
</a>
</g>
</g>
<!-- Node2 -->
<g id="node2" class="node">
<title>Node2</title>
<g id="a_node2"><a xlink:href="ntp__config_8hpp_source.html" target="_top" xlink:title=" ">
<polygon fill="none" stroke="black" points="479,-56.5 479,-75.5 567,-75.5 567,-56.5 479,-56.5"/>
<text text-anchor="middle" x="523" y="-63.5" font-family="Helvetica,sans-Serif" font-size="10.00">ntp_config.hpp</text>
</a>
</g>
</g>
<!-- Node1&#45;&gt;Node2 -->
<g id="edge1" class="edge">
<title>Node1&#45;&gt;Node2</title>
<path fill="none" stroke="midnightblue" d="M1393.27,-392.17C1387.43,-364.28 1365.99,-276.83 1318,-224 1300.74,-205 1140.58,-119.36 1116,-112 1016.07,-82.07 704.43,-71.35 577.56,-68.17"/>
<polygon fill="midnightblue" stroke="midnightblue" points="577.39,-64.66 567.31,-67.91 577.22,-71.66 577.39,-64.66"/>
</g>
<!-- Node3 -->
<g id="node3" class="node">
<title>Node3</title>
<g id="a_node3"><a xlink:href="logger_8hpp.html" target="_top" xlink:title="Interface for custom logger function.">
<polygon fill="none" stroke="black" points="1423.5,-336.5 1423.5,-355.5 1524.5,-355.5 1524.5,-336.5 1423.5,-336.5"/>
<text text-anchor="middle" x="1474" y="-343.5" font-family="Helvetica,sans-Serif" font-size="10.00">logger/logger.hpp</text>
</a>
</g>
</g>
<!-- Node1&#45;&gt;Node3 -->
<g id="edge2" class="edge">
<title>Node1&#45;&gt;Node3</title>
<path fill="none" stroke="midnightblue" d="M1407.69,-392.32C1419.9,-383.98 1438.58,-371.21 1453,-361.35"/>
<polygon fill="midnightblue" stroke="midnightblue" points="1455.06,-364.19 1461.34,-355.65 1451.11,-358.41 1455.06,-364.19"/>
</g>
<!-- Node4 -->
<g id="node4" class="node">
<title>Node4</title>
<g id="a_node4"><a xlink:href="threadpool_8hpp.html" target="_top" xlink:title="Threadpool implementations.">
<polygon fill="none" stroke="black" points="696,-336.5 696,-355.5 810,-355.5 810,-336.5 696,-336.5"/>
<text text-anchor="middle" x="753" y="-343.5" font-family="Helvetica,sans-Serif" font-size="10.00">pool/threadpool.hpp</text>
</a>
</g>
</g>
<!-- Node1&#45;&gt;Node4 -->
<g id="edge3" class="edge">
<title>Node1&#45;&gt;Node4</title>
<path fill="none" stroke="midnightblue" d="M1339.99,-396.37C1222.6,-386.5 947.91,-363.39 820.32,-352.66"/>
<polygon fill="midnightblue" stroke="midnightblue" points="820.55,-349.17 810.29,-351.82 819.96,-356.14 820.55,-349.17"/>
</g>
<!-- Node4&#45;&gt;Node2 -->
<g id="edge7" class="edge">
<title>Node4&#45;&gt;Node2</title>
<path fill="none" stroke="midnightblue" d="M695.79,-342.95C597.83,-338.74 402.51,-327.16 340,-300 305.03,-284.81 290.89,-278.66 275,-244 269.12,-231.17 261.02,-192.91 276,-168 293.02,-139.7 312.43,-148.56 341,-132 355.84,-123.4 358.33,-118.98 374,-112 406.93,-97.33 446.01,-85.73 475.88,-77.98"/>
<polygon fill="midnightblue" stroke="midnightblue" points="476.8,-81.36 485.64,-75.5 475.08,-74.57 476.8,-81.36"/>
</g>
<!-- Node5 -->
<g id="node5" class="node">
<title>Node5</title>
<g id="a_node5"><a xlink:title=" ">
<polygon fill="none" stroke="#bfbfbf" points="177,-0.5 177,-19.5 247,-19.5 247,-0.5 177,-0.5"/>
<text text-anchor="middle" x="212" y="-7.5" font-family="Helvetica,sans-Serif" font-size="10.00">Windows.h</text>
</a>
</g>
</g>
<!-- Node4&#45;&gt;Node5 -->
<g id="edge4" class="edge">
<title>Node4&#45;&gt;Node5</title>
<path fill="none" stroke="midnightblue" d="M695.54,-343.18C561.57,-338.54 236.58,-324.83 194,-300 163.87,-282.42 150,-269.89 150,-235 150,-235 150,-235 150,-121 150,-83.62 177.5,-47.24 195.87,-27.1"/>
<polygon fill="midnightblue" stroke="midnightblue" points="198.51,-29.41 202.85,-19.75 193.43,-24.59 198.51,-29.41"/>
</g>
<!-- Node6 -->
<g id="node6" class="node">
<title>Node6</title>
<g id="a_node6"><a xlink:title=" ">
<polygon fill="none" stroke="#bfbfbf" points="292,-168.5 292,-187.5 342,-187.5 342,-168.5 292,-168.5"/>
<text text-anchor="middle" x="317" y="-175.5" font-family="Helvetica,sans-Serif" font-size="10.00">chrono</text>
</a>
</g>
</g>
<!-- Node4&#45;&gt;Node6 -->
<g id="edge5" class="edge">
<title>Node4&#45;&gt;Node6</title>
<path fill="none" stroke="midnightblue" d="M695.68,-341.41C581.97,-332.96 334.34,-307.54 283,-244 270.71,-228.79 285.4,-208.44 299.12,-194.59"/>
<polygon fill="midnightblue" stroke="midnightblue" points="301.61,-197.05 306.47,-187.63 296.8,-191.97 301.61,-197.05"/>
</g>
<!-- Node7 -->
<g id="node7" class="node">
<title>Node7</title>
<g id="a_node7"><a xlink:title=" ">
<polygon fill="none" stroke="#bfbfbf" points="1069.5,-168.5 1069.5,-187.5 1138.5,-187.5 1138.5,-168.5 1069.5,-168.5"/>
<text text-anchor="middle" x="1104" y="-175.5" font-family="Helvetica,sans-Serif" font-size="10.00">type_traits</text>
</a>
</g>
</g>
<!-- Node4&#45;&gt;Node7 -->
<g id="edge6" class="edge">
<title>Node4&#45;&gt;Node7</title>
<path fill="none" stroke="midnightblue" d="M810.05,-343.56C937.73,-338.97 1240,-320.13 1300,-244 1341.32,-191.57 1218.85,-181.02 1148.99,-179.17"/>
<polygon fill="midnightblue" stroke="midnightblue" points="1148.75,-175.66 1138.68,-178.95 1148.6,-182.66 1148.75,-175.66"/>
</g>
<!-- Node8 -->
<g id="node8" class="node">
<title>Node8</title>
<g id="a_node8"><a xlink:href="allocator_8hpp.html" target="_top" xlink:title="Allocator implementations.">
<polygon fill="none" stroke="black" points="216,-112.5 216,-131.5 332,-131.5 332,-112.5 216,-112.5"/>
<text text-anchor="middle" x="274" y="-119.5" font-family="Helvetica,sans-Serif" font-size="10.00">details/allocator.hpp</text>
</a>
</g>
</g>
<!-- Node4&#45;&gt;Node8 -->
<g id="edge8" class="edge">
<title>Node4&#45;&gt;Node8</title>
<path fill="none" stroke="midnightblue" d="M695.73,-344.52C563.22,-342.81 244.27,-335.07 212,-300 172.27,-256.83 185.35,-220.27 212,-168 219,-154.27 232.37,-143.75 244.9,-136.35"/>
<polygon fill="midnightblue" stroke="midnightblue" points="246.67,-139.37 253.78,-131.51 243.32,-133.22 246.67,-139.37"/>
</g>
<!-- Node12 -->
<g id="node12" class="node">
<title>Node12</title>
<g id="a_node12"><a xlink:href="work_8hpp.html" target="_top" xlink:title="Work callback wrapper and manager implementation.">
<polygon fill="none" stroke="black" points="972,-280.5 972,-299.5 1058,-299.5 1058,-280.5 972,-280.5"/>
<text text-anchor="middle" x="1015" y="-287.5" font-family="Helvetica,sans-Serif" font-size="10.00">pool/work.hpp</text>
</a>
</g>
</g>
<!-- Node4&#45;&gt;Node12 -->
<g id="edge15" class="edge">
<title>Node4&#45;&gt;Node12</title>
<path fill="none" stroke="midnightblue" d="M794.51,-336.44C840.41,-326.98 914.38,-311.74 963.83,-301.55"/>
<polygon fill="midnightblue" stroke="midnightblue" points="964.59,-304.96 973.68,-299.52 963.18,-298.11 964.59,-304.96"/>
</g>
<!-- Node26 -->
<g id="node26" class="node">
<title>Node26</title>
<g id="a_node26"><a xlink:href="wait_8hpp.html" target="_top" xlink:title="Implementation of threadpool wait callback.">
<polygon fill="none" stroke="black" points="659.5,-280.5 659.5,-299.5 742.5,-299.5 742.5,-280.5 659.5,-280.5"/>
<text text-anchor="middle" x="701" y="-287.5" font-family="Helvetica,sans-Serif" font-size="10.00">pool/wait.hpp</text>
</a>
</g>
</g>
<!-- Node4&#45;&gt;Node26 -->
<g id="edge37" class="edge">
<title>Node4&#45;&gt;Node26</title>
<path fill="none" stroke="midnightblue" d="M744.41,-336.08C736.84,-328.22 725.62,-316.57 716.49,-307.08"/>
<polygon fill="midnightblue" stroke="midnightblue" points="718.88,-304.53 709.43,-299.75 713.84,-309.38 718.88,-304.53"/>
</g>
<!-- Node30 -->
<g id="node30" class="node">
<title>Node30</title>
<g id="a_node30"><a xlink:href="timer_8hpp.html" target="_top" xlink:title="Implementation of threadpool timer callback.">
<polygon fill="none" stroke="black" points="760.5,-280.5 760.5,-299.5 847.5,-299.5 847.5,-280.5 760.5,-280.5"/>
<text text-anchor="middle" x="804" y="-287.5" font-family="Helvetica,sans-Serif" font-size="10.00">pool/timer.hpp</text>
</a>
</g>
</g>
<!-- Node4&#45;&gt;Node30 -->
<g id="edge49" class="edge">
<title>Node4&#45;&gt;Node30</title>
<path fill="none" stroke="midnightblue" d="M761.42,-336.08C768.85,-328.22 779.85,-316.57 788.81,-307.08"/>
<polygon fill="midnightblue" stroke="midnightblue" points="791.41,-309.42 795.74,-299.75 786.32,-304.62 791.41,-309.42"/>
</g>
<!-- Node31 -->
<g id="node31" class="node">
<title>Node31</title>
<g id="a_node31"><a xlink:href="io_8hpp.html" target="_top" xlink:title="Implementation of threadpool IO callback.">
<polygon fill="none" stroke="black" points="865.5,-280.5 865.5,-299.5 936.5,-299.5 936.5,-280.5 865.5,-280.5"/>
<text text-anchor="middle" x="901" y="-287.5" font-family="Helvetica,sans-Serif" font-size="10.00">pool/io.hpp</text>
</a>
</g>
</g>
<!-- Node4&#45;&gt;Node31 -->
<g id="edge56" class="edge">
<title>Node4&#45;&gt;Node31</title>
<path fill="none" stroke="midnightblue" d="M776.45,-336.44C801.13,-327.44 840.19,-313.19 867.98,-303.05"/>
<polygon fill="midnightblue" stroke="midnightblue" points="869.46,-306.23 877.66,-299.52 867.06,-299.66 869.46,-306.23"/>
</g>
<!-- Node8&#45;&gt;Node2 -->
<g id="edge10" class="edge">
<title>Node8&#45;&gt;Node2</title>
<path fill="none" stroke="midnightblue" d="M313.45,-112.44C356.89,-103.02 426.79,-87.87 473.78,-77.68"/>
<polygon fill="midnightblue" stroke="midnightblue" points="474.7,-81.06 483.73,-75.52 473.22,-74.22 474.7,-81.06"/>
</g>
<!-- Node8&#45;&gt;Node5 -->
<g id="edge9" class="edge">
<title>Node8&#45;&gt;Node5</title>
<path fill="none" stroke="midnightblue" d="M269.13,-112.37C258.95,-94.3 235.21,-52.18 221.76,-28.31"/>
<polygon fill="midnightblue" stroke="midnightblue" points="224.8,-26.58 216.84,-19.59 218.7,-30.02 224.8,-26.58"/>
</g>
<!-- Node9 -->
<g id="node9" class="node">
<title>Node9</title>
<g id="a_node9"><a xlink:href="exception_8hpp.html" target="_top" xlink:title="Win32 error wrapper implementations.">
<polygon fill="none" stroke="black" points="0,-56.5 0,-75.5 122,-75.5 122,-56.5 0,-56.5"/>
<text text-anchor="middle" x="61" y="-63.5" font-family="Helvetica,sans-Serif" font-size="10.00">details/exception.hpp</text>
</a>
</g>
</g>
<!-- Node8&#45;&gt;Node9 -->
<g id="edge11" class="edge">
<title>Node8&#45;&gt;Node9</title>
<path fill="none" stroke="midnightblue" d="M240.25,-112.44C203.48,-103.12 144.55,-88.18 104.38,-78"/>
<polygon fill="midnightblue" stroke="midnightblue" points="105.15,-74.58 94.59,-75.52 103.43,-81.37 105.15,-74.58"/>
</g>
<!-- Node9&#45;&gt;Node5 -->
<g id="edge12" class="edge">
<title>Node9&#45;&gt;Node5</title>
<path fill="none" stroke="midnightblue" d="M84.93,-56.44C110.22,-47.4 150.3,-33.06 178.68,-22.92"/>
<polygon fill="midnightblue" stroke="midnightblue" points="179.95,-26.18 188.19,-19.52 177.59,-19.59 179.95,-26.18"/>
</g>
<!-- Node10 -->
<g id="node10" class="node">
<title>Node10</title>
<g id="a_node10"><a xlink:title=" ">
<polygon fill="none" stroke="#bfbfbf" points="18.5,-0.5 18.5,-19.5 83.5,-19.5 83.5,-0.5 18.5,-0.5"/>
<text text-anchor="middle" x="51" y="-7.5" font-family="Helvetica,sans-Serif" font-size="10.00">stdexcept</text>
</a>
</g>
</g>
<!-- Node9&#45;&gt;Node10 -->
<g id="edge13" class="edge">
<title>Node9&#45;&gt;Node10</title>
<path fill="none" stroke="midnightblue" d="M59.35,-56.08C58.02,-48.93 56.12,-38.64 54.46,-29.69"/>
<polygon fill="midnightblue" stroke="midnightblue" points="57.88,-28.95 52.62,-19.75 51,-30.22 57.88,-28.95"/>
</g>
<!-- Node11 -->
<g id="node11" class="node">
<title>Node11</title>
<g id="a_node11"><a xlink:title=" ">
<polygon fill="none" stroke="#bfbfbf" points="102,-0.5 102,-19.5 146,-19.5 146,-0.5 102,-0.5"/>
<text text-anchor="middle" x="124" y="-7.5" font-family="Helvetica,sans-Serif" font-size="10.00">string</text>
</a>
</g>
</g>
<!-- Node9&#45;&gt;Node11 -->
<g id="edge14" class="edge">
<title>Node9&#45;&gt;Node11</title>
<path fill="none" stroke="midnightblue" d="M71.12,-56.32C80.53,-48.26 94.74,-36.08 106.07,-26.37"/>
<polygon fill="midnightblue" stroke="midnightblue" points="108.38,-29 113.69,-19.83 103.82,-23.68 108.38,-29"/>
</g>
<!-- Node12&#45;&gt;Node2 -->
<g id="edge20" class="edge">
<title>Node12&#45;&gt;Node2</title>
<path fill="none" stroke="midnightblue" d="M1044.48,-280.47C1096.17,-263.86 1194.85,-223.86 1164,-168 1141.41,-127.09 1119.34,-126.77 1075,-112 983.7,-81.59 697.7,-71.23 577.29,-68.15"/>
<polygon fill="midnightblue" stroke="midnightblue" points="577.28,-64.65 567.19,-67.9 577.1,-71.65 577.28,-64.65"/>
</g>
<!-- Node12&#45;&gt;Node5 -->
<g id="edge16" class="edge">
<title>Node12&#45;&gt;Node5</title>
<path fill="none" stroke="midnightblue" d="M1058.01,-287.71C1128.61,-284.71 1264.79,-274.98 1300,-244 1322.6,-224.12 1319,-209.1 1319,-179 1319,-179 1319,-179 1319,-121 1319,-86.84 1307.55,-73.12 1278,-56 1233.25,-30.07 454.96,-15.13 257.34,-11.74"/>
<polygon fill="midnightblue" stroke="midnightblue" points="257.35,-8.24 247.3,-11.57 257.23,-15.24 257.35,-8.24"/>
</g>
<!-- Node13 -->
<g id="node13" class="node">
<title>Node13</title>
<g id="a_node13"><a xlink:title=" ">
<polygon fill="none" stroke="#bfbfbf" points="1229.5,-224.5 1229.5,-243.5 1290.5,-243.5 1290.5,-224.5 1229.5,-224.5"/>
<text text-anchor="middle" x="1260" y="-231.5" font-family="Helvetica,sans-Serif" font-size="10.00">atlsync.h</text>
</a>
</g>
</g>
<!-- Node12&#45;&gt;Node13 -->
<g id="edge17" class="edge">
<title>Node12&#45;&gt;Node13</title>
<path fill="none" stroke="midnightblue" d="M1053.82,-280.44C1099.11,-270.46 1173.61,-254.04 1219.57,-243.91"/>
<polygon fill="midnightblue" stroke="midnightblue" points="1220.48,-247.3 1229.49,-241.73 1218.97,-240.46 1220.48,-247.3"/>
</g>
<!-- Node14 -->
<g id="node14" class="node">
<title>Node14</title>
<g id="a_node14"><a xlink:title=" ">
<polygon fill="none" stroke="#bfbfbf" points="871.5,-224.5 871.5,-243.5 912.5,-243.5 912.5,-224.5 871.5,-224.5"/>
<text text-anchor="middle" x="892" y="-231.5" font-family="Helvetica,sans-Serif" font-size="10.00">tuple</text>
</a>
</g>
</g>
<!-- Node12&#45;&gt;Node14 -->
<g id="edge18" class="edge">
<title>Node12&#45;&gt;Node14</title>
<path fill="none" stroke="midnightblue" d="M995.51,-280.44C975.36,-271.6 943.68,-257.69 920.67,-247.59"/>
<polygon fill="midnightblue" stroke="midnightblue" points="921.96,-244.33 911.4,-243.52 919.15,-250.74 921.96,-244.33"/>
</g>
<!-- Node15 -->
<g id="node15" class="node">
<title>Node15</title>
<g id="a_node15"><a xlink:title=" ">
<polygon fill="none" stroke="#bfbfbf" points="930.5,-224.5 930.5,-243.5 975.5,-243.5 975.5,-224.5 930.5,-224.5"/>
<text text-anchor="middle" x="953" y="-231.5" font-family="Helvetica,sans-Serif" font-size="10.00">utility</text>
</a>
</g>
</g>
<!-- Node12&#45;&gt;Node15 -->
<g id="edge19" class="edge">
<title>Node12&#45;&gt;Node15</title>
<path fill="none" stroke="midnightblue" d="M1005.04,-280.32C995.87,-272.34 982.06,-260.31 970.97,-250.65"/>
<polygon fill="midnightblue" stroke="midnightblue" points="972.98,-247.76 963.14,-243.83 968.38,-253.04 972.98,-247.76"/>
</g>
<!-- Node16 -->
<g id="node16" class="node">
<title>Node16</title>
<g id="a_node16"><a xlink:href="utils_8hpp.html" target="_top" xlink:title="Some useful implementation stuff.">
<polygon fill="none" stroke="black" points="956.5,-168.5 956.5,-187.5 1051.5,-187.5 1051.5,-168.5 956.5,-168.5"/>
<text text-anchor="middle" x="1004" y="-175.5" font-family="Helvetica,sans-Serif" font-size="10.00">details/utils.hpp</text>
</a>
</g>
</g>
<!-- Node12&#45;&gt;Node16 -->
<g id="edge21" class="edge">
<title>Node12&#45;&gt;Node16</title>
<path fill="none" stroke="midnightblue" d="M1016.51,-280.11C1018.39,-267.54 1021.02,-243.88 1018,-224 1016.63,-215 1013.81,-205.33 1011.05,-197.26"/>
<polygon fill="midnightblue" stroke="midnightblue" points="1014.31,-195.98 1007.6,-187.78 1007.73,-198.37 1014.31,-195.98"/>
</g>
<!-- Node20 -->
<g id="node20" class="node">
<title>Node20</title>
<g id="a_node20"><a xlink:href="basic__callback_8hpp.html" target="_top" xlink:title="Interfaces and base classes for callback wrappers.">
<polygon fill="none" stroke="black" points="643.5,-224.5 643.5,-243.5 776.5,-243.5 776.5,-224.5 643.5,-224.5"/>
<text text-anchor="middle" x="710" y="-231.5" font-family="Helvetica,sans-Serif" font-size="10.00">pool/basic_callback.hpp</text>
</a>
</g>
</g>
<!-- Node12&#45;&gt;Node20 -->
<g id="edge27" class="edge">
<title>Node12&#45;&gt;Node20</title>
<path fill="none" stroke="midnightblue" d="M971.95,-281.38C918.63,-271.94 827.58,-255.82 768.1,-245.29"/>
<polygon fill="midnightblue" stroke="midnightblue" points="768.57,-241.82 758.11,-243.52 767.35,-248.71 768.57,-241.82"/>
</g>
<!-- Node16&#45;&gt;Node2 -->
<g id="edge22" class="edge">
<title>Node16&#45;&gt;Node2</title>
<path fill="none" stroke="midnightblue" d="M966.66,-168.46C880.09,-148.66 665.81,-99.66 570.28,-77.81"/>
<polygon fill="midnightblue" stroke="midnightblue" points="570.85,-74.35 560.32,-75.53 569.29,-81.18 570.85,-74.35"/>
</g>
<!-- Node16&#45;&gt;Node8 -->
<g id="edge26" class="edge">
<title>Node16&#45;&gt;Node8</title>
<path fill="none" stroke="midnightblue" d="M956.46,-169.17C953.26,-168.74 950.09,-168.35 947,-168 726.78,-143.3 464.4,-130.53 342.52,-125.55"/>
<polygon fill="midnightblue" stroke="midnightblue" points="342.35,-122.04 332.22,-125.13 342.07,-129.03 342.35,-122.04"/>
</g>
<!-- Node17 -->
<g id="node17" class="node">
<title>Node17</title>
<g id="a_node17"><a xlink:href="ntrtl_8h.html" target="_top" xlink:title="Contains necessary declarations/definitions of internal windows objects and functions.">
<polygon fill="none" stroke="black" points="1173,-112.5 1173,-131.5 1253,-131.5 1253,-112.5 1173,-112.5"/>
<text text-anchor="middle" x="1213" y="-119.5" font-family="Helvetica,sans-Serif" font-size="10.00">native/ntrtl.h</text>
</a>
</g>
</g>
<!-- Node16&#45;&gt;Node17 -->
<g id="edge23" class="edge">
<title>Node16&#45;&gt;Node17</title>
<path fill="none" stroke="midnightblue" d="M1037.12,-168.44C1073.12,-159.14 1130.77,-144.25 1170.19,-134.06"/>
<polygon fill="midnightblue" stroke="midnightblue" points="1171.23,-137.41 1180.04,-131.52 1169.48,-130.63 1171.23,-137.41"/>
</g>
<!-- Node18 -->
<g id="node18" class="node">
<title>Node18</title>
<g id="a_node18"><a xlink:title=" ">
<polygon fill="none" stroke="#bfbfbf" points="1182,-56.5 1182,-75.5 1250,-75.5 1250,-56.5 1182,-56.5"/>
<text text-anchor="middle" x="1216" y="-63.5" font-family="Helvetica,sans-Serif" font-size="10.00">windows.h</text>
</a>
</g>
</g>
<!-- Node17&#45;&gt;Node18 -->
<g id="edge24" class="edge">
<title>Node17&#45;&gt;Node18</title>
<path fill="none" stroke="midnightblue" d="M1213.5,-112.08C1213.89,-105.01 1214.45,-94.86 1214.95,-85.99"/>
<polygon fill="midnightblue" stroke="midnightblue" points="1218.45,-85.93 1215.51,-75.75 1211.46,-85.54 1218.45,-85.93"/>
</g>
<!-- Node19 -->
<g id="node19" class="node">
<title>Node19</title>
<g id="a_node19"><a xlink:title=" ">
<polygon fill="none" stroke="#bfbfbf" points="1098.5,-56.5 1098.5,-75.5 1163.5,-75.5 1163.5,-56.5 1098.5,-56.5"/>
<text text-anchor="middle" x="1131" y="-63.5" font-family="Helvetica,sans-Serif" font-size="10.00">winternl.h</text>
</a>
</g>
</g>
<!-- Node17&#45;&gt;Node19 -->
<g id="edge25" class="edge">
<title>Node17&#45;&gt;Node19</title>
<path fill="none" stroke="midnightblue" d="M1199.83,-112.32C1187.15,-103.98 1167.77,-91.21 1152.79,-81.35"/>
<polygon fill="midnightblue" stroke="midnightblue" points="1154.42,-78.23 1144.14,-75.65 1150.57,-84.08 1154.42,-78.23"/>
</g>
<!-- Node20&#45;&gt;Node2 -->
<g id="edge35" class="edge">
<title>Node20&#45;&gt;Node2</title>
<path fill="none" stroke="midnightblue" d="M643.16,-226.74C614.56,-220.86 582.81,-209.57 561,-188 533.04,-160.35 525.6,-112.4 523.65,-85.92"/>
<polygon fill="midnightblue" stroke="midnightblue" points="527.14,-85.51 523.1,-75.71 520.15,-85.89 527.14,-85.51"/>
</g>
<!-- Node20&#45;&gt;Node5 -->
<g id="edge28" class="edge">
<title>Node20&#45;&gt;Node5</title>
<path fill="none" stroke="midnightblue" d="M776.7,-229.04C881.56,-222.32 1080.04,-207.51 1148,-188 1202.26,-172.43 1232.15,-179.91 1262,-132 1271.01,-117.54 1279.79,-76.57 1259,-56 1222.93,-20.31 454.24,-12.65 257.53,-11.27"/>
<polygon fill="midnightblue" stroke="midnightblue" points="257.28,-7.77 247.26,-11.2 257.24,-14.77 257.28,-7.77"/>
</g>
<!-- Node20&#45;&gt;Node7 -->
<g id="edge33" class="edge">
<title>Node20&#45;&gt;Node7</title>
<path fill="none" stroke="midnightblue" d="M776.54,-226.05C845.1,-218.53 955.25,-205.46 1059.27,-188.19"/>
<polygon fill="midnightblue" stroke="midnightblue" points="1060.03,-191.61 1069.31,-186.51 1058.87,-184.71 1060.03,-191.61"/>
</g>
<!-- Node20&#45;&gt;Node16 -->
<g id="edge36" class="edge">
<title>Node20&#45;&gt;Node16</title>
<path fill="none" stroke="midnightblue" d="M756.59,-224.44C808.41,-214.92 892.13,-199.55 947.62,-189.36"/>
<polygon fill="midnightblue" stroke="midnightblue" points="948.43,-192.77 957.63,-187.52 947.16,-185.88 948.43,-192.77"/>
</g>
<!-- Node21 -->
<g id="node21" class="node">
<title>Node21</title>
<g id="a_node21"><a xlink:title=" ">
<polygon fill="none" stroke="#bfbfbf" points="834,-168.5 834,-187.5 872,-187.5 872,-168.5 834,-168.5"/>
<text text-anchor="middle" x="853" y="-175.5" font-family="Helvetica,sans-Serif" font-size="10.00">map</text>
</a>
</g>
</g>
<!-- Node20&#45;&gt;Node21 -->
<g id="edge29" class="edge">
<title>Node20&#45;&gt;Node21</title>
<path fill="none" stroke="midnightblue" d="M732.66,-224.44C757.38,-215.11 797.02,-200.14 824,-189.95"/>
<polygon fill="midnightblue" stroke="midnightblue" points="825.54,-193.11 833.66,-186.3 823.07,-186.56 825.54,-193.11"/>
</g>
<!-- Node22 -->
<g id="node22" class="node">
<title>Node22</title>
<g id="a_node22"><a xlink:title=" ">
<polygon fill="none" stroke="#bfbfbf" points="890,-168.5 890,-187.5 938,-187.5 938,-168.5 890,-168.5"/>
<text text-anchor="middle" x="914" y="-175.5" font-family="Helvetica,sans-Serif" font-size="10.00">mutex</text>
</a>
</g>
</g>
<!-- Node20&#45;&gt;Node22 -->
<g id="edge30" class="edge">
<title>Node20&#45;&gt;Node22</title>
<path fill="none" stroke="midnightblue" d="M742.8,-224.46C775.23,-216 826.51,-202.56 879.87,-188.29"/>
<polygon fill="midnightblue" stroke="midnightblue" points="881.1,-191.58 889.86,-185.61 879.29,-184.82 881.1,-191.58"/>
</g>
<!-- Node23 -->
<g id="node23" class="node">
<title>Node23</title>
<g id="a_node23"><a xlink:title=" ">
<polygon fill="none" stroke="#bfbfbf" points="570,-168.5 570,-187.5 628,-187.5 628,-168.5 570,-168.5"/>
<text text-anchor="middle" x="599" y="-175.5" font-family="Helvetica,sans-Serif" font-size="10.00">memory</text>
</a>
</g>
</g>
<!-- Node20&#45;&gt;Node23 -->
<g id="edge31" class="edge">
<title>Node20&#45;&gt;Node23</title>
<path fill="none" stroke="midnightblue" d="M692.17,-224.32C674.28,-215.62 646.52,-202.12 625.95,-192.11"/>
<polygon fill="midnightblue" stroke="midnightblue" points="627.31,-188.88 616.79,-187.65 624.25,-195.18 627.31,-188.88"/>
</g>
<!-- Node24 -->
<g id="node24" class="node">
<title>Node24</title>
<g id="a_node24"><a xlink:title=" ">
<polygon fill="none" stroke="#bfbfbf" points="646.5,-168.5 646.5,-187.5 711.5,-187.5 711.5,-168.5 646.5,-168.5"/>
<text text-anchor="middle" x="679" y="-175.5" font-family="Helvetica,sans-Serif" font-size="10.00">functional</text>
</a>
</g>
</g>
<!-- Node20&#45;&gt;Node24 -->
<g id="edge32" class="edge">
<title>Node20&#45;&gt;Node24</title>
<path fill="none" stroke="midnightblue" d="M704.88,-224.08C700.59,-216.61 694.34,-205.72 689.06,-196.52"/>
<polygon fill="midnightblue" stroke="midnightblue" points="692.04,-194.68 684.02,-187.75 685.97,-198.17 692.04,-194.68"/>
</g>
<!-- Node25 -->
<g id="node25" class="node">
<title>Node25</title>
<g id="a_node25"><a xlink:title=" ">
<polygon fill="none" stroke="#bfbfbf" points="730,-168.5 730,-187.5 816,-187.5 816,-168.5 730,-168.5"/>
<text text-anchor="middle" x="773" y="-175.5" font-family="Helvetica,sans-Serif" font-size="10.00">shared_mutex</text>
</a>
</g>
</g>
<!-- Node20&#45;&gt;Node25 -->
<g id="edge34" class="edge">
<title>Node20&#45;&gt;Node25</title>
<path fill="none" stroke="midnightblue" d="M720.12,-224.32C729.53,-216.26 743.74,-204.08 755.07,-194.37"/>
<polygon fill="midnightblue" stroke="midnightblue" points="757.38,-197 762.69,-187.83 752.82,-191.68 757.38,-197"/>
</g>
<!-- Node26&#45;&gt;Node2 -->
<g id="edge41" class="edge">
<title>Node26&#45;&gt;Node2</title>
<path fill="none" stroke="midnightblue" d="M659.4,-287.32C599.58,-283.93 486.38,-273.8 395,-244 376.86,-238.08 374.03,-232.62 357,-224 324.37,-207.48 302.4,-219.01 283,-188 278.29,-180.46 278,-175.35 283,-168 307.45,-132.03 333.84,-148.7 374,-132 416.14,-114.48 464.5,-93.15 494.41,-79.83"/>
<polygon fill="midnightblue" stroke="midnightblue" points="496.1,-82.9 503.8,-75.63 493.25,-76.51 496.1,-82.9"/>
</g>
<!-- Node26&#45;&gt;Node14 -->
<g id="edge38" class="edge">
<title>Node26&#45;&gt;Node14</title>
<path fill="none" stroke="midnightblue" d="M731.26,-280.44C766.88,-270.37 825.68,-253.75 861.43,-243.64"/>
<polygon fill="midnightblue" stroke="midnightblue" points="862.63,-246.94 871.3,-240.85 860.72,-240.21 862.63,-246.94"/>
</g>
<!-- Node26&#45;&gt;Node15 -->
<g id="edge39" class="edge">
<title>Node26&#45;&gt;Node15</title>
<path fill="none" stroke="midnightblue" d="M742.77,-281.55C785.29,-273.73 853.28,-260.58 920.47,-244.24"/>
<polygon fill="midnightblue" stroke="midnightblue" points="921.5,-247.59 930.37,-241.8 919.82,-240.79 921.5,-247.59"/>
</g>
<!-- Node26&#45;&gt;Node16 -->
<g id="edge47" class="edge">
<title>Node26&#45;&gt;Node16</title>
<path fill="none" stroke="midnightblue" d="M716.25,-280.4C740.69,-266.9 790.41,-240.58 835,-224 873.82,-209.57 919.24,-197.74 953.22,-189.84"/>
<polygon fill="midnightblue" stroke="midnightblue" points="954.41,-193.16 963.37,-187.52 952.84,-186.34 954.41,-193.16"/>
</g>
<!-- Node26&#45;&gt;Node20 -->
<g id="edge48" class="edge">
<title>Node26&#45;&gt;Node20</title>
<path fill="none" stroke="midnightblue" d="M702.49,-280.08C703.68,-272.93 705.39,-262.64 706.88,-253.69"/>
<polygon fill="midnightblue" stroke="midnightblue" points="710.35,-254.19 708.54,-243.75 703.45,-253.04 710.35,-254.19"/>
</g>
<!-- Node27 -->
<g id="node27" class="node">
<title>Node27</title>
<g id="a_node27"><a xlink:title=" ">
<polygon fill="none" stroke="#bfbfbf" points="292,-224.5 292,-243.5 348,-243.5 348,-224.5 292,-224.5"/>
<text text-anchor="middle" x="320" y="-231.5" font-family="Helvetica,sans-Serif" font-size="10.00">optional</text>
</a>
</g>
</g>
<!-- Node26&#45;&gt;Node27 -->
<g id="edge40" class="edge">
<title>Node26&#45;&gt;Node27</title>
<path fill="none" stroke="midnightblue" d="M659.35,-284.55C595.24,-277.45 468.61,-262.47 362,-244 360.76,-243.79 359.5,-243.56 358.23,-243.33"/>
<polygon fill="midnightblue" stroke="midnightblue" points="358.89,-239.89 348.41,-241.41 357.55,-246.76 358.89,-239.89"/>
</g>
<!-- Node28 -->
<g id="node28" class="node">
<title>Node28</title>
<g id="a_node28"><a xlink:href="time_8hpp.html" target="_top" xlink:title="Utils to work with std::chrono.">
<polygon fill="none" stroke="black" points="404,-224.5 404,-243.5 500,-243.5 500,-224.5 404,-224.5"/>
<text text-anchor="middle" x="452" y="-231.5" font-family="Helvetica,sans-Serif" font-size="10.00">details/time.hpp</text>
</a>
</g>
</g>
<!-- Node26&#45;&gt;Node28 -->
<g id="edge42" class="edge">
<title>Node26&#45;&gt;Node28</title>
<path fill="none" stroke="midnightblue" d="M661.55,-280.44C618.11,-271.02 548.21,-255.87 501.22,-245.68"/>
<polygon fill="midnightblue" stroke="midnightblue" points="501.78,-242.22 491.27,-243.52 500.3,-249.06 501.78,-242.22"/>
</g>
<!-- Node28&#45;&gt;Node2 -->
<g id="edge46" class="edge">
<title>Node28&#45;&gt;Node2</title>
<path fill="none" stroke="midnightblue" d="M453.68,-224.42C457.87,-204.08 469.92,-151.68 490,-112 495.08,-101.97 502.33,-91.79 508.74,-83.65"/>
<polygon fill="midnightblue" stroke="midnightblue" points="511.6,-85.68 515.23,-75.73 506.19,-81.25 511.6,-85.68"/>
</g>
<!-- Node28&#45;&gt;Node5 -->
<g id="edge43" class="edge">
<title>Node28&#45;&gt;Node5</title>
<path fill="none" stroke="midnightblue" d="M441.17,-224.31C423.38,-210.44 386.4,-183.32 351,-168 290.46,-141.8 247.6,-184 207,-132 183.9,-102.42 195.45,-55.26 204.55,-29.42"/>
<polygon fill="midnightblue" stroke="midnightblue" points="207.94,-30.36 208.2,-19.76 201.39,-27.88 207.94,-30.36"/>
</g>
<!-- Node28&#45;&gt;Node6 -->
<g id="edge45" class="edge">
<title>Node28&#45;&gt;Node6</title>
<path fill="none" stroke="midnightblue" d="M430.61,-224.44C408.29,-215.52 373.1,-201.44 347.79,-191.32"/>
<polygon fill="midnightblue" stroke="midnightblue" points="348.88,-187.98 338.29,-187.52 346.28,-194.48 348.88,-187.98"/>
</g>
<!-- Node29 -->
<g id="node29" class="node">
<title>Node29</title>
<g id="a_node29"><a xlink:title=" ">
<polygon fill="none" stroke="#bfbfbf" points="398.5,-168.5 398.5,-187.5 437.5,-187.5 437.5,-168.5 398.5,-168.5"/>
<text text-anchor="middle" x="418" y="-175.5" font-family="Helvetica,sans-Serif" font-size="10.00">ratio</text>
</a>
</g>
</g>
<!-- Node28&#45;&gt;Node29 -->
<g id="edge44" class="edge">
<title>Node28&#45;&gt;Node29</title>
<path fill="none" stroke="midnightblue" d="M446.39,-224.08C441.63,-216.53 434.68,-205.49 428.85,-196.23"/>
<polygon fill="midnightblue" stroke="midnightblue" points="431.8,-194.35 423.51,-187.75 425.88,-198.08 431.8,-194.35"/>
</g>
<!-- Node30&#45;&gt;Node2 -->
<g id="edge52" class="edge">
<title>Node30&#45;&gt;Node2</title>
<path fill="none" stroke="midnightblue" d="M760.17,-280.88C725.38,-273.59 675.95,-261.37 635,-244 590.58,-225.16 572.56,-225.34 542,-188 518.07,-158.76 518.2,-111.81 520.53,-85.83"/>
<polygon fill="midnightblue" stroke="midnightblue" points="524.02,-86.12 521.63,-75.79 517.06,-85.35 524.02,-86.12"/>
</g>
<!-- Node30&#45;&gt;Node14 -->
<g id="edge50" class="edge">
<title>Node30&#45;&gt;Node14</title>
<path fill="none" stroke="midnightblue" d="M818.14,-280.32C831.87,-271.9 852.94,-258.97 869.06,-249.07"/>
<polygon fill="midnightblue" stroke="midnightblue" points="871.2,-251.87 877.9,-243.65 867.54,-245.9 871.2,-251.87"/>
</g>
<!-- Node30&#45;&gt;Node15 -->
<g id="edge51" class="edge">
<title>Node30&#45;&gt;Node15</title>
<path fill="none" stroke="midnightblue" d="M827.61,-280.44C852.75,-271.33 892.7,-256.85 920.74,-246.69"/>
<polygon fill="midnightblue" stroke="midnightblue" points="922.27,-249.86 930.48,-243.16 919.88,-243.28 922.27,-249.86"/>
</g>
<!-- Node30&#45;&gt;Node16 -->
<g id="edge54" class="edge">
<title>Node30&#45;&gt;Node16</title>
<path fill="none" stroke="midnightblue" d="M809.78,-280.07C819.25,-266.11 839.41,-239.16 863,-224 888.3,-207.74 919.94,-196.94 946.83,-190.01"/>
<polygon fill="midnightblue" stroke="midnightblue" points="948.01,-193.32 956.89,-187.54 946.34,-186.52 948.01,-193.32"/>
</g>
<!-- Node30&#45;&gt;Node20 -->
<g id="edge55" class="edge">
<title>Node30&#45;&gt;Node20</title>
<path fill="none" stroke="midnightblue" d="M788.9,-280.32C774.1,-271.82 751.31,-258.73 734.02,-248.8"/>
<polygon fill="midnightblue" stroke="midnightblue" points="735.48,-245.6 725.07,-243.65 731.99,-251.67 735.48,-245.6"/>
</g>
<!-- Node30&#45;&gt;Node28 -->
<g id="edge53" class="edge">
<title>Node30&#45;&gt;Node28</title>
<path fill="none" stroke="midnightblue" d="M760.32,-281.37C757.51,-280.9 754.71,-280.44 752,-280 706.69,-272.68 584.01,-254.47 510.32,-243.59"/>
<polygon fill="midnightblue" stroke="midnightblue" points="510.66,-240.1 500.26,-242.1 509.64,-247.03 510.66,-240.1"/>
</g>
<!-- Node31&#45;&gt;Node2 -->
<g id="edge59" class="edge">
<title>Node31&#45;&gt;Node2</title>
<path fill="none" stroke="midnightblue" d="M933.99,-280.4C995.35,-263.67 1123.08,-225.12 1148,-188 1152.96,-180.62 1153.76,-174.77 1148,-168 1074.74,-81.95 715.88,-68.97 577.53,-67.2"/>
<polygon fill="midnightblue" stroke="midnightblue" points="577.22,-63.69 567.18,-67.08 577.14,-70.69 577.22,-63.69"/>
</g>
<!-- Node31&#45;&gt;Node14 -->
<g id="edge57" class="edge">
<title>Node31&#45;&gt;Node14</title>
<path fill="none" stroke="midnightblue" d="M899.51,-280.08C898.32,-272.93 896.61,-262.64 895.12,-253.69"/>
<polygon fill="midnightblue" stroke="midnightblue" points="898.55,-253.04 893.46,-243.75 891.65,-254.19 898.55,-253.04"/>
</g>
<!-- Node31&#45;&gt;Node15 -->
<g id="edge58" class="edge">
<title>Node31&#45;&gt;Node15</title>
<path fill="none" stroke="midnightblue" d="M909.59,-280.08C917.16,-272.22 928.38,-260.57 937.51,-251.08"/>
<polygon fill="midnightblue" stroke="midnightblue" points="940.16,-253.38 944.57,-243.75 935.12,-248.53 940.16,-253.38"/>
</g>
<!-- Node31&#45;&gt;Node16 -->
<g id="edge61" class="edge">
<title>Node31&#45;&gt;Node16</title>
<path fill="none" stroke="midnightblue" d="M928.92,-280.43C947.33,-273.42 970.61,-261.73 985,-244 995.76,-230.75 1000.42,-211.62 1002.45,-197.54"/>
<polygon fill="midnightblue" stroke="midnightblue" points="1005.93,-197.87 1003.57,-187.55 998.98,-197.09 1005.93,-197.87"/>
</g>
<!-- Node31&#45;&gt;Node20 -->
<g id="edge62" class="edge">
<title>Node31&#45;&gt;Node20</title>
<path fill="none" stroke="midnightblue" d="M870.74,-280.44C838.04,-271.2 785.82,-256.44 749.82,-246.26"/>
<polygon fill="midnightblue" stroke="midnightblue" points="750.7,-242.87 740.12,-243.52 748.79,-249.61 750.7,-242.87"/>
</g>
<!-- Node31&#45;&gt;Node28 -->
<g id="edge60" class="edge">
<title>Node31&#45;&gt;Node28</title>
<path fill="none" stroke="midnightblue" d="M865.03,-281.36C862.32,-280.87 859.62,-280.41 857,-280 734.27,-260.67 589.34,-246.68 510.42,-239.81"/>
<polygon fill="midnightblue" stroke="midnightblue" points="510.46,-236.3 500.19,-238.92 509.86,-243.27 510.46,-236.3"/>
</g>
</g>
</svg>
