<?xml version="1.0" encoding="UTF-8" standalone="no"?>
<!DOCTYPE svg PUBLIC "-//W3C//DTD SVG 1.1//EN"
 "http://www.w3.org/Graphics/SVG/1.1/DTD/svg11.dtd">
<!-- Generated by graphviz version 2.43.0 (0)
 -->
<!-- Title: ntp/include/ntp.hpp Pages: 1 -->
<svg width="1260pt" height="420pt"
 viewBox="0.00 0.00 1259.50 420.00" xmlns="http://www.w3.org/2000/svg" xmlns:xlink="http://www.w3.org/1999/xlink">
<g id="graph0" class="graph" transform="scale(1 1) rotate(0) translate(4 416)">
<title>ntp/include/ntp.hpp</title>
<!-- Node1 -->
<g id="node1" class="node">
<title>Node1</title>
<g id="a_node1"><a xlink:title="Main ntp library header.">
<polygon fill="#bfbfbf" stroke="black" points="273,-392.5 273,-411.5 383,-411.5 383,-392.5 273,-392.5"/>
<text text-anchor="middle" x="328" y="-399.5" font-family="Helvetica,sans-Serif" font-size="10.00">ntp/include/ntp.hpp</text>
</a>
</g>
</g>
<!-- Node2 -->
<g id="node2" class="node">
<title>Node2</title>
<g id="a_node2"><a xlink:href="ntp__config_8hpp_source.html" target="_top" xlink:title=" ">
<polygon fill="none" stroke="black" points="469,-56.5 469,-75.5 557,-75.5 557,-56.5 469,-56.5"/>
<text text-anchor="middle" x="513" y="-63.5" font-family="Helvetica,sans-Serif" font-size="10.00">ntp_config.hpp</text>
</a>
</g>
</g>
<!-- Node1&#45;&gt;Node2 -->
<g id="edge1" class="edge">
<title>Node1&#45;&gt;Node2</title>
<path fill="none" stroke="midnightblue" d="M277.15,-392.49C193.98,-377.12 38,-341.55 38,-291 38,-291 38,-291 38,-177 38,-91.48 333.95,-72.43 458.64,-68.2"/>
<polygon fill="midnightblue" stroke="midnightblue" points="458.86,-71.7 468.74,-67.88 458.63,-64.7 458.86,-71.7"/>
</g>
<!-- Node3 -->
<g id="node3" class="node">
<title>Node3</title>
<g id="a_node3"><a xlink:href="time_8hpp.html" target="_top" xlink:title="Utils to work with std::chrono.">
<polygon fill="none" stroke="black" points="210,-224.5 210,-243.5 306,-243.5 306,-224.5 210,-224.5"/>
<text text-anchor="middle" x="258" y="-231.5" font-family="Helvetica,sans-Serif" font-size="10.00">details/time.hpp</text>
</a>
</g>
</g>
<!-- Node1&#45;&gt;Node3 -->
<g id="edge2" class="edge">
<title>Node1&#45;&gt;Node3</title>
<path fill="none" stroke="midnightblue" d="M324.24,-392.08C313.17,-365.83 280.58,-288.55 265.64,-253.12"/>
<polygon fill="midnightblue" stroke="midnightblue" points="268.72,-251.42 261.61,-243.57 262.27,-254.14 268.72,-251.42"/>
</g>
<!-- Node7 -->
<g id="node7" class="node">
<title>Node7</title>
<g id="a_node7"><a xlink:href="logger_8hpp.html" target="_top" xlink:title="Interface for custom logger function.">
<polygon fill="none" stroke="black" points="656.5,-336.5 656.5,-355.5 757.5,-355.5 757.5,-336.5 656.5,-336.5"/>
<text text-anchor="middle" x="707" y="-343.5" font-family="Helvetica,sans-Serif" font-size="10.00">logger/logger.hpp</text>
</a>
</g>
</g>
<!-- Node1&#45;&gt;Node7 -->
<g id="edge7" class="edge">
<title>Node1&#45;&gt;Node7</title>
<path fill="none" stroke="midnightblue" d="M383.06,-393.38C444.55,-384.84 547.32,-370.47 646.1,-356.12"/>
<polygon fill="midnightblue" stroke="midnightblue" points="646.87,-359.54 656.27,-354.64 645.87,-352.62 646.87,-359.54"/>
</g>
<!-- Node8 -->
<g id="node8" class="node">
<title>Node8</title>
<g id="a_node8"><a xlink:href="threadpool_8hpp.html" target="_top" xlink:title="Threadpool implementations.">
<polygon fill="none" stroke="black" points="524,-336.5 524,-355.5 638,-355.5 638,-336.5 524,-336.5"/>
<text text-anchor="middle" x="581" y="-343.5" font-family="Helvetica,sans-Serif" font-size="10.00">pool/threadpool.hpp</text>
</a>
</g>
</g>
<!-- Node1&#45;&gt;Node8 -->
<g id="edge8" class="edge">
<title>Node1&#45;&gt;Node8</title>
<path fill="none" stroke="midnightblue" d="M368.09,-392.44C412.32,-383 483.54,-367.8 531.28,-357.61"/>
<polygon fill="midnightblue" stroke="midnightblue" points="532.05,-361.03 541.1,-355.52 530.59,-354.18 532.05,-361.03"/>
</g>
<!-- Node3&#45;&gt;Node2 -->
<g id="edge6" class="edge">
<title>Node3&#45;&gt;Node2</title>
<path fill="none" stroke="midnightblue" d="M258.4,-224.41C259.94,-202.16 267.26,-142.23 302,-112 324.96,-92.02 403.81,-79.27 458.33,-72.63"/>
<polygon fill="midnightblue" stroke="midnightblue" points="459.03,-76.07 468.55,-71.42 458.21,-69.12 459.03,-76.07"/>
</g>
<!-- Node4 -->
<g id="node4" class="node">
<title>Node4</title>
<g id="a_node4"><a xlink:title=" ">
<polygon fill="none" stroke="#bfbfbf" points="930,-0.5 930,-19.5 1000,-19.5 1000,-0.5 930,-0.5"/>
<text text-anchor="middle" x="965" y="-7.5" font-family="Helvetica,sans-Serif" font-size="10.00">Windows.h</text>
</a>
</g>
</g>
<!-- Node3&#45;&gt;Node4 -->
<g id="edge3" class="edge">
<title>Node3&#45;&gt;Node4</title>
<path fill="none" stroke="midnightblue" d="M240.78,-224.35C220.25,-212.78 190.1,-191.02 202,-168 259.4,-56.95 337.39,-80.35 460,-56 627.34,-22.77 830.77,-14.06 919.72,-11.79"/>
<polygon fill="midnightblue" stroke="midnightblue" points="919.82,-15.29 929.74,-11.55 919.65,-8.29 919.82,-15.29"/>
</g>
<!-- Node5 -->
<g id="node5" class="node">
<title>Node5</title>
<g id="a_node5"><a xlink:title=" ">
<polygon fill="none" stroke="#bfbfbf" points="210.5,-168.5 210.5,-187.5 249.5,-187.5 249.5,-168.5 210.5,-168.5"/>
<text text-anchor="middle" x="230" y="-175.5" font-family="Helvetica,sans-Serif" font-size="10.00">ratio</text>
</a>
</g>
</g>
<!-- Node3&#45;&gt;Node5 -->
<g id="edge4" class="edge">
<title>Node3&#45;&gt;Node5</title>
<path fill="none" stroke="midnightblue" d="M253.38,-224.08C249.54,-216.69 243.98,-205.95 239.24,-196.81"/>
<polygon fill="midnightblue" stroke="midnightblue" points="242.25,-195.02 234.54,-187.75 236.03,-198.24 242.25,-195.02"/>
</g>
<!-- Node6 -->
<g id="node6" class="node">
<title>Node6</title>
<g id="a_node6"><a xlink:title=" ">
<polygon fill="none" stroke="#bfbfbf" points="66,-168.5 66,-187.5 116,-187.5 116,-168.5 66,-168.5"/>
<text text-anchor="middle" x="91" y="-175.5" font-family="Helvetica,sans-Serif" font-size="10.00">chrono</text>
</a>
</g>
</g>
<!-- Node3&#45;&gt;Node6 -->
<g id="edge5" class="edge">
<title>Node3&#45;&gt;Node6</title>
<path fill="none" stroke="midnightblue" d="M231.54,-224.44C202.99,-215.21 157.4,-200.47 125.93,-190.29"/>
<polygon fill="midnightblue" stroke="midnightblue" points="126.84,-186.91 116.24,-187.16 124.68,-193.57 126.84,-186.91"/>
</g>
<!-- Node8&#45;&gt;Node2 -->
<g id="edge12" class="edge">
<title>Node8&#45;&gt;Node2</title>
<path fill="none" stroke="midnightblue" d="M638.21,-336.96C722.99,-324.99 873.31,-303.49 885,-300 941.78,-283.04 955.72,-275.36 1006,-244 1044.71,-219.86 1105.05,-202.33 1075,-168 1035.13,-122.46 863.11,-148.96 805,-132 784.77,-126.1 782.09,-118.37 762,-112 696.58,-91.25 618.27,-79.07 567.16,-72.72"/>
<polygon fill="midnightblue" stroke="midnightblue" points="567.35,-69.22 557,-71.49 566.51,-76.17 567.35,-69.22"/>
</g>
<!-- Node8&#45;&gt;Node4 -->
<g id="edge9" class="edge">
<title>Node8&#45;&gt;Node4</title>
<path fill="none" stroke="midnightblue" d="M523.97,-340.17C377.58,-327.02 0,-287.97 0,-235 0,-235 0,-235 0,-121 0,-27.24 728.44,-13.37 919.54,-11.34"/>
<polygon fill="midnightblue" stroke="midnightblue" points="919.83,-14.84 929.8,-11.24 919.76,-7.84 919.83,-14.84"/>
</g>
<!-- Node8&#45;&gt;Node6 -->
<g id="edge10" class="edge">
<title>Node8&#45;&gt;Node6</title>
<path fill="none" stroke="midnightblue" d="M523.91,-345.47C433.07,-343.5 253.62,-328.2 133,-244 116.35,-232.38 104.72,-211.83 97.99,-196.94"/>
<polygon fill="midnightblue" stroke="midnightblue" points="101.21,-195.57 94.11,-187.71 94.76,-198.29 101.21,-195.57"/>
</g>
<!-- Node9 -->
<g id="node9" class="node">
<title>Node9</title>
<g id="a_node9"><a xlink:title=" ">
<polygon fill="none" stroke="#bfbfbf" points="996.5,-168.5 996.5,-187.5 1065.5,-187.5 1065.5,-168.5 996.5,-168.5"/>
<text text-anchor="middle" x="1031" y="-175.5" font-family="Helvetica,sans-Serif" font-size="10.00">type_traits</text>
</a>
</g>
</g>
<!-- Node8&#45;&gt;Node9 -->
<g id="edge11" class="edge">
<title>Node8&#45;&gt;Node9</title>
<path fill="none" stroke="midnightblue" d="M634.72,-336.48C696.75,-326.43 794.89,-309.86 831,-300 900.05,-281.14 924.59,-286.75 982,-244 998.95,-231.38 1012.81,-211.33 1021.41,-196.84"/>
<polygon fill="midnightblue" stroke="midnightblue" points="1024.62,-198.27 1026.5,-187.85 1018.53,-194.83 1024.62,-198.27"/>
</g>
<!-- Node10 -->
<g id="node10" class="node">
<title>Node10</title>
<g id="a_node10"><a xlink:href="allocator_8hpp.html" target="_top" xlink:title="Allocator implementations.">
<polygon fill="none" stroke="black" points="950,-112.5 950,-131.5 1066,-131.5 1066,-112.5 950,-112.5"/>
<text text-anchor="middle" x="1008" y="-119.5" font-family="Helvetica,sans-Serif" font-size="10.00">details/allocator.hpp</text>
</a>
</g>
</g>
<!-- Node8&#45;&gt;Node10 -->
<g id="edge13" class="edge">
<title>Node8&#45;&gt;Node10</title>
<path fill="none" stroke="midnightblue" d="M638.35,-337.06C641.62,-336.68 644.85,-336.33 648,-336 703.18,-330.3 1108.21,-340.62 1146,-300 1185.96,-257.05 1180.46,-215.48 1146,-168 1129.86,-145.76 1102.42,-134.3 1076.24,-128.47"/>
<polygon fill="midnightblue" stroke="midnightblue" points="1076.79,-125.01 1066.3,-126.5 1075.43,-131.88 1076.79,-125.01"/>
</g>
<!-- Node14 -->
<g id="node14" class="node">
<title>Node14</title>
<g id="a_node14"><a xlink:href="work_8hpp.html" target="_top" xlink:title="Work callback wrapper and manager implementation.">
<polygon fill="none" stroke="black" points="736,-280.5 736,-299.5 822,-299.5 822,-280.5 736,-280.5"/>
<text text-anchor="middle" x="779" y="-287.5" font-family="Helvetica,sans-Serif" font-size="10.00">pool/work.hpp</text>
</a>
</g>
</g>
<!-- Node8&#45;&gt;Node14 -->
<g id="edge20" class="edge">
<title>Node8&#45;&gt;Node14</title>
<path fill="none" stroke="midnightblue" d="M612.37,-336.44C646.26,-327.2 700.4,-312.44 737.72,-302.26"/>
<polygon fill="midnightblue" stroke="midnightblue" points="739.05,-305.52 747.77,-299.52 737.2,-298.77 739.05,-305.52"/>
</g>
<!-- Node27 -->
<g id="node27" class="node">
<title>Node27</title>
<g id="a_node27"><a xlink:href="wait_8hpp.html" target="_top" xlink:title="Implementation of threadpool wait callback.">
<polygon fill="none" stroke="black" points="634.5,-280.5 634.5,-299.5 717.5,-299.5 717.5,-280.5 634.5,-280.5"/>
<text text-anchor="middle" x="676" y="-287.5" font-family="Helvetica,sans-Serif" font-size="10.00">pool/wait.hpp</text>
</a>
</g>
</g>
<!-- Node8&#45;&gt;Node27 -->
<g id="edge41" class="edge">
<title>Node8&#45;&gt;Node27</title>
<path fill="none" stroke="midnightblue" d="M596.26,-336.32C611.22,-327.82 634.25,-314.73 651.73,-304.8"/>
<polygon fill="midnightblue" stroke="midnightblue" points="653.81,-307.64 660.77,-299.65 650.35,-301.55 653.81,-307.64"/>
</g>
<!-- Node29 -->
<g id="node29" class="node">
<title>Node29</title>
<g id="a_node29"><a xlink:href="timer_8hpp.html" target="_top" xlink:title="Implementation of threadpool timer callback.">
<polygon fill="none" stroke="black" points="440.5,-280.5 440.5,-299.5 527.5,-299.5 527.5,-280.5 440.5,-280.5"/>
<text text-anchor="middle" x="484" y="-287.5" font-family="Helvetica,sans-Serif" font-size="10.00">pool/timer.hpp</text>
</a>
</g>
</g>
<!-- Node8&#45;&gt;Node29 -->
<g id="edge49" class="edge">
<title>Node8&#45;&gt;Node29</title>
<path fill="none" stroke="midnightblue" d="M565.42,-336.32C550,-327.74 526.19,-314.49 508.29,-304.52"/>
<polygon fill="midnightblue" stroke="midnightblue" points="509.99,-301.46 499.55,-299.65 506.58,-307.58 509.99,-301.46"/>
</g>
<!-- Node30 -->
<g id="node30" class="node">
<title>Node30</title>
<g id="a_node30"><a xlink:href="io_8hpp.html" target="_top" xlink:title="Implementation of threadpool IO callback.">
<polygon fill="none" stroke="black" points="545.5,-280.5 545.5,-299.5 616.5,-299.5 616.5,-280.5 545.5,-280.5"/>
<text text-anchor="middle" x="581" y="-287.5" font-family="Helvetica,sans-Serif" font-size="10.00">pool/io.hpp</text>
</a>
</g>
</g>
<!-- Node8&#45;&gt;Node30 -->
<g id="edge57" class="edge">
<title>Node8&#45;&gt;Node30</title>
<path fill="none" stroke="midnightblue" d="M581,-336.08C581,-329.01 581,-318.86 581,-309.99"/>
<polygon fill="midnightblue" stroke="midnightblue" points="584.5,-309.75 581,-299.75 577.5,-309.75 584.5,-309.75"/>
</g>
<!-- Node10&#45;&gt;Node2 -->
<g id="edge15" class="edge">
<title>Node10&#45;&gt;Node2</title>
<path fill="none" stroke="midnightblue" d="M949.76,-114.65C853.2,-104.11 661.3,-83.18 567.36,-72.93"/>
<polygon fill="midnightblue" stroke="midnightblue" points="567.54,-69.43 557.22,-71.82 566.78,-76.39 567.54,-69.43"/>
</g>
<!-- Node10&#45;&gt;Node4 -->
<g id="edge14" class="edge">
<title>Node10&#45;&gt;Node4</title>
<path fill="none" stroke="midnightblue" d="M1004.63,-112.37C997.62,-94.46 981.39,-52.92 972.02,-28.95"/>
<polygon fill="midnightblue" stroke="midnightblue" points="975.26,-27.63 968.36,-19.59 968.74,-30.18 975.26,-27.63"/>
</g>
<!-- Node11 -->
<g id="node11" class="node">
<title>Node11</title>
<g id="a_node11"><a xlink:href="exception_8hpp.html" target="_top" xlink:title="Win32 error wrapper implementations.">
<polygon fill="none" stroke="black" points="1122,-56.5 1122,-75.5 1244,-75.5 1244,-56.5 1122,-56.5"/>
<text text-anchor="middle" x="1183" y="-63.5" font-family="Helvetica,sans-Serif" font-size="10.00">details/exception.hpp</text>
</a>
</g>
</g>
<!-- Node10&#45;&gt;Node11 -->
<g id="edge16" class="edge">
<title>Node10&#45;&gt;Node11</title>
<path fill="none" stroke="midnightblue" d="M1035.73,-112.44C1065.43,-103.28 1112.72,-88.69 1145.67,-78.52"/>
<polygon fill="midnightblue" stroke="midnightblue" points="1146.88,-81.81 1155.4,-75.52 1144.81,-75.12 1146.88,-81.81"/>
</g>
<!-- Node11&#45;&gt;Node4 -->
<g id="edge17" class="edge">
<title>Node11&#45;&gt;Node4</title>
<path fill="none" stroke="midnightblue" d="M1148.46,-56.44C1110.75,-47.1 1050.26,-32.12 1009.14,-21.93"/>
<polygon fill="midnightblue" stroke="midnightblue" points="1009.93,-18.52 999.38,-19.52 1008.25,-25.32 1009.93,-18.52"/>
</g>
<!-- Node12 -->
<g id="node12" class="node">
<title>Node12</title>
<g id="a_node12"><a xlink:title=" ">
<polygon fill="none" stroke="#bfbfbf" points="1186.5,-0.5 1186.5,-19.5 1251.5,-19.5 1251.5,-0.5 1186.5,-0.5"/>
<text text-anchor="middle" x="1219" y="-7.5" font-family="Helvetica,sans-Serif" font-size="10.00">stdexcept</text>
</a>
</g>
</g>
<!-- Node11&#45;&gt;Node12 -->
<g id="edge18" class="edge">
<title>Node11&#45;&gt;Node12</title>
<path fill="none" stroke="midnightblue" d="M1188.94,-56.08C1193.98,-48.53 1201.34,-37.49 1207.51,-28.23"/>
<polygon fill="midnightblue" stroke="midnightblue" points="1210.53,-30.01 1213.17,-19.75 1204.71,-26.13 1210.53,-30.01"/>
</g>
<!-- Node13 -->
<g id="node13" class="node">
<title>Node13</title>
<g id="a_node13"><a xlink:title=" ">
<polygon fill="none" stroke="#bfbfbf" points="1124,-0.5 1124,-19.5 1168,-19.5 1168,-0.5 1124,-0.5"/>
<text text-anchor="middle" x="1146" y="-7.5" font-family="Helvetica,sans-Serif" font-size="10.00">string</text>
</a>
</g>
</g>
<!-- Node11&#45;&gt;Node13 -->
<g id="edge19" class="edge">
<title>Node11&#45;&gt;Node13</title>
<path fill="none" stroke="midnightblue" d="M1176.89,-56.08C1171.72,-48.53 1164.15,-37.49 1157.81,-28.23"/>
<polygon fill="midnightblue" stroke="midnightblue" points="1160.54,-26.02 1152,-19.75 1154.76,-29.98 1160.54,-26.02"/>
</g>
<!-- Node14&#45;&gt;Node2 -->
<g id="edge24" class="edge">
<title>Node14&#45;&gt;Node2</title>
<path fill="none" stroke="midnightblue" d="M816.65,-280.44C852.82,-271.61 904.24,-257.3 920,-244 947.63,-220.68 971.88,-196 949,-168 898.21,-105.84 848.75,-155.55 772,-132 749.91,-125.22 746.06,-118.88 724,-112 671.7,-95.68 610.28,-83.32 567.24,-75.72"/>
<polygon fill="midnightblue" stroke="midnightblue" points="567.7,-72.25 557.25,-73.98 566.51,-79.15 567.7,-72.25"/>
</g>
<!-- Node14&#45;&gt;Node4 -->
<g id="edge21" class="edge">
<title>Node14&#45;&gt;Node4</title>
<path fill="none" stroke="midnightblue" d="M822.21,-280.91C897.3,-265.83 1046.58,-231.05 1075,-188 1093.61,-159.81 1088.59,-142.92 1075,-112 1057.65,-72.51 1016.38,-41.69 989.62,-24.95"/>
<polygon fill="midnightblue" stroke="midnightblue" points="991.19,-21.81 980.82,-19.62 987.57,-27.79 991.19,-21.81"/>
</g>
<!-- Node15 -->
<g id="node15" class="node">
<title>Node15</title>
<g id="a_node15"><a xlink:title=" ">
<polygon fill="none" stroke="#bfbfbf" points="645.5,-224.5 645.5,-243.5 686.5,-243.5 686.5,-224.5 645.5,-224.5"/>
<text text-anchor="middle" x="666" y="-231.5" font-family="Helvetica,sans-Serif" font-size="10.00">tuple</text>
</a>
</g>
</g>
<!-- Node14&#45;&gt;Node15 -->
<g id="edge22" class="edge">
<title>Node14&#45;&gt;Node15</title>
<path fill="none" stroke="midnightblue" d="M761.09,-280.44C742.75,-271.68 713.99,-257.94 692.91,-247.86"/>
<polygon fill="midnightblue" stroke="midnightblue" points="694.35,-244.67 683.82,-243.52 691.33,-250.99 694.35,-244.67"/>
</g>
<!-- Node16 -->
<g id="node16" class="node">
<title>Node16</title>
<g id="a_node16"><a xlink:title=" ">
<polygon fill="none" stroke="#bfbfbf" points="704.5,-224.5 704.5,-243.5 749.5,-243.5 749.5,-224.5 704.5,-224.5"/>
<text text-anchor="middle" x="727" y="-231.5" font-family="Helvetica,sans-Serif" font-size="10.00">utility</text>
</a>
</g>
</g>
<!-- Node14&#45;&gt;Node16 -->
<g id="edge23" class="edge">
<title>Node14&#45;&gt;Node16</title>
<path fill="none" stroke="midnightblue" d="M770.41,-280.08C762.84,-272.22 751.62,-260.57 742.49,-251.08"/>
<polygon fill="midnightblue" stroke="midnightblue" points="744.88,-248.53 735.43,-243.75 739.84,-253.38 744.88,-248.53"/>
</g>
<!-- Node17 -->
<g id="node17" class="node">
<title>Node17</title>
<g id="a_node17"><a xlink:href="utils_8hpp.html" target="_top" xlink:title="Some useful implementation stuff.">
<polygon fill="none" stroke="black" points="844.5,-168.5 844.5,-187.5 939.5,-187.5 939.5,-168.5 844.5,-168.5"/>
<text text-anchor="middle" x="892" y="-175.5" font-family="Helvetica,sans-Serif" font-size="10.00">details/utils.hpp</text>
</a>
</g>
</g>
<!-- Node14&#45;&gt;Node17 -->
<g id="edge25" class="edge">
<title>Node14&#45;&gt;Node17</title>
<path fill="none" stroke="midnightblue" d="M822.22,-285.78C850.55,-281.16 885.63,-270.14 904,-244 913.66,-230.25 908.34,-210.96 902.02,-196.97"/>
<polygon fill="midnightblue" stroke="midnightblue" points="905.06,-195.23 897.44,-187.87 898.81,-198.38 905.06,-195.23"/>
</g>
<!-- Node21 -->
<g id="node21" class="node">
<title>Node21</title>
<g id="a_node21"><a xlink:href="basic__callback_8hpp.html" target="_top" xlink:title="Interfaces and base classes for callback wrappers.">
<polygon fill="none" stroke="black" points="417.5,-224.5 417.5,-243.5 550.5,-243.5 550.5,-224.5 417.5,-224.5"/>
<text text-anchor="middle" x="484" y="-231.5" font-family="Helvetica,sans-Serif" font-size="10.00">pool/basic_callback.hpp</text>
</a>
</g>
</g>
<!-- Node14&#45;&gt;Node21 -->
<g id="edge31" class="edge">
<title>Node14&#45;&gt;Node21</title>
<path fill="none" stroke="midnightblue" d="M735.79,-281.09C684.16,-271.64 597.62,-255.8 540.66,-245.37"/>
<polygon fill="midnightblue" stroke="midnightblue" points="541.21,-241.91 530.74,-243.56 539.95,-248.8 541.21,-241.91"/>
</g>
<!-- Node17&#45;&gt;Node2 -->
<g id="edge26" class="edge">
<title>Node17&#45;&gt;Node2</title>
<path fill="none" stroke="midnightblue" d="M857.74,-168.48C825.49,-160.18 776,-146.68 734,-132 712.18,-124.38 707.9,-119.37 686,-112 644.91,-98.17 597.14,-86.03 562.23,-77.86"/>
<polygon fill="midnightblue" stroke="midnightblue" points="562.81,-74.4 552.28,-75.56 561.23,-81.22 562.81,-74.4"/>
</g>
<!-- Node17&#45;&gt;Node10 -->
<g id="edge30" class="edge">
<title>Node17&#45;&gt;Node10</title>
<path fill="none" stroke="midnightblue" d="M910.38,-168.44C929.22,-159.68 958.73,-145.94 980.38,-135.86"/>
<polygon fill="midnightblue" stroke="midnightblue" points="982.12,-138.91 989.71,-131.52 979.16,-132.56 982.12,-138.91"/>
</g>
<!-- Node18 -->
<g id="node18" class="node">
<title>Node18</title>
<g id="a_node18"><a xlink:href="ntrtl_8h.html" target="_top" xlink:title="Contains necessary declarations/definitions of internal windows objects and functions.">
<polygon fill="none" stroke="black" points="814,-112.5 814,-131.5 894,-131.5 894,-112.5 814,-112.5"/>
<text text-anchor="middle" x="854" y="-119.5" font-family="Helvetica,sans-Serif" font-size="10.00">native/ntrtl.h</text>
</a>
</g>
</g>
<!-- Node17&#45;&gt;Node18 -->
<g id="edge27" class="edge">
<title>Node17&#45;&gt;Node18</title>
<path fill="none" stroke="midnightblue" d="M885.73,-168.08C880.36,-160.46 872.48,-149.26 865.92,-139.94"/>
<polygon fill="midnightblue" stroke="midnightblue" points="868.78,-137.91 860.16,-131.75 863.05,-141.94 868.78,-137.91"/>
</g>
<!-- Node19 -->
<g id="node19" class="node">
<title>Node19</title>
<g id="a_node19"><a xlink:title=" ">
<polygon fill="none" stroke="#bfbfbf" points="738,-56.5 738,-75.5 806,-75.5 806,-56.5 738,-56.5"/>
<text text-anchor="middle" x="772" y="-63.5" font-family="Helvetica,sans-Serif" font-size="10.00">windows.h</text>
</a>
</g>
</g>
<!-- Node18&#45;&gt;Node19 -->
<g id="edge28" class="edge">
<title>Node18&#45;&gt;Node19</title>
<path fill="none" stroke="midnightblue" d="M840.83,-112.32C828.15,-103.98 808.77,-91.21 793.79,-81.35"/>
<polygon fill="midnightblue" stroke="midnightblue" points="795.42,-78.23 785.14,-75.65 791.57,-84.08 795.42,-78.23"/>
</g>
<!-- Node20 -->
<g id="node20" class="node">
<title>Node20</title>
<g id="a_node20"><a xlink:title=" ">
<polygon fill="none" stroke="#bfbfbf" points="824.5,-56.5 824.5,-75.5 889.5,-75.5 889.5,-56.5 824.5,-56.5"/>
<text text-anchor="middle" x="857" y="-63.5" font-family="Helvetica,sans-Serif" font-size="10.00">winternl.h</text>
</a>
</g>
</g>
<!-- Node18&#45;&gt;Node20 -->
<g id="edge29" class="edge">
<title>Node18&#45;&gt;Node20</title>
<path fill="none" stroke="midnightblue" d="M854.5,-112.08C854.89,-105.01 855.45,-94.86 855.95,-85.99"/>
<polygon fill="midnightblue" stroke="midnightblue" points="859.45,-85.93 856.51,-75.75 852.46,-85.54 859.45,-85.93"/>
</g>
<!-- Node21&#45;&gt;Node2 -->
<g id="edge39" class="edge">
<title>Node21&#45;&gt;Node2</title>
<path fill="none" stroke="midnightblue" d="M436.27,-224.5C399.57,-215.47 357.54,-198.22 373,-168 395.43,-124.17 446.72,-95 480.6,-79.72"/>
<polygon fill="midnightblue" stroke="midnightblue" points="482.3,-82.8 490.08,-75.61 479.51,-76.38 482.3,-82.8"/>
</g>
<!-- Node21&#45;&gt;Node4 -->
<g id="edge32" class="edge">
<title>Node21&#45;&gt;Node4</title>
<path fill="none" stroke="midnightblue" d="M545.25,-224.5C613.62,-214.74 719.8,-198.7 759,-188 792.12,-178.96 877.51,-155 903,-132 934.43,-103.64 952.26,-55.61 960.11,-29.41"/>
<polygon fill="midnightblue" stroke="midnightblue" points="963.52,-30.21 962.88,-19.63 956.79,-28.3 963.52,-30.21"/>
</g>
<!-- Node21&#45;&gt;Node9 -->
<g id="edge37" class="edge">
<title>Node21&#45;&gt;Node9</title>
<path fill="none" stroke="midnightblue" d="M550.63,-226.82C640.94,-218.39 807.21,-202.64 949,-188 961.01,-186.76 974,-185.36 986.03,-184.04"/>
<polygon fill="midnightblue" stroke="midnightblue" points="986.74,-187.48 996.3,-182.91 985.97,-180.53 986.74,-187.48"/>
</g>
<!-- Node21&#45;&gt;Node17 -->
<g id="edge40" class="edge">
<title>Node21&#45;&gt;Node17</title>
<path fill="none" stroke="midnightblue" d="M550.69,-224.62C620.4,-215.8 732.93,-201.36 830,-188 831.3,-187.82 832.62,-187.64 833.95,-187.45"/>
<polygon fill="midnightblue" stroke="midnightblue" points="834.87,-190.86 844.28,-186 833.89,-183.93 834.87,-190.86"/>
</g>
<!-- Node22 -->
<g id="node22" class="node">
<title>Node22</title>
<g id="a_node22"><a xlink:title=" ">
<polygon fill="none" stroke="#bfbfbf" points="382,-168.5 382,-187.5 420,-187.5 420,-168.5 382,-168.5"/>
<text text-anchor="middle" x="401" y="-175.5" font-family="Helvetica,sans-Serif" font-size="10.00">map</text>
</a>
</g>
</g>
<!-- Node21&#45;&gt;Node22 -->
<g id="edge33" class="edge">
<title>Node21&#45;&gt;Node22</title>
<path fill="none" stroke="midnightblue" d="M470.66,-224.32C457.84,-215.98 438.22,-203.21 423.06,-193.35"/>
<polygon fill="midnightblue" stroke="midnightblue" points="424.59,-190.17 414.3,-187.65 420.78,-196.04 424.59,-190.17"/>
</g>
<!-- Node23 -->
<g id="node23" class="node">
<title>Node23</title>
<g id="a_node23"><a xlink:title=" ">
<polygon fill="none" stroke="#bfbfbf" points="438,-168.5 438,-187.5 486,-187.5 486,-168.5 438,-168.5"/>
<text text-anchor="middle" x="462" y="-175.5" font-family="Helvetica,sans-Serif" font-size="10.00">mutex</text>
</a>
</g>
</g>
<!-- Node21&#45;&gt;Node23 -->
<g id="edge34" class="edge">
<title>Node21&#45;&gt;Node23</title>
<path fill="none" stroke="midnightblue" d="M480.37,-224.08C477.39,-216.77 473.07,-206.18 469.38,-197.1"/>
<polygon fill="midnightblue" stroke="midnightblue" points="472.58,-195.69 465.57,-187.75 466.1,-198.33 472.58,-195.69"/>
</g>
<!-- Node24 -->
<g id="node24" class="node">
<title>Node24</title>
<g id="a_node24"><a xlink:title=" ">
<polygon fill="none" stroke="#bfbfbf" points="504,-168.5 504,-187.5 562,-187.5 562,-168.5 504,-168.5"/>
<text text-anchor="middle" x="533" y="-175.5" font-family="Helvetica,sans-Serif" font-size="10.00">memory</text>
</a>
</g>
</g>
<!-- Node21&#45;&gt;Node24 -->
<g id="edge35" class="edge">
<title>Node21&#45;&gt;Node24</title>
<path fill="none" stroke="midnightblue" d="M492.09,-224.08C499.16,-216.3 509.59,-204.8 518.15,-195.37"/>
<polygon fill="midnightblue" stroke="midnightblue" points="520.93,-197.51 525.06,-187.75 515.75,-192.8 520.93,-197.51"/>
</g>
<!-- Node25 -->
<g id="node25" class="node">
<title>Node25</title>
<g id="a_node25"><a xlink:title=" ">
<polygon fill="none" stroke="#bfbfbf" points="580.5,-168.5 580.5,-187.5 645.5,-187.5 645.5,-168.5 580.5,-168.5"/>
<text text-anchor="middle" x="613" y="-175.5" font-family="Helvetica,sans-Serif" font-size="10.00">functional</text>
</a>
</g>
</g>
<!-- Node21&#45;&gt;Node25 -->
<g id="edge36" class="edge">
<title>Node21&#45;&gt;Node25</title>
<path fill="none" stroke="midnightblue" d="M504.44,-224.44C525.67,-215.56 559.1,-201.56 583.25,-191.45"/>
<polygon fill="midnightblue" stroke="midnightblue" points="584.78,-194.61 592.66,-187.52 582.08,-188.15 584.78,-194.61"/>
</g>
<!-- Node26 -->
<g id="node26" class="node">
<title>Node26</title>
<g id="a_node26"><a xlink:title=" ">
<polygon fill="none" stroke="#bfbfbf" points="664,-168.5 664,-187.5 750,-187.5 750,-168.5 664,-168.5"/>
<text text-anchor="middle" x="707" y="-175.5" font-family="Helvetica,sans-Serif" font-size="10.00">shared_mutex</text>
</a>
</g>
</g>
<!-- Node21&#45;&gt;Node26 -->
<g id="edge38" class="edge">
<title>Node21&#45;&gt;Node26</title>
<path fill="none" stroke="midnightblue" d="M519.34,-224.44C557.91,-215.1 619.78,-200.12 661.85,-189.93"/>
<polygon fill="midnightblue" stroke="midnightblue" points="662.93,-193.27 671.83,-187.52 661.29,-186.47 662.93,-193.27"/>
</g>
<!-- Node27&#45;&gt;Node2 -->
<g id="edge45" class="edge">
<title>Node27&#45;&gt;Node2</title>
<path fill="none" stroke="midnightblue" d="M708.18,-280.49C726.54,-273.8 748.02,-262.45 759,-244 776.28,-214.98 777.81,-196.06 759,-168 752.67,-158.56 610.56,-103.9 545.27,-79.16"/>
<polygon fill="midnightblue" stroke="midnightblue" points="546.45,-75.86 535.86,-75.59 543.97,-82.41 546.45,-75.86"/>
</g>
<!-- Node27&#45;&gt;Node3 -->
<g id="edge46" class="edge">
<title>Node27&#45;&gt;Node3</title>
<path fill="none" stroke="midnightblue" d="M634.29,-281.31C631.49,-280.85 628.7,-280.41 626,-280 516.96,-263.53 389.05,-248.95 316.36,-241.11"/>
<polygon fill="midnightblue" stroke="midnightblue" points="316.36,-237.59 306.05,-240 315.62,-244.55 316.36,-237.59"/>
</g>
<!-- Node27&#45;&gt;Node15 -->
<g id="edge42" class="edge">
<title>Node27&#45;&gt;Node15</title>
<path fill="none" stroke="midnightblue" d="M674.35,-280.08C673.02,-272.93 671.12,-262.64 669.46,-253.69"/>
<polygon fill="midnightblue" stroke="midnightblue" points="672.88,-252.95 667.62,-243.75 666,-254.22 672.88,-252.95"/>
</g>
<!-- Node27&#45;&gt;Node16 -->
<g id="edge43" class="edge">
<title>Node27&#45;&gt;Node16</title>
<path fill="none" stroke="midnightblue" d="M684.42,-280.08C691.85,-272.22 702.85,-260.57 711.81,-251.08"/>
<polygon fill="midnightblue" stroke="midnightblue" points="714.41,-253.42 718.74,-243.75 709.32,-248.62 714.41,-253.42"/>
</g>
<!-- Node27&#45;&gt;Node17 -->
<g id="edge47" class="edge">
<title>Node27&#45;&gt;Node17</title>
<path fill="none" stroke="midnightblue" d="M717.93,-281.59C771.79,-271.73 859.74,-254.34 871,-244 883.95,-232.11 888.94,-212.2 890.85,-197.54"/>
<polygon fill="midnightblue" stroke="midnightblue" points="894.34,-197.86 891.79,-187.58 887.37,-197.2 894.34,-197.86"/>
</g>
<!-- Node27&#45;&gt;Node21 -->
<g id="edge48" class="edge">
<title>Node27&#45;&gt;Node21</title>
<path fill="none" stroke="midnightblue" d="M645.58,-280.44C612.72,-271.2 560.22,-256.44 524.03,-246.26"/>
<polygon fill="midnightblue" stroke="midnightblue" points="524.85,-242.85 514.28,-243.52 522.96,-249.59 524.85,-242.85"/>
</g>
<!-- Node28 -->
<g id="node28" class="node">
<title>Node28</title>
<g id="a_node28"><a xlink:title=" ">
<polygon fill="none" stroke="#bfbfbf" points="806,-224.5 806,-243.5 862,-243.5 862,-224.5 806,-224.5"/>
<text text-anchor="middle" x="834" y="-231.5" font-family="Helvetica,sans-Serif" font-size="10.00">optional</text>
</a>
</g>
</g>
<!-- Node27&#45;&gt;Node28 -->
<g id="edge44" class="edge">
<title>Node27&#45;&gt;Node28</title>
<path fill="none" stroke="midnightblue" d="M701.04,-280.44C727.62,-271.36 769.81,-256.94 799.52,-246.78"/>
<polygon fill="midnightblue" stroke="midnightblue" points="800.75,-250.06 809.08,-243.52 798.49,-243.44 800.75,-250.06"/>
</g>
<!-- Node29&#45;&gt;Node2 -->
<g id="edge53" class="edge">
<title>Node29&#45;&gt;Node2</title>
<path fill="none" stroke="midnightblue" d="M440.27,-288.67C368.65,-287.1 231.24,-279.43 201,-244 193.58,-235.31 182.72,-204.5 202,-168 222.1,-129.95 241.43,-128.92 281,-112 338.64,-87.35 410.12,-76.1 458.38,-71.03"/>
<polygon fill="midnightblue" stroke="midnightblue" points="459.01,-74.48 468.62,-70.01 458.32,-67.51 459.01,-74.48"/>
</g>
<!-- Node29&#45;&gt;Node3 -->
<g id="edge54" class="edge">
<title>Node29&#45;&gt;Node3</title>
<path fill="none" stroke="midnightblue" d="M448.19,-280.44C409.01,-271.08 346.12,-256.06 303.48,-245.87"/>
<polygon fill="midnightblue" stroke="midnightblue" points="304.18,-242.44 293.64,-243.52 302.56,-249.24 304.18,-242.44"/>
</g>
<!-- Node29&#45;&gt;Node6 -->
<g id="edge52" class="edge">
<title>Node29&#45;&gt;Node6</title>
<path fill="none" stroke="midnightblue" d="M440.21,-285.77C365.25,-279.74 215.79,-265.41 168,-244 142.95,-232.77 119.67,-210.88 105.41,-195.62"/>
<polygon fill="midnightblue" stroke="midnightblue" points="107.77,-193.01 98.46,-187.94 102.57,-197.7 107.77,-193.01"/>
</g>
<!-- Node29&#45;&gt;Node15 -->
<g id="edge50" class="edge">
<title>Node29&#45;&gt;Node15</title>
<path fill="none" stroke="midnightblue" d="M512.84,-280.44C546.36,-270.5 601.43,-254.16 635.6,-244.02"/>
<polygon fill="midnightblue" stroke="midnightblue" points="636.9,-247.29 645.49,-241.09 634.9,-240.58 636.9,-247.29"/>
</g>
<!-- Node29&#45;&gt;Node16 -->
<g id="edge51" class="edge">
<title>Node29&#45;&gt;Node16</title>
<path fill="none" stroke="midnightblue" d="M527.66,-280.71C568.57,-272.72 631.62,-259.85 694.66,-244.21"/>
<polygon fill="midnightblue" stroke="midnightblue" points="695.52,-247.6 704.37,-241.78 693.81,-240.81 695.52,-247.6"/>
</g>
<!-- Node29&#45;&gt;Node17 -->
<g id="edge55" class="edge">
<title>Node29&#45;&gt;Node17</title>
<path fill="none" stroke="midnightblue" d="M497.24,-280.27C519.39,-266.11 565.79,-238.25 609,-224 619.62,-220.5 754.94,-199.71 834.54,-187.65"/>
<polygon fill="midnightblue" stroke="midnightblue" points="835.07,-191.11 844.44,-186.16 834.02,-184.19 835.07,-191.11"/>
</g>
<!-- Node29&#45;&gt;Node21 -->
<g id="edge56" class="edge">
<title>Node29&#45;&gt;Node21</title>
<path fill="none" stroke="midnightblue" d="M484,-280.08C484,-273.01 484,-262.86 484,-253.99"/>
<polygon fill="midnightblue" stroke="midnightblue" points="487.5,-253.75 484,-243.75 480.5,-253.75 487.5,-253.75"/>
</g>
<!-- Node30&#45;&gt;Node2 -->
<g id="edge60" class="edge">
<title>Node30&#45;&gt;Node2</title>
<path fill="none" stroke="midnightblue" d="M545.23,-280.93C498.27,-270.13 420.42,-251.49 409,-244 382.53,-226.64 375.35,-217.91 365,-188 353.08,-153.52 368.48,-135.95 396,-112 414.44,-95.95 439.21,-85.33 461.22,-78.45"/>
<polygon fill="midnightblue" stroke="midnightblue" points="462.49,-81.73 471.1,-75.55 460.52,-75.01 462.49,-81.73"/>
</g>
<!-- Node30&#45;&gt;Node3 -->
<g id="edge61" class="edge">
<title>Node30&#45;&gt;Node3</title>
<path fill="none" stroke="midnightblue" d="M545.48,-281.6C542.62,-281.05 539.76,-280.5 537,-280 461.12,-266.13 373.22,-252.32 316.67,-243.73"/>
<polygon fill="midnightblue" stroke="midnightblue" points="316.9,-240.23 306.49,-242.19 315.86,-247.15 316.9,-240.23"/>
</g>
<!-- Node30&#45;&gt;Node15 -->
<g id="edge58" class="edge">
<title>Node30&#45;&gt;Node15</title>
<path fill="none" stroke="midnightblue" d="M594.66,-280.32C607.92,-271.9 628.27,-258.97 643.85,-249.07"/>
<polygon fill="midnightblue" stroke="midnightblue" points="645.81,-251.97 652.38,-243.65 642.06,-246.06 645.81,-251.97"/>
</g>
<!-- Node30&#45;&gt;Node16 -->
<g id="edge59" class="edge">
<title>Node30&#45;&gt;Node16</title>
<path fill="none" stroke="midnightblue" d="M604.13,-280.44C628.63,-271.39 667.46,-257.02 694.91,-246.87"/>
<polygon fill="midnightblue" stroke="midnightblue" points="696.29,-250.09 704.45,-243.34 693.86,-243.53 696.29,-250.09"/>
</g>
<!-- Node30&#45;&gt;Node17 -->
<g id="edge62" class="edge">
<title>Node30&#45;&gt;Node17</title>
<path fill="none" stroke="midnightblue" d="M585.87,-280.15C594.27,-265.8 612.92,-237.7 637,-224 645.56,-219.13 761.91,-199.84 834.46,-188.15"/>
<polygon fill="midnightblue" stroke="midnightblue" points="835.07,-191.6 844.38,-186.56 833.96,-184.69 835.07,-191.6"/>
</g>
<!-- Node30&#45;&gt;Node21 -->
<g id="edge63" class="edge">
<title>Node30&#45;&gt;Node21</title>
<path fill="none" stroke="midnightblue" d="M565.42,-280.32C550,-271.74 526.19,-258.49 508.29,-248.52"/>
<polygon fill="midnightblue" stroke="midnightblue" points="509.99,-245.46 499.55,-243.65 506.58,-251.58 509.99,-245.46"/>
</g>
</g>
</svg>
