<?xml version="1.0" encoding="UTF-8" standalone="no"?>
<!DOCTYPE svg PUBLIC "-//W3C//DTD SVG 1.1//EN"
 "http://www.w3.org/Graphics/SVG/1.1/DTD/svg11.dtd">
<!-- Generated by graphviz version 2.43.0 (0)
 -->
<!-- Title: ntp/include/ntp.hpp Pages: 1 -->
<svg width="1300pt" height="420pt"
 viewBox="0.00 0.00 1300.00 420.00" xmlns="http://www.w3.org/2000/svg" xmlns:xlink="http://www.w3.org/1999/xlink">
<g id="graph0" class="graph" transform="scale(1 1) rotate(0) translate(4 416)">
<title>ntp/include/ntp.hpp</title>
<!-- Node1 -->
<g id="node1" class="node">
<title>Node1</title>
<g id="a_node1"><a xlink:title="Main ntp library header.">
<polygon fill="#bfbfbf" stroke="black" points="898,-392.5 898,-411.5 1008,-411.5 1008,-392.5 898,-392.5"/>
<text text-anchor="middle" x="953" y="-399.5" font-family="Helvetica,sans-Serif" font-size="10.00">ntp/include/ntp.hpp</text>
</a>
</g>
</g>
<!-- Node2 -->
<g id="node2" class="node">
<title>Node2</title>
<g id="a_node2"><a xlink:href="ntp__config_8hpp_source.html" target="_top" xlink:title=" ">
<polygon fill="none" stroke="black" points="897,-56.5 897,-75.5 985,-75.5 985,-56.5 897,-56.5"/>
<text text-anchor="middle" x="941" y="-63.5" font-family="Helvetica,sans-Serif" font-size="10.00">ntp_config.hpp</text>
</a>
</g>
</g>
<!-- Node1&#45;&gt;Node2 -->
<g id="edge1" class="edge">
<title>Node1&#45;&gt;Node2</title>
<path fill="none" stroke="midnightblue" d="M965.84,-392.22C978.29,-383.52 997.52,-369.55 1013,-356 1065.5,-310.05 1096.02,-308.34 1123,-244 1136.07,-212.85 1131.76,-200.88 1124,-168 1117.61,-140.92 1117.37,-129.82 1096,-112 1080.39,-98.99 1032.72,-86.28 994.32,-77.7"/>
<polygon fill="midnightblue" stroke="midnightblue" points="994.79,-74.22 984.28,-75.5 993.3,-81.06 994.79,-74.22"/>
</g>
<!-- Node3 -->
<g id="node3" class="node">
<title>Node3</title>
<g id="a_node3"><a xlink:href="logger_8hpp.html" target="_top" xlink:title="Interface for custom logger function.">
<polygon fill="none" stroke="black" points="902.5,-336.5 902.5,-355.5 1003.5,-355.5 1003.5,-336.5 902.5,-336.5"/>
<text text-anchor="middle" x="953" y="-343.5" font-family="Helvetica,sans-Serif" font-size="10.00">logger/logger.hpp</text>
</a>
</g>
</g>
<!-- Node1&#45;&gt;Node3 -->
<g id="edge2" class="edge">
<title>Node1&#45;&gt;Node3</title>
<path fill="none" stroke="midnightblue" d="M953,-392.08C953,-385.01 953,-374.86 953,-365.99"/>
<polygon fill="midnightblue" stroke="midnightblue" points="956.5,-365.75 953,-355.75 949.5,-365.75 956.5,-365.75"/>
</g>
<!-- Node4 -->
<g id="node4" class="node">
<title>Node4</title>
<g id="a_node4"><a xlink:href="threadpool_8hpp.html" target="_top" xlink:title="Threadpool implementations.">
<polygon fill="none" stroke="black" points="616,-336.5 616,-355.5 730,-355.5 730,-336.5 616,-336.5"/>
<text text-anchor="middle" x="673" y="-343.5" font-family="Helvetica,sans-Serif" font-size="10.00">pool/threadpool.hpp</text>
</a>
</g>
</g>
<!-- Node1&#45;&gt;Node4 -->
<g id="edge3" class="edge">
<title>Node1&#45;&gt;Node4</title>
<path fill="none" stroke="midnightblue" d="M908.63,-392.44C859.38,-382.94 779.87,-367.61 727.03,-357.42"/>
<polygon fill="midnightblue" stroke="midnightblue" points="727.64,-353.97 717.16,-355.52 726.32,-360.85 727.64,-353.97"/>
</g>
<!-- Node4&#45;&gt;Node2 -->
<g id="edge7" class="edge">
<title>Node4&#45;&gt;Node2</title>
<path fill="none" stroke="midnightblue" d="M730.13,-342.55C848.58,-335.9 1110,-312.45 1110,-235 1110,-235 1110,-235 1110,-177 1110,-120.99 1044,-92.03 994.49,-78.18"/>
<polygon fill="midnightblue" stroke="midnightblue" points="995.09,-74.72 984.52,-75.53 993.29,-81.48 995.09,-74.72"/>
</g>
<!-- Node5 -->
<g id="node5" class="node">
<title>Node5</title>
<g id="a_node5"><a xlink:title=" ">
<polygon fill="none" stroke="#bfbfbf" points="423,-0.5 423,-19.5 493,-19.5 493,-0.5 423,-0.5"/>
<text text-anchor="middle" x="458" y="-7.5" font-family="Helvetica,sans-Serif" font-size="10.00">Windows.h</text>
</a>
</g>
</g>
<!-- Node4&#45;&gt;Node5 -->
<g id="edge4" class="edge">
<title>Node4&#45;&gt;Node5</title>
<path fill="none" stroke="midnightblue" d="M615.91,-341.66C453.41,-331.4 0,-297.19 0,-235 0,-235 0,-235 0,-121 0,-36.74 296.76,-16.86 412.52,-12.31"/>
<polygon fill="midnightblue" stroke="midnightblue" points="412.96,-15.79 422.82,-11.92 412.7,-8.8 412.96,-15.79"/>
</g>
<!-- Node6 -->
<g id="node6" class="node">
<title>Node6</title>
<g id="a_node6"><a xlink:title=" ">
<polygon fill="none" stroke="#bfbfbf" points="334,-168.5 334,-187.5 384,-187.5 384,-168.5 334,-168.5"/>
<text text-anchor="middle" x="359" y="-175.5" font-family="Helvetica,sans-Serif" font-size="10.00">chrono</text>
</a>
</g>
</g>
<!-- Node4&#45;&gt;Node6 -->
<g id="edge5" class="edge">
<title>Node4&#45;&gt;Node6</title>
<path fill="none" stroke="midnightblue" d="M623.3,-336.44C543.34,-321.51 392.12,-288.03 363,-244 354.04,-230.46 353.88,-211.65 355.46,-197.75"/>
<polygon fill="midnightblue" stroke="midnightblue" points="358.92,-198.26 356.96,-187.85 352,-197.21 358.92,-198.26"/>
</g>
<!-- Node7 -->
<g id="node7" class="node">
<title>Node7</title>
<g id="a_node7"><a xlink:title=" ">
<polygon fill="none" stroke="#bfbfbf" points="28.5,-168.5 28.5,-187.5 97.5,-187.5 97.5,-168.5 28.5,-168.5"/>
<text text-anchor="middle" x="63" y="-175.5" font-family="Helvetica,sans-Serif" font-size="10.00">type_traits</text>
</a>
</g>
</g>
<!-- Node4&#45;&gt;Node7 -->
<g id="edge6" class="edge">
<title>Node4&#45;&gt;Node7</title>
<path fill="none" stroke="midnightblue" d="M615.8,-337.61C563.35,-330.22 483.78,-317.44 416,-300 294.16,-268.66 154.05,-215.24 93.49,-191.27"/>
<polygon fill="midnightblue" stroke="midnightblue" points="94.72,-188 84.13,-187.55 92.13,-194.5 94.72,-188"/>
</g>
<!-- Node8 -->
<g id="node8" class="node">
<title>Node8</title>
<g id="a_node8"><a xlink:href="allocator_8hpp.html" target="_top" xlink:title="Allocator implementations.">
<polygon fill="none" stroke="black" points="1176,-112.5 1176,-131.5 1292,-131.5 1292,-112.5 1176,-112.5"/>
<text text-anchor="middle" x="1234" y="-119.5" font-family="Helvetica,sans-Serif" font-size="10.00">details/allocator.hpp</text>
</a>
</g>
</g>
<!-- Node4&#45;&gt;Node8 -->
<g id="edge8" class="edge">
<title>Node4&#45;&gt;Node8</title>
<path fill="none" stroke="midnightblue" d="M730.32,-342.1C844.29,-335.93 1091.27,-320.39 1124,-300 1184.11,-262.55 1216.61,-178.88 1228.58,-141.58"/>
<polygon fill="midnightblue" stroke="midnightblue" points="1232.06,-142.17 1231.64,-131.59 1225.36,-140.12 1232.06,-142.17"/>
</g>
<!-- Node12 -->
<g id="node12" class="node">
<title>Node12</title>
<g id="a_node12"><a xlink:href="work_8hpp.html" target="_top" xlink:title="Work callback wrapper and manager implementation.">
<polygon fill="none" stroke="black" points="484,-280.5 484,-299.5 570,-299.5 570,-280.5 484,-280.5"/>
<text text-anchor="middle" x="527" y="-287.5" font-family="Helvetica,sans-Serif" font-size="10.00">pool/work.hpp</text>
</a>
</g>
</g>
<!-- Node4&#45;&gt;Node12 -->
<g id="edge15" class="edge">
<title>Node4&#45;&gt;Node12</title>
<path fill="none" stroke="midnightblue" d="M649.87,-336.44C625.52,-327.44 586.99,-313.19 559.58,-303.05"/>
<polygon fill="midnightblue" stroke="midnightblue" points="560.62,-299.7 550.03,-299.52 558.19,-306.27 560.62,-299.7"/>
</g>
<!-- Node25 -->
<g id="node25" class="node">
<title>Node25</title>
<g id="a_node25"><a xlink:href="wait_8hpp.html" target="_top" xlink:title="Implementation of threadpool wait callback.">
<polygon fill="none" stroke="black" points="782.5,-280.5 782.5,-299.5 865.5,-299.5 865.5,-280.5 782.5,-280.5"/>
<text text-anchor="middle" x="824" y="-287.5" font-family="Helvetica,sans-Serif" font-size="10.00">pool/wait.hpp</text>
</a>
</g>
</g>
<!-- Node4&#45;&gt;Node25 -->
<g id="edge36" class="edge">
<title>Node4&#45;&gt;Node25</title>
<path fill="none" stroke="midnightblue" d="M696.93,-336.44C722.22,-327.4 762.3,-313.06 790.68,-302.92"/>
<polygon fill="midnightblue" stroke="midnightblue" points="791.95,-306.18 800.19,-299.52 789.59,-299.59 791.95,-306.18"/>
</g>
<!-- Node29 -->
<g id="node29" class="node">
<title>Node29</title>
<g id="a_node29"><a xlink:href="timer_8hpp.html" target="_top" xlink:title="Implementation of threadpool timer callback.">
<polygon fill="none" stroke="black" points="677.5,-280.5 677.5,-299.5 764.5,-299.5 764.5,-280.5 677.5,-280.5"/>
<text text-anchor="middle" x="721" y="-287.5" font-family="Helvetica,sans-Serif" font-size="10.00">pool/timer.hpp</text>
</a>
</g>
</g>
<!-- Node4&#45;&gt;Node29 -->
<g id="edge48" class="edge">
<title>Node4&#45;&gt;Node29</title>
<path fill="none" stroke="midnightblue" d="M680.93,-336.08C687.85,-328.3 698.07,-316.8 706.45,-307.37"/>
<polygon fill="midnightblue" stroke="midnightblue" points="709.19,-309.55 713.22,-299.75 703.96,-304.9 709.19,-309.55"/>
</g>
<!-- Node30 -->
<g id="node30" class="node">
<title>Node30</title>
<g id="a_node30"><a xlink:href="io_8hpp.html" target="_top" xlink:title="Implementation of threadpool IO callback.">
<polygon fill="none" stroke="black" points="588.5,-280.5 588.5,-299.5 659.5,-299.5 659.5,-280.5 588.5,-280.5"/>
<text text-anchor="middle" x="624" y="-287.5" font-family="Helvetica,sans-Serif" font-size="10.00">pool/io.hpp</text>
</a>
</g>
</g>
<!-- Node4&#45;&gt;Node30 -->
<g id="edge55" class="edge">
<title>Node4&#45;&gt;Node30</title>
<path fill="none" stroke="midnightblue" d="M664.91,-336.08C657.84,-328.3 647.41,-316.8 638.85,-307.37"/>
<polygon fill="midnightblue" stroke="midnightblue" points="641.25,-304.8 631.94,-299.75 636.07,-309.51 641.25,-304.8"/>
</g>
<!-- Node8&#45;&gt;Node2 -->
<g id="edge10" class="edge">
<title>Node8&#45;&gt;Node2</title>
<path fill="none" stroke="midnightblue" d="M1187.57,-112.44C1135.32,-102.81 1050.52,-87.18 995.25,-77"/>
<polygon fill="midnightblue" stroke="midnightblue" points="995.76,-73.53 985.29,-75.16 994.49,-80.42 995.76,-73.53"/>
</g>
<!-- Node8&#45;&gt;Node5 -->
<g id="edge9" class="edge">
<title>Node8&#45;&gt;Node5</title>
<path fill="none" stroke="midnightblue" d="M1208.42,-112.43C1164.92,-98.22 1073.5,-69.98 994,-56 814.01,-24.34 595.96,-14.79 503.24,-12.04"/>
<polygon fill="midnightblue" stroke="midnightblue" points="503.18,-8.54 493.08,-11.76 502.98,-15.54 503.18,-8.54"/>
</g>
<!-- Node9 -->
<g id="node9" class="node">
<title>Node9</title>
<g id="a_node9"><a xlink:href="exception_8hpp.html" target="_top" xlink:title="Win32 error wrapper implementations.">
<polygon fill="none" stroke="black" points="1154,-56.5 1154,-75.5 1276,-75.5 1276,-56.5 1154,-56.5"/>
<text text-anchor="middle" x="1215" y="-63.5" font-family="Helvetica,sans-Serif" font-size="10.00">details/exception.hpp</text>
</a>
</g>
</g>
<!-- Node8&#45;&gt;Node9 -->
<g id="edge11" class="edge">
<title>Node8&#45;&gt;Node9</title>
<path fill="none" stroke="midnightblue" d="M1230.86,-112.08C1228.32,-104.85 1224.64,-94.41 1221.47,-85.4"/>
<polygon fill="midnightblue" stroke="midnightblue" points="1224.7,-84.02 1218.08,-75.75 1218.1,-86.35 1224.7,-84.02"/>
</g>
<!-- Node9&#45;&gt;Node5 -->
<g id="edge12" class="edge">
<title>Node9&#45;&gt;Node5</title>
<path fill="none" stroke="midnightblue" d="M1153.72,-60.01C1136.96,-58.67 1118.78,-57.25 1102,-56 877.52,-39.22 608.86,-21.07 503.53,-14.03"/>
<polygon fill="midnightblue" stroke="midnightblue" points="503.47,-10.52 493.26,-13.34 503.01,-17.5 503.47,-10.52"/>
</g>
<!-- Node10 -->
<g id="node10" class="node">
<title>Node10</title>
<g id="a_node10"><a xlink:title=" ">
<polygon fill="none" stroke="#bfbfbf" points="1145.5,-0.5 1145.5,-19.5 1210.5,-19.5 1210.5,-0.5 1145.5,-0.5"/>
<text text-anchor="middle" x="1178" y="-7.5" font-family="Helvetica,sans-Serif" font-size="10.00">stdexcept</text>
</a>
</g>
</g>
<!-- Node9&#45;&gt;Node10 -->
<g id="edge13" class="edge">
<title>Node9&#45;&gt;Node10</title>
<path fill="none" stroke="midnightblue" d="M1208.89,-56.08C1203.72,-48.53 1196.15,-37.49 1189.81,-28.23"/>
<polygon fill="midnightblue" stroke="midnightblue" points="1192.54,-26.02 1184,-19.75 1186.76,-29.98 1192.54,-26.02"/>
</g>
<!-- Node11 -->
<g id="node11" class="node">
<title>Node11</title>
<g id="a_node11"><a xlink:title=" ">
<polygon fill="none" stroke="#bfbfbf" points="1229,-0.5 1229,-19.5 1273,-19.5 1273,-0.5 1229,-0.5"/>
<text text-anchor="middle" x="1251" y="-7.5" font-family="Helvetica,sans-Serif" font-size="10.00">string</text>
</a>
</g>
</g>
<!-- Node9&#45;&gt;Node11 -->
<g id="edge14" class="edge">
<title>Node9&#45;&gt;Node11</title>
<path fill="none" stroke="midnightblue" d="M1220.94,-56.08C1225.98,-48.53 1233.34,-37.49 1239.51,-28.23"/>
<polygon fill="midnightblue" stroke="midnightblue" points="1242.53,-30.01 1245.17,-19.75 1236.71,-26.13 1242.53,-30.01"/>
</g>
<!-- Node12&#45;&gt;Node2 -->
<g id="edge19" class="edge">
<title>Node12&#45;&gt;Node2</title>
<path fill="none" stroke="midnightblue" d="M483.67,-286.87C382.49,-280.38 144.81,-255.62 221,-168 264.74,-117.7 726.52,-81.64 886.67,-70.57"/>
<polygon fill="midnightblue" stroke="midnightblue" points="887.04,-74.05 896.77,-69.88 886.56,-67.07 887.04,-74.05"/>
</g>
<!-- Node12&#45;&gt;Node5 -->
<g id="edge16" class="edge">
<title>Node12&#45;&gt;Node5</title>
<path fill="none" stroke="midnightblue" d="M483.78,-285.06C403.19,-277.38 236.21,-259.78 215,-244 170.97,-211.24 174.83,-185.59 163,-132 158.33,-110.84 167.25,-58.83 170,-56 202.78,-22.2 340.1,-13.76 412.64,-11.67"/>
<polygon fill="midnightblue" stroke="midnightblue" points="412.95,-15.17 422.85,-11.41 412.77,-8.17 412.95,-15.17"/>
</g>
<!-- Node13 -->
<g id="node13" class="node">
<title>Node13</title>
<g id="a_node13"><a xlink:title=" ">
<polygon fill="none" stroke="#bfbfbf" points="700.5,-224.5 700.5,-243.5 741.5,-243.5 741.5,-224.5 700.5,-224.5"/>
<text text-anchor="middle" x="721" y="-231.5" font-family="Helvetica,sans-Serif" font-size="10.00">tuple</text>
</a>
</g>
</g>
<!-- Node12&#45;&gt;Node13 -->
<g id="edge17" class="edge">
<title>Node12&#45;&gt;Node13</title>
<path fill="none" stroke="midnightblue" d="M559.65,-280.45C590.99,-272.17 639.87,-259.05 690.6,-244.34"/>
<polygon fill="midnightblue" stroke="midnightblue" points="691.81,-247.64 700.43,-241.48 689.85,-240.92 691.81,-247.64"/>
</g>
<!-- Node14 -->
<g id="node14" class="node">
<title>Node14</title>
<g id="a_node14"><a xlink:title=" ">
<polygon fill="none" stroke="#bfbfbf" points="637.5,-224.5 637.5,-243.5 682.5,-243.5 682.5,-224.5 637.5,-224.5"/>
<text text-anchor="middle" x="660" y="-231.5" font-family="Helvetica,sans-Serif" font-size="10.00">utility</text>
</a>
</g>
</g>
<!-- Node12&#45;&gt;Node14 -->
<g id="edge18" class="edge">
<title>Node12&#45;&gt;Node14</title>
<path fill="none" stroke="midnightblue" d="M548.07,-280.44C570.06,-271.52 604.73,-257.44 629.66,-247.32"/>
<polygon fill="midnightblue" stroke="midnightblue" points="631.08,-250.52 639.02,-243.52 628.44,-244.04 631.08,-250.52"/>
</g>
<!-- Node15 -->
<g id="node15" class="node">
<title>Node15</title>
<g id="a_node15"><a xlink:href="utils_8hpp.html" target="_top" xlink:title="Some useful implementation stuff.">
<polygon fill="none" stroke="black" points="760.5,-168.5 760.5,-187.5 855.5,-187.5 855.5,-168.5 760.5,-168.5"/>
<text text-anchor="middle" x="808" y="-175.5" font-family="Helvetica,sans-Serif" font-size="10.00">details/utils.hpp</text>
</a>
</g>
</g>
<!-- Node12&#45;&gt;Node15 -->
<g id="edge20" class="edge">
<title>Node12&#45;&gt;Node15</title>
<path fill="none" stroke="midnightblue" d="M536.07,-280.41C551.33,-266.44 583.66,-238.85 616,-224 658.79,-204.35 711.02,-192.83 750.19,-186.37"/>
<polygon fill="midnightblue" stroke="midnightblue" points="750.78,-189.82 760.11,-184.79 749.69,-182.9 750.78,-189.82"/>
</g>
<!-- Node19 -->
<g id="node19" class="node">
<title>Node19</title>
<g id="a_node19"><a xlink:href="basic__callback_8hpp.html" target="_top" xlink:title="Interfaces and base classes for callback wrappers.">
<polygon fill="none" stroke="black" points="371.5,-224.5 371.5,-243.5 504.5,-243.5 504.5,-224.5 371.5,-224.5"/>
<text text-anchor="middle" x="438" y="-231.5" font-family="Helvetica,sans-Serif" font-size="10.00">pool/basic_callback.hpp</text>
</a>
</g>
</g>
<!-- Node12&#45;&gt;Node19 -->
<g id="edge26" class="edge">
<title>Node12&#45;&gt;Node19</title>
<path fill="none" stroke="midnightblue" d="M512.7,-280.32C498.82,-271.9 477.51,-258.97 461.2,-249.07"/>
<polygon fill="midnightblue" stroke="midnightblue" points="462.63,-245.85 452.26,-243.65 459,-251.83 462.63,-245.85"/>
</g>
<!-- Node15&#45;&gt;Node2 -->
<g id="edge21" class="edge">
<title>Node15&#45;&gt;Node2</title>
<path fill="none" stroke="midnightblue" d="M818.44,-168.37C840.97,-149.73 894.41,-105.53 922.7,-82.13"/>
<polygon fill="midnightblue" stroke="midnightblue" points="925.14,-84.66 930.61,-75.59 920.68,-79.27 925.14,-84.66"/>
</g>
<!-- Node15&#45;&gt;Node8 -->
<g id="edge25" class="edge">
<title>Node15&#45;&gt;Node8</title>
<path fill="none" stroke="midnightblue" d="M855.63,-170.96C931.23,-161.38 1079.01,-142.65 1165.82,-131.64"/>
<polygon fill="midnightblue" stroke="midnightblue" points="1166.36,-135.1 1175.84,-130.37 1165.48,-128.16 1166.36,-135.1"/>
</g>
<!-- Node16 -->
<g id="node16" class="node">
<title>Node16</title>
<g id="a_node16"><a xlink:href="ntrtl_8h.html" target="_top" xlink:title="Contains necessary declarations/definitions of internal windows objects and functions.">
<polygon fill="none" stroke="black" points="192,-112.5 192,-131.5 272,-131.5 272,-112.5 192,-112.5"/>
<text text-anchor="middle" x="232" y="-119.5" font-family="Helvetica,sans-Serif" font-size="10.00">native/ntrtl.h</text>
</a>
</g>
</g>
<!-- Node15&#45;&gt;Node16 -->
<g id="edge22" class="edge">
<title>Node15&#45;&gt;Node16</title>
<path fill="none" stroke="midnightblue" d="M760.37,-172.54C652.93,-162.46 392.49,-138.05 282.43,-127.73"/>
<polygon fill="midnightblue" stroke="midnightblue" points="282.54,-124.22 272.26,-126.77 281.89,-131.19 282.54,-124.22"/>
</g>
<!-- Node17 -->
<g id="node17" class="node">
<title>Node17</title>
<g id="a_node17"><a xlink:title=" ">
<polygon fill="none" stroke="#bfbfbf" points="195,-56.5 195,-75.5 263,-75.5 263,-56.5 195,-56.5"/>
<text text-anchor="middle" x="229" y="-63.5" font-family="Helvetica,sans-Serif" font-size="10.00">windows.h</text>
</a>
</g>
</g>
<!-- Node16&#45;&gt;Node17 -->
<g id="edge23" class="edge">
<title>Node16&#45;&gt;Node17</title>
<path fill="none" stroke="midnightblue" d="M231.5,-112.08C231.11,-105.01 230.55,-94.86 230.05,-85.99"/>
<polygon fill="midnightblue" stroke="midnightblue" points="233.54,-85.54 229.49,-75.75 226.55,-85.93 233.54,-85.54"/>
</g>
<!-- Node18 -->
<g id="node18" class="node">
<title>Node18</title>
<g id="a_node18"><a xlink:title=" ">
<polygon fill="none" stroke="#bfbfbf" points="281.5,-56.5 281.5,-75.5 346.5,-75.5 346.5,-56.5 281.5,-56.5"/>
<text text-anchor="middle" x="314" y="-63.5" font-family="Helvetica,sans-Serif" font-size="10.00">winternl.h</text>
</a>
</g>
</g>
<!-- Node16&#45;&gt;Node18 -->
<g id="edge24" class="edge">
<title>Node16&#45;&gt;Node18</title>
<path fill="none" stroke="midnightblue" d="M245.17,-112.32C257.85,-103.98 277.23,-91.21 292.21,-81.35"/>
<polygon fill="midnightblue" stroke="midnightblue" points="294.43,-84.08 300.86,-75.65 290.58,-78.23 294.43,-84.08"/>
</g>
<!-- Node19&#45;&gt;Node2 -->
<g id="edge34" class="edge">
<title>Node19&#45;&gt;Node2</title>
<path fill="none" stroke="midnightblue" d="M504.56,-228.59C553.45,-223.42 620.57,-212.22 675,-188 726,-165.3 724.91,-136.65 775,-112 810.33,-94.62 853.3,-83.2 886.67,-76.22"/>
<polygon fill="midnightblue" stroke="midnightblue" points="887.6,-79.6 896.7,-74.19 886.21,-72.74 887.6,-79.6"/>
</g>
<!-- Node19&#45;&gt;Node5 -->
<g id="edge27" class="edge">
<title>Node19&#45;&gt;Node5</title>
<path fill="none" stroke="midnightblue" d="M371.31,-232.03C325.61,-228.45 265.45,-217.73 221,-188 170.55,-154.26 145.52,-101.22 186,-56 215.38,-23.18 343.11,-14.29 412.58,-11.89"/>
<polygon fill="midnightblue" stroke="midnightblue" points="412.92,-15.38 422.8,-11.57 412.7,-8.38 412.92,-15.38"/>
</g>
<!-- Node19&#45;&gt;Node7 -->
<g id="edge32" class="edge">
<title>Node19&#45;&gt;Node7</title>
<path fill="none" stroke="midnightblue" d="M378.58,-224.44C303.4,-213.62 175.6,-195.21 108,-185.48"/>
<polygon fill="midnightblue" stroke="midnightblue" points="108.09,-181.96 97.69,-184 107.09,-188.89 108.09,-181.96"/>
</g>
<!-- Node19&#45;&gt;Node15 -->
<g id="edge35" class="edge">
<title>Node19&#45;&gt;Node15</title>
<path fill="none" stroke="midnightblue" d="M496.63,-224.44C566.02,-214.32 680.84,-197.56 749.96,-187.47"/>
<polygon fill="midnightblue" stroke="midnightblue" points="750.85,-190.88 760.24,-185.97 749.84,-183.95 750.85,-190.88"/>
</g>
<!-- Node20 -->
<g id="node20" class="node">
<title>Node20</title>
<g id="a_node20"><a xlink:title=" ">
<polygon fill="none" stroke="#bfbfbf" points="402,-168.5 402,-187.5 440,-187.5 440,-168.5 402,-168.5"/>
<text text-anchor="middle" x="421" y="-175.5" font-family="Helvetica,sans-Serif" font-size="10.00">map</text>
</a>
</g>
</g>
<!-- Node19&#45;&gt;Node20 -->
<g id="edge28" class="edge">
<title>Node19&#45;&gt;Node20</title>
<path fill="none" stroke="midnightblue" d="M435.19,-224.08C432.92,-216.85 429.63,-206.41 426.79,-197.4"/>
<polygon fill="midnightblue" stroke="midnightblue" points="430.1,-196.24 423.75,-187.75 423.42,-198.34 430.1,-196.24"/>
</g>
<!-- Node21 -->
<g id="node21" class="node">
<title>Node21</title>
<g id="a_node21"><a xlink:title=" ">
<polygon fill="none" stroke="#bfbfbf" points="458,-168.5 458,-187.5 506,-187.5 506,-168.5 458,-168.5"/>
<text text-anchor="middle" x="482" y="-175.5" font-family="Helvetica,sans-Serif" font-size="10.00">mutex</text>
</a>
</g>
</g>
<!-- Node19&#45;&gt;Node21 -->
<g id="edge29" class="edge">
<title>Node19&#45;&gt;Node21</title>
<path fill="none" stroke="midnightblue" d="M445.27,-224.08C451.54,-216.38 460.79,-205.03 468.43,-195.65"/>
<polygon fill="midnightblue" stroke="midnightblue" points="471.27,-197.71 474.87,-187.75 465.84,-193.29 471.27,-197.71"/>
</g>
<!-- Node22 -->
<g id="node22" class="node">
<title>Node22</title>
<g id="a_node22"><a xlink:title=" ">
<polygon fill="none" stroke="#bfbfbf" points="524,-168.5 524,-187.5 582,-187.5 582,-168.5 524,-168.5"/>
<text text-anchor="middle" x="553" y="-175.5" font-family="Helvetica,sans-Serif" font-size="10.00">memory</text>
</a>
</g>
</g>
<!-- Node19&#45;&gt;Node22 -->
<g id="edge30" class="edge">
<title>Node19&#45;&gt;Node22</title>
<path fill="none" stroke="midnightblue" d="M456.22,-224.44C474.9,-215.68 504.16,-201.94 525.62,-191.86"/>
<polygon fill="midnightblue" stroke="midnightblue" points="527.3,-194.93 534.86,-187.52 524.32,-188.6 527.3,-194.93"/>
</g>
<!-- Node23 -->
<g id="node23" class="node">
<title>Node23</title>
<g id="a_node23"><a xlink:title=" ">
<polygon fill="none" stroke="#bfbfbf" points="600.5,-168.5 600.5,-187.5 665.5,-187.5 665.5,-168.5 600.5,-168.5"/>
<text text-anchor="middle" x="633" y="-175.5" font-family="Helvetica,sans-Serif" font-size="10.00">functional</text>
</a>
</g>
</g>
<!-- Node19&#45;&gt;Node23 -->
<g id="edge31" class="edge">
<title>Node19&#45;&gt;Node23</title>
<path fill="none" stroke="midnightblue" d="M468.9,-224.44C502.27,-215.2 555.59,-200.44 592.35,-190.26"/>
<polygon fill="midnightblue" stroke="midnightblue" points="593.54,-193.56 602.25,-187.52 591.67,-186.81 593.54,-193.56"/>
</g>
<!-- Node24 -->
<g id="node24" class="node">
<title>Node24</title>
<g id="a_node24"><a xlink:title=" ">
<polygon fill="none" stroke="#bfbfbf" points="230,-168.5 230,-187.5 316,-187.5 316,-168.5 230,-168.5"/>
<text text-anchor="middle" x="273" y="-175.5" font-family="Helvetica,sans-Serif" font-size="10.00">shared_mutex</text>
</a>
</g>
</g>
<!-- Node19&#45;&gt;Node24 -->
<g id="edge33" class="edge">
<title>Node19&#45;&gt;Node24</title>
<path fill="none" stroke="midnightblue" d="M411.86,-224.44C383.98,-215.32 339.65,-200.81 308.6,-190.65"/>
<polygon fill="midnightblue" stroke="midnightblue" points="309.62,-187.3 299.02,-187.52 307.44,-193.95 309.62,-187.3"/>
</g>
<!-- Node25&#45;&gt;Node2 -->
<g id="edge40" class="edge">
<title>Node25&#45;&gt;Node2</title>
<path fill="none" stroke="midnightblue" d="M865.94,-286.94C925.45,-283.03 1029.77,-272.24 1053,-244 1075.26,-216.94 1129.18,-240.25 1032,-112 1020.23,-96.47 1001.66,-85.97 984.36,-79.04"/>
<polygon fill="midnightblue" stroke="midnightblue" points="985.52,-75.73 974.93,-75.55 983.09,-82.3 985.52,-75.73"/>
</g>
<!-- Node25&#45;&gt;Node13 -->
<g id="edge37" class="edge">
<title>Node25&#45;&gt;Node13</title>
<path fill="none" stroke="midnightblue" d="M807.45,-280.32C791.01,-271.7 765.57,-258.36 746.53,-248.39"/>
<polygon fill="midnightblue" stroke="midnightblue" points="747.99,-245.2 737.51,-243.65 744.74,-251.4 747.99,-245.2"/>
</g>
<!-- Node25&#45;&gt;Node14 -->
<g id="edge38" class="edge">
<title>Node25&#45;&gt;Node14</title>
<path fill="none" stroke="midnightblue" d="M798.01,-280.44C769.45,-271.04 723.52,-255.91 692.57,-245.72"/>
<polygon fill="midnightblue" stroke="midnightblue" points="693.29,-242.28 682.7,-242.47 691.1,-248.93 693.29,-242.28"/>
</g>
<!-- Node25&#45;&gt;Node15 -->
<g id="edge46" class="edge">
<title>Node25&#45;&gt;Node15</title>
<path fill="none" stroke="midnightblue" d="M822.74,-280.37C820.16,-262.62 814.21,-221.67 810.71,-197.6"/>
<polygon fill="midnightblue" stroke="midnightblue" points="814.15,-196.98 809.25,-187.59 807.23,-197.99 814.15,-196.98"/>
</g>
<!-- Node25&#45;&gt;Node19 -->
<g id="edge47" class="edge">
<title>Node25&#45;&gt;Node19</title>
<path fill="none" stroke="midnightblue" d="M782.28,-281.35C779.48,-280.88 776.7,-280.42 774,-280 685.38,-266.1 583.17,-252.8 514.97,-244.31"/>
<polygon fill="midnightblue" stroke="midnightblue" points="515.1,-240.8 504.75,-243.04 514.24,-247.75 515.1,-240.8"/>
</g>
<!-- Node26 -->
<g id="node26" class="node">
<title>Node26</title>
<g id="a_node26"><a xlink:title=" ">
<polygon fill="none" stroke="#bfbfbf" points="988,-224.5 988,-243.5 1044,-243.5 1044,-224.5 988,-224.5"/>
<text text-anchor="middle" x="1016" y="-231.5" font-family="Helvetica,sans-Serif" font-size="10.00">optional</text>
</a>
</g>
</g>
<!-- Node25&#45;&gt;Node26 -->
<g id="edge39" class="edge">
<title>Node25&#45;&gt;Node26</title>
<path fill="none" stroke="midnightblue" d="M854.42,-280.44C887.96,-271.01 941.95,-255.83 978.19,-245.63"/>
<polygon fill="midnightblue" stroke="midnightblue" points="979.23,-248.98 987.91,-242.9 977.33,-242.24 979.23,-248.98"/>
</g>
<!-- Node27 -->
<g id="node27" class="node">
<title>Node27</title>
<g id="a_node27"><a xlink:href="time_8hpp.html" target="_top" xlink:title="Utils to work with std::chrono.">
<polygon fill="none" stroke="black" points="836,-224.5 836,-243.5 932,-243.5 932,-224.5 836,-224.5"/>
<text text-anchor="middle" x="884" y="-231.5" font-family="Helvetica,sans-Serif" font-size="10.00">details/time.hpp</text>
</a>
</g>
</g>
<!-- Node25&#45;&gt;Node27 -->
<g id="edge41" class="edge">
<title>Node25&#45;&gt;Node27</title>
<path fill="none" stroke="midnightblue" d="M833.64,-280.32C842.51,-272.34 855.87,-260.31 866.61,-250.65"/>
<polygon fill="midnightblue" stroke="midnightblue" points="869.09,-253.13 874.18,-243.83 864.41,-247.92 869.09,-253.13"/>
</g>
<!-- Node27&#45;&gt;Node2 -->
<g id="edge45" class="edge">
<title>Node27&#45;&gt;Node2</title>
<path fill="none" stroke="midnightblue" d="M887.06,-224.08C896.08,-197.83 922.61,-120.55 934.78,-85.12"/>
<polygon fill="midnightblue" stroke="midnightblue" points="938.12,-86.16 938.06,-75.57 931.5,-83.89 938.12,-86.16"/>
</g>
<!-- Node27&#45;&gt;Node5 -->
<g id="edge42" class="edge">
<title>Node27&#45;&gt;Node5</title>
<path fill="none" stroke="midnightblue" d="M883.81,-224.25C883.05,-210.54 879.64,-183.92 865,-168 766.58,-60.97 586.86,-26.17 503.15,-15.46"/>
<polygon fill="midnightblue" stroke="midnightblue" points="503.54,-11.98 493.19,-14.25 502.69,-18.93 503.54,-11.98"/>
</g>
<!-- Node27&#45;&gt;Node6 -->
<g id="edge44" class="edge">
<title>Node27&#45;&gt;Node6</title>
<path fill="none" stroke="midnightblue" d="M835.89,-229.62C733.19,-222.25 494.37,-204.2 394.24,-187.88"/>
<polygon fill="midnightblue" stroke="midnightblue" points="394.59,-184.39 384.15,-186.16 393.41,-191.29 394.59,-184.39"/>
</g>
<!-- Node28 -->
<g id="node28" class="node">
<title>Node28</title>
<g id="a_node28"><a xlink:title=" ">
<polygon fill="none" stroke="#bfbfbf" points="950.5,-168.5 950.5,-187.5 989.5,-187.5 989.5,-168.5 950.5,-168.5"/>
<text text-anchor="middle" x="970" y="-175.5" font-family="Helvetica,sans-Serif" font-size="10.00">ratio</text>
</a>
</g>
</g>
<!-- Node27&#45;&gt;Node28 -->
<g id="edge43" class="edge">
<title>Node27&#45;&gt;Node28</title>
<path fill="none" stroke="midnightblue" d="M897.82,-224.32C911.23,-215.9 931.82,-202.97 947.59,-193.07"/>
<polygon fill="midnightblue" stroke="midnightblue" points="949.61,-195.94 956.22,-187.65 945.89,-190.01 949.61,-195.94"/>
</g>
<!-- Node29&#45;&gt;Node2 -->
<g id="edge51" class="edge">
<title>Node29&#45;&gt;Node2</title>
<path fill="none" stroke="midnightblue" d="M764.55,-281.44C824.16,-270.89 925.56,-252.13 941,-244 972.7,-227.3 985,-220.98 999,-188 1015.29,-149.64 980.48,-105.8 958.04,-82.87"/>
<polygon fill="midnightblue" stroke="midnightblue" points="960.31,-80.19 950.73,-75.68 955.4,-85.19 960.31,-80.19"/>
</g>
<!-- Node29&#45;&gt;Node13 -->
<g id="edge49" class="edge">
<title>Node29&#45;&gt;Node13</title>
<path fill="none" stroke="midnightblue" d="M721,-280.08C721,-273.01 721,-262.86 721,-253.99"/>
<polygon fill="midnightblue" stroke="midnightblue" points="724.5,-253.75 721,-243.75 717.5,-253.75 724.5,-253.75"/>
</g>
<!-- Node29&#45;&gt;Node14 -->
<g id="edge50" class="edge">
<title>Node29&#45;&gt;Node14</title>
<path fill="none" stroke="midnightblue" d="M711.2,-280.32C702.18,-272.34 688.59,-260.31 677.68,-250.65"/>
<polygon fill="midnightblue" stroke="midnightblue" points="679.79,-247.84 669.98,-243.83 675.15,-253.08 679.79,-247.84"/>
</g>
<!-- Node29&#45;&gt;Node15 -->
<g id="edge53" class="edge">
<title>Node29&#45;&gt;Node15</title>
<path fill="none" stroke="midnightblue" d="M727.83,-280.37C742.25,-262.14 776.03,-219.43 794.81,-195.68"/>
<polygon fill="midnightblue" stroke="midnightblue" points="797.75,-197.61 801.2,-187.59 792.26,-193.26 797.75,-197.61"/>
</g>
<!-- Node29&#45;&gt;Node19 -->
<g id="edge54" class="edge">
<title>Node29&#45;&gt;Node19</title>
<path fill="none" stroke="midnightblue" d="M677.4,-280.68C627.73,-271.2 546.49,-255.7 492.64,-245.43"/>
<polygon fill="midnightblue" stroke="midnightblue" points="493.06,-241.94 482.58,-243.51 491.75,-248.82 493.06,-241.94"/>
</g>
<!-- Node29&#45;&gt;Node27 -->
<g id="edge52" class="edge">
<title>Node29&#45;&gt;Node27</title>
<path fill="none" stroke="midnightblue" d="M746.83,-280.44C774.25,-271.36 817.78,-256.94 848.43,-246.78"/>
<polygon fill="midnightblue" stroke="midnightblue" points="849.9,-249.98 858.29,-243.52 847.7,-243.34 849.9,-249.98"/>
</g>
<!-- Node30&#45;&gt;Node2 -->
<g id="edge58" class="edge">
<title>Node30&#45;&gt;Node2</title>
<path fill="none" stroke="midnightblue" d="M619.48,-280.15C613.36,-266.77 604.43,-241.16 616,-224 639.85,-188.62 666.2,-205.75 705,-188 783.66,-152.01 873.97,-103.68 916.46,-80.5"/>
<polygon fill="midnightblue" stroke="midnightblue" points="918.4,-83.43 925.5,-75.56 915.04,-77.29 918.4,-83.43"/>
</g>
<!-- Node30&#45;&gt;Node13 -->
<g id="edge56" class="edge">
<title>Node30&#45;&gt;Node13</title>
<path fill="none" stroke="midnightblue" d="M639.58,-280.32C655,-271.74 678.81,-258.49 696.71,-248.52"/>
<polygon fill="midnightblue" stroke="midnightblue" points="698.42,-251.58 705.45,-243.65 695.01,-245.46 698.42,-251.58"/>
</g>
<!-- Node30&#45;&gt;Node14 -->
<g id="edge57" class="edge">
<title>Node30&#45;&gt;Node14</title>
<path fill="none" stroke="midnightblue" d="M629.94,-280.08C634.98,-272.53 642.34,-261.49 648.51,-252.23"/>
<polygon fill="midnightblue" stroke="midnightblue" points="651.53,-254.01 654.17,-243.75 645.71,-250.13 651.53,-254.01"/>
</g>
<!-- Node30&#45;&gt;Node15 -->
<g id="edge60" class="edge">
<title>Node30&#45;&gt;Node15</title>
<path fill="none" stroke="midnightblue" d="M621.78,-280.25C618.86,-266.53 615.57,-239.92 629,-224 637.14,-214.35 703.13,-199.52 752.64,-189.55"/>
<polygon fill="midnightblue" stroke="midnightblue" points="753.49,-192.95 762.61,-187.56 752.12,-186.08 753.49,-192.95"/>
</g>
<!-- Node30&#45;&gt;Node19 -->
<g id="edge61" class="edge">
<title>Node30&#45;&gt;Node19</title>
<path fill="none" stroke="midnightblue" d="M594.53,-280.44C562.83,-271.24 512.27,-256.56 477.23,-246.39"/>
<polygon fill="midnightblue" stroke="midnightblue" points="477.91,-242.94 467.33,-243.52 475.96,-249.67 477.91,-242.94"/>
</g>
<!-- Node30&#45;&gt;Node27 -->
<g id="edge59" class="edge">
<title>Node30&#45;&gt;Node27</title>
<path fill="none" stroke="midnightblue" d="M659.61,-281.6C704.46,-272.29 781.84,-256.22 832.97,-245.6"/>
<polygon fill="midnightblue" stroke="midnightblue" points="833.75,-249.01 842.83,-243.55 832.33,-242.16 833.75,-249.01"/>
</g>
</g>
</svg>
