<?xml version="1.0" encoding="UTF-8" standalone="no"?>
<!DOCTYPE svg PUBLIC "-//W3C//DTD SVG 1.1//EN"
 "http://www.w3.org/Graphics/SVG/1.1/DTD/svg11.dtd">
<!-- Generated by graphviz version 2.43.0 (0)
 -->
<!-- Title: ntp/include/ntp.hpp Pages: 1 -->
<svg width="1053pt" height="476pt"
 viewBox="0.00 0.00 1053.00 476.00" xmlns="http://www.w3.org/2000/svg" xmlns:xlink="http://www.w3.org/1999/xlink">
<g id="graph0" class="graph" transform="scale(1 1) rotate(0) translate(4 472)">
<title>ntp/include/ntp.hpp</title>
<!-- Node1 -->
<g id="node1" class="node">
<title>Node1</title>
<g id="a_node1"><a xlink:title="Main ntp library header.">
<polygon fill="#bfbfbf" stroke="black" points="221,-448.5 221,-467.5 331,-467.5 331,-448.5 221,-448.5"/>
<text text-anchor="middle" x="276" y="-455.5" font-family="Helvetica,sans-Serif" font-size="10.00">ntp/include/ntp.hpp</text>
</a>
</g>
</g>
<!-- Node2 -->
<g id="node2" class="node">
<title>Node2</title>
<g id="a_node2"><a xlink:href="ntp__config_8hpp_source.html" target="_top" xlink:title=" ">
<polygon fill="none" stroke="black" points="242,-0.5 242,-19.5 330,-19.5 330,-0.5 242,-0.5"/>
<text text-anchor="middle" x="286" y="-7.5" font-family="Helvetica,sans-Serif" font-size="10.00">ntp_config.hpp</text>
</a>
</g>
</g>
<!-- Node1&#45;&gt;Node2 -->
<g id="edge1" class="edge">
<title>Node1&#45;&gt;Node2</title>
<path fill="none" stroke="midnightblue" d="M229.8,-448.48C151.23,-432.67 0,-395.87 0,-347 0,-347 0,-347 0,-121 0,-71.85 149.02,-36.34 231.93,-20.39"/>
<polygon fill="midnightblue" stroke="midnightblue" points="232.76,-23.79 241.94,-18.5 231.46,-16.91 232.76,-23.79"/>
</g>
<!-- Node3 -->
<g id="node3" class="node">
<title>Node3</title>
<g id="a_node3"><a xlink:href="time_8hpp.html" target="_top" xlink:title="Utils to work with std::chrono.">
<polygon fill="none" stroke="black" points="142,-280.5 142,-299.5 238,-299.5 238,-280.5 142,-280.5"/>
<text text-anchor="middle" x="190" y="-287.5" font-family="Helvetica,sans-Serif" font-size="10.00">details/time.hpp</text>
</a>
</g>
</g>
<!-- Node1&#45;&gt;Node3 -->
<g id="edge2" class="edge">
<title>Node1&#45;&gt;Node3</title>
<path fill="none" stroke="midnightblue" d="M269.77,-448.45C257.61,-431.5 230.4,-392.12 213,-356 205.69,-340.83 199.48,-322.72 195.35,-309.47"/>
<polygon fill="midnightblue" stroke="midnightblue" points="198.63,-308.22 192.41,-299.65 191.93,-310.24 198.63,-308.22"/>
</g>
<!-- Node8 -->
<g id="node8" class="node">
<title>Node8</title>
<g id="a_node8"><a xlink:href="logger_8hpp.html" target="_top" xlink:title="Interface for custom logger function.">
<polygon fill="none" stroke="black" points="485.5,-392.5 485.5,-411.5 586.5,-411.5 586.5,-392.5 485.5,-392.5"/>
<text text-anchor="middle" x="536" y="-399.5" font-family="Helvetica,sans-Serif" font-size="10.00">logger/logger.hpp</text>
</a>
</g>
</g>
<!-- Node1&#45;&gt;Node8 -->
<g id="edge8" class="edge">
<title>Node1&#45;&gt;Node8</title>
<path fill="none" stroke="midnightblue" d="M317.2,-448.44C362.65,-439 435.84,-423.8 484.91,-413.61"/>
<polygon fill="midnightblue" stroke="midnightblue" points="485.92,-416.98 494.99,-411.52 484.49,-410.12 485.92,-416.98"/>
</g>
<!-- Node9 -->
<g id="node9" class="node">
<title>Node9</title>
<g id="a_node9"><a xlink:href="threadpool_8hpp.html" target="_top" xlink:title="Threadpool implementations.">
<polygon fill="none" stroke="black" points="353,-392.5 353,-411.5 467,-411.5 467,-392.5 353,-392.5"/>
<text text-anchor="middle" x="410" y="-399.5" font-family="Helvetica,sans-Serif" font-size="10.00">pool/threadpool.hpp</text>
</a>
</g>
</g>
<!-- Node1&#45;&gt;Node9 -->
<g id="edge9" class="edge">
<title>Node1&#45;&gt;Node9</title>
<path fill="none" stroke="midnightblue" d="M297.23,-448.44C319.38,-439.52 354.32,-425.44 379.44,-415.32"/>
<polygon fill="midnightblue" stroke="midnightblue" points="380.9,-418.5 388.87,-411.52 378.28,-412.01 380.9,-418.5"/>
</g>
<!-- Node4 -->
<g id="node4" class="node">
<title>Node4</title>
<g id="a_node4"><a xlink:title=" ">
<polygon fill="none" stroke="#bfbfbf" points="161.5,-224.5 161.5,-243.5 200.5,-243.5 200.5,-224.5 161.5,-224.5"/>
<text text-anchor="middle" x="181" y="-231.5" font-family="Helvetica,sans-Serif" font-size="10.00">ratio</text>
</a>
</g>
</g>
<!-- Node3&#45;&gt;Node4 -->
<g id="edge3" class="edge">
<title>Node3&#45;&gt;Node4</title>
<path fill="none" stroke="midnightblue" d="M188.51,-280.08C187.32,-272.93 185.61,-262.64 184.12,-253.69"/>
<polygon fill="midnightblue" stroke="midnightblue" points="187.55,-253.04 182.46,-243.75 180.65,-254.19 187.55,-253.04"/>
</g>
<!-- Node5 -->
<g id="node5" class="node">
<title>Node5</title>
<g id="a_node5"><a xlink:title=" ">
<polygon fill="none" stroke="#bfbfbf" points="36,-224.5 36,-243.5 86,-243.5 86,-224.5 36,-224.5"/>
<text text-anchor="middle" x="61" y="-231.5" font-family="Helvetica,sans-Serif" font-size="10.00">chrono</text>
</a>
</g>
</g>
<!-- Node3&#45;&gt;Node5 -->
<g id="edge4" class="edge">
<title>Node3&#45;&gt;Node5</title>
<path fill="none" stroke="midnightblue" d="M169.56,-280.44C148.33,-271.56 114.9,-257.56 90.75,-247.45"/>
<polygon fill="midnightblue" stroke="midnightblue" points="91.92,-244.15 81.34,-243.52 89.22,-250.61 91.92,-244.15"/>
</g>
<!-- Node6 -->
<g id="node6" class="node">
<title>Node6</title>
<g id="a_node6"><a xlink:href="windows_8hpp_source.html" target="_top" xlink:title=" ">
<polygon fill="none" stroke="black" points="763,-56.5 763,-75.5 879,-75.5 879,-56.5 763,-56.5"/>
<text text-anchor="middle" x="821" y="-63.5" font-family="Helvetica,sans-Serif" font-size="10.00">details/windows.hpp</text>
</a>
</g>
</g>
<!-- Node3&#45;&gt;Node6 -->
<g id="edge5" class="edge">
<title>Node3&#45;&gt;Node6</title>
<path fill="none" stroke="midnightblue" d="M199.98,-280.32C216.75,-266.22 252.18,-238.46 287,-224 383.47,-183.93 654.5,-178.59 748,-132 771.84,-120.12 793.88,-98.38 807.37,-83.33"/>
<polygon fill="midnightblue" stroke="midnightblue" points="810.03,-85.61 813.95,-75.76 804.75,-81.02 810.03,-85.61"/>
</g>
<!-- Node6&#45;&gt;Node2 -->
<g id="edge6" class="edge">
<title>Node6&#45;&gt;Node2</title>
<path fill="none" stroke="midnightblue" d="M762.91,-57.06C759.9,-56.69 756.91,-56.34 754,-56 604.59,-38.79 427.81,-23.04 340.46,-15.57"/>
<polygon fill="midnightblue" stroke="midnightblue" points="340.52,-12.06 330.26,-14.7 339.92,-19.03 340.52,-12.06"/>
</g>
<!-- Node7 -->
<g id="node7" class="node">
<title>Node7</title>
<g id="a_node7"><a xlink:title=" ">
<polygon fill="none" stroke="#bfbfbf" points="786,-0.5 786,-19.5 856,-19.5 856,-0.5 786,-0.5"/>
<text text-anchor="middle" x="821" y="-7.5" font-family="Helvetica,sans-Serif" font-size="10.00">Windows.h</text>
</a>
</g>
</g>
<!-- Node6&#45;&gt;Node7 -->
<g id="edge7" class="edge">
<title>Node6&#45;&gt;Node7</title>
<path fill="none" stroke="midnightblue" d="M821,-56.08C821,-49.01 821,-38.86 821,-29.99"/>
<polygon fill="midnightblue" stroke="midnightblue" points="824.5,-29.75 821,-19.75 817.5,-29.75 824.5,-29.75"/>
</g>
<!-- Node9&#45;&gt;Node5 -->
<g id="edge10" class="edge">
<title>Node9&#45;&gt;Node5</title>
<path fill="none" stroke="midnightblue" d="M352.76,-400.97C277.71,-397.6 147.46,-379.72 78,-300 66.88,-287.23 62.9,-268.04 61.55,-253.82"/>
<polygon fill="midnightblue" stroke="midnightblue" points="65.03,-253.46 60.93,-243.69 58.04,-253.89 65.03,-253.46"/>
</g>
<!-- Node9&#45;&gt;Node6 -->
<g id="edge18" class="edge">
<title>Node9&#45;&gt;Node6</title>
<path fill="none" stroke="midnightblue" d="M467.24,-393.24C552.97,-381.58 707.44,-360.44 733,-356 872.56,-331.77 1045,-432.64 1045,-291 1045,-291 1045,-291 1045,-177 1045,-106.74 955.11,-81.35 889.21,-72.18"/>
<polygon fill="midnightblue" stroke="midnightblue" points="889.64,-68.71 879.27,-70.89 888.74,-75.65 889.64,-68.71"/>
</g>
<!-- Node10 -->
<g id="node10" class="node">
<title>Node10</title>
<g id="a_node10"><a xlink:title=" ">
<polygon fill="none" stroke="#bfbfbf" points="871.5,-224.5 871.5,-243.5 940.5,-243.5 940.5,-224.5 871.5,-224.5"/>
<text text-anchor="middle" x="906" y="-231.5" font-family="Helvetica,sans-Serif" font-size="10.00">type_traits</text>
</a>
</g>
</g>
<!-- Node9&#45;&gt;Node10 -->
<g id="edge11" class="edge">
<title>Node9&#45;&gt;Node10</title>
<path fill="none" stroke="midnightblue" d="M454.49,-392.48C546.42,-374.47 754.16,-331.61 819,-300 845.56,-287.06 872.2,-265.61 888.87,-250.91"/>
<polygon fill="midnightblue" stroke="midnightblue" points="891.54,-253.22 896.63,-243.93 886.85,-248.02 891.54,-253.22"/>
</g>
<!-- Node11 -->
<g id="node11" class="node">
<title>Node11</title>
<g id="a_node11"><a xlink:href="allocator_8hpp.html" target="_top" xlink:title="Allocator implementations.">
<polygon fill="none" stroke="black" points="660,-168.5 660,-187.5 776,-187.5 776,-168.5 660,-168.5"/>
<text text-anchor="middle" x="718" y="-175.5" font-family="Helvetica,sans-Serif" font-size="10.00">details/allocator.hpp</text>
</a>
</g>
</g>
<!-- Node9&#45;&gt;Node11 -->
<g id="edge12" class="edge">
<title>Node9&#45;&gt;Node11</title>
<path fill="none" stroke="midnightblue" d="M467.12,-392.7C534.73,-382.68 643.15,-365.94 683,-356 758.55,-337.16 777.77,-331.45 849,-300 895.95,-279.27 923.95,-288.23 950,-244 954.51,-236.34 955.66,-230.86 950,-224 929.55,-199.2 847.22,-187.9 786.42,-182.87"/>
<polygon fill="midnightblue" stroke="midnightblue" points="786.35,-179.35 776.11,-182.05 785.8,-186.33 786.35,-179.35"/>
</g>
<!-- Node15 -->
<g id="node15" class="node">
<title>Node15</title>
<g id="a_node15"><a xlink:href="work_8hpp.html" target="_top" xlink:title="Work callback wrapper and manager implementation.">
<polygon fill="none" stroke="black" points="518,-336.5 518,-355.5 604,-355.5 604,-336.5 518,-336.5"/>
<text text-anchor="middle" x="561" y="-343.5" font-family="Helvetica,sans-Serif" font-size="10.00">pool/work.hpp</text>
</a>
</g>
</g>
<!-- Node9&#45;&gt;Node15 -->
<g id="edge19" class="edge">
<title>Node9&#45;&gt;Node15</title>
<path fill="none" stroke="midnightblue" d="M433.93,-392.44C459.22,-383.4 499.3,-369.06 527.68,-358.92"/>
<polygon fill="midnightblue" stroke="midnightblue" points="528.95,-362.18 537.19,-355.52 526.59,-355.59 528.95,-362.18"/>
</g>
<!-- Node28 -->
<g id="node28" class="node">
<title>Node28</title>
<g id="a_node28"><a xlink:href="wait_8hpp.html" target="_top" xlink:title="Implementation of threadpool wait callback.">
<polygon fill="none" stroke="black" points="416.5,-336.5 416.5,-355.5 499.5,-355.5 499.5,-336.5 416.5,-336.5"/>
<text text-anchor="middle" x="458" y="-343.5" font-family="Helvetica,sans-Serif" font-size="10.00">pool/wait.hpp</text>
</a>
</g>
</g>
<!-- Node9&#45;&gt;Node28 -->
<g id="edge38" class="edge">
<title>Node9&#45;&gt;Node28</title>
<path fill="none" stroke="midnightblue" d="M417.93,-392.08C424.85,-384.3 435.07,-372.8 443.45,-363.37"/>
<polygon fill="midnightblue" stroke="midnightblue" points="446.19,-365.55 450.22,-355.75 440.96,-360.9 446.19,-365.55"/>
</g>
<!-- Node30 -->
<g id="node30" class="node">
<title>Node30</title>
<g id="a_node30"><a xlink:href="timer_8hpp.html" target="_top" xlink:title="Implementation of threadpool timer callback.">
<polygon fill="none" stroke="black" points="222.5,-336.5 222.5,-355.5 309.5,-355.5 309.5,-336.5 222.5,-336.5"/>
<text text-anchor="middle" x="266" y="-343.5" font-family="Helvetica,sans-Serif" font-size="10.00">pool/timer.hpp</text>
</a>
</g>
</g>
<!-- Node9&#45;&gt;Node30 -->
<g id="edge46" class="edge">
<title>Node9&#45;&gt;Node30</title>
<path fill="none" stroke="midnightblue" d="M387.18,-392.44C363.17,-383.44 325.17,-369.19 298.13,-359.05"/>
<polygon fill="midnightblue" stroke="midnightblue" points="299.3,-355.75 288.71,-355.52 296.84,-362.3 299.3,-355.75"/>
</g>
<!-- Node31 -->
<g id="node31" class="node">
<title>Node31</title>
<g id="a_node31"><a xlink:href="io_8hpp.html" target="_top" xlink:title="Implementation of threadpool IO callback.">
<polygon fill="none" stroke="black" points="327.5,-336.5 327.5,-355.5 398.5,-355.5 398.5,-336.5 327.5,-336.5"/>
<text text-anchor="middle" x="363" y="-343.5" font-family="Helvetica,sans-Serif" font-size="10.00">pool/io.hpp</text>
</a>
</g>
</g>
<!-- Node9&#45;&gt;Node31 -->
<g id="edge54" class="edge">
<title>Node9&#45;&gt;Node31</title>
<path fill="none" stroke="midnightblue" d="M402.24,-392.08C395.46,-384.3 385.46,-372.8 377.24,-363.37"/>
<polygon fill="midnightblue" stroke="midnightblue" points="379.82,-361 370.62,-355.75 374.54,-365.59 379.82,-361"/>
</g>
<!-- Node11&#45;&gt;Node6 -->
<g id="edge17" class="edge">
<title>Node11&#45;&gt;Node6</title>
<path fill="none" stroke="midnightblue" d="M733.31,-168.47C746.94,-160.34 766.87,-147.13 781,-132 794.24,-117.82 805.43,-98.59 812.57,-84.73"/>
<polygon fill="midnightblue" stroke="midnightblue" points="815.72,-86.25 817.03,-75.74 809.45,-83.14 815.72,-86.25"/>
</g>
<!-- Node12 -->
<g id="node12" class="node">
<title>Node12</title>
<g id="a_node12"><a xlink:href="exception_8hpp.html" target="_top" xlink:title="Win32 error wrapper implementations.">
<polygon fill="none" stroke="black" points="617,-112.5 617,-131.5 739,-131.5 739,-112.5 617,-112.5"/>
<text text-anchor="middle" x="678" y="-119.5" font-family="Helvetica,sans-Serif" font-size="10.00">details/exception.hpp</text>
</a>
</g>
</g>
<!-- Node11&#45;&gt;Node12 -->
<g id="edge13" class="edge">
<title>Node11&#45;&gt;Node12</title>
<path fill="none" stroke="midnightblue" d="M711.39,-168.08C705.74,-160.46 697.46,-149.26 690.55,-139.94"/>
<polygon fill="midnightblue" stroke="midnightblue" points="693.25,-137.7 684.48,-131.75 687.62,-141.87 693.25,-137.7"/>
</g>
<!-- Node12&#45;&gt;Node6 -->
<g id="edge16" class="edge">
<title>Node12&#45;&gt;Node6</title>
<path fill="none" stroke="midnightblue" d="M700.66,-112.44C724.4,-103.48 761.91,-89.31 788.74,-79.18"/>
<polygon fill="midnightblue" stroke="midnightblue" points="790.33,-82.32 798.45,-75.52 787.86,-75.77 790.33,-82.32"/>
</g>
<!-- Node13 -->
<g id="node13" class="node">
<title>Node13</title>
<g id="a_node13"><a xlink:title=" ">
<polygon fill="none" stroke="#bfbfbf" points="679.5,-56.5 679.5,-75.5 744.5,-75.5 744.5,-56.5 679.5,-56.5"/>
<text text-anchor="middle" x="712" y="-63.5" font-family="Helvetica,sans-Serif" font-size="10.00">stdexcept</text>
</a>
</g>
</g>
<!-- Node12&#45;&gt;Node13 -->
<g id="edge14" class="edge">
<title>Node12&#45;&gt;Node13</title>
<path fill="none" stroke="midnightblue" d="M683.61,-112.08C688.37,-104.53 695.32,-93.49 701.15,-84.23"/>
<polygon fill="midnightblue" stroke="midnightblue" points="704.12,-86.08 706.49,-75.75 698.2,-82.35 704.12,-86.08"/>
</g>
<!-- Node14 -->
<g id="node14" class="node">
<title>Node14</title>
<g id="a_node14"><a xlink:title=" ">
<polygon fill="none" stroke="#bfbfbf" points="617,-56.5 617,-75.5 661,-75.5 661,-56.5 617,-56.5"/>
<text text-anchor="middle" x="639" y="-63.5" font-family="Helvetica,sans-Serif" font-size="10.00">string</text>
</a>
</g>
</g>
<!-- Node12&#45;&gt;Node14 -->
<g id="edge15" class="edge">
<title>Node12&#45;&gt;Node14</title>
<path fill="none" stroke="midnightblue" d="M671.56,-112.08C666.05,-104.46 657.97,-93.26 651.24,-83.94"/>
<polygon fill="midnightblue" stroke="midnightblue" points="654.01,-81.81 645.32,-75.75 648.34,-85.91 654.01,-81.81"/>
</g>
<!-- Node15&#45;&gt;Node6 -->
<g id="edge22" class="edge">
<title>Node15&#45;&gt;Node6</title>
<path fill="none" stroke="midnightblue" d="M604.17,-343.51C716.1,-338.47 1007,-317.44 1007,-235 1007,-235 1007,-235 1007,-177 1007,-118.99 939.14,-90.93 885.4,-77.8"/>
<polygon fill="midnightblue" stroke="midnightblue" points="886.08,-74.36 875.55,-75.52 884.5,-81.18 886.08,-74.36"/>
</g>
<!-- Node16 -->
<g id="node16" class="node">
<title>Node16</title>
<g id="a_node16"><a xlink:title=" ">
<polygon fill="none" stroke="#bfbfbf" points="370.5,-280.5 370.5,-299.5 411.5,-299.5 411.5,-280.5 370.5,-280.5"/>
<text text-anchor="middle" x="391" y="-287.5" font-family="Helvetica,sans-Serif" font-size="10.00">tuple</text>
</a>
</g>
</g>
<!-- Node15&#45;&gt;Node16 -->
<g id="edge20" class="edge">
<title>Node15&#45;&gt;Node16</title>
<path fill="none" stroke="midnightblue" d="M534.06,-336.44C503.4,-326.7 453.42,-310.83 421.38,-300.65"/>
<polygon fill="midnightblue" stroke="midnightblue" points="422.25,-297.25 411.66,-297.56 420.13,-303.93 422.25,-297.25"/>
</g>
<!-- Node17 -->
<g id="node17" class="node">
<title>Node17</title>
<g id="a_node17"><a xlink:title=" ">
<polygon fill="none" stroke="#bfbfbf" points="429.5,-280.5 429.5,-299.5 474.5,-299.5 474.5,-280.5 429.5,-280.5"/>
<text text-anchor="middle" x="452" y="-287.5" font-family="Helvetica,sans-Serif" font-size="10.00">utility</text>
</a>
</g>
</g>
<!-- Node15&#45;&gt;Node17 -->
<g id="edge21" class="edge">
<title>Node15&#45;&gt;Node17</title>
<path fill="none" stroke="midnightblue" d="M543.49,-336.32C525.93,-327.62 498.67,-314.12 478.47,-304.11"/>
<polygon fill="midnightblue" stroke="midnightblue" points="479.98,-300.96 469.47,-299.65 476.88,-307.23 479.98,-300.96"/>
</g>
<!-- Node18 -->
<g id="node18" class="node">
<title>Node18</title>
<g id="a_node18"><a xlink:href="utils_8hpp.html" target="_top" xlink:title="Some useful implementation stuff.">
<polygon fill="none" stroke="black" points="295.5,-224.5 295.5,-243.5 390.5,-243.5 390.5,-224.5 295.5,-224.5"/>
<text text-anchor="middle" x="343" y="-231.5" font-family="Helvetica,sans-Serif" font-size="10.00">details/utils.hpp</text>
</a>
</g>
</g>
<!-- Node15&#45;&gt;Node18 -->
<g id="edge23" class="edge">
<title>Node15&#45;&gt;Node18</title>
<path fill="none" stroke="midnightblue" d="M555.32,-336.44C545.64,-322.52 524.57,-295 500,-280 481.78,-268.88 430.7,-255.27 391.7,-245.95"/>
<polygon fill="midnightblue" stroke="midnightblue" points="392.1,-242.45 381.57,-243.56 390.5,-249.27 392.1,-242.45"/>
</g>
<!-- Node22 -->
<g id="node22" class="node">
<title>Node22</title>
<g id="a_node22"><a xlink:href="basic__callback_8hpp.html" target="_top" xlink:title="Interfaces and base classes for callback wrappers.">
<polygon fill="none" stroke="black" points="569.5,-280.5 569.5,-299.5 702.5,-299.5 702.5,-280.5 569.5,-280.5"/>
<text text-anchor="middle" x="636" y="-287.5" font-family="Helvetica,sans-Serif" font-size="10.00">pool/basic_callback.hpp</text>
</a>
</g>
</g>
<!-- Node15&#45;&gt;Node22 -->
<g id="edge29" class="edge">
<title>Node15&#45;&gt;Node22</title>
<path fill="none" stroke="midnightblue" d="M573.05,-336.32C584.46,-328.11 601.83,-315.6 615.43,-305.81"/>
<polygon fill="midnightblue" stroke="midnightblue" points="617.66,-308.52 623.73,-299.83 613.57,-302.84 617.66,-308.52"/>
</g>
<!-- Node18&#45;&gt;Node2 -->
<g id="edge24" class="edge">
<title>Node18&#45;&gt;Node2</title>
<path fill="none" stroke="midnightblue" d="M338.71,-224.22C334.48,-215.28 328.08,-200.94 324,-188 306.16,-131.43 293.97,-62.06 288.8,-29.52"/>
<polygon fill="midnightblue" stroke="midnightblue" points="292.25,-28.97 287.26,-19.62 285.34,-30.04 292.25,-28.97"/>
</g>
<!-- Node18&#45;&gt;Node11 -->
<g id="edge28" class="edge">
<title>Node18&#45;&gt;Node11</title>
<path fill="none" stroke="midnightblue" d="M390.58,-225.43C393.77,-224.94 396.93,-224.46 400,-224 486.11,-211.11 585.48,-197.2 649.9,-188.32"/>
<polygon fill="midnightblue" stroke="midnightblue" points="650.5,-191.77 659.93,-186.93 649.55,-184.83 650.5,-191.77"/>
</g>
<!-- Node19 -->
<g id="node19" class="node">
<title>Node19</title>
<g id="a_node19"><a xlink:href="ntrtl_8h.html" target="_top" xlink:title="Contains necessary declarations/definitions of internal windows objects and functions.">
<polygon fill="none" stroke="black" points="333,-168.5 333,-187.5 413,-187.5 413,-168.5 333,-168.5"/>
<text text-anchor="middle" x="373" y="-175.5" font-family="Helvetica,sans-Serif" font-size="10.00">native/ntrtl.h</text>
</a>
</g>
</g>
<!-- Node18&#45;&gt;Node19 -->
<g id="edge25" class="edge">
<title>Node18&#45;&gt;Node19</title>
<path fill="none" stroke="midnightblue" d="M347.95,-224.08C352.1,-216.61 358.15,-205.72 363.27,-196.52"/>
<polygon fill="midnightblue" stroke="midnightblue" points="366.34,-198.19 368.14,-187.75 360.22,-194.79 366.34,-198.19"/>
</g>
<!-- Node20 -->
<g id="node20" class="node">
<title>Node20</title>
<g id="a_node20"><a xlink:title=" ">
<polygon fill="none" stroke="#bfbfbf" points="421,-112.5 421,-131.5 489,-131.5 489,-112.5 421,-112.5"/>
<text text-anchor="middle" x="455" y="-119.5" font-family="Helvetica,sans-Serif" font-size="10.00">windows.h</text>
</a>
</g>
</g>
<!-- Node19&#45;&gt;Node20 -->
<g id="edge26" class="edge">
<title>Node19&#45;&gt;Node20</title>
<path fill="none" stroke="midnightblue" d="M386.17,-168.32C398.85,-159.98 418.23,-147.21 433.21,-137.35"/>
<polygon fill="midnightblue" stroke="midnightblue" points="435.43,-140.08 441.86,-131.65 431.58,-134.23 435.43,-140.08"/>
</g>
<!-- Node21 -->
<g id="node21" class="node">
<title>Node21</title>
<g id="a_node21"><a xlink:title=" ">
<polygon fill="none" stroke="#bfbfbf" points="337.5,-112.5 337.5,-131.5 402.5,-131.5 402.5,-112.5 337.5,-112.5"/>
<text text-anchor="middle" x="370" y="-119.5" font-family="Helvetica,sans-Serif" font-size="10.00">winternl.h</text>
</a>
</g>
</g>
<!-- Node19&#45;&gt;Node21 -->
<g id="edge27" class="edge">
<title>Node19&#45;&gt;Node21</title>
<path fill="none" stroke="midnightblue" d="M372.5,-168.08C372.11,-161.01 371.55,-150.86 371.05,-141.99"/>
<polygon fill="midnightblue" stroke="midnightblue" points="374.54,-141.54 370.49,-131.75 367.55,-141.93 374.54,-141.54"/>
</g>
<!-- Node22&#45;&gt;Node6 -->
<g id="edge36" class="edge">
<title>Node22&#45;&gt;Node6</title>
<path fill="none" stroke="midnightblue" d="M682.52,-280.49C721.17,-272.46 772.02,-259.4 786,-244 826.66,-199.22 825.9,-121.29 823.06,-85.69"/>
<polygon fill="midnightblue" stroke="midnightblue" points="826.55,-85.35 822.12,-75.72 819.58,-86.01 826.55,-85.35"/>
</g>
<!-- Node22&#45;&gt;Node10 -->
<g id="edge34" class="edge">
<title>Node22&#45;&gt;Node10</title>
<path fill="none" stroke="midnightblue" d="M678.78,-280.44C728.58,-270.48 810.46,-254.11 861.14,-243.97"/>
<polygon fill="midnightblue" stroke="midnightblue" points="862.03,-247.36 871.15,-241.97 860.65,-240.5 862.03,-247.36"/>
</g>
<!-- Node22&#45;&gt;Node18 -->
<g id="edge37" class="edge">
<title>Node22&#45;&gt;Node18</title>
<path fill="none" stroke="midnightblue" d="M589.57,-280.44C537.92,-270.92 454.49,-255.55 399.19,-245.36"/>
<polygon fill="midnightblue" stroke="midnightblue" points="399.68,-241.89 389.21,-243.52 398.41,-248.77 399.68,-241.89"/>
</g>
<!-- Node23 -->
<g id="node23" class="node">
<title>Node23</title>
<g id="a_node23"><a xlink:title=" ">
<polygon fill="none" stroke="#bfbfbf" points="513,-224.5 513,-243.5 551,-243.5 551,-224.5 513,-224.5"/>
<text text-anchor="middle" x="532" y="-231.5" font-family="Helvetica,sans-Serif" font-size="10.00">map</text>
</a>
</g>
</g>
<!-- Node22&#45;&gt;Node23 -->
<g id="edge30" class="edge">
<title>Node22&#45;&gt;Node23</title>
<path fill="none" stroke="midnightblue" d="M619.29,-280.32C602.69,-271.7 577,-258.36 557.78,-248.39"/>
<polygon fill="midnightblue" stroke="midnightblue" points="559.16,-245.16 548.67,-243.65 555.93,-251.37 559.16,-245.16"/>
</g>
<!-- Node24 -->
<g id="node24" class="node">
<title>Node24</title>
<g id="a_node24"><a xlink:title=" ">
<polygon fill="none" stroke="#bfbfbf" points="569,-224.5 569,-243.5 617,-243.5 617,-224.5 569,-224.5"/>
<text text-anchor="middle" x="593" y="-231.5" font-family="Helvetica,sans-Serif" font-size="10.00">mutex</text>
</a>
</g>
</g>
<!-- Node22&#45;&gt;Node24 -->
<g id="edge31" class="edge">
<title>Node22&#45;&gt;Node24</title>
<path fill="none" stroke="midnightblue" d="M628.9,-280.08C622.76,-272.38 613.73,-261.03 606.26,-251.65"/>
<polygon fill="midnightblue" stroke="midnightblue" points="608.94,-249.39 599.97,-243.75 603.46,-253.75 608.94,-249.39"/>
</g>
<!-- Node25 -->
<g id="node25" class="node">
<title>Node25</title>
<g id="a_node25"><a xlink:title=" ">
<polygon fill="none" stroke="#bfbfbf" points="635,-224.5 635,-243.5 693,-243.5 693,-224.5 635,-224.5"/>
<text text-anchor="middle" x="664" y="-231.5" font-family="Helvetica,sans-Serif" font-size="10.00">memory</text>
</a>
</g>
</g>
<!-- Node22&#45;&gt;Node25 -->
<g id="edge32" class="edge">
<title>Node22&#45;&gt;Node25</title>
<path fill="none" stroke="midnightblue" d="M640.62,-280.08C644.46,-272.69 650.02,-261.95 654.76,-252.81"/>
<polygon fill="midnightblue" stroke="midnightblue" points="657.97,-254.24 659.46,-243.75 651.75,-251.02 657.97,-254.24"/>
</g>
<!-- Node26 -->
<g id="node26" class="node">
<title>Node26</title>
<g id="a_node26"><a xlink:title=" ">
<polygon fill="none" stroke="#bfbfbf" points="711.5,-224.5 711.5,-243.5 776.5,-243.5 776.5,-224.5 711.5,-224.5"/>
<text text-anchor="middle" x="744" y="-231.5" font-family="Helvetica,sans-Serif" font-size="10.00">functional</text>
</a>
</g>
</g>
<!-- Node22&#45;&gt;Node26 -->
<g id="edge33" class="edge">
<title>Node22&#45;&gt;Node26</title>
<path fill="none" stroke="midnightblue" d="M653.35,-280.32C670.67,-271.66 697.52,-258.24 717.5,-248.25"/>
<polygon fill="midnightblue" stroke="midnightblue" points="719.31,-251.26 726.69,-243.65 716.18,-245 719.31,-251.26"/>
</g>
<!-- Node27 -->
<g id="node27" class="node">
<title>Node27</title>
<g id="a_node27"><a xlink:title=" ">
<polygon fill="none" stroke="#bfbfbf" points="409,-224.5 409,-243.5 495,-243.5 495,-224.5 409,-224.5"/>
<text text-anchor="middle" x="452" y="-231.5" font-family="Helvetica,sans-Serif" font-size="10.00">shared_mutex</text>
</a>
</g>
</g>
<!-- Node22&#45;&gt;Node27 -->
<g id="edge35" class="edge">
<title>Node22&#45;&gt;Node27</title>
<path fill="none" stroke="midnightblue" d="M606.84,-280.44C575.49,-271.24 525.47,-256.56 490.8,-246.39"/>
<polygon fill="midnightblue" stroke="midnightblue" points="491.6,-242.97 481.02,-243.52 489.63,-249.69 491.6,-242.97"/>
</g>
<!-- Node28&#45;&gt;Node2 -->
<g id="edge42" class="edge">
<title>Node28&#45;&gt;Node2</title>
<path fill="none" stroke="midnightblue" d="M499.72,-337.48C502.86,-336.96 505.98,-336.46 509,-336 570.36,-326.6 745.03,-346.64 786,-300 808.29,-274.62 806.58,-250.79 786,-224 748.17,-174.76 709.1,-209.92 651,-188 579.96,-161.19 566.28,-145.22 498,-112 431.96,-79.87 353.88,-42.94 313.41,-23.88"/>
<polygon fill="midnightblue" stroke="midnightblue" points="314.74,-20.64 304.2,-19.55 311.75,-26.97 314.74,-20.64"/>
</g>
<!-- Node28&#45;&gt;Node3 -->
<g id="edge43" class="edge">
<title>Node28&#45;&gt;Node3</title>
<path fill="none" stroke="midnightblue" d="M416.42,-336.62C369.56,-327.18 293.29,-311.81 242.39,-301.56"/>
<polygon fill="midnightblue" stroke="midnightblue" points="243.06,-298.12 232.56,-299.58 241.68,-304.98 243.06,-298.12"/>
</g>
<!-- Node28&#45;&gt;Node16 -->
<g id="edge39" class="edge">
<title>Node28&#45;&gt;Node16</title>
<path fill="none" stroke="midnightblue" d="M447.24,-336.32C437.23,-328.26 422.11,-316.08 410.07,-306.37"/>
<polygon fill="midnightblue" stroke="midnightblue" points="411.94,-303.38 401.96,-299.83 407.55,-308.83 411.94,-303.38"/>
</g>
<!-- Node28&#45;&gt;Node17 -->
<g id="edge40" class="edge">
<title>Node28&#45;&gt;Node17</title>
<path fill="none" stroke="midnightblue" d="M457.01,-336.08C456.21,-328.93 455.07,-318.64 454.08,-309.69"/>
<polygon fill="midnightblue" stroke="midnightblue" points="457.56,-309.3 452.97,-299.75 450.6,-310.08 457.56,-309.3"/>
</g>
<!-- Node28&#45;&gt;Node18 -->
<g id="edge44" class="edge">
<title>Node28&#45;&gt;Node18</title>
<path fill="none" stroke="midnightblue" d="M466.53,-336.32C478.4,-323.18 497.05,-297.86 484,-280 473.55,-265.69 433.45,-253.74 398.67,-245.76"/>
<polygon fill="midnightblue" stroke="midnightblue" points="399.08,-242.27 388.56,-243.52 397.57,-249.1 399.08,-242.27"/>
</g>
<!-- Node28&#45;&gt;Node22 -->
<g id="edge45" class="edge">
<title>Node28&#45;&gt;Node22</title>
<path fill="none" stroke="midnightblue" d="M486.2,-336.44C516.41,-327.28 564.51,-312.69 598.03,-302.52"/>
<polygon fill="midnightblue" stroke="midnightblue" points="599.37,-305.77 607.93,-299.52 597.34,-299.07 599.37,-305.77"/>
</g>
<!-- Node29 -->
<g id="node29" class="node">
<title>Node29</title>
<g id="a_node29"><a xlink:title=" ">
<polygon fill="none" stroke="#bfbfbf" points="721,-280.5 721,-299.5 777,-299.5 777,-280.5 721,-280.5"/>
<text text-anchor="middle" x="749" y="-287.5" font-family="Helvetica,sans-Serif" font-size="10.00">optional</text>
</a>
</g>
</g>
<!-- Node28&#45;&gt;Node29 -->
<g id="edge41" class="edge">
<title>Node28&#45;&gt;Node29</title>
<path fill="none" stroke="midnightblue" d="M499.71,-337.63C562.18,-326.58 675.87,-306.48 710.93,-299.96"/>
<polygon fill="midnightblue" stroke="midnightblue" points="711.6,-303.39 720.76,-298.06 710.28,-296.52 711.6,-303.39"/>
</g>
<!-- Node30&#45;&gt;Node2 -->
<g id="edge50" class="edge">
<title>Node30&#45;&gt;Node2</title>
<path fill="none" stroke="midnightblue" d="M222.43,-340.66C193.38,-335.54 156.37,-324.37 133,-300 112.17,-278.28 114,-265.1 114,-235 114,-235 114,-235 114,-121 114,-64.18 181.45,-35.38 231.87,-21.8"/>
<polygon fill="midnightblue" stroke="midnightblue" points="232.89,-25.15 241.71,-19.28 231.15,-18.37 232.89,-25.15"/>
</g>
<!-- Node30&#45;&gt;Node3 -->
<g id="edge51" class="edge">
<title>Node30&#45;&gt;Node3</title>
<path fill="none" stroke="midnightblue" d="M253.79,-336.32C242.22,-328.11 224.62,-315.6 210.84,-305.81"/>
<polygon fill="midnightblue" stroke="midnightblue" points="212.61,-302.77 202.43,-299.83 208.56,-308.48 212.61,-302.77"/>
</g>
<!-- Node30&#45;&gt;Node5 -->
<g id="edge49" class="edge">
<title>Node30&#45;&gt;Node5</title>
<path fill="none" stroke="midnightblue" d="M222.2,-342.1C186.24,-337.75 135.6,-326.93 100,-300 84.29,-288.12 73.62,-267.91 67.46,-253.18"/>
<polygon fill="midnightblue" stroke="midnightblue" points="70.64,-251.68 63.77,-243.61 64.11,-254.2 70.64,-251.68"/>
</g>
<!-- Node30&#45;&gt;Node16 -->
<g id="edge47" class="edge">
<title>Node30&#45;&gt;Node16</title>
<path fill="none" stroke="midnightblue" d="M285.81,-336.44C306.29,-327.6 338.48,-313.69 361.86,-303.59"/>
<polygon fill="midnightblue" stroke="midnightblue" points="363.49,-306.7 371.29,-299.52 360.72,-300.27 363.49,-306.7"/>
</g>
<!-- Node30&#45;&gt;Node17 -->
<g id="edge48" class="edge">
<title>Node30&#45;&gt;Node17</title>
<path fill="none" stroke="midnightblue" d="M295.47,-336.44C329.32,-326.62 384.66,-310.55 419.66,-300.39"/>
<polygon fill="midnightblue" stroke="midnightblue" points="420.77,-303.71 429.39,-297.56 418.81,-296.99 420.77,-303.71"/>
</g>
<!-- Node30&#45;&gt;Node18 -->
<g id="edge52" class="edge">
<title>Node30&#45;&gt;Node18</title>
<path fill="none" stroke="midnightblue" d="M272.04,-336.37C284.75,-318.22 314.44,-275.8 331.11,-251.99"/>
<polygon fill="midnightblue" stroke="midnightblue" points="334.12,-253.79 336.99,-243.59 328.38,-249.78 334.12,-253.79"/>
</g>
<!-- Node30&#45;&gt;Node22 -->
<g id="edge53" class="edge">
<title>Node30&#45;&gt;Node22</title>
<path fill="none" stroke="midnightblue" d="M309.66,-337.49C312.82,-336.98 315.96,-336.47 319,-336 402.28,-323.02 498.13,-309.63 562.43,-300.87"/>
<polygon fill="midnightblue" stroke="midnightblue" points="563.03,-304.32 572.47,-299.5 562.09,-297.38 563.03,-304.32"/>
</g>
<!-- Node31&#45;&gt;Node2 -->
<g id="edge57" class="edge">
<title>Node31&#45;&gt;Node2</title>
<path fill="none" stroke="midnightblue" d="M353.44,-336.32C329.16,-313.28 267,-247.58 267,-179 267,-179 267,-179 267,-121 267,-88.49 275.16,-51.35 280.78,-29.61"/>
<polygon fill="midnightblue" stroke="midnightblue" points="284.22,-30.32 283.44,-19.75 277.46,-28.5 284.22,-30.32"/>
</g>
<!-- Node31&#45;&gt;Node3 -->
<g id="edge58" class="edge">
<title>Node31&#45;&gt;Node3</title>
<path fill="none" stroke="midnightblue" d="M335.59,-336.44C306.23,-327.28 259.48,-312.69 226.9,-302.52"/>
<polygon fill="midnightblue" stroke="midnightblue" points="227.87,-299.16 217.28,-299.52 225.79,-305.84 227.87,-299.16"/>
</g>
<!-- Node31&#45;&gt;Node16 -->
<g id="edge55" class="edge">
<title>Node31&#45;&gt;Node16</title>
<path fill="none" stroke="midnightblue" d="M367.62,-336.08C371.46,-328.69 377.02,-317.95 381.76,-308.81"/>
<polygon fill="midnightblue" stroke="midnightblue" points="384.97,-310.24 386.46,-299.75 378.75,-307.02 384.97,-310.24"/>
</g>
<!-- Node31&#45;&gt;Node17 -->
<g id="edge56" class="edge">
<title>Node31&#45;&gt;Node17</title>
<path fill="none" stroke="midnightblue" d="M377.3,-336.32C391.18,-327.9 412.49,-314.97 428.8,-305.07"/>
<polygon fill="midnightblue" stroke="midnightblue" points="431,-307.83 437.74,-299.65 427.37,-301.85 431,-307.83"/>
</g>
<!-- Node31&#45;&gt;Node18 -->
<g id="edge59" class="edge">
<title>Node31&#45;&gt;Node18</title>
<path fill="none" stroke="midnightblue" d="M361.43,-336.37C358.2,-318.62 350.76,-277.67 346.38,-253.6"/>
<polygon fill="midnightblue" stroke="midnightblue" points="349.79,-252.8 344.56,-243.59 342.91,-254.06 349.79,-252.8"/>
</g>
<!-- Node31&#45;&gt;Node22 -->
<g id="edge60" class="edge">
<title>Node31&#45;&gt;Node22</title>
<path fill="none" stroke="midnightblue" d="M398.86,-337.82C401.95,-337.2 405.03,-336.59 408,-336 467.79,-324.12 536.41,-310.59 582.62,-301.5"/>
<polygon fill="midnightblue" stroke="midnightblue" points="583.57,-304.88 592.71,-299.51 582.22,-298.01 583.57,-304.88"/>
</g>
</g>
</svg>
