<?xml version="1.0" encoding="UTF-8" standalone="no"?>
<!DOCTYPE svg PUBLIC "-//W3C//DTD SVG 1.1//EN"
 "http://www.w3.org/Graphics/SVG/1.1/DTD/svg11.dtd">
<!-- Generated by graphviz version 2.43.0 (0)
 -->
<!-- Title: ntp/include/ntp.hpp Pages: 1 -->
<svg width="1284pt" height="420pt"
 viewBox="0.00 0.00 1284.00 420.00" xmlns="http://www.w3.org/2000/svg" xmlns:xlink="http://www.w3.org/1999/xlink">
<g id="graph0" class="graph" transform="scale(1 1) rotate(0) translate(4 416)">
<title>ntp/include/ntp.hpp</title>
<!-- Node1 -->
<g id="node1" class="node">
<title>Node1</title>
<g id="a_node1"><a xlink:title="Main ntp library header.">
<polygon fill="#bfbfbf" stroke="black" points="977,-392.5 977,-411.5 1087,-411.5 1087,-392.5 977,-392.5"/>
<text text-anchor="middle" x="1032" y="-399.5" font-family="Helvetica,sans-Serif" font-size="10.00">ntp/include/ntp.hpp</text>
</a>
</g>
</g>
<!-- Node2 -->
<g id="node2" class="node">
<title>Node2</title>
<g id="a_node2"><a xlink:href="ntp__config_8hpp_source.html" target="_top" xlink:title=" ">
<polygon fill="none" stroke="black" points="875,-56.5 875,-75.5 963,-75.5 963,-56.5 875,-56.5"/>
<text text-anchor="middle" x="919" y="-63.5" font-family="Helvetica,sans-Serif" font-size="10.00">ntp_config.hpp</text>
</a>
</g>
</g>
<!-- Node1&#45;&gt;Node2 -->
<g id="edge1" class="edge">
<title>Node1&#45;&gt;Node2</title>
<path fill="none" stroke="midnightblue" d="M1051.3,-392.48C1065.43,-385.08 1083.56,-372.89 1092,-356 1109.15,-321.7 1180.28,-510.41 1068,-168 1059.2,-141.17 1059.22,-130.62 1038,-112 1019.49,-95.76 994.53,-85.13 972.25,-78.3"/>
<polygon fill="midnightblue" stroke="midnightblue" points="973.14,-74.92 962.56,-75.51 971.21,-81.64 973.14,-74.92"/>
</g>
<!-- Node3 -->
<g id="node3" class="node">
<title>Node3</title>
<g id="a_node3"><a xlink:href="logger_8hpp.html" target="_top" xlink:title="Interface for custom logger function.">
<polygon fill="none" stroke="black" points="981.5,-336.5 981.5,-355.5 1082.5,-355.5 1082.5,-336.5 981.5,-336.5"/>
<text text-anchor="middle" x="1032" y="-343.5" font-family="Helvetica,sans-Serif" font-size="10.00">logger/logger.hpp</text>
</a>
</g>
</g>
<!-- Node1&#45;&gt;Node3 -->
<g id="edge2" class="edge">
<title>Node1&#45;&gt;Node3</title>
<path fill="none" stroke="midnightblue" d="M1032,-392.08C1032,-385.01 1032,-374.86 1032,-365.99"/>
<polygon fill="midnightblue" stroke="midnightblue" points="1035.5,-365.75 1032,-355.75 1028.5,-365.75 1035.5,-365.75"/>
</g>
<!-- Node4 -->
<g id="node4" class="node">
<title>Node4</title>
<g id="a_node4"><a xlink:href="threadpool_8hpp.html" target="_top" xlink:title="Threadpool implementations.">
<polygon fill="none" stroke="black" points="776,-336.5 776,-355.5 890,-355.5 890,-336.5 776,-336.5"/>
<text text-anchor="middle" x="833" y="-343.5" font-family="Helvetica,sans-Serif" font-size="10.00">pool/threadpool.hpp</text>
</a>
</g>
</g>
<!-- Node1&#45;&gt;Node4 -->
<g id="edge3" class="edge">
<title>Node1&#45;&gt;Node4</title>
<path fill="none" stroke="midnightblue" d="M1000.47,-392.44C966.41,-383.2 911.99,-368.44 874.48,-358.26"/>
<polygon fill="midnightblue" stroke="midnightblue" points="874.95,-354.76 864.38,-355.52 873.12,-361.51 874.95,-354.76"/>
</g>
<!-- Node4&#45;&gt;Node2 -->
<g id="edge7" class="edge">
<title>Node4&#45;&gt;Node2</title>
<path fill="none" stroke="midnightblue" d="M890.21,-337.98C922.98,-331.89 963.67,-320.63 995,-300 1021.67,-282.44 1026.53,-272.95 1040,-244 1065.19,-189.86 1059.93,-151.32 1015,-112 998.25,-97.34 975.9,-86.49 956.99,-79.12"/>
<polygon fill="midnightblue" stroke="midnightblue" points="958.05,-75.78 947.45,-75.58 955.61,-82.34 958.05,-75.78"/>
</g>
<!-- Node5 -->
<g id="node5" class="node">
<title>Node5</title>
<g id="a_node5"><a xlink:title=" ">
<polygon fill="none" stroke="#bfbfbf" points="540,-0.5 540,-19.5 610,-19.5 610,-0.5 540,-0.5"/>
<text text-anchor="middle" x="575" y="-7.5" font-family="Helvetica,sans-Serif" font-size="10.00">Windows.h</text>
</a>
</g>
</g>
<!-- Node4&#45;&gt;Node5 -->
<g id="edge4" class="edge">
<title>Node4&#45;&gt;Node5</title>
<path fill="none" stroke="midnightblue" d="M775.74,-343.47C587.55,-337.7 0,-313.41 0,-235 0,-235 0,-235 0,-121 0,-69.1 48.11,-73.41 97,-56 176.05,-27.85 426.42,-16.14 529.74,-12.43"/>
<polygon fill="midnightblue" stroke="midnightblue" points="529.98,-15.92 539.85,-12.07 529.73,-8.93 529.98,-15.92"/>
</g>
<!-- Node6 -->
<g id="node6" class="node">
<title>Node6</title>
<g id="a_node6"><a xlink:title=" ">
<polygon fill="none" stroke="#bfbfbf" points="978,-168.5 978,-187.5 1028,-187.5 1028,-168.5 978,-168.5"/>
<text text-anchor="middle" x="1003" y="-175.5" font-family="Helvetica,sans-Serif" font-size="10.00">chrono</text>
</a>
</g>
</g>
<!-- Node4&#45;&gt;Node6 -->
<g id="edge5" class="edge">
<title>Node4&#45;&gt;Node6</title>
<path fill="none" stroke="midnightblue" d="M876.62,-336.46C923.26,-324.69 994.59,-298.41 1025,-244 1033.5,-228.79 1025.11,-209.74 1016.35,-196.21"/>
<polygon fill="midnightblue" stroke="midnightblue" points="1019.06,-193.98 1010.43,-187.84 1013.34,-198.02 1019.06,-193.98"/>
</g>
<!-- Node7 -->
<g id="node7" class="node">
<title>Node7</title>
<g id="a_node7"><a xlink:title=" ">
<polygon fill="none" stroke="#bfbfbf" points="28.5,-168.5 28.5,-187.5 97.5,-187.5 97.5,-168.5 28.5,-168.5"/>
<text text-anchor="middle" x="63" y="-175.5" font-family="Helvetica,sans-Serif" font-size="10.00">type_traits</text>
</a>
</g>
</g>
<!-- Node4&#45;&gt;Node7 -->
<g id="edge6" class="edge">
<title>Node4&#45;&gt;Node7</title>
<path fill="none" stroke="midnightblue" d="M775.84,-342.83C625.58,-336.24 223.38,-312.47 112,-244 93.81,-232.81 80.02,-212.18 71.77,-197.16"/>
<polygon fill="midnightblue" stroke="midnightblue" points="74.66,-195.12 66.96,-187.83 68.44,-198.33 74.66,-195.12"/>
</g>
<!-- Node8 -->
<g id="node8" class="node">
<title>Node8</title>
<g id="a_node8"><a xlink:href="allocator_8hpp.html" target="_top" xlink:title="Allocator implementations.">
<polygon fill="none" stroke="black" points="1160,-112.5 1160,-131.5 1276,-131.5 1276,-112.5 1160,-112.5"/>
<text text-anchor="middle" x="1218" y="-119.5" font-family="Helvetica,sans-Serif" font-size="10.00">details/allocator.hpp</text>
</a>
</g>
</g>
<!-- Node4&#45;&gt;Node8 -->
<g id="edge8" class="edge">
<title>Node4&#45;&gt;Node8</title>
<path fill="none" stroke="midnightblue" d="M890.08,-339.38C971.89,-330.89 1114.77,-314.26 1134,-300 1187.24,-260.53 1208.1,-178.61 1215.02,-141.72"/>
<polygon fill="midnightblue" stroke="midnightblue" points="1218.48,-142.27 1216.75,-131.81 1211.58,-141.07 1218.48,-142.27"/>
</g>
<!-- Node12 -->
<g id="node12" class="node">
<title>Node12</title>
<g id="a_node12"><a xlink:href="work_8hpp.html" target="_top" xlink:title="Work callback wrapper and manager implementation.">
<polygon fill="none" stroke="black" points="433,-280.5 433,-299.5 519,-299.5 519,-280.5 433,-280.5"/>
<text text-anchor="middle" x="476" y="-287.5" font-family="Helvetica,sans-Serif" font-size="10.00">pool/work.hpp</text>
</a>
</g>
</g>
<!-- Node4&#45;&gt;Node12 -->
<g id="edge15" class="edge">
<title>Node4&#45;&gt;Node12</title>
<path fill="none" stroke="midnightblue" d="M776.43,-336.44C708.59,-326.18 595.75,-309.11 529.36,-299.07"/>
<polygon fill="midnightblue" stroke="midnightblue" points="529.53,-295.56 519.12,-297.52 528.49,-302.48 529.53,-295.56"/>
</g>
<!-- Node27 -->
<g id="node27" class="node">
<title>Node27</title>
<g id="a_node27"><a xlink:href="wait_8hpp.html" target="_top" xlink:title="Implementation of threadpool wait callback.">
<polygon fill="none" stroke="black" points="625.5,-280.5 625.5,-299.5 708.5,-299.5 708.5,-280.5 625.5,-280.5"/>
<text text-anchor="middle" x="667" y="-287.5" font-family="Helvetica,sans-Serif" font-size="10.00">pool/wait.hpp</text>
</a>
</g>
</g>
<!-- Node4&#45;&gt;Node27 -->
<g id="edge38" class="edge">
<title>Node4&#45;&gt;Node27</title>
<path fill="none" stroke="midnightblue" d="M806.7,-336.44C778.65,-327.32 734.06,-312.81 702.82,-302.65"/>
<polygon fill="midnightblue" stroke="midnightblue" points="703.77,-299.28 693.18,-299.52 701.61,-305.94 703.77,-299.28"/>
</g>
<!-- Node31 -->
<g id="node31" class="node">
<title>Node31</title>
<g id="a_node31"><a xlink:href="timer_8hpp.html" target="_top" xlink:title="Implementation of threadpool timer callback.">
<polygon fill="none" stroke="black" points="837.5,-280.5 837.5,-299.5 924.5,-299.5 924.5,-280.5 837.5,-280.5"/>
<text text-anchor="middle" x="881" y="-287.5" font-family="Helvetica,sans-Serif" font-size="10.00">pool/timer.hpp</text>
</a>
</g>
</g>
<!-- Node4&#45;&gt;Node31 -->
<g id="edge50" class="edge">
<title>Node4&#45;&gt;Node31</title>
<path fill="none" stroke="midnightblue" d="M840.93,-336.08C847.85,-328.3 858.07,-316.8 866.45,-307.37"/>
<polygon fill="midnightblue" stroke="midnightblue" points="869.19,-309.55 873.22,-299.75 863.96,-304.9 869.19,-309.55"/>
</g>
<!-- Node32 -->
<g id="node32" class="node">
<title>Node32</title>
<g id="a_node32"><a xlink:href="io_8hpp.html" target="_top" xlink:title="Implementation of threadpool IO callback.">
<polygon fill="none" stroke="black" points="748.5,-280.5 748.5,-299.5 819.5,-299.5 819.5,-280.5 748.5,-280.5"/>
<text text-anchor="middle" x="784" y="-287.5" font-family="Helvetica,sans-Serif" font-size="10.00">pool/io.hpp</text>
</a>
</g>
</g>
<!-- Node4&#45;&gt;Node32 -->
<g id="edge57" class="edge">
<title>Node4&#45;&gt;Node32</title>
<path fill="none" stroke="midnightblue" d="M824.91,-336.08C817.84,-328.3 807.41,-316.8 798.85,-307.37"/>
<polygon fill="midnightblue" stroke="midnightblue" points="801.25,-304.8 791.94,-299.75 796.07,-309.51 801.25,-304.8"/>
</g>
<!-- Node8&#45;&gt;Node2 -->
<g id="edge10" class="edge">
<title>Node8&#45;&gt;Node2</title>
<path fill="none" stroke="midnightblue" d="M1170.62,-112.44C1116.99,-102.76 1029.76,-87 973.38,-76.82"/>
<polygon fill="midnightblue" stroke="midnightblue" points="973.69,-73.32 963.23,-74.99 972.45,-80.21 973.69,-73.32"/>
</g>
<!-- Node8&#45;&gt;Node5 -->
<g id="edge9" class="edge">
<title>Node8&#45;&gt;Node5</title>
<path fill="none" stroke="midnightblue" d="M1190.99,-112.48C1146.02,-98.6 1052.75,-71.16 972,-56 845.78,-32.3 694.48,-19.34 620.4,-13.99"/>
<polygon fill="midnightblue" stroke="midnightblue" points="620.26,-10.47 610.04,-13.25 619.76,-17.45 620.26,-10.47"/>
</g>
<!-- Node9 -->
<g id="node9" class="node">
<title>Node9</title>
<g id="a_node9"><a xlink:href="exception_8hpp.html" target="_top" xlink:title="Win32 error wrapper implementations.">
<polygon fill="none" stroke="black" points="1122,-56.5 1122,-75.5 1244,-75.5 1244,-56.5 1122,-56.5"/>
<text text-anchor="middle" x="1183" y="-63.5" font-family="Helvetica,sans-Serif" font-size="10.00">details/exception.hpp</text>
</a>
</g>
</g>
<!-- Node8&#45;&gt;Node9 -->
<g id="edge11" class="edge">
<title>Node8&#45;&gt;Node9</title>
<path fill="none" stroke="midnightblue" d="M1212.22,-112.08C1207.33,-104.53 1200.17,-93.49 1194.17,-84.23"/>
<polygon fill="midnightblue" stroke="midnightblue" points="1197.05,-82.24 1188.67,-75.75 1191.17,-86.05 1197.05,-82.24"/>
</g>
<!-- Node9&#45;&gt;Node5 -->
<g id="edge12" class="edge">
<title>Node9&#45;&gt;Node5</title>
<path fill="none" stroke="midnightblue" d="M1121.92,-59.58C999.81,-48.73 728.07,-24.59 620.3,-15.02"/>
<polygon fill="midnightblue" stroke="midnightblue" points="620.36,-11.52 610.09,-14.12 619.74,-18.49 620.36,-11.52"/>
</g>
<!-- Node10 -->
<g id="node10" class="node">
<title>Node10</title>
<g id="a_node10"><a xlink:title=" ">
<polygon fill="none" stroke="#bfbfbf" points="1113.5,-0.5 1113.5,-19.5 1178.5,-19.5 1178.5,-0.5 1113.5,-0.5"/>
<text text-anchor="middle" x="1146" y="-7.5" font-family="Helvetica,sans-Serif" font-size="10.00">stdexcept</text>
</a>
</g>
</g>
<!-- Node9&#45;&gt;Node10 -->
<g id="edge13" class="edge">
<title>Node9&#45;&gt;Node10</title>
<path fill="none" stroke="midnightblue" d="M1176.89,-56.08C1171.72,-48.53 1164.15,-37.49 1157.81,-28.23"/>
<polygon fill="midnightblue" stroke="midnightblue" points="1160.54,-26.02 1152,-19.75 1154.76,-29.98 1160.54,-26.02"/>
</g>
<!-- Node11 -->
<g id="node11" class="node">
<title>Node11</title>
<g id="a_node11"><a xlink:title=" ">
<polygon fill="none" stroke="#bfbfbf" points="1197,-0.5 1197,-19.5 1241,-19.5 1241,-0.5 1197,-0.5"/>
<text text-anchor="middle" x="1219" y="-7.5" font-family="Helvetica,sans-Serif" font-size="10.00">string</text>
</a>
</g>
</g>
<!-- Node9&#45;&gt;Node11 -->
<g id="edge14" class="edge">
<title>Node9&#45;&gt;Node11</title>
<path fill="none" stroke="midnightblue" d="M1188.94,-56.08C1193.98,-48.53 1201.34,-37.49 1207.51,-28.23"/>
<polygon fill="midnightblue" stroke="midnightblue" points="1210.53,-30.01 1213.17,-19.75 1204.71,-26.13 1210.53,-30.01"/>
</g>
<!-- Node12&#45;&gt;Node2 -->
<g id="edge20" class="edge">
<title>Node12&#45;&gt;Node2</title>
<path fill="none" stroke="midnightblue" d="M433,-284.37C377.07,-277.66 283.18,-263.82 255,-244 224.73,-222.71 196.78,-195.98 221,-168 304.55,-71.5 715,-65.19 864.45,-66.17"/>
<polygon fill="midnightblue" stroke="midnightblue" points="864.72,-69.68 874.75,-66.26 864.78,-62.68 864.72,-69.68"/>
</g>
<!-- Node12&#45;&gt;Node5 -->
<g id="edge16" class="edge">
<title>Node12&#45;&gt;Node5</title>
<path fill="none" stroke="midnightblue" d="M432.98,-288.9C381.26,-287.11 293.17,-278.62 227,-244 140.83,-198.91 49.66,-128.04 115,-56 142.55,-25.63 419.37,-15.07 529.84,-12.05"/>
<polygon fill="midnightblue" stroke="midnightblue" points="530.09,-15.54 539.99,-11.78 529.9,-8.54 530.09,-15.54"/>
</g>
<!-- Node13 -->
<g id="node13" class="node">
<title>Node13</title>
<g id="a_node13"><a xlink:title=" ">
<polygon fill="none" stroke="#bfbfbf" points="264.5,-224.5 264.5,-243.5 325.5,-243.5 325.5,-224.5 264.5,-224.5"/>
<text text-anchor="middle" x="295" y="-231.5" font-family="Helvetica,sans-Serif" font-size="10.00">atlsync.h</text>
</a>
</g>
</g>
<!-- Node12&#45;&gt;Node13 -->
<g id="edge17" class="edge">
<title>Node12&#45;&gt;Node13</title>
<path fill="none" stroke="midnightblue" d="M447.32,-280.44C416.47,-271.24 367.27,-256.56 333.17,-246.39"/>
<polygon fill="midnightblue" stroke="midnightblue" points="334.13,-243.02 323.55,-243.52 332.13,-249.73 334.13,-243.02"/>
</g>
<!-- Node14 -->
<g id="node14" class="node">
<title>Node14</title>
<g id="a_node14"><a xlink:title=" ">
<polygon fill="none" stroke="#bfbfbf" points="683.5,-224.5 683.5,-243.5 724.5,-243.5 724.5,-224.5 683.5,-224.5"/>
<text text-anchor="middle" x="704" y="-231.5" font-family="Helvetica,sans-Serif" font-size="10.00">tuple</text>
</a>
</g>
</g>
<!-- Node12&#45;&gt;Node14 -->
<g id="edge18" class="edge">
<title>Node12&#45;&gt;Node14</title>
<path fill="none" stroke="midnightblue" d="M512.13,-280.44C556.69,-269.89 631.67,-252.13 673.49,-242.23"/>
<polygon fill="midnightblue" stroke="midnightblue" points="674.44,-245.6 683.36,-239.89 672.83,-238.79 674.44,-245.6"/>
</g>
<!-- Node15 -->
<g id="node15" class="node">
<title>Node15</title>
<g id="a_node15"><a xlink:title=" ">
<polygon fill="none" stroke="#bfbfbf" points="742.5,-224.5 742.5,-243.5 787.5,-243.5 787.5,-224.5 742.5,-224.5"/>
<text text-anchor="middle" x="765" y="-231.5" font-family="Helvetica,sans-Serif" font-size="10.00">utility</text>
</a>
</g>
</g>
<!-- Node12&#45;&gt;Node15 -->
<g id="edge19" class="edge">
<title>Node12&#45;&gt;Node15</title>
<path fill="none" stroke="midnightblue" d="M519.2,-282.95C568.67,-275.69 652.29,-262.43 732.61,-244.13"/>
<polygon fill="midnightblue" stroke="midnightblue" points="733.43,-247.53 742.39,-241.88 731.86,-240.71 733.43,-247.53"/>
</g>
<!-- Node16 -->
<g id="node16" class="node">
<title>Node16</title>
<g id="a_node16"><a xlink:href="utils_8hpp.html" target="_top" xlink:title="Some useful implementation stuff.">
<polygon fill="none" stroke="black" points="692.5,-168.5 692.5,-187.5 787.5,-187.5 787.5,-168.5 692.5,-168.5"/>
<text text-anchor="middle" x="740" y="-175.5" font-family="Helvetica,sans-Serif" font-size="10.00">details/utils.hpp</text>
</a>
</g>
</g>
<!-- Node12&#45;&gt;Node16 -->
<g id="edge21" class="edge">
<title>Node12&#45;&gt;Node16</title>
<path fill="none" stroke="midnightblue" d="M484.73,-280.46C499.44,-266.55 530.62,-239.06 562,-224 599.93,-205.8 646.05,-194.41 681.85,-187.64"/>
<polygon fill="midnightblue" stroke="midnightblue" points="682.92,-191 692.13,-185.77 681.66,-184.11 682.92,-191"/>
</g>
<!-- Node21 -->
<g id="node21" class="node">
<title>Node21</title>
<g id="a_node21"><a xlink:href="basic__callback_8hpp.html" target="_top" xlink:title="Interfaces and base classes for callback wrappers.">
<polygon fill="none" stroke="black" points="343.5,-224.5 343.5,-243.5 476.5,-243.5 476.5,-224.5 343.5,-224.5"/>
<text text-anchor="middle" x="410" y="-231.5" font-family="Helvetica,sans-Serif" font-size="10.00">pool/basic_callback.hpp</text>
</a>
</g>
</g>
<!-- Node12&#45;&gt;Node21 -->
<g id="edge28" class="edge">
<title>Node12&#45;&gt;Node21</title>
<path fill="none" stroke="midnightblue" d="M465.4,-280.32C455.54,-272.26 440.65,-260.08 428.78,-250.37"/>
<polygon fill="midnightblue" stroke="midnightblue" points="430.75,-247.46 420.8,-243.83 426.32,-252.88 430.75,-247.46"/>
</g>
<!-- Node16&#45;&gt;Node2 -->
<g id="edge23" class="edge">
<title>Node16&#45;&gt;Node2</title>
<path fill="none" stroke="midnightblue" d="M752.79,-168.34C771.66,-155.65 808.17,-131.39 840,-112 857.97,-101.05 878.65,-89.3 894.35,-80.55"/>
<polygon fill="midnightblue" stroke="midnightblue" points="896.36,-83.44 903.4,-75.53 892.96,-77.32 896.36,-83.44"/>
</g>
<!-- Node16&#45;&gt;Node8 -->
<g id="edge27" class="edge">
<title>Node16&#45;&gt;Node8</title>
<path fill="none" stroke="midnightblue" d="M787.58,-171.62C872.76,-162 1051.58,-141.8 1149.8,-130.7"/>
<polygon fill="midnightblue" stroke="midnightblue" points="1150.37,-134.16 1159.91,-129.56 1149.58,-127.21 1150.37,-134.16"/>
</g>
<!-- Node17 -->
<g id="node17" class="node">
<title>Node17</title>
<g id="a_node17"><a xlink:title=" ">
<polygon fill="none" stroke="#bfbfbf" points="700,-112.5 700,-131.5 750,-131.5 750,-112.5 700,-112.5"/>
<text text-anchor="middle" x="725" y="-119.5" font-family="Helvetica,sans-Serif" font-size="10.00">atomic</text>
</a>
</g>
</g>
<!-- Node16&#45;&gt;Node17 -->
<g id="edge22" class="edge">
<title>Node16&#45;&gt;Node17</title>
<path fill="none" stroke="midnightblue" d="M737.52,-168.08C735.51,-160.85 732.61,-150.41 730.11,-141.4"/>
<polygon fill="midnightblue" stroke="midnightblue" points="733.48,-140.45 727.43,-131.75 726.74,-142.32 733.48,-140.45"/>
</g>
<!-- Node18 -->
<g id="node18" class="node">
<title>Node18</title>
<g id="a_node18"><a xlink:href="ntrtl_8h.html" target="_top" xlink:title="Contains necessary declarations/definitions of internal windows objects and functions.">
<polygon fill="none" stroke="black" points="124,-112.5 124,-131.5 204,-131.5 204,-112.5 124,-112.5"/>
<text text-anchor="middle" x="164" y="-119.5" font-family="Helvetica,sans-Serif" font-size="10.00">native/ntrtl.h</text>
</a>
</g>
</g>
<!-- Node16&#45;&gt;Node18 -->
<g id="edge24" class="edge">
<title>Node16&#45;&gt;Node18</title>
<path fill="none" stroke="midnightblue" d="M692.37,-172.54C584.93,-162.46 324.49,-138.05 214.43,-127.73"/>
<polygon fill="midnightblue" stroke="midnightblue" points="214.54,-124.22 204.26,-126.77 213.89,-131.19 214.54,-124.22"/>
</g>
<!-- Node19 -->
<g id="node19" class="node">
<title>Node19</title>
<g id="a_node19"><a xlink:title=" ">
<polygon fill="none" stroke="#bfbfbf" points="208,-56.5 208,-75.5 276,-75.5 276,-56.5 208,-56.5"/>
<text text-anchor="middle" x="242" y="-63.5" font-family="Helvetica,sans-Serif" font-size="10.00">windows.h</text>
</a>
</g>
</g>
<!-- Node18&#45;&gt;Node19 -->
<g id="edge25" class="edge">
<title>Node18&#45;&gt;Node19</title>
<path fill="none" stroke="midnightblue" d="M176.53,-112.32C188.59,-103.98 207.03,-91.21 221.27,-81.35"/>
<polygon fill="midnightblue" stroke="midnightblue" points="223.27,-84.22 229.5,-75.65 219.28,-78.47 223.27,-84.22"/>
</g>
<!-- Node20 -->
<g id="node20" class="node">
<title>Node20</title>
<g id="a_node20"><a xlink:title=" ">
<polygon fill="none" stroke="#bfbfbf" points="124.5,-56.5 124.5,-75.5 189.5,-75.5 189.5,-56.5 124.5,-56.5"/>
<text text-anchor="middle" x="157" y="-63.5" font-family="Helvetica,sans-Serif" font-size="10.00">winternl.h</text>
</a>
</g>
</g>
<!-- Node18&#45;&gt;Node20 -->
<g id="edge26" class="edge">
<title>Node18&#45;&gt;Node20</title>
<path fill="none" stroke="midnightblue" d="M162.84,-112.08C161.92,-104.93 160.58,-94.64 159.42,-85.69"/>
<polygon fill="midnightblue" stroke="midnightblue" points="162.89,-85.22 158.13,-75.75 155.95,-86.12 162.89,-85.22"/>
</g>
<!-- Node21&#45;&gt;Node2 -->
<g id="edge36" class="edge">
<title>Node21&#45;&gt;Node2</title>
<path fill="none" stroke="midnightblue" d="M471.52,-224.48C521.04,-216.64 585.76,-203.82 607,-188 638.12,-164.82 618.21,-134.26 650,-112 683.8,-88.33 796.28,-76.03 864.63,-70.59"/>
<polygon fill="midnightblue" stroke="midnightblue" points="865.08,-74.07 874.79,-69.81 864.55,-67.09 865.08,-74.07"/>
</g>
<!-- Node21&#45;&gt;Node5 -->
<g id="edge29" class="edge">
<title>Node21&#45;&gt;Node5</title>
<path fill="none" stroke="midnightblue" d="M360.52,-224.47C307.5,-214.83 229.73,-199.05 221,-188 215.49,-181.02 216.15,-175.45 221,-168 290.46,-61.2 451.05,-26.49 529.8,-15.66"/>
<polygon fill="midnightblue" stroke="midnightblue" points="530.44,-19.11 539.9,-14.34 529.53,-12.17 530.44,-19.11"/>
</g>
<!-- Node21&#45;&gt;Node7 -->
<g id="edge34" class="edge">
<title>Node21&#45;&gt;Node7</title>
<path fill="none" stroke="midnightblue" d="M355.02,-224.44C286.59,-213.79 171.05,-195.81 107.76,-185.97"/>
<polygon fill="midnightblue" stroke="midnightblue" points="108.11,-182.48 97.69,-184.4 107.04,-189.4 108.11,-182.48"/>
</g>
<!-- Node21&#45;&gt;Node16 -->
<g id="edge37" class="edge">
<title>Node21&#45;&gt;Node16</title>
<path fill="none" stroke="midnightblue" d="M462.29,-224.44C522.2,-214.64 620.09,-198.62 682.21,-188.46"/>
<polygon fill="midnightblue" stroke="midnightblue" points="682.94,-191.88 692.24,-186.82 681.81,-184.98 682.94,-191.88"/>
</g>
<!-- Node22 -->
<g id="node22" class="node">
<title>Node22</title>
<g id="a_node22"><a xlink:title=" ">
<polygon fill="none" stroke="#bfbfbf" points="418,-168.5 418,-187.5 456,-187.5 456,-168.5 418,-168.5"/>
<text text-anchor="middle" x="437" y="-175.5" font-family="Helvetica,sans-Serif" font-size="10.00">map</text>
</a>
</g>
</g>
<!-- Node21&#45;&gt;Node22 -->
<g id="edge30" class="edge">
<title>Node21&#45;&gt;Node22</title>
<path fill="none" stroke="midnightblue" d="M414.46,-224.08C418.15,-216.69 423.52,-205.95 428.09,-196.81"/>
<polygon fill="midnightblue" stroke="midnightblue" points="431.28,-198.26 432.62,-187.75 425.02,-195.13 431.28,-198.26"/>
</g>
<!-- Node23 -->
<g id="node23" class="node">
<title>Node23</title>
<g id="a_node23"><a xlink:title=" ">
<polygon fill="none" stroke="#bfbfbf" points="474,-168.5 474,-187.5 522,-187.5 522,-168.5 474,-168.5"/>
<text text-anchor="middle" x="498" y="-175.5" font-family="Helvetica,sans-Serif" font-size="10.00">mutex</text>
</a>
</g>
</g>
<!-- Node21&#45;&gt;Node23 -->
<g id="edge31" class="edge">
<title>Node21&#45;&gt;Node23</title>
<path fill="none" stroke="midnightblue" d="M424.14,-224.32C437.87,-215.9 458.94,-202.97 475.06,-193.07"/>
<polygon fill="midnightblue" stroke="midnightblue" points="477.2,-195.87 483.9,-187.65 473.54,-189.9 477.2,-195.87"/>
</g>
<!-- Node24 -->
<g id="node24" class="node">
<title>Node24</title>
<g id="a_node24"><a xlink:title=" ">
<polygon fill="none" stroke="#bfbfbf" points="540,-168.5 540,-187.5 598,-187.5 598,-168.5 540,-168.5"/>
<text text-anchor="middle" x="569" y="-175.5" font-family="Helvetica,sans-Serif" font-size="10.00">memory</text>
</a>
</g>
</g>
<!-- Node21&#45;&gt;Node24 -->
<g id="edge32" class="edge">
<title>Node21&#45;&gt;Node24</title>
<path fill="none" stroke="midnightblue" d="M435.19,-224.44C461.94,-215.36 504.4,-200.94 534.31,-190.78"/>
<polygon fill="midnightblue" stroke="midnightblue" points="535.58,-194.05 543.92,-187.52 533.33,-187.42 535.58,-194.05"/>
</g>
<!-- Node25 -->
<g id="node25" class="node">
<title>Node25</title>
<g id="a_node25"><a xlink:title=" ">
<polygon fill="none" stroke="#bfbfbf" points="230.5,-168.5 230.5,-187.5 295.5,-187.5 295.5,-168.5 230.5,-168.5"/>
<text text-anchor="middle" x="263" y="-175.5" font-family="Helvetica,sans-Serif" font-size="10.00">functional</text>
</a>
</g>
</g>
<!-- Node21&#45;&gt;Node25 -->
<g id="edge33" class="edge">
<title>Node21&#45;&gt;Node25</title>
<path fill="none" stroke="midnightblue" d="M386.71,-224.44C362.19,-215.44 323.4,-201.19 295.8,-191.05"/>
<polygon fill="midnightblue" stroke="midnightblue" points="296.78,-187.68 286.18,-187.52 294.36,-194.25 296.78,-187.68"/>
</g>
<!-- Node26 -->
<g id="node26" class="node">
<title>Node26</title>
<g id="a_node26"><a xlink:title=" ">
<polygon fill="none" stroke="#bfbfbf" points="314,-168.5 314,-187.5 400,-187.5 400,-168.5 314,-168.5"/>
<text text-anchor="middle" x="357" y="-175.5" font-family="Helvetica,sans-Serif" font-size="10.00">shared_mutex</text>
</a>
</g>
</g>
<!-- Node21&#45;&gt;Node26 -->
<g id="edge35" class="edge">
<title>Node21&#45;&gt;Node26</title>
<path fill="none" stroke="midnightblue" d="M401.25,-224.08C393.53,-216.22 382.1,-204.57 372.78,-195.08"/>
<polygon fill="midnightblue" stroke="midnightblue" points="375.09,-192.44 365.59,-187.75 370.1,-197.34 375.09,-192.44"/>
</g>
<!-- Node27&#45;&gt;Node2 -->
<g id="edge42" class="edge">
<title>Node27&#45;&gt;Node2</title>
<path fill="none" stroke="midnightblue" d="M625.36,-280.61C589.04,-271.17 544.65,-253.22 562,-224 579.06,-195.27 602.21,-209.24 628,-188 661.87,-160.11 653.3,-134.44 691,-112 744.41,-80.22 816.1,-70.39 864.73,-67.6"/>
<polygon fill="midnightblue" stroke="midnightblue" points="864.92,-71.1 874.74,-67.11 864.58,-64.11 864.92,-71.1"/>
</g>
<!-- Node27&#45;&gt;Node14 -->
<g id="edge39" class="edge">
<title>Node27&#45;&gt;Node14</title>
<path fill="none" stroke="midnightblue" d="M673.11,-280.08C678.28,-272.53 685.85,-261.49 692.19,-252.23"/>
<polygon fill="midnightblue" stroke="midnightblue" points="695.24,-253.98 698,-243.75 689.46,-250.02 695.24,-253.98"/>
</g>
<!-- Node27&#45;&gt;Node15 -->
<g id="edge40" class="edge">
<title>Node27&#45;&gt;Node15</title>
<path fill="none" stroke="midnightblue" d="M682.75,-280.32C698.32,-271.74 722.38,-258.49 740.46,-248.52"/>
<polygon fill="midnightblue" stroke="midnightblue" points="742.22,-251.55 749.29,-243.65 738.85,-245.42 742.22,-251.55"/>
</g>
<!-- Node27&#45;&gt;Node16 -->
<g id="edge48" class="edge">
<title>Node27&#45;&gt;Node16</title>
<path fill="none" stroke="midnightblue" d="M665.93,-280.29C664.77,-267.09 664.29,-241.71 675,-224 683.23,-210.39 697.33,-199.88 710.29,-192.46"/>
<polygon fill="midnightblue" stroke="midnightblue" points="712.25,-195.38 719.43,-187.59 708.96,-189.2 712.25,-195.38"/>
</g>
<!-- Node27&#45;&gt;Node21 -->
<g id="edge49" class="edge">
<title>Node27&#45;&gt;Node21</title>
<path fill="none" stroke="midnightblue" d="M626.28,-280.44C581.35,-271 509,-255.8 460.5,-245.61"/>
<polygon fill="midnightblue" stroke="midnightblue" points="461.04,-242.15 450.53,-243.52 459.6,-249 461.04,-242.15"/>
</g>
<!-- Node28 -->
<g id="node28" class="node">
<title>Node28</title>
<g id="a_node28"><a xlink:title=" ">
<polygon fill="none" stroke="#bfbfbf" points="571,-224.5 571,-243.5 627,-243.5 627,-224.5 571,-224.5"/>
<text text-anchor="middle" x="599" y="-231.5" font-family="Helvetica,sans-Serif" font-size="10.00">optional</text>
</a>
</g>
</g>
<!-- Node27&#45;&gt;Node28 -->
<g id="edge41" class="edge">
<title>Node27&#45;&gt;Node28</title>
<path fill="none" stroke="midnightblue" d="M656.07,-280.32C645.83,-272.18 630.28,-259.84 618,-250.09"/>
<polygon fill="midnightblue" stroke="midnightblue" points="620.13,-247.31 610.12,-243.83 615.78,-252.79 620.13,-247.31"/>
</g>
<!-- Node29 -->
<g id="node29" class="node">
<title>Node29</title>
<g id="a_node29"><a xlink:href="time_8hpp.html" target="_top" xlink:title="Utils to work with std::chrono.">
<polygon fill="none" stroke="black" points="920,-224.5 920,-243.5 1016,-243.5 1016,-224.5 920,-224.5"/>
<text text-anchor="middle" x="968" y="-231.5" font-family="Helvetica,sans-Serif" font-size="10.00">details/time.hpp</text>
</a>
</g>
</g>
<!-- Node27&#45;&gt;Node29 -->
<g id="edge43" class="edge">
<title>Node27&#45;&gt;Node29</title>
<path fill="none" stroke="midnightblue" d="M708.54,-281.55C760.98,-272.14 851.47,-255.91 910.53,-245.31"/>
<polygon fill="midnightblue" stroke="midnightblue" points="911.22,-248.74 920.45,-243.53 909.98,-241.85 911.22,-248.74"/>
</g>
<!-- Node29&#45;&gt;Node2 -->
<g id="edge47" class="edge">
<title>Node29&#45;&gt;Node2</title>
<path fill="none" stroke="midnightblue" d="M965.37,-224.08C957.65,-197.95 935,-121.21 924.48,-85.58"/>
<polygon fill="midnightblue" stroke="midnightblue" points="927.72,-84.17 921.53,-75.57 921,-86.15 927.72,-84.17"/>
</g>
<!-- Node29&#45;&gt;Node5 -->
<g id="edge44" class="edge">
<title>Node29&#45;&gt;Node5</title>
<path fill="none" stroke="midnightblue" d="M948.16,-224.46C928.85,-215.93 898.88,-202.09 874,-188 820.69,-157.81 811.45,-143.66 759,-112 703.82,-78.7 637.05,-43.2 601.05,-24.44"/>
<polygon fill="midnightblue" stroke="midnightblue" points="602.24,-21.11 591.75,-19.61 599.01,-27.32 602.24,-21.11"/>
</g>
<!-- Node29&#45;&gt;Node6 -->
<g id="edge46" class="edge">
<title>Node29&#45;&gt;Node6</title>
<path fill="none" stroke="midnightblue" d="M973.78,-224.08C978.67,-216.53 985.83,-205.49 991.83,-196.23"/>
<polygon fill="midnightblue" stroke="midnightblue" points="994.83,-198.05 997.33,-187.75 988.95,-194.24 994.83,-198.05"/>
</g>
<!-- Node30 -->
<g id="node30" class="node">
<title>Node30</title>
<g id="a_node30"><a xlink:title=" ">
<polygon fill="none" stroke="#bfbfbf" points="882.5,-168.5 882.5,-187.5 921.5,-187.5 921.5,-168.5 882.5,-168.5"/>
<text text-anchor="middle" x="902" y="-175.5" font-family="Helvetica,sans-Serif" font-size="10.00">ratio</text>
</a>
</g>
</g>
<!-- Node29&#45;&gt;Node30 -->
<g id="edge45" class="edge">
<title>Node29&#45;&gt;Node30</title>
<path fill="none" stroke="midnightblue" d="M957.4,-224.32C947.54,-216.26 932.65,-204.08 920.78,-194.37"/>
<polygon fill="midnightblue" stroke="midnightblue" points="922.75,-191.46 912.8,-187.83 918.32,-196.88 922.75,-191.46"/>
</g>
<!-- Node31&#45;&gt;Node2 -->
<g id="edge53" class="edge">
<title>Node31&#45;&gt;Node2</title>
<path fill="none" stroke="midnightblue" d="M924.64,-286.74C956.9,-282.69 999.49,-271.96 1025,-244 1042.15,-225.19 1034.32,-213.31 1037,-188 1037.94,-179.16 1040.72,-176.07 1037,-168 1018.26,-127.29 974.11,-96.87 945.45,-80.53"/>
<polygon fill="midnightblue" stroke="midnightblue" points="946.83,-77.3 936.38,-75.54 943.45,-83.43 946.83,-77.3"/>
</g>
<!-- Node31&#45;&gt;Node14 -->
<g id="edge51" class="edge">
<title>Node31&#45;&gt;Node14</title>
<path fill="none" stroke="midnightblue" d="M852.95,-280.44C820.62,-270.58 767.67,-254.42 734.38,-244.27"/>
<polygon fill="midnightblue" stroke="midnightblue" points="735.31,-240.89 724.73,-241.32 733.27,-247.59 735.31,-240.89"/>
</g>
<!-- Node31&#45;&gt;Node15 -->
<g id="edge52" class="edge">
<title>Node31&#45;&gt;Node15</title>
<path fill="none" stroke="midnightblue" d="M862.62,-280.44C843.78,-271.68 814.27,-257.94 792.62,-247.86"/>
<polygon fill="midnightblue" stroke="midnightblue" points="793.84,-244.56 783.29,-243.52 790.88,-250.91 793.84,-244.56"/>
</g>
<!-- Node31&#45;&gt;Node16 -->
<g id="edge55" class="edge">
<title>Node31&#45;&gt;Node16</title>
<path fill="none" stroke="midnightblue" d="M872.98,-280.43C860.59,-267.43 835.72,-242.3 812,-224 796.97,-212.4 778.84,-201.09 764.53,-192.7"/>
<polygon fill="midnightblue" stroke="midnightblue" points="766.17,-189.6 755.75,-187.64 762.67,-195.67 766.17,-189.6"/>
</g>
<!-- Node31&#45;&gt;Node21 -->
<g id="edge56" class="edge">
<title>Node31&#45;&gt;Node21</title>
<path fill="none" stroke="midnightblue" d="M837.34,-281.23C834.52,-280.8 831.72,-280.38 829,-280 709.77,-263.3 570.69,-249.47 486.55,-241.73"/>
<polygon fill="midnightblue" stroke="midnightblue" points="486.84,-238.24 476.56,-240.82 486.2,-245.21 486.84,-238.24"/>
</g>
<!-- Node31&#45;&gt;Node29 -->
<g id="edge54" class="edge">
<title>Node31&#45;&gt;Node29</title>
<path fill="none" stroke="midnightblue" d="M894.98,-280.32C908.55,-271.9 929.38,-258.97 945.32,-249.07"/>
<polygon fill="midnightblue" stroke="midnightblue" points="947.41,-251.9 954.06,-243.65 943.71,-245.95 947.41,-251.9"/>
</g>
<!-- Node32&#45;&gt;Node2 -->
<g id="edge60" class="edge">
<title>Node32&#45;&gt;Node2</title>
<path fill="none" stroke="midnightblue" d="M789.4,-280.39C795.06,-271.35 804.21,-256.71 812,-244 847.73,-185.75 889.47,-116.29 908.54,-84.47"/>
<polygon fill="midnightblue" stroke="midnightblue" points="911.56,-86.24 913.7,-75.86 905.55,-82.64 911.56,-86.24"/>
</g>
<!-- Node32&#45;&gt;Node14 -->
<g id="edge58" class="edge">
<title>Node32&#45;&gt;Node14</title>
<path fill="none" stroke="midnightblue" d="M771.15,-280.32C758.78,-271.98 739.87,-259.21 725.26,-249.35"/>
<polygon fill="midnightblue" stroke="midnightblue" points="727.07,-246.35 716.82,-243.65 723.15,-252.15 727.07,-246.35"/>
</g>
<!-- Node32&#45;&gt;Node15 -->
<g id="edge59" class="edge">
<title>Node32&#45;&gt;Node15</title>
<path fill="none" stroke="midnightblue" d="M780.86,-280.08C778.32,-272.85 774.64,-262.41 771.47,-253.4"/>
<polygon fill="midnightblue" stroke="midnightblue" points="774.7,-252.02 768.08,-243.75 768.1,-254.35 774.7,-252.02"/>
</g>
<!-- Node32&#45;&gt;Node16 -->
<g id="edge62" class="edge">
<title>Node32&#45;&gt;Node16</title>
<path fill="none" stroke="midnightblue" d="M789.15,-280.14C795.94,-267.2 806.03,-242.64 797,-224 790.6,-210.8 778.25,-200.3 766.67,-192.78"/>
<polygon fill="midnightblue" stroke="midnightblue" points="768.45,-189.77 758.08,-187.61 764.84,-195.77 768.45,-189.77"/>
</g>
<!-- Node32&#45;&gt;Node21 -->
<g id="edge63" class="edge">
<title>Node32&#45;&gt;Node21</title>
<path fill="none" stroke="midnightblue" d="M748.48,-283.87C686.75,-274.96 558.68,-256.47 478.98,-244.96"/>
<polygon fill="midnightblue" stroke="midnightblue" points="479.43,-241.49 469.03,-243.52 478.43,-248.42 479.43,-241.49"/>
</g>
<!-- Node32&#45;&gt;Node29 -->
<g id="edge61" class="edge">
<title>Node32&#45;&gt;Node29</title>
<path fill="none" stroke="midnightblue" d="M813.16,-280.44C844.51,-271.24 894.53,-256.56 929.2,-246.39"/>
<polygon fill="midnightblue" stroke="midnightblue" points="930.37,-249.69 938.98,-243.52 928.4,-242.97 930.37,-249.69"/>
</g>
</g>
</svg>
