<?xml version="1.0" encoding="UTF-8" standalone="no"?>
<!DOCTYPE svg PUBLIC "-//W3C//DTD SVG 1.1//EN"
 "http://www.w3.org/Graphics/SVG/1.1/DTD/svg11.dtd">
<!-- Generated by graphviz version 2.43.0 (0)
 -->
<!-- Title: ntp/include/native/ntrtl.h Pages: 1 -->
<svg width="160pt" height="95pt"
 viewBox="0.00 0.00 159.50 95.00" xmlns="http://www.w3.org/2000/svg" xmlns:xlink="http://www.w3.org/1999/xlink">
<g id="graph0" class="graph" transform="scale(1 1) rotate(0) translate(4 91)">
<title>ntp/include/native/ntrtl.h</title>
<!-- Node1 -->
<g id="node1" class="node">
<title>Node1</title>
<g id="a_node1"><a xlink:title="Contains necessary declarations/definitions of internal windows objects and functions.">
<polygon fill="#bfbfbf" stroke="black" points="24,-56.5 24,-86.5 128,-86.5 128,-56.5 24,-56.5"/>
<text text-anchor="start" x="32" y="-74.5" font-family="Helvetica,sans-Serif" font-size="10.00">ntp/include/native</text>
<text text-anchor="middle" x="76" y="-63.5" font-family="Helvetica,sans-Serif" font-size="10.00">/ntrtl.h</text>
</a>
</g>
</g>
<!-- Node2 -->
<g id="node2" class="node">
<title>Node2</title>
<g id="a_node2"><a xlink:title=" ">
<polygon fill="none" stroke="#bfbfbf" points="0,-0.5 0,-19.5 68,-19.5 68,-0.5 0,-0.5"/>
<text text-anchor="middle" x="34" y="-7.5" font-family="Helvetica,sans-Serif" font-size="10.00">windows.h</text>
</a>
</g>
</g>
<!-- Node1&#45;&gt;Node2 -->
<g id="edge1" class="edge">
<title>Node1&#45;&gt;Node2</title>
<path fill="none" stroke="midnightblue" d="M66.05,-56.4C60.01,-47.84 52.26,-36.87 45.9,-27.86"/>
<polygon fill="midnightblue" stroke="midnightblue" points="48.74,-25.81 40.11,-19.66 43.02,-29.85 48.74,-25.81"/>
</g>
<!-- Node3 -->
<g id="node3" class="node">
<title>Node3</title>
<g id="a_node3"><a xlink:title=" ">
<polygon fill="none" stroke="#bfbfbf" points="86.5,-0.5 86.5,-19.5 151.5,-19.5 151.5,-0.5 86.5,-0.5"/>
<text text-anchor="middle" x="119" y="-7.5" font-family="Helvetica,sans-Serif" font-size="10.00">winternl.h</text>
</a>
</g>
</g>
<!-- Node1&#45;&gt;Node3 -->
<g id="edge2" class="edge">
<title>Node1&#45;&gt;Node3</title>
<path fill="none" stroke="midnightblue" d="M86.19,-56.4C92.37,-47.84 100.3,-36.87 106.82,-27.86"/>
<polygon fill="midnightblue" stroke="midnightblue" points="109.72,-29.81 112.74,-19.66 104.05,-25.71 109.72,-29.81"/>
</g>
</g>
</svg>
