<?xml version="1.0" encoding="UTF-8" standalone="no"?>
<!DOCTYPE svg PUBLIC "-//W3C//DTD SVG 1.1//EN"
 "http://www.w3.org/Graphics/SVG/1.1/DTD/svg11.dtd">
<!-- Generated by graphviz version 2.43.0 (0)
 -->
<!-- Title: ntp/include/native/ntrtl.h Pages: 1 -->
<svg width="680pt" height="341pt"
 viewBox="0.00 0.00 680.00 341.00" xmlns="http://www.w3.org/2000/svg" xmlns:xlink="http://www.w3.org/1999/xlink">
<g id="graph0" class="graph" transform="scale(1 1) rotate(0) translate(4 337)">
<title>ntp/include/native/ntrtl.h</title>
<!-- Node1 -->
<g id="node1" class="node">
<title>Node1</title>
<g id="a_node1"><a xlink:title="Contains necessary declarations/definitions of internal windows objects and functions.">
<polygon fill="#bfbfbf" stroke="black" points="422,-302.5 422,-332.5 526,-332.5 526,-302.5 422,-302.5"/>
<text text-anchor="start" x="430" y="-320.5" font-family="Helvetica,sans-Serif" font-size="10.00">ntp/include/native</text>
<text text-anchor="middle" x="474" y="-309.5" font-family="Helvetica,sans-Serif" font-size="10.00">/ntrtl.h</text>
</a>
</g>
</g>
<!-- Node2 -->
<g id="node2" class="node">
<title>Node2</title>
<g id="a_node2"><a xlink:href="utils_8hpp.html" target="_top" xlink:title="Some useful implementation stuff.">
<polygon fill="none" stroke="black" points="379.5,-235.5 379.5,-265.5 486.5,-265.5 486.5,-235.5 379.5,-235.5"/>
<text text-anchor="start" x="387.5" y="-253.5" font-family="Helvetica,sans-Serif" font-size="10.00">ntp/include/details</text>
<text text-anchor="middle" x="433" y="-242.5" font-family="Helvetica,sans-Serif" font-size="10.00">/utils.hpp</text>
</a>
</g>
</g>
<!-- Node1&#45;&gt;Node2 -->
<g id="edge1" class="edge">
<title>Node1&#45;&gt;Node2</title>
<path fill="none" stroke="midnightblue" d="M459.72,-293.87C453.79,-284.46 447.09,-273.83 441.88,-265.58"/>
<polygon fill="midnightblue" stroke="midnightblue" points="456.81,-295.81 465.1,-302.4 462.73,-292.07 456.81,-295.81"/>
</g>
<!-- Node12 -->
<g id="node12" class="node">
<title>Node12</title>
<g id="a_node12"><a xlink:href="utils_8cpp.html" target="_top" xlink:title="Implementation of helper functions and classes.">
<polygon fill="none" stroke="black" points="542,-174 542,-193 672,-193 672,-174 542,-174"/>
<text text-anchor="middle" x="607" y="-181" font-family="Helvetica,sans-Serif" font-size="10.00">ntp/src/details/utils.cpp</text>
</a>
</g>
</g>
<!-- Node1&#45;&gt;Node12 -->
<g id="edge19" class="edge">
<title>Node1&#45;&gt;Node12</title>
<path fill="none" stroke="midnightblue" d="M495.64,-295.02C525.45,-265.44 577.76,-213.52 598.34,-193.1"/>
<polygon fill="midnightblue" stroke="midnightblue" points="492.87,-292.85 488.23,-302.37 497.8,-297.81 492.87,-292.85"/>
</g>
<!-- Node3 -->
<g id="node3" class="node">
<title>Node3</title>
<g id="a_node3"><a xlink:href="logger__internal_8hpp.html" target="_top" xlink:title="Internal logger subsystem implementation.">
<polygon fill="none" stroke="black" points="334,-168.5 334,-198.5 448,-198.5 448,-168.5 334,-168.5"/>
<text text-anchor="start" x="342" y="-186.5" font-family="Helvetica,sans-Serif" font-size="10.00">ntp/include/logger</text>
<text text-anchor="middle" x="391" y="-175.5" font-family="Helvetica,sans-Serif" font-size="10.00">/logger_internal.hpp</text>
</a>
</g>
</g>
<!-- Node2&#45;&gt;Node3 -->
<g id="edge2" class="edge">
<title>Node2&#45;&gt;Node3</title>
<path fill="none" stroke="midnightblue" d="M418.38,-226.87C412.3,-217.46 405.43,-206.83 400.1,-198.58"/>
<polygon fill="midnightblue" stroke="midnightblue" points="415.52,-228.9 423.89,-235.4 421.4,-225.1 415.52,-228.9"/>
</g>
<!-- Node4 -->
<g id="node4" class="node">
<title>Node4</title>
<g id="a_node4"><a xlink:href="basic__callback_8hpp.html" target="_top" xlink:title="Interfaces and base classes for callback wrappers.">
<polygon fill="none" stroke="black" points="192.5,-168.5 192.5,-198.5 315.5,-198.5 315.5,-168.5 192.5,-168.5"/>
<text text-anchor="start" x="200.5" y="-186.5" font-family="Helvetica,sans-Serif" font-size="10.00">ntp/include/pool/basic</text>
<text text-anchor="middle" x="254" y="-175.5" font-family="Helvetica,sans-Serif" font-size="10.00">_callback.hpp</text>
</a>
</g>
</g>
<!-- Node2&#45;&gt;Node4 -->
<g id="edge3" class="edge">
<title>Node2&#45;&gt;Node4</title>
<path fill="none" stroke="midnightblue" d="M384.68,-231.96C355.85,-221.48 319.72,-208.37 292.76,-198.58"/>
<polygon fill="midnightblue" stroke="midnightblue" points="383.57,-235.27 394.16,-235.4 385.95,-228.69 383.57,-235.27"/>
</g>
<!-- Node5 -->
<g id="node5" class="node">
<title>Node5</title>
<g id="a_node5"><a xlink:href="io_8hpp.html" target="_top" xlink:title="Implementation of threadpool IO callback.">
<polygon fill="none" stroke="black" points="320,-112.5 320,-131.5 448,-131.5 448,-112.5 320,-112.5"/>
<text text-anchor="middle" x="384" y="-119.5" font-family="Helvetica,sans-Serif" font-size="10.00">ntp/include/pool/io.hpp</text>
</a>
</g>
</g>
<!-- Node2&#45;&gt;Node5 -->
<g id="edge14" class="edge">
<title>Node2&#45;&gt;Node5</title>
<path fill="none" stroke="midnightblue" d="M448.82,-226.8C458.54,-209.83 467.31,-186.47 457,-168 447.06,-150.19 426.85,-138.56 410.21,-131.59"/>
<polygon fill="midnightblue" stroke="midnightblue" points="445.73,-225.15 443.44,-235.5 451.68,-228.83 445.73,-225.15"/>
</g>
<!-- Node9 -->
<g id="node9" class="node">
<title>Node9</title>
<g id="a_node9"><a xlink:href="timer_8hpp.html" target="_top" xlink:title="Implementation of threadpool timer callback.">
<polygon fill="none" stroke="black" points="466,-112.5 466,-131.5 610,-131.5 610,-112.5 466,-112.5"/>
<text text-anchor="middle" x="538" y="-119.5" font-family="Helvetica,sans-Serif" font-size="10.00">ntp/include/pool/timer.hpp</text>
</a>
</g>
</g>
<!-- Node2&#45;&gt;Node9 -->
<g id="edge15" class="edge">
<title>Node2&#45;&gt;Node9</title>
<path fill="none" stroke="midnightblue" d="M451.07,-227.73C474.52,-199.48 514.38,-151.45 530.71,-131.79"/>
<polygon fill="midnightblue" stroke="midnightblue" points="448.33,-225.55 444.64,-235.48 453.72,-230.02 448.33,-225.55"/>
</g>
<!-- Node10 -->
<g id="node10" class="node">
<title>Node10</title>
<g id="a_node10"><a xlink:href="wait_8hpp.html" target="_top" xlink:title="Implementation of threadpool wait callback.">
<polygon fill="none" stroke="black" points="0,-112.5 0,-131.5 140,-131.5 140,-112.5 0,-112.5"/>
<text text-anchor="middle" x="70" y="-119.5" font-family="Helvetica,sans-Serif" font-size="10.00">ntp/include/pool/wait.hpp</text>
</a>
</g>
</g>
<!-- Node2&#45;&gt;Node10 -->
<g id="edge16" class="edge">
<title>Node2&#45;&gt;Node10</title>
<path fill="none" stroke="midnightblue" d="M369.28,-244.88C315.4,-239.17 237.1,-226.56 174,-199 134.65,-181.81 95.83,-147.66 78.87,-131.65"/>
<polygon fill="midnightblue" stroke="midnightblue" points="369.09,-248.38 379.39,-245.9 369.79,-241.41 369.09,-248.38"/>
</g>
<!-- Node11 -->
<g id="node11" class="node">
<title>Node11</title>
<g id="a_node11"><a xlink:href="work_8hpp.html" target="_top" xlink:title="Work callback wrapper and manager implementation.">
<polygon fill="none" stroke="black" points="158.5,-112.5 158.5,-131.5 301.5,-131.5 301.5,-112.5 158.5,-112.5"/>
<text text-anchor="middle" x="230" y="-119.5" font-family="Helvetica,sans-Serif" font-size="10.00">ntp/include/pool/work.hpp</text>
</a>
</g>
</g>
<!-- Node2&#45;&gt;Node11 -->
<g id="edge17" class="edge">
<title>Node2&#45;&gt;Node11</title>
<path fill="none" stroke="midnightblue" d="M369.08,-245.58C302.94,-240.03 206.09,-227.22 183,-199 164.63,-176.55 198.18,-146.34 217.59,-131.69"/>
<polygon fill="midnightblue" stroke="midnightblue" points="369.17,-249.1 379.42,-246.41 369.73,-242.12 369.17,-249.1"/>
</g>
<!-- Node2&#45;&gt;Node12 -->
<g id="edge18" class="edge">
<title>Node2&#45;&gt;Node12</title>
<path fill="none" stroke="midnightblue" d="M480.42,-231.78C514.16,-219.18 557.99,-202.81 584.23,-193.01"/>
<polygon fill="midnightblue" stroke="midnightblue" points="478.9,-228.62 470.76,-235.4 481.35,-235.18 478.9,-228.62"/>
</g>
<!-- Node4&#45;&gt;Node5 -->
<g id="edge4" class="edge">
<title>Node4&#45;&gt;Node5</title>
<path fill="none" stroke="midnightblue" d="M293.92,-164.23C317.59,-153.39 346.51,-140.16 365.08,-131.66"/>
<polygon fill="midnightblue" stroke="midnightblue" points="292.44,-161.06 284.81,-168.4 295.36,-167.42 292.44,-161.06"/>
</g>
<!-- Node4&#45;&gt;Node9 -->
<g id="edge8" class="edge">
<title>Node4&#45;&gt;Node9</title>
<path fill="none" stroke="midnightblue" d="M325.52,-167.52C379.74,-156.16 452.33,-140.95 497.09,-131.57"/>
<polygon fill="midnightblue" stroke="midnightblue" points="324.69,-164.11 315.62,-169.59 326.13,-170.96 324.69,-164.11"/>
</g>
<!-- Node4&#45;&gt;Node10 -->
<g id="edge10" class="edge">
<title>Node4&#45;&gt;Node10</title>
<path fill="none" stroke="midnightblue" d="M200.56,-165.22C166.4,-154.17 123.59,-140.33 96.51,-131.57"/>
<polygon fill="midnightblue" stroke="midnightblue" points="199.8,-168.65 210.39,-168.4 201.96,-161.99 199.8,-168.65"/>
</g>
<!-- Node4&#45;&gt;Node11 -->
<g id="edge12" class="edge">
<title>Node4&#45;&gt;Node11</title>
<path fill="none" stroke="midnightblue" d="M244.48,-158.9C240.61,-149.3 236.38,-138.81 233.49,-131.66"/>
<polygon fill="midnightblue" stroke="midnightblue" points="241.33,-160.43 248.31,-168.4 247.82,-157.82 241.33,-160.43"/>
</g>
<!-- Node6 -->
<g id="node6" class="node">
<title>Node6</title>
<g id="a_node6"><a xlink:href="threadpool_8hpp.html" target="_top" xlink:title="Threadpool implementations.">
<polygon fill="none" stroke="black" points="221.5,-56.5 221.5,-75.5 392.5,-75.5 392.5,-56.5 221.5,-56.5"/>
<text text-anchor="middle" x="307" y="-63.5" font-family="Helvetica,sans-Serif" font-size="10.00">ntp/include/pool/threadpool.hpp</text>
</a>
</g>
</g>
<!-- Node5&#45;&gt;Node6 -->
<g id="edge5" class="edge">
<title>Node5&#45;&gt;Node6</title>
<path fill="none" stroke="midnightblue" d="M363.1,-106.34C349.09,-96.52 331.12,-83.91 319.34,-75.65"/>
<polygon fill="midnightblue" stroke="midnightblue" points="361.43,-109.45 371.63,-112.32 365.45,-103.72 361.43,-109.45"/>
</g>
<!-- Node7 -->
<g id="node7" class="node">
<title>Node7</title>
<g id="a_node7"><a xlink:href="ntp_8hpp.html" target="_top" xlink:title="Main ntp library header.">
<polygon fill="none" stroke="black" points="178,-0.5 178,-19.5 288,-19.5 288,-0.5 178,-0.5"/>
<text text-anchor="middle" x="233" y="-7.5" font-family="Helvetica,sans-Serif" font-size="10.00">ntp/include/ntp.hpp</text>
</a>
</g>
</g>
<!-- Node6&#45;&gt;Node7 -->
<g id="edge6" class="edge">
<title>Node6&#45;&gt;Node7</title>
<path fill="none" stroke="midnightblue" d="M286.97,-50.38C273.59,-40.62 256.44,-28.11 245.11,-19.83"/>
<polygon fill="midnightblue" stroke="midnightblue" points="284.97,-53.26 295.11,-56.32 289.1,-47.6 284.97,-53.26"/>
</g>
<!-- Node8 -->
<g id="node8" class="node">
<title>Node8</title>
<g id="a_node8"><a xlink:href="threadpool_8cpp.html" target="_top" xlink:title="Threadpool implementation (traits and some helper functions)">
<polygon fill="none" stroke="black" points="306.5,-0.5 306.5,-19.5 455.5,-19.5 455.5,-0.5 306.5,-0.5"/>
<text text-anchor="middle" x="381" y="-7.5" font-family="Helvetica,sans-Serif" font-size="10.00">ntp/src/pool/threadpool.cpp</text>
</a>
</g>
</g>
<!-- Node6&#45;&gt;Node8 -->
<g id="edge7" class="edge">
<title>Node6&#45;&gt;Node8</title>
<path fill="none" stroke="midnightblue" d="M327.03,-50.38C340.41,-40.62 357.56,-28.11 368.89,-19.83"/>
<polygon fill="midnightblue" stroke="midnightblue" points="324.9,-47.6 318.89,-56.32 329.03,-53.26 324.9,-47.6"/>
</g>
<!-- Node9&#45;&gt;Node6 -->
<g id="edge9" class="edge">
<title>Node9&#45;&gt;Node6</title>
<path fill="none" stroke="midnightblue" d="M491.6,-110.15C447.95,-99.95 383.49,-84.88 343.43,-75.52"/>
<polygon fill="midnightblue" stroke="midnightblue" points="490.86,-113.58 501.4,-112.44 492.46,-106.76 490.86,-113.58"/>
</g>
<!-- Node10&#45;&gt;Node6 -->
<g id="edge11" class="edge">
<title>Node10&#45;&gt;Node6</title>
<path fill="none" stroke="midnightblue" d="M117.32,-110.22C162.11,-100.01 228.44,-84.9 269.62,-75.52"/>
<polygon fill="midnightblue" stroke="midnightblue" points="116.53,-106.81 107.55,-112.44 118.08,-113.63 116.53,-106.81"/>
</g>
<!-- Node11&#45;&gt;Node6 -->
<g id="edge13" class="edge">
<title>Node11&#45;&gt;Node6</title>
<path fill="none" stroke="midnightblue" d="M250.9,-106.34C264.91,-96.52 282.88,-83.91 294.66,-75.65"/>
<polygon fill="midnightblue" stroke="midnightblue" points="248.55,-103.72 242.37,-112.32 252.57,-109.45 248.55,-103.72"/>
</g>
</g>
</svg>
