<?xml version="1.0" encoding="UTF-8" standalone="no"?>
<!DOCTYPE svg PUBLIC "-//W3C//DTD SVG 1.1//EN"
 "http://www.w3.org/Graphics/SVG/1.1/DTD/svg11.dtd">
<!-- Generated by graphviz version 2.43.0 (0)
 -->
<!-- Title: ntp::time::details::is_duration&lt; std::chrono::duration&lt; Rep, Period &gt; &gt; Pages: 1 -->
<svg width="137pt" height="117pt"
 viewBox="0.00 0.00 137.00 117.00" xmlns="http://www.w3.org/2000/svg" xmlns:xlink="http://www.w3.org/1999/xlink">
<g id="graph0" class="graph" transform="scale(1 1) rotate(0) translate(4 113)">
<title>ntp::time::details::is_duration&lt; std::chrono::duration&lt; Rep, Period &gt; &gt;</title>
<polygon fill="white" stroke="transparent" points="-4,4 -4,-113 133,-113 133,4 -4,4"/>
<!-- Node1 -->
<g id="node1" class="node">
<title>Node1</title>
<g id="a_node1"><a xlink:title="Trait that detects std::chono::duration specializations.">
<polygon fill="#bfbfbf" stroke="black" points="0,-0.5 0,-52.5 129,-52.5 129,-0.5 0,-0.5"/>
<text text-anchor="start" x="8" y="-40.5" font-family="Helvetica,sans-Serif" font-size="10.00">ntp::time::details</text>
<text text-anchor="start" x="8" y="-29.5" font-family="Helvetica,sans-Serif" font-size="10.00">::is_duration&lt; std::</text>
<text text-anchor="start" x="8" y="-18.5" font-family="Helvetica,sans-Serif" font-size="10.00">chrono::duration&lt; Rep,</text>
<text text-anchor="middle" x="64.5" y="-7.5" font-family="Helvetica,sans-Serif" font-size="10.00"> Period &gt; &gt;</text>
</a>
</g>
</g>
<!-- Node2 -->
<g id="node2" class="node">
<title>Node2</title>
<g id="a_node2"><a xlink:title=" ">
<polygon fill="white" stroke="#bfbfbf" points="22.5,-89.5 22.5,-108.5 106.5,-108.5 106.5,-89.5 22.5,-89.5"/>
<text text-anchor="middle" x="64.5" y="-96.5" font-family="Helvetica,sans-Serif" font-size="10.00">std::true_type</text>
</a>
</g>
</g>
<!-- Node2&#45;&gt;Node1 -->
<g id="edge1" class="edge">
<title>Node2&#45;&gt;Node1</title>
<path fill="none" stroke="midnightblue" d="M64.5,-79.1C64.5,-70.96 64.5,-61.33 64.5,-52.6"/>
<polygon fill="midnightblue" stroke="midnightblue" points="61,-79.36 64.5,-89.36 68,-79.36 61,-79.36"/>
</g>
</g>
</svg>
