<?xml version="1.0" encoding="UTF-8" standalone="no"?>
<!DOCTYPE svg PUBLIC "-//W3C//DTD SVG 1.1//EN"
 "http://www.w3.org/Graphics/SVG/1.1/DTD/svg11.dtd">
<!-- Generated by graphviz version 2.43.0 (0)
 -->
<!-- Title: ntp::details::ICallback Pages: 1 -->
<svg width="791pt" height="280pt"
 viewBox="0.00 0.00 791.00 279.50" xmlns="http://www.w3.org/2000/svg" xmlns:xlink="http://www.w3.org/1999/xlink">
<g id="graph0" class="graph" transform="scale(1 1) rotate(0) translate(4 275.5)">
<title>ntp::details::ICallback</title>
<polygon fill="white" stroke="transparent" points="-4,4 -4,-275.5 787,-275.5 787,4 -4,4"/>
<!-- Node1 -->
<g id="node1" class="node">
<title>Node1</title>
<g id="a_node1"><a xlink:title="Interface for callback wrapper.">
<polygon fill="#bfbfbf" stroke="black" points="283,-121 283,-140 405,-140 405,-121 283,-121"/>
<text text-anchor="middle" x="344" y="-128" font-family="Helvetica,sans-Serif" font-size="10.00">ntp::details::ICallback</text>
</a>
</g>
</g>
<!-- Node4 -->
<g id="node4" class="node">
<title>Node4</title>
<g id="a_node4"><a xlink:href="classntp_1_1details_1_1BasicCallback.html" target="_top" xlink:title=" ">
<polygon fill="white" stroke="black" points="446.5,-230 446.5,-271 598.5,-271 598.5,-230 446.5,-230"/>
<text text-anchor="start" x="454.5" y="-259" font-family="Helvetica,sans-Serif" font-size="10.00">ntp::details::BasicCallback</text>
<text text-anchor="start" x="454.5" y="-248" font-family="Helvetica,sans-Serif" font-size="10.00">&lt; TimerCallback&lt; Functor,</text>
<text text-anchor="middle" x="522.5" y="-237" font-family="Helvetica,sans-Serif" font-size="10.00"> Args... &gt;, Functor, Args... &gt;</text>
</a>
</g>
</g>
<!-- Node1&#45;&gt;Node4 -->
<g id="edge3" class="edge">
<title>Node1&#45;&gt;Node4</title>
<path fill="none" stroke="midnightblue" d="M359.67,-147.92C377.23,-167.84 408.38,-200.28 441,-220.5 446.58,-223.96 452.62,-227.11 458.79,-229.97"/>
<polygon fill="midnightblue" stroke="midnightblue" points="362.2,-145.5 353.01,-140.23 356.91,-150.08 362.2,-145.5"/>
</g>
<!-- Node6 -->
<g id="node6" class="node">
<title>Node6</title>
<g id="a_node6"><a xlink:href="classntp_1_1details_1_1BasicCallback.html" target="_top" xlink:title=" ">
<polygon fill="white" stroke="black" points="441,-170 441,-211 604,-211 604,-170 441,-170"/>
<text text-anchor="start" x="449" y="-199" font-family="Helvetica,sans-Serif" font-size="10.00">ntp::details::BasicCallback</text>
<text text-anchor="start" x="449" y="-188" font-family="Helvetica,sans-Serif" font-size="10.00">&lt; IoCallback&lt; Functor, Args...</text>
<text text-anchor="middle" x="522.5" y="-177" font-family="Helvetica,sans-Serif" font-size="10.00"> &gt;, Functor, Args... &gt;</text>
</a>
</g>
</g>
<!-- Node1&#45;&gt;Node6 -->
<g id="edge5" class="edge">
<title>Node1&#45;&gt;Node6</title>
<path fill="none" stroke="midnightblue" d="M382.62,-143.29C405.44,-151.05 435.1,-161.13 461.14,-169.98"/>
<polygon fill="midnightblue" stroke="midnightblue" points="383.56,-139.91 372.97,-140.01 381.31,-146.54 383.56,-139.91"/>
</g>
<!-- Node8 -->
<g id="node8" class="node">
<title>Node8</title>
<g id="a_node8"><a xlink:href="classntp_1_1details_1_1BasicCallback.html" target="_top" xlink:title=" ">
<polygon fill="white" stroke="black" points="446.5,-110 446.5,-151 598.5,-151 598.5,-110 446.5,-110"/>
<text text-anchor="start" x="454.5" y="-139" font-family="Helvetica,sans-Serif" font-size="10.00">ntp::details::BasicCallback</text>
<text text-anchor="start" x="454.5" y="-128" font-family="Helvetica,sans-Serif" font-size="10.00">&lt; WorkCallback&lt; Functor,</text>
<text text-anchor="middle" x="522.5" y="-117" font-family="Helvetica,sans-Serif" font-size="10.00"> Args... &gt;, Functor, Args... &gt;</text>
</a>
</g>
</g>
<!-- Node1&#45;&gt;Node8 -->
<g id="edge7" class="edge">
<title>Node1&#45;&gt;Node8</title>
<path fill="none" stroke="midnightblue" d="M415.29,-130.5C425.46,-130.5 435.96,-130.5 446.23,-130.5"/>
<polygon fill="midnightblue" stroke="midnightblue" points="415.25,-127 405.25,-130.5 415.25,-134 415.25,-127"/>
</g>
<!-- Node10 -->
<g id="node10" class="node">
<title>Node10</title>
<g id="a_node10"><a xlink:href="classntp_1_1details_1_1BasicCallback.html" target="_top" xlink:title=" ">
<polygon fill="white" stroke="black" points="446.5,-50 446.5,-91 598.5,-91 598.5,-50 446.5,-50"/>
<text text-anchor="start" x="454.5" y="-79" font-family="Helvetica,sans-Serif" font-size="10.00">ntp::details::BasicCallback</text>
<text text-anchor="start" x="454.5" y="-68" font-family="Helvetica,sans-Serif" font-size="10.00">&lt; WaitCallback&lt; Functor,</text>
<text text-anchor="middle" x="522.5" y="-57" font-family="Helvetica,sans-Serif" font-size="10.00"> Args... &gt;, Functor, Args... &gt;</text>
</a>
</g>
</g>
<!-- Node1&#45;&gt;Node10 -->
<g id="edge9" class="edge">
<title>Node1&#45;&gt;Node10</title>
<path fill="none" stroke="midnightblue" d="M382.62,-117.71C405.44,-109.95 435.1,-99.87 461.14,-91.02"/>
<polygon fill="midnightblue" stroke="midnightblue" points="381.31,-114.46 372.97,-120.99 383.56,-121.09 381.31,-114.46"/>
</g>
<!-- Node12 -->
<g id="node12" class="node">
<title>Node12</title>
<g id="a_node12"><a xlink:href="classntp_1_1details_1_1BasicCallback.html" target="_top" xlink:title="Base class for all callbacks.">
<polygon fill="white" stroke="black" points="449,-0.5 449,-30.5 596,-30.5 596,-0.5 449,-0.5"/>
<text text-anchor="start" x="457" y="-18.5" font-family="Helvetica,sans-Serif" font-size="10.00">ntp::details::BasicCallback</text>
<text text-anchor="middle" x="522.5" y="-7.5" font-family="Helvetica,sans-Serif" font-size="10.00">&lt; Derived, Functor, Args &gt;</text>
</a>
</g>
</g>
<!-- Node1&#45;&gt;Node12 -->
<g id="edge11" class="edge">
<title>Node1&#45;&gt;Node12</title>
<path fill="none" stroke="midnightblue" d="M359.2,-113.07C376.53,-92.88 407.66,-59.91 441,-40.5 447.58,-36.67 454.8,-33.37 462.14,-30.53"/>
<polygon fill="midnightblue" stroke="midnightblue" points="356.41,-110.95 352.66,-120.86 361.77,-115.45 356.41,-110.95"/>
</g>
<!-- Node2 -->
<g id="node2" class="node">
<title>Node2</title>
<g id="a_node2"><a xlink:href="classntp_1_1details_1_1NativeSlistEntry.html" target="_top" xlink:title="Wrapper for SLIST_ENTRY (actually inherits from it).">
<polygon fill="white" stroke="black" points="116,-115.5 116,-145.5 247,-145.5 247,-115.5 116,-115.5"/>
<text text-anchor="start" x="124" y="-133.5" font-family="Helvetica,sans-Serif" font-size="10.00">ntp::details::NativeSlist</text>
<text text-anchor="middle" x="181.5" y="-122.5" font-family="Helvetica,sans-Serif" font-size="10.00">Entry</text>
</a>
</g>
</g>
<!-- Node2&#45;&gt;Node1 -->
<g id="edge1" class="edge">
<title>Node2&#45;&gt;Node1</title>
<path fill="none" stroke="midnightblue" d="M257.59,-130.5C266.07,-130.5 274.62,-130.5 282.87,-130.5"/>
<polygon fill="midnightblue" stroke="midnightblue" points="257.32,-127 247.32,-130.5 257.32,-134 257.32,-127"/>
</g>
<!-- Node3 -->
<g id="node3" class="node">
<title>Node3</title>
<g id="a_node3"><a xlink:title=" ">
<polygon fill="white" stroke="#bfbfbf" points="0,-121 0,-140 80,-140 80,-121 0,-121"/>
<text text-anchor="middle" x="40" y="-128" font-family="Helvetica,sans-Serif" font-size="10.00">SLIST_ENTRY</text>
</a>
</g>
</g>
<!-- Node3&#45;&gt;Node2 -->
<g id="edge2" class="edge">
<title>Node3&#45;&gt;Node2</title>
<path fill="none" stroke="midnightblue" d="M90.44,-130.5C98.7,-130.5 107.38,-130.5 115.96,-130.5"/>
<polygon fill="midnightblue" stroke="midnightblue" points="90.23,-127 80.23,-130.5 90.23,-134 90.23,-127"/>
</g>
<!-- Node5 -->
<g id="node5" class="node">
<title>Node5</title>
<g id="a_node5"><a xlink:href="classntp_1_1timer_1_1details_1_1TimerCallback.html" target="_top" xlink:title="Timer callback wrapper (PTP_TIMER).">
<polygon fill="white" stroke="black" points="640,-230 640,-271 783,-271 783,-230 640,-230"/>
<text text-anchor="start" x="648" y="-259" font-family="Helvetica,sans-Serif" font-size="10.00">ntp::timer::details</text>
<text text-anchor="start" x="648" y="-248" font-family="Helvetica,sans-Serif" font-size="10.00">::TimerCallback&lt; Functor,</text>
<text text-anchor="middle" x="711.5" y="-237" font-family="Helvetica,sans-Serif" font-size="10.00"> Args &gt;</text>
</a>
</g>
</g>
<!-- Node4&#45;&gt;Node5 -->
<g id="edge4" class="edge">
<title>Node4&#45;&gt;Node5</title>
<path fill="none" stroke="midnightblue" d="M609.03,-250.5C619.38,-250.5 629.85,-250.5 639.95,-250.5"/>
<polygon fill="midnightblue" stroke="midnightblue" points="608.75,-247 598.75,-250.5 608.75,-254 608.75,-247"/>
</g>
<!-- Node7 -->
<g id="node7" class="node">
<title>Node7</title>
<g id="a_node7"><a xlink:href="classntp_1_1io_1_1details_1_1IoCallback.html" target="_top" xlink:title="IO callback wrapper (PTP_IO).">
<polygon fill="white" stroke="black" points="640,-175.5 640,-205.5 783,-205.5 783,-175.5 640,-175.5"/>
<text text-anchor="start" x="648" y="-193.5" font-family="Helvetica,sans-Serif" font-size="10.00">ntp::io::details::IoCallback</text>
<text text-anchor="middle" x="711.5" y="-182.5" font-family="Helvetica,sans-Serif" font-size="10.00">&lt; Functor, Args &gt;</text>
</a>
</g>
</g>
<!-- Node6&#45;&gt;Node7 -->
<g id="edge6" class="edge">
<title>Node6&#45;&gt;Node7</title>
<path fill="none" stroke="midnightblue" d="M614.22,-190.5C622.81,-190.5 631.44,-190.5 639.81,-190.5"/>
<polygon fill="midnightblue" stroke="midnightblue" points="614.16,-187 604.16,-190.5 614.16,-194 614.16,-187"/>
</g>
<!-- Node9 -->
<g id="node9" class="node">
<title>Node9</title>
<g id="a_node9"><a xlink:href="classntp_1_1work_1_1details_1_1WorkCallback.html" target="_top" xlink:title="Work callback wrapper (PTP_WORK)">
<polygon fill="white" stroke="black" points="641.5,-110 641.5,-151 781.5,-151 781.5,-110 641.5,-110"/>
<text text-anchor="start" x="649.5" y="-139" font-family="Helvetica,sans-Serif" font-size="10.00">ntp::work::details</text>
<text text-anchor="start" x="649.5" y="-128" font-family="Helvetica,sans-Serif" font-size="10.00">::WorkCallback&lt; Functor,</text>
<text text-anchor="middle" x="711.5" y="-117" font-family="Helvetica,sans-Serif" font-size="10.00"> Args &gt;</text>
</a>
</g>
</g>
<!-- Node8&#45;&gt;Node9 -->
<g id="edge8" class="edge">
<title>Node8&#45;&gt;Node9</title>
<path fill="none" stroke="midnightblue" d="M609.08,-130.5C619.93,-130.5 630.91,-130.5 641.45,-130.5"/>
<polygon fill="midnightblue" stroke="midnightblue" points="608.75,-127 598.75,-130.5 608.75,-134 608.75,-127"/>
</g>
<!-- Node11 -->
<g id="node11" class="node">
<title>Node11</title>
<g id="a_node11"><a xlink:href="classntp_1_1wait_1_1details_1_1WaitCallback.html" target="_top" xlink:title="Wait callback wrapper (PTP_WAIT).">
<polygon fill="white" stroke="black" points="643,-50 643,-91 780,-91 780,-50 643,-50"/>
<text text-anchor="start" x="651" y="-79" font-family="Helvetica,sans-Serif" font-size="10.00">ntp::wait::details</text>
<text text-anchor="start" x="651" y="-68" font-family="Helvetica,sans-Serif" font-size="10.00">::WaitCallback&lt; Functor,</text>
<text text-anchor="middle" x="711.5" y="-57" font-family="Helvetica,sans-Serif" font-size="10.00"> Args &gt;</text>
</a>
</g>
</g>
<!-- Node10&#45;&gt;Node11 -->
<g id="edge10" class="edge">
<title>Node10&#45;&gt;Node11</title>
<path fill="none" stroke="midnightblue" d="M608.76,-70.5C620.22,-70.5 631.85,-70.5 642.95,-70.5"/>
<polygon fill="midnightblue" stroke="midnightblue" points="608.75,-67 598.75,-70.5 608.75,-74 608.75,-67"/>
</g>
</g>
</svg>
