<?xml version="1.0" encoding="UTF-8" standalone="no"?>
<!DOCTYPE svg PUBLIC "-//W3C//DTD SVG 1.1//EN"
 "http://www.w3.org/Graphics/SVG/1.1/DTD/svg11.dtd">
<!-- Generated by graphviz version 2.43.0 (0)
 -->
<!-- Title: ntp/src/pool/threadpool.cpp Pages: 1 -->
<svg width="1352pt" height="420pt"
 viewBox="0.00 0.00 1351.50 420.00" xmlns="http://www.w3.org/2000/svg" xmlns:xlink="http://www.w3.org/1999/xlink">
<g id="graph0" class="graph" transform="scale(1 1) rotate(0) translate(4 416)">
<title>ntp/src/pool/threadpool.cpp</title>
<!-- Node1 -->
<g id="node1" class="node">
<title>Node1</title>
<g id="a_node1"><a xlink:title="Threadpool implementation (traits and some helper functions)">
<polygon fill="#bfbfbf" stroke="black" points="655.5,-392.5 655.5,-411.5 804.5,-411.5 804.5,-392.5 655.5,-392.5"/>
<text text-anchor="middle" x="730" y="-399.5" font-family="Helvetica,sans-Serif" font-size="10.00">ntp/src/pool/threadpool.cpp</text>
</a>
</g>
</g>
<!-- Node2 -->
<g id="node2" class="node">
<title>Node2</title>
<g id="a_node2"><a xlink:title=" ">
<polygon fill="none" stroke="#bfbfbf" points="781,-0.5 781,-19.5 851,-19.5 851,-0.5 781,-0.5"/>
<text text-anchor="middle" x="816" y="-7.5" font-family="Helvetica,sans-Serif" font-size="10.00">Windows.h</text>
</a>
</g>
</g>
<!-- Node1&#45;&gt;Node2 -->
<g id="edge1" class="edge">
<title>Node1&#45;&gt;Node2</title>
<path fill="none" stroke="midnightblue" d="M655.31,-397.5C469.26,-387.78 0,-356.77 0,-291 0,-291 0,-291 0,-121 0,-56 68.24,-72.9 131,-56 252.15,-23.37 637.37,-13.97 770.35,-11.67"/>
<polygon fill="midnightblue" stroke="midnightblue" points="770.64,-15.16 780.58,-11.49 770.53,-8.16 770.64,-15.16"/>
</g>
<!-- Node3 -->
<g id="node3" class="node">
<title>Node3</title>
<g id="a_node3"><a xlink:title=" ">
<polygon fill="none" stroke="#bfbfbf" points="607,-336.5 607,-355.5 655,-355.5 655,-336.5 607,-336.5"/>
<text text-anchor="middle" x="631" y="-343.5" font-family="Helvetica,sans-Serif" font-size="10.00">thread</text>
</a>
</g>
</g>
<!-- Node1&#45;&gt;Node3 -->
<g id="edge2" class="edge">
<title>Node1&#45;&gt;Node3</title>
<path fill="none" stroke="midnightblue" d="M714.09,-392.32C698.36,-383.74 674.06,-370.49 655.79,-360.52"/>
<polygon fill="midnightblue" stroke="midnightblue" points="657.32,-357.37 646.87,-355.65 653.97,-363.52 657.32,-357.37"/>
</g>
<!-- Node4 -->
<g id="node4" class="node">
<title>Node4</title>
<g id="a_node4"><a xlink:href="threadpool_8hpp.html" target="_top" xlink:title="Threadpool implementations.">
<polygon fill="none" stroke="black" points="673,-336.5 673,-355.5 787,-355.5 787,-336.5 673,-336.5"/>
<text text-anchor="middle" x="730" y="-343.5" font-family="Helvetica,sans-Serif" font-size="10.00">pool/threadpool.hpp</text>
</a>
</g>
</g>
<!-- Node1&#45;&gt;Node4 -->
<g id="edge3" class="edge">
<title>Node1&#45;&gt;Node4</title>
<path fill="none" stroke="midnightblue" d="M730,-392.08C730,-385.01 730,-374.86 730,-365.99"/>
<polygon fill="midnightblue" stroke="midnightblue" points="733.5,-365.75 730,-355.75 726.5,-365.75 733.5,-365.75"/>
</g>
<!-- Node8 -->
<g id="node8" class="node">
<title>Node8</title>
<g id="a_node8"><a xlink:href="allocator_8hpp.html" target="_top" xlink:title="Allocator implementations.">
<polygon fill="none" stroke="black" points="1176,-112.5 1176,-131.5 1292,-131.5 1292,-112.5 1176,-112.5"/>
<text text-anchor="middle" x="1234" y="-119.5" font-family="Helvetica,sans-Serif" font-size="10.00">details/allocator.hpp</text>
</a>
</g>
</g>
<!-- Node1&#45;&gt;Node8 -->
<g id="edge63" class="edge">
<title>Node1&#45;&gt;Node8</title>
<path fill="none" stroke="midnightblue" d="M804.53,-400.75C949.63,-398.24 1256,-382.14 1256,-291 1256,-291 1256,-291 1256,-233 1256,-200.33 1246.55,-163.24 1240.04,-141.55"/>
<polygon fill="midnightblue" stroke="midnightblue" points="1243.29,-140.22 1236.97,-131.72 1236.61,-142.31 1243.29,-140.22"/>
</g>
<!-- Node9 -->
<g id="node9" class="node">
<title>Node9</title>
<g id="a_node9"><a xlink:href="exception_8hpp.html" target="_top" xlink:title="Win32 error wrapper implementations.">
<polygon fill="none" stroke="black" points="1214,-56.5 1214,-75.5 1336,-75.5 1336,-56.5 1214,-56.5"/>
<text text-anchor="middle" x="1275" y="-63.5" font-family="Helvetica,sans-Serif" font-size="10.00">details/exception.hpp</text>
</a>
</g>
</g>
<!-- Node1&#45;&gt;Node9 -->
<g id="edge64" class="edge">
<title>Node1&#45;&gt;Node9</title>
<path fill="none" stroke="midnightblue" d="M804.77,-398.46C922.27,-393.75 1144.44,-381.69 1219,-356 1269.47,-338.61 1320,-344.38 1320,-291 1320,-291 1320,-291 1320,-177 1320,-141.93 1300.16,-104.94 1286.83,-84.04"/>
<polygon fill="midnightblue" stroke="midnightblue" points="1289.7,-82.03 1281.26,-75.63 1283.87,-85.9 1289.7,-82.03"/>
</g>
<!-- Node4&#45;&gt;Node2 -->
<g id="edge4" class="edge">
<title>Node4&#45;&gt;Node2</title>
<path fill="none" stroke="midnightblue" d="M672.79,-336.98C669.82,-336.63 666.88,-336.3 664,-336 452.14,-313.6 392.71,-351.57 186,-300 116.29,-282.61 38,-306.84 38,-235 38,-235 38,-235 38,-121 38,-46.54 603.89,-19.08 770.42,-12.61"/>
<polygon fill="midnightblue" stroke="midnightblue" points="770.95,-16.09 780.8,-12.21 770.68,-9.1 770.95,-16.09"/>
</g>
<!-- Node5 -->
<g id="node5" class="node">
<title>Node5</title>
<g id="a_node5"><a xlink:title=" ">
<polygon fill="none" stroke="#bfbfbf" points="142,-168.5 142,-187.5 192,-187.5 192,-168.5 142,-168.5"/>
<text text-anchor="middle" x="167" y="-175.5" font-family="Helvetica,sans-Serif" font-size="10.00">chrono</text>
</a>
</g>
</g>
<!-- Node4&#45;&gt;Node5 -->
<g id="edge5" class="edge">
<title>Node4&#45;&gt;Node5</title>
<path fill="none" stroke="midnightblue" d="M676.37,-336.45C553.68,-316.58 260.05,-267.23 221,-244 201.76,-232.55 186.27,-211.66 176.9,-196.65"/>
<polygon fill="midnightblue" stroke="midnightblue" points="179.76,-194.61 171.64,-187.79 173.74,-198.18 179.76,-194.61"/>
</g>
<!-- Node6 -->
<g id="node6" class="node">
<title>Node6</title>
<g id="a_node6"><a xlink:title=" ">
<polygon fill="none" stroke="#bfbfbf" points="995.5,-168.5 995.5,-187.5 1064.5,-187.5 1064.5,-168.5 995.5,-168.5"/>
<text text-anchor="middle" x="1030" y="-175.5" font-family="Helvetica,sans-Serif" font-size="10.00">type_traits</text>
</a>
</g>
</g>
<!-- Node4&#45;&gt;Node6 -->
<g id="edge6" class="edge">
<title>Node4&#45;&gt;Node6</title>
<path fill="none" stroke="midnightblue" d="M787.36,-338.74C883.17,-326.88 1068.6,-297.41 1102,-244 1115.54,-222.35 1087.78,-203.54 1062.9,-191.81"/>
<polygon fill="midnightblue" stroke="midnightblue" points="1064.15,-188.53 1053.59,-187.66 1061.3,-194.93 1064.15,-188.53"/>
</g>
<!-- Node7 -->
<g id="node7" class="node">
<title>Node7</title>
<g id="a_node7"><a xlink:href="ntp__config_8hpp_source.html" target="_top" xlink:title=" ">
<polygon fill="none" stroke="black" points="612,-56.5 612,-75.5 700,-75.5 700,-56.5 612,-56.5"/>
<text text-anchor="middle" x="656" y="-63.5" font-family="Helvetica,sans-Serif" font-size="10.00">ntp_config.hpp</text>
</a>
</g>
</g>
<!-- Node4&#45;&gt;Node7 -->
<g id="edge7" class="edge">
<title>Node4&#45;&gt;Node7</title>
<path fill="none" stroke="midnightblue" d="M672.77,-337.13C669.81,-336.74 666.87,-336.36 664,-336 416.29,-304.49 232.46,-411.95 122,-188 99.45,-142.29 183.68,-113.41 187,-112 260.44,-80.65 494.67,-70.95 601.71,-68.1"/>
<polygon fill="midnightblue" stroke="midnightblue" points="602.06,-71.6 611.97,-67.84 601.88,-64.6 602.06,-71.6"/>
</g>
<!-- Node4&#45;&gt;Node8 -->
<g id="edge8" class="edge">
<title>Node4&#45;&gt;Node8</title>
<path fill="none" stroke="midnightblue" d="M787.31,-340.25C898.54,-329.85 1137.73,-301.26 1194,-244 1221.69,-215.82 1230.21,-168.08 1232.84,-141.78"/>
<polygon fill="midnightblue" stroke="midnightblue" points="1236.34,-141.89 1233.66,-131.64 1229.36,-141.33 1236.34,-141.89"/>
</g>
<!-- Node12 -->
<g id="node12" class="node">
<title>Node12</title>
<g id="a_node12"><a xlink:href="work_8hpp.html" target="_top" xlink:title="Work callback wrapper and manager implementation.">
<polygon fill="none" stroke="black" points="892,-280.5 892,-299.5 978,-299.5 978,-280.5 892,-280.5"/>
<text text-anchor="middle" x="935" y="-287.5" font-family="Helvetica,sans-Serif" font-size="10.00">pool/work.hpp</text>
</a>
</g>
</g>
<!-- Node4&#45;&gt;Node12 -->
<g id="edge15" class="edge">
<title>Node4&#45;&gt;Node12</title>
<path fill="none" stroke="midnightblue" d="M762.48,-336.44C797.72,-327.16 854.1,-312.31 892.76,-302.13"/>
<polygon fill="midnightblue" stroke="midnightblue" points="893.89,-305.45 902.67,-299.52 892.11,-298.68 893.89,-305.45"/>
</g>
<!-- Node26 -->
<g id="node26" class="node">
<title>Node26</title>
<g id="a_node26"><a xlink:href="wait_8hpp.html" target="_top" xlink:title="Implementation of threadpool wait callback.">
<polygon fill="none" stroke="black" points="741.5,-280.5 741.5,-299.5 824.5,-299.5 824.5,-280.5 741.5,-280.5"/>
<text text-anchor="middle" x="783" y="-287.5" font-family="Helvetica,sans-Serif" font-size="10.00">pool/wait.hpp</text>
</a>
</g>
</g>
<!-- Node4&#45;&gt;Node26 -->
<g id="edge37" class="edge">
<title>Node4&#45;&gt;Node26</title>
<path fill="none" stroke="midnightblue" d="M738.75,-336.08C746.47,-328.22 757.9,-316.57 767.22,-307.08"/>
<polygon fill="midnightblue" stroke="midnightblue" points="769.9,-309.34 774.41,-299.75 764.91,-304.44 769.9,-309.34"/>
</g>
<!-- Node30 -->
<g id="node30" class="node">
<title>Node30</title>
<g id="a_node30"><a xlink:href="timer_8hpp.html" target="_top" xlink:title="Implementation of threadpool timer callback.">
<polygon fill="none" stroke="black" points="633.5,-280.5 633.5,-299.5 720.5,-299.5 720.5,-280.5 633.5,-280.5"/>
<text text-anchor="middle" x="677" y="-287.5" font-family="Helvetica,sans-Serif" font-size="10.00">pool/timer.hpp</text>
</a>
</g>
</g>
<!-- Node4&#45;&gt;Node30 -->
<g id="edge49" class="edge">
<title>Node4&#45;&gt;Node30</title>
<path fill="none" stroke="midnightblue" d="M721.25,-336.08C713.53,-328.22 702.1,-316.57 692.78,-307.08"/>
<polygon fill="midnightblue" stroke="midnightblue" points="695.09,-304.44 685.59,-299.75 690.1,-309.34 695.09,-304.44"/>
</g>
<!-- Node31 -->
<g id="node31" class="node">
<title>Node31</title>
<g id="a_node31"><a xlink:href="io_8hpp.html" target="_top" xlink:title="Implementation of threadpool IO callback.">
<polygon fill="none" stroke="black" points="544.5,-280.5 544.5,-299.5 615.5,-299.5 615.5,-280.5 544.5,-280.5"/>
<text text-anchor="middle" x="580" y="-287.5" font-family="Helvetica,sans-Serif" font-size="10.00">pool/io.hpp</text>
</a>
</g>
</g>
<!-- Node4&#45;&gt;Node31 -->
<g id="edge56" class="edge">
<title>Node4&#45;&gt;Node31</title>
<path fill="none" stroke="midnightblue" d="M706.23,-336.44C681.11,-327.4 641.29,-313.06 613.1,-302.92"/>
<polygon fill="midnightblue" stroke="midnightblue" points="614.25,-299.61 603.66,-299.52 611.88,-306.2 614.25,-299.61"/>
</g>
<!-- Node8&#45;&gt;Node2 -->
<g id="edge9" class="edge">
<title>Node8&#45;&gt;Node2</title>
<path fill="none" stroke="midnightblue" d="M1227.54,-112.48C1216.11,-98.09 1190.75,-69.25 1162,-56 1109.48,-31.8 942.84,-18.67 861.52,-13.55"/>
<polygon fill="midnightblue" stroke="midnightblue" points="861.3,-10.03 851.1,-12.91 860.87,-17.02 861.3,-10.03"/>
</g>
<!-- Node8&#45;&gt;Node7 -->
<g id="edge10" class="edge">
<title>Node8&#45;&gt;Node7</title>
<path fill="none" stroke="midnightblue" d="M1175.93,-115.58C1063.89,-105.11 819.34,-82.26 710.32,-72.08"/>
<polygon fill="midnightblue" stroke="midnightblue" points="710.49,-68.58 700.2,-71.13 709.84,-75.54 710.49,-68.58"/>
</g>
<!-- Node8&#45;&gt;Node9 -->
<g id="edge11" class="edge">
<title>Node8&#45;&gt;Node9</title>
<path fill="none" stroke="midnightblue" d="M1240.77,-112.08C1246.56,-104.46 1255.06,-93.26 1262.14,-83.94"/>
<polygon fill="midnightblue" stroke="midnightblue" points="1265.1,-85.83 1268.36,-75.75 1259.52,-81.6 1265.1,-85.83"/>
</g>
<!-- Node9&#45;&gt;Node2 -->
<g id="edge12" class="edge">
<title>Node9&#45;&gt;Node2</title>
<path fill="none" stroke="midnightblue" d="M1213.61,-57.62C1209,-57.07 1204.43,-56.53 1200,-56 1077.54,-41.48 933.08,-24.62 861.27,-16.26"/>
<polygon fill="midnightblue" stroke="midnightblue" points="861.55,-12.77 851.21,-15.09 860.74,-19.73 861.55,-12.77"/>
</g>
<!-- Node10 -->
<g id="node10" class="node">
<title>Node10</title>
<g id="a_node10"><a xlink:title=" ">
<polygon fill="none" stroke="#bfbfbf" points="1278.5,-0.5 1278.5,-19.5 1343.5,-19.5 1343.5,-0.5 1278.5,-0.5"/>
<text text-anchor="middle" x="1311" y="-7.5" font-family="Helvetica,sans-Serif" font-size="10.00">stdexcept</text>
</a>
</g>
</g>
<!-- Node9&#45;&gt;Node10 -->
<g id="edge13" class="edge">
<title>Node9&#45;&gt;Node10</title>
<path fill="none" stroke="midnightblue" d="M1280.94,-56.08C1285.98,-48.53 1293.34,-37.49 1299.51,-28.23"/>
<polygon fill="midnightblue" stroke="midnightblue" points="1302.53,-30.01 1305.17,-19.75 1296.71,-26.13 1302.53,-30.01"/>
</g>
<!-- Node11 -->
<g id="node11" class="node">
<title>Node11</title>
<g id="a_node11"><a xlink:title=" ">
<polygon fill="none" stroke="#bfbfbf" points="1216,-0.5 1216,-19.5 1260,-19.5 1260,-0.5 1216,-0.5"/>
<text text-anchor="middle" x="1238" y="-7.5" font-family="Helvetica,sans-Serif" font-size="10.00">string</text>
</a>
</g>
</g>
<!-- Node9&#45;&gt;Node11 -->
<g id="edge14" class="edge">
<title>Node9&#45;&gt;Node11</title>
<path fill="none" stroke="midnightblue" d="M1268.89,-56.08C1263.72,-48.53 1256.15,-37.49 1249.81,-28.23"/>
<polygon fill="midnightblue" stroke="midnightblue" points="1252.54,-26.02 1244,-19.75 1246.76,-29.98 1252.54,-26.02"/>
</g>
<!-- Node12&#45;&gt;Node2 -->
<g id="edge16" class="edge">
<title>Node12&#45;&gt;Node2</title>
<path fill="none" stroke="midnightblue" d="M978.04,-289.04C1015.86,-286.69 1069.74,-277.13 1102,-244 1160.72,-183.69 1182.3,-117.66 1125,-56 1090.15,-18.5 938.54,-11.84 861.41,-10.92"/>
<polygon fill="midnightblue" stroke="midnightblue" points="861.08,-7.42 851.05,-10.83 861.01,-14.42 861.08,-7.42"/>
</g>
<!-- Node12&#45;&gt;Node7 -->
<g id="edge20" class="edge">
<title>Node12&#45;&gt;Node7</title>
<path fill="none" stroke="midnightblue" d="M943.14,-280.24C955.74,-266.99 981.14,-241.53 1006,-224 1033.95,-204.3 1056.36,-217.3 1074,-188 1078.58,-180.38 1079.5,-174.98 1074,-168 1029.3,-111.21 813.15,-82.55 710.43,-71.96"/>
<polygon fill="midnightblue" stroke="midnightblue" points="710.56,-68.45 700.26,-70.93 709.86,-75.42 710.56,-68.45"/>
</g>
<!-- Node13 -->
<g id="node13" class="node">
<title>Node13</title>
<g id="a_node13"><a xlink:title=" ">
<polygon fill="none" stroke="#bfbfbf" points="1014.5,-224.5 1014.5,-243.5 1075.5,-243.5 1075.5,-224.5 1014.5,-224.5"/>
<text text-anchor="middle" x="1045" y="-231.5" font-family="Helvetica,sans-Serif" font-size="10.00">atlsync.h</text>
</a>
</g>
</g>
<!-- Node12&#45;&gt;Node13 -->
<g id="edge17" class="edge">
<title>Node12&#45;&gt;Node13</title>
<path fill="none" stroke="midnightblue" d="M952.67,-280.32C970.39,-271.62 997.9,-258.12 1018.29,-248.11"/>
<polygon fill="midnightblue" stroke="midnightblue" points="1019.94,-251.2 1027.37,-243.65 1016.85,-244.92 1019.94,-251.2"/>
</g>
<!-- Node14 -->
<g id="node14" class="node">
<title>Node14</title>
<g id="a_node14"><a xlink:title=" ">
<polygon fill="none" stroke="#bfbfbf" points="703.5,-224.5 703.5,-243.5 744.5,-243.5 744.5,-224.5 703.5,-224.5"/>
<text text-anchor="middle" x="724" y="-231.5" font-family="Helvetica,sans-Serif" font-size="10.00">tuple</text>
</a>
</g>
</g>
<!-- Node12&#45;&gt;Node14 -->
<g id="edge18" class="edge">
<title>Node12&#45;&gt;Node14</title>
<path fill="none" stroke="midnightblue" d="M898.47,-280.46C863.82,-272.24 810.09,-259.18 754.32,-243.99"/>
<polygon fill="midnightblue" stroke="midnightblue" points="755.19,-240.6 744.62,-241.33 753.34,-247.35 755.19,-240.6"/>
</g>
<!-- Node15 -->
<g id="node15" class="node">
<title>Node15</title>
<g id="a_node15"><a xlink:title=" ">
<polygon fill="none" stroke="#bfbfbf" points="762.5,-224.5 762.5,-243.5 807.5,-243.5 807.5,-224.5 762.5,-224.5"/>
<text text-anchor="middle" x="785" y="-231.5" font-family="Helvetica,sans-Serif" font-size="10.00">utility</text>
</a>
</g>
</g>
<!-- Node12&#45;&gt;Node15 -->
<g id="edge19" class="edge">
<title>Node12&#45;&gt;Node15</title>
<path fill="none" stroke="midnightblue" d="M911.23,-280.44C885.81,-271.29 845.35,-256.73 817.11,-246.56"/>
<polygon fill="midnightblue" stroke="midnightblue" points="818.27,-243.26 807.67,-243.16 815.9,-249.84 818.27,-243.26"/>
</g>
<!-- Node16 -->
<g id="node16" class="node">
<title>Node16</title>
<g id="a_node16"><a xlink:href="utils_8hpp.html" target="_top" xlink:title="Some useful implementation stuff.">
<polygon fill="none" stroke="black" points="882.5,-168.5 882.5,-187.5 977.5,-187.5 977.5,-168.5 882.5,-168.5"/>
<text text-anchor="middle" x="930" y="-175.5" font-family="Helvetica,sans-Serif" font-size="10.00">details/utils.hpp</text>
</a>
</g>
</g>
<!-- Node12&#45;&gt;Node16 -->
<g id="edge21" class="edge">
<title>Node12&#45;&gt;Node16</title>
<path fill="none" stroke="midnightblue" d="M978.12,-285.68C1032.38,-279.78 1115.08,-264.06 1085,-224 1073.07,-208.11 1026.78,-196.02 987.87,-188.39"/>
<polygon fill="midnightblue" stroke="midnightblue" points="988.12,-184.87 977.65,-186.45 986.82,-191.75 988.12,-184.87"/>
</g>
<!-- Node20 -->
<g id="node20" class="node">
<title>Node20</title>
<g id="a_node20"><a xlink:href="basic__callback_8hpp.html" target="_top" xlink:title="Interfaces and base classes for callback wrappers.">
<polygon fill="none" stroke="black" points="475.5,-224.5 475.5,-243.5 608.5,-243.5 608.5,-224.5 475.5,-224.5"/>
<text text-anchor="middle" x="542" y="-231.5" font-family="Helvetica,sans-Serif" font-size="10.00">pool/basic_callback.hpp</text>
</a>
</g>
</g>
<!-- Node12&#45;&gt;Node20 -->
<g id="edge27" class="edge">
<title>Node12&#45;&gt;Node20</title>
<path fill="none" stroke="midnightblue" d="M891.82,-283.07C824.89,-273.87 695.38,-256.07 614.1,-244.91"/>
<polygon fill="midnightblue" stroke="midnightblue" points="614.33,-241.4 603.94,-243.51 613.37,-248.34 614.33,-241.4"/>
</g>
<!-- Node16&#45;&gt;Node7 -->
<g id="edge22" class="edge">
<title>Node16&#45;&gt;Node7</title>
<path fill="none" stroke="midnightblue" d="M913.29,-168.33C887.63,-155.19 836.76,-129.87 792,-112 759.81,-99.15 722.35,-86.95 694.91,-78.5"/>
<polygon fill="midnightblue" stroke="midnightblue" points="695.87,-75.14 685.28,-75.57 693.83,-81.83 695.87,-75.14"/>
</g>
<!-- Node16&#45;&gt;Node8 -->
<g id="edge26" class="edge">
<title>Node16&#45;&gt;Node8</title>
<path fill="none" stroke="midnightblue" d="M977.83,-168.5C1031.47,-158.98 1118.43,-143.53 1175.92,-133.32"/>
<polygon fill="midnightblue" stroke="midnightblue" points="1176.71,-136.73 1185.94,-131.54 1175.48,-129.84 1176.71,-136.73"/>
</g>
<!-- Node17 -->
<g id="node17" class="node">
<title>Node17</title>
<g id="a_node17"><a xlink:href="ntrtl_8h.html" target="_top" xlink:title="Contains necessary declarations/definitions of internal windows objects and functions.">
<polygon fill="none" stroke="black" points="1040,-112.5 1040,-131.5 1120,-131.5 1120,-112.5 1040,-112.5"/>
<text text-anchor="middle" x="1080" y="-119.5" font-family="Helvetica,sans-Serif" font-size="10.00">native/ntrtl.h</text>
</a>
</g>
</g>
<!-- Node16&#45;&gt;Node17 -->
<g id="edge23" class="edge">
<title>Node16&#45;&gt;Node17</title>
<path fill="none" stroke="midnightblue" d="M953.77,-168.44C978.89,-159.4 1018.71,-145.06 1046.9,-134.92"/>
<polygon fill="midnightblue" stroke="midnightblue" points="1048.12,-138.2 1056.34,-131.52 1045.75,-131.61 1048.12,-138.2"/>
</g>
<!-- Node18 -->
<g id="node18" class="node">
<title>Node18</title>
<g id="a_node18"><a xlink:title=" ">
<polygon fill="none" stroke="#bfbfbf" points="964,-56.5 964,-75.5 1032,-75.5 1032,-56.5 964,-56.5"/>
<text text-anchor="middle" x="998" y="-63.5" font-family="Helvetica,sans-Serif" font-size="10.00">windows.h</text>
</a>
</g>
</g>
<!-- Node17&#45;&gt;Node18 -->
<g id="edge24" class="edge">
<title>Node17&#45;&gt;Node18</title>
<path fill="none" stroke="midnightblue" d="M1066.83,-112.32C1054.15,-103.98 1034.77,-91.21 1019.79,-81.35"/>
<polygon fill="midnightblue" stroke="midnightblue" points="1021.42,-78.23 1011.14,-75.65 1017.57,-84.08 1021.42,-78.23"/>
</g>
<!-- Node19 -->
<g id="node19" class="node">
<title>Node19</title>
<g id="a_node19"><a xlink:title=" ">
<polygon fill="none" stroke="#bfbfbf" points="1050.5,-56.5 1050.5,-75.5 1115.5,-75.5 1115.5,-56.5 1050.5,-56.5"/>
<text text-anchor="middle" x="1083" y="-63.5" font-family="Helvetica,sans-Serif" font-size="10.00">winternl.h</text>
</a>
</g>
</g>
<!-- Node17&#45;&gt;Node19 -->
<g id="edge25" class="edge">
<title>Node17&#45;&gt;Node19</title>
<path fill="none" stroke="midnightblue" d="M1080.5,-112.08C1080.89,-105.01 1081.45,-94.86 1081.95,-85.99"/>
<polygon fill="midnightblue" stroke="midnightblue" points="1085.45,-85.93 1082.51,-75.75 1078.46,-85.54 1085.45,-85.93"/>
</g>
<!-- Node20&#45;&gt;Node2 -->
<g id="edge28" class="edge">
<title>Node20&#45;&gt;Node2</title>
<path fill="none" stroke="midnightblue" d="M608.71,-225.4C679.89,-216.64 784.2,-201.69 797,-188 837.75,-144.4 827.83,-65.86 820.5,-29.91"/>
<polygon fill="midnightblue" stroke="midnightblue" points="823.85,-28.84 818.28,-19.83 817.01,-30.35 823.85,-28.84"/>
</g>
<!-- Node20&#45;&gt;Node6 -->
<g id="edge33" class="edge">
<title>Node20&#45;&gt;Node6</title>
<path fill="none" stroke="midnightblue" d="M608.62,-228.47C693.84,-222.18 846.13,-209.29 985.33,-188.12"/>
<polygon fill="midnightblue" stroke="midnightblue" points="985.97,-191.57 995.32,-186.59 984.91,-184.65 985.97,-191.57"/>
</g>
<!-- Node20&#45;&gt;Node7 -->
<g id="edge35" class="edge">
<title>Node20&#45;&gt;Node7</title>
<path fill="none" stroke="midnightblue" d="M579.48,-224.38C599.63,-217.78 623.12,-206.56 637,-188 659.53,-157.87 659.99,-111.6 658.13,-85.89"/>
<polygon fill="midnightblue" stroke="midnightblue" points="661.59,-85.28 657.18,-75.65 654.62,-85.93 661.59,-85.28"/>
</g>
<!-- Node20&#45;&gt;Node16 -->
<g id="edge36" class="edge">
<title>Node20&#45;&gt;Node16</title>
<path fill="none" stroke="midnightblue" d="M603.48,-224.44C677.21,-214.18 799.85,-197.11 872,-187.07"/>
<polygon fill="midnightblue" stroke="midnightblue" points="872.84,-190.49 882.26,-185.64 871.88,-183.56 872.84,-190.49"/>
</g>
<!-- Node21 -->
<g id="node21" class="node">
<title>Node21</title>
<g id="a_node21"><a xlink:title=" ">
<polygon fill="none" stroke="#bfbfbf" points="684,-168.5 684,-187.5 722,-187.5 722,-168.5 684,-168.5"/>
<text text-anchor="middle" x="703" y="-175.5" font-family="Helvetica,sans-Serif" font-size="10.00">map</text>
</a>
</g>
</g>
<!-- Node20&#45;&gt;Node21 -->
<g id="edge29" class="edge">
<title>Node20&#45;&gt;Node21</title>
<path fill="none" stroke="midnightblue" d="M567.51,-224.44C596.51,-214.72 643.74,-198.88 674.08,-188.7"/>
<polygon fill="midnightblue" stroke="midnightblue" points="675.3,-191.98 683.67,-185.48 673.08,-185.34 675.3,-191.98"/>
</g>
<!-- Node22 -->
<g id="node22" class="node">
<title>Node22</title>
<g id="a_node22"><a xlink:title=" ">
<polygon fill="none" stroke="#bfbfbf" points="740,-168.5 740,-187.5 788,-187.5 788,-168.5 740,-168.5"/>
<text text-anchor="middle" x="764" y="-175.5" font-family="Helvetica,sans-Serif" font-size="10.00">mutex</text>
</a>
</g>
</g>
<!-- Node20&#45;&gt;Node22 -->
<g id="edge30" class="edge">
<title>Node20&#45;&gt;Node22</title>
<path fill="none" stroke="midnightblue" d="M579.38,-224.48C615.56,-216.14 672.18,-202.89 730.18,-188.15"/>
<polygon fill="midnightblue" stroke="midnightblue" points="731.05,-191.54 739.87,-185.68 729.32,-184.76 731.05,-191.54"/>
</g>
<!-- Node23 -->
<g id="node23" class="node">
<title>Node23</title>
<g id="a_node23"><a xlink:title=" ">
<polygon fill="none" stroke="#bfbfbf" points="382,-168.5 382,-187.5 440,-187.5 440,-168.5 382,-168.5"/>
<text text-anchor="middle" x="411" y="-175.5" font-family="Helvetica,sans-Serif" font-size="10.00">memory</text>
</a>
</g>
</g>
<!-- Node20&#45;&gt;Node23 -->
<g id="edge31" class="edge">
<title>Node20&#45;&gt;Node23</title>
<path fill="none" stroke="midnightblue" d="M521.24,-224.44C499.68,-215.56 465.74,-201.56 441.21,-191.45"/>
<polygon fill="midnightblue" stroke="midnightblue" points="442.24,-188.09 431.66,-187.52 439.57,-194.56 442.24,-188.09"/>
</g>
<!-- Node24 -->
<g id="node24" class="node">
<title>Node24</title>
<g id="a_node24"><a xlink:title=" ">
<polygon fill="none" stroke="#bfbfbf" points="458.5,-168.5 458.5,-187.5 523.5,-187.5 523.5,-168.5 458.5,-168.5"/>
<text text-anchor="middle" x="491" y="-175.5" font-family="Helvetica,sans-Serif" font-size="10.00">functional</text>
</a>
</g>
</g>
<!-- Node20&#45;&gt;Node24 -->
<g id="edge32" class="edge">
<title>Node20&#45;&gt;Node24</title>
<path fill="none" stroke="midnightblue" d="M533.58,-224.08C526.15,-216.22 515.15,-204.57 506.19,-195.08"/>
<polygon fill="midnightblue" stroke="midnightblue" points="508.68,-192.62 499.26,-187.75 503.59,-197.42 508.68,-192.62"/>
</g>
<!-- Node25 -->
<g id="node25" class="node">
<title>Node25</title>
<g id="a_node25"><a xlink:title=" ">
<polygon fill="none" stroke="#bfbfbf" points="542,-168.5 542,-187.5 628,-187.5 628,-168.5 542,-168.5"/>
<text text-anchor="middle" x="585" y="-175.5" font-family="Helvetica,sans-Serif" font-size="10.00">shared_mutex</text>
</a>
</g>
</g>
<!-- Node20&#45;&gt;Node25 -->
<g id="edge34" class="edge">
<title>Node20&#45;&gt;Node25</title>
<path fill="none" stroke="midnightblue" d="M549.1,-224.08C555.24,-216.38 564.27,-205.03 571.74,-195.65"/>
<polygon fill="midnightblue" stroke="midnightblue" points="574.54,-197.75 578.03,-187.75 569.06,-193.39 574.54,-197.75"/>
</g>
<!-- Node26&#45;&gt;Node7 -->
<g id="edge41" class="edge">
<title>Node26&#45;&gt;Node7</title>
<path fill="none" stroke="midnightblue" d="M792.29,-280.39C800.58,-272.02 812.14,-258.48 817,-244 828.1,-210.88 818.03,-195.89 797,-168 766.6,-127.69 715.55,-96.86 683.93,-80.38"/>
<polygon fill="midnightblue" stroke="midnightblue" points="685.28,-77.14 674.78,-75.73 682.11,-83.39 685.28,-77.14"/>
</g>
<!-- Node26&#45;&gt;Node14 -->
<g id="edge38" class="edge">
<title>Node26&#45;&gt;Node14</title>
<path fill="none" stroke="midnightblue" d="M773.52,-280.32C764.8,-272.34 751.66,-260.31 741.1,-250.65"/>
<polygon fill="midnightblue" stroke="midnightblue" points="743.39,-248 733.65,-243.83 738.67,-253.17 743.39,-248"/>
</g>
<!-- Node26&#45;&gt;Node15 -->
<g id="edge39" class="edge">
<title>Node26&#45;&gt;Node15</title>
<path fill="none" stroke="midnightblue" d="M783.33,-280.08C783.59,-273.01 783.97,-262.86 784.3,-253.99"/>
<polygon fill="midnightblue" stroke="midnightblue" points="787.8,-253.87 784.68,-243.75 780.81,-253.61 787.8,-253.87"/>
</g>
<!-- Node26&#45;&gt;Node16 -->
<g id="edge47" class="edge">
<title>Node26&#45;&gt;Node16</title>
<path fill="none" stroke="midnightblue" d="M824.75,-288.64C858.8,-285.87 905.05,-275.93 929,-244 938.83,-230.89 937.83,-211.75 935.13,-197.63"/>
<polygon fill="midnightblue" stroke="midnightblue" points="938.46,-196.52 932.76,-187.59 931.65,-198.13 938.46,-196.52"/>
</g>
<!-- Node26&#45;&gt;Node20 -->
<g id="edge48" class="edge">
<title>Node26&#45;&gt;Node20</title>
<path fill="none" stroke="midnightblue" d="M744.81,-280.44C702.86,-271.04 635.41,-255.93 589.93,-245.74"/>
<polygon fill="midnightblue" stroke="midnightblue" points="590.53,-242.29 580.01,-243.52 589,-249.12 590.53,-242.29"/>
</g>
<!-- Node27 -->
<g id="node27" class="node">
<title>Node27</title>
<g id="a_node27"><a xlink:title=" ">
<polygon fill="none" stroke="#bfbfbf" points="864,-224.5 864,-243.5 920,-243.5 920,-224.5 864,-224.5"/>
<text text-anchor="middle" x="892" y="-231.5" font-family="Helvetica,sans-Serif" font-size="10.00">optional</text>
</a>
</g>
</g>
<!-- Node26&#45;&gt;Node27 -->
<g id="edge40" class="edge">
<title>Node26&#45;&gt;Node27</title>
<path fill="none" stroke="midnightblue" d="M800.51,-280.32C818.07,-271.62 845.33,-258.12 865.53,-248.11"/>
<polygon fill="midnightblue" stroke="midnightblue" points="867.12,-251.23 874.53,-243.65 864.02,-244.96 867.12,-251.23"/>
</g>
<!-- Node28 -->
<g id="node28" class="node">
<title>Node28</title>
<g id="a_node28"><a xlink:href="time_8hpp.html" target="_top" xlink:title="Utils to work with std::chrono.">
<polygon fill="none" stroke="black" points="230,-224.5 230,-243.5 326,-243.5 326,-224.5 230,-224.5"/>
<text text-anchor="middle" x="278" y="-231.5" font-family="Helvetica,sans-Serif" font-size="10.00">details/time.hpp</text>
</a>
</g>
</g>
<!-- Node26&#45;&gt;Node28 -->
<g id="edge42" class="edge">
<title>Node26&#45;&gt;Node28</title>
<path fill="none" stroke="midnightblue" d="M741.38,-281.65C737.54,-281.06 733.7,-280.5 730,-280 589.18,-261.06 422.68,-246.49 336.41,-239.52"/>
<polygon fill="midnightblue" stroke="midnightblue" points="336.54,-236.02 326.29,-238.71 335.98,-243 336.54,-236.02"/>
</g>
<!-- Node28&#45;&gt;Node2 -->
<g id="edge43" class="edge">
<title>Node28&#45;&gt;Node2</title>
<path fill="none" stroke="midnightblue" d="M266.27,-224.33C251.12,-212.01 227.95,-188.65 239,-168 260.17,-128.44 281.59,-129.27 323,-112 479.49,-46.75 682.03,-22.39 770.87,-14.42"/>
<polygon fill="midnightblue" stroke="midnightblue" points="771.22,-17.9 780.88,-13.55 770.62,-10.93 771.22,-17.9"/>
</g>
<!-- Node28&#45;&gt;Node5 -->
<g id="edge45" class="edge">
<title>Node28&#45;&gt;Node5</title>
<path fill="none" stroke="midnightblue" d="M260.17,-224.32C242.28,-215.62 214.52,-202.12 193.95,-192.11"/>
<polygon fill="midnightblue" stroke="midnightblue" points="195.31,-188.88 184.79,-187.65 192.25,-195.18 195.31,-188.88"/>
</g>
<!-- Node28&#45;&gt;Node7 -->
<g id="edge46" class="edge">
<title>Node28&#45;&gt;Node7</title>
<path fill="none" stroke="midnightblue" d="M281.96,-224.15C293.98,-197.48 329.81,-119.26 340,-112 380.92,-82.83 522.45,-72.41 601.51,-68.81"/>
<polygon fill="midnightblue" stroke="midnightblue" points="601.92,-72.29 611.76,-68.36 601.62,-65.3 601.92,-72.29"/>
</g>
<!-- Node29 -->
<g id="node29" class="node">
<title>Node29</title>
<g id="a_node29"><a xlink:title=" ">
<polygon fill="none" stroke="#bfbfbf" points="248.5,-168.5 248.5,-187.5 287.5,-187.5 287.5,-168.5 248.5,-168.5"/>
<text text-anchor="middle" x="268" y="-175.5" font-family="Helvetica,sans-Serif" font-size="10.00">ratio</text>
</a>
</g>
</g>
<!-- Node28&#45;&gt;Node29 -->
<g id="edge44" class="edge">
<title>Node28&#45;&gt;Node29</title>
<path fill="none" stroke="midnightblue" d="M276.35,-224.08C275.02,-216.93 273.12,-206.64 271.46,-197.69"/>
<polygon fill="midnightblue" stroke="midnightblue" points="274.88,-196.95 269.62,-187.75 268,-198.22 274.88,-196.95"/>
</g>
<!-- Node30&#45;&gt;Node7 -->
<g id="edge52" class="edge">
<title>Node30&#45;&gt;Node7</title>
<path fill="none" stroke="midnightblue" d="M633.43,-281.47C580.91,-272.08 495.96,-255.83 466,-244 421.12,-226.28 396.74,-230 373,-188 322.65,-98.91 506.03,-75.4 601.6,-69.21"/>
<polygon fill="midnightblue" stroke="midnightblue" points="601.91,-72.69 611.68,-68.6 601.49,-65.71 601.91,-72.69"/>
</g>
<!-- Node30&#45;&gt;Node14 -->
<g id="edge50" class="edge">
<title>Node30&#45;&gt;Node14</title>
<path fill="none" stroke="midnightblue" d="M684.76,-280.08C691.54,-272.3 701.54,-260.8 709.76,-251.37"/>
<polygon fill="midnightblue" stroke="midnightblue" points="712.46,-253.59 716.38,-243.75 707.18,-249 712.46,-253.59"/>
</g>
<!-- Node30&#45;&gt;Node15 -->
<g id="edge51" class="edge">
<title>Node30&#45;&gt;Node15</title>
<path fill="none" stroke="midnightblue" d="M694.35,-280.32C711.67,-271.66 738.52,-258.24 758.5,-248.25"/>
<polygon fill="midnightblue" stroke="midnightblue" points="760.31,-251.26 767.69,-243.65 757.18,-245 760.31,-251.26"/>
</g>
<!-- Node30&#45;&gt;Node16 -->
<g id="edge54" class="edge">
<title>Node30&#45;&gt;Node16</title>
<path fill="none" stroke="midnightblue" d="M676.71,-280.39C676.74,-266.39 678.99,-238.76 695,-224 707.95,-212.05 806.97,-196.18 872.27,-186.83"/>
<polygon fill="midnightblue" stroke="midnightblue" points="873.04,-190.25 882.45,-185.38 872.05,-183.32 873.04,-190.25"/>
</g>
<!-- Node30&#45;&gt;Node20 -->
<g id="edge55" class="edge">
<title>Node30&#45;&gt;Node20</title>
<path fill="none" stroke="midnightblue" d="M655.61,-280.44C633.29,-271.52 598.1,-257.44 572.79,-247.32"/>
<polygon fill="midnightblue" stroke="midnightblue" points="573.88,-243.98 563.29,-243.52 571.28,-250.48 573.88,-243.98"/>
</g>
<!-- Node30&#45;&gt;Node28 -->
<g id="edge53" class="edge">
<title>Node30&#45;&gt;Node28</title>
<path fill="none" stroke="midnightblue" d="M633.33,-281.29C630.51,-280.84 627.72,-280.41 625,-280 498.73,-261.11 466.51,-261.17 340,-244 338.73,-243.83 337.44,-243.65 336.14,-243.47"/>
<polygon fill="midnightblue" stroke="midnightblue" points="336.44,-239.98 326.05,-242.06 335.47,-246.91 336.44,-239.98"/>
</g>
<!-- Node31&#45;&gt;Node7 -->
<g id="edge59" class="edge">
<title>Node31&#45;&gt;Node7</title>
<path fill="none" stroke="midnightblue" d="M544.41,-289.63C478.54,-289.71 334.02,-284.71 221,-244 172.38,-226.49 102.05,-209.39 133,-168 188.63,-93.61 479.03,-73.78 601.47,-68.68"/>
<polygon fill="midnightblue" stroke="midnightblue" points="601.88,-72.17 611.73,-68.28 601.6,-65.18 601.88,-72.17"/>
</g>
<!-- Node31&#45;&gt;Node14 -->
<g id="edge57" class="edge">
<title>Node31&#45;&gt;Node14</title>
<path fill="none" stroke="midnightblue" d="M602.82,-280.44C627.4,-271.23 666.62,-256.52 693.76,-246.34"/>
<polygon fill="midnightblue" stroke="midnightblue" points="695.03,-249.6 703.16,-242.82 692.57,-243.05 695.03,-249.6"/>
</g>
<!-- Node31&#45;&gt;Node15 -->
<g id="edge58" class="edge">
<title>Node31&#45;&gt;Node15</title>
<path fill="none" stroke="midnightblue" d="M614.41,-280.42C647.51,-272.09 699.2,-258.91 752.39,-244.39"/>
<polygon fill="midnightblue" stroke="midnightblue" points="753.62,-247.68 762.33,-241.66 751.77,-240.93 753.62,-247.68"/>
</g>
<!-- Node31&#45;&gt;Node16 -->
<g id="edge61" class="edge">
<title>Node31&#45;&gt;Node16</title>
<path fill="none" stroke="midnightblue" d="M589.8,-280.47C606.61,-266.34 642.56,-238.2 678,-224 712.44,-210.2 809.14,-195.26 872.24,-186.54"/>
<polygon fill="midnightblue" stroke="midnightblue" points="873.02,-189.96 882.45,-185.14 872.07,-183.03 873.02,-189.96"/>
</g>
<!-- Node31&#45;&gt;Node20 -->
<g id="edge62" class="edge">
<title>Node31&#45;&gt;Node20</title>
<path fill="none" stroke="midnightblue" d="M573.73,-280.08C568.36,-272.46 560.48,-261.26 553.92,-251.94"/>
<polygon fill="midnightblue" stroke="midnightblue" points="556.78,-249.91 548.16,-243.75 551.05,-253.94 556.78,-249.91"/>
</g>
<!-- Node31&#45;&gt;Node28 -->
<g id="edge60" class="edge">
<title>Node31&#45;&gt;Node28</title>
<path fill="none" stroke="midnightblue" d="M544.47,-282.65C493,-273.44 397.12,-256.3 335.5,-245.28"/>
<polygon fill="midnightblue" stroke="midnightblue" points="336,-241.82 325.54,-243.5 334.77,-248.71 336,-241.82"/>
</g>
</g>
</svg>
