<?xml version="1.0" encoding="UTF-8" standalone="no"?>
<!DOCTYPE svg PUBLIC "-//W3C//DTD SVG 1.1//EN"
 "http://www.w3.org/Graphics/SVG/1.1/DTD/svg11.dtd">
<!-- Generated by graphviz version 2.43.0 (0)
 -->
<!-- Title: ntp/src/pool/threadpool.cpp Pages: 1 -->
<svg width="1390pt" height="420pt"
 viewBox="0.00 0.00 1390.01 420.00" xmlns="http://www.w3.org/2000/svg" xmlns:xlink="http://www.w3.org/1999/xlink">
<g id="graph0" class="graph" transform="scale(1 1) rotate(0) translate(4 416)">
<title>ntp/src/pool/threadpool.cpp</title>
<!-- Node1 -->
<g id="node1" class="node">
<title>Node1</title>
<g id="a_node1"><a xlink:title="Threadpool implementation (traits and some helper functions)">
<polygon fill="#bfbfbf" stroke="black" points="29.51,-392.5 29.51,-411.5 178.51,-411.5 178.51,-392.5 29.51,-392.5"/>
<text text-anchor="middle" x="104.01" y="-399.5" font-family="Helvetica,sans-Serif" font-size="10.00">ntp/src/pool/threadpool.cpp</text>
</a>
</g>
</g>
<!-- Node2 -->
<g id="node2" class="node">
<title>Node2</title>
<g id="a_node2"><a xlink:title=" ">
<polygon fill="none" stroke="#bfbfbf" points="323.01,-0.5 323.01,-19.5 393.01,-19.5 393.01,-0.5 323.01,-0.5"/>
<text text-anchor="middle" x="358.01" y="-7.5" font-family="Helvetica,sans-Serif" font-size="10.00">Windows.h</text>
</a>
</g>
</g>
<!-- Node1&#45;&gt;Node2 -->
<g id="edge1" class="edge">
<title>Node1&#45;&gt;Node2</title>
<path fill="none" stroke="midnightblue" d="M75.35,-392.36C56.79,-385.37 33.46,-373.73 19.01,-356 -0.02,-332.68 0.01,-321.1 0.01,-291 0.01,-291 0.01,-291 0.01,-121 0.01,-56.3 216.33,-25.72 312.66,-15.31"/>
<polygon fill="midnightblue" stroke="midnightblue" points="313.12,-18.78 322.7,-14.25 312.39,-11.82 313.12,-18.78"/>
</g>
<!-- Node3 -->
<g id="node3" class="node">
<title>Node3</title>
<g id="a_node3"><a xlink:title=" ">
<polygon fill="none" stroke="#bfbfbf" points="28.01,-336.5 28.01,-355.5 76.01,-355.5 76.01,-336.5 28.01,-336.5"/>
<text text-anchor="middle" x="52.01" y="-343.5" font-family="Helvetica,sans-Serif" font-size="10.00">thread</text>
</a>
</g>
</g>
<!-- Node1&#45;&gt;Node3 -->
<g id="edge2" class="edge">
<title>Node1&#45;&gt;Node3</title>
<path fill="none" stroke="midnightblue" d="M95.42,-392.08C87.85,-384.22 76.63,-372.57 67.49,-363.08"/>
<polygon fill="midnightblue" stroke="midnightblue" points="69.89,-360.53 60.43,-355.75 64.85,-365.38 69.89,-360.53"/>
</g>
<!-- Node4 -->
<g id="node4" class="node">
<title>Node4</title>
<g id="a_node4"><a xlink:href="threadpool_8hpp.html" target="_top" xlink:title="Threadpool implementations.">
<polygon fill="none" stroke="black" points="412.01,-336.5 412.01,-355.5 526.01,-355.5 526.01,-336.5 412.01,-336.5"/>
<text text-anchor="middle" x="469.01" y="-343.5" font-family="Helvetica,sans-Serif" font-size="10.00">pool/threadpool.hpp</text>
</a>
</g>
</g>
<!-- Node1&#45;&gt;Node4 -->
<g id="edge3" class="edge">
<title>Node1&#45;&gt;Node4</title>
<path fill="none" stroke="midnightblue" d="M161.84,-392.44C226.94,-382.81 332.59,-367.18 401.44,-357"/>
<polygon fill="midnightblue" stroke="midnightblue" points="402.36,-360.4 411.74,-355.47 401.34,-353.47 402.36,-360.4"/>
</g>
<!-- Node8 -->
<g id="node8" class="node">
<title>Node8</title>
<g id="a_node8"><a xlink:href="allocator_8hpp.html" target="_top" xlink:title="Allocator implementations.">
<polygon fill="none" stroke="black" points="276.01,-112.5 276.01,-131.5 392.01,-131.5 392.01,-112.5 276.01,-112.5"/>
<text text-anchor="middle" x="334.01" y="-119.5" font-family="Helvetica,sans-Serif" font-size="10.00">details/allocator.hpp</text>
</a>
</g>
</g>
<!-- Node1&#45;&gt;Node8 -->
<g id="edge63" class="edge">
<title>Node1&#45;&gt;Node8</title>
<path fill="none" stroke="midnightblue" d="M104.01,-392.44C104.01,-373.94 104.01,-328.81 104.01,-291 104.01,-291 104.01,-291 104.01,-233 104.01,-196.55 123.52,-187.98 154.01,-168 173.86,-154.99 230.49,-142.05 274.99,-133.41"/>
<polygon fill="midnightblue" stroke="midnightblue" points="275.69,-136.84 284.86,-131.52 274.38,-129.96 275.69,-136.84"/>
</g>
<!-- Node9 -->
<g id="node9" class="node">
<title>Node9</title>
<g id="a_node9"><a xlink:href="exception_8hpp.html" target="_top" xlink:title="Win32 error wrapper implementations.">
<polygon fill="none" stroke="black" points="1260.01,-56.5 1260.01,-75.5 1382.01,-75.5 1382.01,-56.5 1260.01,-56.5"/>
<text text-anchor="middle" x="1321.01" y="-63.5" font-family="Helvetica,sans-Serif" font-size="10.00">details/exception.hpp</text>
</a>
</g>
</g>
<!-- Node1&#45;&gt;Node9 -->
<g id="edge64" class="edge">
<title>Node1&#45;&gt;Node9</title>
<path fill="none" stroke="midnightblue" d="M178.57,-398.17C442.7,-387.66 1318.01,-348.5 1318.01,-291 1318.01,-291 1318.01,-291 1318.01,-177 1318.01,-144.94 1319.29,-107.63 1320.18,-85.74"/>
<polygon fill="midnightblue" stroke="midnightblue" points="1323.69,-85.69 1320.61,-75.56 1316.69,-85.4 1323.69,-85.69"/>
</g>
<!-- Node4&#45;&gt;Node2 -->
<g id="edge4" class="edge">
<title>Node4&#45;&gt;Node2</title>
<path fill="none" stroke="midnightblue" d="M411.69,-341.32C300.43,-332.59 66.01,-305.8 66.01,-235 66.01,-235 66.01,-235 66.01,-121 66.01,-72.38 109.74,-76.12 154.01,-56 205.55,-32.57 270.1,-20.98 312.62,-15.5"/>
<polygon fill="midnightblue" stroke="midnightblue" points="313.17,-18.96 322.67,-14.27 312.32,-12.01 313.17,-18.96"/>
</g>
<!-- Node5 -->
<g id="node5" class="node">
<title>Node5</title>
<g id="a_node5"><a xlink:title=" ">
<polygon fill="none" stroke="#bfbfbf" points="170.01,-168.5 170.01,-187.5 220.01,-187.5 220.01,-168.5 170.01,-168.5"/>
<text text-anchor="middle" x="195.01" y="-175.5" font-family="Helvetica,sans-Serif" font-size="10.00">chrono</text>
</a>
</g>
</g>
<!-- Node4&#45;&gt;Node5 -->
<g id="edge5" class="edge">
<title>Node4&#45;&gt;Node5</title>
<path fill="none" stroke="midnightblue" d="M420.42,-336.46C365.92,-324.56 277.99,-298.05 223.01,-244 210.16,-231.37 202.84,-211.89 198.94,-197.54"/>
<polygon fill="midnightblue" stroke="midnightblue" points="202.33,-196.67 196.58,-187.77 195.52,-198.31 202.33,-196.67"/>
</g>
<!-- Node6 -->
<g id="node6" class="node">
<title>Node6</title>
<g id="a_node6"><a xlink:title=" ">
<polygon fill="none" stroke="#bfbfbf" points="1024.51,-168.5 1024.51,-187.5 1093.51,-187.5 1093.51,-168.5 1024.51,-168.5"/>
<text text-anchor="middle" x="1059.01" y="-175.5" font-family="Helvetica,sans-Serif" font-size="10.00">type_traits</text>
</a>
</g>
</g>
<!-- Node4&#45;&gt;Node6 -->
<g id="edge6" class="edge">
<title>Node4&#45;&gt;Node6</title>
<path fill="none" stroke="midnightblue" d="M526.2,-343.16C596.78,-339.65 719.86,-329.47 821.01,-300 877.12,-283.65 887.89,-270.47 940.01,-244 973.54,-226.97 1011.58,-205.87 1035.43,-192.42"/>
<polygon fill="midnightblue" stroke="midnightblue" points="1037.15,-195.47 1044.13,-187.5 1033.7,-189.38 1037.15,-195.47"/>
</g>
<!-- Node7 -->
<g id="node7" class="node">
<title>Node7</title>
<g id="a_node7"><a xlink:href="ntp__config_8hpp_source.html" target="_top" xlink:title=" ">
<polygon fill="none" stroke="black" points="490.01,-56.5 490.01,-75.5 578.01,-75.5 578.01,-56.5 490.01,-56.5"/>
<text text-anchor="middle" x="534.01" y="-63.5" font-family="Helvetica,sans-Serif" font-size="10.00">ntp_config.hpp</text>
</a>
</g>
</g>
<!-- Node4&#45;&gt;Node7 -->
<g id="edge7" class="edge">
<title>Node4&#45;&gt;Node7</title>
<path fill="none" stroke="midnightblue" d="M526.02,-343.26C603.1,-339.83 744.33,-329.7 861.01,-300 989.7,-267.24 1063.76,-298.1 1138.01,-188 1167.64,-144.06 1104.22,-125.65 1071.01,-112 984.7,-76.53 706.84,-69.02 588.35,-67.43"/>
<polygon fill="midnightblue" stroke="midnightblue" points="588.11,-63.92 578.07,-67.3 588.03,-70.92 588.11,-63.92"/>
</g>
<!-- Node4&#45;&gt;Node8 -->
<g id="edge8" class="edge">
<title>Node4&#45;&gt;Node8</title>
<path fill="none" stroke="midnightblue" d="M411.76,-337.17C335.23,-323.08 204.2,-285.22 161.01,-188 157.4,-179.88 155.57,-175.03 161.01,-168 168.47,-158.34 232.09,-143.56 280.03,-133.6"/>
<polygon fill="midnightblue" stroke="midnightblue" points="280.9,-137 289.99,-131.55 279.49,-130.14 280.9,-137"/>
</g>
<!-- Node12 -->
<g id="node12" class="node">
<title>Node12</title>
<g id="a_node12"><a xlink:href="work_8hpp.html" target="_top" xlink:title="Work callback wrapper and manager implementation.">
<polygon fill="none" stroke="black" points="726.01,-280.5 726.01,-299.5 812.01,-299.5 812.01,-280.5 726.01,-280.5"/>
<text text-anchor="middle" x="769.01" y="-287.5" font-family="Helvetica,sans-Serif" font-size="10.00">pool/work.hpp</text>
</a>
</g>
</g>
<!-- Node4&#45;&gt;Node12 -->
<g id="edge15" class="edge">
<title>Node4&#45;&gt;Node12</title>
<path fill="none" stroke="midnightblue" d="M516.54,-336.44C570.67,-326.7 658.89,-310.82 715.42,-300.65"/>
<polygon fill="midnightblue" stroke="midnightblue" points="716.37,-304.03 725.59,-298.82 715.13,-297.14 716.37,-304.03"/>
</g>
<!-- Node25 -->
<g id="node25" class="node">
<title>Node25</title>
<g id="a_node25"><a xlink:href="wait_8hpp.html" target="_top" xlink:title="Implementation of threadpool wait callback.">
<polygon fill="none" stroke="black" points="593.51,-280.5 593.51,-299.5 676.51,-299.5 676.51,-280.5 593.51,-280.5"/>
<text text-anchor="middle" x="635.01" y="-287.5" font-family="Helvetica,sans-Serif" font-size="10.00">pool/wait.hpp</text>
</a>
</g>
</g>
<!-- Node4&#45;&gt;Node25 -->
<g id="edge36" class="edge">
<title>Node4&#45;&gt;Node25</title>
<path fill="none" stroke="midnightblue" d="M495.31,-336.44C523.36,-327.32 567.95,-312.81 599.19,-302.65"/>
<polygon fill="midnightblue" stroke="midnightblue" points="600.4,-305.94 608.83,-299.52 598.23,-299.28 600.4,-305.94"/>
</g>
<!-- Node29 -->
<g id="node29" class="node">
<title>Node29</title>
<g id="a_node29"><a xlink:href="timer_8hpp.html" target="_top" xlink:title="Implementation of threadpool timer callback.">
<polygon fill="none" stroke="black" points="376.51,-280.5 376.51,-299.5 463.51,-299.5 463.51,-280.5 376.51,-280.5"/>
<text text-anchor="middle" x="420.01" y="-287.5" font-family="Helvetica,sans-Serif" font-size="10.00">pool/timer.hpp</text>
</a>
</g>
</g>
<!-- Node4&#45;&gt;Node29 -->
<g id="edge48" class="edge">
<title>Node4&#45;&gt;Node29</title>
<path fill="none" stroke="midnightblue" d="M460.91,-336.08C453.85,-328.3 443.42,-316.8 434.86,-307.37"/>
<polygon fill="midnightblue" stroke="midnightblue" points="437.26,-304.8 427.95,-299.75 432.07,-309.51 437.26,-304.8"/>
</g>
<!-- Node30 -->
<g id="node30" class="node">
<title>Node30</title>
<g id="a_node30"><a xlink:href="io_8hpp.html" target="_top" xlink:title="Implementation of threadpool IO callback.">
<polygon fill="none" stroke="black" points="481.51,-280.5 481.51,-299.5 552.51,-299.5 552.51,-280.5 481.51,-280.5"/>
<text text-anchor="middle" x="517.01" y="-287.5" font-family="Helvetica,sans-Serif" font-size="10.00">pool/io.hpp</text>
</a>
</g>
</g>
<!-- Node4&#45;&gt;Node30 -->
<g id="edge56" class="edge">
<title>Node4&#45;&gt;Node30</title>
<path fill="none" stroke="midnightblue" d="M476.93,-336.08C483.85,-328.3 494.07,-316.8 502.46,-307.37"/>
<polygon fill="midnightblue" stroke="midnightblue" points="505.2,-309.55 509.23,-299.75 499.97,-304.9 505.2,-309.55"/>
</g>
<!-- Node8&#45;&gt;Node2 -->
<g id="edge9" class="edge">
<title>Node8&#45;&gt;Node2</title>
<path fill="none" stroke="midnightblue" d="M335.89,-112.37C339.76,-94.62 348.7,-53.67 353.95,-29.6"/>
<polygon fill="midnightblue" stroke="midnightblue" points="357.42,-30.11 356.13,-19.59 350.58,-28.62 357.42,-30.11"/>
</g>
<!-- Node8&#45;&gt;Node7 -->
<g id="edge10" class="edge">
<title>Node8&#45;&gt;Node7</title>
<path fill="none" stroke="midnightblue" d="M365.7,-112.44C400.07,-103.16 455.08,-88.31 492.79,-78.13"/>
<polygon fill="midnightblue" stroke="midnightblue" points="493.72,-81.5 502.46,-75.52 491.9,-74.74 493.72,-81.5"/>
</g>
<!-- Node8&#45;&gt;Node9 -->
<g id="edge11" class="edge">
<title>Node8&#45;&gt;Node9</title>
<path fill="none" stroke="midnightblue" d="M392.06,-117.82C562.8,-108.48 1062.95,-81.12 1249.64,-70.9"/>
<polygon fill="midnightblue" stroke="midnightblue" points="1250.09,-74.38 1259.89,-70.34 1249.71,-67.4 1250.09,-74.38"/>
</g>
<!-- Node9&#45;&gt;Node2 -->
<g id="edge12" class="edge">
<title>Node9&#45;&gt;Node2</title>
<path fill="none" stroke="midnightblue" d="M1259.65,-57.29C1255.03,-56.82 1250.45,-56.38 1246.01,-56 923.67,-28.52 533.97,-15.88 403.22,-12.19"/>
<polygon fill="midnightblue" stroke="midnightblue" points="403.27,-8.69 393.18,-11.91 403.08,-15.69 403.27,-8.69"/>
</g>
<!-- Node10 -->
<g id="node10" class="node">
<title>Node10</title>
<g id="a_node10"><a xlink:title=" ">
<polygon fill="none" stroke="#bfbfbf" points="1251.51,-0.5 1251.51,-19.5 1316.51,-19.5 1316.51,-0.5 1251.51,-0.5"/>
<text text-anchor="middle" x="1284.01" y="-7.5" font-family="Helvetica,sans-Serif" font-size="10.00">stdexcept</text>
</a>
</g>
</g>
<!-- Node9&#45;&gt;Node10 -->
<g id="edge13" class="edge">
<title>Node9&#45;&gt;Node10</title>
<path fill="none" stroke="midnightblue" d="M1314.9,-56.08C1309.72,-48.53 1302.16,-37.49 1295.81,-28.23"/>
<polygon fill="midnightblue" stroke="midnightblue" points="1298.54,-26.02 1290,-19.75 1292.77,-29.98 1298.54,-26.02"/>
</g>
<!-- Node11 -->
<g id="node11" class="node">
<title>Node11</title>
<g id="a_node11"><a xlink:title=" ">
<polygon fill="none" stroke="#bfbfbf" points="1335.01,-0.5 1335.01,-19.5 1379.01,-19.5 1379.01,-0.5 1335.01,-0.5"/>
<text text-anchor="middle" x="1357.01" y="-7.5" font-family="Helvetica,sans-Serif" font-size="10.00">string</text>
</a>
</g>
</g>
<!-- Node9&#45;&gt;Node11 -->
<g id="edge14" class="edge">
<title>Node9&#45;&gt;Node11</title>
<path fill="none" stroke="midnightblue" d="M1326.95,-56.08C1331.98,-48.53 1339.34,-37.49 1345.52,-28.23"/>
<polygon fill="midnightblue" stroke="midnightblue" points="1348.54,-30.01 1351.17,-19.75 1342.71,-26.13 1348.54,-30.01"/>
</g>
<!-- Node12&#45;&gt;Node2 -->
<g id="edge16" class="edge">
<title>Node12&#45;&gt;Node2</title>
<path fill="none" stroke="midnightblue" d="M812.46,-288.74C871.24,-286.99 978.36,-278.75 1062.01,-244 1106.12,-225.68 1158.24,-211.27 1138.01,-168 1074.67,-32.53 560.48,-13.91 403.41,-11.38"/>
<polygon fill="midnightblue" stroke="midnightblue" points="403.21,-7.88 393.16,-11.23 403.1,-14.88 403.21,-7.88"/>
</g>
<!-- Node12&#45;&gt;Node7 -->
<g id="edge19" class="edge">
<title>Node12&#45;&gt;Node7</title>
<path fill="none" stroke="midnightblue" d="M812.03,-285C861.74,-279.49 945.48,-267.47 1014.01,-244 1069.53,-224.98 1150.51,-219.31 1122.01,-168 1070.41,-75.12 723.88,-66.24 588.27,-66.38"/>
<polygon fill="midnightblue" stroke="midnightblue" points="588.1,-62.88 578.11,-66.41 588.12,-69.88 588.1,-62.88"/>
</g>
<!-- Node13 -->
<g id="node13" class="node">
<title>Node13</title>
<g id="a_node13"><a xlink:title=" ">
<polygon fill="none" stroke="#bfbfbf" points="587.51,-224.5 587.51,-243.5 628.51,-243.5 628.51,-224.5 587.51,-224.5"/>
<text text-anchor="middle" x="608.01" y="-231.5" font-family="Helvetica,sans-Serif" font-size="10.00">tuple</text>
</a>
</g>
</g>
<!-- Node12&#45;&gt;Node13 -->
<g id="edge17" class="edge">
<title>Node12&#45;&gt;Node13</title>
<path fill="none" stroke="midnightblue" d="M743.49,-280.44C714.98,-270.88 668.82,-255.4 638.44,-245.21"/>
<polygon fill="midnightblue" stroke="midnightblue" points="639.38,-241.83 628.79,-241.97 637.16,-248.47 639.38,-241.83"/>
</g>
<!-- Node14 -->
<g id="node14" class="node">
<title>Node14</title>
<g id="a_node14"><a xlink:title=" ">
<polygon fill="none" stroke="#bfbfbf" points="524.51,-224.5 524.51,-243.5 569.51,-243.5 569.51,-224.5 524.51,-224.5"/>
<text text-anchor="middle" x="547.01" y="-231.5" font-family="Helvetica,sans-Serif" font-size="10.00">utility</text>
</a>
</g>
</g>
<!-- Node12&#45;&gt;Node14 -->
<g id="edge18" class="edge">
<title>Node12&#45;&gt;Node14</title>
<path fill="none" stroke="midnightblue" d="M731.04,-280.5C694.63,-272.23 637.89,-259.08 579.47,-244.04"/>
<polygon fill="midnightblue" stroke="midnightblue" points="580.26,-240.63 569.7,-241.51 578.5,-247.4 580.26,-240.63"/>
</g>
<!-- Node15 -->
<g id="node15" class="node">
<title>Node15</title>
<g id="a_node15"><a xlink:href="utils_8hpp.html" target="_top" xlink:title="Some useful implementation stuff.">
<polygon fill="none" stroke="black" points="410.51,-168.5 410.51,-187.5 505.51,-187.5 505.51,-168.5 410.51,-168.5"/>
<text text-anchor="middle" x="458.01" y="-175.5" font-family="Helvetica,sans-Serif" font-size="10.00">details/utils.hpp</text>
</a>
</g>
</g>
<!-- Node12&#45;&gt;Node15 -->
<g id="edge20" class="edge">
<title>Node12&#45;&gt;Node15</title>
<path fill="none" stroke="midnightblue" d="M769.21,-280.31C769.03,-266.2 766.45,-238.41 750.01,-224 732.7,-208.83 596.19,-192.82 516.09,-184.6"/>
<polygon fill="midnightblue" stroke="midnightblue" points="515.96,-181.07 505.65,-183.54 515.25,-188.03 515.96,-181.07"/>
</g>
<!-- Node19 -->
<g id="node19" class="node">
<title>Node19</title>
<g id="a_node19"><a xlink:href="basic__callback_8hpp.html" target="_top" xlink:title="Interfaces and base classes for callback wrappers.">
<polygon fill="none" stroke="black" points="797.51,-224.5 797.51,-243.5 930.51,-243.5 930.51,-224.5 797.51,-224.5"/>
<text text-anchor="middle" x="864.01" y="-231.5" font-family="Helvetica,sans-Serif" font-size="10.00">pool/basic_callback.hpp</text>
</a>
</g>
</g>
<!-- Node12&#45;&gt;Node19 -->
<g id="edge26" class="edge">
<title>Node12&#45;&gt;Node19</title>
<path fill="none" stroke="midnightblue" d="M784.27,-280.32C799.23,-271.82 822.26,-258.73 839.73,-248.8"/>
<polygon fill="midnightblue" stroke="midnightblue" points="841.82,-251.64 848.78,-243.65 838.36,-245.55 841.82,-251.64"/>
</g>
<!-- Node15&#45;&gt;Node7 -->
<g id="edge21" class="edge">
<title>Node15&#45;&gt;Node7</title>
<path fill="none" stroke="midnightblue" d="M463.97,-168.37C476.51,-150.22 505.82,-107.8 522.27,-83.99"/>
<polygon fill="midnightblue" stroke="midnightblue" points="525.26,-85.81 528.07,-75.59 519.51,-81.83 525.26,-85.81"/>
</g>
<!-- Node15&#45;&gt;Node8 -->
<g id="edge25" class="edge">
<title>Node15&#45;&gt;Node8</title>
<path fill="none" stroke="midnightblue" d="M438.36,-168.44C418.04,-159.6 386.1,-145.69 362.91,-135.59"/>
<polygon fill="midnightblue" stroke="midnightblue" points="364.13,-132.3 353.56,-131.52 361.33,-138.72 364.13,-132.3"/>
</g>
<!-- Node16 -->
<g id="node16" class="node">
<title>Node16</title>
<g id="a_node16"><a xlink:href="ntrtl_8h.html" target="_top" xlink:title="Contains necessary declarations/definitions of internal windows objects and functions.">
<polygon fill="none" stroke="black" points="178.01,-112.5 178.01,-131.5 258.01,-131.5 258.01,-112.5 178.01,-112.5"/>
<text text-anchor="middle" x="218.01" y="-119.5" font-family="Helvetica,sans-Serif" font-size="10.00">native/ntrtl.h</text>
</a>
</g>
</g>
<!-- Node15&#45;&gt;Node16 -->
<g id="edge22" class="edge">
<title>Node15&#45;&gt;Node16</title>
<path fill="none" stroke="midnightblue" d="M419.98,-168.44C378.2,-159.04 311.02,-143.93 265.74,-133.74"/>
<polygon fill="midnightblue" stroke="midnightblue" points="266.38,-130.3 255.86,-131.52 264.84,-137.13 266.38,-130.3"/>
</g>
<!-- Node17 -->
<g id="node17" class="node">
<title>Node17</title>
<g id="a_node17"><a xlink:title=" ">
<polygon fill="none" stroke="#bfbfbf" points="178.01,-56.5 178.01,-75.5 246.01,-75.5 246.01,-56.5 178.01,-56.5"/>
<text text-anchor="middle" x="212.01" y="-63.5" font-family="Helvetica,sans-Serif" font-size="10.00">windows.h</text>
</a>
</g>
</g>
<!-- Node16&#45;&gt;Node17 -->
<g id="edge23" class="edge">
<title>Node16&#45;&gt;Node17</title>
<path fill="none" stroke="midnightblue" d="M217.01,-112.08C216.22,-104.93 215.08,-94.64 214.08,-85.69"/>
<polygon fill="midnightblue" stroke="midnightblue" points="217.56,-85.3 212.98,-75.75 210.6,-86.08 217.56,-85.3"/>
</g>
<!-- Node18 -->
<g id="node18" class="node">
<title>Node18</title>
<g id="a_node18"><a xlink:title=" ">
<polygon fill="none" stroke="#bfbfbf" points="264.51,-56.5 264.51,-75.5 329.51,-75.5 329.51,-56.5 264.51,-56.5"/>
<text text-anchor="middle" x="297.01" y="-63.5" font-family="Helvetica,sans-Serif" font-size="10.00">winternl.h</text>
</a>
</g>
</g>
<!-- Node16&#45;&gt;Node18 -->
<g id="edge24" class="edge">
<title>Node16&#45;&gt;Node18</title>
<path fill="none" stroke="midnightblue" d="M230.7,-112.32C242.91,-103.98 261.58,-91.21 276.01,-81.35"/>
<polygon fill="midnightblue" stroke="midnightblue" points="278.06,-84.19 284.34,-75.65 274.11,-78.41 278.06,-84.19"/>
</g>
<!-- Node19&#45;&gt;Node2 -->
<g id="edge27" class="edge">
<title>Node19&#45;&gt;Node2</title>
<path fill="none" stroke="midnightblue" d="M897.34,-224.48C929.18,-214.51 970.23,-195.74 955.01,-168 900.78,-69.21 532.75,-26.78 403.1,-14.78"/>
<polygon fill="midnightblue" stroke="midnightblue" points="403.37,-11.29 393.1,-13.87 402.74,-18.26 403.37,-11.29"/>
</g>
<!-- Node19&#45;&gt;Node6 -->
<g id="edge32" class="edge">
<title>Node19&#45;&gt;Node6</title>
<path fill="none" stroke="midnightblue" d="M894.9,-224.44C928.28,-215.2 981.6,-200.44 1018.35,-190.26"/>
<polygon fill="midnightblue" stroke="midnightblue" points="1019.55,-193.56 1028.25,-187.52 1017.68,-186.81 1019.55,-193.56"/>
</g>
<!-- Node19&#45;&gt;Node7 -->
<g id="edge34" class="edge">
<title>Node19&#45;&gt;Node7</title>
<path fill="none" stroke="midnightblue" d="M888.33,-224.34C916.65,-212.92 957.36,-191.49 939.01,-168 896.08,-113.05 688.83,-83.64 588.57,-72.43"/>
<polygon fill="midnightblue" stroke="midnightblue" points="588.66,-68.91 578.34,-71.3 587.89,-75.87 588.66,-68.91"/>
</g>
<!-- Node19&#45;&gt;Node15 -->
<g id="edge35" class="edge">
<title>Node19&#45;&gt;Node15</title>
<path fill="none" stroke="midnightblue" d="M799.67,-224.44C721.51,-214.05 590.82,-196.66 515.76,-186.68"/>
<polygon fill="midnightblue" stroke="midnightblue" points="515.92,-183.17 505.54,-185.32 515,-190.11 515.92,-183.17"/>
</g>
<!-- Node20 -->
<g id="node20" class="node">
<title>Node20</title>
<g id="a_node20"><a xlink:title=" ">
<polygon fill="none" stroke="#bfbfbf" points="892.01,-168.5 892.01,-187.5 930.01,-187.5 930.01,-168.5 892.01,-168.5"/>
<text text-anchor="middle" x="911.01" y="-175.5" font-family="Helvetica,sans-Serif" font-size="10.00">map</text>
</a>
</g>
</g>
<!-- Node19&#45;&gt;Node20 -->
<g id="edge28" class="edge">
<title>Node19&#45;&gt;Node20</title>
<path fill="none" stroke="midnightblue" d="M871.77,-224.08C878.54,-216.3 888.55,-204.8 896.76,-195.37"/>
<polygon fill="midnightblue" stroke="midnightblue" points="899.46,-197.59 903.39,-187.75 894.18,-193 899.46,-197.59"/>
</g>
<!-- Node21 -->
<g id="node21" class="node">
<title>Node21</title>
<g id="a_node21"><a xlink:title=" ">
<polygon fill="none" stroke="#bfbfbf" points="562.01,-168.5 562.01,-187.5 610.01,-187.5 610.01,-168.5 562.01,-168.5"/>
<text text-anchor="middle" x="586.01" y="-175.5" font-family="Helvetica,sans-Serif" font-size="10.00">mutex</text>
</a>
</g>
</g>
<!-- Node19&#45;&gt;Node21 -->
<g id="edge29" class="edge">
<title>Node19&#45;&gt;Node21</title>
<path fill="none" stroke="midnightblue" d="M810.21,-224.47C762.63,-216.61 691.14,-204.08 620.11,-188.1"/>
<polygon fill="midnightblue" stroke="midnightblue" points="620.62,-184.63 610.1,-185.82 619.07,-191.45 620.62,-184.63"/>
</g>
<!-- Node22 -->
<g id="node22" class="node">
<title>Node22</title>
<g id="a_node22"><a xlink:title=" ">
<polygon fill="none" stroke="#bfbfbf" points="628.01,-168.5 628.01,-187.5 686.01,-187.5 686.01,-168.5 628.01,-168.5"/>
<text text-anchor="middle" x="657.01" y="-175.5" font-family="Helvetica,sans-Serif" font-size="10.00">memory</text>
</a>
</g>
</g>
<!-- Node19&#45;&gt;Node22 -->
<g id="edge30" class="edge">
<title>Node19&#45;&gt;Node22</title>
<path fill="none" stroke="midnightblue" d="M831.21,-224.44C794.58,-214.89 735.32,-199.43 696.26,-189.24"/>
<polygon fill="midnightblue" stroke="midnightblue" points="696.86,-185.78 686.3,-186.64 695.1,-192.55 696.86,-185.78"/>
</g>
<!-- Node23 -->
<g id="node23" class="node">
<title>Node23</title>
<g id="a_node23"><a xlink:title=" ">
<polygon fill="none" stroke="#bfbfbf" points="704.51,-168.5 704.51,-187.5 769.51,-187.5 769.51,-168.5 704.51,-168.5"/>
<text text-anchor="middle" x="737.01" y="-175.5" font-family="Helvetica,sans-Serif" font-size="10.00">functional</text>
</a>
</g>
</g>
<!-- Node19&#45;&gt;Node23 -->
<g id="edge31" class="edge">
<title>Node19&#45;&gt;Node23</title>
<path fill="none" stroke="midnightblue" d="M843.88,-224.44C822.98,-215.56 790.07,-201.56 766.29,-191.45"/>
<polygon fill="midnightblue" stroke="midnightblue" points="767.61,-188.21 757.03,-187.52 764.87,-194.65 767.61,-188.21"/>
</g>
<!-- Node24 -->
<g id="node24" class="node">
<title>Node24</title>
<g id="a_node24"><a xlink:title=" ">
<polygon fill="none" stroke="#bfbfbf" points="788.01,-168.5 788.01,-187.5 874.01,-187.5 874.01,-168.5 788.01,-168.5"/>
<text text-anchor="middle" x="831.01" y="-175.5" font-family="Helvetica,sans-Serif" font-size="10.00">shared_mutex</text>
</a>
</g>
</g>
<!-- Node19&#45;&gt;Node24 -->
<g id="edge33" class="edge">
<title>Node19&#45;&gt;Node24</title>
<path fill="none" stroke="midnightblue" d="M858.56,-224.08C853.99,-216.61 847.34,-205.72 841.71,-196.52"/>
<polygon fill="midnightblue" stroke="midnightblue" points="844.55,-194.46 836.35,-187.75 838.58,-198.11 844.55,-194.46"/>
</g>
<!-- Node25&#45;&gt;Node7 -->
<g id="edge40" class="edge">
<title>Node25&#45;&gt;Node7</title>
<path fill="none" stroke="midnightblue" d="M676.65,-283.82C748.04,-274.79 890.86,-255.96 940.01,-244 1017.67,-225.1 1152.57,-230.71 1103.01,-168 1039.78,-88.01 718.29,-71.37 588.48,-67.91"/>
<polygon fill="midnightblue" stroke="midnightblue" points="588.45,-64.41 578.36,-67.66 588.27,-71.41 588.45,-64.41"/>
</g>
<!-- Node25&#45;&gt;Node13 -->
<g id="edge37" class="edge">
<title>Node25&#45;&gt;Node13</title>
<path fill="none" stroke="midnightblue" d="M630.55,-280.08C626.85,-272.69 621.48,-261.95 616.91,-252.81"/>
<polygon fill="midnightblue" stroke="midnightblue" points="619.98,-251.13 612.38,-243.75 613.72,-254.26 619.98,-251.13"/>
</g>
<!-- Node25&#45;&gt;Node14 -->
<g id="edge38" class="edge">
<title>Node25&#45;&gt;Node14</title>
<path fill="none" stroke="midnightblue" d="M620.87,-280.32C607.14,-271.9 586.07,-258.97 569.94,-249.07"/>
<polygon fill="midnightblue" stroke="midnightblue" points="571.46,-245.9 561.11,-243.65 567.8,-251.87 571.46,-245.9"/>
</g>
<!-- Node25&#45;&gt;Node15 -->
<g id="edge46" class="edge">
<title>Node25&#45;&gt;Node15</title>
<path fill="none" stroke="midnightblue" d="M638.62,-280.36C643.65,-266.79 650.8,-240.38 638.01,-224 622.95,-204.72 562.42,-192.48 515.66,-185.71"/>
<polygon fill="midnightblue" stroke="midnightblue" points="516,-182.23 505.61,-184.31 515.04,-189.16 516,-182.23"/>
</g>
<!-- Node25&#45;&gt;Node19 -->
<g id="edge47" class="edge">
<title>Node25&#45;&gt;Node19</title>
<path fill="none" stroke="midnightblue" d="M671.29,-280.44C710.99,-271.08 774.71,-256.06 817.92,-245.87"/>
<polygon fill="midnightblue" stroke="midnightblue" points="818.96,-249.22 827.89,-243.52 817.35,-242.41 818.96,-249.22"/>
</g>
<!-- Node26 -->
<g id="node26" class="node">
<title>Node26</title>
<g id="a_node26"><a xlink:title=" ">
<polygon fill="none" stroke="#bfbfbf" points="685.01,-224.5 685.01,-243.5 741.01,-243.5 741.01,-224.5 685.01,-224.5"/>
<text text-anchor="middle" x="713.01" y="-231.5" font-family="Helvetica,sans-Serif" font-size="10.00">optional</text>
</a>
</g>
</g>
<!-- Node25&#45;&gt;Node26 -->
<g id="edge39" class="edge">
<title>Node25&#45;&gt;Node26</title>
<path fill="none" stroke="midnightblue" d="M647.54,-280.32C659.59,-271.98 678.03,-259.21 692.27,-249.35"/>
<polygon fill="midnightblue" stroke="midnightblue" points="694.27,-252.22 700.5,-243.65 690.29,-246.47 694.27,-252.22"/>
</g>
<!-- Node27 -->
<g id="node27" class="node">
<title>Node27</title>
<g id="a_node27"><a xlink:href="time_8hpp.html" target="_top" xlink:title="Utils to work with std::chrono.">
<polygon fill="none" stroke="black" points="258.01,-224.5 258.01,-243.5 354.01,-243.5 354.01,-224.5 258.01,-224.5"/>
<text text-anchor="middle" x="306.01" y="-231.5" font-family="Helvetica,sans-Serif" font-size="10.00">details/time.hpp</text>
</a>
</g>
</g>
<!-- Node25&#45;&gt;Node27 -->
<g id="edge41" class="edge">
<title>Node25&#45;&gt;Node27</title>
<path fill="none" stroke="midnightblue" d="M593.34,-282.16C535.4,-272.65 430.23,-255.39 364.47,-244.6"/>
<polygon fill="midnightblue" stroke="midnightblue" points="364.7,-241.09 354.27,-242.92 363.57,-247.99 364.7,-241.09"/>
</g>
<!-- Node27&#45;&gt;Node2 -->
<g id="edge42" class="edge">
<title>Node27&#45;&gt;Node2</title>
<path fill="none" stroke="midnightblue" d="M296.92,-224.49C282.9,-211.56 254.91,-186.52 229.01,-168 203.71,-149.91 184.33,-159.06 169.01,-132 152.36,-102.61 148.07,-82.51 169.01,-56 186.61,-33.71 262.84,-21.28 312.94,-15.37"/>
<polygon fill="midnightblue" stroke="midnightblue" points="313.36,-18.85 322.9,-14.24 312.57,-11.89 313.36,-18.85"/>
</g>
<!-- Node27&#45;&gt;Node5 -->
<g id="edge44" class="edge">
<title>Node27&#45;&gt;Node5</title>
<path fill="none" stroke="midnightblue" d="M288.17,-224.32C270.29,-215.62 242.53,-202.12 221.96,-192.11"/>
<polygon fill="midnightblue" stroke="midnightblue" points="223.32,-188.88 212.8,-187.65 220.26,-195.18 223.32,-188.88"/>
</g>
<!-- Node27&#45;&gt;Node7 -->
<g id="edge45" class="edge">
<title>Node27&#45;&gt;Node7</title>
<path fill="none" stroke="midnightblue" d="M313.58,-224.12C324.85,-211.15 346.94,-186.55 368.01,-168 399.49,-140.27 408.22,-133.91 444.01,-112 463.74,-99.92 487.15,-88.29 505.15,-79.88"/>
<polygon fill="midnightblue" stroke="midnightblue" points="506.91,-82.92 514.53,-75.56 503.98,-76.56 506.91,-82.92"/>
</g>
<!-- Node28 -->
<g id="node28" class="node">
<title>Node28</title>
<g id="a_node28"><a xlink:title=" ">
<polygon fill="none" stroke="#bfbfbf" points="276.51,-168.5 276.51,-187.5 315.51,-187.5 315.51,-168.5 276.51,-168.5"/>
<text text-anchor="middle" x="296.01" y="-175.5" font-family="Helvetica,sans-Serif" font-size="10.00">ratio</text>
</a>
</g>
</g>
<!-- Node27&#45;&gt;Node28 -->
<g id="edge43" class="edge">
<title>Node27&#45;&gt;Node28</title>
<path fill="none" stroke="midnightblue" d="M304.35,-224.08C303.03,-216.93 301.12,-206.64 299.47,-197.69"/>
<polygon fill="midnightblue" stroke="midnightblue" points="302.89,-196.95 297.63,-187.75 296.01,-198.22 302.89,-196.95"/>
</g>
<!-- Node29&#45;&gt;Node5 -->
<g id="edge51" class="edge">
<title>Node29&#45;&gt;Node5</title>
<path fill="none" stroke="midnightblue" d="M376.3,-284.97C339.87,-279.95 287.84,-268.75 249.01,-244 230.13,-231.97 214.57,-211.19 205.08,-196.36"/>
<polygon fill="midnightblue" stroke="midnightblue" points="207.95,-194.34 199.75,-187.63 201.97,-197.99 207.95,-194.34"/>
</g>
<!-- Node29&#45;&gt;Node7 -->
<g id="edge52" class="edge">
<title>Node29&#45;&gt;Node7</title>
<path fill="none" stroke="midnightblue" d="M415.28,-280.26C404.78,-259.57 381.91,-206.48 401.01,-168 404.09,-161.77 477.17,-108.21 513.66,-81.72"/>
<polygon fill="midnightblue" stroke="midnightblue" points="516.04,-84.31 522.09,-75.61 511.93,-78.65 516.04,-84.31"/>
</g>
<!-- Node29&#45;&gt;Node13 -->
<g id="edge49" class="edge">
<title>Node29&#45;&gt;Node13</title>
<path fill="none" stroke="midnightblue" d="M451.15,-280.43C481.25,-272.1 528.37,-258.92 577.57,-244.38"/>
<polygon fill="midnightblue" stroke="midnightblue" points="578.84,-247.65 587.43,-241.46 576.85,-240.94 578.84,-247.65"/>
</g>
<!-- Node29&#45;&gt;Node14 -->
<g id="edge50" class="edge">
<title>Node29&#45;&gt;Node14</title>
<path fill="none" stroke="midnightblue" d="M440.13,-280.44C461.03,-271.56 493.94,-257.56 517.72,-247.45"/>
<polygon fill="midnightblue" stroke="midnightblue" points="519.14,-250.65 526.98,-243.52 516.4,-244.21 519.14,-250.65"/>
</g>
<!-- Node29&#45;&gt;Node15 -->
<g id="edge54" class="edge">
<title>Node29&#45;&gt;Node15</title>
<path fill="none" stroke="midnightblue" d="M422.99,-280.37C429.15,-262.54 443.39,-221.3 451.69,-197.27"/>
<polygon fill="midnightblue" stroke="midnightblue" points="455.08,-198.19 455.04,-187.59 448.46,-195.9 455.08,-198.19"/>
</g>
<!-- Node29&#45;&gt;Node19 -->
<g id="edge55" class="edge">
<title>Node29&#45;&gt;Node19</title>
<path fill="none" stroke="midnightblue" d="M463.65,-281.4C466.81,-280.91 469.96,-280.43 473.01,-280 581.77,-264.52 708.15,-250.73 787.11,-242.62"/>
<polygon fill="midnightblue" stroke="midnightblue" points="787.86,-246.06 797.45,-241.56 787.15,-239.1 787.86,-246.06"/>
</g>
<!-- Node29&#45;&gt;Node27 -->
<g id="edge53" class="edge">
<title>Node29&#45;&gt;Node27</title>
<path fill="none" stroke="midnightblue" d="M401.94,-280.44C383.43,-271.68 354.42,-257.94 333.15,-247.86"/>
<polygon fill="midnightblue" stroke="midnightblue" points="334.52,-244.63 323.98,-243.52 331.52,-250.96 334.52,-244.63"/>
</g>
<!-- Node30&#45;&gt;Node7 -->
<g id="edge59" class="edge">
<title>Node30&#45;&gt;Node7</title>
<path fill="none" stroke="midnightblue" d="M516.76,-280.37C516.51,-271.32 516.15,-256.66 516.01,-244 515.91,-235.11 515.5,-232.87 516.01,-224 518.87,-173.95 526.81,-115.35 531.13,-85.91"/>
<polygon fill="midnightblue" stroke="midnightblue" points="534.62,-86.23 532.64,-75.82 527.7,-85.2 534.62,-86.23"/>
</g>
<!-- Node30&#45;&gt;Node13 -->
<g id="edge57" class="edge">
<title>Node30&#45;&gt;Node13</title>
<path fill="none" stroke="midnightblue" d="M531.63,-280.32C545.95,-271.82 568.02,-258.73 584.75,-248.8"/>
<polygon fill="midnightblue" stroke="midnightblue" points="586.61,-251.77 593.42,-243.65 583.04,-245.75 586.61,-251.77"/>
</g>
<!-- Node30&#45;&gt;Node14 -->
<g id="edge58" class="edge">
<title>Node30&#45;&gt;Node14</title>
<path fill="none" stroke="midnightblue" d="M521.96,-280.08C526.11,-272.61 532.16,-261.72 537.27,-252.52"/>
<polygon fill="midnightblue" stroke="midnightblue" points="540.35,-254.19 542.14,-243.75 534.23,-250.79 540.35,-254.19"/>
</g>
<!-- Node30&#45;&gt;Node15 -->
<g id="edge61" class="edge">
<title>Node30&#45;&gt;Node15</title>
<path fill="none" stroke="midnightblue" d="M508.89,-280.27C501.16,-271.61 489.6,-257.67 482.01,-244 473.79,-229.21 467.35,-211.06 463.23,-197.7"/>
<polygon fill="midnightblue" stroke="midnightblue" points="466.49,-196.39 460.31,-187.78 459.77,-198.36 466.49,-196.39"/>
</g>
<!-- Node30&#45;&gt;Node19 -->
<g id="edge62" class="edge">
<title>Node30&#45;&gt;Node19</title>
<path fill="none" stroke="midnightblue" d="M552.51,-283.47C610.5,-274.45 726.36,-256.42 799.27,-245.07"/>
<polygon fill="midnightblue" stroke="midnightblue" points="799.92,-248.51 809.27,-243.52 798.85,-241.6 799.92,-248.51"/>
</g>
<!-- Node30&#45;&gt;Node27 -->
<g id="edge60" class="edge">
<title>Node30&#45;&gt;Node27</title>
<path fill="none" stroke="midnightblue" d="M483.57,-280.44C447.15,-271.12 388.78,-256.18 348.98,-246"/>
<polygon fill="midnightblue" stroke="midnightblue" points="349.84,-242.61 339.28,-243.52 348.1,-249.39 349.84,-242.61"/>
</g>
</g>
</svg>
