<?xml version="1.0" encoding="UTF-8" standalone="no"?>
<!DOCTYPE svg PUBLIC "-//W3C//DTD SVG 1.1//EN"
 "http://www.w3.org/Graphics/SVG/1.1/DTD/svg11.dtd">
<!-- Generated by graphviz version 2.43.0 (0)
 -->
<!-- Title: ntp/include/pool/threadpool.hpp Pages: 1 -->
<svg width="1198pt" height="364pt"
 viewBox="0.00 0.00 1197.50 364.00" xmlns="http://www.w3.org/2000/svg" xmlns:xlink="http://www.w3.org/1999/xlink">
<g id="graph0" class="graph" transform="scale(1 1) rotate(0) translate(4 360)">
<title>ntp/include/pool/threadpool.hpp</title>
<!-- Node1 -->
<g id="node1" class="node">
<title>Node1</title>
<g id="a_node1"><a xlink:title="Threadpool implementations.">
<polygon fill="#bfbfbf" stroke="black" points="548.5,-336.5 548.5,-355.5 719.5,-355.5 719.5,-336.5 548.5,-336.5"/>
<text text-anchor="middle" x="634" y="-343.5" font-family="Helvetica,sans-Serif" font-size="10.00">ntp/include/pool/threadpool.hpp</text>
</a>
</g>
</g>
<!-- Node2 -->
<g id="node2" class="node">
<title>Node2</title>
<g id="a_node2"><a xlink:title=" ">
<polygon fill="none" stroke="#bfbfbf" points="611,-0.5 611,-19.5 681,-19.5 681,-0.5 611,-0.5"/>
<text text-anchor="middle" x="646" y="-7.5" font-family="Helvetica,sans-Serif" font-size="10.00">Windows.h</text>
</a>
</g>
</g>
<!-- Node1&#45;&gt;Node2 -->
<g id="edge1" class="edge">
<title>Node1&#45;&gt;Node2</title>
<path fill="none" stroke="midnightblue" d="M548.31,-343.03C455.7,-339.41 304.26,-329.13 177,-300 95.31,-281.3 0,-318.8 0,-235 0,-235 0,-235 0,-121 0,-87.54 9.61,-73.71 38,-56 85.38,-26.44 467.82,-15.04 600.7,-11.94"/>
<polygon fill="midnightblue" stroke="midnightblue" points="601.02,-15.44 610.94,-11.71 600.86,-8.44 601.02,-15.44"/>
</g>
<!-- Node3 -->
<g id="node3" class="node">
<title>Node3</title>
<g id="a_node3"><a xlink:title=" ">
<polygon fill="none" stroke="#bfbfbf" points="1060,-168.5 1060,-187.5 1110,-187.5 1110,-168.5 1060,-168.5"/>
<text text-anchor="middle" x="1085" y="-175.5" font-family="Helvetica,sans-Serif" font-size="10.00">chrono</text>
</a>
</g>
</g>
<!-- Node1&#45;&gt;Node3 -->
<g id="edge2" class="edge">
<title>Node1&#45;&gt;Node3</title>
<path fill="none" stroke="midnightblue" d="M710.57,-336.46C820.02,-322.72 1013.46,-292.25 1063,-244 1075.39,-231.93 1080.8,-212.64 1083.17,-198.21"/>
<polygon fill="midnightblue" stroke="midnightblue" points="1086.69,-198.27 1084.48,-187.9 1079.74,-197.38 1086.69,-198.27"/>
</g>
<!-- Node4 -->
<g id="node4" class="node">
<title>Node4</title>
<g id="a_node4"><a xlink:title=" ">
<polygon fill="none" stroke="#bfbfbf" points="148.5,-168.5 148.5,-187.5 217.5,-187.5 217.5,-168.5 148.5,-168.5"/>
<text text-anchor="middle" x="183" y="-175.5" font-family="Helvetica,sans-Serif" font-size="10.00">type_traits</text>
</a>
</g>
</g>
<!-- Node1&#45;&gt;Node4 -->
<g id="edge3" class="edge">
<title>Node1&#45;&gt;Node4</title>
<path fill="none" stroke="midnightblue" d="M599.19,-336.46C539.02,-321.2 412.17,-286.78 310,-244 272.93,-228.48 231.83,-206.52 206.7,-192.52"/>
<polygon fill="midnightblue" stroke="midnightblue" points="208.32,-189.42 197.89,-187.57 204.9,-195.52 208.32,-189.42"/>
</g>
<!-- Node5 -->
<g id="node5" class="node">
<title>Node5</title>
<g id="a_node5"><a xlink:href="ntp__config_8hpp_source.html" target="_top" xlink:title=" ">
<polygon fill="none" stroke="black" points="740,-56.5 740,-75.5 828,-75.5 828,-56.5 740,-56.5"/>
<text text-anchor="middle" x="784" y="-63.5" font-family="Helvetica,sans-Serif" font-size="10.00">ntp_config.hpp</text>
</a>
</g>
</g>
<!-- Node1&#45;&gt;Node5 -->
<g id="edge4" class="edge">
<title>Node1&#45;&gt;Node5</title>
<path fill="none" stroke="midnightblue" d="M548.27,-340.8C417.02,-332.37 175.85,-308.33 123,-244 101.56,-217.9 108.16,-198.34 123,-168 131.91,-149.79 176.09,-119.3 195,-112 291.65,-74.66 602.7,-68.23 729.46,-67.18"/>
<polygon fill="midnightblue" stroke="midnightblue" points="729.73,-70.68 739.71,-67.1 729.68,-63.68 729.73,-70.68"/>
</g>
<!-- Node6 -->
<g id="node6" class="node">
<title>Node6</title>
<g id="a_node6"><a xlink:href="allocator_8hpp.html" target="_top" xlink:title="Allocator implementations.">
<polygon fill="none" stroke="black" points="1022,-112.5 1022,-131.5 1138,-131.5 1138,-112.5 1022,-112.5"/>
<text text-anchor="middle" x="1080" y="-119.5" font-family="Helvetica,sans-Serif" font-size="10.00">details/allocator.hpp</text>
</a>
</g>
</g>
<!-- Node1&#45;&gt;Node6 -->
<g id="edge5" class="edge">
<title>Node1&#45;&gt;Node6</title>
<path fill="none" stroke="midnightblue" d="M719.7,-341.42C789.04,-336.67 888.53,-325.64 972,-300 1050.52,-275.88 1096.36,-266.95 1119,-188 1121.45,-179.46 1122.11,-176.33 1119,-168 1114.83,-156.81 1106.48,-146.56 1098.58,-138.68"/>
<polygon fill="midnightblue" stroke="midnightblue" points="1100.7,-135.87 1090.99,-131.63 1095.94,-141 1100.7,-135.87"/>
</g>
<!-- Node10 -->
<g id="node10" class="node">
<title>Node10</title>
<g id="a_node10"><a xlink:href="work_8hpp.html" target="_top" xlink:title="Work callback wrapper and manager implementation.">
<polygon fill="none" stroke="black" points="488,-280.5 488,-299.5 574,-299.5 574,-280.5 488,-280.5"/>
<text text-anchor="middle" x="531" y="-287.5" font-family="Helvetica,sans-Serif" font-size="10.00">pool/work.hpp</text>
</a>
</g>
</g>
<!-- Node1&#45;&gt;Node10 -->
<g id="edge12" class="edge">
<title>Node1&#45;&gt;Node10</title>
<path fill="none" stroke="midnightblue" d="M617.45,-336.32C601.01,-327.7 575.57,-314.36 556.53,-304.39"/>
<polygon fill="midnightblue" stroke="midnightblue" points="557.99,-301.2 547.51,-299.65 554.74,-307.4 557.99,-301.2"/>
</g>
<!-- Node23 -->
<g id="node23" class="node">
<title>Node23</title>
<g id="a_node23"><a xlink:href="wait_8hpp.html" target="_top" xlink:title="Implementation of threadpool wait callback.">
<polygon fill="none" stroke="black" points="592.5,-280.5 592.5,-299.5 675.5,-299.5 675.5,-280.5 592.5,-280.5"/>
<text text-anchor="middle" x="634" y="-287.5" font-family="Helvetica,sans-Serif" font-size="10.00">pool/wait.hpp</text>
</a>
</g>
</g>
<!-- Node1&#45;&gt;Node23 -->
<g id="edge33" class="edge">
<title>Node1&#45;&gt;Node23</title>
<path fill="none" stroke="midnightblue" d="M634,-336.08C634,-329.01 634,-318.86 634,-309.99"/>
<polygon fill="midnightblue" stroke="midnightblue" points="637.5,-309.75 634,-299.75 630.5,-309.75 637.5,-309.75"/>
</g>
<!-- Node27 -->
<g id="node27" class="node">
<title>Node27</title>
<g id="a_node27"><a xlink:href="timer_8hpp.html" target="_top" xlink:title="Implementation of threadpool timer callback.">
<polygon fill="none" stroke="black" points="786.5,-280.5 786.5,-299.5 873.5,-299.5 873.5,-280.5 786.5,-280.5"/>
<text text-anchor="middle" x="830" y="-287.5" font-family="Helvetica,sans-Serif" font-size="10.00">pool/timer.hpp</text>
</a>
</g>
</g>
<!-- Node1&#45;&gt;Node27 -->
<g id="edge45" class="edge">
<title>Node1&#45;&gt;Node27</title>
<path fill="none" stroke="midnightblue" d="M665.06,-336.44C698.6,-327.2 752.2,-312.44 789.14,-302.26"/>
<polygon fill="midnightblue" stroke="midnightblue" points="790.38,-305.55 799.09,-299.52 788.52,-298.8 790.38,-305.55"/>
</g>
<!-- Node28 -->
<g id="node28" class="node">
<title>Node28</title>
<g id="a_node28"><a xlink:href="io_8hpp.html" target="_top" xlink:title="Implementation of threadpool IO callback.">
<polygon fill="none" stroke="black" points="697.5,-280.5 697.5,-299.5 768.5,-299.5 768.5,-280.5 697.5,-280.5"/>
<text text-anchor="middle" x="733" y="-287.5" font-family="Helvetica,sans-Serif" font-size="10.00">pool/io.hpp</text>
</a>
</g>
</g>
<!-- Node1&#45;&gt;Node28 -->
<g id="edge53" class="edge">
<title>Node1&#45;&gt;Node28</title>
<path fill="none" stroke="midnightblue" d="M649.91,-336.32C665.64,-327.74 689.94,-314.49 708.21,-304.52"/>
<polygon fill="midnightblue" stroke="midnightblue" points="710.03,-307.52 717.13,-299.65 706.68,-301.37 710.03,-307.52"/>
</g>
<!-- Node6&#45;&gt;Node2 -->
<g id="edge6" class="edge">
<title>Node6&#45;&gt;Node2</title>
<path fill="none" stroke="midnightblue" d="M1073.55,-112.47C1062.13,-98.05 1036.79,-69.17 1008,-56 952.51,-30.62 775.42,-17.95 691.26,-13.24"/>
<polygon fill="midnightblue" stroke="midnightblue" points="691.4,-9.74 681.23,-12.69 691.02,-16.73 691.4,-9.74"/>
</g>
<!-- Node6&#45;&gt;Node5 -->
<g id="edge7" class="edge">
<title>Node6&#45;&gt;Node5</title>
<path fill="none" stroke="midnightblue" d="M1033.1,-112.44C980.15,-102.78 894.14,-87.09 838.32,-76.91"/>
<polygon fill="midnightblue" stroke="midnightblue" points="838.73,-73.43 828.27,-75.08 837.47,-80.31 838.73,-73.43"/>
</g>
<!-- Node7 -->
<g id="node7" class="node">
<title>Node7</title>
<g id="a_node7"><a xlink:href="exception_8hpp.html" target="_top" xlink:title="Win32 error wrapper implementations.">
<polygon fill="none" stroke="black" points="1060,-56.5 1060,-75.5 1182,-75.5 1182,-56.5 1060,-56.5"/>
<text text-anchor="middle" x="1121" y="-63.5" font-family="Helvetica,sans-Serif" font-size="10.00">details/exception.hpp</text>
</a>
</g>
</g>
<!-- Node6&#45;&gt;Node7 -->
<g id="edge8" class="edge">
<title>Node6&#45;&gt;Node7</title>
<path fill="none" stroke="midnightblue" d="M1086.77,-112.08C1092.56,-104.46 1101.06,-93.26 1108.14,-83.94"/>
<polygon fill="midnightblue" stroke="midnightblue" points="1111.1,-85.83 1114.36,-75.75 1105.52,-81.6 1111.1,-85.83"/>
</g>
<!-- Node7&#45;&gt;Node2 -->
<g id="edge9" class="edge">
<title>Node7&#45;&gt;Node2</title>
<path fill="none" stroke="midnightblue" d="M1059.61,-57.6C1055,-57.05 1050.43,-56.51 1046,-56 917.48,-41.06 765.64,-24.19 691.43,-16"/>
<polygon fill="midnightblue" stroke="midnightblue" points="691.38,-12.47 681.06,-14.86 690.61,-19.43 691.38,-12.47"/>
</g>
<!-- Node8 -->
<g id="node8" class="node">
<title>Node8</title>
<g id="a_node8"><a xlink:title=" ">
<polygon fill="none" stroke="#bfbfbf" points="1124.5,-0.5 1124.5,-19.5 1189.5,-19.5 1189.5,-0.5 1124.5,-0.5"/>
<text text-anchor="middle" x="1157" y="-7.5" font-family="Helvetica,sans-Serif" font-size="10.00">stdexcept</text>
</a>
</g>
</g>
<!-- Node7&#45;&gt;Node8 -->
<g id="edge10" class="edge">
<title>Node7&#45;&gt;Node8</title>
<path fill="none" stroke="midnightblue" d="M1126.94,-56.08C1131.98,-48.53 1139.34,-37.49 1145.51,-28.23"/>
<polygon fill="midnightblue" stroke="midnightblue" points="1148.53,-30.01 1151.17,-19.75 1142.71,-26.13 1148.53,-30.01"/>
</g>
<!-- Node9 -->
<g id="node9" class="node">
<title>Node9</title>
<g id="a_node9"><a xlink:title=" ">
<polygon fill="none" stroke="#bfbfbf" points="1062,-0.5 1062,-19.5 1106,-19.5 1106,-0.5 1062,-0.5"/>
<text text-anchor="middle" x="1084" y="-7.5" font-family="Helvetica,sans-Serif" font-size="10.00">string</text>
</a>
</g>
</g>
<!-- Node7&#45;&gt;Node9 -->
<g id="edge11" class="edge">
<title>Node7&#45;&gt;Node9</title>
<path fill="none" stroke="midnightblue" d="M1114.89,-56.08C1109.72,-48.53 1102.15,-37.49 1095.81,-28.23"/>
<polygon fill="midnightblue" stroke="midnightblue" points="1098.54,-26.02 1090,-19.75 1092.76,-29.98 1098.54,-26.02"/>
</g>
<!-- Node10&#45;&gt;Node2 -->
<g id="edge13" class="edge">
<title>Node10&#45;&gt;Node2</title>
<path fill="none" stroke="midnightblue" d="M487.68,-288.51C367.38,-286 38,-270.75 38,-179 38,-179 38,-179 38,-121 38,-90.9 33.62,-74.96 57,-56 98.93,-22 470.31,-13.49 600.86,-11.54"/>
<polygon fill="midnightblue" stroke="midnightblue" points="600.97,-15.04 610.92,-11.39 600.87,-8.04 600.97,-15.04"/>
</g>
<!-- Node10&#45;&gt;Node5 -->
<g id="edge16" class="edge">
<title>Node10&#45;&gt;Node5</title>
<path fill="none" stroke="midnightblue" d="M487.73,-289.69C367.06,-290.24 41.88,-281.51 139,-168 215.11,-79.04 588.39,-67.89 729.68,-66.89"/>
<polygon fill="midnightblue" stroke="midnightblue" points="729.86,-70.39 739.84,-66.84 729.82,-63.39 729.86,-70.39"/>
</g>
<!-- Node11 -->
<g id="node11" class="node">
<title>Node11</title>
<g id="a_node11"><a xlink:title=" ">
<polygon fill="none" stroke="#bfbfbf" points="722.5,-224.5 722.5,-243.5 763.5,-243.5 763.5,-224.5 722.5,-224.5"/>
<text text-anchor="middle" x="743" y="-231.5" font-family="Helvetica,sans-Serif" font-size="10.00">tuple</text>
</a>
</g>
</g>
<!-- Node10&#45;&gt;Node11 -->
<g id="edge14" class="edge">
<title>Node10&#45;&gt;Node11</title>
<path fill="none" stroke="midnightblue" d="M567.74,-280.48C602.58,-272.27 656.61,-259.22 712.64,-243.99"/>
<polygon fill="midnightblue" stroke="midnightblue" points="713.66,-247.34 722.38,-241.33 711.81,-240.59 713.66,-247.34"/>
</g>
<!-- Node12 -->
<g id="node12" class="node">
<title>Node12</title>
<g id="a_node12"><a xlink:title=" ">
<polygon fill="none" stroke="#bfbfbf" points="659.5,-224.5 659.5,-243.5 704.5,-243.5 704.5,-224.5 659.5,-224.5"/>
<text text-anchor="middle" x="682" y="-231.5" font-family="Helvetica,sans-Serif" font-size="10.00">utility</text>
</a>
</g>
</g>
<!-- Node10&#45;&gt;Node12 -->
<g id="edge15" class="edge">
<title>Node10&#45;&gt;Node12</title>
<path fill="none" stroke="midnightblue" d="M554.93,-280.44C580.52,-271.29 621.25,-256.73 649.68,-246.56"/>
<polygon fill="midnightblue" stroke="midnightblue" points="650.94,-249.83 659.17,-243.16 648.58,-243.23 650.94,-249.83"/>
</g>
<!-- Node13 -->
<g id="node13" class="node">
<title>Node13</title>
<g id="a_node13"><a xlink:href="utils_8hpp.html" target="_top" xlink:title="Some useful implementation stuff.">
<polygon fill="none" stroke="black" points="736.5,-168.5 736.5,-187.5 831.5,-187.5 831.5,-168.5 736.5,-168.5"/>
<text text-anchor="middle" x="784" y="-175.5" font-family="Helvetica,sans-Serif" font-size="10.00">details/utils.hpp</text>
</a>
</g>
</g>
<!-- Node10&#45;&gt;Node13 -->
<g id="edge17" class="edge">
<title>Node10&#45;&gt;Node13</title>
<path fill="none" stroke="midnightblue" d="M542.72,-280.32C561.54,-266.72 600.06,-240.26 636,-224 668.4,-209.35 706.87,-197.82 736.46,-190.1"/>
<polygon fill="midnightblue" stroke="midnightblue" points="737.72,-193.39 746.54,-187.52 735.98,-186.61 737.72,-193.39"/>
</g>
<!-- Node17 -->
<g id="node17" class="node">
<title>Node17</title>
<g id="a_node17"><a xlink:href="basic__callback_8hpp.html" target="_top" xlink:title="Interfaces and base classes for callback wrappers.">
<polygon fill="none" stroke="black" points="393.5,-224.5 393.5,-243.5 526.5,-243.5 526.5,-224.5 393.5,-224.5"/>
<text text-anchor="middle" x="460" y="-231.5" font-family="Helvetica,sans-Serif" font-size="10.00">pool/basic_callback.hpp</text>
</a>
</g>
</g>
<!-- Node10&#45;&gt;Node17 -->
<g id="edge23" class="edge">
<title>Node10&#45;&gt;Node17</title>
<path fill="none" stroke="midnightblue" d="M519.59,-280.32C508.89,-272.18 492.66,-259.84 479.84,-250.09"/>
<polygon fill="midnightblue" stroke="midnightblue" points="481.69,-247.1 471.61,-243.83 477.46,-252.67 481.69,-247.1"/>
</g>
<!-- Node13&#45;&gt;Node5 -->
<g id="edge18" class="edge">
<title>Node13&#45;&gt;Node5</title>
<path fill="none" stroke="midnightblue" d="M784,-168.37C784,-150.62 784,-109.67 784,-85.6"/>
<polygon fill="midnightblue" stroke="midnightblue" points="787.5,-85.59 784,-75.59 780.5,-85.59 787.5,-85.59"/>
</g>
<!-- Node13&#45;&gt;Node6 -->
<g id="edge22" class="edge">
<title>Node13&#45;&gt;Node6</title>
<path fill="none" stroke="midnightblue" d="M830.9,-168.44C883.08,-158.92 967.37,-143.55 1023.23,-133.36"/>
<polygon fill="midnightblue" stroke="midnightblue" points="1024.11,-136.75 1033.32,-131.52 1022.85,-129.87 1024.11,-136.75"/>
</g>
<!-- Node14 -->
<g id="node14" class="node">
<title>Node14</title>
<g id="a_node14"><a xlink:href="ntrtl_8h.html" target="_top" xlink:title="Contains necessary declarations/definitions of internal windows objects and functions.">
<polygon fill="none" stroke="black" points="66,-112.5 66,-131.5 146,-131.5 146,-112.5 66,-112.5"/>
<text text-anchor="middle" x="106" y="-119.5" font-family="Helvetica,sans-Serif" font-size="10.00">native/ntrtl.h</text>
</a>
</g>
</g>
<!-- Node13&#45;&gt;Node14 -->
<g id="edge19" class="edge">
<title>Node13&#45;&gt;Node14</title>
<path fill="none" stroke="midnightblue" d="M736.32,-173.2C612.75,-163.36 282.93,-137.09 156.39,-127.01"/>
<polygon fill="midnightblue" stroke="midnightblue" points="156.46,-123.51 146.21,-126.2 155.9,-130.49 156.46,-123.51"/>
</g>
<!-- Node15 -->
<g id="node15" class="node">
<title>Node15</title>
<g id="a_node15"><a xlink:title=" ">
<polygon fill="none" stroke="#bfbfbf" points="66,-56.5 66,-75.5 134,-75.5 134,-56.5 66,-56.5"/>
<text text-anchor="middle" x="100" y="-63.5" font-family="Helvetica,sans-Serif" font-size="10.00">windows.h</text>
</a>
</g>
</g>
<!-- Node14&#45;&gt;Node15 -->
<g id="edge20" class="edge">
<title>Node14&#45;&gt;Node15</title>
<path fill="none" stroke="midnightblue" d="M105.01,-112.08C104.21,-104.93 103.07,-94.64 102.08,-85.69"/>
<polygon fill="midnightblue" stroke="midnightblue" points="105.56,-85.3 100.97,-75.75 98.6,-86.08 105.56,-85.3"/>
</g>
<!-- Node16 -->
<g id="node16" class="node">
<title>Node16</title>
<g id="a_node16"><a xlink:title=" ">
<polygon fill="none" stroke="#bfbfbf" points="152.5,-56.5 152.5,-75.5 217.5,-75.5 217.5,-56.5 152.5,-56.5"/>
<text text-anchor="middle" x="185" y="-63.5" font-family="Helvetica,sans-Serif" font-size="10.00">winternl.h</text>
</a>
</g>
</g>
<!-- Node14&#45;&gt;Node16 -->
<g id="edge21" class="edge">
<title>Node14&#45;&gt;Node16</title>
<path fill="none" stroke="midnightblue" d="M118.69,-112.32C130.9,-103.98 149.58,-91.21 164,-81.35"/>
<polygon fill="midnightblue" stroke="midnightblue" points="166.06,-84.19 172.34,-75.65 162.11,-78.41 166.06,-84.19"/>
</g>
<!-- Node17&#45;&gt;Node2 -->
<g id="edge24" class="edge">
<title>Node17&#45;&gt;Node2</title>
<path fill="none" stroke="midnightblue" d="M408.46,-224.5C353.78,-214.95 274,-199.32 265,-188 259.47,-181.04 260.05,-175.39 265,-168 341.34,-53.98 517.15,-22.68 600.53,-14.16"/>
<polygon fill="midnightblue" stroke="midnightblue" points="601.09,-17.62 610.71,-13.18 600.42,-10.65 601.09,-17.62"/>
</g>
<!-- Node17&#45;&gt;Node4 -->
<g id="edge29" class="edge">
<title>Node17&#45;&gt;Node4</title>
<path fill="none" stroke="midnightblue" d="M416.11,-224.44C364.62,-214.41 279.72,-197.86 227.83,-187.74"/>
<polygon fill="midnightblue" stroke="midnightblue" points="228.4,-184.28 217.92,-185.81 227.06,-191.16 228.4,-184.28"/>
</g>
<!-- Node17&#45;&gt;Node5 -->
<g id="edge31" class="edge">
<title>Node17&#45;&gt;Node5</title>
<path fill="none" stroke="midnightblue" d="M517.89,-224.44C565.8,-216.44 629.26,-203.42 650,-188 681.32,-164.71 665.57,-138.74 694,-112 709.35,-97.56 730.23,-86.73 748.01,-79.32"/>
<polygon fill="midnightblue" stroke="midnightblue" points="749.5,-82.5 757.51,-75.56 746.92,-75.99 749.5,-82.5"/>
</g>
<!-- Node17&#45;&gt;Node13 -->
<g id="edge32" class="edge">
<title>Node17&#45;&gt;Node13</title>
<path fill="none" stroke="midnightblue" d="M511.34,-224.44C569.79,-214.7 665.04,-198.83 726.09,-188.65"/>
<polygon fill="midnightblue" stroke="midnightblue" points="727.04,-192.04 736.33,-186.94 725.89,-185.14 727.04,-192.04"/>
</g>
<!-- Node18 -->
<g id="node18" class="node">
<title>Node18</title>
<g id="a_node18"><a xlink:title=" ">
<polygon fill="none" stroke="#bfbfbf" points="378,-168.5 378,-187.5 416,-187.5 416,-168.5 378,-168.5"/>
<text text-anchor="middle" x="397" y="-175.5" font-family="Helvetica,sans-Serif" font-size="10.00">map</text>
</a>
</g>
</g>
<!-- Node17&#45;&gt;Node18 -->
<g id="edge25" class="edge">
<title>Node17&#45;&gt;Node18</title>
<path fill="none" stroke="midnightblue" d="M449.88,-224.32C440.47,-216.26 426.26,-204.08 414.93,-194.37"/>
<polygon fill="midnightblue" stroke="midnightblue" points="417.18,-191.68 407.31,-187.83 412.62,-197 417.18,-191.68"/>
</g>
<!-- Node19 -->
<g id="node19" class="node">
<title>Node19</title>
<g id="a_node19"><a xlink:title=" ">
<polygon fill="none" stroke="#bfbfbf" points="434,-168.5 434,-187.5 482,-187.5 482,-168.5 434,-168.5"/>
<text text-anchor="middle" x="458" y="-175.5" font-family="Helvetica,sans-Serif" font-size="10.00">mutex</text>
</a>
</g>
</g>
<!-- Node17&#45;&gt;Node19 -->
<g id="edge26" class="edge">
<title>Node17&#45;&gt;Node19</title>
<path fill="none" stroke="midnightblue" d="M459.67,-224.08C459.41,-217.01 459.03,-206.86 458.7,-197.99"/>
<polygon fill="midnightblue" stroke="midnightblue" points="462.19,-197.61 458.32,-187.75 455.2,-197.87 462.19,-197.61"/>
</g>
<!-- Node20 -->
<g id="node20" class="node">
<title>Node20</title>
<g id="a_node20"><a xlink:title=" ">
<polygon fill="none" stroke="#bfbfbf" points="500,-168.5 500,-187.5 558,-187.5 558,-168.5 500,-168.5"/>
<text text-anchor="middle" x="529" y="-175.5" font-family="Helvetica,sans-Serif" font-size="10.00">memory</text>
</a>
</g>
</g>
<!-- Node17&#45;&gt;Node20 -->
<g id="edge27" class="edge">
<title>Node17&#45;&gt;Node20</title>
<path fill="none" stroke="midnightblue" d="M471.09,-224.32C481.49,-216.18 497.26,-203.84 509.72,-194.09"/>
<polygon fill="midnightblue" stroke="midnightblue" points="511.99,-196.75 517.71,-187.83 507.68,-191.24 511.99,-196.75"/>
</g>
<!-- Node21 -->
<g id="node21" class="node">
<title>Node21</title>
<g id="a_node21"><a xlink:title=" ">
<polygon fill="none" stroke="#bfbfbf" points="576.5,-168.5 576.5,-187.5 641.5,-187.5 641.5,-168.5 576.5,-168.5"/>
<text text-anchor="middle" x="609" y="-175.5" font-family="Helvetica,sans-Serif" font-size="10.00">functional</text>
</a>
</g>
</g>
<!-- Node17&#45;&gt;Node21 -->
<g id="edge28" class="edge">
<title>Node17&#45;&gt;Node21</title>
<path fill="none" stroke="midnightblue" d="M483.61,-224.44C508.46,-215.44 547.77,-201.19 575.75,-191.05"/>
<polygon fill="midnightblue" stroke="midnightblue" points="577.29,-194.21 585.5,-187.52 574.91,-187.63 577.29,-194.21"/>
</g>
<!-- Node22 -->
<g id="node22" class="node">
<title>Node22</title>
<g id="a_node22"><a xlink:title=" ">
<polygon fill="none" stroke="#bfbfbf" points="274,-168.5 274,-187.5 360,-187.5 360,-168.5 274,-168.5"/>
<text text-anchor="middle" x="317" y="-175.5" font-family="Helvetica,sans-Serif" font-size="10.00">shared_mutex</text>
</a>
</g>
</g>
<!-- Node17&#45;&gt;Node22 -->
<g id="edge30" class="edge">
<title>Node17&#45;&gt;Node22</title>
<path fill="none" stroke="midnightblue" d="M437.34,-224.44C413.6,-215.48 376.09,-201.31 349.26,-191.18"/>
<polygon fill="midnightblue" stroke="midnightblue" points="350.14,-187.77 339.55,-187.52 347.67,-194.32 350.14,-187.77"/>
</g>
<!-- Node23&#45;&gt;Node5 -->
<g id="edge37" class="edge">
<title>Node23&#45;&gt;Node5</title>
<path fill="none" stroke="midnightblue" d="M632.26,-280.13C630.15,-267.18 627.81,-242.6 636,-224 645.25,-203 657.02,-204.46 673,-188 708.55,-151.39 748.66,-106.81 769.57,-83.31"/>
<polygon fill="midnightblue" stroke="midnightblue" points="772.34,-85.47 776.36,-75.66 767.1,-80.82 772.34,-85.47"/>
</g>
<!-- Node23&#45;&gt;Node11 -->
<g id="edge34" class="edge">
<title>Node23&#45;&gt;Node11</title>
<path fill="none" stroke="midnightblue" d="M651.51,-280.32C669.07,-271.62 696.33,-258.12 716.53,-248.11"/>
<polygon fill="midnightblue" stroke="midnightblue" points="718.12,-251.23 725.53,-243.65 715.02,-244.96 718.12,-251.23"/>
</g>
<!-- Node23&#45;&gt;Node12 -->
<g id="edge35" class="edge">
<title>Node23&#45;&gt;Node12</title>
<path fill="none" stroke="midnightblue" d="M641.93,-280.08C648.85,-272.3 659.07,-260.8 667.45,-251.37"/>
<polygon fill="midnightblue" stroke="midnightblue" points="670.19,-253.55 674.22,-243.75 664.96,-248.9 670.19,-253.55"/>
</g>
<!-- Node23&#45;&gt;Node13 -->
<g id="edge43" class="edge">
<title>Node23&#45;&gt;Node13</title>
<path fill="none" stroke="midnightblue" d="M633.65,-280.2C633.59,-266.43 635.52,-239.73 650,-224 661.86,-211.11 702.15,-198.61 735.48,-190.07"/>
<polygon fill="midnightblue" stroke="midnightblue" points="736.71,-193.37 745.57,-187.54 735.02,-186.57 736.71,-193.37"/>
</g>
<!-- Node23&#45;&gt;Node17 -->
<g id="edge44" class="edge">
<title>Node23&#45;&gt;Node17</title>
<path fill="none" stroke="midnightblue" d="M606.43,-280.44C576.9,-271.28 529.88,-256.69 497.12,-246.52"/>
<polygon fill="midnightblue" stroke="midnightblue" points="498.03,-243.14 487.44,-243.52 495.96,-249.82 498.03,-243.14"/>
</g>
<!-- Node24 -->
<g id="node24" class="node">
<title>Node24</title>
<g id="a_node24"><a xlink:title=" ">
<polygon fill="none" stroke="#bfbfbf" points="319,-224.5 319,-243.5 375,-243.5 375,-224.5 319,-224.5"/>
<text text-anchor="middle" x="347" y="-231.5" font-family="Helvetica,sans-Serif" font-size="10.00">optional</text>
</a>
</g>
</g>
<!-- Node23&#45;&gt;Node24 -->
<g id="edge36" class="edge">
<title>Node23&#45;&gt;Node24</title>
<path fill="none" stroke="midnightblue" d="M592.38,-281.65C532.52,-271.06 425.6,-252.07 385.16,-244.08"/>
<polygon fill="midnightblue" stroke="midnightblue" points="385.74,-240.63 375.24,-242.06 384.34,-247.48 385.74,-240.63"/>
</g>
<!-- Node25 -->
<g id="node25" class="node">
<title>Node25</title>
<g id="a_node25"><a xlink:href="time_8hpp.html" target="_top" xlink:title="Utils to work with std::chrono.">
<polygon fill="none" stroke="black" points="896,-224.5 896,-243.5 992,-243.5 992,-224.5 896,-224.5"/>
<text text-anchor="middle" x="944" y="-231.5" font-family="Helvetica,sans-Serif" font-size="10.00">details/time.hpp</text>
</a>
</g>
</g>
<!-- Node23&#45;&gt;Node25 -->
<g id="edge38" class="edge">
<title>Node23&#45;&gt;Node25</title>
<path fill="none" stroke="midnightblue" d="M675.81,-281.72C730.05,-272.27 824.97,-255.73 886.11,-245.08"/>
<polygon fill="midnightblue" stroke="midnightblue" points="886.75,-248.53 896,-243.36 885.55,-241.63 886.75,-248.53"/>
</g>
<!-- Node25&#45;&gt;Node2 -->
<g id="edge39" class="edge">
<title>Node25&#45;&gt;Node2</title>
<path fill="none" stroke="midnightblue" d="M953.3,-224.14C965.27,-211.61 983.48,-187.99 974,-168 940.31,-96.94 907.53,-90.8 837,-56 790.21,-32.91 731.03,-21.34 691.05,-15.77"/>
<polygon fill="midnightblue" stroke="midnightblue" points="691.43,-12.29 681.06,-14.45 690.51,-19.23 691.43,-12.29"/>
</g>
<!-- Node25&#45;&gt;Node3 -->
<g id="edge41" class="edge">
<title>Node25&#45;&gt;Node3</title>
<path fill="none" stroke="midnightblue" d="M966.34,-224.44C989.75,-215.48 1026.74,-201.31 1053.19,-191.18"/>
<polygon fill="midnightblue" stroke="midnightblue" points="1054.68,-194.36 1062.76,-187.52 1052.17,-187.82 1054.68,-194.36"/>
</g>
<!-- Node25&#45;&gt;Node5 -->
<g id="edge42" class="edge">
<title>Node25&#45;&gt;Node5</title>
<path fill="none" stroke="midnightblue" d="M938.76,-224.41C933.27,-215.39 924.43,-200.75 917,-188 897.46,-154.47 902.14,-138.73 874,-112 858.72,-97.48 837.85,-86.65 820.05,-79.26"/>
<polygon fill="midnightblue" stroke="midnightblue" points="821.13,-75.92 810.54,-75.51 818.56,-82.43 821.13,-75.92"/>
</g>
<!-- Node26 -->
<g id="node26" class="node">
<title>Node26</title>
<g id="a_node26"><a xlink:title=" ">
<polygon fill="none" stroke="#bfbfbf" points="926.5,-168.5 926.5,-187.5 965.5,-187.5 965.5,-168.5 926.5,-168.5"/>
<text text-anchor="middle" x="946" y="-175.5" font-family="Helvetica,sans-Serif" font-size="10.00">ratio</text>
</a>
</g>
</g>
<!-- Node25&#45;&gt;Node26 -->
<g id="edge40" class="edge">
<title>Node25&#45;&gt;Node26</title>
<path fill="none" stroke="midnightblue" d="M944.33,-224.08C944.59,-217.01 944.97,-206.86 945.3,-197.99"/>
<polygon fill="midnightblue" stroke="midnightblue" points="948.8,-197.87 945.68,-187.75 941.81,-197.61 948.8,-197.87"/>
</g>
<!-- Node27&#45;&gt;Node3 -->
<g id="edge48" class="edge">
<title>Node27&#45;&gt;Node3</title>
<path fill="none" stroke="midnightblue" d="M873.69,-288.48C918.34,-286.01 988.05,-276.65 1038,-244 1055.62,-232.49 1068.81,-211.91 1076.67,-196.99"/>
<polygon fill="midnightblue" stroke="midnightblue" points="1079.95,-198.26 1081.24,-187.74 1073.67,-195.16 1079.95,-198.26"/>
</g>
<!-- Node27&#45;&gt;Node5 -->
<g id="edge49" class="edge">
<title>Node27&#45;&gt;Node5</title>
<path fill="none" stroke="midnightblue" d="M873.6,-283.59C918.97,-276.95 985.54,-264.06 1001,-244 1006.43,-236.96 1002.98,-232.67 1001,-224 985.87,-157.78 956.49,-144.8 897,-112 872.52,-98.5 843.13,-86.93 820.46,-78.9"/>
<polygon fill="midnightblue" stroke="midnightblue" points="821.47,-75.54 810.88,-75.57 819.18,-82.16 821.47,-75.54"/>
</g>
<!-- Node27&#45;&gt;Node11 -->
<g id="edge46" class="edge">
<title>Node27&#45;&gt;Node11</title>
<path fill="none" stroke="midnightblue" d="M816.02,-280.32C802.45,-271.9 781.62,-258.97 765.68,-249.07"/>
<polygon fill="midnightblue" stroke="midnightblue" points="767.29,-245.95 756.94,-243.65 763.59,-251.9 767.29,-245.95"/>
</g>
<!-- Node27&#45;&gt;Node12 -->
<g id="edge47" class="edge">
<title>Node27&#45;&gt;Node12</title>
<path fill="none" stroke="midnightblue" d="M806.55,-280.44C781.72,-271.39 742.35,-257.02 714.53,-246.87"/>
<polygon fill="midnightblue" stroke="midnightblue" points="715.45,-243.48 704.86,-243.34 713.05,-250.05 715.45,-243.48"/>
</g>
<!-- Node27&#45;&gt;Node13 -->
<g id="edge51" class="edge">
<title>Node27&#45;&gt;Node13</title>
<path fill="none" stroke="midnightblue" d="M827.16,-280.48C822.92,-267.96 814.52,-243.91 806,-224 802.06,-214.79 797.21,-204.76 793.07,-196.51"/>
<polygon fill="midnightblue" stroke="midnightblue" points="796.14,-194.82 788.48,-187.51 789.91,-198.01 796.14,-194.82"/>
</g>
<!-- Node27&#45;&gt;Node17 -->
<g id="edge52" class="edge">
<title>Node27&#45;&gt;Node17</title>
<path fill="none" stroke="midnightblue" d="M786.34,-281.49C783.18,-280.98 780.04,-280.47 777,-280 693.72,-267.02 597.87,-253.63 533.57,-244.87"/>
<polygon fill="midnightblue" stroke="midnightblue" points="533.91,-241.38 523.53,-243.5 532.97,-248.32 533.91,-241.38"/>
</g>
<!-- Node27&#45;&gt;Node25 -->
<g id="edge50" class="edge">
<title>Node27&#45;&gt;Node25</title>
<path fill="none" stroke="midnightblue" d="M848.06,-280.44C866.57,-271.68 895.58,-257.94 916.86,-247.86"/>
<polygon fill="midnightblue" stroke="midnightblue" points="918.48,-250.96 926.02,-243.52 915.49,-244.63 918.48,-250.96"/>
</g>
<!-- Node28&#45;&gt;Node5 -->
<g id="edge56" class="edge">
<title>Node28&#45;&gt;Node5</title>
<path fill="none" stroke="midnightblue" d="M748.83,-280.43C774.25,-265.59 823.07,-232.39 840,-188 854.7,-149.48 821.83,-105.98 800.47,-83.08"/>
<polygon fill="midnightblue" stroke="midnightblue" points="802.71,-80.37 793.24,-75.63 797.69,-85.24 802.71,-80.37"/>
</g>
<!-- Node28&#45;&gt;Node11 -->
<g id="edge54" class="edge">
<title>Node28&#45;&gt;Node11</title>
<path fill="none" stroke="midnightblue" d="M734.65,-280.08C735.98,-272.93 737.88,-262.64 739.54,-253.69"/>
<polygon fill="midnightblue" stroke="midnightblue" points="743,-254.22 741.38,-243.75 736.12,-252.95 743,-254.22"/>
</g>
<!-- Node28&#45;&gt;Node12 -->
<g id="edge55" class="edge">
<title>Node28&#45;&gt;Node12</title>
<path fill="none" stroke="midnightblue" d="M724.58,-280.08C717.15,-272.22 706.15,-260.57 697.19,-251.08"/>
<polygon fill="midnightblue" stroke="midnightblue" points="699.68,-248.62 690.26,-243.75 694.59,-253.42 699.68,-248.62"/>
</g>
<!-- Node28&#45;&gt;Node13 -->
<g id="edge58" class="edge">
<title>Node28&#45;&gt;Node13</title>
<path fill="none" stroke="midnightblue" d="M743,-280.42C752.06,-272.06 765.01,-258.53 772,-244 778.99,-229.46 781.93,-211.28 783.15,-197.85"/>
<polygon fill="midnightblue" stroke="midnightblue" points="786.64,-198.08 783.82,-187.86 779.66,-197.6 786.64,-198.08"/>
</g>
<!-- Node28&#45;&gt;Node17 -->
<g id="edge59" class="edge">
<title>Node28&#45;&gt;Node17</title>
<path fill="none" stroke="midnightblue" d="M697.31,-281.94C650.47,-272.67 567.83,-256.33 513.49,-245.58"/>
<polygon fill="midnightblue" stroke="midnightblue" points="513.85,-242.08 503.36,-243.58 512.49,-248.95 513.85,-242.08"/>
</g>
<!-- Node28&#45;&gt;Node25 -->
<g id="edge57" class="edge">
<title>Node28&#45;&gt;Node25</title>
<path fill="none" stroke="midnightblue" d="M766.43,-280.44C802.86,-271.12 861.23,-256.18 901.03,-246"/>
<polygon fill="midnightblue" stroke="midnightblue" points="901.9,-249.39 910.72,-243.52 900.17,-242.61 901.9,-249.39"/>
</g>
</g>
</svg>
