<?xml version="1.0" encoding="UTF-8" standalone="no"?>
<!DOCTYPE svg PUBLIC "-//W3C//DTD SVG 1.1//EN"
 "http://www.w3.org/Graphics/SVG/1.1/DTD/svg11.dtd">
<!-- Generated by graphviz version 2.43.0 (0)
 -->
<!-- Title: ntp/include/pool/threadpool.hpp Pages: 1 -->
<svg width="1360pt" height="364pt"
 viewBox="0.00 0.00 1360.00 364.00" xmlns="http://www.w3.org/2000/svg" xmlns:xlink="http://www.w3.org/1999/xlink">
<g id="graph0" class="graph" transform="scale(1 1) rotate(0) translate(4 360)">
<title>ntp/include/pool/threadpool.hpp</title>
<!-- Node1 -->
<g id="node1" class="node">
<title>Node1</title>
<g id="a_node1"><a xlink:title="Threadpool implementations.">
<polygon fill="#bfbfbf" stroke="black" points="593.5,-336.5 593.5,-355.5 764.5,-355.5 764.5,-336.5 593.5,-336.5"/>
<text text-anchor="middle" x="679" y="-343.5" font-family="Helvetica,sans-Serif" font-size="10.00">ntp/include/pool/threadpool.hpp</text>
</a>
</g>
</g>
<!-- Node2 -->
<g id="node2" class="node">
<title>Node2</title>
<g id="a_node2"><a xlink:title=" ">
<polygon fill="none" stroke="#bfbfbf" points="201,-0.5 201,-19.5 271,-19.5 271,-0.5 201,-0.5"/>
<text text-anchor="middle" x="236" y="-7.5" font-family="Helvetica,sans-Serif" font-size="10.00">Windows.h</text>
</a>
</g>
</g>
<!-- Node1&#45;&gt;Node2 -->
<g id="edge1" class="edge">
<title>Node1&#45;&gt;Node2</title>
<path fill="none" stroke="midnightblue" d="M593.42,-344.64C443.7,-341.68 150,-324.47 150,-235 150,-235 150,-235 150,-121 150,-79.58 188.31,-44.45 213.79,-25.67"/>
<polygon fill="midnightblue" stroke="midnightblue" points="216.05,-28.36 222.18,-19.72 212,-22.64 216.05,-28.36"/>
</g>
<!-- Node3 -->
<g id="node3" class="node">
<title>Node3</title>
<g id="a_node3"><a xlink:title=" ">
<polygon fill="none" stroke="#bfbfbf" points="1274,-168.5 1274,-187.5 1324,-187.5 1324,-168.5 1274,-168.5"/>
<text text-anchor="middle" x="1299" y="-175.5" font-family="Helvetica,sans-Serif" font-size="10.00">chrono</text>
</a>
</g>
</g>
<!-- Node1&#45;&gt;Node3 -->
<g id="edge2" class="edge">
<title>Node1&#45;&gt;Node3</title>
<path fill="none" stroke="midnightblue" d="M760.28,-336.48C893.4,-321.49 1151.12,-287.78 1231,-244 1253.27,-231.8 1273.57,-210.44 1286.08,-195.55"/>
<polygon fill="midnightblue" stroke="midnightblue" points="1288.91,-197.62 1292.5,-187.65 1283.48,-193.2 1288.91,-197.62"/>
</g>
<!-- Node4 -->
<g id="node4" class="node">
<title>Node4</title>
<g id="a_node4"><a xlink:title=" ">
<polygon fill="none" stroke="#bfbfbf" points="1014.5,-168.5 1014.5,-187.5 1083.5,-187.5 1083.5,-168.5 1014.5,-168.5"/>
<text text-anchor="middle" x="1049" y="-175.5" font-family="Helvetica,sans-Serif" font-size="10.00">type_traits</text>
</a>
</g>
</g>
<!-- Node1&#45;&gt;Node4 -->
<g id="edge3" class="edge">
<title>Node1&#45;&gt;Node4</title>
<path fill="none" stroke="midnightblue" d="M757.75,-336.48C862.75,-323.31 1039.94,-294.15 1079,-244 1090.62,-229.08 1077.83,-208.94 1065.54,-195.05"/>
<polygon fill="midnightblue" stroke="midnightblue" points="1067.98,-192.53 1058.56,-187.68 1062.9,-197.34 1067.98,-192.53"/>
</g>
<!-- Node5 -->
<g id="node5" class="node">
<title>Node5</title>
<g id="a_node5"><a xlink:href="ntp__config_8hpp_source.html" target="_top" xlink:title=" ">
<polygon fill="none" stroke="black" points="866,-56.5 866,-75.5 954,-75.5 954,-56.5 866,-56.5"/>
<text text-anchor="middle" x="910" y="-63.5" font-family="Helvetica,sans-Serif" font-size="10.00">ntp_config.hpp</text>
</a>
</g>
</g>
<!-- Node1&#45;&gt;Node5 -->
<g id="edge4" class="edge">
<title>Node1&#45;&gt;Node5</title>
<path fill="none" stroke="midnightblue" d="M764.58,-339.81C945.84,-327.66 1352,-293.86 1352,-235 1352,-235 1352,-235 1352,-177 1352,-98.03 1082.97,-75.33 964.69,-69.16"/>
<polygon fill="midnightblue" stroke="midnightblue" points="964.57,-65.65 954.4,-68.65 964.22,-72.64 964.57,-65.65"/>
</g>
<!-- Node6 -->
<g id="node6" class="node">
<title>Node6</title>
<g id="a_node6"><a xlink:href="allocator_8hpp.html" target="_top" xlink:title="Allocator implementations.">
<polygon fill="none" stroke="black" points="216,-112.5 216,-131.5 332,-131.5 332,-112.5 216,-112.5"/>
<text text-anchor="middle" x="274" y="-119.5" font-family="Helvetica,sans-Serif" font-size="10.00">details/allocator.hpp</text>
</a>
</g>
</g>
<!-- Node1&#45;&gt;Node6 -->
<g id="edge5" class="edge">
<title>Node1&#45;&gt;Node6</title>
<path fill="none" stroke="midnightblue" d="M593.28,-339.95C536.02,-334.52 459.79,-323.28 396,-300 350.67,-283.46 331.5,-282.93 303,-244 280.42,-213.17 275.2,-167.17 274.13,-141.68"/>
<polygon fill="midnightblue" stroke="midnightblue" points="277.62,-141.46 273.88,-131.55 270.63,-141.63 277.62,-141.46"/>
</g>
<!-- Node10 -->
<g id="node10" class="node">
<title>Node10</title>
<g id="a_node10"><a xlink:href="work_8hpp.html" target="_top" xlink:title="Work callback wrapper and manager implementation.">
<polygon fill="none" stroke="black" points="405,-280.5 405,-299.5 491,-299.5 491,-280.5 405,-280.5"/>
<text text-anchor="middle" x="448" y="-287.5" font-family="Helvetica,sans-Serif" font-size="10.00">pool/work.hpp</text>
</a>
</g>
</g>
<!-- Node1&#45;&gt;Node10 -->
<g id="edge12" class="edge">
<title>Node1&#45;&gt;Node10</title>
<path fill="none" stroke="midnightblue" d="M642.4,-336.44C602.27,-327.06 537.8,-311.99 494.22,-301.8"/>
<polygon fill="midnightblue" stroke="midnightblue" points="494.97,-298.38 484.43,-299.52 493.37,-305.2 494.97,-298.38"/>
</g>
<!-- Node24 -->
<g id="node24" class="node">
<title>Node24</title>
<g id="a_node24"><a xlink:href="wait_8hpp.html" target="_top" xlink:title="Implementation of threadpool wait callback.">
<polygon fill="none" stroke="black" points="740.5,-280.5 740.5,-299.5 823.5,-299.5 823.5,-280.5 740.5,-280.5"/>
<text text-anchor="middle" x="782" y="-287.5" font-family="Helvetica,sans-Serif" font-size="10.00">pool/wait.hpp</text>
</a>
</g>
</g>
<!-- Node1&#45;&gt;Node24 -->
<g id="edge34" class="edge">
<title>Node1&#45;&gt;Node24</title>
<path fill="none" stroke="midnightblue" d="M695.55,-336.32C711.99,-327.7 737.43,-314.36 756.47,-304.39"/>
<polygon fill="midnightblue" stroke="midnightblue" points="758.26,-307.4 765.49,-299.65 755.01,-301.2 758.26,-307.4"/>
</g>
<!-- Node28 -->
<g id="node28" class="node">
<title>Node28</title>
<g id="a_node28"><a xlink:href="timer_8hpp.html" target="_top" xlink:title="Implementation of threadpool timer callback.">
<polygon fill="none" stroke="black" points="635.5,-280.5 635.5,-299.5 722.5,-299.5 722.5,-280.5 635.5,-280.5"/>
<text text-anchor="middle" x="679" y="-287.5" font-family="Helvetica,sans-Serif" font-size="10.00">pool/timer.hpp</text>
</a>
</g>
</g>
<!-- Node1&#45;&gt;Node28 -->
<g id="edge46" class="edge">
<title>Node1&#45;&gt;Node28</title>
<path fill="none" stroke="midnightblue" d="M679,-336.08C679,-329.01 679,-318.86 679,-309.99"/>
<polygon fill="midnightblue" stroke="midnightblue" points="682.5,-309.75 679,-299.75 675.5,-309.75 682.5,-309.75"/>
</g>
<!-- Node29 -->
<g id="node29" class="node">
<title>Node29</title>
<g id="a_node29"><a xlink:href="io_8hpp.html" target="_top" xlink:title="Implementation of threadpool IO callback.">
<polygon fill="none" stroke="black" points="546.5,-280.5 546.5,-299.5 617.5,-299.5 617.5,-280.5 546.5,-280.5"/>
<text text-anchor="middle" x="582" y="-287.5" font-family="Helvetica,sans-Serif" font-size="10.00">pool/io.hpp</text>
</a>
</g>
</g>
<!-- Node1&#45;&gt;Node29 -->
<g id="edge53" class="edge">
<title>Node1&#45;&gt;Node29</title>
<path fill="none" stroke="midnightblue" d="M663.42,-336.32C648,-327.74 624.19,-314.49 606.29,-304.52"/>
<polygon fill="midnightblue" stroke="midnightblue" points="607.99,-301.46 597.55,-299.65 604.58,-307.58 607.99,-301.46"/>
</g>
<!-- Node6&#45;&gt;Node2 -->
<g id="edge6" class="edge">
<title>Node6&#45;&gt;Node2</title>
<path fill="none" stroke="midnightblue" d="M271.02,-112.37C264.86,-94.54 250.61,-53.3 242.31,-29.27"/>
<polygon fill="midnightblue" stroke="midnightblue" points="245.54,-27.9 238.97,-19.59 238.93,-30.19 245.54,-27.9"/>
</g>
<!-- Node6&#45;&gt;Node5 -->
<g id="edge7" class="edge">
<title>Node6&#45;&gt;Node5</title>
<path fill="none" stroke="midnightblue" d="M332.08,-113C335.1,-112.65 338.08,-112.31 341,-112 529.62,-91.89 754.31,-76.69 855.66,-70.31"/>
<polygon fill="midnightblue" stroke="midnightblue" points="855.9,-73.8 865.66,-69.68 855.46,-66.81 855.9,-73.8"/>
</g>
<!-- Node7 -->
<g id="node7" class="node">
<title>Node7</title>
<g id="a_node7"><a xlink:href="exception_8hpp.html" target="_top" xlink:title="Win32 error wrapper implementations.">
<polygon fill="none" stroke="black" points="0,-56.5 0,-75.5 122,-75.5 122,-56.5 0,-56.5"/>
<text text-anchor="middle" x="61" y="-63.5" font-family="Helvetica,sans-Serif" font-size="10.00">details/exception.hpp</text>
</a>
</g>
</g>
<!-- Node6&#45;&gt;Node7 -->
<g id="edge8" class="edge">
<title>Node6&#45;&gt;Node7</title>
<path fill="none" stroke="midnightblue" d="M240.25,-112.44C203.48,-103.12 144.55,-88.18 104.38,-78"/>
<polygon fill="midnightblue" stroke="midnightblue" points="105.15,-74.58 94.59,-75.52 103.43,-81.37 105.15,-74.58"/>
</g>
<!-- Node7&#45;&gt;Node2 -->
<g id="edge9" class="edge">
<title>Node7&#45;&gt;Node2</title>
<path fill="none" stroke="midnightblue" d="M88.73,-56.44C118.43,-47.28 165.72,-32.69 198.67,-22.52"/>
<polygon fill="midnightblue" stroke="midnightblue" points="199.88,-25.81 208.4,-19.52 197.81,-19.12 199.88,-25.81"/>
</g>
<!-- Node8 -->
<g id="node8" class="node">
<title>Node8</title>
<g id="a_node8"><a xlink:title=" ">
<polygon fill="none" stroke="#bfbfbf" points="18.5,-0.5 18.5,-19.5 83.5,-19.5 83.5,-0.5 18.5,-0.5"/>
<text text-anchor="middle" x="51" y="-7.5" font-family="Helvetica,sans-Serif" font-size="10.00">stdexcept</text>
</a>
</g>
</g>
<!-- Node7&#45;&gt;Node8 -->
<g id="edge10" class="edge">
<title>Node7&#45;&gt;Node8</title>
<path fill="none" stroke="midnightblue" d="M59.35,-56.08C58.02,-48.93 56.12,-38.64 54.46,-29.69"/>
<polygon fill="midnightblue" stroke="midnightblue" points="57.88,-28.95 52.62,-19.75 51,-30.22 57.88,-28.95"/>
</g>
<!-- Node9 -->
<g id="node9" class="node">
<title>Node9</title>
<g id="a_node9"><a xlink:title=" ">
<polygon fill="none" stroke="#bfbfbf" points="102,-0.5 102,-19.5 146,-19.5 146,-0.5 102,-0.5"/>
<text text-anchor="middle" x="124" y="-7.5" font-family="Helvetica,sans-Serif" font-size="10.00">string</text>
</a>
</g>
</g>
<!-- Node7&#45;&gt;Node9 -->
<g id="edge11" class="edge">
<title>Node7&#45;&gt;Node9</title>
<path fill="none" stroke="midnightblue" d="M71.12,-56.32C80.53,-48.26 94.74,-36.08 106.07,-26.37"/>
<polygon fill="midnightblue" stroke="midnightblue" points="108.38,-29 113.69,-19.83 103.82,-23.68 108.38,-29"/>
</g>
<!-- Node10&#45;&gt;Node2 -->
<g id="edge13" class="edge">
<title>Node10&#45;&gt;Node2</title>
<path fill="none" stroke="midnightblue" d="M404.77,-289.4C330.84,-287.57 188,-272 188,-179 188,-179 188,-179 188,-121 188,-85.58 209.16,-48.71 223.38,-27.92"/>
<polygon fill="midnightblue" stroke="midnightblue" points="226.38,-29.74 229.33,-19.56 220.68,-25.68 226.38,-29.74"/>
</g>
<!-- Node10&#45;&gt;Node5 -->
<g id="edge17" class="edge">
<title>Node10&#45;&gt;Node5</title>
<path fill="none" stroke="midnightblue" d="M440.83,-280.4C430.23,-267.77 409.6,-243.59 391,-224 375.2,-207.36 362.93,-209.14 354,-188 350.54,-179.81 349.09,-175.41 354,-168 376.66,-133.8 402.24,-150.21 439,-132 455.05,-124.05 456.94,-117.48 474,-112 543.71,-89.59 754.99,-75.45 855.61,-69.8"/>
<polygon fill="midnightblue" stroke="midnightblue" points="856.07,-73.28 865.86,-69.23 855.68,-66.29 856.07,-73.28"/>
</g>
<!-- Node11 -->
<g id="node11" class="node">
<title>Node11</title>
<g id="a_node11"><a xlink:title=" ">
<polygon fill="none" stroke="#bfbfbf" points="320.5,-224.5 320.5,-243.5 381.5,-243.5 381.5,-224.5 320.5,-224.5"/>
<text text-anchor="middle" x="351" y="-231.5" font-family="Helvetica,sans-Serif" font-size="10.00">atlsync.h</text>
</a>
</g>
</g>
<!-- Node10&#45;&gt;Node11 -->
<g id="edge14" class="edge">
<title>Node10&#45;&gt;Node11</title>
<path fill="none" stroke="midnightblue" d="M432.42,-280.32C417,-271.74 393.19,-258.49 375.29,-248.52"/>
<polygon fill="midnightblue" stroke="midnightblue" points="376.99,-245.46 366.55,-243.65 373.58,-251.58 376.99,-245.46"/>
</g>
<!-- Node12 -->
<g id="node12" class="node">
<title>Node12</title>
<g id="a_node12"><a xlink:title=" ">
<polygon fill="none" stroke="#bfbfbf" points="579.5,-224.5 579.5,-243.5 620.5,-243.5 620.5,-224.5 579.5,-224.5"/>
<text text-anchor="middle" x="600" y="-231.5" font-family="Helvetica,sans-Serif" font-size="10.00">tuple</text>
</a>
</g>
</g>
<!-- Node10&#45;&gt;Node12 -->
<g id="edge15" class="edge">
<title>Node10&#45;&gt;Node12</title>
<path fill="none" stroke="midnightblue" d="M472.08,-280.44C498.59,-271.03 541.24,-255.87 569.93,-245.68"/>
<polygon fill="midnightblue" stroke="midnightblue" points="571.19,-248.95 579.44,-242.3 568.85,-242.35 571.19,-248.95"/>
</g>
<!-- Node13 -->
<g id="node13" class="node">
<title>Node13</title>
<g id="a_node13"><a xlink:title=" ">
<polygon fill="none" stroke="#bfbfbf" points="516.5,-224.5 516.5,-243.5 561.5,-243.5 561.5,-224.5 516.5,-224.5"/>
<text text-anchor="middle" x="539" y="-231.5" font-family="Helvetica,sans-Serif" font-size="10.00">utility</text>
</a>
</g>
</g>
<!-- Node10&#45;&gt;Node13 -->
<g id="edge16" class="edge">
<title>Node10&#45;&gt;Node13</title>
<path fill="none" stroke="midnightblue" d="M462.62,-280.32C476.95,-271.82 499.01,-258.73 515.75,-248.8"/>
<polygon fill="midnightblue" stroke="midnightblue" points="517.6,-251.77 524.42,-243.65 514.03,-245.75 517.6,-251.77"/>
</g>
<!-- Node14 -->
<g id="node14" class="node">
<title>Node14</title>
<g id="a_node14"><a xlink:href="utils_8hpp.html" target="_top" xlink:title="Some useful implementation stuff.">
<polygon fill="none" stroke="black" points="362.5,-168.5 362.5,-187.5 457.5,-187.5 457.5,-168.5 362.5,-168.5"/>
<text text-anchor="middle" x="410" y="-175.5" font-family="Helvetica,sans-Serif" font-size="10.00">details/utils.hpp</text>
</a>
</g>
</g>
<!-- Node10&#45;&gt;Node14 -->
<g id="edge18" class="edge">
<title>Node10&#45;&gt;Node14</title>
<path fill="none" stroke="midnightblue" d="M404.73,-287.37C373.38,-283.64 332.97,-273.03 312,-244 294.1,-219.22 330.66,-201.19 364.1,-190.5"/>
<polygon fill="midnightblue" stroke="midnightblue" points="365.3,-193.79 373.85,-187.54 363.27,-187.09 365.3,-193.79"/>
</g>
<!-- Node18 -->
<g id="node18" class="node">
<title>Node18</title>
<g id="a_node18"><a xlink:href="basic__callback_8hpp.html" target="_top" xlink:title="Interfaces and base classes for callback wrappers.">
<polygon fill="none" stroke="black" points="715.5,-224.5 715.5,-243.5 848.5,-243.5 848.5,-224.5 715.5,-224.5"/>
<text text-anchor="middle" x="782" y="-231.5" font-family="Helvetica,sans-Serif" font-size="10.00">pool/basic_callback.hpp</text>
</a>
</g>
</g>
<!-- Node10&#45;&gt;Node18 -->
<g id="edge24" class="edge">
<title>Node10&#45;&gt;Node18</title>
<path fill="none" stroke="midnightblue" d="M491.32,-282C549.41,-272.6 652.92,-255.87 719.46,-245.11"/>
<polygon fill="midnightblue" stroke="midnightblue" points="720.09,-248.55 729.41,-243.5 718.98,-241.64 720.09,-248.55"/>
</g>
<!-- Node14&#45;&gt;Node5 -->
<g id="edge19" class="edge">
<title>Node14&#45;&gt;Node5</title>
<path fill="none" stroke="midnightblue" d="M420.79,-168.49C439.68,-154.11 480.47,-125.29 520,-112 634.92,-73.37 778.44,-66.7 855.32,-66.22"/>
<polygon fill="midnightblue" stroke="midnightblue" points="855.73,-69.72 865.72,-66.19 855.71,-62.72 855.73,-69.72"/>
</g>
<!-- Node14&#45;&gt;Node6 -->
<g id="edge23" class="edge">
<title>Node14&#45;&gt;Node6</title>
<path fill="none" stroke="midnightblue" d="M388.45,-168.44C365.97,-159.52 330.51,-145.44 305.02,-135.32"/>
<polygon fill="midnightblue" stroke="midnightblue" points="306.03,-131.95 295.45,-131.52 303.45,-138.46 306.03,-131.95"/>
</g>
<!-- Node15 -->
<g id="node15" class="node">
<title>Node15</title>
<g id="a_node15"><a xlink:href="ntrtl_8h.html" target="_top" xlink:title="Contains necessary declarations/definitions of internal windows objects and functions.">
<polygon fill="none" stroke="black" points="350,-112.5 350,-131.5 430,-131.5 430,-112.5 350,-112.5"/>
<text text-anchor="middle" x="390" y="-119.5" font-family="Helvetica,sans-Serif" font-size="10.00">native/ntrtl.h</text>
</a>
</g>
</g>
<!-- Node14&#45;&gt;Node15 -->
<g id="edge20" class="edge">
<title>Node14&#45;&gt;Node15</title>
<path fill="none" stroke="midnightblue" d="M406.7,-168.08C404.02,-160.85 400.15,-150.41 396.81,-141.4"/>
<polygon fill="midnightblue" stroke="midnightblue" points="400,-139.91 393.24,-131.75 393.43,-142.34 400,-139.91"/>
</g>
<!-- Node16 -->
<g id="node16" class="node">
<title>Node16</title>
<g id="a_node16"><a xlink:title=" ">
<polygon fill="none" stroke="#bfbfbf" points="404,-56.5 404,-75.5 472,-75.5 472,-56.5 404,-56.5"/>
<text text-anchor="middle" x="438" y="-63.5" font-family="Helvetica,sans-Serif" font-size="10.00">windows.h</text>
</a>
</g>
</g>
<!-- Node15&#45;&gt;Node16 -->
<g id="edge21" class="edge">
<title>Node15&#45;&gt;Node16</title>
<path fill="none" stroke="midnightblue" d="M397.93,-112.08C404.85,-104.3 415.07,-92.8 423.45,-83.37"/>
<polygon fill="midnightblue" stroke="midnightblue" points="426.19,-85.55 430.22,-75.75 420.96,-80.9 426.19,-85.55"/>
</g>
<!-- Node17 -->
<g id="node17" class="node">
<title>Node17</title>
<g id="a_node17"><a xlink:title=" ">
<polygon fill="none" stroke="#bfbfbf" points="320.5,-56.5 320.5,-75.5 385.5,-75.5 385.5,-56.5 320.5,-56.5"/>
<text text-anchor="middle" x="353" y="-63.5" font-family="Helvetica,sans-Serif" font-size="10.00">winternl.h</text>
</a>
</g>
</g>
<!-- Node15&#45;&gt;Node17 -->
<g id="edge22" class="edge">
<title>Node15&#45;&gt;Node17</title>
<path fill="none" stroke="midnightblue" d="M383.89,-112.08C378.72,-104.53 371.15,-93.49 364.81,-84.23"/>
<polygon fill="midnightblue" stroke="midnightblue" points="367.54,-82.02 359,-75.75 361.76,-85.98 367.54,-82.02"/>
</g>
<!-- Node18&#45;&gt;Node2 -->
<g id="edge25" class="edge">
<title>Node18&#45;&gt;Node2</title>
<path fill="none" stroke="midnightblue" d="M833.9,-224.49C859.32,-218.08 888.91,-207 910,-188 956.96,-145.68 1006.3,-102.06 963,-56 939.58,-31.09 436.83,-16.15 281.38,-12.11"/>
<polygon fill="midnightblue" stroke="midnightblue" points="281.31,-8.61 271.23,-11.85 281.13,-15.61 281.31,-8.61"/>
</g>
<!-- Node18&#45;&gt;Node4 -->
<g id="edge30" class="edge">
<title>Node18&#45;&gt;Node4</title>
<path fill="none" stroke="midnightblue" d="M824.31,-224.44C873.42,-214.51 954.07,-198.2 1004.21,-188.06"/>
<polygon fill="midnightblue" stroke="midnightblue" points="1005.02,-191.47 1014.12,-186.05 1003.63,-184.61 1005.02,-191.47"/>
</g>
<!-- Node18&#45;&gt;Node5 -->
<g id="edge32" class="edge">
<title>Node18&#45;&gt;Node5</title>
<path fill="none" stroke="midnightblue" d="M829.56,-224.49C851.51,-218.11 875.98,-207.05 891,-188 914.39,-158.32 914.46,-111.54 912.32,-85.7"/>
<polygon fill="midnightblue" stroke="midnightblue" points="915.8,-85.32 911.29,-75.73 908.84,-86.04 915.8,-85.32"/>
</g>
<!-- Node18&#45;&gt;Node14 -->
<g id="edge33" class="edge">
<title>Node18&#45;&gt;Node14</title>
<path fill="none" stroke="midnightblue" d="M723.06,-224.44C653.2,-214.3 537.53,-197.51 468.06,-187.43"/>
<polygon fill="midnightblue" stroke="midnightblue" points="468.14,-183.9 457.74,-185.93 467.13,-190.83 468.14,-183.9"/>
</g>
<!-- Node19 -->
<g id="node19" class="node">
<title>Node19</title>
<g id="a_node19"><a xlink:title=" ">
<polygon fill="none" stroke="#bfbfbf" points="844,-168.5 844,-187.5 882,-187.5 882,-168.5 844,-168.5"/>
<text text-anchor="middle" x="863" y="-175.5" font-family="Helvetica,sans-Serif" font-size="10.00">map</text>
</a>
</g>
</g>
<!-- Node18&#45;&gt;Node19 -->
<g id="edge26" class="edge">
<title>Node18&#45;&gt;Node19</title>
<path fill="none" stroke="midnightblue" d="M795.01,-224.32C807.53,-215.98 826.68,-203.21 841.47,-193.35"/>
<polygon fill="midnightblue" stroke="midnightblue" points="843.64,-196.11 850.02,-187.65 839.76,-190.29 843.64,-196.11"/>
</g>
<!-- Node20 -->
<g id="node20" class="node">
<title>Node20</title>
<g id="a_node20"><a xlink:title=" ">
<polygon fill="none" stroke="#bfbfbf" points="514,-168.5 514,-187.5 562,-187.5 562,-168.5 514,-168.5"/>
<text text-anchor="middle" x="538" y="-175.5" font-family="Helvetica,sans-Serif" font-size="10.00">mutex</text>
</a>
</g>
</g>
<!-- Node18&#45;&gt;Node20 -->
<g id="edge27" class="edge">
<title>Node18&#45;&gt;Node20</title>
<path fill="none" stroke="midnightblue" d="M738.6,-224.49C697.92,-216.34 635.19,-203.35 571.86,-188.11"/>
<polygon fill="midnightblue" stroke="midnightblue" points="572.65,-184.7 562.11,-185.74 571,-191.5 572.65,-184.7"/>
</g>
<!-- Node21 -->
<g id="node21" class="node">
<title>Node21</title>
<g id="a_node21"><a xlink:title=" ">
<polygon fill="none" stroke="#bfbfbf" points="580,-168.5 580,-187.5 638,-187.5 638,-168.5 580,-168.5"/>
<text text-anchor="middle" x="609" y="-175.5" font-family="Helvetica,sans-Serif" font-size="10.00">memory</text>
</a>
</g>
</g>
<!-- Node18&#45;&gt;Node21 -->
<g id="edge28" class="edge">
<title>Node18&#45;&gt;Node21</title>
<path fill="none" stroke="midnightblue" d="M754.59,-224.44C725.23,-215.28 678.48,-200.69 645.9,-190.52"/>
<polygon fill="midnightblue" stroke="midnightblue" points="646.87,-187.16 636.28,-187.52 644.79,-193.84 646.87,-187.16"/>
</g>
<!-- Node22 -->
<g id="node22" class="node">
<title>Node22</title>
<g id="a_node22"><a xlink:title=" ">
<polygon fill="none" stroke="#bfbfbf" points="656.5,-168.5 656.5,-187.5 721.5,-187.5 721.5,-168.5 656.5,-168.5"/>
<text text-anchor="middle" x="689" y="-175.5" font-family="Helvetica,sans-Serif" font-size="10.00">functional</text>
</a>
</g>
</g>
<!-- Node18&#45;&gt;Node22 -->
<g id="edge29" class="edge">
<title>Node18&#45;&gt;Node22</title>
<path fill="none" stroke="midnightblue" d="M767.06,-224.32C752.41,-215.82 729.87,-202.73 712.76,-192.8"/>
<polygon fill="midnightblue" stroke="midnightblue" points="714.31,-189.65 703.9,-187.65 710.8,-195.7 714.31,-189.65"/>
</g>
<!-- Node23 -->
<g id="node23" class="node">
<title>Node23</title>
<g id="a_node23"><a xlink:title=" ">
<polygon fill="none" stroke="#bfbfbf" points="740,-168.5 740,-187.5 826,-187.5 826,-168.5 740,-168.5"/>
<text text-anchor="middle" x="783" y="-175.5" font-family="Helvetica,sans-Serif" font-size="10.00">shared_mutex</text>
</a>
</g>
</g>
<!-- Node18&#45;&gt;Node23 -->
<g id="edge31" class="edge">
<title>Node18&#45;&gt;Node23</title>
<path fill="none" stroke="midnightblue" d="M782.17,-224.08C782.3,-217.01 782.48,-206.86 782.65,-197.99"/>
<polygon fill="midnightblue" stroke="midnightblue" points="786.15,-197.81 782.84,-187.75 779.15,-197.68 786.15,-197.81"/>
</g>
<!-- Node24&#45;&gt;Node5 -->
<g id="edge38" class="edge">
<title>Node24&#45;&gt;Node5</title>
<path fill="none" stroke="midnightblue" d="M823.77,-280.92C860.68,-273.22 915.69,-260.39 962,-244 981.87,-236.97 985.69,-232.44 1005,-224 1043.72,-207.08 1069.45,-223.08 1093,-188 1130.91,-131.53 1026.88,-94.96 960.49,-78.01"/>
<polygon fill="midnightblue" stroke="midnightblue" points="961.13,-74.57 950.58,-75.56 959.45,-81.36 961.13,-74.57"/>
</g>
<!-- Node24&#45;&gt;Node12 -->
<g id="edge35" class="edge">
<title>Node24&#45;&gt;Node12</title>
<path fill="none" stroke="midnightblue" d="M753.16,-280.44C719.64,-270.5 664.57,-254.16 630.4,-244.02"/>
<polygon fill="midnightblue" stroke="midnightblue" points="631.1,-240.58 620.51,-241.09 629.1,-247.29 631.1,-240.58"/>
</g>
<!-- Node24&#45;&gt;Node13 -->
<g id="edge36" class="edge">
<title>Node24&#45;&gt;Node13</title>
<path fill="none" stroke="midnightblue" d="M740.18,-280.9C699.57,-272.86 635.95,-259.77 571.59,-244.02"/>
<polygon fill="midnightblue" stroke="midnightblue" points="572.23,-240.57 561.68,-241.57 570.55,-247.37 572.23,-240.57"/>
</g>
<!-- Node24&#45;&gt;Node14 -->
<g id="edge44" class="edge">
<title>Node24&#45;&gt;Node14</title>
<path fill="none" stroke="midnightblue" d="M768.37,-280.41C745.59,-266.44 697.91,-238.85 654,-224 592.16,-203.08 518.02,-191.16 467.82,-184.91"/>
<polygon fill="midnightblue" stroke="midnightblue" points="468.14,-181.43 457.8,-183.7 467.3,-188.38 468.14,-181.43"/>
</g>
<!-- Node24&#45;&gt;Node18 -->
<g id="edge45" class="edge">
<title>Node24&#45;&gt;Node18</title>
<path fill="none" stroke="midnightblue" d="M782,-280.08C782,-273.01 782,-262.86 782,-253.99"/>
<polygon fill="midnightblue" stroke="midnightblue" points="785.5,-253.75 782,-243.75 778.5,-253.75 785.5,-253.75"/>
</g>
<!-- Node25 -->
<g id="node25" class="node">
<title>Node25</title>
<g id="a_node25"><a xlink:title=" ">
<polygon fill="none" stroke="#bfbfbf" points="1014,-224.5 1014,-243.5 1070,-243.5 1070,-224.5 1014,-224.5"/>
<text text-anchor="middle" x="1042" y="-231.5" font-family="Helvetica,sans-Serif" font-size="10.00">optional</text>
</a>
</g>
</g>
<!-- Node24&#45;&gt;Node25 -->
<g id="edge37" class="edge">
<title>Node24&#45;&gt;Node25</title>
<path fill="none" stroke="midnightblue" d="M823.81,-280.47C867.71,-271.48 938.74,-256.89 1000,-244 1001.27,-243.73 1002.57,-243.46 1003.87,-243.18"/>
<polygon fill="midnightblue" stroke="midnightblue" points="1004.94,-246.53 1013.99,-241.03 1003.48,-239.69 1004.94,-246.53"/>
</g>
<!-- Node26 -->
<g id="node26" class="node">
<title>Node26</title>
<g id="a_node26"><a xlink:href="time_8hpp.html" target="_top" xlink:title="Utils to work with std::chrono.">
<polygon fill="none" stroke="black" points="1126,-224.5 1126,-243.5 1222,-243.5 1222,-224.5 1126,-224.5"/>
<text text-anchor="middle" x="1174" y="-231.5" font-family="Helvetica,sans-Serif" font-size="10.00">details/time.hpp</text>
</a>
</g>
</g>
<!-- Node24&#45;&gt;Node26 -->
<g id="edge39" class="edge">
<title>Node24&#45;&gt;Node26</title>
<path fill="none" stroke="midnightblue" d="M823.58,-283.27C893.78,-273.6 1035.95,-254.02 1115.94,-243"/>
<polygon fill="midnightblue" stroke="midnightblue" points="1116.43,-246.46 1125.86,-241.63 1115.47,-239.53 1116.43,-246.46"/>
</g>
<!-- Node26&#45;&gt;Node2 -->
<g id="edge40" class="edge">
<title>Node26&#45;&gt;Node2</title>
<path fill="none" stroke="midnightblue" d="M1190.07,-224.39C1209.64,-212.7 1238.7,-190.64 1227,-168 1172.21,-62 1100.09,-78.97 983,-56 847.56,-29.43 422.4,-15.97 281.71,-12.16"/>
<polygon fill="midnightblue" stroke="midnightblue" points="281.4,-8.65 271.31,-11.88 281.21,-15.64 281.4,-8.65"/>
</g>
<!-- Node26&#45;&gt;Node3 -->
<g id="edge42" class="edge">
<title>Node26&#45;&gt;Node3</title>
<path fill="none" stroke="midnightblue" d="M1193.81,-224.44C1214.29,-215.6 1246.48,-201.69 1269.86,-191.59"/>
<polygon fill="midnightblue" stroke="midnightblue" points="1271.49,-194.7 1279.29,-187.52 1268.72,-188.27 1271.49,-194.7"/>
</g>
<!-- Node26&#45;&gt;Node5 -->
<g id="edge43" class="edge">
<title>Node26&#45;&gt;Node5</title>
<path fill="none" stroke="midnightblue" d="M1173.3,-224.38C1171,-202.06 1161.63,-141.97 1126,-112 1101.99,-91.81 1020.27,-79.03 964.52,-72.45"/>
<polygon fill="midnightblue" stroke="midnightblue" points="964.77,-68.95 954.44,-71.29 963.97,-75.91 964.77,-68.95"/>
</g>
<!-- Node27 -->
<g id="node27" class="node">
<title>Node27</title>
<g id="a_node27"><a xlink:title=" ">
<polygon fill="none" stroke="#bfbfbf" points="1178.5,-168.5 1178.5,-187.5 1217.5,-187.5 1217.5,-168.5 1178.5,-168.5"/>
<text text-anchor="middle" x="1198" y="-175.5" font-family="Helvetica,sans-Serif" font-size="10.00">ratio</text>
</a>
</g>
</g>
<!-- Node26&#45;&gt;Node27 -->
<g id="edge41" class="edge">
<title>Node26&#45;&gt;Node27</title>
<path fill="none" stroke="midnightblue" d="M1177.96,-224.08C1181.21,-216.77 1185.92,-206.18 1189.95,-197.1"/>
<polygon fill="midnightblue" stroke="midnightblue" points="1193.25,-198.31 1194.11,-187.75 1186.85,-195.47 1193.25,-198.31"/>
</g>
<!-- Node28&#45;&gt;Node5 -->
<g id="edge49" class="edge">
<title>Node28&#45;&gt;Node5</title>
<path fill="none" stroke="midnightblue" d="M722.56,-281.01C767.88,-272.18 835.32,-257.42 858,-244 908.12,-214.34 917.92,-189.67 926,-132 927.23,-123.2 927.51,-120.76 926,-112 924.43,-102.91 921.21,-93.22 918.06,-85.17"/>
<polygon fill="midnightblue" stroke="midnightblue" points="921.19,-83.6 914.11,-75.72 914.74,-86.3 921.19,-83.6"/>
</g>
<!-- Node28&#45;&gt;Node12 -->
<g id="edge47" class="edge">
<title>Node28&#45;&gt;Node12</title>
<path fill="none" stroke="midnightblue" d="M666.31,-280.32C654.1,-271.98 635.42,-259.21 621,-249.35"/>
<polygon fill="midnightblue" stroke="midnightblue" points="622.89,-246.41 612.66,-243.65 618.94,-252.19 622.89,-246.41"/>
</g>
<!-- Node28&#45;&gt;Node13 -->
<g id="edge48" class="edge">
<title>Node28&#45;&gt;Node13</title>
<path fill="none" stroke="midnightblue" d="M656.82,-280.44C633.57,-271.48 596.85,-257.31 570.58,-247.18"/>
<polygon fill="midnightblue" stroke="midnightblue" points="571.67,-243.85 561.08,-243.52 569.15,-250.38 571.67,-243.85"/>
</g>
<!-- Node28&#45;&gt;Node14 -->
<g id="edge51" class="edge">
<title>Node28&#45;&gt;Node14</title>
<path fill="none" stroke="midnightblue" d="M675,-280.23C668.02,-265.99 652.22,-238.04 630,-224 603.55,-207.29 523.78,-193.85 467.95,-186.14"/>
<polygon fill="midnightblue" stroke="midnightblue" points="468.2,-182.64 457.82,-184.77 467.26,-189.58 468.2,-182.64"/>
</g>
<!-- Node28&#45;&gt;Node18 -->
<g id="edge52" class="edge">
<title>Node28&#45;&gt;Node18</title>
<path fill="none" stroke="midnightblue" d="M695.55,-280.32C711.99,-271.7 737.43,-258.36 756.47,-248.39"/>
<polygon fill="midnightblue" stroke="midnightblue" points="758.26,-251.4 765.49,-243.65 755.01,-245.2 758.26,-251.4"/>
</g>
<!-- Node28&#45;&gt;Node26 -->
<g id="edge50" class="edge">
<title>Node28&#45;&gt;Node26</title>
<path fill="none" stroke="midnightblue" d="M722.64,-281.35C725.8,-280.87 728.95,-280.41 732,-280 769.11,-274.97 1004.24,-251.68 1115.63,-240.72"/>
<polygon fill="midnightblue" stroke="midnightblue" points="1116.08,-244.2 1125.69,-239.73 1115.39,-237.23 1116.08,-244.2"/>
</g>
<!-- Node29&#45;&gt;Node5 -->
<g id="edge56" class="edge">
<title>Node29&#45;&gt;Node5</title>
<path fill="none" stroke="midnightblue" d="M556.12,-280.48C539.32,-273.49 518.65,-261.81 508,-244 490.65,-214.99 484.19,-194.64 505,-168 547.93,-113.05 755.17,-83.64 855.44,-72.43"/>
<polygon fill="midnightblue" stroke="midnightblue" points="856.11,-75.87 865.67,-71.3 855.35,-68.91 856.11,-75.87"/>
</g>
<!-- Node29&#45;&gt;Node12 -->
<g id="edge54" class="edge">
<title>Node29&#45;&gt;Node12</title>
<path fill="none" stroke="midnightblue" d="M584.97,-280.08C587.38,-272.85 590.86,-262.41 593.87,-253.4"/>
<polygon fill="midnightblue" stroke="midnightblue" points="597.24,-254.34 597.08,-243.75 590.6,-252.13 597.24,-254.34"/>
</g>
<!-- Node29&#45;&gt;Node13 -->
<g id="edge55" class="edge">
<title>Node29&#45;&gt;Node13</title>
<path fill="none" stroke="midnightblue" d="M574.9,-280.08C568.76,-272.38 559.73,-261.03 552.26,-251.65"/>
<polygon fill="midnightblue" stroke="midnightblue" points="554.94,-249.39 545.97,-243.75 549.46,-253.75 554.94,-249.39"/>
</g>
<!-- Node29&#45;&gt;Node14 -->
<g id="edge58" class="edge">
<title>Node29&#45;&gt;Node14</title>
<path fill="none" stroke="midnightblue" d="M551.83,-280.47C528.72,-273.06 496.72,-260.86 472,-244 452.37,-230.61 434.14,-210.13 422.6,-195.75"/>
<polygon fill="midnightblue" stroke="midnightblue" points="425.24,-193.43 416.33,-187.7 419.71,-197.73 425.24,-193.43"/>
</g>
<!-- Node29&#45;&gt;Node18 -->
<g id="edge59" class="edge">
<title>Node29&#45;&gt;Node18</title>
<path fill="none" stroke="midnightblue" d="M613.69,-280.44C648.07,-271.16 703.08,-256.31 740.79,-246.13"/>
<polygon fill="midnightblue" stroke="midnightblue" points="741.72,-249.5 750.46,-243.52 739.89,-242.74 741.72,-249.5"/>
</g>
<!-- Node29&#45;&gt;Node26 -->
<g id="edge57" class="edge">
<title>Node29&#45;&gt;Node26</title>
<path fill="none" stroke="midnightblue" d="M617.8,-281.44C620.9,-280.91 624,-280.42 627,-280 826.6,-252.19 878.24,-261.5 1079,-244 1090.86,-242.97 1103.55,-241.8 1115.67,-240.66"/>
<polygon fill="midnightblue" stroke="midnightblue" points="1116.06,-244.14 1125.68,-239.72 1115.4,-237.18 1116.06,-244.14"/>
</g>
</g>
</svg>
