<?xml version="1.0" encoding="UTF-8" standalone="no"?>
<!DOCTYPE svg PUBLIC "-//W3C//DTD SVG 1.1//EN"
 "http://www.w3.org/Graphics/SVG/1.1/DTD/svg11.dtd">
<!-- Generated by graphviz version 2.43.0 (0)
 -->
<!-- Title: ntp/include/pool/threadpool.hpp Pages: 1 -->
<svg width="1335pt" height="364pt"
 viewBox="0.00 0.00 1335.01 364.00" xmlns="http://www.w3.org/2000/svg" xmlns:xlink="http://www.w3.org/1999/xlink">
<g id="graph0" class="graph" transform="scale(1 1) rotate(0) translate(4 360)">
<title>ntp/include/pool/threadpool.hpp</title>
<polygon fill="white" stroke="transparent" points="-4,4 -4,-360 1331.01,-360 1331.01,4 -4,4"/>
<!-- Node1 -->
<g id="node1" class="node">
<title>Node1</title>
<g id="a_node1"><a xlink:title="Threadpool implementations.">
<polygon fill="#bfbfbf" stroke="black" points="613.5,-336.5 613.5,-355.5 784.5,-355.5 784.5,-336.5 613.5,-336.5"/>
<text text-anchor="middle" x="699" y="-343.5" font-family="Helvetica,sans-Serif" font-size="10.00">ntp/include/pool/threadpool.hpp</text>
</a>
</g>
</g>
<!-- Node2 -->
<g id="node2" class="node">
<title>Node2</title>
<g id="a_node2"><a xlink:title=" ">
<polygon fill="white" stroke="#bfbfbf" points="186,-0.5 186,-19.5 256,-19.5 256,-0.5 186,-0.5"/>
<text text-anchor="middle" x="221" y="-7.5" font-family="Helvetica,sans-Serif" font-size="10.00">Windows.h</text>
</a>
</g>
</g>
<!-- Node1&#45;&gt;Node2 -->
<g id="edge1" class="edge">
<title>Node1&#45;&gt;Node2</title>
<path fill="none" stroke="midnightblue" d="M613.22,-345.31C458.81,-343.53 150,-328.32 150,-235 150,-235 150,-235 150,-121 150,-82.1 181.73,-46.05 202.77,-26.43"/>
<polygon fill="midnightblue" stroke="midnightblue" points="205.11,-29.02 210.22,-19.74 200.44,-23.81 205.11,-29.02"/>
</g>
<!-- Node3 -->
<g id="node3" class="node">
<title>Node3</title>
<g id="a_node3"><a xlink:title=" ">
<polygon fill="white" stroke="#bfbfbf" points="1254,-168.5 1254,-187.5 1304,-187.5 1304,-168.5 1254,-168.5"/>
<text text-anchor="middle" x="1279" y="-175.5" font-family="Helvetica,sans-Serif" font-size="10.00">chrono</text>
</a>
</g>
</g>
<!-- Node1&#45;&gt;Node3 -->
<g id="edge2" class="edge">
<title>Node1&#45;&gt;Node3</title>
<path fill="none" stroke="midnightblue" d="M784.58,-338.23C918.61,-326.15 1170.08,-297 1241,-244 1256.67,-232.29 1267.01,-212.05 1272.89,-197.26"/>
<polygon fill="midnightblue" stroke="midnightblue" points="1276.26,-198.25 1276.4,-187.66 1269.68,-195.85 1276.26,-198.25"/>
</g>
<!-- Node4 -->
<g id="node4" class="node">
<title>Node4</title>
<g id="a_node4"><a xlink:title=" ">
<polygon fill="white" stroke="#bfbfbf" points="918.5,-168.5 918.5,-187.5 987.5,-187.5 987.5,-168.5 918.5,-168.5"/>
<text text-anchor="middle" x="953" y="-175.5" font-family="Helvetica,sans-Serif" font-size="10.00">type_traits</text>
</a>
</g>
</g>
<!-- Node1&#45;&gt;Node4 -->
<g id="edge3" class="edge">
<title>Node1&#45;&gt;Node4</title>
<path fill="none" stroke="midnightblue" d="M773.65,-336.46C875.77,-323.08 1050.74,-293.43 1089,-244 1116.22,-208.84 1047.39,-191.72 998.03,-184.18"/>
<polygon fill="midnightblue" stroke="midnightblue" points="998.23,-180.67 987.83,-182.71 997.23,-187.6 998.23,-180.67"/>
</g>
<!-- Node5 -->
<g id="node5" class="node">
<title>Node5</title>
<g id="a_node5"><a xlink:href="ntp__config_8hpp_source.html" target="_top" xlink:title=" ">
<polygon fill="white" stroke="black" points="846,-56.5 846,-75.5 934,-75.5 934,-56.5 846,-56.5"/>
<text text-anchor="middle" x="890" y="-63.5" font-family="Helvetica,sans-Serif" font-size="10.00">ntp_config.hpp</text>
</a>
</g>
</g>
<!-- Node1&#45;&gt;Node5 -->
<g id="edge4" class="edge">
<title>Node1&#45;&gt;Node5</title>
<path fill="none" stroke="midnightblue" d="M784.56,-343.64C872.88,-340.5 1014.03,-330.6 1132,-300 1223.57,-276.25 1279.28,-276.39 1313,-188 1357.29,-71.88 1294.02,-159.62 1094,-112 1041.85,-99.58 981.91,-86.5 940.56,-77.67"/>
<polygon fill="midnightblue" stroke="midnightblue" points="941.24,-74.23 930.73,-75.57 939.78,-81.08 941.24,-74.23"/>
</g>
<!-- Node6 -->
<g id="node6" class="node">
<title>Node6</title>
<g id="a_node6"><a xlink:href="allocator_8hpp.html" target="_top" xlink:title="Allocator implementations.">
<polygon fill="white" stroke="black" points="216,-112.5 216,-131.5 332,-131.5 332,-112.5 216,-112.5"/>
<text text-anchor="middle" x="274" y="-119.5" font-family="Helvetica,sans-Serif" font-size="10.00">details/allocator.hpp</text>
</a>
</g>
</g>
<!-- Node1&#45;&gt;Node6 -->
<g id="edge5" class="edge">
<title>Node1&#45;&gt;Node6</title>
<path fill="none" stroke="midnightblue" d="M613.45,-339.48C556.26,-333.84 480.06,-322.55 416,-300 368.68,-283.35 350.33,-282.36 318,-244 292.4,-213.62 281.14,-167.12 276.65,-141.51"/>
<polygon fill="midnightblue" stroke="midnightblue" points="280.1,-140.96 275.07,-131.63 273.19,-142.06 280.1,-140.96"/>
</g>
<!-- Node10 -->
<g id="node10" class="node">
<title>Node10</title>
<g id="a_node10"><a xlink:href="work_8hpp.html" target="_top" xlink:title="Work callback wrapper and manager implementation.">
<polygon fill="white" stroke="black" points="425,-280.5 425,-299.5 511,-299.5 511,-280.5 425,-280.5"/>
<text text-anchor="middle" x="468" y="-287.5" font-family="Helvetica,sans-Serif" font-size="10.00">pool/work.hpp</text>
</a>
</g>
</g>
<!-- Node1&#45;&gt;Node10 -->
<g id="edge12" class="edge">
<title>Node1&#45;&gt;Node10</title>
<path fill="none" stroke="midnightblue" d="M662.4,-336.44C622.27,-327.06 557.8,-311.99 514.22,-301.8"/>
<polygon fill="midnightblue" stroke="midnightblue" points="514.97,-298.38 504.43,-299.52 513.37,-305.2 514.97,-298.38"/>
</g>
<!-- Node25 -->
<g id="node25" class="node">
<title>Node25</title>
<g id="a_node25"><a xlink:href="wait_8hpp.html" target="_top" xlink:title="Implementation of threadpool wait callback.">
<polygon fill="white" stroke="black" points="760.5,-280.5 760.5,-299.5 843.5,-299.5 843.5,-280.5 760.5,-280.5"/>
<text text-anchor="middle" x="802" y="-287.5" font-family="Helvetica,sans-Serif" font-size="10.00">pool/wait.hpp</text>
</a>
</g>
</g>
<!-- Node1&#45;&gt;Node25 -->
<g id="edge35" class="edge">
<title>Node1&#45;&gt;Node25</title>
<path fill="none" stroke="midnightblue" d="M715.55,-336.32C731.99,-327.7 757.43,-314.36 776.47,-304.39"/>
<polygon fill="midnightblue" stroke="midnightblue" points="778.26,-307.4 785.49,-299.65 775.01,-301.2 778.26,-307.4"/>
</g>
<!-- Node29 -->
<g id="node29" class="node">
<title>Node29</title>
<g id="a_node29"><a xlink:href="timer_8hpp.html" target="_top" xlink:title="Implementation of threadpool timer callback.">
<polygon fill="white" stroke="black" points="655.5,-280.5 655.5,-299.5 742.5,-299.5 742.5,-280.5 655.5,-280.5"/>
<text text-anchor="middle" x="699" y="-287.5" font-family="Helvetica,sans-Serif" font-size="10.00">pool/timer.hpp</text>
</a>
</g>
</g>
<!-- Node1&#45;&gt;Node29 -->
<g id="edge47" class="edge">
<title>Node1&#45;&gt;Node29</title>
<path fill="none" stroke="midnightblue" d="M699,-336.08C699,-329.01 699,-318.86 699,-309.99"/>
<polygon fill="midnightblue" stroke="midnightblue" points="702.5,-309.75 699,-299.75 695.5,-309.75 702.5,-309.75"/>
</g>
<!-- Node30 -->
<g id="node30" class="node">
<title>Node30</title>
<g id="a_node30"><a xlink:href="io_8hpp.html" target="_top" xlink:title="Implementation of threadpool IO callback.">
<polygon fill="white" stroke="black" points="566.5,-280.5 566.5,-299.5 637.5,-299.5 637.5,-280.5 566.5,-280.5"/>
<text text-anchor="middle" x="602" y="-287.5" font-family="Helvetica,sans-Serif" font-size="10.00">pool/io.hpp</text>
</a>
</g>
</g>
<!-- Node1&#45;&gt;Node30 -->
<g id="edge54" class="edge">
<title>Node1&#45;&gt;Node30</title>
<path fill="none" stroke="midnightblue" d="M683.42,-336.32C668,-327.74 644.19,-314.49 626.29,-304.52"/>
<polygon fill="midnightblue" stroke="midnightblue" points="627.99,-301.46 617.55,-299.65 624.58,-307.58 627.99,-301.46"/>
</g>
<!-- Node6&#45;&gt;Node2 -->
<g id="edge6" class="edge">
<title>Node6&#45;&gt;Node2</title>
<path fill="none" stroke="midnightblue" d="M269.84,-112.37C261.17,-94.38 241.02,-52.55 229.49,-28.63"/>
<polygon fill="midnightblue" stroke="midnightblue" points="232.63,-27.08 225.14,-19.59 226.33,-30.12 232.63,-27.08"/>
</g>
<!-- Node6&#45;&gt;Node5 -->
<g id="edge7" class="edge">
<title>Node6&#45;&gt;Node5</title>
<path fill="none" stroke="midnightblue" d="M332.08,-113.01C335.1,-112.65 338.08,-112.32 341,-112 521.9,-92.45 737.16,-77.1 835.78,-70.51"/>
<polygon fill="midnightblue" stroke="midnightblue" points="836.06,-74 845.81,-69.84 835.6,-67.01 836.06,-74"/>
</g>
<!-- Node7 -->
<g id="node7" class="node">
<title>Node7</title>
<g id="a_node7"><a xlink:href="exception_8hpp.html" target="_top" xlink:title="Win32 error wrapper implementations.">
<polygon fill="white" stroke="black" points="0,-56.5 0,-75.5 122,-75.5 122,-56.5 0,-56.5"/>
<text text-anchor="middle" x="61" y="-63.5" font-family="Helvetica,sans-Serif" font-size="10.00">details/exception.hpp</text>
</a>
</g>
</g>
<!-- Node6&#45;&gt;Node7 -->
<g id="edge8" class="edge">
<title>Node6&#45;&gt;Node7</title>
<path fill="none" stroke="midnightblue" d="M240.25,-112.44C203.48,-103.12 144.55,-88.18 104.38,-78"/>
<polygon fill="midnightblue" stroke="midnightblue" points="105.15,-74.58 94.59,-75.52 103.43,-81.37 105.15,-74.58"/>
</g>
<!-- Node7&#45;&gt;Node2 -->
<g id="edge9" class="edge">
<title>Node7&#45;&gt;Node2</title>
<path fill="none" stroke="midnightblue" d="M86.35,-56.44C113.27,-47.36 156,-32.94 186.09,-22.78"/>
<polygon fill="midnightblue" stroke="midnightblue" points="187.41,-26.03 195.77,-19.52 185.17,-19.4 187.41,-26.03"/>
</g>
<!-- Node8 -->
<g id="node8" class="node">
<title>Node8</title>
<g id="a_node8"><a xlink:title=" ">
<polygon fill="white" stroke="#bfbfbf" points="18.5,-0.5 18.5,-19.5 83.5,-19.5 83.5,-0.5 18.5,-0.5"/>
<text text-anchor="middle" x="51" y="-7.5" font-family="Helvetica,sans-Serif" font-size="10.00">stdexcept</text>
</a>
</g>
</g>
<!-- Node7&#45;&gt;Node8 -->
<g id="edge10" class="edge">
<title>Node7&#45;&gt;Node8</title>
<path fill="none" stroke="midnightblue" d="M59.35,-56.08C58.02,-48.93 56.12,-38.64 54.46,-29.69"/>
<polygon fill="midnightblue" stroke="midnightblue" points="57.88,-28.95 52.62,-19.75 51,-30.22 57.88,-28.95"/>
</g>
<!-- Node9 -->
<g id="node9" class="node">
<title>Node9</title>
<g id="a_node9"><a xlink:title=" ">
<polygon fill="white" stroke="#bfbfbf" points="102,-0.5 102,-19.5 146,-19.5 146,-0.5 102,-0.5"/>
<text text-anchor="middle" x="124" y="-7.5" font-family="Helvetica,sans-Serif" font-size="10.00">string</text>
</a>
</g>
</g>
<!-- Node7&#45;&gt;Node9 -->
<g id="edge11" class="edge">
<title>Node7&#45;&gt;Node9</title>
<path fill="none" stroke="midnightblue" d="M71.12,-56.32C80.53,-48.26 94.74,-36.08 106.07,-26.37"/>
<polygon fill="midnightblue" stroke="midnightblue" points="108.38,-29 113.69,-19.83 103.82,-23.68 108.38,-29"/>
</g>
<!-- Node10&#45;&gt;Node2 -->
<g id="edge13" class="edge">
<title>Node10&#45;&gt;Node2</title>
<path fill="none" stroke="midnightblue" d="M424.95,-282C393.63,-275.54 351.1,-263.87 318,-244 257.91,-207.93 233.67,-196.81 207,-132 192.84,-97.59 204.76,-53.32 213.6,-29"/>
<polygon fill="midnightblue" stroke="midnightblue" points="216.89,-30.2 217.22,-19.61 210.36,-27.67 216.89,-30.2"/>
</g>
<!-- Node10&#45;&gt;Node5 -->
<g id="edge17" class="edge">
<title>Node10&#45;&gt;Node5</title>
<path fill="none" stroke="midnightblue" d="M424.71,-287.23C393.64,-283.42 353.73,-272.76 333,-244 313.25,-216.6 313.33,-195.46 333,-168 361.98,-127.56 393.29,-151.65 439,-132 456.53,-124.46 458.75,-117.58 477,-112 601.27,-74.03 755.18,-67.22 835.46,-66.51"/>
<polygon fill="midnightblue" stroke="midnightblue" points="835.84,-70.01 845.82,-66.45 835.8,-63.01 835.84,-70.01"/>
</g>
<!-- Node11 -->
<g id="node11" class="node">
<title>Node11</title>
<g id="a_node11"><a xlink:title=" ">
<polygon fill="white" stroke="#bfbfbf" points="342.5,-224.5 342.5,-243.5 403.5,-243.5 403.5,-224.5 342.5,-224.5"/>
<text text-anchor="middle" x="373" y="-231.5" font-family="Helvetica,sans-Serif" font-size="10.00">atlsync.h</text>
</a>
</g>
</g>
<!-- Node10&#45;&gt;Node11 -->
<g id="edge14" class="edge">
<title>Node10&#45;&gt;Node11</title>
<path fill="none" stroke="midnightblue" d="M452.74,-280.32C437.78,-271.82 414.75,-258.73 397.27,-248.8"/>
<polygon fill="midnightblue" stroke="midnightblue" points="398.65,-245.55 388.23,-243.65 395.19,-251.64 398.65,-245.55"/>
</g>
<!-- Node12 -->
<g id="node12" class="node">
<title>Node12</title>
<g id="a_node12"><a xlink:title=" ">
<polygon fill="white" stroke="#bfbfbf" points="536.5,-224.5 536.5,-243.5 577.5,-243.5 577.5,-224.5 536.5,-224.5"/>
<text text-anchor="middle" x="557" y="-231.5" font-family="Helvetica,sans-Serif" font-size="10.00">tuple</text>
</a>
</g>
</g>
<!-- Node10&#45;&gt;Node12 -->
<g id="edge15" class="edge">
<title>Node10&#45;&gt;Node12</title>
<path fill="none" stroke="midnightblue" d="M482.3,-280.32C496.18,-271.9 517.49,-258.97 533.8,-249.07"/>
<polygon fill="midnightblue" stroke="midnightblue" points="536,-251.83 542.74,-243.65 532.37,-245.85 536,-251.83"/>
</g>
<!-- Node13 -->
<g id="node13" class="node">
<title>Node13</title>
<g id="a_node13"><a xlink:title=" ">
<polygon fill="white" stroke="#bfbfbf" points="595.5,-224.5 595.5,-243.5 640.5,-243.5 640.5,-224.5 595.5,-224.5"/>
<text text-anchor="middle" x="618" y="-231.5" font-family="Helvetica,sans-Serif" font-size="10.00">utility</text>
</a>
</g>
</g>
<!-- Node10&#45;&gt;Node13 -->
<g id="edge16" class="edge">
<title>Node10&#45;&gt;Node13</title>
<path fill="none" stroke="midnightblue" d="M491.77,-280.44C517.19,-271.29 557.65,-256.73 585.89,-246.56"/>
<polygon fill="midnightblue" stroke="midnightblue" points="587.1,-249.84 595.33,-243.16 584.73,-243.26 587.1,-249.84"/>
</g>
<!-- Node14 -->
<g id="node14" class="node">
<title>Node14</title>
<g id="a_node14"><a xlink:href="utils_8hpp.html" target="_top" xlink:title="Some useful implementation stuff.">
<polygon fill="white" stroke="black" points="342.5,-168.5 342.5,-187.5 437.5,-187.5 437.5,-168.5 342.5,-168.5"/>
<text text-anchor="middle" x="390" y="-175.5" font-family="Helvetica,sans-Serif" font-size="10.00">details/utils.hpp</text>
</a>
</g>
</g>
<!-- Node10&#45;&gt;Node14 -->
<g id="edge18" class="edge">
<title>Node10&#45;&gt;Node14</title>
<path fill="none" stroke="midnightblue" d="M461.88,-280.37C449.01,-262.22 418.93,-219.8 402.05,-195.99"/>
<polygon fill="midnightblue" stroke="midnightblue" points="404.73,-193.72 396.09,-187.59 399.02,-197.77 404.73,-193.72"/>
</g>
<!-- Node19 -->
<g id="node19" class="node">
<title>Node19</title>
<g id="a_node19"><a xlink:href="basic__callback_8hpp.html" target="_top" xlink:title="Interfaces and base classes for callback wrappers.">
<polygon fill="white" stroke="black" points="735.5,-224.5 735.5,-243.5 868.5,-243.5 868.5,-224.5 735.5,-224.5"/>
<text text-anchor="middle" x="802" y="-231.5" font-family="Helvetica,sans-Serif" font-size="10.00">pool/basic_callback.hpp</text>
</a>
</g>
</g>
<!-- Node10&#45;&gt;Node19 -->
<g id="edge25" class="edge">
<title>Node10&#45;&gt;Node19</title>
<path fill="none" stroke="midnightblue" d="M511.32,-282C569.41,-272.6 672.92,-255.87 739.46,-245.11"/>
<polygon fill="midnightblue" stroke="midnightblue" points="740.09,-248.55 749.41,-243.5 738.98,-241.64 740.09,-248.55"/>
</g>
<!-- Node14&#45;&gt;Node5 -->
<g id="edge20" class="edge">
<title>Node14&#45;&gt;Node5</title>
<path fill="none" stroke="midnightblue" d="M424.97,-168.48C456.71,-160.36 504.6,-147.16 545,-132 564.73,-124.6 567.81,-118.06 588,-112 672.35,-86.68 774.41,-75.27 835.67,-70.38"/>
<polygon fill="midnightblue" stroke="midnightblue" points="836.18,-73.85 845.88,-69.6 835.64,-66.87 836.18,-73.85"/>
</g>
<!-- Node14&#45;&gt;Node6 -->
<g id="edge24" class="edge">
<title>Node14&#45;&gt;Node6</title>
<path fill="none" stroke="midnightblue" d="M371.62,-168.44C352.78,-159.68 323.27,-145.94 301.62,-135.86"/>
<polygon fill="midnightblue" stroke="midnightblue" points="302.84,-132.56 292.29,-131.52 299.88,-138.91 302.84,-132.56"/>
</g>
<!-- Node15 -->
<g id="node15" class="node">
<title>Node15</title>
<g id="a_node15"><a xlink:title=" ">
<polygon fill="white" stroke="#bfbfbf" points="486,-112.5 486,-131.5 536,-131.5 536,-112.5 486,-112.5"/>
<text text-anchor="middle" x="511" y="-119.5" font-family="Helvetica,sans-Serif" font-size="10.00">atomic</text>
</a>
</g>
</g>
<!-- Node14&#45;&gt;Node15 -->
<g id="edge19" class="edge">
<title>Node14&#45;&gt;Node15</title>
<path fill="none" stroke="midnightblue" d="M409.17,-168.44C428.91,-159.64 459.89,-145.81 482.49,-135.72"/>
<polygon fill="midnightblue" stroke="midnightblue" points="484.21,-138.79 491.92,-131.52 481.36,-132.4 484.21,-138.79"/>
</g>
<!-- Node16 -->
<g id="node16" class="node">
<title>Node16</title>
<g id="a_node16"><a xlink:href="ntrtl_8h.html" target="_top" xlink:title="Contains necessary declarations/definitions of internal windows objects and functions.">
<polygon fill="white" stroke="black" points="350,-112.5 350,-131.5 430,-131.5 430,-112.5 350,-112.5"/>
<text text-anchor="middle" x="390" y="-119.5" font-family="Helvetica,sans-Serif" font-size="10.00">native/ntrtl.h</text>
</a>
</g>
</g>
<!-- Node14&#45;&gt;Node16 -->
<g id="edge21" class="edge">
<title>Node14&#45;&gt;Node16</title>
<path fill="none" stroke="midnightblue" d="M390,-168.08C390,-161.01 390,-150.86 390,-141.99"/>
<polygon fill="midnightblue" stroke="midnightblue" points="393.5,-141.75 390,-131.75 386.5,-141.75 393.5,-141.75"/>
</g>
<!-- Node17 -->
<g id="node17" class="node">
<title>Node17</title>
<g id="a_node17"><a xlink:title=" ">
<polygon fill="white" stroke="#bfbfbf" points="375,-56.5 375,-75.5 443,-75.5 443,-56.5 375,-56.5"/>
<text text-anchor="middle" x="409" y="-63.5" font-family="Helvetica,sans-Serif" font-size="10.00">windows.h</text>
</a>
</g>
</g>
<!-- Node16&#45;&gt;Node17 -->
<g id="edge22" class="edge">
<title>Node16&#45;&gt;Node17</title>
<path fill="none" stroke="midnightblue" d="M393.14,-112.08C395.68,-104.85 399.36,-94.41 402.53,-85.4"/>
<polygon fill="midnightblue" stroke="midnightblue" points="405.9,-86.35 405.92,-75.75 399.3,-84.02 405.9,-86.35"/>
</g>
<!-- Node18 -->
<g id="node18" class="node">
<title>Node18</title>
<g id="a_node18"><a xlink:title=" ">
<polygon fill="white" stroke="#bfbfbf" points="291.5,-56.5 291.5,-75.5 356.5,-75.5 356.5,-56.5 291.5,-56.5"/>
<text text-anchor="middle" x="324" y="-63.5" font-family="Helvetica,sans-Serif" font-size="10.00">winternl.h</text>
</a>
</g>
</g>
<!-- Node16&#45;&gt;Node18 -->
<g id="edge23" class="edge">
<title>Node16&#45;&gt;Node18</title>
<path fill="none" stroke="midnightblue" d="M379.4,-112.32C369.54,-104.26 354.65,-92.08 342.78,-82.37"/>
<polygon fill="midnightblue" stroke="midnightblue" points="344.75,-79.46 334.8,-75.83 340.32,-84.88 344.75,-79.46"/>
</g>
<!-- Node19&#45;&gt;Node2 -->
<g id="edge26" class="edge">
<title>Node19&#45;&gt;Node2</title>
<path fill="none" stroke="midnightblue" d="M868.54,-226.44C918.53,-219.98 981.02,-208.09 997,-188 1030.6,-145.76 1076.02,-145.43 943,-56 887.02,-18.36 416.49,-12.2 266.64,-11.2"/>
<polygon fill="midnightblue" stroke="midnightblue" points="266.44,-7.7 256.42,-11.13 266.39,-14.7 266.44,-7.7"/>
</g>
<!-- Node19&#45;&gt;Node4 -->
<g id="edge31" class="edge">
<title>Node19&#45;&gt;Node4</title>
<path fill="none" stroke="midnightblue" d="M825.93,-224.44C851.22,-215.4 891.3,-201.06 919.68,-190.92"/>
<polygon fill="midnightblue" stroke="midnightblue" points="920.95,-194.18 929.19,-187.52 918.59,-187.59 920.95,-194.18"/>
</g>
<!-- Node19&#45;&gt;Node5 -->
<g id="edge33" class="edge">
<title>Node19&#45;&gt;Node5</title>
<path fill="none" stroke="midnightblue" d="M823.97,-224.47C839.66,-217.2 859.89,-205.17 871,-188 891.34,-156.57 892.69,-111.15 891.55,-85.84"/>
<polygon fill="midnightblue" stroke="midnightblue" points="895.04,-85.51 890.91,-75.75 888.05,-85.95 895.04,-85.51"/>
</g>
<!-- Node19&#45;&gt;Node14 -->
<g id="edge34" class="edge">
<title>Node19&#45;&gt;Node14</title>
<path fill="none" stroke="midnightblue" d="M736.72,-224.44C657.19,-214.02 524.05,-196.57 447.98,-186.6"/>
<polygon fill="midnightblue" stroke="midnightblue" points="448.01,-183.07 437.64,-185.24 447.1,-190.01 448.01,-183.07"/>
</g>
<!-- Node20 -->
<g id="node20" class="node">
<title>Node20</title>
<g id="a_node20"><a xlink:title=" ">
<polygon fill="white" stroke="#bfbfbf" points="824,-168.5 824,-187.5 862,-187.5 862,-168.5 824,-168.5"/>
<text text-anchor="middle" x="843" y="-175.5" font-family="Helvetica,sans-Serif" font-size="10.00">map</text>
</a>
</g>
</g>
<!-- Node19&#45;&gt;Node20 -->
<g id="edge27" class="edge">
<title>Node19&#45;&gt;Node20</title>
<path fill="none" stroke="midnightblue" d="M808.77,-224.08C814.56,-216.46 823.06,-205.26 830.14,-195.94"/>
<polygon fill="midnightblue" stroke="midnightblue" points="833.1,-197.83 836.36,-187.75 827.52,-193.6 833.1,-197.83"/>
</g>
<!-- Node21 -->
<g id="node21" class="node">
<title>Node21</title>
<g id="a_node21"><a xlink:title=" ">
<polygon fill="white" stroke="#bfbfbf" points="494,-168.5 494,-187.5 542,-187.5 542,-168.5 494,-168.5"/>
<text text-anchor="middle" x="518" y="-175.5" font-family="Helvetica,sans-Serif" font-size="10.00">mutex</text>
</a>
</g>
</g>
<!-- Node19&#45;&gt;Node21 -->
<g id="edge28" class="edge">
<title>Node19&#45;&gt;Node21</title>
<path fill="none" stroke="midnightblue" d="M746.38,-224.48C697.52,-216.67 624.34,-204.18 551.85,-188.03"/>
<polygon fill="midnightblue" stroke="midnightblue" points="552.61,-184.62 542.09,-185.84 551.08,-191.45 552.61,-184.62"/>
</g>
<!-- Node22 -->
<g id="node22" class="node">
<title>Node22</title>
<g id="a_node22"><a xlink:title=" ">
<polygon fill="white" stroke="#bfbfbf" points="560,-168.5 560,-187.5 618,-187.5 618,-168.5 560,-168.5"/>
<text text-anchor="middle" x="589" y="-175.5" font-family="Helvetica,sans-Serif" font-size="10.00">memory</text>
</a>
</g>
</g>
<!-- Node19&#45;&gt;Node22 -->
<g id="edge29" class="edge">
<title>Node19&#45;&gt;Node22</title>
<path fill="none" stroke="midnightblue" d="M768.25,-224.44C730.08,-214.77 668.02,-199.03 627.85,-188.85"/>
<polygon fill="midnightblue" stroke="midnightblue" points="628.7,-185.45 618.14,-186.39 626.98,-192.24 628.7,-185.45"/>
</g>
<!-- Node23 -->
<g id="node23" class="node">
<title>Node23</title>
<g id="a_node23"><a xlink:title=" ">
<polygon fill="white" stroke="#bfbfbf" points="636.5,-168.5 636.5,-187.5 701.5,-187.5 701.5,-168.5 636.5,-168.5"/>
<text text-anchor="middle" x="669" y="-175.5" font-family="Helvetica,sans-Serif" font-size="10.00">functional</text>
</a>
</g>
</g>
<!-- Node19&#45;&gt;Node23 -->
<g id="edge30" class="edge">
<title>Node19&#45;&gt;Node23</title>
<path fill="none" stroke="midnightblue" d="M780.93,-224.44C758.94,-215.52 724.27,-201.44 699.34,-191.32"/>
<polygon fill="midnightblue" stroke="midnightblue" points="700.56,-188.04 689.98,-187.52 697.92,-194.52 700.56,-188.04"/>
</g>
<!-- Node24 -->
<g id="node24" class="node">
<title>Node24</title>
<g id="a_node24"><a xlink:title=" ">
<polygon fill="white" stroke="#bfbfbf" points="720,-168.5 720,-187.5 806,-187.5 806,-168.5 720,-168.5"/>
<text text-anchor="middle" x="763" y="-175.5" font-family="Helvetica,sans-Serif" font-size="10.00">shared_mutex</text>
</a>
</g>
</g>
<!-- Node19&#45;&gt;Node24 -->
<g id="edge32" class="edge">
<title>Node19&#45;&gt;Node24</title>
<path fill="none" stroke="midnightblue" d="M795.56,-224.08C790.05,-216.46 781.97,-205.26 775.24,-195.94"/>
<polygon fill="midnightblue" stroke="midnightblue" points="778.01,-193.81 769.32,-187.75 772.34,-197.91 778.01,-193.81"/>
</g>
<!-- Node25&#45;&gt;Node5 -->
<g id="edge39" class="edge">
<title>Node25&#45;&gt;Node5</title>
<path fill="none" stroke="midnightblue" d="M843.73,-286.39C900.87,-280.17 999.8,-259.13 1030,-188 1043.2,-156.91 1049.9,-139.3 1030,-112 1010.48,-85.22 974.75,-74.03 944.27,-69.5"/>
<polygon fill="midnightblue" stroke="midnightblue" points="944.54,-66 934.17,-68.21 943.65,-72.95 944.54,-66"/>
</g>
<!-- Node25&#45;&gt;Node12 -->
<g id="edge36" class="edge">
<title>Node25&#45;&gt;Node12</title>
<path fill="none" stroke="midnightblue" d="M760.14,-281.33C718.67,-273.5 653.19,-260.47 587.31,-243.9"/>
<polygon fill="midnightblue" stroke="midnightblue" points="588.15,-240.5 577.59,-241.43 586.42,-247.28 588.15,-240.5"/>
</g>
<!-- Node25&#45;&gt;Node13 -->
<g id="edge37" class="edge">
<title>Node25&#45;&gt;Node13</title>
<path fill="none" stroke="midnightblue" d="M772.84,-280.44C739.46,-270.65 684.92,-254.64 650.28,-244.47"/>
<polygon fill="midnightblue" stroke="midnightblue" points="651.22,-241.1 640.64,-241.64 649.25,-247.82 651.22,-241.1"/>
</g>
<!-- Node25&#45;&gt;Node14 -->
<g id="edge45" class="edge">
<title>Node25&#45;&gt;Node14</title>
<path fill="none" stroke="midnightblue" d="M788.41,-280.28C765.69,-266.13 718.1,-238.3 674,-224 633.04,-210.72 518.31,-194.9 447.84,-186"/>
<polygon fill="midnightblue" stroke="midnightblue" points="448.14,-182.51 437.78,-184.74 447.27,-189.45 448.14,-182.51"/>
</g>
<!-- Node25&#45;&gt;Node19 -->
<g id="edge46" class="edge">
<title>Node25&#45;&gt;Node19</title>
<path fill="none" stroke="midnightblue" d="M802,-280.08C802,-273.01 802,-262.86 802,-253.99"/>
<polygon fill="midnightblue" stroke="midnightblue" points="805.5,-253.75 802,-243.75 798.5,-253.75 805.5,-253.75"/>
</g>
<!-- Node26 -->
<g id="node26" class="node">
<title>Node26</title>
<g id="a_node26"><a xlink:title=" ">
<polygon fill="white" stroke="#bfbfbf" points="1024,-224.5 1024,-243.5 1080,-243.5 1080,-224.5 1024,-224.5"/>
<text text-anchor="middle" x="1052" y="-231.5" font-family="Helvetica,sans-Serif" font-size="10.00">optional</text>
</a>
</g>
</g>
<!-- Node25&#45;&gt;Node26 -->
<g id="edge38" class="edge">
<title>Node25&#45;&gt;Node26</title>
<path fill="none" stroke="midnightblue" d="M841.61,-280.44C888.85,-270.24 967.23,-253.31 1013.82,-243.25"/>
<polygon fill="midnightblue" stroke="midnightblue" points="1014.79,-246.62 1023.82,-241.09 1013.31,-239.78 1014.79,-246.62"/>
</g>
<!-- Node27 -->
<g id="node27" class="node">
<title>Node27</title>
<g id="a_node27"><a xlink:href="time_8hpp.html" target="_top" xlink:title="Utils to work with std::chrono.">
<polygon fill="white" stroke="black" points="1136,-224.5 1136,-243.5 1232,-243.5 1232,-224.5 1136,-224.5"/>
<text text-anchor="middle" x="1184" y="-231.5" font-family="Helvetica,sans-Serif" font-size="10.00">details/time.hpp</text>
</a>
</g>
</g>
<!-- Node25&#45;&gt;Node27 -->
<g id="edge40" class="edge">
<title>Node25&#45;&gt;Node27</title>
<path fill="none" stroke="midnightblue" d="M843.61,-283.12C911.9,-273.46 1047.92,-254.24 1125.75,-243.23"/>
<polygon fill="midnightblue" stroke="midnightblue" points="1126.46,-246.67 1135.87,-241.8 1125.48,-239.74 1126.46,-246.67"/>
</g>
<!-- Node27&#45;&gt;Node2 -->
<g id="edge41" class="edge">
<title>Node27&#45;&gt;Node2</title>
<path fill="none" stroke="midnightblue" d="M1191.53,-224.49C1202.02,-211.56 1218.49,-186.51 1207,-168 1145.58,-69.01 1083.11,-83.93 970,-56 835.49,-22.78 407.41,-13.7 266.47,-11.58"/>
<polygon fill="midnightblue" stroke="midnightblue" points="266.1,-8.07 256.05,-11.42 266,-15.07 266.1,-8.07"/>
</g>
<!-- Node27&#45;&gt;Node3 -->
<g id="edge43" class="edge">
<title>Node27&#45;&gt;Node3</title>
<path fill="none" stroke="midnightblue" d="M1199.26,-224.32C1214.22,-215.82 1237.25,-202.73 1254.73,-192.8"/>
<polygon fill="midnightblue" stroke="midnightblue" points="1256.81,-195.64 1263.77,-187.65 1253.35,-189.55 1256.81,-195.64"/>
</g>
<!-- Node27&#45;&gt;Node5 -->
<g id="edge44" class="edge">
<title>Node27&#45;&gt;Node5</title>
<path fill="none" stroke="midnightblue" d="M1176.67,-224.17C1155.55,-198.95 1094.41,-127.37 1068,-112 1029.98,-89.87 981.21,-78.52 944.34,-72.76"/>
<polygon fill="midnightblue" stroke="midnightblue" points="944.68,-69.28 934.28,-71.28 943.66,-76.2 944.68,-69.28"/>
</g>
<!-- Node28 -->
<g id="node28" class="node">
<title>Node28</title>
<g id="a_node28"><a xlink:title=" ">
<polygon fill="white" stroke="#bfbfbf" points="1158.5,-168.5 1158.5,-187.5 1197.5,-187.5 1197.5,-168.5 1158.5,-168.5"/>
<text text-anchor="middle" x="1178" y="-175.5" font-family="Helvetica,sans-Serif" font-size="10.00">ratio</text>
</a>
</g>
</g>
<!-- Node27&#45;&gt;Node28 -->
<g id="edge42" class="edge">
<title>Node27&#45;&gt;Node28</title>
<path fill="none" stroke="midnightblue" d="M1183.01,-224.08C1182.21,-216.93 1181.07,-206.64 1180.08,-197.69"/>
<polygon fill="midnightblue" stroke="midnightblue" points="1183.56,-197.3 1178.97,-187.75 1176.6,-198.08 1183.56,-197.3"/>
</g>
<!-- Node29&#45;&gt;Node5 -->
<g id="edge50" class="edge">
<title>Node29&#45;&gt;Node5</title>
<path fill="none" stroke="midnightblue" d="M742.66,-281.06C818.51,-266.23 969.19,-231.82 997,-188 1024.54,-144.6 957.78,-101.31 917.65,-80.23"/>
<polygon fill="midnightblue" stroke="midnightblue" points="919.07,-77.03 908.57,-75.6 915.89,-83.26 919.07,-77.03"/>
</g>
<!-- Node29&#45;&gt;Node12 -->
<g id="edge48" class="edge">
<title>Node29&#45;&gt;Node12</title>
<path fill="none" stroke="midnightblue" d="M676.5,-280.44C652.37,-271.27 613.92,-256.64 587.17,-246.47"/>
<polygon fill="midnightblue" stroke="midnightblue" points="588.14,-243.1 577.55,-242.82 585.65,-249.64 588.14,-243.1"/>
</g>
<!-- Node29&#45;&gt;Node13 -->
<g id="edge49" class="edge">
<title>Node29&#45;&gt;Node13</title>
<path fill="none" stroke="midnightblue" d="M685.99,-280.32C673.47,-271.98 654.32,-259.21 639.53,-249.35"/>
<polygon fill="midnightblue" stroke="midnightblue" points="641.24,-246.29 630.98,-243.65 637.36,-252.11 641.24,-246.29"/>
</g>
<!-- Node29&#45;&gt;Node14 -->
<g id="edge52" class="edge">
<title>Node29&#45;&gt;Node14</title>
<path fill="none" stroke="midnightblue" d="M695.04,-280.15C688.14,-265.8 672.43,-237.7 650,-224 616.92,-203.81 513.99,-190.65 448,-184.05"/>
<polygon fill="midnightblue" stroke="midnightblue" points="448.03,-180.53 437.74,-183.04 447.35,-187.5 448.03,-180.53"/>
</g>
<!-- Node29&#45;&gt;Node19 -->
<g id="edge53" class="edge">
<title>Node29&#45;&gt;Node19</title>
<path fill="none" stroke="midnightblue" d="M715.55,-280.32C731.99,-271.7 757.43,-258.36 776.47,-248.39"/>
<polygon fill="midnightblue" stroke="midnightblue" points="778.26,-251.4 785.49,-243.65 775.01,-245.2 778.26,-251.4"/>
</g>
<!-- Node29&#45;&gt;Node27 -->
<g id="edge51" class="edge">
<title>Node29&#45;&gt;Node27</title>
<path fill="none" stroke="midnightblue" d="M742.64,-281.36C745.8,-280.88 748.95,-280.42 752,-280 822.78,-270.31 1025.47,-250.31 1126.01,-240.57"/>
<polygon fill="midnightblue" stroke="midnightblue" points="1126.38,-244.05 1136,-239.61 1125.71,-237.09 1126.38,-244.05"/>
</g>
<!-- Node30&#45;&gt;Node5 -->
<g id="edge57" class="edge">
<title>Node30&#45;&gt;Node5</title>
<path fill="none" stroke="midnightblue" d="M581.86,-280.49C539.76,-261.52 449.2,-213.82 485,-168 496.1,-153.79 734.86,-100.6 840.48,-77.65"/>
<polygon fill="midnightblue" stroke="midnightblue" points="841.24,-81.07 850.28,-75.53 839.76,-74.23 841.24,-81.07"/>
</g>
<!-- Node30&#45;&gt;Node12 -->
<g id="edge55" class="edge">
<title>Node30&#45;&gt;Node12</title>
<path fill="none" stroke="midnightblue" d="M594.57,-280.08C588.15,-272.38 578.69,-261.03 570.88,-251.65"/>
<polygon fill="midnightblue" stroke="midnightblue" points="573.38,-249.19 564.29,-243.75 568.01,-253.67 573.38,-249.19"/>
</g>
<!-- Node30&#45;&gt;Node13 -->
<g id="edge56" class="edge">
<title>Node30&#45;&gt;Node13</title>
<path fill="none" stroke="midnightblue" d="M604.64,-280.08C606.79,-272.85 609.88,-262.41 612.55,-253.4"/>
<polygon fill="midnightblue" stroke="midnightblue" points="615.92,-254.33 615.41,-243.75 609.21,-252.34 615.92,-254.33"/>
</g>
<!-- Node30&#45;&gt;Node14 -->
<g id="edge59" class="edge">
<title>Node30&#45;&gt;Node14</title>
<path fill="none" stroke="midnightblue" d="M578.32,-280.42C556.1,-272.07 522.15,-258.54 494,-244 464.01,-228.51 431.28,-207.28 410.7,-193.35"/>
<polygon fill="midnightblue" stroke="midnightblue" points="412.65,-190.44 402.42,-187.7 408.7,-196.23 412.65,-190.44"/>
</g>
<!-- Node30&#45;&gt;Node19 -->
<g id="edge60" class="edge">
<title>Node30&#45;&gt;Node19</title>
<path fill="none" stroke="midnightblue" d="M633.69,-280.44C668.07,-271.16 723.08,-256.31 760.79,-246.13"/>
<polygon fill="midnightblue" stroke="midnightblue" points="761.72,-249.5 770.46,-243.52 759.89,-242.74 761.72,-249.5"/>
</g>
<!-- Node30&#45;&gt;Node27 -->
<g id="edge58" class="edge">
<title>Node30&#45;&gt;Node27</title>
<path fill="none" stroke="midnightblue" d="M637.8,-281.45C640.9,-280.91 644,-280.42 647,-280 842.18,-252.63 892.67,-261.29 1089,-244 1100.86,-242.96 1113.55,-241.79 1125.67,-240.65"/>
<polygon fill="midnightblue" stroke="midnightblue" points="1126.06,-244.13 1135.68,-239.7 1125.4,-237.16 1126.06,-244.13"/>
</g>
</g>
</svg>
