<?xml version="1.0" encoding="UTF-8" standalone="no"?>
<!DOCTYPE svg PUBLIC "-//W3C//DTD SVG 1.1//EN"
 "http://www.w3.org/Graphics/SVG/1.1/DTD/svg11.dtd">
<!-- Generated by graphviz version 2.43.0 (0)
 -->
<!-- Title: ntp/src/pool/threadpool.cpp Pages: 1 -->
<svg width="1200pt" height="476pt"
 viewBox="0.00 0.00 1200.00 476.00" xmlns="http://www.w3.org/2000/svg" xmlns:xlink="http://www.w3.org/1999/xlink">
<g id="graph0" class="graph" transform="scale(1 1) rotate(0) translate(4 472)">
<title>ntp/src/pool/threadpool.cpp</title>
<!-- Node1 -->
<g id="node1" class="node">
<title>Node1</title>
<g id="a_node1"><a xlink:title="Threadpool implementation (traits and some helper functions)">
<polygon fill="#bfbfbf" stroke="black" points="731.5,-448.5 731.5,-467.5 880.5,-467.5 880.5,-448.5 731.5,-448.5"/>
<text text-anchor="middle" x="806" y="-455.5" font-family="Helvetica,sans-Serif" font-size="10.00">ntp/src/pool/threadpool.cpp</text>
</a>
</g>
</g>
<!-- Node2 -->
<g id="node2" class="node">
<title>Node2</title>
<g id="a_node2"><a xlink:title=" ">
<polygon fill="none" stroke="#bfbfbf" points="0,-392.5 0,-411.5 48,-411.5 48,-392.5 0,-392.5"/>
<text text-anchor="middle" x="24" y="-399.5" font-family="Helvetica,sans-Serif" font-size="10.00">thread</text>
</a>
</g>
</g>
<!-- Node1&#45;&gt;Node2 -->
<g id="edge1" class="edge">
<title>Node1&#45;&gt;Node2</title>
<path fill="none" stroke="midnightblue" d="M731.38,-456.72C596.86,-455.28 305.07,-447.86 62,-412 60.72,-411.81 59.41,-411.6 58.1,-411.37"/>
<polygon fill="midnightblue" stroke="midnightblue" points="58.5,-407.88 48,-409.34 57.12,-414.74 58.5,-407.88"/>
</g>
<!-- Node3 -->
<g id="node3" class="node">
<title>Node3</title>
<g id="a_node3"><a xlink:href="threadpool_8hpp.html" target="_top" xlink:title="Threadpool implementations.">
<polygon fill="none" stroke="black" points="749,-392.5 749,-411.5 863,-411.5 863,-392.5 749,-392.5"/>
<text text-anchor="middle" x="806" y="-399.5" font-family="Helvetica,sans-Serif" font-size="10.00">pool/threadpool.hpp</text>
</a>
</g>
</g>
<!-- Node1&#45;&gt;Node3 -->
<g id="edge2" class="edge">
<title>Node1&#45;&gt;Node3</title>
<path fill="none" stroke="midnightblue" d="M806,-448.08C806,-441.01 806,-430.86 806,-421.99"/>
<polygon fill="midnightblue" stroke="midnightblue" points="809.5,-421.75 806,-411.75 802.5,-421.75 809.5,-421.75"/>
</g>
<!-- Node6 -->
<g id="node6" class="node">
<title>Node6</title>
<g id="a_node6"><a xlink:href="allocator_8hpp.html" target="_top" xlink:title="Allocator implementations.">
<polygon fill="none" stroke="black" points="1010,-168.5 1010,-187.5 1126,-187.5 1126,-168.5 1010,-168.5"/>
<text text-anchor="middle" x="1068" y="-175.5" font-family="Helvetica,sans-Serif" font-size="10.00">details/allocator.hpp</text>
</a>
</g>
</g>
<!-- Node1&#45;&gt;Node6 -->
<g id="edge59" class="edge">
<title>Node1&#45;&gt;Node6</title>
<path fill="none" stroke="midnightblue" d="M822.3,-448.43C852.23,-432.34 917.35,-395.61 966,-356 992.81,-334.17 998.55,-327.12 1020,-300 1038.36,-276.79 1045.11,-271.51 1056,-244 1061.88,-229.15 1064.91,-211.22 1066.46,-197.96"/>
<polygon fill="midnightblue" stroke="midnightblue" points="1069.97,-198 1067.47,-187.71 1063,-197.32 1069.97,-198"/>
</g>
<!-- Node7 -->
<g id="node7" class="node">
<title>Node7</title>
<g id="a_node7"><a xlink:href="exception_8hpp.html" target="_top" xlink:title="Win32 error wrapper implementations.">
<polygon fill="none" stroke="black" points="382,-112.5 382,-131.5 504,-131.5 504,-112.5 382,-112.5"/>
<text text-anchor="middle" x="443" y="-119.5" font-family="Helvetica,sans-Serif" font-size="10.00">details/exception.hpp</text>
</a>
</g>
</g>
<!-- Node1&#45;&gt;Node7 -->
<g id="edge60" class="edge">
<title>Node1&#45;&gt;Node7</title>
<path fill="none" stroke="midnightblue" d="M731.31,-453.5C545.26,-443.78 76,-412.77 76,-347 76,-347 76,-347 76,-233 76,-171.87 265.22,-141.81 371.93,-129.72"/>
<polygon fill="midnightblue" stroke="midnightblue" points="372.43,-133.19 381.99,-128.61 371.66,-126.23 372.43,-133.19"/>
</g>
<!-- Node10 -->
<g id="node10" class="node">
<title>Node10</title>
<g id="a_node10"><a xlink:href="windows_8hpp_source.html" target="_top" xlink:title=" ">
<polygon fill="none" stroke="black" points="917,-56.5 917,-75.5 1033,-75.5 1033,-56.5 917,-56.5"/>
<text text-anchor="middle" x="975" y="-63.5" font-family="Helvetica,sans-Serif" font-size="10.00">details/windows.hpp</text>
</a>
</g>
</g>
<!-- Node1&#45;&gt;Node10 -->
<g id="edge61" class="edge">
<title>Node1&#45;&gt;Node10</title>
<path fill="none" stroke="midnightblue" d="M880.88,-450.96C993.13,-439.81 1192,-411.02 1192,-347 1192,-347 1192,-347 1192,-177 1192,-109.24 1106.79,-83.21 1043.16,-73.22"/>
<polygon fill="midnightblue" stroke="midnightblue" points="1043.55,-69.74 1033.15,-71.75 1042.54,-76.66 1043.55,-69.74"/>
</g>
<!-- Node4 -->
<g id="node4" class="node">
<title>Node4</title>
<g id="a_node4"><a xlink:title=" ">
<polygon fill="none" stroke="#bfbfbf" points="142,-224.5 142,-243.5 192,-243.5 192,-224.5 142,-224.5"/>
<text text-anchor="middle" x="167" y="-231.5" font-family="Helvetica,sans-Serif" font-size="10.00">chrono</text>
</a>
</g>
</g>
<!-- Node3&#45;&gt;Node4 -->
<g id="edge3" class="edge">
<title>Node3&#45;&gt;Node4</title>
<path fill="none" stroke="midnightblue" d="M748.96,-399.04C612.74,-393.22 273.58,-371.72 190,-300 176.54,-288.45 170.95,-268.48 168.64,-253.72"/>
<polygon fill="midnightblue" stroke="midnightblue" points="172.1,-253.18 167.43,-243.67 165.15,-254.02 172.1,-253.18"/>
</g>
<!-- Node5 -->
<g id="node5" class="node">
<title>Node5</title>
<g id="a_node5"><a xlink:title=" ">
<polygon fill="none" stroke="#bfbfbf" points="881.5,-224.5 881.5,-243.5 950.5,-243.5 950.5,-224.5 881.5,-224.5"/>
<text text-anchor="middle" x="916" y="-231.5" font-family="Helvetica,sans-Serif" font-size="10.00">type_traits</text>
</a>
</g>
</g>
<!-- Node3&#45;&gt;Node5 -->
<g id="edge4" class="edge">
<title>Node3&#45;&gt;Node5</title>
<path fill="none" stroke="midnightblue" d="M838.13,-392.42C877.53,-379.81 941.6,-351.95 962,-300 965.25,-291.73 965.45,-288.19 962,-280 956.97,-268.05 947.06,-257.69 937.71,-249.93"/>
<polygon fill="midnightblue" stroke="midnightblue" points="939.84,-247.15 929.79,-243.81 935.56,-252.69 939.84,-247.15"/>
</g>
<!-- Node3&#45;&gt;Node6 -->
<g id="edge5" class="edge">
<title>Node3&#45;&gt;Node6</title>
<path fill="none" stroke="midnightblue" d="M851.44,-392.47C878.85,-385.76 913.48,-374.39 940,-356 1000.98,-313.72 1043.53,-232.66 1060.19,-196.81"/>
<polygon fill="midnightblue" stroke="midnightblue" points="1063.42,-198.14 1064.36,-187.59 1057.05,-195.26 1063.42,-198.14"/>
</g>
<!-- Node3&#45;&gt;Node10 -->
<g id="edge13" class="edge">
<title>Node3&#45;&gt;Node10</title>
<path fill="none" stroke="midnightblue" d="M862.08,-392.46C894.1,-385.87 934.1,-374.62 966,-356 1057.47,-302.61 1094.33,-285.79 1135,-188 1158.55,-131.39 1074.05,-95.42 1018.97,-78.47"/>
<polygon fill="midnightblue" stroke="midnightblue" points="1019.64,-75.02 1009.06,-75.53 1017.65,-81.73 1019.64,-75.02"/>
</g>
<!-- Node13 -->
<g id="node13" class="node">
<title>Node13</title>
<g id="a_node13"><a xlink:href="work_8hpp.html" target="_top" xlink:title="Work callback wrapper and manager implementation.">
<polygon fill="none" stroke="black" points="815,-336.5 815,-355.5 901,-355.5 901,-336.5 815,-336.5"/>
<text text-anchor="middle" x="858" y="-343.5" font-family="Helvetica,sans-Serif" font-size="10.00">pool/work.hpp</text>
</a>
</g>
</g>
<!-- Node3&#45;&gt;Node13 -->
<g id="edge14" class="edge">
<title>Node3&#45;&gt;Node13</title>
<path fill="none" stroke="midnightblue" d="M814.59,-392.08C822.16,-384.22 833.38,-372.57 842.51,-363.08"/>
<polygon fill="midnightblue" stroke="midnightblue" points="845.16,-365.38 849.57,-355.75 840.12,-360.53 845.16,-365.38"/>
</g>
<!-- Node26 -->
<g id="node26" class="node">
<title>Node26</title>
<g id="a_node26"><a xlink:href="wait_8hpp.html" target="_top" xlink:title="Implementation of threadpool wait callback.">
<polygon fill="none" stroke="black" points="713.5,-336.5 713.5,-355.5 796.5,-355.5 796.5,-336.5 713.5,-336.5"/>
<text text-anchor="middle" x="755" y="-343.5" font-family="Helvetica,sans-Serif" font-size="10.00">pool/wait.hpp</text>
</a>
</g>
</g>
<!-- Node3&#45;&gt;Node26 -->
<g id="edge33" class="edge">
<title>Node3&#45;&gt;Node26</title>
<path fill="none" stroke="midnightblue" d="M797.58,-392.08C790.15,-384.22 779.15,-372.57 770.19,-363.08"/>
<polygon fill="midnightblue" stroke="midnightblue" points="772.68,-360.62 763.26,-355.75 767.59,-365.42 772.68,-360.62"/>
</g>
<!-- Node30 -->
<g id="node30" class="node">
<title>Node30</title>
<g id="a_node30"><a xlink:href="timer_8hpp.html" target="_top" xlink:title="Implementation of threadpool timer callback.">
<polygon fill="none" stroke="black" points="494.5,-336.5 494.5,-355.5 581.5,-355.5 581.5,-336.5 494.5,-336.5"/>
<text text-anchor="middle" x="538" y="-343.5" font-family="Helvetica,sans-Serif" font-size="10.00">pool/timer.hpp</text>
</a>
</g>
</g>
<!-- Node3&#45;&gt;Node30 -->
<g id="edge44" class="edge">
<title>Node3&#45;&gt;Node30</title>
<path fill="none" stroke="midnightblue" d="M763.53,-392.44C716.59,-382.98 640.92,-367.74 590.35,-357.55"/>
<polygon fill="midnightblue" stroke="midnightblue" points="590.76,-354.06 580.27,-355.52 589.38,-360.92 590.76,-354.06"/>
</g>
<!-- Node31 -->
<g id="node31" class="node">
<title>Node31</title>
<g id="a_node31"><a xlink:href="io_8hpp.html" target="_top" xlink:title="Implementation of threadpool IO callback.">
<polygon fill="none" stroke="black" points="617.5,-336.5 617.5,-355.5 688.5,-355.5 688.5,-336.5 617.5,-336.5"/>
<text text-anchor="middle" x="653" y="-343.5" font-family="Helvetica,sans-Serif" font-size="10.00">pool/io.hpp</text>
</a>
</g>
</g>
<!-- Node3&#45;&gt;Node31 -->
<g id="edge52" class="edge">
<title>Node3&#45;&gt;Node31</title>
<path fill="none" stroke="midnightblue" d="M781.76,-392.44C756.13,-383.4 715.51,-369.06 686.76,-358.92"/>
<polygon fill="midnightblue" stroke="midnightblue" points="687.72,-355.54 677.13,-355.52 685.39,-362.15 687.72,-355.54"/>
</g>
<!-- Node6&#45;&gt;Node7 -->
<g id="edge6" class="edge">
<title>Node6&#45;&gt;Node7</title>
<path fill="none" stroke="midnightblue" d="M1009.76,-171.97C894.81,-162.04 639.08,-139.94 514.28,-129.16"/>
<polygon fill="midnightblue" stroke="midnightblue" points="514.34,-125.65 504.07,-128.28 513.73,-132.62 514.34,-125.65"/>
</g>
<!-- Node6&#45;&gt;Node10 -->
<g id="edge12" class="edge">
<title>Node6&#45;&gt;Node10</title>
<path fill="none" stroke="midnightblue" d="M1060.7,-168.37C1045.22,-150.05 1008.86,-107.05 988.83,-83.36"/>
<polygon fill="midnightblue" stroke="midnightblue" points="991.39,-80.97 982.26,-75.59 986.05,-85.49 991.39,-80.97"/>
</g>
<!-- Node8 -->
<g id="node8" class="node">
<title>Node8</title>
<g id="a_node8"><a xlink:title=" ">
<polygon fill="none" stroke="#bfbfbf" points="464.5,-56.5 464.5,-75.5 529.5,-75.5 529.5,-56.5 464.5,-56.5"/>
<text text-anchor="middle" x="497" y="-63.5" font-family="Helvetica,sans-Serif" font-size="10.00">stdexcept</text>
</a>
</g>
</g>
<!-- Node7&#45;&gt;Node8 -->
<g id="edge7" class="edge">
<title>Node7&#45;&gt;Node8</title>
<path fill="none" stroke="midnightblue" d="M451.92,-112.08C459.78,-104.22 471.43,-92.57 480.92,-83.08"/>
<polygon fill="midnightblue" stroke="midnightblue" points="483.65,-85.3 488.25,-75.75 478.7,-80.35 483.65,-85.3"/>
</g>
<!-- Node9 -->
<g id="node9" class="node">
<title>Node9</title>
<g id="a_node9"><a xlink:title=" ">
<polygon fill="none" stroke="#bfbfbf" points="402,-56.5 402,-75.5 446,-75.5 446,-56.5 402,-56.5"/>
<text text-anchor="middle" x="424" y="-63.5" font-family="Helvetica,sans-Serif" font-size="10.00">string</text>
</a>
</g>
</g>
<!-- Node7&#45;&gt;Node9 -->
<g id="edge8" class="edge">
<title>Node7&#45;&gt;Node9</title>
<path fill="none" stroke="midnightblue" d="M439.86,-112.08C437.32,-104.85 433.64,-94.41 430.47,-85.4"/>
<polygon fill="midnightblue" stroke="midnightblue" points="433.7,-84.02 427.08,-75.75 427.1,-86.35 433.7,-84.02"/>
</g>
<!-- Node7&#45;&gt;Node10 -->
<g id="edge9" class="edge">
<title>Node7&#45;&gt;Node10</title>
<path fill="none" stroke="midnightblue" d="M504.38,-113.53C508.99,-113 513.57,-112.48 518,-112 655.93,-96.93 817.54,-81.55 906.88,-73.25"/>
<polygon fill="midnightblue" stroke="midnightblue" points="907.25,-76.73 916.89,-72.32 906.61,-69.76 907.25,-76.73"/>
</g>
<!-- Node11 -->
<g id="node11" class="node">
<title>Node11</title>
<g id="a_node11"><a xlink:href="ntp__config_8hpp_source.html" target="_top" xlink:title=" ">
<polygon fill="none" stroke="black" points="310,-0.5 310,-19.5 398,-19.5 398,-0.5 310,-0.5"/>
<text text-anchor="middle" x="354" y="-7.5" font-family="Helvetica,sans-Serif" font-size="10.00">ntp_config.hpp</text>
</a>
</g>
</g>
<!-- Node10&#45;&gt;Node11 -->
<g id="edge10" class="edge">
<title>Node10&#45;&gt;Node11</title>
<path fill="none" stroke="midnightblue" d="M916.88,-57.81C911.18,-57.17 905.48,-56.55 900,-56 720.18,-37.81 506.48,-21.83 408.27,-14.8"/>
<polygon fill="midnightblue" stroke="midnightblue" points="408.51,-11.31 398.28,-14.09 408.01,-18.29 408.51,-11.31"/>
</g>
<!-- Node12 -->
<g id="node12" class="node">
<title>Node12</title>
<g id="a_node12"><a xlink:title=" ">
<polygon fill="none" stroke="#bfbfbf" points="940,-0.5 940,-19.5 1010,-19.5 1010,-0.5 940,-0.5"/>
<text text-anchor="middle" x="975" y="-7.5" font-family="Helvetica,sans-Serif" font-size="10.00">Windows.h</text>
</a>
</g>
</g>
<!-- Node10&#45;&gt;Node12 -->
<g id="edge11" class="edge">
<title>Node10&#45;&gt;Node12</title>
<path fill="none" stroke="midnightblue" d="M975,-56.08C975,-49.01 975,-38.86 975,-29.99"/>
<polygon fill="midnightblue" stroke="midnightblue" points="978.5,-29.75 975,-19.75 971.5,-29.75 978.5,-29.75"/>
</g>
<!-- Node13&#45;&gt;Node10 -->
<g id="edge17" class="edge">
<title>Node13&#45;&gt;Node10</title>
<path fill="none" stroke="midnightblue" d="M892.07,-336.46C914.07,-329.55 942.18,-317.98 962,-300 983.07,-280.89 985.88,-271.54 993,-244 1007.58,-187.55 990.88,-118.13 981.09,-85.54"/>
<polygon fill="midnightblue" stroke="midnightblue" points="984.32,-84.13 977.98,-75.64 977.64,-86.22 984.32,-84.13"/>
</g>
<!-- Node14 -->
<g id="node14" class="node">
<title>Node14</title>
<g id="a_node14"><a xlink:title=" ">
<polygon fill="none" stroke="#bfbfbf" points="681.5,-280.5 681.5,-299.5 722.5,-299.5 722.5,-280.5 681.5,-280.5"/>
<text text-anchor="middle" x="702" y="-287.5" font-family="Helvetica,sans-Serif" font-size="10.00">tuple</text>
</a>
</g>
</g>
<!-- Node13&#45;&gt;Node14 -->
<g id="edge15" class="edge">
<title>Node13&#45;&gt;Node14</title>
<path fill="none" stroke="midnightblue" d="M833.28,-336.44C805.92,-326.97 761.81,-311.7 732.37,-301.51"/>
<polygon fill="midnightblue" stroke="midnightblue" points="733.21,-298.1 722.62,-298.14 730.92,-304.72 733.21,-298.1"/>
</g>
<!-- Node15 -->
<g id="node15" class="node">
<title>Node15</title>
<g id="a_node15"><a xlink:title=" ">
<polygon fill="none" stroke="#bfbfbf" points="740.5,-280.5 740.5,-299.5 785.5,-299.5 785.5,-280.5 740.5,-280.5"/>
<text text-anchor="middle" x="763" y="-287.5" font-family="Helvetica,sans-Serif" font-size="10.00">utility</text>
</a>
</g>
</g>
<!-- Node13&#45;&gt;Node15 -->
<g id="edge16" class="edge">
<title>Node13&#45;&gt;Node15</title>
<path fill="none" stroke="midnightblue" d="M842.74,-336.32C827.78,-327.82 804.75,-314.73 787.27,-304.8"/>
<polygon fill="midnightblue" stroke="midnightblue" points="788.65,-301.55 778.23,-299.65 785.19,-307.64 788.65,-301.55"/>
</g>
<!-- Node16 -->
<g id="node16" class="node">
<title>Node16</title>
<g id="a_node16"><a xlink:href="utils_8hpp.html" target="_top" xlink:title="Some useful implementation stuff.">
<polygon fill="none" stroke="black" points="768.5,-224.5 768.5,-243.5 863.5,-243.5 863.5,-224.5 768.5,-224.5"/>
<text text-anchor="middle" x="816" y="-231.5" font-family="Helvetica,sans-Serif" font-size="10.00">details/utils.hpp</text>
</a>
</g>
</g>
<!-- Node13&#45;&gt;Node16 -->
<g id="edge18" class="edge">
<title>Node13&#45;&gt;Node16</title>
<path fill="none" stroke="midnightblue" d="M887.99,-336.49C919.88,-325.87 963.4,-305.9 945,-280 935.38,-266.46 897.7,-254.27 865.52,-246"/>
<polygon fill="midnightblue" stroke="midnightblue" points="866.3,-242.59 855.75,-243.57 864.61,-249.38 866.3,-242.59"/>
</g>
<!-- Node20 -->
<g id="node20" class="node">
<title>Node20</title>
<g id="a_node20"><a xlink:href="basic__callback_8hpp.html" target="_top" xlink:title="Interfaces and base classes for callback wrappers.">
<polygon fill="none" stroke="black" points="453.5,-280.5 453.5,-299.5 586.5,-299.5 586.5,-280.5 453.5,-280.5"/>
<text text-anchor="middle" x="520" y="-287.5" font-family="Helvetica,sans-Serif" font-size="10.00">pool/basic_callback.hpp</text>
</a>
</g>
</g>
<!-- Node13&#45;&gt;Node20 -->
<g id="edge24" class="edge">
<title>Node13&#45;&gt;Node20</title>
<path fill="none" stroke="midnightblue" d="M814.91,-337.64C811.56,-337.08 808.22,-336.53 805,-336 729.69,-323.66 643.08,-310.07 585.29,-301.09"/>
<polygon fill="midnightblue" stroke="midnightblue" points="585.62,-297.6 575.2,-299.52 584.54,-304.51 585.62,-297.6"/>
</g>
<!-- Node16&#45;&gt;Node6 -->
<g id="edge23" class="edge">
<title>Node16&#45;&gt;Node6</title>
<path fill="none" stroke="midnightblue" d="M855.93,-224.44C899.89,-215.02 970.63,-199.87 1018.18,-189.68"/>
<polygon fill="midnightblue" stroke="midnightblue" points="1019.21,-193.03 1028.26,-187.52 1017.75,-186.19 1019.21,-193.03"/>
</g>
<!-- Node16&#45;&gt;Node11 -->
<g id="edge19" class="edge">
<title>Node16&#45;&gt;Node11</title>
<path fill="none" stroke="midnightblue" d="M768.25,-228.78C665.14,-218.65 426.64,-189.44 373,-132 347.08,-104.25 348.08,-56.34 351.05,-29.89"/>
<polygon fill="midnightblue" stroke="midnightblue" points="354.56,-30.08 352.42,-19.7 347.62,-29.15 354.56,-30.08"/>
</g>
<!-- Node17 -->
<g id="node17" class="node">
<title>Node17</title>
<g id="a_node17"><a xlink:href="ntrtl_8h.html" target="_top" xlink:title="Contains necessary declarations/definitions of internal windows objects and functions.">
<polygon fill="none" stroke="black" points="776,-168.5 776,-187.5 856,-187.5 856,-168.5 776,-168.5"/>
<text text-anchor="middle" x="816" y="-175.5" font-family="Helvetica,sans-Serif" font-size="10.00">native/ntrtl.h</text>
</a>
</g>
</g>
<!-- Node16&#45;&gt;Node17 -->
<g id="edge20" class="edge">
<title>Node16&#45;&gt;Node17</title>
<path fill="none" stroke="midnightblue" d="M816,-224.08C816,-217.01 816,-206.86 816,-197.99"/>
<polygon fill="midnightblue" stroke="midnightblue" points="819.5,-197.75 816,-187.75 812.5,-197.75 819.5,-197.75"/>
</g>
<!-- Node18 -->
<g id="node18" class="node">
<title>Node18</title>
<g id="a_node18"><a xlink:title=" ">
<polygon fill="none" stroke="#bfbfbf" points="787,-112.5 787,-131.5 855,-131.5 855,-112.5 787,-112.5"/>
<text text-anchor="middle" x="821" y="-119.5" font-family="Helvetica,sans-Serif" font-size="10.00">windows.h</text>
</a>
</g>
</g>
<!-- Node17&#45;&gt;Node18 -->
<g id="edge21" class="edge">
<title>Node17&#45;&gt;Node18</title>
<path fill="none" stroke="midnightblue" d="M816.83,-168.08C817.48,-161.01 818.42,-150.86 819.24,-141.99"/>
<polygon fill="midnightblue" stroke="midnightblue" points="822.75,-142.03 820.19,-131.75 815.78,-141.39 822.75,-142.03"/>
</g>
<!-- Node19 -->
<g id="node19" class="node">
<title>Node19</title>
<g id="a_node19"><a xlink:title=" ">
<polygon fill="none" stroke="#bfbfbf" points="703.5,-112.5 703.5,-131.5 768.5,-131.5 768.5,-112.5 703.5,-112.5"/>
<text text-anchor="middle" x="736" y="-119.5" font-family="Helvetica,sans-Serif" font-size="10.00">winternl.h</text>
</a>
</g>
</g>
<!-- Node17&#45;&gt;Node19 -->
<g id="edge22" class="edge">
<title>Node17&#45;&gt;Node19</title>
<path fill="none" stroke="midnightblue" d="M803.15,-168.32C790.78,-159.98 771.87,-147.21 757.26,-137.35"/>
<polygon fill="midnightblue" stroke="midnightblue" points="759.07,-134.35 748.82,-131.65 755.15,-140.15 759.07,-134.35"/>
</g>
<!-- Node20&#45;&gt;Node5 -->
<g id="edge29" class="edge">
<title>Node20&#45;&gt;Node5</title>
<path fill="none" stroke="midnightblue" d="M586.72,-281.97C655.45,-274.39 765.92,-261.27 871.28,-244"/>
<polygon fill="midnightblue" stroke="midnightblue" points="872.16,-247.4 881.46,-242.32 871.02,-240.5 872.16,-247.4"/>
</g>
<!-- Node20&#45;&gt;Node10 -->
<g id="edge31" class="edge">
<title>Node20&#45;&gt;Node10</title>
<path fill="none" stroke="midnightblue" d="M576.59,-280.45C617.51,-273.29 673.68,-261.4 721,-244 738.91,-237.41 741.47,-231.54 759,-224 804.71,-204.35 823.39,-215.27 865,-188 908.35,-159.59 945.82,-110.15 963.74,-84.14"/>
<polygon fill="midnightblue" stroke="midnightblue" points="966.75,-85.94 969.44,-75.69 960.94,-82.03 966.75,-85.94"/>
</g>
<!-- Node20&#45;&gt;Node16 -->
<g id="edge32" class="edge">
<title>Node20&#45;&gt;Node16</title>
<path fill="none" stroke="midnightblue" d="M566.9,-280.44C619.08,-270.92 703.37,-255.55 759.23,-245.36"/>
<polygon fill="midnightblue" stroke="midnightblue" points="760.11,-248.75 769.32,-243.52 758.85,-241.87 760.11,-248.75"/>
</g>
<!-- Node21 -->
<g id="node21" class="node">
<title>Node21</title>
<g id="a_node21"><a xlink:title=" ">
<polygon fill="none" stroke="#bfbfbf" points="344,-224.5 344,-243.5 382,-243.5 382,-224.5 344,-224.5"/>
<text text-anchor="middle" x="363" y="-231.5" font-family="Helvetica,sans-Serif" font-size="10.00">map</text>
</a>
</g>
</g>
<!-- Node20&#45;&gt;Node21 -->
<g id="edge25" class="edge">
<title>Node20&#45;&gt;Node21</title>
<path fill="none" stroke="midnightblue" d="M495.12,-280.44C467.12,-270.81 421.69,-255.19 392.08,-245"/>
<polygon fill="midnightblue" stroke="midnightblue" points="392.91,-241.59 382.32,-241.64 390.63,-248.21 392.91,-241.59"/>
</g>
<!-- Node22 -->
<g id="node22" class="node">
<title>Node22</title>
<g id="a_node22"><a xlink:title=" ">
<polygon fill="none" stroke="#bfbfbf" points="400,-224.5 400,-243.5 448,-243.5 448,-224.5 400,-224.5"/>
<text text-anchor="middle" x="424" y="-231.5" font-family="Helvetica,sans-Serif" font-size="10.00">mutex</text>
</a>
</g>
</g>
<!-- Node20&#45;&gt;Node22 -->
<g id="edge26" class="edge">
<title>Node20&#45;&gt;Node22</title>
<path fill="none" stroke="midnightblue" d="M504.58,-280.32C489.46,-271.82 466.18,-258.73 448.53,-248.8"/>
<polygon fill="midnightblue" stroke="midnightblue" points="449.82,-245.51 439.39,-243.65 446.39,-251.61 449.82,-245.51"/>
</g>
<!-- Node23 -->
<g id="node23" class="node">
<title>Node23</title>
<g id="a_node23"><a xlink:title=" ">
<polygon fill="none" stroke="#bfbfbf" points="466,-224.5 466,-243.5 524,-243.5 524,-224.5 466,-224.5"/>
<text text-anchor="middle" x="495" y="-231.5" font-family="Helvetica,sans-Serif" font-size="10.00">memory</text>
</a>
</g>
</g>
<!-- Node20&#45;&gt;Node23 -->
<g id="edge27" class="edge">
<title>Node20&#45;&gt;Node23</title>
<path fill="none" stroke="midnightblue" d="M515.87,-280.08C512.49,-272.77 507.58,-262.18 503.38,-253.1"/>
<polygon fill="midnightblue" stroke="midnightblue" points="506.43,-251.36 499.05,-243.75 500.08,-254.3 506.43,-251.36"/>
</g>
<!-- Node24 -->
<g id="node24" class="node">
<title>Node24</title>
<g id="a_node24"><a xlink:title=" ">
<polygon fill="none" stroke="#bfbfbf" points="542.5,-224.5 542.5,-243.5 607.5,-243.5 607.5,-224.5 542.5,-224.5"/>
<text text-anchor="middle" x="575" y="-231.5" font-family="Helvetica,sans-Serif" font-size="10.00">functional</text>
</a>
</g>
</g>
<!-- Node20&#45;&gt;Node24 -->
<g id="edge28" class="edge">
<title>Node20&#45;&gt;Node24</title>
<path fill="none" stroke="midnightblue" d="M529.08,-280.08C537.17,-272.14 549.2,-260.34 558.91,-250.8"/>
<polygon fill="midnightblue" stroke="midnightblue" points="561.4,-253.25 566.09,-243.75 556.5,-248.26 561.4,-253.25"/>
</g>
<!-- Node25 -->
<g id="node25" class="node">
<title>Node25</title>
<g id="a_node25"><a xlink:title=" ">
<polygon fill="none" stroke="#bfbfbf" points="626,-224.5 626,-243.5 712,-243.5 712,-224.5 626,-224.5"/>
<text text-anchor="middle" x="669" y="-231.5" font-family="Helvetica,sans-Serif" font-size="10.00">shared_mutex</text>
</a>
</g>
</g>
<!-- Node20&#45;&gt;Node25 -->
<g id="edge30" class="edge">
<title>Node20&#45;&gt;Node25</title>
<path fill="none" stroke="midnightblue" d="M543.61,-280.44C568.46,-271.44 607.77,-257.19 635.75,-247.05"/>
<polygon fill="midnightblue" stroke="midnightblue" points="637.29,-250.21 645.5,-243.52 634.91,-243.63 637.29,-250.21"/>
</g>
<!-- Node26&#45;&gt;Node11 -->
<g id="edge37" class="edge">
<title>Node26&#45;&gt;Node11</title>
<path fill="none" stroke="midnightblue" d="M768.99,-336.42C790.49,-323.41 833.16,-298.26 871,-280 909.06,-261.64 935.45,-279.08 959,-244 998.13,-185.72 1018.9,-203.05 864,-112 715.91,-24.95 506.14,-11.51 408.25,-10.34"/>
<polygon fill="midnightblue" stroke="midnightblue" points="408.03,-6.84 398,-10.26 407.97,-13.84 408.03,-6.84"/>
</g>
<!-- Node26&#45;&gt;Node14 -->
<g id="edge34" class="edge">
<title>Node26&#45;&gt;Node14</title>
<path fill="none" stroke="midnightblue" d="M746.25,-336.08C738.53,-328.22 727.1,-316.57 717.78,-307.08"/>
<polygon fill="midnightblue" stroke="midnightblue" points="720.09,-304.44 710.59,-299.75 715.1,-309.34 720.09,-304.44"/>
</g>
<!-- Node26&#45;&gt;Node15 -->
<g id="edge35" class="edge">
<title>Node26&#45;&gt;Node15</title>
<path fill="none" stroke="midnightblue" d="M756.32,-336.08C757.38,-328.93 758.91,-318.64 760.23,-309.69"/>
<polygon fill="midnightblue" stroke="midnightblue" points="763.7,-310.16 761.7,-299.75 756.78,-309.13 763.7,-310.16"/>
</g>
<!-- Node26&#45;&gt;Node16 -->
<g id="edge42" class="edge">
<title>Node26&#45;&gt;Node16</title>
<path fill="none" stroke="midnightblue" d="M764.2,-336.5C772.93,-327.99 785.88,-314.17 794,-300 802.33,-285.46 808.14,-267.28 811.7,-253.85"/>
<polygon fill="midnightblue" stroke="midnightblue" points="815.16,-254.41 814.15,-243.86 808.37,-252.74 815.16,-254.41"/>
</g>
<!-- Node26&#45;&gt;Node20 -->
<g id="edge43" class="edge">
<title>Node26&#45;&gt;Node20</title>
<path fill="none" stroke="midnightblue" d="M717.76,-336.44C676.94,-327.06 611.36,-311.99 567.02,-301.8"/>
<polygon fill="midnightblue" stroke="midnightblue" points="567.59,-298.34 557.06,-299.52 566.02,-305.17 567.59,-298.34"/>
</g>
<!-- Node27 -->
<g id="node27" class="node">
<title>Node27</title>
<g id="a_node27"><a xlink:title=" ">
<polygon fill="none" stroke="#bfbfbf" points="880,-280.5 880,-299.5 936,-299.5 936,-280.5 880,-280.5"/>
<text text-anchor="middle" x="908" y="-287.5" font-family="Helvetica,sans-Serif" font-size="10.00">optional</text>
</a>
</g>
</g>
<!-- Node26&#45;&gt;Node27 -->
<g id="edge36" class="edge">
<title>Node26&#45;&gt;Node27</title>
<path fill="none" stroke="midnightblue" d="M779.24,-336.44C804.87,-327.4 845.49,-313.06 874.24,-302.92"/>
<polygon fill="midnightblue" stroke="midnightblue" points="875.61,-306.15 883.87,-299.52 873.28,-299.54 875.61,-306.15"/>
</g>
<!-- Node28 -->
<g id="node28" class="node">
<title>Node28</title>
<g id="a_node28"><a xlink:href="time_8hpp.html" target="_top" xlink:title="Utils to work with std::chrono.">
<polygon fill="none" stroke="black" points="304,-280.5 304,-299.5 400,-299.5 400,-280.5 304,-280.5"/>
<text text-anchor="middle" x="352" y="-287.5" font-family="Helvetica,sans-Serif" font-size="10.00">details/time.hpp</text>
</a>
</g>
</g>
<!-- Node26&#45;&gt;Node28 -->
<g id="edge38" class="edge">
<title>Node26&#45;&gt;Node28</title>
<path fill="none" stroke="midnightblue" d="M713.2,-338.39C707.75,-337.57 702.25,-336.75 697,-336 596.33,-321.63 478.86,-306.7 410.22,-298.16"/>
<polygon fill="midnightblue" stroke="midnightblue" points="410.4,-294.65 400.05,-296.89 409.54,-301.6 410.4,-294.65"/>
</g>
<!-- Node28&#45;&gt;Node4 -->
<g id="edge40" class="edge">
<title>Node28&#45;&gt;Node4</title>
<path fill="none" stroke="midnightblue" d="M322.69,-280.44C289.86,-270.86 236.7,-255.34 201.79,-245.15"/>
<polygon fill="midnightblue" stroke="midnightblue" points="202.6,-241.75 192.02,-242.3 200.64,-248.47 202.6,-241.75"/>
</g>
<!-- Node28&#45;&gt;Node10 -->
<g id="edge41" class="edge">
<title>Node28&#45;&gt;Node10</title>
<path fill="none" stroke="midnightblue" d="M345.41,-280.13C336.32,-266.74 322.42,-241.1 335,-224 384.52,-156.68 612.64,-131.1 694,-112 765.92,-95.12 849.69,-82.6 906.93,-75.12"/>
<polygon fill="midnightblue" stroke="midnightblue" points="907.47,-78.57 916.94,-73.82 906.58,-71.63 907.47,-78.57"/>
</g>
<!-- Node29 -->
<g id="node29" class="node">
<title>Node29</title>
<g id="a_node29"><a xlink:title=" ">
<polygon fill="none" stroke="#bfbfbf" points="248.5,-224.5 248.5,-243.5 287.5,-243.5 287.5,-224.5 248.5,-224.5"/>
<text text-anchor="middle" x="268" y="-231.5" font-family="Helvetica,sans-Serif" font-size="10.00">ratio</text>
</a>
</g>
</g>
<!-- Node28&#45;&gt;Node29 -->
<g id="edge39" class="edge">
<title>Node28&#45;&gt;Node29</title>
<path fill="none" stroke="midnightblue" d="M338.5,-280.32C325.4,-271.9 305.29,-258.97 289.89,-249.07"/>
<polygon fill="midnightblue" stroke="midnightblue" points="291.77,-246.12 281.46,-243.65 287.98,-252.01 291.77,-246.12"/>
</g>
<!-- Node30&#45;&gt;Node4 -->
<g id="edge47" class="edge">
<title>Node30&#45;&gt;Node4</title>
<path fill="none" stroke="midnightblue" d="M494.33,-343.14C417.14,-339.18 260.36,-327.87 214,-300 195.96,-289.16 182.84,-268.46 175.12,-253.33"/>
<polygon fill="midnightblue" stroke="midnightblue" points="178.1,-251.45 170.64,-243.93 171.78,-254.46 178.1,-251.45"/>
</g>
<!-- Node30&#45;&gt;Node11 -->
<g id="edge48" class="edge">
<title>Node30&#45;&gt;Node11</title>
<path fill="none" stroke="midnightblue" d="M494.28,-342.46C413.35,-337.25 243.59,-323.81 190,-300 149.38,-281.95 114,-279.45 114,-235 114,-235 114,-235 114,-121 114,-39.74 229.1,-18.28 299.88,-12.76"/>
<polygon fill="midnightblue" stroke="midnightblue" points="300.25,-16.24 309.98,-12.05 299.76,-9.26 300.25,-16.24"/>
</g>
<!-- Node30&#45;&gt;Node14 -->
<g id="edge45" class="edge">
<title>Node30&#45;&gt;Node14</title>
<path fill="none" stroke="midnightblue" d="M563.99,-336.44C593.2,-326.82 640.58,-311.22 671.52,-301.04"/>
<polygon fill="midnightblue" stroke="midnightblue" points="672.92,-304.26 681.33,-297.81 670.73,-297.61 672.92,-304.26"/>
</g>
<!-- Node30&#45;&gt;Node15 -->
<g id="edge46" class="edge">
<title>Node30&#45;&gt;Node15</title>
<path fill="none" stroke="midnightblue" d="M576.94,-336.46C613.95,-328.23 671.39,-315.14 730.44,-300.05"/>
<polygon fill="midnightblue" stroke="midnightblue" points="731.49,-303.4 740.31,-297.52 729.75,-296.62 731.49,-303.4"/>
</g>
<!-- Node30&#45;&gt;Node16 -->
<g id="edge50" class="edge">
<title>Node30&#45;&gt;Node16</title>
<path fill="none" stroke="midnightblue" d="M551.43,-336.35C572.97,-322.79 616.9,-296.38 657,-280 692.71,-265.41 734.76,-253.73 766.65,-245.93"/>
<polygon fill="midnightblue" stroke="midnightblue" points="767.72,-249.28 776.63,-243.54 766.09,-242.47 767.72,-249.28"/>
</g>
<!-- Node30&#45;&gt;Node20 -->
<g id="edge51" class="edge">
<title>Node30&#45;&gt;Node20</title>
<path fill="none" stroke="midnightblue" d="M535.03,-336.08C532.62,-328.85 529.14,-318.41 526.13,-309.4"/>
<polygon fill="midnightblue" stroke="midnightblue" points="529.4,-308.13 522.92,-299.75 522.76,-310.34 529.4,-308.13"/>
</g>
<!-- Node30&#45;&gt;Node28 -->
<g id="edge49" class="edge">
<title>Node30&#45;&gt;Node28</title>
<path fill="none" stroke="midnightblue" d="M508.53,-336.44C476.83,-327.24 426.27,-312.56 391.23,-302.39"/>
<polygon fill="midnightblue" stroke="midnightblue" points="391.91,-298.94 381.33,-299.52 389.96,-305.67 391.91,-298.94"/>
</g>
<!-- Node31&#45;&gt;Node11 -->
<g id="edge55" class="edge">
<title>Node31&#45;&gt;Node11</title>
<path fill="none" stroke="midnightblue" d="M617.37,-339.78C608.44,-338.51 598.87,-337.17 590,-336 459.06,-318.66 413.74,-357.86 295,-300 238.12,-272.29 220,-242.27 220,-179 220,-179 220,-179 220,-121 220,-70.39 277.8,-38.81 317.48,-23.09"/>
<polygon fill="midnightblue" stroke="midnightblue" points="318.77,-26.35 326.88,-19.53 316.29,-19.8 318.77,-26.35"/>
</g>
<!-- Node31&#45;&gt;Node14 -->
<g id="edge53" class="edge">
<title>Node31&#45;&gt;Node14</title>
<path fill="none" stroke="midnightblue" d="M661.09,-336.08C668.16,-328.3 678.59,-316.8 687.15,-307.37"/>
<polygon fill="midnightblue" stroke="midnightblue" points="689.93,-309.51 694.06,-299.75 684.75,-304.8 689.93,-309.51"/>
</g>
<!-- Node31&#45;&gt;Node15 -->
<g id="edge54" class="edge">
<title>Node31&#45;&gt;Node15</title>
<path fill="none" stroke="midnightblue" d="M670.67,-336.32C688.39,-327.62 715.9,-314.12 736.29,-304.11"/>
<polygon fill="midnightblue" stroke="midnightblue" points="737.94,-307.2 745.37,-299.65 734.85,-300.92 737.94,-307.2"/>
</g>
<!-- Node31&#45;&gt;Node16 -->
<g id="edge57" class="edge">
<title>Node31&#45;&gt;Node16</title>
<path fill="none" stroke="midnightblue" d="M653.07,-336.13C653.66,-322.26 656.85,-295.44 672,-280 685.08,-266.67 728.27,-254.23 763.96,-245.82"/>
<polygon fill="midnightblue" stroke="midnightblue" points="764.84,-249.21 773.8,-243.56 763.27,-242.39 764.84,-249.21"/>
</g>
<!-- Node31&#45;&gt;Node20 -->
<g id="edge58" class="edge">
<title>Node31&#45;&gt;Node20</title>
<path fill="none" stroke="midnightblue" d="M631.93,-336.44C609.94,-327.52 575.27,-313.44 550.34,-303.32"/>
<polygon fill="midnightblue" stroke="midnightblue" points="551.56,-300.04 540.98,-299.52 548.92,-306.52 551.56,-300.04"/>
</g>
<!-- Node31&#45;&gt;Node28 -->
<g id="edge56" class="edge">
<title>Node31&#45;&gt;Node28</title>
<path fill="none" stroke="midnightblue" d="M617.29,-338.59C565.95,-329.38 470.75,-312.3 409.45,-301.31"/>
<polygon fill="midnightblue" stroke="midnightblue" points="410,-297.85 399.54,-299.53 408.76,-304.74 410,-297.85"/>
</g>
</g>
</svg>
