<?xml version="1.0" encoding="UTF-8" standalone="no"?>
<!DOCTYPE svg PUBLIC "-//W3C//DTD SVG 1.1//EN"
 "http://www.w3.org/Graphics/SVG/1.1/DTD/svg11.dtd">
<!-- Generated by graphviz version 2.43.0 (0)
 -->
<!-- Title: ntp/src/pool/threadpool.cpp Pages: 1 -->
<svg width="1297pt" height="420pt"
 viewBox="0.00 0.00 1297.00 420.00" xmlns="http://www.w3.org/2000/svg" xmlns:xlink="http://www.w3.org/1999/xlink">
<g id="graph0" class="graph" transform="scale(1 1) rotate(0) translate(4 416)">
<title>ntp/src/pool/threadpool.cpp</title>
<!-- Node1 -->
<g id="node1" class="node">
<title>Node1</title>
<g id="a_node1"><a xlink:title="Threadpool implementation (traits and some helper functions)">
<polygon fill="#bfbfbf" stroke="black" points="558.5,-392.5 558.5,-411.5 707.5,-411.5 707.5,-392.5 558.5,-392.5"/>
<text text-anchor="middle" x="633" y="-399.5" font-family="Helvetica,sans-Serif" font-size="10.00">ntp/src/pool/threadpool.cpp</text>
</a>
</g>
</g>
<!-- Node2 -->
<g id="node2" class="node">
<title>Node2</title>
<g id="a_node2"><a xlink:title=" ">
<polygon fill="none" stroke="#bfbfbf" points="970,-0.5 970,-19.5 1040,-19.5 1040,-0.5 970,-0.5"/>
<text text-anchor="middle" x="1005" y="-7.5" font-family="Helvetica,sans-Serif" font-size="10.00">Windows.h</text>
</a>
</g>
</g>
<!-- Node1&#45;&gt;Node2 -->
<g id="edge1" class="edge">
<title>Node1&#45;&gt;Node2</title>
<path fill="none" stroke="midnightblue" d="M558.21,-395.73C390.71,-382.94 0,-347.09 0,-291 0,-291 0,-291 0,-121 0,-84.55 17.69,-72.87 50,-56 131.11,-13.66 780.9,-10.87 959.64,-10.91"/>
<polygon fill="midnightblue" stroke="midnightblue" points="959.75,-14.41 969.75,-10.92 959.75,-7.41 959.75,-14.41"/>
</g>
<!-- Node3 -->
<g id="node3" class="node">
<title>Node3</title>
<g id="a_node3"><a xlink:title=" ">
<polygon fill="none" stroke="#bfbfbf" points="510,-336.5 510,-355.5 558,-355.5 558,-336.5 510,-336.5"/>
<text text-anchor="middle" x="534" y="-343.5" font-family="Helvetica,sans-Serif" font-size="10.00">thread</text>
</a>
</g>
</g>
<!-- Node1&#45;&gt;Node3 -->
<g id="edge2" class="edge">
<title>Node1&#45;&gt;Node3</title>
<path fill="none" stroke="midnightblue" d="M617.09,-392.32C601.36,-383.74 577.06,-370.49 558.79,-360.52"/>
<polygon fill="midnightblue" stroke="midnightblue" points="560.32,-357.37 549.87,-355.65 556.97,-363.52 560.32,-357.37"/>
</g>
<!-- Node4 -->
<g id="node4" class="node">
<title>Node4</title>
<g id="a_node4"><a xlink:href="threadpool_8hpp.html" target="_top" xlink:title="Threadpool implementations.">
<polygon fill="none" stroke="black" points="576,-336.5 576,-355.5 690,-355.5 690,-336.5 576,-336.5"/>
<text text-anchor="middle" x="633" y="-343.5" font-family="Helvetica,sans-Serif" font-size="10.00">pool/threadpool.hpp</text>
</a>
</g>
</g>
<!-- Node1&#45;&gt;Node4 -->
<g id="edge3" class="edge">
<title>Node1&#45;&gt;Node4</title>
<path fill="none" stroke="midnightblue" d="M633,-392.08C633,-385.01 633,-374.86 633,-365.99"/>
<polygon fill="midnightblue" stroke="midnightblue" points="636.5,-365.75 633,-355.75 629.5,-365.75 636.5,-365.75"/>
</g>
<!-- Node8 -->
<g id="node8" class="node">
<title>Node8</title>
<g id="a_node8"><a xlink:href="allocator_8hpp.html" target="_top" xlink:title="Allocator implementations.">
<polygon fill="none" stroke="black" points="1134,-112.5 1134,-131.5 1250,-131.5 1250,-112.5 1134,-112.5"/>
<text text-anchor="middle" x="1192" y="-119.5" font-family="Helvetica,sans-Serif" font-size="10.00">details/allocator.hpp</text>
</a>
</g>
</g>
<!-- Node1&#45;&gt;Node8 -->
<g id="edge64" class="edge">
<title>Node1&#45;&gt;Node8</title>
<path fill="none" stroke="midnightblue" d="M707.74,-395.29C871,-381.8 1245,-345.01 1245,-291 1245,-291 1245,-291 1245,-233 1245,-196.99 1221.67,-160.34 1205.96,-139.75"/>
<polygon fill="midnightblue" stroke="midnightblue" points="1208.55,-137.38 1199.59,-131.72 1203.07,-141.73 1208.55,-137.38"/>
</g>
<!-- Node9 -->
<g id="node9" class="node">
<title>Node9</title>
<g id="a_node9"><a xlink:href="exception_8hpp.html" target="_top" xlink:title="Win32 error wrapper implementations.">
<polygon fill="none" stroke="black" points="1167,-56.5 1167,-75.5 1289,-75.5 1289,-56.5 1167,-56.5"/>
<text text-anchor="middle" x="1228" y="-63.5" font-family="Helvetica,sans-Serif" font-size="10.00">details/exception.hpp</text>
</a>
</g>
</g>
<!-- Node1&#45;&gt;Node9 -->
<g id="edge65" class="edge">
<title>Node1&#45;&gt;Node9</title>
<path fill="none" stroke="midnightblue" d="M707.84,-400.51C803.86,-398.41 974.95,-389.7 1117,-356 1194.09,-337.71 1283,-370.23 1283,-291 1283,-291 1283,-291 1283,-177 1283,-140.57 1258.57,-103.84 1242.27,-83.39"/>
<polygon fill="midnightblue" stroke="midnightblue" points="1244.95,-81.14 1235.88,-75.67 1239.56,-85.6 1244.95,-81.14"/>
</g>
<!-- Node4&#45;&gt;Node2 -->
<g id="edge4" class="edge">
<title>Node4&#45;&gt;Node2</title>
<path fill="none" stroke="midnightblue" d="M575.78,-337.1C572.81,-336.72 569.87,-336.35 567,-336 448.2,-321.52 38,-354.68 38,-235 38,-235 38,-235 38,-121 38,-86.61 50.2,-73.18 80,-56 156.62,-11.84 784.72,-10.35 959.83,-10.8"/>
<polygon fill="midnightblue" stroke="midnightblue" points="959.97,-14.3 969.98,-10.83 959.99,-7.3 959.97,-14.3"/>
</g>
<!-- Node5 -->
<g id="node5" class="node">
<title>Node5</title>
<g id="a_node5"><a xlink:title=" ">
<polygon fill="none" stroke="#bfbfbf" points="1129,-168.5 1129,-187.5 1179,-187.5 1179,-168.5 1129,-168.5"/>
<text text-anchor="middle" x="1154" y="-175.5" font-family="Helvetica,sans-Serif" font-size="10.00">chrono</text>
</a>
</g>
</g>
<!-- Node4&#45;&gt;Node5 -->
<g id="edge5" class="edge">
<title>Node4&#45;&gt;Node5</title>
<path fill="none" stroke="midnightblue" d="M690.07,-344.76C758.71,-342.81 876.5,-334.17 971,-300 1038.77,-275.49 1106.33,-221.11 1136.97,-194.41"/>
<polygon fill="midnightblue" stroke="midnightblue" points="1139.43,-196.9 1144.6,-187.66 1134.79,-191.66 1139.43,-196.9"/>
</g>
<!-- Node6 -->
<g id="node6" class="node">
<title>Node6</title>
<g id="a_node6"><a xlink:title=" ">
<polygon fill="none" stroke="#bfbfbf" points="831.5,-168.5 831.5,-187.5 900.5,-187.5 900.5,-168.5 831.5,-168.5"/>
<text text-anchor="middle" x="866" y="-175.5" font-family="Helvetica,sans-Serif" font-size="10.00">type_traits</text>
</a>
</g>
</g>
<!-- Node4&#45;&gt;Node6 -->
<g id="edge6" class="edge">
<title>Node4&#45;&gt;Node6</title>
<path fill="none" stroke="midnightblue" d="M690.26,-339.5C792.69,-328.34 1000.65,-299.29 1044,-244 1049.48,-237 1049.46,-231.01 1044,-224 1027.76,-203.15 957.87,-190.43 910.65,-184.05"/>
<polygon fill="midnightblue" stroke="midnightblue" points="911.02,-180.57 900.65,-182.75 910.11,-187.51 911.02,-180.57"/>
</g>
<!-- Node7 -->
<g id="node7" class="node">
<title>Node7</title>
<g id="a_node7"><a xlink:href="ntp__config_8hpp_source.html" target="_top" xlink:title=" ">
<polygon fill="none" stroke="black" points="721,-56.5 721,-75.5 809,-75.5 809,-56.5 721,-56.5"/>
<text text-anchor="middle" x="765" y="-63.5" font-family="Helvetica,sans-Serif" font-size="10.00">ntp_config.hpp</text>
</a>
</g>
</g>
<!-- Node4&#45;&gt;Node7 -->
<g id="edge7" class="edge">
<title>Node4&#45;&gt;Node7</title>
<path fill="none" stroke="midnightblue" d="M575.71,-337.18C488.5,-325.23 331.21,-303.42 319,-300 258.03,-282.92 228.67,-292.53 188,-244 165.99,-217.73 161.21,-199.37 175,-168 189.81,-134.31 202.3,-126.8 236,-112 319.97,-75.13 593.03,-68.39 710.48,-67.22"/>
<polygon fill="midnightblue" stroke="midnightblue" points="710.71,-70.71 720.68,-67.12 710.65,-63.71 710.71,-70.71"/>
</g>
<!-- Node4&#45;&gt;Node8 -->
<g id="edge8" class="edge">
<title>Node4&#45;&gt;Node8</title>
<path fill="none" stroke="midnightblue" d="M690.2,-345.31C764.81,-344.1 898.5,-336.39 1006,-300 1095.96,-269.55 1139.97,-269.94 1188,-188 1196.13,-174.13 1196.46,-155.62 1195.15,-141.9"/>
<polygon fill="midnightblue" stroke="midnightblue" points="1198.58,-141.16 1193.8,-131.7 1191.64,-142.08 1198.58,-141.16"/>
</g>
<!-- Node12 -->
<g id="node12" class="node">
<title>Node12</title>
<g id="a_node12"><a xlink:href="work_8hpp.html" target="_top" xlink:title="Work callback wrapper and manager implementation.">
<polygon fill="none" stroke="black" points="328,-280.5 328,-299.5 414,-299.5 414,-280.5 328,-280.5"/>
<text text-anchor="middle" x="371" y="-287.5" font-family="Helvetica,sans-Serif" font-size="10.00">pool/work.hpp</text>
</a>
</g>
</g>
<!-- Node4&#45;&gt;Node12 -->
<g id="edge15" class="edge">
<title>Node4&#45;&gt;Node12</title>
<path fill="none" stroke="midnightblue" d="M591.49,-336.44C545.59,-326.98 471.62,-311.74 422.17,-301.55"/>
<polygon fill="midnightblue" stroke="midnightblue" points="422.82,-298.11 412.32,-299.52 421.41,-304.96 422.82,-298.11"/>
</g>
<!-- Node27 -->
<g id="node27" class="node">
<title>Node27</title>
<g id="a_node27"><a xlink:href="wait_8hpp.html" target="_top" xlink:title="Implementation of threadpool wait callback.">
<polygon fill="none" stroke="black" points="643.5,-280.5 643.5,-299.5 726.5,-299.5 726.5,-280.5 643.5,-280.5"/>
<text text-anchor="middle" x="685" y="-287.5" font-family="Helvetica,sans-Serif" font-size="10.00">pool/wait.hpp</text>
</a>
</g>
</g>
<!-- Node4&#45;&gt;Node27 -->
<g id="edge38" class="edge">
<title>Node4&#45;&gt;Node27</title>
<path fill="none" stroke="midnightblue" d="M641.59,-336.08C649.16,-328.22 660.38,-316.57 669.51,-307.08"/>
<polygon fill="midnightblue" stroke="midnightblue" points="672.16,-309.38 676.57,-299.75 667.12,-304.53 672.16,-309.38"/>
</g>
<!-- Node31 -->
<g id="node31" class="node">
<title>Node31</title>
<g id="a_node31"><a xlink:href="timer_8hpp.html" target="_top" xlink:title="Implementation of threadpool timer callback.">
<polygon fill="none" stroke="black" points="538.5,-280.5 538.5,-299.5 625.5,-299.5 625.5,-280.5 538.5,-280.5"/>
<text text-anchor="middle" x="582" y="-287.5" font-family="Helvetica,sans-Serif" font-size="10.00">pool/timer.hpp</text>
</a>
</g>
</g>
<!-- Node4&#45;&gt;Node31 -->
<g id="edge50" class="edge">
<title>Node4&#45;&gt;Node31</title>
<path fill="none" stroke="midnightblue" d="M624.58,-336.08C617.15,-328.22 606.15,-316.57 597.19,-307.08"/>
<polygon fill="midnightblue" stroke="midnightblue" points="599.68,-304.62 590.26,-299.75 594.59,-309.42 599.68,-304.62"/>
</g>
<!-- Node32 -->
<g id="node32" class="node">
<title>Node32</title>
<g id="a_node32"><a xlink:href="io_8hpp.html" target="_top" xlink:title="Implementation of threadpool IO callback.">
<polygon fill="none" stroke="black" points="449.5,-280.5 449.5,-299.5 520.5,-299.5 520.5,-280.5 449.5,-280.5"/>
<text text-anchor="middle" x="485" y="-287.5" font-family="Helvetica,sans-Serif" font-size="10.00">pool/io.hpp</text>
</a>
</g>
</g>
<!-- Node4&#45;&gt;Node32 -->
<g id="edge57" class="edge">
<title>Node4&#45;&gt;Node32</title>
<path fill="none" stroke="midnightblue" d="M609.55,-336.44C584.87,-327.44 545.81,-313.19 518.02,-303.05"/>
<polygon fill="midnightblue" stroke="midnightblue" points="518.94,-299.66 508.34,-299.52 516.54,-306.23 518.94,-299.66"/>
</g>
<!-- Node8&#45;&gt;Node2 -->
<g id="edge9" class="edge">
<title>Node8&#45;&gt;Node2</title>
<path fill="none" stroke="midnightblue" d="M1183.69,-112.43C1170.26,-98.96 1142.53,-72.68 1115,-56 1092.04,-42.09 1064.02,-30.7 1042,-22.86"/>
<polygon fill="midnightblue" stroke="midnightblue" points="1042.94,-19.48 1032.34,-19.51 1040.64,-26.09 1042.94,-19.48"/>
</g>
<!-- Node8&#45;&gt;Node7 -->
<g id="edge10" class="edge">
<title>Node8&#45;&gt;Node7</title>
<path fill="none" stroke="midnightblue" d="M1133.97,-113.66C1051.09,-103.18 899.95,-84.07 819.22,-73.86"/>
<polygon fill="midnightblue" stroke="midnightblue" points="819.62,-70.38 809.26,-72.6 818.74,-77.32 819.62,-70.38"/>
</g>
<!-- Node8&#45;&gt;Node9 -->
<g id="edge11" class="edge">
<title>Node8&#45;&gt;Node9</title>
<path fill="none" stroke="midnightblue" d="M1197.94,-112.08C1202.98,-104.53 1210.34,-93.49 1216.51,-84.23"/>
<polygon fill="midnightblue" stroke="midnightblue" points="1219.53,-86.01 1222.17,-75.75 1213.71,-82.13 1219.53,-86.01"/>
</g>
<!-- Node9&#45;&gt;Node2 -->
<g id="edge12" class="edge">
<title>Node9&#45;&gt;Node2</title>
<path fill="none" stroke="midnightblue" d="M1192.66,-56.44C1154.09,-47.1 1092.22,-32.12 1050.15,-21.93"/>
<polygon fill="midnightblue" stroke="midnightblue" points="1050.71,-18.47 1040.17,-19.52 1049.07,-25.27 1050.71,-18.47"/>
</g>
<!-- Node10 -->
<g id="node10" class="node">
<title>Node10</title>
<g id="a_node10"><a xlink:title=" ">
<polygon fill="none" stroke="#bfbfbf" points="1158.5,-0.5 1158.5,-19.5 1223.5,-19.5 1223.5,-0.5 1158.5,-0.5"/>
<text text-anchor="middle" x="1191" y="-7.5" font-family="Helvetica,sans-Serif" font-size="10.00">stdexcept</text>
</a>
</g>
</g>
<!-- Node9&#45;&gt;Node10 -->
<g id="edge13" class="edge">
<title>Node9&#45;&gt;Node10</title>
<path fill="none" stroke="midnightblue" d="M1221.89,-56.08C1216.72,-48.53 1209.15,-37.49 1202.81,-28.23"/>
<polygon fill="midnightblue" stroke="midnightblue" points="1205.54,-26.02 1197,-19.75 1199.76,-29.98 1205.54,-26.02"/>
</g>
<!-- Node11 -->
<g id="node11" class="node">
<title>Node11</title>
<g id="a_node11"><a xlink:title=" ">
<polygon fill="none" stroke="#bfbfbf" points="1242,-0.5 1242,-19.5 1286,-19.5 1286,-0.5 1242,-0.5"/>
<text text-anchor="middle" x="1264" y="-7.5" font-family="Helvetica,sans-Serif" font-size="10.00">string</text>
</a>
</g>
</g>
<!-- Node9&#45;&gt;Node11 -->
<g id="edge14" class="edge">
<title>Node9&#45;&gt;Node11</title>
<path fill="none" stroke="midnightblue" d="M1233.94,-56.08C1238.98,-48.53 1246.34,-37.49 1252.51,-28.23"/>
<polygon fill="midnightblue" stroke="midnightblue" points="1255.53,-30.01 1258.17,-19.75 1249.71,-26.13 1255.53,-30.01"/>
</g>
<!-- Node12&#45;&gt;Node2 -->
<g id="edge16" class="edge">
<title>Node12&#45;&gt;Node2</title>
<path fill="none" stroke="midnightblue" d="M327.58,-281.57C281.13,-273.05 211.02,-258.41 188,-244 109.65,-194.94 32.93,-120.66 99,-56 130.04,-25.63 780.37,-14.18 959.61,-11.6"/>
<polygon fill="midnightblue" stroke="midnightblue" points="959.8,-15.1 969.75,-11.46 959.71,-8.1 959.8,-15.1"/>
</g>
<!-- Node12&#45;&gt;Node7 -->
<g id="edge20" class="edge">
<title>Node12&#45;&gt;Node7</title>
<path fill="none" stroke="midnightblue" d="M327.83,-283.04C284.61,-276.07 222.49,-263.04 208,-244 174.26,-199.68 136.24,-199.18 267,-112 303.28,-87.81 589.3,-73.88 710.75,-69"/>
<polygon fill="midnightblue" stroke="midnightblue" points="711.09,-72.49 720.94,-68.59 710.81,-65.49 711.09,-72.49"/>
</g>
<!-- Node13 -->
<g id="node13" class="node">
<title>Node13</title>
<g id="a_node13"><a xlink:title=" ">
<polygon fill="none" stroke="#bfbfbf" points="217.5,-224.5 217.5,-243.5 278.5,-243.5 278.5,-224.5 217.5,-224.5"/>
<text text-anchor="middle" x="248" y="-231.5" font-family="Helvetica,sans-Serif" font-size="10.00">atlsync.h</text>
</a>
</g>
</g>
<!-- Node12&#45;&gt;Node13 -->
<g id="edge17" class="edge">
<title>Node12&#45;&gt;Node13</title>
<path fill="none" stroke="midnightblue" d="M351.51,-280.44C331.36,-271.6 299.68,-257.69 276.67,-247.59"/>
<polygon fill="midnightblue" stroke="midnightblue" points="277.96,-244.33 267.4,-243.52 275.15,-250.74 277.96,-244.33"/>
</g>
<!-- Node14 -->
<g id="node14" class="node">
<title>Node14</title>
<g id="a_node14"><a xlink:title=" ">
<polygon fill="none" stroke="#bfbfbf" points="411.5,-224.5 411.5,-243.5 452.5,-243.5 452.5,-224.5 411.5,-224.5"/>
<text text-anchor="middle" x="432" y="-231.5" font-family="Helvetica,sans-Serif" font-size="10.00">tuple</text>
</a>
</g>
</g>
<!-- Node12&#45;&gt;Node14 -->
<g id="edge18" class="edge">
<title>Node12&#45;&gt;Node14</title>
<path fill="none" stroke="midnightblue" d="M380.8,-280.32C389.82,-272.34 403.41,-260.31 414.32,-250.65"/>
<polygon fill="midnightblue" stroke="midnightblue" points="416.85,-253.08 422.02,-243.83 412.21,-247.84 416.85,-253.08"/>
</g>
<!-- Node15 -->
<g id="node15" class="node">
<title>Node15</title>
<g id="a_node15"><a xlink:title=" ">
<polygon fill="none" stroke="#bfbfbf" points="470.5,-224.5 470.5,-243.5 515.5,-243.5 515.5,-224.5 470.5,-224.5"/>
<text text-anchor="middle" x="493" y="-231.5" font-family="Helvetica,sans-Serif" font-size="10.00">utility</text>
</a>
</g>
</g>
<!-- Node12&#45;&gt;Node15 -->
<g id="edge19" class="edge">
<title>Node12&#45;&gt;Node15</title>
<path fill="none" stroke="midnightblue" d="M390.33,-280.44C410.32,-271.6 441.74,-257.69 464.56,-247.59"/>
<polygon fill="midnightblue" stroke="midnightblue" points="466.03,-250.76 473.76,-243.52 463.2,-244.36 466.03,-250.76"/>
</g>
<!-- Node16 -->
<g id="node16" class="node">
<title>Node16</title>
<g id="a_node16"><a xlink:href="utils_8hpp.html" target="_top" xlink:title="Some useful implementation stuff.">
<polygon fill="none" stroke="black" points="255.5,-168.5 255.5,-187.5 350.5,-187.5 350.5,-168.5 255.5,-168.5"/>
<text text-anchor="middle" x="303" y="-175.5" font-family="Helvetica,sans-Serif" font-size="10.00">details/utils.hpp</text>
</a>
</g>
</g>
<!-- Node12&#45;&gt;Node16 -->
<g id="edge21" class="edge">
<title>Node12&#45;&gt;Node16</title>
<path fill="none" stroke="midnightblue" d="M365.66,-280.37C354.49,-262.3 328.45,-220.18 313.7,-196.31"/>
<polygon fill="midnightblue" stroke="midnightblue" points="316.55,-194.26 308.31,-187.59 310.59,-197.94 316.55,-194.26"/>
</g>
<!-- Node21 -->
<g id="node21" class="node">
<title>Node21</title>
<g id="a_node21"><a xlink:href="basic__callback_8hpp.html" target="_top" xlink:title="Interfaces and base classes for callback wrappers.">
<polygon fill="none" stroke="black" points="610.5,-224.5 610.5,-243.5 743.5,-243.5 743.5,-224.5 610.5,-224.5"/>
<text text-anchor="middle" x="677" y="-231.5" font-family="Helvetica,sans-Serif" font-size="10.00">pool/basic_callback.hpp</text>
</a>
</g>
</g>
<!-- Node12&#45;&gt;Node21 -->
<g id="edge28" class="edge">
<title>Node12&#45;&gt;Node21</title>
<path fill="none" stroke="midnightblue" d="M414.19,-281.38C467.69,-271.94 559.04,-255.82 618.71,-245.29"/>
<polygon fill="midnightblue" stroke="midnightblue" points="619.49,-248.7 628.73,-243.52 618.27,-241.81 619.49,-248.7"/>
</g>
<!-- Node16&#45;&gt;Node7 -->
<g id="edge23" class="edge">
<title>Node16&#45;&gt;Node7</title>
<path fill="none" stroke="midnightblue" d="M338.87,-168.46C421.94,-148.68 627.42,-99.76 719.31,-77.88"/>
<polygon fill="midnightblue" stroke="midnightblue" points="720.24,-81.26 729.15,-75.53 718.62,-74.45 720.24,-81.26"/>
</g>
<!-- Node16&#45;&gt;Node8 -->
<g id="edge27" class="edge">
<title>Node16&#45;&gt;Node8</title>
<path fill="none" stroke="midnightblue" d="M350.54,-169.12C353.74,-168.71 356.91,-168.33 360,-168 642.44,-138.14 981.03,-127.61 1123.51,-124.33"/>
<polygon fill="midnightblue" stroke="midnightblue" points="1123.92,-127.82 1133.84,-124.1 1123.76,-120.82 1123.92,-127.82"/>
</g>
<!-- Node17 -->
<g id="node17" class="node">
<title>Node17</title>
<g id="a_node17"><a xlink:title=" ">
<polygon fill="none" stroke="#bfbfbf" points="316,-112.5 316,-131.5 366,-131.5 366,-112.5 316,-112.5"/>
<text text-anchor="middle" x="341" y="-119.5" font-family="Helvetica,sans-Serif" font-size="10.00">atomic</text>
</a>
</g>
</g>
<!-- Node16&#45;&gt;Node17 -->
<g id="edge22" class="edge">
<title>Node16&#45;&gt;Node17</title>
<path fill="none" stroke="midnightblue" d="M309.27,-168.08C314.64,-160.46 322.52,-149.26 329.08,-139.94"/>
<polygon fill="midnightblue" stroke="midnightblue" points="331.95,-141.94 334.84,-131.75 326.22,-137.91 331.95,-141.94"/>
</g>
<!-- Node18 -->
<g id="node18" class="node">
<title>Node18</title>
<g id="a_node18"><a xlink:href="ntrtl_8h.html" target="_top" xlink:title="Contains necessary declarations/definitions of internal windows objects and functions.">
<polygon fill="none" stroke="black" points="104,-112.5 104,-131.5 184,-131.5 184,-112.5 104,-112.5"/>
<text text-anchor="middle" x="144" y="-119.5" font-family="Helvetica,sans-Serif" font-size="10.00">native/ntrtl.h</text>
</a>
</g>
</g>
<!-- Node16&#45;&gt;Node18 -->
<g id="edge24" class="edge">
<title>Node16&#45;&gt;Node18</title>
<path fill="none" stroke="midnightblue" d="M277.81,-168.44C251.06,-159.36 208.6,-144.94 178.69,-134.78"/>
<polygon fill="midnightblue" stroke="midnightblue" points="179.67,-131.42 169.08,-131.52 177.42,-138.05 179.67,-131.42"/>
</g>
<!-- Node19 -->
<g id="node19" class="node">
<title>Node19</title>
<g id="a_node19"><a xlink:title=" ">
<polygon fill="none" stroke="#bfbfbf" points="192,-56.5 192,-75.5 260,-75.5 260,-56.5 192,-56.5"/>
<text text-anchor="middle" x="226" y="-63.5" font-family="Helvetica,sans-Serif" font-size="10.00">windows.h</text>
</a>
</g>
</g>
<!-- Node18&#45;&gt;Node19 -->
<g id="edge25" class="edge">
<title>Node18&#45;&gt;Node19</title>
<path fill="none" stroke="midnightblue" d="M157.17,-112.32C169.85,-103.98 189.23,-91.21 204.21,-81.35"/>
<polygon fill="midnightblue" stroke="midnightblue" points="206.43,-84.08 212.86,-75.65 202.58,-78.23 206.43,-84.08"/>
</g>
<!-- Node20 -->
<g id="node20" class="node">
<title>Node20</title>
<g id="a_node20"><a xlink:title=" ">
<polygon fill="none" stroke="#bfbfbf" points="108.5,-56.5 108.5,-75.5 173.5,-75.5 173.5,-56.5 108.5,-56.5"/>
<text text-anchor="middle" x="141" y="-63.5" font-family="Helvetica,sans-Serif" font-size="10.00">winternl.h</text>
</a>
</g>
</g>
<!-- Node18&#45;&gt;Node20 -->
<g id="edge26" class="edge">
<title>Node18&#45;&gt;Node20</title>
<path fill="none" stroke="midnightblue" d="M143.5,-112.08C143.11,-105.01 142.55,-94.86 142.05,-85.99"/>
<polygon fill="midnightblue" stroke="midnightblue" points="145.54,-85.54 141.49,-75.75 138.55,-85.93 145.54,-85.54"/>
</g>
<!-- Node21&#45;&gt;Node2 -->
<g id="edge29" class="edge">
<title>Node21&#45;&gt;Node2</title>
<path fill="none" stroke="midnightblue" d="M695.45,-224.49C713.38,-215.99 741.17,-202.17 764,-188 850.94,-134.05 946.86,-58.26 986.4,-26.23"/>
<polygon fill="midnightblue" stroke="midnightblue" points="988.83,-28.77 994.38,-19.75 984.41,-23.34 988.83,-28.77"/>
</g>
<!-- Node21&#45;&gt;Node6 -->
<g id="edge34" class="edge">
<title>Node21&#45;&gt;Node6</title>
<path fill="none" stroke="midnightblue" d="M706.95,-224.44C739.16,-215.24 790.53,-200.56 826.14,-190.39"/>
<polygon fill="midnightblue" stroke="midnightblue" points="827.54,-193.63 836.19,-187.52 825.62,-186.9 827.54,-193.63"/>
</g>
<!-- Node21&#45;&gt;Node7 -->
<g id="edge36" class="edge">
<title>Node21&#45;&gt;Node7</title>
<path fill="none" stroke="midnightblue" d="M698.97,-224.47C714.66,-217.2 734.89,-205.17 746,-188 766.34,-156.57 767.69,-111.15 766.55,-85.84"/>
<polygon fill="midnightblue" stroke="midnightblue" points="770.04,-85.51 765.91,-75.75 763.05,-85.95 770.04,-85.51"/>
</g>
<!-- Node21&#45;&gt;Node16 -->
<g id="edge37" class="edge">
<title>Node21&#45;&gt;Node16</title>
<path fill="none" stroke="midnightblue" d="M615,-224.49C553.25,-215.95 455.47,-202.24 360.63,-188.07"/>
<polygon fill="midnightblue" stroke="midnightblue" points="360.99,-184.59 350.58,-186.57 359.95,-191.51 360.99,-184.59"/>
</g>
<!-- Node22 -->
<g id="node22" class="node">
<title>Node22</title>
<g id="a_node22"><a xlink:title=" ">
<polygon fill="none" stroke="#bfbfbf" points="633,-168.5 633,-187.5 671,-187.5 671,-168.5 633,-168.5"/>
<text text-anchor="middle" x="652" y="-175.5" font-family="Helvetica,sans-Serif" font-size="10.00">map</text>
</a>
</g>
</g>
<!-- Node21&#45;&gt;Node22 -->
<g id="edge30" class="edge">
<title>Node21&#45;&gt;Node22</title>
<path fill="none" stroke="midnightblue" d="M672.87,-224.08C669.49,-216.77 664.58,-206.18 660.38,-197.1"/>
<polygon fill="midnightblue" stroke="midnightblue" points="663.43,-195.36 656.05,-187.75 657.08,-198.3 663.43,-195.36"/>
</g>
<!-- Node23 -->
<g id="node23" class="node">
<title>Node23</title>
<g id="a_node23"><a xlink:title=" ">
<polygon fill="none" stroke="#bfbfbf" points="689,-168.5 689,-187.5 737,-187.5 737,-168.5 689,-168.5"/>
<text text-anchor="middle" x="713" y="-175.5" font-family="Helvetica,sans-Serif" font-size="10.00">mutex</text>
</a>
</g>
</g>
<!-- Node21&#45;&gt;Node23 -->
<g id="edge31" class="edge">
<title>Node21&#45;&gt;Node23</title>
<path fill="none" stroke="midnightblue" d="M682.94,-224.08C687.98,-216.53 695.34,-205.49 701.51,-196.23"/>
<polygon fill="midnightblue" stroke="midnightblue" points="704.53,-198.01 707.17,-187.75 698.71,-194.13 704.53,-198.01"/>
</g>
<!-- Node24 -->
<g id="node24" class="node">
<title>Node24</title>
<g id="a_node24"><a xlink:title=" ">
<polygon fill="none" stroke="#bfbfbf" points="369,-168.5 369,-187.5 427,-187.5 427,-168.5 369,-168.5"/>
<text text-anchor="middle" x="398" y="-175.5" font-family="Helvetica,sans-Serif" font-size="10.00">memory</text>
</a>
</g>
</g>
<!-- Node21&#45;&gt;Node24 -->
<g id="edge32" class="edge">
<title>Node21&#45;&gt;Node24</title>
<path fill="none" stroke="midnightblue" d="M628.16,-224.45C581.76,-216.2 509.8,-203.04 437.55,-188.04"/>
<polygon fill="midnightblue" stroke="midnightblue" points="437.86,-184.53 427.36,-185.91 436.43,-191.38 437.86,-184.53"/>
</g>
<!-- Node25 -->
<g id="node25" class="node">
<title>Node25</title>
<g id="a_node25"><a xlink:title=" ">
<polygon fill="none" stroke="#bfbfbf" points="445.5,-168.5 445.5,-187.5 510.5,-187.5 510.5,-168.5 445.5,-168.5"/>
<text text-anchor="middle" x="478" y="-175.5" font-family="Helvetica,sans-Serif" font-size="10.00">functional</text>
</a>
</g>
</g>
<!-- Node21&#45;&gt;Node25 -->
<g id="edge33" class="edge">
<title>Node21&#45;&gt;Node25</title>
<path fill="none" stroke="midnightblue" d="M645.47,-224.44C611.41,-215.2 556.99,-200.44 519.48,-190.26"/>
<polygon fill="midnightblue" stroke="midnightblue" points="519.95,-186.76 509.38,-187.52 518.12,-193.51 519.95,-186.76"/>
</g>
<!-- Node26 -->
<g id="node26" class="node">
<title>Node26</title>
<g id="a_node26"><a xlink:title=" ">
<polygon fill="none" stroke="#bfbfbf" points="529,-168.5 529,-187.5 615,-187.5 615,-168.5 529,-168.5"/>
<text text-anchor="middle" x="572" y="-175.5" font-family="Helvetica,sans-Serif" font-size="10.00">shared_mutex</text>
</a>
</g>
</g>
<!-- Node21&#45;&gt;Node26 -->
<g id="edge35" class="edge">
<title>Node21&#45;&gt;Node26</title>
<path fill="none" stroke="midnightblue" d="M660.13,-224.32C643.29,-215.66 617.19,-202.24 597.76,-192.25"/>
<polygon fill="midnightblue" stroke="midnightblue" points="599.32,-189.12 588.83,-187.65 596.12,-195.34 599.32,-189.12"/>
</g>
<!-- Node27&#45;&gt;Node7 -->
<g id="edge42" class="edge">
<title>Node27&#45;&gt;Node7</title>
<path fill="none" stroke="midnightblue" d="M726.71,-286.82C816.83,-281.7 1023.27,-267.49 1044,-244 1086.89,-195.4 1036.09,-147.71 982,-112 933.34,-79.88 866.25,-70.02 819.6,-67.32"/>
<polygon fill="midnightblue" stroke="midnightblue" points="819.54,-63.81 809.39,-66.82 819.2,-70.8 819.54,-63.81"/>
</g>
<!-- Node27&#45;&gt;Node14 -->
<g id="edge39" class="edge">
<title>Node27&#45;&gt;Node14</title>
<path fill="none" stroke="midnightblue" d="M643.16,-281.04C592.32,-271.28 508.57,-254.95 462.39,-243.87"/>
<polygon fill="midnightblue" stroke="midnightblue" points="463.13,-240.45 452.59,-241.45 461.46,-247.24 463.13,-240.45"/>
</g>
<!-- Node27&#45;&gt;Node15 -->
<g id="edge40" class="edge">
<title>Node27&#45;&gt;Node15</title>
<path fill="none" stroke="midnightblue" d="M654.58,-280.44C619.45,-270.56 561.88,-254.37 525.79,-244.22"/>
<polygon fill="midnightblue" stroke="midnightblue" points="526.34,-240.74 515.76,-241.4 524.44,-247.48 526.34,-240.74"/>
</g>
<!-- Node27&#45;&gt;Node16 -->
<g id="edge48" class="edge">
<title>Node27&#45;&gt;Node16</title>
<path fill="none" stroke="midnightblue" d="M670.56,-280.43C646.43,-266.5 596.01,-238.97 550,-224 532.28,-218.24 428.06,-200.1 360.78,-188.69"/>
<polygon fill="midnightblue" stroke="midnightblue" points="361.17,-185.2 350.73,-186.99 360,-192.11 361.17,-185.2"/>
</g>
<!-- Node27&#45;&gt;Node21 -->
<g id="edge49" class="edge">
<title>Node27&#45;&gt;Node21</title>
<path fill="none" stroke="midnightblue" d="M683.68,-280.08C682.62,-272.93 681.09,-262.64 679.77,-253.69"/>
<polygon fill="midnightblue" stroke="midnightblue" points="683.22,-253.13 678.3,-243.75 676.3,-254.16 683.22,-253.13"/>
</g>
<!-- Node28 -->
<g id="node28" class="node">
<title>Node28</title>
<g id="a_node28"><a xlink:title=" ">
<polygon fill="none" stroke="#bfbfbf" points="979,-224.5 979,-243.5 1035,-243.5 1035,-224.5 979,-224.5"/>
<text text-anchor="middle" x="1007" y="-231.5" font-family="Helvetica,sans-Serif" font-size="10.00">optional</text>
</a>
</g>
</g>
<!-- Node27&#45;&gt;Node28 -->
<g id="edge41" class="edge">
<title>Node27&#45;&gt;Node28</title>
<path fill="none" stroke="midnightblue" d="M726.73,-283.5C780.47,-276.19 876.96,-262.24 968.76,-244.12"/>
<polygon fill="midnightblue" stroke="midnightblue" points="969.65,-247.51 978.77,-242.12 968.28,-240.64 969.65,-247.51"/>
</g>
<!-- Node29 -->
<g id="node29" class="node">
<title>Node29</title>
<g id="a_node29"><a xlink:href="time_8hpp.html" target="_top" xlink:title="Utils to work with std::chrono.">
<polygon fill="none" stroke="black" points="865,-224.5 865,-243.5 961,-243.5 961,-224.5 865,-224.5"/>
<text text-anchor="middle" x="913" y="-231.5" font-family="Helvetica,sans-Serif" font-size="10.00">details/time.hpp</text>
</a>
</g>
</g>
<!-- Node27&#45;&gt;Node29 -->
<g id="edge43" class="edge">
<title>Node27&#45;&gt;Node29</title>
<path fill="none" stroke="midnightblue" d="M721.13,-280.44C760.65,-271.08 824.1,-256.06 867.11,-245.87"/>
<polygon fill="midnightblue" stroke="midnightblue" points="868.12,-249.23 877.04,-243.52 866.5,-242.42 868.12,-249.23"/>
</g>
<!-- Node29&#45;&gt;Node2 -->
<g id="edge44" class="edge">
<title>Node29&#45;&gt;Node2</title>
<path fill="none" stroke="midnightblue" d="M961.17,-225.41C983.31,-219.25 1007.59,-208.11 1021,-188 1054.04,-138.44 1028.16,-62.99 1013.42,-28.86"/>
<polygon fill="midnightblue" stroke="midnightblue" points="1016.58,-27.36 1009.29,-19.68 1010.2,-30.23 1016.58,-27.36"/>
</g>
<!-- Node29&#45;&gt;Node5 -->
<g id="edge46" class="edge">
<title>Node29&#45;&gt;Node5</title>
<path fill="none" stroke="midnightblue" d="M951.74,-224.46C992.42,-215.47 1058.24,-200.87 1115,-188 1116.26,-187.71 1117.54,-187.42 1118.83,-187.13"/>
<polygon fill="midnightblue" stroke="midnightblue" points="1119.87,-190.48 1128.83,-184.84 1118.3,-183.66 1119.87,-190.48"/>
</g>
<!-- Node29&#45;&gt;Node7 -->
<g id="edge47" class="edge">
<title>Node29&#45;&gt;Node7</title>
<path fill="none" stroke="midnightblue" d="M948.17,-224.47C979.6,-214.84 1018.87,-196.66 1006,-168 974.68,-98.27 880.18,-76.57 819.24,-69.89"/>
<polygon fill="midnightblue" stroke="midnightblue" points="819.32,-66.38 809.02,-68.88 818.62,-73.35 819.32,-66.38"/>
</g>
<!-- Node30 -->
<g id="node30" class="node">
<title>Node30</title>
<g id="a_node30"><a xlink:title=" ">
<polygon fill="none" stroke="#bfbfbf" points="957.5,-168.5 957.5,-187.5 996.5,-187.5 996.5,-168.5 957.5,-168.5"/>
<text text-anchor="middle" x="977" y="-175.5" font-family="Helvetica,sans-Serif" font-size="10.00">ratio</text>
</a>
</g>
</g>
<!-- Node29&#45;&gt;Node30 -->
<g id="edge45" class="edge">
<title>Node29&#45;&gt;Node30</title>
<path fill="none" stroke="midnightblue" d="M923.28,-224.32C932.84,-216.26 947.28,-204.08 958.78,-194.37"/>
<polygon fill="midnightblue" stroke="midnightblue" points="961.14,-196.96 966.53,-187.83 956.63,-191.61 961.14,-196.96"/>
</g>
<!-- Node31&#45;&gt;Node7 -->
<g id="edge53" class="edge">
<title>Node31&#45;&gt;Node7</title>
<path fill="none" stroke="midnightblue" d="M618.22,-280.48C699.91,-260.9 892.73,-212.5 910,-188 944.59,-138.93 855.52,-98.16 801.99,-78.91"/>
<polygon fill="midnightblue" stroke="midnightblue" points="803.04,-75.57 792.45,-75.57 800.73,-82.18 803.04,-75.57"/>
</g>
<!-- Node31&#45;&gt;Node14 -->
<g id="edge51" class="edge">
<title>Node31&#45;&gt;Node14</title>
<path fill="none" stroke="midnightblue" d="M558.23,-280.44C532.33,-271.12 490.82,-256.18 462.53,-245.99"/>
<polygon fill="midnightblue" stroke="midnightblue" points="463.35,-242.57 452.76,-242.47 460.98,-249.15 463.35,-242.57"/>
</g>
<!-- Node31&#45;&gt;Node15 -->
<g id="edge52" class="edge">
<title>Node31&#45;&gt;Node15</title>
<path fill="none" stroke="midnightblue" d="M567.7,-280.32C553.82,-271.9 532.51,-258.97 516.2,-249.07"/>
<polygon fill="midnightblue" stroke="midnightblue" points="517.63,-245.85 507.26,-243.65 514,-251.83 517.63,-245.85"/>
</g>
<!-- Node31&#45;&gt;Node16 -->
<g id="edge55" class="edge">
<title>Node31&#45;&gt;Node16</title>
<path fill="none" stroke="midnightblue" d="M576.96,-280.22C568.3,-265.97 549.15,-238 525,-224 510.86,-215.8 421.46,-199.27 360.52,-188.69"/>
<polygon fill="midnightblue" stroke="midnightblue" points="361.07,-185.24 350.62,-186.98 359.88,-192.13 361.07,-185.24"/>
</g>
<!-- Node31&#45;&gt;Node21 -->
<g id="edge56" class="edge">
<title>Node31&#45;&gt;Node21</title>
<path fill="none" stroke="midnightblue" d="M597.26,-280.32C612.22,-271.82 635.25,-258.73 652.73,-248.8"/>
<polygon fill="midnightblue" stroke="midnightblue" points="654.81,-251.64 661.77,-243.65 651.35,-245.55 654.81,-251.64"/>
</g>
<!-- Node31&#45;&gt;Node29 -->
<g id="edge54" class="edge">
<title>Node31&#45;&gt;Node29</title>
<path fill="none" stroke="midnightblue" d="M625.67,-281.56C628.83,-281.03 631.96,-280.5 635,-280 710.83,-267.42 798.37,-253.32 854.64,-244.31"/>
<polygon fill="midnightblue" stroke="midnightblue" points="855.45,-247.73 864.77,-242.69 854.34,-240.82 855.45,-247.73"/>
</g>
<!-- Node32&#45;&gt;Node7 -->
<g id="edge60" class="edge">
<title>Node32&#45;&gt;Node7</title>
<path fill="none" stroke="midnightblue" d="M453.43,-280.44C394.03,-263.62 269.53,-224.69 246,-188 241.2,-180.52 242.42,-176.14 246,-168 260.81,-134.31 273.4,-127.02 307,-112 377.94,-80.29 605.51,-70.79 710.72,-68.05"/>
<polygon fill="midnightblue" stroke="midnightblue" points="710.9,-71.55 720.81,-67.8 710.73,-64.55 710.9,-71.55"/>
</g>
<!-- Node32&#45;&gt;Node14 -->
<g id="edge58" class="edge">
<title>Node32&#45;&gt;Node14</title>
<path fill="none" stroke="midnightblue" d="M476.25,-280.08C468.53,-272.22 457.1,-260.57 447.78,-251.08"/>
<polygon fill="midnightblue" stroke="midnightblue" points="450.09,-248.44 440.59,-243.75 445.1,-253.34 450.09,-248.44"/>
</g>
<!-- Node32&#45;&gt;Node15 -->
<g id="edge59" class="edge">
<title>Node32&#45;&gt;Node15</title>
<path fill="none" stroke="midnightblue" d="M486.32,-280.08C487.38,-272.93 488.91,-262.64 490.23,-253.69"/>
<polygon fill="midnightblue" stroke="midnightblue" points="493.7,-254.16 491.7,-243.75 486.78,-253.13 493.7,-254.16"/>
</g>
<!-- Node32&#45;&gt;Node16 -->
<g id="edge62" class="edge">
<title>Node32&#45;&gt;Node16</title>
<path fill="none" stroke="midnightblue" d="M468.46,-280.39C451.75,-271.58 425.3,-257.34 403,-244 375.11,-227.31 343.83,-206.65 323.8,-193.17"/>
<polygon fill="midnightblue" stroke="midnightblue" points="325.68,-190.22 315.44,-187.51 321.76,-196.01 325.68,-190.22"/>
</g>
<!-- Node32&#45;&gt;Node21 -->
<g id="edge63" class="edge">
<title>Node32&#45;&gt;Node21</title>
<path fill="none" stroke="midnightblue" d="M515.42,-280.44C548.28,-271.2 600.78,-256.44 636.97,-246.26"/>
<polygon fill="midnightblue" stroke="midnightblue" points="638.04,-249.59 646.72,-243.52 636.15,-242.85 638.04,-249.59"/>
</g>
<!-- Node32&#45;&gt;Node29 -->
<g id="edge61" class="edge">
<title>Node32&#45;&gt;Node29</title>
<path fill="none" stroke="midnightblue" d="M520.81,-281.57C523.92,-281.01 527.01,-280.47 530,-280 644.47,-261.86 779.26,-247.68 854.54,-240.39"/>
<polygon fill="midnightblue" stroke="midnightblue" points="855.14,-243.85 864.76,-239.41 854.47,-236.88 855.14,-243.85"/>
</g>
</g>
</svg>
