<?xml version="1.0" encoding="UTF-8" standalone="no"?>
<!DOCTYPE svg PUBLIC "-//W3C//DTD SVG 1.1//EN"
 "http://www.w3.org/Graphics/SVG/1.1/DTD/svg11.dtd">
<!-- Generated by graphviz version 2.43.0 (0)
 -->
<!-- Title: ntp/src/pool/threadpool.cpp Pages: 1 -->
<svg width="1328pt" height="420pt"
 viewBox="0.00 0.00 1328.00 420.00" xmlns="http://www.w3.org/2000/svg" xmlns:xlink="http://www.w3.org/1999/xlink">
<g id="graph0" class="graph" transform="scale(1 1) rotate(0) translate(4 416)">
<title>ntp/src/pool/threadpool.cpp</title>
<!-- Node1 -->
<g id="node1" class="node">
<title>Node1</title>
<g id="a_node1"><a xlink:title="Threadpool implementation (traits and some helper functions)">
<polygon fill="#bfbfbf" stroke="black" points="583.5,-392.5 583.5,-411.5 732.5,-411.5 732.5,-392.5 583.5,-392.5"/>
<text text-anchor="middle" x="658" y="-399.5" font-family="Helvetica,sans-Serif" font-size="10.00">ntp/src/pool/threadpool.cpp</text>
</a>
</g>
</g>
<!-- Node2 -->
<g id="node2" class="node">
<title>Node2</title>
<g id="a_node2"><a xlink:title=" ">
<polygon fill="none" stroke="#bfbfbf" points="889,-0.5 889,-19.5 959,-19.5 959,-0.5 889,-0.5"/>
<text text-anchor="middle" x="924" y="-7.5" font-family="Helvetica,sans-Serif" font-size="10.00">Windows.h</text>
</a>
</g>
</g>
<!-- Node1&#45;&gt;Node2 -->
<g id="edge1" class="edge">
<title>Node1&#45;&gt;Node2</title>
<path fill="none" stroke="midnightblue" d="M583.48,-396.26C411.21,-384.29 0,-349.6 0,-291 0,-291 0,-291 0,-121 0,-64.21 55.66,-72.48 110,-56 255.33,-11.92 729.01,-10.12 878.42,-10.69"/>
<polygon fill="midnightblue" stroke="midnightblue" points="878.59,-14.19 888.61,-10.74 878.63,-7.19 878.59,-14.19"/>
</g>
<!-- Node3 -->
<g id="node3" class="node">
<title>Node3</title>
<g id="a_node3"><a xlink:title=" ">
<polygon fill="none" stroke="#bfbfbf" points="535,-336.5 535,-355.5 583,-355.5 583,-336.5 535,-336.5"/>
<text text-anchor="middle" x="559" y="-343.5" font-family="Helvetica,sans-Serif" font-size="10.00">thread</text>
</a>
</g>
</g>
<!-- Node1&#45;&gt;Node3 -->
<g id="edge2" class="edge">
<title>Node1&#45;&gt;Node3</title>
<path fill="none" stroke="midnightblue" d="M642.09,-392.32C626.36,-383.74 602.06,-370.49 583.79,-360.52"/>
<polygon fill="midnightblue" stroke="midnightblue" points="585.32,-357.37 574.87,-355.65 581.97,-363.52 585.32,-357.37"/>
</g>
<!-- Node4 -->
<g id="node4" class="node">
<title>Node4</title>
<g id="a_node4"><a xlink:href="threadpool_8hpp.html" target="_top" xlink:title="Threadpool implementations.">
<polygon fill="none" stroke="black" points="601,-336.5 601,-355.5 715,-355.5 715,-336.5 601,-336.5"/>
<text text-anchor="middle" x="658" y="-343.5" font-family="Helvetica,sans-Serif" font-size="10.00">pool/threadpool.hpp</text>
</a>
</g>
</g>
<!-- Node1&#45;&gt;Node4 -->
<g id="edge3" class="edge">
<title>Node1&#45;&gt;Node4</title>
<path fill="none" stroke="midnightblue" d="M658,-392.08C658,-385.01 658,-374.86 658,-365.99"/>
<polygon fill="midnightblue" stroke="midnightblue" points="661.5,-365.75 658,-355.75 654.5,-365.75 661.5,-365.75"/>
</g>
<!-- Node8 -->
<g id="node8" class="node">
<title>Node8</title>
<g id="a_node8"><a xlink:href="allocator_8hpp.html" target="_top" xlink:title="Allocator implementations.">
<polygon fill="none" stroke="black" points="1160,-112.5 1160,-131.5 1276,-131.5 1276,-112.5 1160,-112.5"/>
<text text-anchor="middle" x="1218" y="-119.5" font-family="Helvetica,sans-Serif" font-size="10.00">details/allocator.hpp</text>
</a>
</g>
</g>
<!-- Node1&#45;&gt;Node8 -->
<g id="edge62" class="edge">
<title>Node1&#45;&gt;Node8</title>
<path fill="none" stroke="midnightblue" d="M732.54,-401.64C884.32,-400.92 1215,-388.21 1215,-291 1215,-291 1215,-291 1215,-233 1215,-200.94 1216.29,-163.63 1217.18,-141.74"/>
<polygon fill="midnightblue" stroke="midnightblue" points="1220.68,-141.69 1217.61,-131.56 1213.69,-141.4 1220.68,-141.69"/>
</g>
<!-- Node9 -->
<g id="node9" class="node">
<title>Node9</title>
<g id="a_node9"><a xlink:href="exception_8hpp.html" target="_top" xlink:title="Win32 error wrapper implementations.">
<polygon fill="none" stroke="black" points="1198,-56.5 1198,-75.5 1320,-75.5 1320,-56.5 1198,-56.5"/>
<text text-anchor="middle" x="1259" y="-63.5" font-family="Helvetica,sans-Serif" font-size="10.00">details/exception.hpp</text>
</a>
</g>
</g>
<!-- Node1&#45;&gt;Node9 -->
<g id="edge63" class="edge">
<title>Node1&#45;&gt;Node9</title>
<path fill="none" stroke="midnightblue" d="M732.88,-398.14C856.42,-392.82 1097.38,-379.72 1179,-356 1239.13,-338.52 1304,-353.62 1304,-291 1304,-291 1304,-291 1304,-177 1304,-141.93 1284.16,-104.94 1270.83,-84.04"/>
<polygon fill="midnightblue" stroke="midnightblue" points="1273.7,-82.03 1265.26,-75.63 1267.87,-85.9 1273.7,-82.03"/>
</g>
<!-- Node4&#45;&gt;Node2 -->
<g id="edge4" class="edge">
<title>Node4&#45;&gt;Node2</title>
<path fill="none" stroke="midnightblue" d="M600.78,-337.06C597.81,-336.69 594.87,-336.33 592,-336 467.7,-321.53 38,-360.14 38,-235 38,-235 38,-235 38,-121 38,-35.37 698.14,-15.61 878.78,-11.81"/>
<polygon fill="midnightblue" stroke="midnightblue" points="879.07,-15.3 888.99,-11.6 878.93,-8.3 879.07,-15.3"/>
</g>
<!-- Node5 -->
<g id="node5" class="node">
<title>Node5</title>
<g id="a_node5"><a xlink:title=" ">
<polygon fill="none" stroke="#bfbfbf" points="104,-168.5 104,-187.5 154,-187.5 154,-168.5 104,-168.5"/>
<text text-anchor="middle" x="129" y="-175.5" font-family="Helvetica,sans-Serif" font-size="10.00">chrono</text>
</a>
</g>
</g>
<!-- Node4&#45;&gt;Node5 -->
<g id="edge5" class="edge">
<title>Node4&#45;&gt;Node5</title>
<path fill="none" stroke="midnightblue" d="M600.7,-337.02C511.79,-324.62 350.09,-301.9 344,-300 290.88,-283.39 280.48,-271.33 232,-244 203.09,-227.7 170.91,-206.95 150.34,-193.34"/>
<polygon fill="midnightblue" stroke="midnightblue" points="152.02,-190.26 141.76,-187.63 148.14,-196.08 152.02,-190.26"/>
</g>
<!-- Node6 -->
<g id="node6" class="node">
<title>Node6</title>
<g id="a_node6"><a xlink:title=" ">
<polygon fill="none" stroke="#bfbfbf" points="172.5,-168.5 172.5,-187.5 241.5,-187.5 241.5,-168.5 172.5,-168.5"/>
<text text-anchor="middle" x="207" y="-175.5" font-family="Helvetica,sans-Serif" font-size="10.00">type_traits</text>
</a>
</g>
</g>
<!-- Node4&#45;&gt;Node6 -->
<g id="edge6" class="edge">
<title>Node4&#45;&gt;Node6</title>
<path fill="none" stroke="midnightblue" d="M606.35,-336.44C511.43,-320 313.65,-282.23 256,-244 238.2,-232.2 224.34,-211.68 215.97,-196.85"/>
<polygon fill="midnightblue" stroke="midnightblue" points="218.87,-194.84 211.07,-187.66 212.69,-198.13 218.87,-194.84"/>
</g>
<!-- Node7 -->
<g id="node7" class="node">
<title>Node7</title>
<g id="a_node7"><a xlink:href="ntp__config_8hpp_source.html" target="_top" xlink:title=" ">
<polygon fill="none" stroke="black" points="766,-56.5 766,-75.5 854,-75.5 854,-56.5 766,-56.5"/>
<text text-anchor="middle" x="810" y="-63.5" font-family="Helvetica,sans-Serif" font-size="10.00">ntp_config.hpp</text>
</a>
</g>
</g>
<!-- Node4&#45;&gt;Node7 -->
<g id="edge7" class="edge">
<title>Node4&#45;&gt;Node7</title>
<path fill="none" stroke="midnightblue" d="M600.77,-337.14C597.8,-336.75 594.87,-336.37 592,-336 458.36,-318.9 418.93,-342.27 291,-300 191.28,-267.05 29.02,-249.71 95,-168 136.59,-116.49 596.36,-81.22 755.88,-70.46"/>
<polygon fill="midnightblue" stroke="midnightblue" points="756.2,-73.95 765.94,-69.79 755.73,-66.96 756.2,-73.95"/>
</g>
<!-- Node4&#45;&gt;Node8 -->
<g id="edge8" class="edge">
<title>Node4&#45;&gt;Node8</title>
<path fill="none" stroke="midnightblue" d="M715.26,-339.49C829.21,-327.52 1079.16,-295.99 1146,-244 1164.12,-229.9 1194.42,-171.34 1209.26,-141.16"/>
<polygon fill="midnightblue" stroke="midnightblue" points="1212.59,-142.31 1213.82,-131.79 1206.3,-139.25 1212.59,-142.31"/>
</g>
<!-- Node12 -->
<g id="node12" class="node">
<title>Node12</title>
<g id="a_node12"><a xlink:href="work_8hpp.html" target="_top" xlink:title="Work callback wrapper and manager implementation.">
<polygon fill="none" stroke="black" points="862,-280.5 862,-299.5 948,-299.5 948,-280.5 862,-280.5"/>
<text text-anchor="middle" x="905" y="-287.5" font-family="Helvetica,sans-Serif" font-size="10.00">pool/work.hpp</text>
</a>
</g>
</g>
<!-- Node4&#45;&gt;Node12 -->
<g id="edge15" class="edge">
<title>Node4&#45;&gt;Node12</title>
<path fill="none" stroke="midnightblue" d="M697.14,-336.44C740.23,-327.02 809.56,-311.87 856.17,-301.68"/>
<polygon fill="midnightblue" stroke="midnightblue" points="857.02,-305.07 866.05,-299.52 855.53,-298.23 857.02,-305.07"/>
</g>
<!-- Node25 -->
<g id="node25" class="node">
<title>Node25</title>
<g id="a_node25"><a xlink:href="wait_8hpp.html" target="_top" xlink:title="Implementation of threadpool wait callback.">
<polygon fill="none" stroke="black" points="760.5,-280.5 760.5,-299.5 843.5,-299.5 843.5,-280.5 760.5,-280.5"/>
<text text-anchor="middle" x="802" y="-287.5" font-family="Helvetica,sans-Serif" font-size="10.00">pool/wait.hpp</text>
</a>
</g>
</g>
<!-- Node4&#45;&gt;Node25 -->
<g id="edge36" class="edge">
<title>Node4&#45;&gt;Node25</title>
<path fill="none" stroke="midnightblue" d="M680.82,-336.44C704.83,-327.44 742.83,-313.19 769.87,-303.05"/>
<polygon fill="midnightblue" stroke="midnightblue" points="771.16,-306.3 779.29,-299.52 768.7,-299.75 771.16,-306.3"/>
</g>
<!-- Node29 -->
<g id="node29" class="node">
<title>Node29</title>
<g id="a_node29"><a xlink:href="timer_8hpp.html" target="_top" xlink:title="Implementation of threadpool timer callback.">
<polygon fill="none" stroke="black" points="566.5,-280.5 566.5,-299.5 653.5,-299.5 653.5,-280.5 566.5,-280.5"/>
<text text-anchor="middle" x="610" y="-287.5" font-family="Helvetica,sans-Serif" font-size="10.00">pool/timer.hpp</text>
</a>
</g>
</g>
<!-- Node4&#45;&gt;Node29 -->
<g id="edge48" class="edge">
<title>Node4&#45;&gt;Node29</title>
<path fill="none" stroke="midnightblue" d="M650.07,-336.08C643.15,-328.3 632.93,-316.8 624.55,-307.37"/>
<polygon fill="midnightblue" stroke="midnightblue" points="627.04,-304.9 617.78,-299.75 621.81,-309.55 627.04,-304.9"/>
</g>
<!-- Node30 -->
<g id="node30" class="node">
<title>Node30</title>
<g id="a_node30"><a xlink:href="io_8hpp.html" target="_top" xlink:title="Implementation of threadpool IO callback.">
<polygon fill="none" stroke="black" points="671.5,-280.5 671.5,-299.5 742.5,-299.5 742.5,-280.5 671.5,-280.5"/>
<text text-anchor="middle" x="707" y="-287.5" font-family="Helvetica,sans-Serif" font-size="10.00">pool/io.hpp</text>
</a>
</g>
</g>
<!-- Node4&#45;&gt;Node30 -->
<g id="edge55" class="edge">
<title>Node4&#45;&gt;Node30</title>
<path fill="none" stroke="midnightblue" d="M666.09,-336.08C673.16,-328.3 683.59,-316.8 692.15,-307.37"/>
<polygon fill="midnightblue" stroke="midnightblue" points="694.93,-309.51 699.06,-299.75 689.75,-304.8 694.93,-309.51"/>
</g>
<!-- Node8&#45;&gt;Node2 -->
<g id="edge9" class="edge">
<title>Node8&#45;&gt;Node2</title>
<path fill="none" stroke="midnightblue" d="M1211.07,-112.24C1199.3,-98.03 1173.97,-70.11 1146,-56 1089.36,-27.43 1015.96,-17 969.41,-13.19"/>
<polygon fill="midnightblue" stroke="midnightblue" points="969.56,-9.69 959.33,-12.43 969.04,-16.67 969.56,-9.69"/>
</g>
<!-- Node8&#45;&gt;Node7 -->
<g id="edge10" class="edge">
<title>Node8&#45;&gt;Node7</title>
<path fill="none" stroke="midnightblue" d="M1159.98,-113.32C1081.02,-102.87 940.8,-84.31 863.99,-74.15"/>
<polygon fill="midnightblue" stroke="midnightblue" points="864.42,-70.67 854.04,-72.83 863.5,-77.61 864.42,-70.67"/>
</g>
<!-- Node8&#45;&gt;Node9 -->
<g id="edge11" class="edge">
<title>Node8&#45;&gt;Node9</title>
<path fill="none" stroke="midnightblue" d="M1224.77,-112.08C1230.56,-104.46 1239.06,-93.26 1246.14,-83.94"/>
<polygon fill="midnightblue" stroke="midnightblue" points="1249.1,-85.83 1252.36,-75.75 1243.52,-81.6 1249.1,-85.83"/>
</g>
<!-- Node9&#45;&gt;Node2 -->
<g id="edge12" class="edge">
<title>Node9&#45;&gt;Node2</title>
<path fill="none" stroke="midnightblue" d="M1205.92,-56.44C1140.69,-45.93 1031.12,-28.27 969.55,-18.34"/>
<polygon fill="midnightblue" stroke="midnightblue" points="969.79,-14.84 959.36,-16.7 968.68,-21.75 969.79,-14.84"/>
</g>
<!-- Node10 -->
<g id="node10" class="node">
<title>Node10</title>
<g id="a_node10"><a xlink:title=" ">
<polygon fill="none" stroke="#bfbfbf" points="1189.5,-0.5 1189.5,-19.5 1254.5,-19.5 1254.5,-0.5 1189.5,-0.5"/>
<text text-anchor="middle" x="1222" y="-7.5" font-family="Helvetica,sans-Serif" font-size="10.00">stdexcept</text>
</a>
</g>
</g>
<!-- Node9&#45;&gt;Node10 -->
<g id="edge13" class="edge">
<title>Node9&#45;&gt;Node10</title>
<path fill="none" stroke="midnightblue" d="M1252.89,-56.08C1247.72,-48.53 1240.15,-37.49 1233.81,-28.23"/>
<polygon fill="midnightblue" stroke="midnightblue" points="1236.54,-26.02 1228,-19.75 1230.76,-29.98 1236.54,-26.02"/>
</g>
<!-- Node11 -->
<g id="node11" class="node">
<title>Node11</title>
<g id="a_node11"><a xlink:title=" ">
<polygon fill="none" stroke="#bfbfbf" points="1273,-0.5 1273,-19.5 1317,-19.5 1317,-0.5 1273,-0.5"/>
<text text-anchor="middle" x="1295" y="-7.5" font-family="Helvetica,sans-Serif" font-size="10.00">string</text>
</a>
</g>
</g>
<!-- Node9&#45;&gt;Node11 -->
<g id="edge14" class="edge">
<title>Node9&#45;&gt;Node11</title>
<path fill="none" stroke="midnightblue" d="M1264.94,-56.08C1269.98,-48.53 1277.34,-37.49 1283.51,-28.23"/>
<polygon fill="midnightblue" stroke="midnightblue" points="1286.53,-30.01 1289.17,-19.75 1280.71,-26.13 1286.53,-30.01"/>
</g>
<!-- Node12&#45;&gt;Node2 -->
<g id="edge16" class="edge">
<title>Node12&#45;&gt;Node2</title>
<path fill="none" stroke="midnightblue" d="M948.17,-283.75C983.01,-278.03 1032.26,-266.5 1070,-244 1104.29,-223.56 1132,-218.92 1132,-179 1132,-179 1132,-179 1132,-121 1132,-90.9 1134.81,-76.74 1113,-56 1092.57,-36.58 1018.28,-23.34 969.15,-16.49"/>
<polygon fill="midnightblue" stroke="midnightblue" points="969.45,-12.99 959.07,-15.12 968.51,-19.93 969.45,-12.99"/>
</g>
<!-- Node12&#45;&gt;Node7 -->
<g id="edge19" class="edge">
<title>Node12&#45;&gt;Node7</title>
<path fill="none" stroke="midnightblue" d="M948.03,-284.06C978.35,-278.64 1018.31,-267.37 1046,-244 1073.63,-220.68 1095.51,-197.77 1075,-168 1061.49,-148.39 917.02,-100.73 847.27,-78.62"/>
<polygon fill="midnightblue" stroke="midnightblue" points="848.14,-75.22 837.55,-75.55 846.03,-81.9 848.14,-75.22"/>
</g>
<!-- Node13 -->
<g id="node13" class="node">
<title>Node13</title>
<g id="a_node13"><a xlink:title=" ">
<polygon fill="none" stroke="#bfbfbf" points="834.5,-224.5 834.5,-243.5 875.5,-243.5 875.5,-224.5 834.5,-224.5"/>
<text text-anchor="middle" x="855" y="-231.5" font-family="Helvetica,sans-Serif" font-size="10.00">tuple</text>
</a>
</g>
</g>
<!-- Node12&#45;&gt;Node13 -->
<g id="edge17" class="edge">
<title>Node12&#45;&gt;Node13</title>
<path fill="none" stroke="midnightblue" d="M896.74,-280.08C889.54,-272.3 878.89,-260.8 870.15,-251.37"/>
<polygon fill="midnightblue" stroke="midnightblue" points="872.47,-248.71 863.1,-243.75 867.33,-253.47 872.47,-248.71"/>
</g>
<!-- Node14 -->
<g id="node14" class="node">
<title>Node14</title>
<g id="a_node14"><a xlink:title=" ">
<polygon fill="none" stroke="#bfbfbf" points="771.5,-224.5 771.5,-243.5 816.5,-243.5 816.5,-224.5 771.5,-224.5"/>
<text text-anchor="middle" x="794" y="-231.5" font-family="Helvetica,sans-Serif" font-size="10.00">utility</text>
</a>
</g>
</g>
<!-- Node12&#45;&gt;Node14 -->
<g id="edge18" class="edge">
<title>Node12&#45;&gt;Node14</title>
<path fill="none" stroke="midnightblue" d="M887.17,-280.32C869.28,-271.62 841.52,-258.12 820.95,-248.11"/>
<polygon fill="midnightblue" stroke="midnightblue" points="822.31,-244.88 811.79,-243.65 819.25,-251.18 822.31,-244.88"/>
</g>
<!-- Node15 -->
<g id="node15" class="node">
<title>Node15</title>
<g id="a_node15"><a xlink:href="utils_8hpp.html" target="_top" xlink:title="Some useful implementation stuff.">
<polygon fill="none" stroke="black" points="970.5,-168.5 970.5,-187.5 1065.5,-187.5 1065.5,-168.5 970.5,-168.5"/>
<text text-anchor="middle" x="1018" y="-175.5" font-family="Helvetica,sans-Serif" font-size="10.00">details/utils.hpp</text>
</a>
</g>
</g>
<!-- Node12&#45;&gt;Node15 -->
<g id="edge20" class="edge">
<title>Node12&#45;&gt;Node15</title>
<path fill="none" stroke="midnightblue" d="M948.22,-285.78C976.55,-281.16 1011.63,-270.14 1030,-244 1039.66,-230.25 1034.34,-210.96 1028.02,-196.97"/>
<polygon fill="midnightblue" stroke="midnightblue" points="1031.06,-195.23 1023.44,-187.87 1024.81,-198.38 1031.06,-195.23"/>
</g>
<!-- Node19 -->
<g id="node19" class="node">
<title>Node19</title>
<g id="a_node19"><a xlink:href="basic__callback_8hpp.html" target="_top" xlink:title="Interfaces and base classes for callback wrappers.">
<polygon fill="none" stroke="black" points="543.5,-224.5 543.5,-243.5 676.5,-243.5 676.5,-224.5 543.5,-224.5"/>
<text text-anchor="middle" x="610" y="-231.5" font-family="Helvetica,sans-Serif" font-size="10.00">pool/basic_callback.hpp</text>
</a>
</g>
</g>
<!-- Node12&#45;&gt;Node19 -->
<g id="edge26" class="edge">
<title>Node12&#45;&gt;Node19</title>
<path fill="none" stroke="midnightblue" d="M861.79,-281.09C810.16,-271.64 723.62,-255.8 666.66,-245.37"/>
<polygon fill="midnightblue" stroke="midnightblue" points="667.21,-241.91 656.74,-243.56 665.95,-248.8 667.21,-241.91"/>
</g>
<!-- Node15&#45;&gt;Node7 -->
<g id="edge21" class="edge">
<title>Node15&#45;&gt;Node7</title>
<path fill="none" stroke="midnightblue" d="M1001.68,-168.37C965.53,-149.25 878.51,-103.23 835.26,-80.36"/>
<polygon fill="midnightblue" stroke="midnightblue" points="836.72,-77.17 826.25,-75.59 833.45,-83.36 836.72,-77.17"/>
</g>
<!-- Node15&#45;&gt;Node8 -->
<g id="edge25" class="edge">
<title>Node15&#45;&gt;Node8</title>
<path fill="none" stroke="midnightblue" d="M1049.69,-168.44C1084.07,-159.16 1139.08,-144.31 1176.79,-134.13"/>
<polygon fill="midnightblue" stroke="midnightblue" points="1177.72,-137.5 1186.46,-131.52 1175.89,-130.74 1177.72,-137.5"/>
</g>
<!-- Node16 -->
<g id="node16" class="node">
<title>Node16</title>
<g id="a_node16"><a xlink:href="ntrtl_8h.html" target="_top" xlink:title="Contains necessary declarations/definitions of internal windows objects and functions.">
<polygon fill="none" stroke="black" points="1024,-112.5 1024,-131.5 1104,-131.5 1104,-112.5 1024,-112.5"/>
<text text-anchor="middle" x="1064" y="-119.5" font-family="Helvetica,sans-Serif" font-size="10.00">native/ntrtl.h</text>
</a>
</g>
</g>
<!-- Node15&#45;&gt;Node16 -->
<g id="edge22" class="edge">
<title>Node15&#45;&gt;Node16</title>
<path fill="none" stroke="midnightblue" d="M1025.6,-168.08C1032.23,-160.3 1042.02,-148.8 1050.06,-139.37"/>
<polygon fill="midnightblue" stroke="midnightblue" points="1052.73,-141.63 1056.55,-131.75 1047.4,-137.09 1052.73,-141.63"/>
</g>
<!-- Node17 -->
<g id="node17" class="node">
<title>Node17</title>
<g id="a_node17"><a xlink:title=" ">
<polygon fill="none" stroke="#bfbfbf" points="952,-56.5 952,-75.5 1020,-75.5 1020,-56.5 952,-56.5"/>
<text text-anchor="middle" x="986" y="-63.5" font-family="Helvetica,sans-Serif" font-size="10.00">windows.h</text>
</a>
</g>
</g>
<!-- Node16&#45;&gt;Node17 -->
<g id="edge23" class="edge">
<title>Node16&#45;&gt;Node17</title>
<path fill="none" stroke="midnightblue" d="M1051.47,-112.32C1039.41,-103.98 1020.97,-91.21 1006.73,-81.35"/>
<polygon fill="midnightblue" stroke="midnightblue" points="1008.72,-78.47 998.5,-75.65 1004.73,-84.22 1008.72,-78.47"/>
</g>
<!-- Node18 -->
<g id="node18" class="node">
<title>Node18</title>
<g id="a_node18"><a xlink:title=" ">
<polygon fill="none" stroke="#bfbfbf" points="1038.5,-56.5 1038.5,-75.5 1103.5,-75.5 1103.5,-56.5 1038.5,-56.5"/>
<text text-anchor="middle" x="1071" y="-63.5" font-family="Helvetica,sans-Serif" font-size="10.00">winternl.h</text>
</a>
</g>
</g>
<!-- Node16&#45;&gt;Node18 -->
<g id="edge24" class="edge">
<title>Node16&#45;&gt;Node18</title>
<path fill="none" stroke="midnightblue" d="M1065.16,-112.08C1066.08,-104.93 1067.42,-94.64 1068.58,-85.69"/>
<polygon fill="midnightblue" stroke="midnightblue" points="1072.05,-86.12 1069.87,-75.75 1065.11,-85.22 1072.05,-86.12"/>
</g>
<!-- Node19&#45;&gt;Node2 -->
<g id="edge27" class="edge">
<title>Node19&#45;&gt;Node2</title>
<path fill="none" stroke="midnightblue" d="M673.2,-224.47C751.99,-213.58 877.33,-195.27 885,-188 929.33,-146.03 928.87,-66.02 926.05,-29.73"/>
<polygon fill="midnightblue" stroke="midnightblue" points="929.51,-29.22 925.1,-19.59 922.54,-29.87 929.51,-29.22"/>
</g>
<!-- Node19&#45;&gt;Node6 -->
<g id="edge32" class="edge">
<title>Node19&#45;&gt;Node6</title>
<path fill="none" stroke="midnightblue" d="M546.14,-224.44C463.96,-213.43 323.26,-194.58 251.67,-184.99"/>
<polygon fill="midnightblue" stroke="midnightblue" points="252,-181.5 241.63,-183.64 251.07,-188.44 252,-181.5"/>
</g>
<!-- Node19&#45;&gt;Node7 -->
<g id="edge34" class="edge">
<title>Node19&#45;&gt;Node7</title>
<path fill="none" stroke="midnightblue" d="M675.05,-224.49C720.34,-217.2 775.31,-205.13 791,-188 816.64,-160 815.76,-112.18 812.87,-85.82"/>
<polygon fill="midnightblue" stroke="midnightblue" points="816.31,-85.13 811.54,-75.67 809.37,-86.04 816.31,-85.13"/>
</g>
<!-- Node19&#45;&gt;Node15 -->
<g id="edge35" class="edge">
<title>Node19&#45;&gt;Node15</title>
<path fill="none" stroke="midnightblue" d="M676.69,-224.62C746.4,-215.8 858.93,-201.36 956,-188 957.3,-187.82 958.62,-187.64 959.95,-187.45"/>
<polygon fill="midnightblue" stroke="midnightblue" points="960.87,-190.86 970.28,-186 959.89,-183.93 960.87,-190.86"/>
</g>
<!-- Node20 -->
<g id="node20" class="node">
<title>Node20</title>
<g id="a_node20"><a xlink:title=" ">
<polygon fill="none" stroke="#bfbfbf" points="838,-168.5 838,-187.5 876,-187.5 876,-168.5 838,-168.5"/>
<text text-anchor="middle" x="857" y="-175.5" font-family="Helvetica,sans-Serif" font-size="10.00">map</text>
</a>
</g>
</g>
<!-- Node19&#45;&gt;Node20 -->
<g id="edge28" class="edge">
<title>Node19&#45;&gt;Node20</title>
<path fill="none" stroke="midnightblue" d="M654.44,-224.45C697.84,-215.91 765.69,-202.07 824,-188 825.27,-187.69 826.56,-187.38 827.86,-187.05"/>
<polygon fill="midnightblue" stroke="midnightblue" points="829.07,-190.35 837.85,-184.43 827.29,-183.58 829.07,-190.35"/>
</g>
<!-- Node21 -->
<g id="node21" class="node">
<title>Node21</title>
<g id="a_node21"><a xlink:title=" ">
<polygon fill="none" stroke="#bfbfbf" points="470,-168.5 470,-187.5 518,-187.5 518,-168.5 470,-168.5"/>
<text text-anchor="middle" x="494" y="-175.5" font-family="Helvetica,sans-Serif" font-size="10.00">mutex</text>
</a>
</g>
</g>
<!-- Node19&#45;&gt;Node21 -->
<g id="edge29" class="edge">
<title>Node19&#45;&gt;Node21</title>
<path fill="none" stroke="midnightblue" d="M591.62,-224.44C572.78,-215.68 543.27,-201.94 521.62,-191.86"/>
<polygon fill="midnightblue" stroke="midnightblue" points="522.84,-188.56 512.29,-187.52 519.88,-194.91 522.84,-188.56"/>
</g>
<!-- Node22 -->
<g id="node22" class="node">
<title>Node22</title>
<g id="a_node22"><a xlink:title=" ">
<polygon fill="none" stroke="#bfbfbf" points="536,-168.5 536,-187.5 594,-187.5 594,-168.5 536,-168.5"/>
<text text-anchor="middle" x="565" y="-175.5" font-family="Helvetica,sans-Serif" font-size="10.00">memory</text>
</a>
</g>
</g>
<!-- Node19&#45;&gt;Node22 -->
<g id="edge30" class="edge">
<title>Node19&#45;&gt;Node22</title>
<path fill="none" stroke="midnightblue" d="M602.57,-224.08C596.15,-216.38 586.69,-205.03 578.88,-195.65"/>
<polygon fill="midnightblue" stroke="midnightblue" points="581.38,-193.19 572.29,-187.75 576.01,-197.67 581.38,-193.19"/>
</g>
<!-- Node23 -->
<g id="node23" class="node">
<title>Node23</title>
<g id="a_node23"><a xlink:title=" ">
<polygon fill="none" stroke="#bfbfbf" points="612.5,-168.5 612.5,-187.5 677.5,-187.5 677.5,-168.5 612.5,-168.5"/>
<text text-anchor="middle" x="645" y="-175.5" font-family="Helvetica,sans-Serif" font-size="10.00">functional</text>
</a>
</g>
</g>
<!-- Node19&#45;&gt;Node23 -->
<g id="edge31" class="edge">
<title>Node19&#45;&gt;Node23</title>
<path fill="none" stroke="midnightblue" d="M615.78,-224.08C620.67,-216.53 627.83,-205.49 633.83,-196.23"/>
<polygon fill="midnightblue" stroke="midnightblue" points="636.83,-198.05 639.33,-187.75 630.95,-194.24 636.83,-198.05"/>
</g>
<!-- Node24 -->
<g id="node24" class="node">
<title>Node24</title>
<g id="a_node24"><a xlink:title=" ">
<polygon fill="none" stroke="#bfbfbf" points="696,-168.5 696,-187.5 782,-187.5 782,-168.5 696,-168.5"/>
<text text-anchor="middle" x="739" y="-175.5" font-family="Helvetica,sans-Serif" font-size="10.00">shared_mutex</text>
</a>
</g>
</g>
<!-- Node19&#45;&gt;Node24 -->
<g id="edge33" class="edge">
<title>Node19&#45;&gt;Node24</title>
<path fill="none" stroke="midnightblue" d="M630.44,-224.44C651.67,-215.56 685.1,-201.56 709.25,-191.45"/>
<polygon fill="midnightblue" stroke="midnightblue" points="710.78,-194.61 718.66,-187.52 708.08,-188.15 710.78,-194.61"/>
</g>
<!-- Node25&#45;&gt;Node7 -->
<g id="edge40" class="edge">
<title>Node25&#45;&gt;Node7</title>
<path fill="none" stroke="midnightblue" d="M834.18,-280.49C852.54,-273.8 874.02,-262.45 885,-244 918.37,-187.96 857.08,-114.32 826.21,-82.62"/>
<polygon fill="midnightblue" stroke="midnightblue" points="828.64,-80.1 819.09,-75.5 823.69,-85.05 828.64,-80.1"/>
</g>
<!-- Node25&#45;&gt;Node13 -->
<g id="edge37" class="edge">
<title>Node25&#45;&gt;Node13</title>
<path fill="none" stroke="midnightblue" d="M810.75,-280.08C818.47,-272.22 829.9,-260.57 839.22,-251.08"/>
<polygon fill="midnightblue" stroke="midnightblue" points="841.9,-253.34 846.41,-243.75 836.91,-248.44 841.9,-253.34"/>
</g>
<!-- Node25&#45;&gt;Node14 -->
<g id="edge38" class="edge">
<title>Node25&#45;&gt;Node14</title>
<path fill="none" stroke="midnightblue" d="M800.68,-280.08C799.62,-272.93 798.09,-262.64 796.77,-253.69"/>
<polygon fill="midnightblue" stroke="midnightblue" points="800.22,-253.13 795.3,-243.75 793.3,-254.16 800.22,-253.13"/>
</g>
<!-- Node25&#45;&gt;Node15 -->
<g id="edge46" class="edge">
<title>Node25&#45;&gt;Node15</title>
<path fill="none" stroke="midnightblue" d="M843.93,-281.59C897.79,-271.73 985.74,-254.34 997,-244 1009.95,-232.11 1014.94,-212.2 1016.85,-197.54"/>
<polygon fill="midnightblue" stroke="midnightblue" points="1020.34,-197.86 1017.79,-187.58 1013.37,-197.2 1020.34,-197.86"/>
</g>
<!-- Node25&#45;&gt;Node19 -->
<g id="edge47" class="edge">
<title>Node25&#45;&gt;Node19</title>
<path fill="none" stroke="midnightblue" d="M771.58,-280.44C738.72,-271.2 686.22,-256.44 650.03,-246.26"/>
<polygon fill="midnightblue" stroke="midnightblue" points="650.85,-242.85 640.28,-243.52 648.96,-249.59 650.85,-242.85"/>
</g>
<!-- Node26 -->
<g id="node26" class="node">
<title>Node26</title>
<g id="a_node26"><a xlink:title=" ">
<polygon fill="none" stroke="#bfbfbf" points="932,-224.5 932,-243.5 988,-243.5 988,-224.5 932,-224.5"/>
<text text-anchor="middle" x="960" y="-231.5" font-family="Helvetica,sans-Serif" font-size="10.00">optional</text>
</a>
</g>
</g>
<!-- Node25&#45;&gt;Node26 -->
<g id="edge39" class="edge">
<title>Node25&#45;&gt;Node26</title>
<path fill="none" stroke="midnightblue" d="M827.04,-280.44C853.62,-271.36 895.81,-256.94 925.52,-246.78"/>
<polygon fill="midnightblue" stroke="midnightblue" points="926.75,-250.06 935.08,-243.52 924.49,-243.44 926.75,-250.06"/>
</g>
<!-- Node27 -->
<g id="node27" class="node">
<title>Node27</title>
<g id="a_node27"><a xlink:href="time_8hpp.html" target="_top" xlink:title="Utils to work with std::chrono.">
<polygon fill="none" stroke="black" points="318,-224.5 318,-243.5 414,-243.5 414,-224.5 318,-224.5"/>
<text text-anchor="middle" x="366" y="-231.5" font-family="Helvetica,sans-Serif" font-size="10.00">details/time.hpp</text>
</a>
</g>
</g>
<!-- Node25&#45;&gt;Node27 -->
<g id="edge41" class="edge">
<title>Node25&#45;&gt;Node27</title>
<path fill="none" stroke="midnightblue" d="M760.29,-281.29C757.49,-280.84 754.7,-280.4 752,-280 636.31,-262.86 500.31,-248.3 424.55,-240.68"/>
<polygon fill="midnightblue" stroke="midnightblue" points="424.57,-237.17 414.27,-239.66 423.87,-244.13 424.57,-237.17"/>
</g>
<!-- Node27&#45;&gt;Node2 -->
<g id="edge42" class="edge">
<title>Node27&#45;&gt;Node2</title>
<path fill="none" stroke="midnightblue" d="M363.77,-224.45C361.54,-215.45 358.27,-200.84 357,-188 353.41,-151.7 358.43,-133.37 388,-112 466.8,-55.06 764.04,-24.48 878.59,-14.61"/>
<polygon fill="midnightblue" stroke="midnightblue" points="879.11,-18.08 888.78,-13.75 878.52,-11.1 879.11,-18.08"/>
</g>
<!-- Node27&#45;&gt;Node5 -->
<g id="edge44" class="edge">
<title>Node27&#45;&gt;Node5</title>
<path fill="none" stroke="midnightblue" d="M325.06,-224.44C286.07,-216.16 225.49,-203.02 164.08,-188.19"/>
<polygon fill="midnightblue" stroke="midnightblue" points="164.77,-184.76 154.22,-185.8 163.11,-191.56 164.77,-184.76"/>
</g>
<!-- Node27&#45;&gt;Node7 -->
<g id="edge45" class="edge">
<title>Node27&#45;&gt;Node7</title>
<path fill="none" stroke="midnightblue" d="M363.59,-224.12C360.55,-211.14 356.68,-186.53 365,-168 380.35,-133.82 393.82,-127.34 428,-112 485.27,-86.29 664.45,-74.07 755.59,-69.4"/>
<polygon fill="midnightblue" stroke="midnightblue" points="755.91,-72.88 765.72,-68.89 755.56,-65.89 755.91,-72.88"/>
</g>
<!-- Node28 -->
<g id="node28" class="node">
<title>Node28</title>
<g id="a_node28"><a xlink:title=" ">
<polygon fill="none" stroke="#bfbfbf" points="374.5,-168.5 374.5,-187.5 413.5,-187.5 413.5,-168.5 374.5,-168.5"/>
<text text-anchor="middle" x="394" y="-175.5" font-family="Helvetica,sans-Serif" font-size="10.00">ratio</text>
</a>
</g>
</g>
<!-- Node27&#45;&gt;Node28 -->
<g id="edge43" class="edge">
<title>Node27&#45;&gt;Node28</title>
<path fill="none" stroke="midnightblue" d="M370.62,-224.08C374.46,-216.69 380.02,-205.95 384.76,-196.81"/>
<polygon fill="midnightblue" stroke="midnightblue" points="387.97,-198.24 389.46,-187.75 381.75,-195.02 387.97,-198.24"/>
</g>
<!-- Node29&#45;&gt;Node7 -->
<g id="edge51" class="edge">
<title>Node29&#45;&gt;Node7</title>
<path fill="none" stroke="midnightblue" d="M566.23,-289.15C490.91,-288.36 341.68,-281.93 309,-244 303.2,-237.27 306.31,-232.47 309,-224 327.42,-165.94 335.48,-142.87 388,-112 449.04,-76.12 656.29,-68.75 755.8,-67.31"/>
<polygon fill="midnightblue" stroke="midnightblue" points="756,-70.8 765.95,-67.17 755.91,-63.81 756,-70.8"/>
</g>
<!-- Node29&#45;&gt;Node13 -->
<g id="edge49" class="edge">
<title>Node29&#45;&gt;Node13</title>
<path fill="none" stroke="midnightblue" d="M653.72,-281.16C695.42,-273.4 760.14,-260.63 824.56,-244.2"/>
<polygon fill="midnightblue" stroke="midnightblue" points="825.67,-247.52 834.47,-241.64 823.92,-240.75 825.67,-247.52"/>
</g>
<!-- Node29&#45;&gt;Node14 -->
<g id="edge50" class="edge">
<title>Node29&#45;&gt;Node14</title>
<path fill="none" stroke="midnightblue" d="M639.16,-280.44C672.54,-270.65 727.08,-254.64 761.72,-244.47"/>
<polygon fill="midnightblue" stroke="midnightblue" points="762.75,-247.82 771.36,-241.64 760.78,-241.1 762.75,-247.82"/>
</g>
<!-- Node29&#45;&gt;Node15 -->
<g id="edge53" class="edge">
<title>Node29&#45;&gt;Node15</title>
<path fill="none" stroke="midnightblue" d="M623.35,-280.28C645.7,-266.12 692.5,-238.28 736,-224 746.55,-220.54 880.52,-199.87 959.94,-187.78"/>
<polygon fill="midnightblue" stroke="midnightblue" points="960.93,-191.17 970.29,-186.21 959.88,-184.25 960.93,-191.17"/>
</g>
<!-- Node29&#45;&gt;Node19 -->
<g id="edge54" class="edge">
<title>Node29&#45;&gt;Node19</title>
<path fill="none" stroke="midnightblue" d="M610,-280.08C610,-273.01 610,-262.86 610,-253.99"/>
<polygon fill="midnightblue" stroke="midnightblue" points="613.5,-253.75 610,-243.75 606.5,-253.75 613.5,-253.75"/>
</g>
<!-- Node29&#45;&gt;Node27 -->
<g id="edge52" class="edge">
<title>Node29&#45;&gt;Node27</title>
<path fill="none" stroke="midnightblue" d="M571.34,-280.44C528.86,-271.04 460.57,-255.93 414.53,-245.74"/>
<polygon fill="midnightblue" stroke="midnightblue" points="415,-242.26 404.48,-243.52 413.49,-249.09 415,-242.26"/>
</g>
<!-- Node30&#45;&gt;Node7 -->
<g id="edge58" class="edge">
<title>Node30&#45;&gt;Node7</title>
<path fill="none" stroke="midnightblue" d="M671.47,-281.51C628.24,-272.1 558.05,-255.75 534,-244 491.92,-223.44 432.86,-205.44 461,-168 496.53,-120.72 667.27,-88.51 756.07,-74.67"/>
<polygon fill="midnightblue" stroke="midnightblue" points="756.61,-78.12 765.96,-73.15 755.55,-71.21 756.61,-78.12"/>
</g>
<!-- Node30&#45;&gt;Node13 -->
<g id="edge56" class="edge">
<title>Node30&#45;&gt;Node13</title>
<path fill="none" stroke="midnightblue" d="M730.45,-280.44C755.86,-271.17 796.49,-256.35 824.4,-246.17"/>
<polygon fill="midnightblue" stroke="midnightblue" points="825.86,-249.36 834.05,-242.64 823.46,-242.78 825.86,-249.36"/>
</g>
<!-- Node30&#45;&gt;Node14 -->
<g id="edge57" class="edge">
<title>Node30&#45;&gt;Node14</title>
<path fill="none" stroke="midnightblue" d="M720.98,-280.32C734.55,-271.9 755.38,-258.97 771.32,-249.07"/>
<polygon fill="midnightblue" stroke="midnightblue" points="773.41,-251.9 780.06,-243.65 769.71,-245.95 773.41,-251.9"/>
</g>
<!-- Node30&#45;&gt;Node15 -->
<g id="edge60" class="edge">
<title>Node30&#45;&gt;Node15</title>
<path fill="none" stroke="midnightblue" d="M711.87,-280.15C720.27,-265.8 738.92,-237.7 763,-224 771.56,-219.13 887.91,-199.84 960.46,-188.15"/>
<polygon fill="midnightblue" stroke="midnightblue" points="961.07,-191.6 970.38,-186.56 959.96,-184.69 961.07,-191.6"/>
</g>
<!-- Node30&#45;&gt;Node19 -->
<g id="edge61" class="edge">
<title>Node30&#45;&gt;Node19</title>
<path fill="none" stroke="midnightblue" d="M691.42,-280.32C676,-271.74 652.19,-258.49 634.29,-248.52"/>
<polygon fill="midnightblue" stroke="midnightblue" points="635.99,-245.46 625.55,-243.65 632.58,-251.58 635.99,-245.46"/>
</g>
<!-- Node30&#45;&gt;Node27 -->
<g id="edge59" class="edge">
<title>Node30&#45;&gt;Node27</title>
<path fill="none" stroke="midnightblue" d="M671.17,-281.68C668.07,-281.09 664.98,-280.52 662,-280 617.51,-272.17 496.97,-254.23 424.17,-243.51"/>
<polygon fill="midnightblue" stroke="midnightblue" points="424.63,-240.04 414.22,-242.05 423.61,-246.97 424.63,-240.04"/>
</g>
</g>
</svg>
