<?xml version="1.0" encoding="UTF-8" standalone="no"?>
<!DOCTYPE svg PUBLIC "-//W3C//DTD SVG 1.1//EN"
 "http://www.w3.org/Graphics/SVG/1.1/DTD/svg11.dtd">
<!-- Generated by graphviz version 2.43.0 (0)
 -->
<!-- Title: ntp/include/pool/threadpool.hpp Pages: 1 -->
<svg width="1300pt" height="364pt"
 viewBox="0.00 0.00 1299.68 364.00" xmlns="http://www.w3.org/2000/svg" xmlns:xlink="http://www.w3.org/1999/xlink">
<g id="graph0" class="graph" transform="scale(1 1) rotate(0) translate(4 360)">
<title>ntp/include/pool/threadpool.hpp</title>
<!-- Node1 -->
<g id="node1" class="node">
<title>Node1</title>
<g id="a_node1"><a xlink:title="Threadpool implementations.">
<polygon fill="#bfbfbf" stroke="black" points="565.68,-336.5 565.68,-355.5 736.68,-355.5 736.68,-336.5 565.68,-336.5"/>
<text text-anchor="middle" x="651.18" y="-343.5" font-family="Helvetica,sans-Serif" font-size="10.00">ntp/include/pool/threadpool.hpp</text>
</a>
</g>
</g>
<!-- Node2 -->
<g id="node2" class="node">
<title>Node2</title>
<g id="a_node2"><a xlink:title=" ">
<polygon fill="none" stroke="#bfbfbf" points="958.18,-0.5 958.18,-19.5 1028.18,-19.5 1028.18,-0.5 958.18,-0.5"/>
<text text-anchor="middle" x="993.18" y="-7.5" font-family="Helvetica,sans-Serif" font-size="10.00">Windows.h</text>
</a>
</g>
</g>
<!-- Node1&#45;&gt;Node2 -->
<g id="edge1" class="edge">
<title>Node1&#45;&gt;Node2</title>
<path fill="none" stroke="midnightblue" d="M736.69,-342.89C875.42,-337.13 1134.18,-315.57 1134.18,-235 1134.18,-235 1134.18,-235 1134.18,-121 1134.18,-69.26 1074.43,-38.27 1032.72,-22.94"/>
<polygon fill="midnightblue" stroke="midnightblue" points="1033.67,-19.56 1023.08,-19.55 1031.35,-26.17 1033.67,-19.56"/>
</g>
<!-- Node3 -->
<g id="node3" class="node">
<title>Node3</title>
<g id="a_node3"><a xlink:title=" ">
<polygon fill="none" stroke="#bfbfbf" points="1004.18,-168.5 1004.18,-187.5 1054.18,-187.5 1054.18,-168.5 1004.18,-168.5"/>
<text text-anchor="middle" x="1029.18" y="-175.5" font-family="Helvetica,sans-Serif" font-size="10.00">chrono</text>
</a>
</g>
</g>
<!-- Node1&#45;&gt;Node3 -->
<g id="edge2" class="edge">
<title>Node1&#45;&gt;Node3</title>
<path fill="none" stroke="midnightblue" d="M737.01,-336.55C810.37,-325.58 915.46,-300.6 989.18,-244 1004.91,-231.92 1015.92,-211.75 1022.35,-197.07"/>
<polygon fill="midnightblue" stroke="midnightblue" points="1025.7,-198.14 1026.23,-187.56 1019.21,-195.5 1025.7,-198.14"/>
</g>
<!-- Node4 -->
<g id="node4" class="node">
<title>Node4</title>
<g id="a_node4"><a xlink:title=" ">
<polygon fill="none" stroke="#bfbfbf" points="92.68,-168.5 92.68,-187.5 161.68,-187.5 161.68,-168.5 92.68,-168.5"/>
<text text-anchor="middle" x="127.18" y="-175.5" font-family="Helvetica,sans-Serif" font-size="10.00">type_traits</text>
</a>
</g>
</g>
<!-- Node1&#45;&gt;Node4 -->
<g id="edge3" class="edge">
<title>Node1&#45;&gt;Node4</title>
<path fill="none" stroke="midnightblue" d="M580.57,-336.45C465.02,-321.41 241.83,-287.63 176.18,-244 158.39,-232.18 144.53,-211.66 136.15,-196.84"/>
<polygon fill="midnightblue" stroke="midnightblue" points="139.05,-194.83 131.25,-187.66 132.88,-198.13 139.05,-194.83"/>
</g>
<!-- Node5 -->
<g id="node5" class="node">
<title>Node5</title>
<g id="a_node5"><a xlink:href="ntp__config_8hpp_source.html" target="_top" xlink:title=" ">
<polygon fill="none" stroke="black" points="684.18,-56.5 684.18,-75.5 772.18,-75.5 772.18,-56.5 684.18,-56.5"/>
<text text-anchor="middle" x="728.18" y="-63.5" font-family="Helvetica,sans-Serif" font-size="10.00">ntp_config.hpp</text>
</a>
</g>
</g>
<!-- Node1&#45;&gt;Node5 -->
<g id="edge4" class="edge">
<title>Node1&#45;&gt;Node5</title>
<path fill="none" stroke="midnightblue" d="M575.82,-336.46C407.48,-315.69 19.83,-257.55 75.18,-168 82.49,-156.16 173.78,-115.76 187.18,-112 277.58,-86.66 554.95,-73.5 673.51,-68.92"/>
<polygon fill="midnightblue" stroke="midnightblue" points="673.94,-72.4 683.8,-68.53 673.68,-65.41 673.94,-72.4"/>
</g>
<!-- Node6 -->
<g id="node6" class="node">
<title>Node6</title>
<g id="a_node6"><a xlink:href="allocator_8hpp.html" target="_top" xlink:title="Allocator implementations.">
<polygon fill="none" stroke="black" points="990.18,-112.5 990.18,-131.5 1106.18,-131.5 1106.18,-112.5 990.18,-112.5"/>
<text text-anchor="middle" x="1048.18" y="-119.5" font-family="Helvetica,sans-Serif" font-size="10.00">details/allocator.hpp</text>
</a>
</g>
</g>
<!-- Node1&#45;&gt;Node6 -->
<g id="edge5" class="edge">
<title>Node1&#45;&gt;Node6</title>
<path fill="none" stroke="midnightblue" d="M736.89,-338.93C790.8,-333.12 861.1,-321.82 920.18,-300 995.9,-272.02 1034.4,-263.43 1063.18,-188 1069.1,-172.48 1063.68,-153.94 1057.76,-140.65"/>
<polygon fill="midnightblue" stroke="midnightblue" points="1060.88,-139.06 1053.32,-131.63 1054.6,-142.15 1060.88,-139.06"/>
</g>
<!-- Node10 -->
<g id="node10" class="node">
<title>Node10</title>
<g id="a_node10"><a xlink:href="work_8hpp.html" target="_top" xlink:title="Work callback wrapper and manager implementation.">
<polygon fill="none" stroke="black" points="406.18,-280.5 406.18,-299.5 492.18,-299.5 492.18,-280.5 406.18,-280.5"/>
<text text-anchor="middle" x="449.18" y="-287.5" font-family="Helvetica,sans-Serif" font-size="10.00">pool/work.hpp</text>
</a>
</g>
</g>
<!-- Node1&#45;&gt;Node10 -->
<g id="edge12" class="edge">
<title>Node1&#45;&gt;Node10</title>
<path fill="none" stroke="midnightblue" d="M619.17,-336.44C584.45,-327.16 528.89,-312.31 490.8,-302.13"/>
<polygon fill="midnightblue" stroke="midnightblue" points="491.6,-298.72 481.04,-299.52 489.79,-305.48 491.6,-298.72"/>
</g>
<!-- Node23 -->
<g id="node23" class="node">
<title>Node23</title>
<g id="a_node23"><a xlink:href="wait_8hpp.html" target="_top" xlink:title="Implementation of threadpool wait callback.">
<polygon fill="none" stroke="black" points="704.68,-280.5 704.68,-299.5 787.68,-299.5 787.68,-280.5 704.68,-280.5"/>
<text text-anchor="middle" x="746.18" y="-287.5" font-family="Helvetica,sans-Serif" font-size="10.00">pool/wait.hpp</text>
</a>
</g>
</g>
<!-- Node1&#45;&gt;Node23 -->
<g id="edge33" class="edge">
<title>Node1&#45;&gt;Node23</title>
<path fill="none" stroke="midnightblue" d="M666.44,-336.32C681.4,-327.82 704.43,-314.73 721.9,-304.8"/>
<polygon fill="midnightblue" stroke="midnightblue" points="723.99,-307.64 730.95,-299.65 720.53,-301.55 723.99,-307.64"/>
</g>
<!-- Node27 -->
<g id="node27" class="node">
<title>Node27</title>
<g id="a_node27"><a xlink:href="timer_8hpp.html" target="_top" xlink:title="Implementation of threadpool timer callback.">
<polygon fill="none" stroke="black" points="510.68,-280.5 510.68,-299.5 597.68,-299.5 597.68,-280.5 510.68,-280.5"/>
<text text-anchor="middle" x="554.18" y="-287.5" font-family="Helvetica,sans-Serif" font-size="10.00">pool/timer.hpp</text>
</a>
</g>
</g>
<!-- Node1&#45;&gt;Node27 -->
<g id="edge45" class="edge">
<title>Node1&#45;&gt;Node27</title>
<path fill="none" stroke="midnightblue" d="M635.59,-336.32C620.18,-327.74 596.37,-314.49 578.47,-304.52"/>
<polygon fill="midnightblue" stroke="midnightblue" points="580.16,-301.46 569.72,-299.65 576.76,-307.58 580.16,-301.46"/>
</g>
<!-- Node28 -->
<g id="node28" class="node">
<title>Node28</title>
<g id="a_node28"><a xlink:href="io_8hpp.html" target="_top" xlink:title="Implementation of threadpool IO callback.">
<polygon fill="none" stroke="black" points="615.68,-280.5 615.68,-299.5 686.68,-299.5 686.68,-280.5 615.68,-280.5"/>
<text text-anchor="middle" x="651.18" y="-287.5" font-family="Helvetica,sans-Serif" font-size="10.00">pool/io.hpp</text>
</a>
</g>
</g>
<!-- Node1&#45;&gt;Node28 -->
<g id="edge52" class="edge">
<title>Node1&#45;&gt;Node28</title>
<path fill="none" stroke="midnightblue" d="M651.18,-336.08C651.18,-329.01 651.18,-318.86 651.18,-309.99"/>
<polygon fill="midnightblue" stroke="midnightblue" points="654.68,-309.75 651.18,-299.75 647.68,-309.75 654.68,-309.75"/>
</g>
<!-- Node6&#45;&gt;Node2 -->
<g id="edge6" class="edge">
<title>Node6&#45;&gt;Node2</title>
<path fill="none" stroke="midnightblue" d="M1043.86,-112.37C1034.87,-94.38 1013.95,-52.55 1001.99,-28.63"/>
<polygon fill="midnightblue" stroke="midnightblue" points="1005.08,-26.97 997.47,-19.59 998.81,-30.1 1005.08,-26.97"/>
</g>
<!-- Node6&#45;&gt;Node5 -->
<g id="edge7" class="edge">
<title>Node6&#45;&gt;Node5</title>
<path fill="none" stroke="midnightblue" d="M997.47,-112.44C938.83,-102.55 842.67,-86.32 782.52,-76.17"/>
<polygon fill="midnightblue" stroke="midnightblue" points="782.91,-72.69 772.46,-74.47 781.74,-79.59 782.91,-72.69"/>
</g>
<!-- Node7 -->
<g id="node7" class="node">
<title>Node7</title>
<g id="a_node7"><a xlink:href="exception_8hpp.html" target="_top" xlink:title="Win32 error wrapper implementations.">
<polygon fill="none" stroke="black" points="1162.18,-56.5 1162.18,-75.5 1284.18,-75.5 1284.18,-56.5 1162.18,-56.5"/>
<text text-anchor="middle" x="1223.18" y="-63.5" font-family="Helvetica,sans-Serif" font-size="10.00">details/exception.hpp</text>
</a>
</g>
</g>
<!-- Node6&#45;&gt;Node7 -->
<g id="edge8" class="edge">
<title>Node6&#45;&gt;Node7</title>
<path fill="none" stroke="midnightblue" d="M1075.91,-112.44C1105.6,-103.28 1152.89,-88.69 1185.85,-78.52"/>
<polygon fill="midnightblue" stroke="midnightblue" points="1187.05,-81.81 1195.58,-75.52 1184.99,-75.12 1187.05,-81.81"/>
</g>
<!-- Node7&#45;&gt;Node2 -->
<g id="edge9" class="edge">
<title>Node7&#45;&gt;Node2</title>
<path fill="none" stroke="midnightblue" d="M1186.73,-56.44C1146.51,-47 1081.73,-31.79 1038.32,-21.6"/>
<polygon fill="midnightblue" stroke="midnightblue" points="1038.86,-18.13 1028.32,-19.25 1037.26,-24.94 1038.86,-18.13"/>
</g>
<!-- Node8 -->
<g id="node8" class="node">
<title>Node8</title>
<g id="a_node8"><a xlink:title=" ">
<polygon fill="none" stroke="#bfbfbf" points="1226.68,-0.5 1226.68,-19.5 1291.68,-19.5 1291.68,-0.5 1226.68,-0.5"/>
<text text-anchor="middle" x="1259.18" y="-7.5" font-family="Helvetica,sans-Serif" font-size="10.00">stdexcept</text>
</a>
</g>
</g>
<!-- Node7&#45;&gt;Node8 -->
<g id="edge10" class="edge">
<title>Node7&#45;&gt;Node8</title>
<path fill="none" stroke="midnightblue" d="M1229.12,-56.08C1234.15,-48.53 1241.51,-37.49 1247.69,-28.23"/>
<polygon fill="midnightblue" stroke="midnightblue" points="1250.71,-30.01 1253.34,-19.75 1244.88,-26.13 1250.71,-30.01"/>
</g>
<!-- Node9 -->
<g id="node9" class="node">
<title>Node9</title>
<g id="a_node9"><a xlink:title=" ">
<polygon fill="none" stroke="#bfbfbf" points="1164.18,-0.5 1164.18,-19.5 1208.18,-19.5 1208.18,-0.5 1164.18,-0.5"/>
<text text-anchor="middle" x="1186.18" y="-7.5" font-family="Helvetica,sans-Serif" font-size="10.00">string</text>
</a>
</g>
</g>
<!-- Node7&#45;&gt;Node9 -->
<g id="edge11" class="edge">
<title>Node7&#45;&gt;Node9</title>
<path fill="none" stroke="midnightblue" d="M1217.07,-56.08C1211.9,-48.53 1204.33,-37.49 1197.98,-28.23"/>
<polygon fill="midnightblue" stroke="midnightblue" points="1200.71,-26.02 1192.17,-19.75 1194.94,-29.98 1200.71,-26.02"/>
</g>
<!-- Node10&#45;&gt;Node2 -->
<g id="edge13" class="edge">
<title>Node10&#45;&gt;Node2</title>
<path fill="none" stroke="midnightblue" d="M406.05,-285.71C332.61,-279.62 186.73,-265.23 140.18,-244 50.63,-203.16 -44.78,-127.18 23.18,-56 55.47,-22.17 760.76,-13.18 947.92,-11.38"/>
<polygon fill="midnightblue" stroke="midnightblue" points="948.01,-14.88 957.97,-11.29 947.94,-7.88 948.01,-14.88"/>
</g>
<!-- Node10&#45;&gt;Node5 -->
<g id="edge16" class="edge">
<title>Node10&#45;&gt;Node5</title>
<path fill="none" stroke="midnightblue" d="M406,-282.9C300.49,-267.08 41.19,-222.14 83.18,-168 119.38,-121.32 524.45,-83.68 673.53,-71.32"/>
<polygon fill="midnightblue" stroke="midnightblue" points="674.14,-74.78 683.81,-70.47 673.56,-67.81 674.14,-74.78"/>
</g>
<!-- Node11 -->
<g id="node11" class="node">
<title>Node11</title>
<g id="a_node11"><a xlink:title=" ">
<polygon fill="none" stroke="#bfbfbf" points="535.68,-224.5 535.68,-243.5 576.68,-243.5 576.68,-224.5 535.68,-224.5"/>
<text text-anchor="middle" x="556.18" y="-231.5" font-family="Helvetica,sans-Serif" font-size="10.00">tuple</text>
</a>
</g>
</g>
<!-- Node10&#45;&gt;Node11 -->
<g id="edge14" class="edge">
<title>Node10&#45;&gt;Node11</title>
<path fill="none" stroke="midnightblue" d="M466.37,-280.32C483.53,-271.66 510.12,-258.24 529.92,-248.25"/>
<polygon fill="midnightblue" stroke="midnightblue" points="531.68,-251.28 539.03,-243.65 528.52,-245.04 531.68,-251.28"/>
</g>
<!-- Node12 -->
<g id="node12" class="node">
<title>Node12</title>
<g id="a_node12"><a xlink:title=" ">
<polygon fill="none" stroke="#bfbfbf" points="594.68,-224.5 594.68,-243.5 639.68,-243.5 639.68,-224.5 594.68,-224.5"/>
<text text-anchor="middle" x="617.18" y="-231.5" font-family="Helvetica,sans-Serif" font-size="10.00">utility</text>
</a>
</g>
</g>
<!-- Node10&#45;&gt;Node12 -->
<g id="edge15" class="edge">
<title>Node10&#45;&gt;Node12</title>
<path fill="none" stroke="midnightblue" d="M475.8,-280.44C505.35,-270.94 553.06,-255.61 584.76,-245.42"/>
<polygon fill="midnightblue" stroke="midnightblue" points="586,-248.7 594.45,-242.3 583.86,-242.03 586,-248.7"/>
</g>
<!-- Node13 -->
<g id="node13" class="node">
<title>Node13</title>
<g id="a_node13"><a xlink:href="utils_8hpp.html" target="_top" xlink:title="Some useful implementation stuff.">
<polygon fill="none" stroke="black" points="680.68,-168.5 680.68,-187.5 775.68,-187.5 775.68,-168.5 680.68,-168.5"/>
<text text-anchor="middle" x="728.18" y="-175.5" font-family="Helvetica,sans-Serif" font-size="10.00">details/utils.hpp</text>
</a>
</g>
</g>
<!-- Node10&#45;&gt;Node13 -->
<g id="edge17" class="edge">
<title>Node10&#45;&gt;Node13</title>
<path fill="none" stroke="midnightblue" d="M455.75,-280.27C466.93,-266.09 491.07,-238.23 518.18,-224 531.73,-216.89 614.24,-200.4 671.7,-189.48"/>
<polygon fill="midnightblue" stroke="midnightblue" points="672.59,-192.87 681.76,-187.57 671.29,-185.99 672.59,-192.87"/>
</g>
<!-- Node17 -->
<g id="node17" class="node">
<title>Node17</title>
<g id="a_node17"><a xlink:href="basic__callback_8hpp.html" target="_top" xlink:title="Interfaces and base classes for callback wrappers.">
<polygon fill="none" stroke="black" points="307.68,-224.5 307.68,-243.5 440.68,-243.5 440.68,-224.5 307.68,-224.5"/>
<text text-anchor="middle" x="374.18" y="-231.5" font-family="Helvetica,sans-Serif" font-size="10.00">pool/basic_callback.hpp</text>
</a>
</g>
</g>
<!-- Node10&#45;&gt;Node17 -->
<g id="edge23" class="edge">
<title>Node10&#45;&gt;Node17</title>
<path fill="none" stroke="midnightblue" d="M437.13,-280.32C425.71,-272.11 408.35,-259.6 394.74,-249.81"/>
<polygon fill="midnightblue" stroke="midnightblue" points="396.61,-246.84 386.45,-243.83 392.52,-252.52 396.61,-246.84"/>
</g>
<!-- Node13&#45;&gt;Node5 -->
<g id="edge18" class="edge">
<title>Node13&#45;&gt;Node5</title>
<path fill="none" stroke="midnightblue" d="M728.18,-168.37C728.18,-150.62 728.18,-109.67 728.18,-85.6"/>
<polygon fill="midnightblue" stroke="midnightblue" points="731.68,-85.59 728.18,-75.59 724.68,-85.59 731.68,-85.59"/>
</g>
<!-- Node13&#45;&gt;Node6 -->
<g id="edge22" class="edge">
<title>Node13&#45;&gt;Node6</title>
<path fill="none" stroke="midnightblue" d="M775.74,-168.97C832.14,-159.46 926.24,-143.58 987.75,-133.2"/>
<polygon fill="midnightblue" stroke="midnightblue" points="988.43,-136.63 997.71,-131.52 987.27,-129.73 988.43,-136.63"/>
</g>
<!-- Node14 -->
<g id="node14" class="node">
<title>Node14</title>
<g id="a_node14"><a xlink:href="ntrtl_8h.html" target="_top" xlink:title="Contains necessary declarations/definitions of internal windows objects and functions.">
<polygon fill="none" stroke="black" points="44.18,-112.5 44.18,-131.5 124.18,-131.5 124.18,-112.5 44.18,-112.5"/>
<text text-anchor="middle" x="84.18" y="-119.5" font-family="Helvetica,sans-Serif" font-size="10.00">native/ntrtl.h</text>
</a>
</g>
</g>
<!-- Node13&#45;&gt;Node14 -->
<g id="edge19" class="edge">
<title>Node13&#45;&gt;Node14</title>
<path fill="none" stroke="midnightblue" d="M680.63,-169.2C677.44,-168.77 674.26,-168.36 671.18,-168 473.17,-144.82 236.13,-130.84 134.48,-125.5"/>
<polygon fill="midnightblue" stroke="midnightblue" points="134.66,-122 124.5,-124.98 134.3,-128.99 134.66,-122"/>
</g>
<!-- Node15 -->
<g id="node15" class="node">
<title>Node15</title>
<g id="a_node15"><a xlink:title=" ">
<polygon fill="none" stroke="#bfbfbf" points="47.18,-56.5 47.18,-75.5 115.18,-75.5 115.18,-56.5 47.18,-56.5"/>
<text text-anchor="middle" x="81.18" y="-63.5" font-family="Helvetica,sans-Serif" font-size="10.00">windows.h</text>
</a>
</g>
</g>
<!-- Node14&#45;&gt;Node15 -->
<g id="edge20" class="edge">
<title>Node14&#45;&gt;Node15</title>
<path fill="none" stroke="midnightblue" d="M83.68,-112.08C83.29,-105.01 82.73,-94.86 82.23,-85.99"/>
<polygon fill="midnightblue" stroke="midnightblue" points="85.71,-85.54 81.66,-75.75 78.72,-85.93 85.71,-85.54"/>
</g>
<!-- Node16 -->
<g id="node16" class="node">
<title>Node16</title>
<g id="a_node16"><a xlink:title=" ">
<polygon fill="none" stroke="#bfbfbf" points="133.68,-56.5 133.68,-75.5 198.68,-75.5 198.68,-56.5 133.68,-56.5"/>
<text text-anchor="middle" x="166.18" y="-63.5" font-family="Helvetica,sans-Serif" font-size="10.00">winternl.h</text>
</a>
</g>
</g>
<!-- Node14&#45;&gt;Node16 -->
<g id="edge21" class="edge">
<title>Node14&#45;&gt;Node16</title>
<path fill="none" stroke="midnightblue" d="M97.35,-112.32C110.02,-103.98 129.41,-91.21 144.38,-81.35"/>
<polygon fill="midnightblue" stroke="midnightblue" points="146.61,-84.08 153.04,-75.65 142.76,-78.23 146.61,-84.08"/>
</g>
<!-- Node17&#45;&gt;Node2 -->
<g id="edge24" class="edge">
<title>Node17&#45;&gt;Node2</title>
<path fill="none" stroke="midnightblue" d="M348.54,-224.39C309.99,-211.56 234.75,-186.89 170.18,-168 110.58,-150.57 73.01,-181.24 35.18,-132 24.99,-118.74 14.09,-79.94 38.18,-56 70.79,-23.6 762.37,-13.57 947.78,-11.46"/>
<polygon fill="midnightblue" stroke="midnightblue" points="948.04,-14.96 958,-11.35 947.96,-7.96 948.04,-14.96"/>
</g>
<!-- Node17&#45;&gt;Node4 -->
<g id="edge29" class="edge">
<title>Node17&#45;&gt;Node4</title>
<path fill="none" stroke="midnightblue" d="M335.04,-224.44C290.56,-214.72 218.1,-198.88 171.56,-188.7"/>
<polygon fill="midnightblue" stroke="midnightblue" points="172.27,-185.27 161.75,-186.56 170.77,-192.11 172.27,-185.27"/>
</g>
<!-- Node17&#45;&gt;Node5 -->
<g id="edge31" class="edge">
<title>Node17&#45;&gt;Node5</title>
<path fill="none" stroke="midnightblue" d="M343.63,-224.44C310.53,-213.63 264.95,-193.35 285.18,-168 333.31,-107.66 566.71,-80.55 674.01,-71.13"/>
<polygon fill="midnightblue" stroke="midnightblue" points="674.33,-74.62 683.99,-70.27 673.73,-67.64 674.33,-74.62"/>
</g>
<!-- Node17&#45;&gt;Node13 -->
<g id="edge32" class="edge">
<title>Node17&#45;&gt;Node13</title>
<path fill="none" stroke="midnightblue" d="M431.13,-224.48C488.77,-215.83 580.74,-201.96 670.51,-188.1"/>
<polygon fill="midnightblue" stroke="midnightblue" points="671.25,-191.52 680.6,-186.54 670.18,-184.61 671.25,-191.52"/>
</g>
<!-- Node18 -->
<g id="node18" class="node">
<title>Node18</title>
<g id="a_node18"><a xlink:title=" ">
<polygon fill="none" stroke="#bfbfbf" points="294.18,-168.5 294.18,-187.5 332.18,-187.5 332.18,-168.5 294.18,-168.5"/>
<text text-anchor="middle" x="313.18" y="-175.5" font-family="Helvetica,sans-Serif" font-size="10.00">map</text>
</a>
</g>
</g>
<!-- Node17&#45;&gt;Node18 -->
<g id="edge25" class="edge">
<title>Node17&#45;&gt;Node18</title>
<path fill="none" stroke="midnightblue" d="M364.38,-224.32C355.36,-216.34 341.77,-204.31 330.86,-194.65"/>
<polygon fill="midnightblue" stroke="midnightblue" points="332.96,-191.84 323.16,-187.83 328.32,-197.08 332.96,-191.84"/>
</g>
<!-- Node19 -->
<g id="node19" class="node">
<title>Node19</title>
<g id="a_node19"><a xlink:title=" ">
<polygon fill="none" stroke="#bfbfbf" points="350.18,-168.5 350.18,-187.5 398.18,-187.5 398.18,-168.5 350.18,-168.5"/>
<text text-anchor="middle" x="374.18" y="-175.5" font-family="Helvetica,sans-Serif" font-size="10.00">mutex</text>
</a>
</g>
</g>
<!-- Node17&#45;&gt;Node19 -->
<g id="edge26" class="edge">
<title>Node17&#45;&gt;Node19</title>
<path fill="none" stroke="midnightblue" d="M374.18,-224.08C374.18,-217.01 374.18,-206.86 374.18,-197.99"/>
<polygon fill="midnightblue" stroke="midnightblue" points="377.68,-197.75 374.18,-187.75 370.68,-197.75 377.68,-197.75"/>
</g>
<!-- Node20 -->
<g id="node20" class="node">
<title>Node20</title>
<g id="a_node20"><a xlink:title=" ">
<polygon fill="none" stroke="#bfbfbf" points="416.18,-168.5 416.18,-187.5 474.18,-187.5 474.18,-168.5 416.18,-168.5"/>
<text text-anchor="middle" x="445.18" y="-175.5" font-family="Helvetica,sans-Serif" font-size="10.00">memory</text>
</a>
</g>
</g>
<!-- Node17&#45;&gt;Node20 -->
<g id="edge27" class="edge">
<title>Node17&#45;&gt;Node20</title>
<path fill="none" stroke="midnightblue" d="M385.58,-224.32C396.29,-216.18 412.52,-203.84 425.34,-194.09"/>
<polygon fill="midnightblue" stroke="midnightblue" points="427.72,-196.67 433.56,-187.83 423.48,-191.1 427.72,-196.67"/>
</g>
<!-- Node21 -->
<g id="node21" class="node">
<title>Node21</title>
<g id="a_node21"><a xlink:title=" ">
<polygon fill="none" stroke="#bfbfbf" points="492.68,-168.5 492.68,-187.5 557.68,-187.5 557.68,-168.5 492.68,-168.5"/>
<text text-anchor="middle" x="525.18" y="-175.5" font-family="Helvetica,sans-Serif" font-size="10.00">functional</text>
</a>
</g>
</g>
<!-- Node17&#45;&gt;Node21 -->
<g id="edge28" class="edge">
<title>Node17&#45;&gt;Node21</title>
<path fill="none" stroke="midnightblue" d="M398.1,-224.44C423.4,-215.4 463.48,-201.06 491.86,-190.92"/>
<polygon fill="midnightblue" stroke="midnightblue" points="493.13,-194.18 501.36,-187.52 490.77,-187.59 493.13,-194.18"/>
</g>
<!-- Node22 -->
<g id="node22" class="node">
<title>Node22</title>
<g id="a_node22"><a xlink:title=" ">
<polygon fill="none" stroke="#bfbfbf" points="576.18,-168.5 576.18,-187.5 662.18,-187.5 662.18,-168.5 576.18,-168.5"/>
<text text-anchor="middle" x="619.18" y="-175.5" font-family="Helvetica,sans-Serif" font-size="10.00">shared_mutex</text>
</a>
</g>
</g>
<!-- Node17&#45;&gt;Node22 -->
<g id="edge30" class="edge">
<title>Node17&#45;&gt;Node22</title>
<path fill="none" stroke="midnightblue" d="M413,-224.44C455.74,-215.02 524.51,-199.87 570.74,-189.68"/>
<polygon fill="midnightblue" stroke="midnightblue" points="571.53,-193.09 580.54,-187.52 570.02,-186.25 571.53,-193.09"/>
</g>
<!-- Node23&#45;&gt;Node5 -->
<g id="edge37" class="edge">
<title>Node23&#45;&gt;Node5</title>
<path fill="none" stroke="midnightblue" d="M784.15,-280.41C803.59,-273.88 825.55,-262.72 837.18,-244 841.87,-236.45 837.92,-232.86 837.18,-224 832.94,-173.69 848.23,-152.57 818.18,-112 806.79,-96.63 788.68,-86.17 771.67,-79.24"/>
<polygon fill="midnightblue" stroke="midnightblue" points="772.44,-75.79 761.85,-75.56 769.99,-82.35 772.44,-75.79"/>
</g>
<!-- Node23&#45;&gt;Node11 -->
<g id="edge34" class="edge">
<title>Node23&#45;&gt;Node11</title>
<path fill="none" stroke="midnightblue" d="M714.63,-280.47C684.09,-272.14 636.24,-258.94 586.41,-244.31"/>
<polygon fill="midnightblue" stroke="midnightblue" points="587.33,-240.93 576.75,-241.46 585.35,-247.65 587.33,-240.93"/>
</g>
<!-- Node23&#45;&gt;Node12 -->
<g id="edge35" class="edge">
<title>Node23&#45;&gt;Node12</title>
<path fill="none" stroke="midnightblue" d="M725.74,-280.44C704.51,-271.56 671.08,-257.56 646.92,-247.45"/>
<polygon fill="midnightblue" stroke="midnightblue" points="648.1,-244.15 637.52,-243.52 645.4,-250.61 648.1,-244.15"/>
</g>
<!-- Node23&#45;&gt;Node13 -->
<g id="edge43" class="edge">
<title>Node23&#45;&gt;Node13</title>
<path fill="none" stroke="midnightblue" d="M744.77,-280.37C741.86,-262.62 735.16,-221.67 731.22,-197.6"/>
<polygon fill="midnightblue" stroke="midnightblue" points="734.65,-196.89 729.58,-187.59 727.74,-198.03 734.65,-196.89"/>
</g>
<!-- Node23&#45;&gt;Node17 -->
<g id="edge44" class="edge">
<title>Node23&#45;&gt;Node17</title>
<path fill="none" stroke="midnightblue" d="M704.45,-281.51C701.31,-280.99 698.2,-280.48 695.18,-280 611.42,-266.74 515.05,-253.5 449.93,-244.85"/>
<polygon fill="midnightblue" stroke="midnightblue" points="450.13,-241.35 439.75,-243.5 449.21,-248.29 450.13,-241.35"/>
</g>
<!-- Node24 -->
<g id="node24" class="node">
<title>Node24</title>
<g id="a_node24"><a xlink:title=" ">
<polygon fill="none" stroke="#bfbfbf" points="772.18,-224.5 772.18,-243.5 828.18,-243.5 828.18,-224.5 772.18,-224.5"/>
<text text-anchor="middle" x="800.18" y="-231.5" font-family="Helvetica,sans-Serif" font-size="10.00">optional</text>
</a>
</g>
</g>
<!-- Node23&#45;&gt;Node24 -->
<g id="edge36" class="edge">
<title>Node23&#45;&gt;Node24</title>
<path fill="none" stroke="midnightblue" d="M755.09,-280.08C762.96,-272.22 774.61,-260.57 784.1,-251.08"/>
<polygon fill="midnightblue" stroke="midnightblue" points="786.83,-253.3 791.43,-243.75 781.88,-248.35 786.83,-253.3"/>
</g>
<!-- Node25 -->
<g id="node25" class="node">
<title>Node25</title>
<g id="a_node25"><a xlink:href="time_8hpp.html" target="_top" xlink:title="Utils to work with std::chrono.">
<polygon fill="none" stroke="black" points="884.18,-224.5 884.18,-243.5 980.18,-243.5 980.18,-224.5 884.18,-224.5"/>
<text text-anchor="middle" x="932.18" y="-231.5" font-family="Helvetica,sans-Serif" font-size="10.00">details/time.hpp</text>
</a>
</g>
</g>
<!-- Node23&#45;&gt;Node25 -->
<g id="edge38" class="edge">
<title>Node23&#45;&gt;Node25</title>
<path fill="none" stroke="midnightblue" d="M775.65,-280.44C807.35,-271.24 857.91,-256.56 892.95,-246.39"/>
<polygon fill="midnightblue" stroke="midnightblue" points="894.22,-249.67 902.84,-243.52 892.26,-242.94 894.22,-249.67"/>
</g>
<!-- Node25&#45;&gt;Node2 -->
<g id="edge39" class="edge">
<title>Node25&#45;&gt;Node2</title>
<path fill="none" stroke="midnightblue" d="M937.73,-224.38C943.18,-215.57 951.35,-201.32 956.18,-188 976.38,-132.3 986.91,-62.52 991.04,-29.7"/>
<polygon fill="midnightblue" stroke="midnightblue" points="994.52,-30.06 992.24,-19.71 987.57,-29.22 994.52,-30.06"/>
</g>
<!-- Node25&#45;&gt;Node3 -->
<g id="edge41" class="edge">
<title>Node25&#45;&gt;Node3</title>
<path fill="none" stroke="midnightblue" d="M947.76,-224.32C963.18,-215.74 986.99,-202.49 1004.89,-192.52"/>
<polygon fill="midnightblue" stroke="midnightblue" points="1006.6,-195.58 1013.63,-187.65 1003.19,-189.46 1006.6,-195.58"/>
</g>
<!-- Node25&#45;&gt;Node5 -->
<g id="edge42" class="edge">
<title>Node25&#45;&gt;Node5</title>
<path fill="none" stroke="midnightblue" d="M925.29,-224.25C918.38,-215.34 907.59,-201.02 899.18,-188 878.11,-155.41 885.94,-136.91 856.18,-112 835.22,-94.46 806.97,-83.57 782.34,-76.92"/>
<polygon fill="midnightblue" stroke="midnightblue" points="782.95,-73.46 772.4,-74.4 781.23,-80.24 782.95,-73.46"/>
</g>
<!-- Node26 -->
<g id="node26" class="node">
<title>Node26</title>
<g id="a_node26"><a xlink:title=" ">
<polygon fill="none" stroke="#bfbfbf" points="908.68,-168.5 908.68,-187.5 947.68,-187.5 947.68,-168.5 908.68,-168.5"/>
<text text-anchor="middle" x="928.18" y="-175.5" font-family="Helvetica,sans-Serif" font-size="10.00">ratio</text>
</a>
</g>
</g>
<!-- Node25&#45;&gt;Node26 -->
<g id="edge40" class="edge">
<title>Node25&#45;&gt;Node26</title>
<path fill="none" stroke="midnightblue" d="M931.52,-224.08C930.99,-217.01 930.24,-206.86 929.58,-197.99"/>
<polygon fill="midnightblue" stroke="midnightblue" points="933.06,-197.47 928.83,-187.75 926.07,-197.98 933.06,-197.47"/>
</g>
<!-- Node27&#45;&gt;Node5 -->
<g id="edge48" class="edge">
<title>Node27&#45;&gt;Node5</title>
<path fill="none" stroke="midnightblue" d="M510.67,-281.49C437.88,-268.91 299.2,-244.85 298.18,-244 271.22,-221.61 262.22,-199.69 277.18,-168 293.89,-132.59 309.16,-127.35 345.18,-112 403.07,-87.32 582.5,-74.62 673.72,-69.61"/>
<polygon fill="midnightblue" stroke="midnightblue" points="674.07,-73.1 683.87,-69.07 673.69,-66.11 674.07,-73.1"/>
</g>
<!-- Node27&#45;&gt;Node11 -->
<g id="edge46" class="edge">
<title>Node27&#45;&gt;Node11</title>
<path fill="none" stroke="midnightblue" d="M554.51,-280.08C554.77,-273.01 555.15,-262.86 555.47,-253.99"/>
<polygon fill="midnightblue" stroke="midnightblue" points="558.98,-253.87 555.85,-243.75 551.99,-253.61 558.98,-253.87"/>
</g>
<!-- Node27&#45;&gt;Node12 -->
<g id="edge47" class="edge">
<title>Node27&#45;&gt;Node12</title>
<path fill="none" stroke="midnightblue" d="M564.3,-280.32C573.7,-272.26 587.92,-260.08 599.25,-250.37"/>
<polygon fill="midnightblue" stroke="midnightblue" points="601.56,-253 606.87,-243.83 597,-247.68 601.56,-253"/>
</g>
<!-- Node27&#45;&gt;Node13 -->
<g id="edge50" class="edge">
<title>Node27&#45;&gt;Node13</title>
<path fill="none" stroke="midnightblue" d="M545,-280.22C532.24,-266.94 512.19,-241.45 526.18,-224 530.86,-218.15 615.25,-200.81 673.45,-189.44"/>
<polygon fill="midnightblue" stroke="midnightblue" points="674.12,-192.88 683.27,-187.53 672.78,-186.01 674.12,-192.88"/>
</g>
<!-- Node27&#45;&gt;Node17 -->
<g id="edge51" class="edge">
<title>Node27&#45;&gt;Node17</title>
<path fill="none" stroke="midnightblue" d="M525.66,-280.44C495.11,-271.28 446.47,-256.69 412.57,-246.52"/>
<polygon fill="midnightblue" stroke="midnightblue" points="413.15,-243.04 402.57,-243.52 411.14,-249.74 413.15,-243.04"/>
</g>
<!-- Node27&#45;&gt;Node25 -->
<g id="edge49" class="edge">
<title>Node27&#45;&gt;Node25</title>
<path fill="none" stroke="midnightblue" d="M597.85,-281.33C600.67,-280.87 603.46,-280.42 606.18,-280 699.69,-265.46 808.67,-250.9 873.95,-242.43"/>
<polygon fill="midnightblue" stroke="midnightblue" points="874.58,-245.87 884.05,-241.12 873.68,-238.93 874.58,-245.87"/>
</g>
<!-- Node28&#45;&gt;Node5 -->
<g id="edge55" class="edge">
<title>Node28&#45;&gt;Node5</title>
<path fill="none" stroke="midnightblue" d="M672.21,-280.41C703.39,-266.38 760.72,-235.27 784.18,-188 802.68,-150.72 767.57,-106.12 745.03,-82.87"/>
<polygon fill="midnightblue" stroke="midnightblue" points="747.25,-80.14 737.69,-75.58 742.32,-85.11 747.25,-80.14"/>
</g>
<!-- Node28&#45;&gt;Node11 -->
<g id="edge53" class="edge">
<title>Node28&#45;&gt;Node11</title>
<path fill="none" stroke="midnightblue" d="M635.91,-280.32C620.96,-271.82 597.92,-258.73 580.45,-248.8"/>
<polygon fill="midnightblue" stroke="midnightblue" points="581.83,-245.55 571.4,-243.65 578.37,-251.64 581.83,-245.55"/>
</g>
<!-- Node28&#45;&gt;Node12 -->
<g id="edge54" class="edge">
<title>Node28&#45;&gt;Node12</title>
<path fill="none" stroke="midnightblue" d="M645.56,-280.08C640.81,-272.53 633.86,-261.49 628.03,-252.23"/>
<polygon fill="midnightblue" stroke="midnightblue" points="630.98,-250.35 622.69,-243.75 625.05,-254.08 630.98,-250.35"/>
</g>
<!-- Node28&#45;&gt;Node13 -->
<g id="edge57" class="edge">
<title>Node28&#45;&gt;Node13</title>
<path fill="none" stroke="midnightblue" d="M656.19,-280.39C663.64,-267.75 678.25,-243.56 692.18,-224 699.07,-214.32 707.31,-203.94 714.17,-195.59"/>
<polygon fill="midnightblue" stroke="midnightblue" points="717,-197.66 720.7,-187.74 711.62,-193.19 717,-197.66"/>
</g>
<!-- Node28&#45;&gt;Node17 -->
<g id="edge58" class="edge">
<title>Node28&#45;&gt;Node17</title>
<path fill="none" stroke="midnightblue" d="M615.32,-281.81C612.23,-281.19 609.15,-280.59 606.18,-280 545.42,-268.03 475.67,-254.54 428.64,-245.47"/>
<polygon fill="midnightblue" stroke="midnightblue" points="429.15,-242.01 418.67,-243.55 427.83,-248.88 429.15,-242.01"/>
</g>
<!-- Node28&#45;&gt;Node25 -->
<g id="edge56" class="edge">
<title>Node28&#45;&gt;Node25</title>
<path fill="none" stroke="midnightblue" d="M686.71,-281.69C689.57,-281.11 692.42,-280.54 695.18,-280 757.13,-267.78 828.32,-254.35 876.37,-245.37"/>
<polygon fill="midnightblue" stroke="midnightblue" points="877.08,-248.8 886.26,-243.52 875.79,-241.91 877.08,-248.8"/>
</g>
</g>
</svg>
