<?xml version="1.0" encoding="UTF-8" standalone="no"?>
<!DOCTYPE svg PUBLIC "-//W3C//DTD SVG 1.1//EN"
 "http://www.w3.org/Graphics/SVG/1.1/DTD/svg11.dtd">
<!-- Generated by graphviz version 2.43.0 (0)
 -->
<!-- Title: ntp/include/pool/threadpool.hpp Pages: 1 -->
<svg width="1017pt" height="420pt"
 viewBox="0.00 0.00 1017.00 420.00" xmlns="http://www.w3.org/2000/svg" xmlns:xlink="http://www.w3.org/1999/xlink">
<g id="graph0" class="graph" transform="scale(1 1) rotate(0) translate(4 416)">
<title>ntp/include/pool/threadpool.hpp</title>
<!-- Node1 -->
<g id="node1" class="node">
<title>Node1</title>
<g id="a_node1"><a xlink:title="Threadpool implementations.">
<polygon fill="#bfbfbf" stroke="black" points="407.5,-392.5 407.5,-411.5 578.5,-411.5 578.5,-392.5 407.5,-392.5"/>
<text text-anchor="middle" x="493" y="-399.5" font-family="Helvetica,sans-Serif" font-size="10.00">ntp/include/pool/threadpool.hpp</text>
</a>
</g>
</g>
<!-- Node2 -->
<g id="node2" class="node">
<title>Node2</title>
<g id="a_node2"><a xlink:title=" ">
<polygon fill="none" stroke="#bfbfbf" points="959,-224.5 959,-243.5 1009,-243.5 1009,-224.5 959,-224.5"/>
<text text-anchor="middle" x="984" y="-231.5" font-family="Helvetica,sans-Serif" font-size="10.00">chrono</text>
</a>
</g>
</g>
<!-- Node1&#45;&gt;Node2 -->
<g id="edge1" class="edge">
<title>Node1&#45;&gt;Node2</title>
<path fill="none" stroke="midnightblue" d="M578.53,-394.4C700.66,-383.11 916.04,-355.73 968,-300 979.51,-287.66 983.11,-268.41 984.07,-254.06"/>
<polygon fill="midnightblue" stroke="midnightblue" points="987.57,-253.92 984.38,-243.82 980.58,-253.71 987.57,-253.92"/>
</g>
<!-- Node3 -->
<g id="node3" class="node">
<title>Node3</title>
<g id="a_node3"><a xlink:title=" ">
<polygon fill="none" stroke="#bfbfbf" points="66.5,-224.5 66.5,-243.5 135.5,-243.5 135.5,-224.5 66.5,-224.5"/>
<text text-anchor="middle" x="101" y="-231.5" font-family="Helvetica,sans-Serif" font-size="10.00">type_traits</text>
</a>
</g>
</g>
<!-- Node1&#45;&gt;Node3 -->
<g id="edge2" class="edge">
<title>Node1&#45;&gt;Node3</title>
<path fill="none" stroke="midnightblue" d="M407.17,-395.79C330.13,-389.79 223.83,-377.82 188,-356 147.62,-331.41 120.56,-280.27 108.37,-253.01"/>
<polygon fill="midnightblue" stroke="midnightblue" points="111.47,-251.35 104.31,-243.54 105.04,-254.11 111.47,-251.35"/>
</g>
<!-- Node4 -->
<g id="node4" class="node">
<title>Node4</title>
<g id="a_node4"><a xlink:href="allocator_8hpp.html" target="_top" xlink:title="Allocator implementations.">
<polygon fill="none" stroke="black" points="298,-168.5 298,-187.5 414,-187.5 414,-168.5 298,-168.5"/>
<text text-anchor="middle" x="356" y="-175.5" font-family="Helvetica,sans-Serif" font-size="10.00">details/allocator.hpp</text>
</a>
</g>
</g>
<!-- Node1&#45;&gt;Node4 -->
<g id="edge3" class="edge">
<title>Node1&#45;&gt;Node4</title>
<path fill="none" stroke="midnightblue" d="M427.36,-392.47C372.01,-381.43 296.07,-356.38 259,-300 240.44,-271.78 240.82,-252.47 259,-224 269.2,-208.03 286.69,-197.64 304.04,-190.92"/>
<polygon fill="midnightblue" stroke="midnightblue" points="305.34,-194.17 313.61,-187.55 303.02,-187.56 305.34,-194.17"/>
</g>
<!-- Node8 -->
<g id="node8" class="node">
<title>Node8</title>
<g id="a_node8"><a xlink:href="windows_8hpp_source.html" target="_top" xlink:title=" ">
<polygon fill="none" stroke="black" points="134,-56.5 134,-75.5 250,-75.5 250,-56.5 134,-56.5"/>
<text text-anchor="middle" x="192" y="-63.5" font-family="Helvetica,sans-Serif" font-size="10.00">details/windows.hpp</text>
</a>
</g>
</g>
<!-- Node1&#45;&gt;Node8 -->
<g id="edge11" class="edge">
<title>Node1&#45;&gt;Node8</title>
<path fill="none" stroke="midnightblue" d="M407.41,-399.3C266.23,-394.14 0,-373.49 0,-291 0,-291 0,-291 0,-177 0,-118.11 68.85,-90.3 124.09,-77.47"/>
<polygon fill="midnightblue" stroke="midnightblue" points="124.86,-80.89 133.87,-75.32 123.35,-74.05 124.86,-80.89"/>
</g>
<!-- Node11 -->
<g id="node11" class="node">
<title>Node11</title>
<g id="a_node11"><a xlink:href="work_8hpp.html" target="_top" xlink:title="Work callback wrapper and manager implementation.">
<polygon fill="none" stroke="black" points="399,-336.5 399,-355.5 485,-355.5 485,-336.5 399,-336.5"/>
<text text-anchor="middle" x="442" y="-343.5" font-family="Helvetica,sans-Serif" font-size="10.00">pool/work.hpp</text>
</a>
</g>
</g>
<!-- Node1&#45;&gt;Node11 -->
<g id="edge12" class="edge">
<title>Node1&#45;&gt;Node11</title>
<path fill="none" stroke="midnightblue" d="M484.58,-392.08C477.15,-384.22 466.15,-372.57 457.19,-363.08"/>
<polygon fill="midnightblue" stroke="midnightblue" points="459.68,-360.62 450.26,-355.75 454.59,-365.42 459.68,-360.62"/>
</g>
<!-- Node24 -->
<g id="node24" class="node">
<title>Node24</title>
<g id="a_node24"><a xlink:href="wait_8hpp.html" target="_top" xlink:title="Implementation of threadpool wait callback.">
<polygon fill="none" stroke="black" points="503.5,-336.5 503.5,-355.5 586.5,-355.5 586.5,-336.5 503.5,-336.5"/>
<text text-anchor="middle" x="545" y="-343.5" font-family="Helvetica,sans-Serif" font-size="10.00">pool/wait.hpp</text>
</a>
</g>
</g>
<!-- Node1&#45;&gt;Node24 -->
<g id="edge31" class="edge">
<title>Node1&#45;&gt;Node24</title>
<path fill="none" stroke="midnightblue" d="M501.59,-392.08C509.16,-384.22 520.38,-372.57 529.51,-363.08"/>
<polygon fill="midnightblue" stroke="midnightblue" points="532.16,-365.38 536.57,-355.75 527.12,-360.53 532.16,-365.38"/>
</g>
<!-- Node28 -->
<g id="node28" class="node">
<title>Node28</title>
<g id="a_node28"><a xlink:href="timer_8hpp.html" target="_top" xlink:title="Implementation of threadpool timer callback.">
<polygon fill="none" stroke="black" points="697.5,-336.5 697.5,-355.5 784.5,-355.5 784.5,-336.5 697.5,-336.5"/>
<text text-anchor="middle" x="741" y="-343.5" font-family="Helvetica,sans-Serif" font-size="10.00">pool/timer.hpp</text>
</a>
</g>
</g>
<!-- Node1&#45;&gt;Node28 -->
<g id="edge42" class="edge">
<title>Node1&#45;&gt;Node28</title>
<path fill="none" stroke="midnightblue" d="M532.3,-392.44C575.56,-383.02 645.17,-367.87 691.97,-357.68"/>
<polygon fill="midnightblue" stroke="midnightblue" points="692.86,-361.06 701.89,-355.52 691.37,-354.22 692.86,-361.06"/>
</g>
<!-- Node29 -->
<g id="node29" class="node">
<title>Node29</title>
<g id="a_node29"><a xlink:href="io_8hpp.html" target="_top" xlink:title="Implementation of threadpool IO callback.">
<polygon fill="none" stroke="black" points="608.5,-336.5 608.5,-355.5 679.5,-355.5 679.5,-336.5 608.5,-336.5"/>
<text text-anchor="middle" x="644" y="-343.5" font-family="Helvetica,sans-Serif" font-size="10.00">pool/io.hpp</text>
</a>
</g>
</g>
<!-- Node1&#45;&gt;Node29 -->
<g id="edge50" class="edge">
<title>Node1&#45;&gt;Node29</title>
<path fill="none" stroke="midnightblue" d="M516.93,-392.44C542.22,-383.4 582.3,-369.06 610.68,-358.92"/>
<polygon fill="midnightblue" stroke="midnightblue" points="611.95,-362.18 620.19,-355.52 609.59,-355.59 611.95,-362.18"/>
</g>
<!-- Node5 -->
<g id="node5" class="node">
<title>Node5</title>
<g id="a_node5"><a xlink:href="exception_8hpp.html" target="_top" xlink:title="Win32 error wrapper implementations.">
<polygon fill="none" stroke="black" points="306,-112.5 306,-131.5 428,-131.5 428,-112.5 306,-112.5"/>
<text text-anchor="middle" x="367" y="-119.5" font-family="Helvetica,sans-Serif" font-size="10.00">details/exception.hpp</text>
</a>
</g>
</g>
<!-- Node4&#45;&gt;Node5 -->
<g id="edge4" class="edge">
<title>Node4&#45;&gt;Node5</title>
<path fill="none" stroke="midnightblue" d="M357.82,-168.08C359.27,-160.93 361.37,-150.64 363.19,-141.69"/>
<polygon fill="midnightblue" stroke="midnightblue" points="366.65,-142.25 365.22,-131.75 359.79,-140.85 366.65,-142.25"/>
</g>
<!-- Node4&#45;&gt;Node8 -->
<g id="edge10" class="edge">
<title>Node4&#45;&gt;Node8</title>
<path fill="none" stroke="midnightblue" d="M304.26,-168.47C278.39,-162.04 247.99,-150.94 226,-132 211.85,-119.81 202.76,-100.26 197.57,-85.78"/>
<polygon fill="midnightblue" stroke="midnightblue" points="200.77,-84.32 194.34,-75.9 194.12,-86.5 200.77,-84.32"/>
</g>
<!-- Node6 -->
<g id="node6" class="node">
<title>Node6</title>
<g id="a_node6"><a xlink:title=" ">
<polygon fill="none" stroke="#bfbfbf" points="320.5,-56.5 320.5,-75.5 385.5,-75.5 385.5,-56.5 320.5,-56.5"/>
<text text-anchor="middle" x="353" y="-63.5" font-family="Helvetica,sans-Serif" font-size="10.00">stdexcept</text>
</a>
</g>
</g>
<!-- Node5&#45;&gt;Node6 -->
<g id="edge5" class="edge">
<title>Node5&#45;&gt;Node6</title>
<path fill="none" stroke="midnightblue" d="M364.69,-112.08C362.83,-104.93 360.16,-94.64 357.85,-85.69"/>
<polygon fill="midnightblue" stroke="midnightblue" points="361.17,-84.55 355.27,-75.75 354.39,-86.31 361.17,-84.55"/>
</g>
<!-- Node7 -->
<g id="node7" class="node">
<title>Node7</title>
<g id="a_node7"><a xlink:title=" ">
<polygon fill="none" stroke="#bfbfbf" points="404,-56.5 404,-75.5 448,-75.5 448,-56.5 404,-56.5"/>
<text text-anchor="middle" x="426" y="-63.5" font-family="Helvetica,sans-Serif" font-size="10.00">string</text>
</a>
</g>
</g>
<!-- Node5&#45;&gt;Node7 -->
<g id="edge6" class="edge">
<title>Node5&#45;&gt;Node7</title>
<path fill="none" stroke="midnightblue" d="M376.48,-112.32C385.2,-104.34 398.34,-92.31 408.9,-82.65"/>
<polygon fill="midnightblue" stroke="midnightblue" points="411.33,-85.17 416.35,-75.83 406.61,-80 411.33,-85.17"/>
</g>
<!-- Node5&#45;&gt;Node8 -->
<g id="edge7" class="edge">
<title>Node5&#45;&gt;Node8</title>
<path fill="none" stroke="midnightblue" d="M339.27,-112.44C309.57,-103.28 262.28,-88.69 229.33,-78.52"/>
<polygon fill="midnightblue" stroke="midnightblue" points="230.19,-75.12 219.6,-75.52 228.12,-81.81 230.19,-75.12"/>
</g>
<!-- Node9 -->
<g id="node9" class="node">
<title>Node9</title>
<g id="a_node9"><a xlink:href="ntp__config_8hpp_source.html" target="_top" xlink:title=" ">
<polygon fill="none" stroke="black" points="692,-0.5 692,-19.5 780,-19.5 780,-0.5 692,-0.5"/>
<text text-anchor="middle" x="736" y="-7.5" font-family="Helvetica,sans-Serif" font-size="10.00">ntp_config.hpp</text>
</a>
</g>
</g>
<!-- Node8&#45;&gt;Node9 -->
<g id="edge8" class="edge">
<title>Node8&#45;&gt;Node9</title>
<path fill="none" stroke="midnightblue" d="M250.14,-57.58C254.83,-57.03 259.49,-56.5 264,-56 415.11,-39.36 593.85,-23.31 681.7,-15.66"/>
<polygon fill="midnightblue" stroke="midnightblue" points="682.05,-19.14 691.71,-14.79 681.44,-12.17 682.05,-19.14"/>
</g>
<!-- Node10 -->
<g id="node10" class="node">
<title>Node10</title>
<g id="a_node10"><a xlink:title=" ">
<polygon fill="none" stroke="#bfbfbf" points="157,-0.5 157,-19.5 227,-19.5 227,-0.5 157,-0.5"/>
<text text-anchor="middle" x="192" y="-7.5" font-family="Helvetica,sans-Serif" font-size="10.00">Windows.h</text>
</a>
</g>
</g>
<!-- Node8&#45;&gt;Node10 -->
<g id="edge9" class="edge">
<title>Node8&#45;&gt;Node10</title>
<path fill="none" stroke="midnightblue" d="M192,-56.08C192,-49.01 192,-38.86 192,-29.99"/>
<polygon fill="midnightblue" stroke="midnightblue" points="195.5,-29.75 192,-19.75 188.5,-29.75 195.5,-29.75"/>
</g>
<!-- Node11&#45;&gt;Node8 -->
<g id="edge15" class="edge">
<title>Node11&#45;&gt;Node8</title>
<path fill="none" stroke="midnightblue" d="M398.76,-342.41C294.54,-334.97 38,-309.15 38,-235 38,-235 38,-235 38,-177 38,-123.13 101.18,-93.14 146.6,-78.54"/>
<polygon fill="midnightblue" stroke="midnightblue" points="147.75,-81.85 156.28,-75.57 145.7,-75.16 147.75,-81.85"/>
</g>
<!-- Node12 -->
<g id="node12" class="node">
<title>Node12</title>
<g id="a_node12"><a xlink:title=" ">
<polygon fill="none" stroke="#bfbfbf" points="570.5,-280.5 570.5,-299.5 611.5,-299.5 611.5,-280.5 570.5,-280.5"/>
<text text-anchor="middle" x="591" y="-287.5" font-family="Helvetica,sans-Serif" font-size="10.00">tuple</text>
</a>
</g>
</g>
<!-- Node11&#45;&gt;Node12 -->
<g id="edge13" class="edge">
<title>Node11&#45;&gt;Node12</title>
<path fill="none" stroke="midnightblue" d="M465.61,-336.44C491.33,-327.12 532.57,-312.18 560.67,-301.99"/>
<polygon fill="midnightblue" stroke="midnightblue" points="562.17,-305.17 570.38,-298.47 559.79,-298.59 562.17,-305.17"/>
</g>
<!-- Node13 -->
<g id="node13" class="node">
<title>Node13</title>
<g id="a_node13"><a xlink:title=" ">
<polygon fill="none" stroke="#bfbfbf" points="629.5,-280.5 629.5,-299.5 674.5,-299.5 674.5,-280.5 629.5,-280.5"/>
<text text-anchor="middle" x="652" y="-287.5" font-family="Helvetica,sans-Serif" font-size="10.00">utility</text>
</a>
</g>
</g>
<!-- Node11&#45;&gt;Node13 -->
<g id="edge14" class="edge">
<title>Node11&#45;&gt;Node13</title>
<path fill="none" stroke="midnightblue" d="M477.42,-336.5C511.55,-328.21 564.88,-315.04 619.49,-300.34"/>
<polygon fill="midnightblue" stroke="midnightblue" points="620.6,-303.67 629.34,-297.68 618.77,-296.91 620.6,-303.67"/>
</g>
<!-- Node14 -->
<g id="node14" class="node">
<title>Node14</title>
<g id="a_node14"><a xlink:href="utils_8hpp.html" target="_top" xlink:title="Some useful implementation stuff.">
<polygon fill="none" stroke="black" points="654.5,-224.5 654.5,-243.5 749.5,-243.5 749.5,-224.5 654.5,-224.5"/>
<text text-anchor="middle" x="702" y="-231.5" font-family="Helvetica,sans-Serif" font-size="10.00">details/utils.hpp</text>
</a>
</g>
</g>
<!-- Node11&#45;&gt;Node14 -->
<g id="edge16" class="edge">
<title>Node11&#45;&gt;Node14</title>
<path fill="none" stroke="midnightblue" d="M453.26,-336.48C471.74,-322.85 510.03,-296.05 546,-280 579.8,-264.92 619.96,-253.47 651.07,-245.9"/>
<polygon fill="midnightblue" stroke="midnightblue" points="651.91,-249.29 660.83,-243.57 650.29,-242.48 651.91,-249.29"/>
</g>
<!-- Node18 -->
<g id="node18" class="node">
<title>Node18</title>
<g id="a_node18"><a xlink:href="basic__callback_8hpp.html" target="_top" xlink:title="Interfaces and base classes for callback wrappers.">
<polygon fill="none" stroke="black" points="342.5,-280.5 342.5,-299.5 475.5,-299.5 475.5,-280.5 342.5,-280.5"/>
<text text-anchor="middle" x="409" y="-287.5" font-family="Helvetica,sans-Serif" font-size="10.00">pool/basic_callback.hpp</text>
</a>
</g>
</g>
<!-- Node11&#45;&gt;Node18 -->
<g id="edge22" class="edge">
<title>Node11&#45;&gt;Node18</title>
<path fill="none" stroke="midnightblue" d="M436.55,-336.08C431.99,-328.61 425.33,-317.72 419.71,-308.52"/>
<polygon fill="midnightblue" stroke="midnightblue" points="422.55,-306.46 414.35,-299.75 416.58,-310.11 422.55,-306.46"/>
</g>
<!-- Node14&#45;&gt;Node4 -->
<g id="edge21" class="edge">
<title>Node14&#45;&gt;Node4</title>
<path fill="none" stroke="midnightblue" d="M654.42,-225.48C651.23,-224.98 648.07,-224.48 645,-224 568.1,-211.94 479.67,-198.19 421.09,-189.09"/>
<polygon fill="midnightblue" stroke="midnightblue" points="421.29,-185.58 410.87,-187.51 420.22,-192.5 421.29,-185.58"/>
</g>
<!-- Node14&#45;&gt;Node9 -->
<g id="edge17" class="edge">
<title>Node14&#45;&gt;Node9</title>
<path fill="none" stroke="midnightblue" d="M705.56,-224.19C709.04,-215.23 714.2,-200.87 717,-188 729.35,-131.25 733.81,-62.44 735.3,-29.85"/>
<polygon fill="midnightblue" stroke="midnightblue" points="738.81,-29.71 735.73,-19.58 731.82,-29.42 738.81,-29.71"/>
</g>
<!-- Node15 -->
<g id="node15" class="node">
<title>Node15</title>
<g id="a_node15"><a xlink:href="ntrtl_8h.html" target="_top" xlink:title="Contains necessary declarations/definitions of internal windows objects and functions.">
<polygon fill="none" stroke="black" points="628,-168.5 628,-187.5 708,-187.5 708,-168.5 628,-168.5"/>
<text text-anchor="middle" x="668" y="-175.5" font-family="Helvetica,sans-Serif" font-size="10.00">native/ntrtl.h</text>
</a>
</g>
</g>
<!-- Node14&#45;&gt;Node15 -->
<g id="edge18" class="edge">
<title>Node14&#45;&gt;Node15</title>
<path fill="none" stroke="midnightblue" d="M696.39,-224.08C691.63,-216.53 684.68,-205.49 678.85,-196.23"/>
<polygon fill="midnightblue" stroke="midnightblue" points="681.8,-194.35 673.51,-187.75 675.88,-198.08 681.8,-194.35"/>
</g>
<!-- Node16 -->
<g id="node16" class="node">
<title>Node16</title>
<g id="a_node16"><a xlink:title=" ">
<polygon fill="none" stroke="#bfbfbf" points="553,-112.5 553,-131.5 621,-131.5 621,-112.5 553,-112.5"/>
<text text-anchor="middle" x="587" y="-119.5" font-family="Helvetica,sans-Serif" font-size="10.00">windows.h</text>
</a>
</g>
</g>
<!-- Node15&#45;&gt;Node16 -->
<g id="edge19" class="edge">
<title>Node15&#45;&gt;Node16</title>
<path fill="none" stroke="midnightblue" d="M654.99,-168.32C642.47,-159.98 623.32,-147.21 608.53,-137.35"/>
<polygon fill="midnightblue" stroke="midnightblue" points="610.24,-134.29 599.98,-131.65 606.36,-140.11 610.24,-134.29"/>
</g>
<!-- Node17 -->
<g id="node17" class="node">
<title>Node17</title>
<g id="a_node17"><a xlink:title=" ">
<polygon fill="none" stroke="#bfbfbf" points="639.5,-112.5 639.5,-131.5 704.5,-131.5 704.5,-112.5 639.5,-112.5"/>
<text text-anchor="middle" x="672" y="-119.5" font-family="Helvetica,sans-Serif" font-size="10.00">winternl.h</text>
</a>
</g>
</g>
<!-- Node15&#45;&gt;Node17 -->
<g id="edge20" class="edge">
<title>Node15&#45;&gt;Node17</title>
<path fill="none" stroke="midnightblue" d="M668.66,-168.08C669.18,-161.01 669.94,-150.86 670.59,-141.99"/>
<polygon fill="midnightblue" stroke="midnightblue" points="674.1,-141.98 671.35,-131.75 667.12,-141.47 674.1,-141.98"/>
</g>
<!-- Node18&#45;&gt;Node3 -->
<g id="edge27" class="edge">
<title>Node18&#45;&gt;Node3</title>
<path fill="none" stroke="midnightblue" d="M358.84,-280.43C306.65,-271.48 222.56,-256.97 150,-244 148.54,-243.74 147.05,-243.47 145.55,-243.2"/>
<polygon fill="midnightblue" stroke="midnightblue" points="145.99,-239.72 135.53,-241.38 144.74,-246.61 145.99,-239.72"/>
</g>
<!-- Node18&#45;&gt;Node8 -->
<g id="edge29" class="edge">
<title>Node18&#45;&gt;Node8</title>
<path fill="none" stroke="midnightblue" d="M342.31,-281.23C313.97,-275.05 282.19,-263.94 259,-244 210.66,-202.44 197.11,-122.22 193.38,-85.8"/>
<polygon fill="midnightblue" stroke="midnightblue" points="196.85,-85.28 192.48,-75.62 189.88,-85.89 196.85,-85.28"/>
</g>
<!-- Node18&#45;&gt;Node14 -->
<g id="edge30" class="edge">
<title>Node18&#45;&gt;Node14</title>
<path fill="none" stroke="midnightblue" d="M455.43,-280.44C507.08,-270.92 590.51,-255.55 645.81,-245.36"/>
<polygon fill="midnightblue" stroke="midnightblue" points="646.59,-248.77 655.79,-243.52 645.32,-241.89 646.59,-248.77"/>
</g>
<!-- Node19 -->
<g id="node19" class="node">
<title>Node19</title>
<g id="a_node19"><a xlink:title=" ">
<polygon fill="none" stroke="#bfbfbf" points="532,-224.5 532,-243.5 570,-243.5 570,-224.5 532,-224.5"/>
<text text-anchor="middle" x="551" y="-231.5" font-family="Helvetica,sans-Serif" font-size="10.00">map</text>
</a>
</g>
</g>
<!-- Node18&#45;&gt;Node19 -->
<g id="edge23" class="edge">
<title>Node18&#45;&gt;Node19</title>
<path fill="none" stroke="midnightblue" d="M431.5,-280.44C456.05,-271.11 495.41,-256.14 522.2,-245.95"/>
<polygon fill="midnightblue" stroke="midnightblue" points="523.69,-249.13 531.79,-242.3 521.2,-242.59 523.69,-249.13"/>
</g>
<!-- Node20 -->
<g id="node20" class="node">
<title>Node20</title>
<g id="a_node20"><a xlink:title=" ">
<polygon fill="none" stroke="#bfbfbf" points="588,-224.5 588,-243.5 636,-243.5 636,-224.5 588,-224.5"/>
<text text-anchor="middle" x="612" y="-231.5" font-family="Helvetica,sans-Serif" font-size="10.00">mutex</text>
</a>
</g>
</g>
<!-- Node18&#45;&gt;Node20 -->
<g id="edge24" class="edge">
<title>Node18&#45;&gt;Node20</title>
<path fill="none" stroke="midnightblue" d="M441.61,-280.45C473.84,-271.97 524.82,-258.53 577.92,-244.28"/>
<polygon fill="midnightblue" stroke="midnightblue" points="579.11,-247.58 587.86,-241.61 577.29,-240.82 579.11,-247.58"/>
</g>
<!-- Node21 -->
<g id="node21" class="node">
<title>Node21</title>
<g id="a_node21"><a xlink:title=" ">
<polygon fill="none" stroke="#bfbfbf" points="268,-224.5 268,-243.5 326,-243.5 326,-224.5 268,-224.5"/>
<text text-anchor="middle" x="297" y="-231.5" font-family="Helvetica,sans-Serif" font-size="10.00">memory</text>
</a>
</g>
</g>
<!-- Node18&#45;&gt;Node21 -->
<g id="edge25" class="edge">
<title>Node18&#45;&gt;Node21</title>
<path fill="none" stroke="midnightblue" d="M391.01,-280.32C372.96,-271.62 344.95,-258.12 324.2,-248.11"/>
<polygon fill="midnightblue" stroke="midnightblue" points="325.48,-244.84 314.95,-243.65 322.44,-251.15 325.48,-244.84"/>
</g>
<!-- Node22 -->
<g id="node22" class="node">
<title>Node22</title>
<g id="a_node22"><a xlink:title=" ">
<polygon fill="none" stroke="#bfbfbf" points="344.5,-224.5 344.5,-243.5 409.5,-243.5 409.5,-224.5 344.5,-224.5"/>
<text text-anchor="middle" x="377" y="-231.5" font-family="Helvetica,sans-Serif" font-size="10.00">functional</text>
</a>
</g>
</g>
<!-- Node18&#45;&gt;Node22 -->
<g id="edge26" class="edge">
<title>Node18&#45;&gt;Node22</title>
<path fill="none" stroke="midnightblue" d="M403.72,-280.08C399.29,-272.61 392.84,-261.72 387.38,-252.52"/>
<polygon fill="midnightblue" stroke="midnightblue" points="390.29,-250.57 382.19,-243.75 384.27,-254.14 390.29,-250.57"/>
</g>
<!-- Node23 -->
<g id="node23" class="node">
<title>Node23</title>
<g id="a_node23"><a xlink:title=" ">
<polygon fill="none" stroke="#bfbfbf" points="428,-224.5 428,-243.5 514,-243.5 514,-224.5 428,-224.5"/>
<text text-anchor="middle" x="471" y="-231.5" font-family="Helvetica,sans-Serif" font-size="10.00">shared_mutex</text>
</a>
</g>
</g>
<!-- Node18&#45;&gt;Node23 -->
<g id="edge28" class="edge">
<title>Node18&#45;&gt;Node23</title>
<path fill="none" stroke="midnightblue" d="M418.96,-280.32C428.13,-272.34 441.94,-260.31 453.03,-250.65"/>
<polygon fill="midnightblue" stroke="midnightblue" points="455.62,-253.04 460.86,-243.83 451.02,-247.76 455.62,-253.04"/>
</g>
<!-- Node24&#45;&gt;Node9 -->
<g id="edge35" class="edge">
<title>Node24&#45;&gt;Node9</title>
<path fill="none" stroke="midnightblue" d="M503.26,-337.56C500.13,-337.02 497.02,-336.5 494,-336 441.87,-327.41 293.41,-340.09 259,-300 210.22,-243.18 277.44,-83.59 311,-56 339.11,-32.89 573.7,-18.77 681.82,-13.44"/>
<polygon fill="midnightblue" stroke="midnightblue" points="682.06,-16.93 691.88,-12.95 681.72,-9.94 682.06,-16.93"/>
</g>
<!-- Node24&#45;&gt;Node12 -->
<g id="edge32" class="edge">
<title>Node24&#45;&gt;Node12</title>
<path fill="none" stroke="midnightblue" d="M552.6,-336.08C559.23,-328.3 569.02,-316.8 577.06,-307.37"/>
<polygon fill="midnightblue" stroke="midnightblue" points="579.73,-309.63 583.55,-299.75 574.4,-305.09 579.73,-309.63"/>
</g>
<!-- Node24&#45;&gt;Node13 -->
<g id="edge33" class="edge">
<title>Node24&#45;&gt;Node13</title>
<path fill="none" stroke="midnightblue" d="M562.19,-336.32C579.35,-327.66 605.95,-314.24 625.75,-304.25"/>
<polygon fill="midnightblue" stroke="midnightblue" points="627.5,-307.28 634.85,-299.65 624.35,-301.04 627.5,-307.28"/>
</g>
<!-- Node24&#45;&gt;Node14 -->
<g id="edge40" class="edge">
<title>Node24&#45;&gt;Node14</title>
<path fill="none" stroke="midnightblue" d="M544.78,-336.17C544.92,-322.35 547.25,-295.59 562,-280 574.5,-266.79 616.43,-254.35 651.17,-245.91"/>
<polygon fill="midnightblue" stroke="midnightblue" points="652.29,-249.24 661.22,-243.53 650.68,-242.43 652.29,-249.24"/>
</g>
<!-- Node24&#45;&gt;Node18 -->
<g id="edge41" class="edge">
<title>Node24&#45;&gt;Node18</title>
<path fill="none" stroke="midnightblue" d="M523.45,-336.44C500.97,-327.52 465.51,-313.44 440.02,-303.32"/>
<polygon fill="midnightblue" stroke="midnightblue" points="441.03,-299.95 430.45,-299.52 438.45,-306.46 441.03,-299.95"/>
</g>
<!-- Node25 -->
<g id="node25" class="node">
<title>Node25</title>
<g id="a_node25"><a xlink:title=" ">
<polygon fill="none" stroke="#bfbfbf" points="268,-280.5 268,-299.5 324,-299.5 324,-280.5 268,-280.5"/>
<text text-anchor="middle" x="296" y="-287.5" font-family="Helvetica,sans-Serif" font-size="10.00">optional</text>
</a>
</g>
</g>
<!-- Node24&#45;&gt;Node25 -->
<g id="edge34" class="edge">
<title>Node24&#45;&gt;Node25</title>
<path fill="none" stroke="midnightblue" d="M503.49,-336.56C462.78,-328.21 398.71,-314.84 334.2,-300.22"/>
<polygon fill="midnightblue" stroke="midnightblue" points="334.79,-296.77 324.26,-297.97 333.24,-303.6 334.79,-296.77"/>
</g>
<!-- Node26 -->
<g id="node26" class="node">
<title>Node26</title>
<g id="a_node26"><a xlink:href="time_8hpp.html" target="_top" xlink:title="Utils to work with std::chrono.">
<polygon fill="none" stroke="black" points="769,-280.5 769,-299.5 865,-299.5 865,-280.5 769,-280.5"/>
<text text-anchor="middle" x="817" y="-287.5" font-family="Helvetica,sans-Serif" font-size="10.00">details/time.hpp</text>
</a>
</g>
</g>
<!-- Node24&#45;&gt;Node26 -->
<g id="edge36" class="edge">
<title>Node24&#45;&gt;Node26</title>
<path fill="none" stroke="midnightblue" d="M586.61,-336.74C634.18,-327.29 712.17,-311.81 764.04,-301.51"/>
<polygon fill="midnightblue" stroke="midnightblue" points="764.92,-304.91 774.05,-299.53 763.56,-298.04 764.92,-304.91"/>
</g>
<!-- Node26&#45;&gt;Node2 -->
<g id="edge38" class="edge">
<title>Node26&#45;&gt;Node2</title>
<path fill="none" stroke="midnightblue" d="M843.46,-280.44C872.01,-271.21 917.6,-256.47 949.07,-246.29"/>
<polygon fill="midnightblue" stroke="midnightblue" points="950.32,-249.57 958.76,-243.16 948.16,-242.91 950.32,-249.57"/>
</g>
<!-- Node26&#45;&gt;Node8 -->
<g id="edge39" class="edge">
<title>Node26&#45;&gt;Node8</title>
<path fill="none" stroke="midnightblue" d="M811.84,-280.21C802.97,-265.95 783.42,-237.96 759,-224 713.56,-198.02 345.7,-151.19 297,-132 264.68,-119.26 231.21,-96.61 211,-81.7"/>
<polygon fill="midnightblue" stroke="midnightblue" points="213.03,-78.85 202.94,-75.64 208.83,-84.45 213.03,-78.85"/>
</g>
<!-- Node27 -->
<g id="node27" class="node">
<title>Node27</title>
<g id="a_node27"><a xlink:title=" ">
<polygon fill="none" stroke="#bfbfbf" points="806.5,-224.5 806.5,-243.5 845.5,-243.5 845.5,-224.5 806.5,-224.5"/>
<text text-anchor="middle" x="826" y="-231.5" font-family="Helvetica,sans-Serif" font-size="10.00">ratio</text>
</a>
</g>
</g>
<!-- Node26&#45;&gt;Node27 -->
<g id="edge37" class="edge">
<title>Node26&#45;&gt;Node27</title>
<path fill="none" stroke="midnightblue" d="M818.49,-280.08C819.68,-272.93 821.39,-262.64 822.88,-253.69"/>
<polygon fill="midnightblue" stroke="midnightblue" points="826.35,-254.19 824.54,-243.75 819.45,-253.04 826.35,-254.19"/>
</g>
<!-- Node28&#45;&gt;Node2 -->
<g id="edge45" class="edge">
<title>Node28&#45;&gt;Node2</title>
<path fill="none" stroke="midnightblue" d="M784.85,-345.1C829.14,-343.11 897.6,-334.11 945,-300 960.99,-288.5 971.61,-268.22 977.68,-253.37"/>
<polygon fill="midnightblue" stroke="midnightblue" points="981.07,-254.31 981.3,-243.72 974.51,-251.85 981.07,-254.31"/>
</g>
<!-- Node28&#45;&gt;Node9 -->
<g id="edge46" class="edge">
<title>Node28&#45;&gt;Node9</title>
<path fill="none" stroke="midnightblue" d="M784.71,-343.89C821.61,-340.69 873.62,-330.53 907,-300 929.72,-279.21 931,-265.8 931,-235 931,-235 931,-235 931,-121 931,-90.2 929.8,-76.7 907,-56 875.32,-27.23 827.44,-16.45 790.39,-12.6"/>
<polygon fill="midnightblue" stroke="midnightblue" points="790.53,-9.1 780.26,-11.69 789.9,-16.07 790.53,-9.1"/>
</g>
<!-- Node28&#45;&gt;Node12 -->
<g id="edge43" class="edge">
<title>Node28&#45;&gt;Node12</title>
<path fill="none" stroke="midnightblue" d="M717.23,-336.44C691.33,-327.12 649.82,-312.18 621.53,-301.99"/>
<polygon fill="midnightblue" stroke="midnightblue" points="622.35,-298.57 611.76,-298.47 619.98,-305.15 622.35,-298.57"/>
</g>
<!-- Node28&#45;&gt;Node13 -->
<g id="edge44" class="edge">
<title>Node28&#45;&gt;Node13</title>
<path fill="none" stroke="midnightblue" d="M726.7,-336.32C712.82,-327.9 691.51,-314.97 675.2,-305.07"/>
<polygon fill="midnightblue" stroke="midnightblue" points="676.63,-301.85 666.26,-299.65 673,-307.83 676.63,-301.85"/>
</g>
<!-- Node28&#45;&gt;Node14 -->
<g id="edge48" class="edge">
<title>Node28&#45;&gt;Node14</title>
<path fill="none" stroke="midnightblue" d="M737.94,-336.37C731.62,-318.54 717,-277.3 708.48,-253.27"/>
<polygon fill="midnightblue" stroke="midnightblue" points="711.69,-251.85 705.05,-243.59 705.09,-254.19 711.69,-251.85"/>
</g>
<!-- Node28&#45;&gt;Node18 -->
<g id="edge49" class="edge">
<title>Node28&#45;&gt;Node18</title>
<path fill="none" stroke="midnightblue" d="M697.31,-337.4C694.5,-336.92 691.71,-336.45 689,-336 615.01,-323.65 529.92,-310.06 473.14,-301.08"/>
<polygon fill="midnightblue" stroke="midnightblue" points="473.66,-297.62 463.23,-299.52 472.56,-304.54 473.66,-297.62"/>
</g>
<!-- Node28&#45;&gt;Node26 -->
<g id="edge47" class="edge">
<title>Node28&#45;&gt;Node26</title>
<path fill="none" stroke="midnightblue" d="M753.21,-336.32C764.78,-328.11 782.38,-315.6 796.16,-305.81"/>
<polygon fill="midnightblue" stroke="midnightblue" points="798.44,-308.48 804.57,-299.83 794.39,-302.77 798.44,-308.48"/>
</g>
<!-- Node29&#45;&gt;Node9 -->
<g id="edge53" class="edge">
<title>Node29&#45;&gt;Node9</title>
<path fill="none" stroke="midnightblue" d="M679.86,-337.81C682.95,-337.2 686.03,-336.59 689,-336 771.18,-319.79 812.1,-356.44 874,-300 896.24,-279.72 893,-265.1 893,-235 893,-235 893,-235 893,-121 893,-66.74 829.32,-36.98 783.07,-22.52"/>
<polygon fill="midnightblue" stroke="midnightblue" points="783.79,-19.08 773.21,-19.58 781.79,-25.79 783.79,-19.08"/>
</g>
<!-- Node29&#45;&gt;Node12 -->
<g id="edge51" class="edge">
<title>Node29&#45;&gt;Node12</title>
<path fill="none" stroke="midnightblue" d="M635.25,-336.08C627.53,-328.22 616.1,-316.57 606.78,-307.08"/>
<polygon fill="midnightblue" stroke="midnightblue" points="609.09,-304.44 599.59,-299.75 604.1,-309.34 609.09,-304.44"/>
</g>
<!-- Node29&#45;&gt;Node13 -->
<g id="edge52" class="edge">
<title>Node29&#45;&gt;Node13</title>
<path fill="none" stroke="midnightblue" d="M645.32,-336.08C646.38,-328.93 647.91,-318.64 649.23,-309.69"/>
<polygon fill="midnightblue" stroke="midnightblue" points="652.7,-310.16 650.7,-299.75 645.78,-309.13 652.7,-310.16"/>
</g>
<!-- Node29&#45;&gt;Node14 -->
<g id="edge55" class="edge">
<title>Node29&#45;&gt;Node14</title>
<path fill="none" stroke="midnightblue" d="M653.97,-336.32C663.06,-327.9 676.21,-314.32 684,-300 691.87,-285.54 696.53,-267.35 699.12,-253.89"/>
<polygon fill="midnightblue" stroke="midnightblue" points="702.6,-254.34 700.85,-243.89 695.7,-253.15 702.6,-254.34"/>
</g>
<!-- Node29&#45;&gt;Node18 -->
<g id="edge56" class="edge">
<title>Node29&#45;&gt;Node18</title>
<path fill="none" stroke="midnightblue" d="M608.31,-336.8C567.6,-327.44 500.89,-312.12 455.99,-301.8"/>
<polygon fill="midnightblue" stroke="midnightblue" points="456.72,-298.38 446.19,-299.55 455.16,-305.2 456.72,-298.38"/>
</g>
<!-- Node29&#45;&gt;Node26 -->
<g id="edge54" class="edge">
<title>Node29&#45;&gt;Node26</title>
<path fill="none" stroke="midnightblue" d="M671.41,-336.44C700.77,-327.28 747.52,-312.69 780.1,-302.52"/>
<polygon fill="midnightblue" stroke="midnightblue" points="781.21,-305.84 789.72,-299.52 779.13,-299.16 781.21,-305.84"/>
</g>
</g>
</svg>
