<?xml version="1.0" encoding="UTF-8" standalone="no"?>
<!DOCTYPE svg PUBLIC "-//W3C//DTD SVG 1.1//EN"
 "http://www.w3.org/Graphics/SVG/1.1/DTD/svg11.dtd">
<!-- Generated by graphviz version 2.43.0 (0)
 -->
<!-- Title: ntp/include/details/time.hpp Pages: 1 -->
<svg width="275pt" height="151pt"
 viewBox="0.00 0.00 274.50 151.00" xmlns="http://www.w3.org/2000/svg" xmlns:xlink="http://www.w3.org/1999/xlink">
<g id="graph0" class="graph" transform="scale(1 1) rotate(0) translate(4 147)">
<title>ntp/include/details/time.hpp</title>
<!-- Node1 -->
<g id="node1" class="node">
<title>Node1</title>
<g id="a_node1"><a xlink:title="Utils to work with std::chrono.">
<polygon fill="#bfbfbf" stroke="black" points="29,-112.5 29,-142.5 136,-142.5 136,-112.5 29,-112.5"/>
<text text-anchor="start" x="37" y="-130.5" font-family="Helvetica,sans-Serif" font-size="10.00">ntp/include/details</text>
<text text-anchor="middle" x="82.5" y="-119.5" font-family="Helvetica,sans-Serif" font-size="10.00">/time.hpp</text>
</a>
</g>
</g>
<!-- Node2 -->
<g id="node2" class="node">
<title>Node2</title>
<g id="a_node2"><a xlink:title=" ">
<polygon fill="none" stroke="#bfbfbf" points="0,-56.5 0,-75.5 39,-75.5 39,-56.5 0,-56.5"/>
<text text-anchor="middle" x="19.5" y="-63.5" font-family="Helvetica,sans-Serif" font-size="10.00">ratio</text>
</a>
</g>
</g>
<!-- Node1&#45;&gt;Node2 -->
<g id="edge1" class="edge">
<title>Node1&#45;&gt;Node2</title>
<path fill="none" stroke="midnightblue" d="M67.57,-112.4C58.13,-103.49 45.92,-91.95 36.17,-82.74"/>
<polygon fill="midnightblue" stroke="midnightblue" points="38.34,-79.98 28.67,-75.66 33.53,-85.07 38.34,-79.98"/>
</g>
<!-- Node3 -->
<g id="node3" class="node">
<title>Node3</title>
<g id="a_node3"><a xlink:title=" ">
<polygon fill="none" stroke="#bfbfbf" points="57.5,-56.5 57.5,-75.5 107.5,-75.5 107.5,-56.5 57.5,-56.5"/>
<text text-anchor="middle" x="82.5" y="-63.5" font-family="Helvetica,sans-Serif" font-size="10.00">chrono</text>
</a>
</g>
</g>
<!-- Node1&#45;&gt;Node3 -->
<g id="edge2" class="edge">
<title>Node1&#45;&gt;Node3</title>
<path fill="none" stroke="midnightblue" d="M82.5,-112.4C82.5,-104.47 82.5,-94.46 82.5,-85.86"/>
<polygon fill="midnightblue" stroke="midnightblue" points="86,-85.66 82.5,-75.66 79,-85.66 86,-85.66"/>
</g>
<!-- Node4 -->
<g id="node4" class="node">
<title>Node4</title>
<g id="a_node4"><a xlink:href="windows_8hpp_source.html" target="_top" xlink:title=" ">
<polygon fill="none" stroke="black" points="125.5,-56.5 125.5,-75.5 241.5,-75.5 241.5,-56.5 125.5,-56.5"/>
<text text-anchor="middle" x="183.5" y="-63.5" font-family="Helvetica,sans-Serif" font-size="10.00">details/windows.hpp</text>
</a>
</g>
</g>
<!-- Node1&#45;&gt;Node4 -->
<g id="edge3" class="edge">
<title>Node1&#45;&gt;Node4</title>
<path fill="none" stroke="midnightblue" d="M106.44,-112.4C122.63,-102.86 143.91,-90.32 160,-80.84"/>
<polygon fill="midnightblue" stroke="midnightblue" points="161.96,-83.75 168.8,-75.66 158.41,-77.72 161.96,-83.75"/>
</g>
<!-- Node5 -->
<g id="node5" class="node">
<title>Node5</title>
<g id="a_node5"><a xlink:href="ntp__config_8hpp_source.html" target="_top" xlink:title=" ">
<polygon fill="none" stroke="black" points="90.5,-0.5 90.5,-19.5 178.5,-19.5 178.5,-0.5 90.5,-0.5"/>
<text text-anchor="middle" x="134.5" y="-7.5" font-family="Helvetica,sans-Serif" font-size="10.00">ntp_config.hpp</text>
</a>
</g>
</g>
<!-- Node4&#45;&gt;Node5 -->
<g id="edge4" class="edge">
<title>Node4&#45;&gt;Node5</title>
<path fill="none" stroke="midnightblue" d="M175.41,-56.08C168.34,-48.3 157.91,-36.8 149.35,-27.37"/>
<polygon fill="midnightblue" stroke="midnightblue" points="151.75,-24.8 142.44,-19.75 146.57,-29.51 151.75,-24.8"/>
</g>
<!-- Node6 -->
<g id="node6" class="node">
<title>Node6</title>
<g id="a_node6"><a xlink:title=" ">
<polygon fill="none" stroke="#bfbfbf" points="196.5,-0.5 196.5,-19.5 266.5,-19.5 266.5,-0.5 196.5,-0.5"/>
<text text-anchor="middle" x="231.5" y="-7.5" font-family="Helvetica,sans-Serif" font-size="10.00">Windows.h</text>
</a>
</g>
</g>
<!-- Node4&#45;&gt;Node6 -->
<g id="edge5" class="edge">
<title>Node4&#45;&gt;Node6</title>
<path fill="none" stroke="midnightblue" d="M191.43,-56.08C198.35,-48.3 208.57,-36.8 216.95,-27.37"/>
<polygon fill="midnightblue" stroke="midnightblue" points="219.69,-29.55 223.72,-19.75 214.46,-24.9 219.69,-29.55"/>
</g>
</g>
</svg>
