<?xml version="1.0" encoding="UTF-8" standalone="no"?>
<!DOCTYPE svg PUBLIC "-//W3C//DTD SVG 1.1//EN"
 "http://www.w3.org/Graphics/SVG/1.1/DTD/svg11.dtd">
<!-- Generated by graphviz version 2.43.0 (0)
 -->
<!-- Title: ntp/include/pool/timer.hpp Pages: 1 -->
<svg width="881pt" height="308pt"
 viewBox="0.00 0.00 880.50 308.00" xmlns="http://www.w3.org/2000/svg" xmlns:xlink="http://www.w3.org/1999/xlink">
<g id="graph0" class="graph" transform="scale(1 1) rotate(0) translate(4 304)">
<title>ntp/include/pool/timer.hpp</title>
<!-- Node1 -->
<g id="node1" class="node">
<title>Node1</title>
<g id="a_node1"><a xlink:title="Implementation of threadpool timer callback.">
<polygon fill="#bfbfbf" stroke="black" points="79.5,-280.5 79.5,-299.5 223.5,-299.5 223.5,-280.5 79.5,-280.5"/>
<text text-anchor="middle" x="151.5" y="-287.5" font-family="Helvetica,sans-Serif" font-size="10.00">ntp/include/pool/timer.hpp</text>
</a>
</g>
</g>
<!-- Node2 -->
<g id="node2" class="node">
<title>Node2</title>
<g id="a_node2"><a xlink:title=" ">
<polygon fill="none" stroke="#bfbfbf" points="0,-224.5 0,-243.5 41,-243.5 41,-224.5 0,-224.5"/>
<text text-anchor="middle" x="20.5" y="-231.5" font-family="Helvetica,sans-Serif" font-size="10.00">tuple</text>
</a>
</g>
</g>
<!-- Node1&#45;&gt;Node2 -->
<g id="edge1" class="edge">
<title>Node1&#45;&gt;Node2</title>
<path fill="none" stroke="midnightblue" d="M130.74,-280.44C109.18,-271.56 75.24,-257.56 50.71,-247.45"/>
<polygon fill="midnightblue" stroke="midnightblue" points="51.74,-244.09 41.16,-243.52 49.07,-250.56 51.74,-244.09"/>
</g>
<!-- Node3 -->
<g id="node3" class="node">
<title>Node3</title>
<g id="a_node3"><a xlink:title=" ">
<polygon fill="none" stroke="#bfbfbf" points="59,-224.5 59,-243.5 104,-243.5 104,-224.5 59,-224.5"/>
<text text-anchor="middle" x="81.5" y="-231.5" font-family="Helvetica,sans-Serif" font-size="10.00">utility</text>
</a>
</g>
</g>
<!-- Node1&#45;&gt;Node3 -->
<g id="edge2" class="edge">
<title>Node1&#45;&gt;Node3</title>
<path fill="none" stroke="midnightblue" d="M140.25,-280.32C129.7,-272.18 113.7,-259.84 101.06,-250.09"/>
<polygon fill="midnightblue" stroke="midnightblue" points="103.01,-247.17 92.95,-243.83 98.73,-252.71 103.01,-247.17"/>
</g>
<!-- Node4 -->
<g id="node4" class="node">
<title>Node4</title>
<g id="a_node4"><a xlink:href="ntp__config_8hpp_source.html" target="_top" xlink:title=" ">
<polygon fill="none" stroke="black" points="170.5,-56.5 170.5,-75.5 258.5,-75.5 258.5,-56.5 170.5,-56.5"/>
<text text-anchor="middle" x="214.5" y="-63.5" font-family="Helvetica,sans-Serif" font-size="10.00">ntp_config.hpp</text>
</a>
</g>
</g>
<!-- Node1&#45;&gt;Node4 -->
<g id="edge3" class="edge">
<title>Node1&#45;&gt;Node4</title>
<path fill="none" stroke="midnightblue" d="M153.97,-280.3C163.26,-247.56 196.23,-131.38 209.2,-85.67"/>
<polygon fill="midnightblue" stroke="midnightblue" points="212.62,-86.46 211.98,-75.88 205.88,-84.55 212.62,-86.46"/>
</g>
<!-- Node5 -->
<g id="node5" class="node">
<title>Node5</title>
<g id="a_node5"><a xlink:href="time_8hpp.html" target="_top" xlink:title="Utils to work with std::chrono.">
<polygon fill="none" stroke="black" points="46.5,-112.5 46.5,-131.5 142.5,-131.5 142.5,-112.5 46.5,-112.5"/>
<text text-anchor="middle" x="94.5" y="-119.5" font-family="Helvetica,sans-Serif" font-size="10.00">details/time.hpp</text>
</a>
</g>
</g>
<!-- Node1&#45;&gt;Node5 -->
<g id="edge4" class="edge">
<title>Node1&#45;&gt;Node5</title>
<path fill="none" stroke="midnightblue" d="M148.44,-280.08C139.42,-253.83 112.89,-176.55 100.72,-141.12"/>
<polygon fill="midnightblue" stroke="midnightblue" points="104,-139.89 97.44,-131.57 97.38,-142.16 104,-139.89"/>
</g>
<!-- Node9 -->
<g id="node9" class="node">
<title>Node9</title>
<g id="a_node9"><a xlink:href="utils_8hpp.html" target="_top" xlink:title="Some useful implementation stuff.">
<polygon fill="none" stroke="black" points="748,-168.5 748,-187.5 843,-187.5 843,-168.5 748,-168.5"/>
<text text-anchor="middle" x="795.5" y="-175.5" font-family="Helvetica,sans-Serif" font-size="10.00">details/utils.hpp</text>
</a>
</g>
</g>
<!-- Node1&#45;&gt;Node9 -->
<g id="edge9" class="edge">
<title>Node1&#45;&gt;Node9</title>
<path fill="none" stroke="midnightblue" d="M218.12,-280.48C281.79,-272.09 380.4,-258.47 465.5,-244 565.36,-227.02 681.41,-203.21 745.86,-189.62"/>
<polygon fill="midnightblue" stroke="midnightblue" points="746.69,-193.02 755.75,-187.53 745.24,-186.17 746.69,-193.02"/>
</g>
<!-- Node18 -->
<g id="node18" class="node">
<title>Node18</title>
<g id="a_node18"><a xlink:href="basic__callback_8hpp.html" target="_top" xlink:title="Interfaces and base classes for callback wrappers.">
<polygon fill="none" stroke="black" points="323,-224.5 323,-243.5 456,-243.5 456,-224.5 323,-224.5"/>
<text text-anchor="middle" x="389.5" y="-231.5" font-family="Helvetica,sans-Serif" font-size="10.00">pool/basic_callback.hpp</text>
</a>
</g>
</g>
<!-- Node1&#45;&gt;Node18 -->
<g id="edge22" class="edge">
<title>Node1&#45;&gt;Node18</title>
<path fill="none" stroke="midnightblue" d="M189.21,-280.44C230.64,-271.04 297.26,-255.93 342.17,-245.74"/>
<polygon fill="midnightblue" stroke="midnightblue" points="342.99,-249.14 351.96,-243.52 341.44,-242.32 342.99,-249.14"/>
</g>
<!-- Node5&#45;&gt;Node4 -->
<g id="edge8" class="edge">
<title>Node5&#45;&gt;Node4</title>
<path fill="none" stroke="midnightblue" d="M113.51,-112.44C133.09,-103.64 163.81,-89.81 186.23,-79.72"/>
<polygon fill="midnightblue" stroke="midnightblue" points="187.89,-82.81 195.57,-75.52 185.02,-76.43 187.89,-82.81"/>
</g>
<!-- Node6 -->
<g id="node6" class="node">
<title>Node6</title>
<g id="a_node6"><a xlink:title=" ">
<polygon fill="none" stroke="#bfbfbf" points="289.5,-0.5 289.5,-19.5 359.5,-19.5 359.5,-0.5 289.5,-0.5"/>
<text text-anchor="middle" x="324.5" y="-7.5" font-family="Helvetica,sans-Serif" font-size="10.00">Windows.h</text>
</a>
</g>
</g>
<!-- Node5&#45;&gt;Node6 -->
<g id="edge5" class="edge">
<title>Node5&#45;&gt;Node6</title>
<path fill="none" stroke="midnightblue" d="M100.92,-112.44C111.82,-98.5 135.34,-70.97 161.5,-56 198.21,-34.99 245.24,-23.37 279.34,-17.23"/>
<polygon fill="midnightblue" stroke="midnightblue" points="280.21,-20.64 289.48,-15.5 279.03,-13.74 280.21,-20.64"/>
</g>
<!-- Node7 -->
<g id="node7" class="node">
<title>Node7</title>
<g id="a_node7"><a xlink:title=" ">
<polygon fill="none" stroke="#bfbfbf" points="75,-56.5 75,-75.5 114,-75.5 114,-56.5 75,-56.5"/>
<text text-anchor="middle" x="94.5" y="-63.5" font-family="Helvetica,sans-Serif" font-size="10.00">ratio</text>
</a>
</g>
</g>
<!-- Node5&#45;&gt;Node7 -->
<g id="edge6" class="edge">
<title>Node5&#45;&gt;Node7</title>
<path fill="none" stroke="midnightblue" d="M94.5,-112.08C94.5,-105.01 94.5,-94.86 94.5,-85.99"/>
<polygon fill="midnightblue" stroke="midnightblue" points="98,-85.75 94.5,-75.75 91,-85.75 98,-85.75"/>
</g>
<!-- Node8 -->
<g id="node8" class="node">
<title>Node8</title>
<g id="a_node8"><a xlink:title=" ">
<polygon fill="none" stroke="#bfbfbf" points="6.5,-56.5 6.5,-75.5 56.5,-75.5 56.5,-56.5 6.5,-56.5"/>
<text text-anchor="middle" x="31.5" y="-63.5" font-family="Helvetica,sans-Serif" font-size="10.00">chrono</text>
</a>
</g>
</g>
<!-- Node5&#45;&gt;Node8 -->
<g id="edge7" class="edge">
<title>Node5&#45;&gt;Node8</title>
<path fill="none" stroke="midnightblue" d="M84.38,-112.32C74.97,-104.26 60.76,-92.08 49.43,-82.37"/>
<polygon fill="midnightblue" stroke="midnightblue" points="51.68,-79.68 41.81,-75.83 47.12,-85 51.68,-79.68"/>
</g>
<!-- Node9&#45;&gt;Node4 -->
<g id="edge11" class="edge">
<title>Node9&#45;&gt;Node4</title>
<path fill="none" stroke="midnightblue" d="M747.95,-169.27C744.75,-168.82 741.58,-168.39 738.5,-168 570.63,-146.8 523.1,-175.18 359.5,-132 314.64,-120.16 266.15,-95.83 238.15,-80.52"/>
<polygon fill="midnightblue" stroke="midnightblue" points="239.58,-77.31 229.14,-75.52 236.19,-83.43 239.58,-77.31"/>
</g>
<!-- Node10 -->
<g id="node10" class="node">
<title>Node10</title>
<g id="a_node10"><a xlink:title=" ">
<polygon fill="none" stroke="#bfbfbf" points="368.5,-112.5 368.5,-131.5 418.5,-131.5 418.5,-112.5 368.5,-112.5"/>
<text text-anchor="middle" x="393.5" y="-119.5" font-family="Helvetica,sans-Serif" font-size="10.00">atomic</text>
</a>
</g>
</g>
<!-- Node9&#45;&gt;Node10 -->
<g id="edge10" class="edge">
<title>Node9&#45;&gt;Node10</title>
<path fill="none" stroke="midnightblue" d="M747.94,-169.34C744.74,-168.87 741.58,-168.42 738.5,-168 603.87,-149.59 565.98,-157.48 428.72,-131.98"/>
<polygon fill="midnightblue" stroke="midnightblue" points="429.13,-128.5 418.66,-130.09 427.84,-135.38 429.13,-128.5"/>
</g>
<!-- Node11 -->
<g id="node11" class="node">
<title>Node11</title>
<g id="a_node11"><a xlink:href="ntrtl_8h.html" target="_top" xlink:title="Contains necessary declarations/definitions of internal windows objects and functions.">
<polygon fill="none" stroke="black" points="755.5,-112.5 755.5,-131.5 835.5,-131.5 835.5,-112.5 755.5,-112.5"/>
<text text-anchor="middle" x="795.5" y="-119.5" font-family="Helvetica,sans-Serif" font-size="10.00">native/ntrtl.h</text>
</a>
</g>
</g>
<!-- Node9&#45;&gt;Node11 -->
<g id="edge12" class="edge">
<title>Node9&#45;&gt;Node11</title>
<path fill="none" stroke="midnightblue" d="M795.5,-168.08C795.5,-161.01 795.5,-150.86 795.5,-141.99"/>
<polygon fill="midnightblue" stroke="midnightblue" points="799,-141.75 795.5,-131.75 792,-141.75 799,-141.75"/>
</g>
<!-- Node14 -->
<g id="node14" class="node">
<title>Node14</title>
<g id="a_node14"><a xlink:href="allocator_8hpp.html" target="_top" xlink:title="Allocator implementations.">
<polygon fill="none" stroke="black" points="436.5,-112.5 436.5,-131.5 552.5,-131.5 552.5,-112.5 436.5,-112.5"/>
<text text-anchor="middle" x="494.5" y="-119.5" font-family="Helvetica,sans-Serif" font-size="10.00">details/allocator.hpp</text>
</a>
</g>
</g>
<!-- Node9&#45;&gt;Node14 -->
<g id="edge15" class="edge">
<title>Node9&#45;&gt;Node14</title>
<path fill="none" stroke="midnightblue" d="M747.81,-168.44C694.64,-158.9 608.68,-143.48 551.87,-133.29"/>
<polygon fill="midnightblue" stroke="midnightblue" points="552.43,-129.84 541.97,-131.52 551.2,-136.73 552.43,-129.84"/>
</g>
<!-- Node12 -->
<g id="node12" class="node">
<title>Node12</title>
<g id="a_node12"><a xlink:title=" ">
<polygon fill="none" stroke="#bfbfbf" points="804.5,-56.5 804.5,-75.5 872.5,-75.5 872.5,-56.5 804.5,-56.5"/>
<text text-anchor="middle" x="838.5" y="-63.5" font-family="Helvetica,sans-Serif" font-size="10.00">windows.h</text>
</a>
</g>
</g>
<!-- Node11&#45;&gt;Node12 -->
<g id="edge13" class="edge">
<title>Node11&#45;&gt;Node12</title>
<path fill="none" stroke="midnightblue" d="M802.6,-112.08C808.74,-104.38 817.77,-93.03 825.24,-83.65"/>
<polygon fill="midnightblue" stroke="midnightblue" points="828.04,-85.75 831.53,-75.75 822.56,-81.39 828.04,-85.75"/>
</g>
<!-- Node13 -->
<g id="node13" class="node">
<title>Node13</title>
<g id="a_node13"><a xlink:title=" ">
<polygon fill="none" stroke="#bfbfbf" points="721,-56.5 721,-75.5 786,-75.5 786,-56.5 721,-56.5"/>
<text text-anchor="middle" x="753.5" y="-63.5" font-family="Helvetica,sans-Serif" font-size="10.00">winternl.h</text>
</a>
</g>
</g>
<!-- Node11&#45;&gt;Node13 -->
<g id="edge14" class="edge">
<title>Node11&#45;&gt;Node13</title>
<path fill="none" stroke="midnightblue" d="M788.56,-112.08C782.57,-104.38 773.75,-93.03 766.45,-83.65"/>
<polygon fill="midnightblue" stroke="midnightblue" points="769.21,-81.5 760.31,-75.75 763.68,-85.79 769.21,-81.5"/>
</g>
<!-- Node14&#45;&gt;Node4 -->
<g id="edge17" class="edge">
<title>Node14&#45;&gt;Node4</title>
<path fill="none" stroke="midnightblue" d="M450.13,-112.44C400.88,-102.94 321.37,-87.61 268.53,-77.42"/>
<polygon fill="midnightblue" stroke="midnightblue" points="269.14,-73.97 258.66,-75.52 267.82,-80.85 269.14,-73.97"/>
</g>
<!-- Node14&#45;&gt;Node6 -->
<g id="edge16" class="edge">
<title>Node14&#45;&gt;Node6</title>
<path fill="none" stroke="midnightblue" d="M468.21,-112.48C446.57,-104.79 415.64,-92.2 391.5,-76 370.8,-62.11 350.79,-41.45 338.11,-27.16"/>
<polygon fill="midnightblue" stroke="midnightblue" points="340.74,-24.85 331.54,-19.59 335.45,-29.44 340.74,-24.85"/>
</g>
<!-- Node15 -->
<g id="node15" class="node">
<title>Node15</title>
<g id="a_node15"><a xlink:href="exception_8hpp.html" target="_top" xlink:title="Win32 error wrapper implementations.">
<polygon fill="none" stroke="black" points="400.5,-56.5 400.5,-75.5 522.5,-75.5 522.5,-56.5 400.5,-56.5"/>
<text text-anchor="middle" x="461.5" y="-63.5" font-family="Helvetica,sans-Serif" font-size="10.00">details/exception.hpp</text>
</a>
</g>
</g>
<!-- Node14&#45;&gt;Node15 -->
<g id="edge18" class="edge">
<title>Node14&#45;&gt;Node15</title>
<path fill="none" stroke="midnightblue" d="M489.05,-112.08C484.49,-104.61 477.83,-93.72 472.21,-84.52"/>
<polygon fill="midnightblue" stroke="midnightblue" points="475.05,-82.46 466.85,-75.75 469.08,-86.11 475.05,-82.46"/>
</g>
<!-- Node15&#45;&gt;Node6 -->
<g id="edge19" class="edge">
<title>Node15&#45;&gt;Node6</title>
<path fill="none" stroke="midnightblue" d="M439.79,-56.44C417.15,-47.52 381.43,-33.44 355.75,-23.32"/>
<polygon fill="midnightblue" stroke="midnightblue" points="356.69,-19.93 346.11,-19.52 354.13,-26.44 356.69,-19.93"/>
</g>
<!-- Node16 -->
<g id="node16" class="node">
<title>Node16</title>
<g id="a_node16"><a xlink:title=" ">
<polygon fill="none" stroke="#bfbfbf" points="451,-0.5 451,-19.5 516,-19.5 516,-0.5 451,-0.5"/>
<text text-anchor="middle" x="483.5" y="-7.5" font-family="Helvetica,sans-Serif" font-size="10.00">stdexcept</text>
</a>
</g>
</g>
<!-- Node15&#45;&gt;Node16 -->
<g id="edge20" class="edge">
<title>Node15&#45;&gt;Node16</title>
<path fill="none" stroke="midnightblue" d="M465.13,-56.08C468.11,-48.77 472.43,-38.18 476.12,-29.1"/>
<polygon fill="midnightblue" stroke="midnightblue" points="479.4,-30.33 479.93,-19.75 472.92,-27.69 479.4,-30.33"/>
</g>
<!-- Node17 -->
<g id="node17" class="node">
<title>Node17</title>
<g id="a_node17"><a xlink:title=" ">
<polygon fill="none" stroke="#bfbfbf" points="388.5,-0.5 388.5,-19.5 432.5,-19.5 432.5,-0.5 388.5,-0.5"/>
<text text-anchor="middle" x="410.5" y="-7.5" font-family="Helvetica,sans-Serif" font-size="10.00">string</text>
</a>
</g>
</g>
<!-- Node15&#45;&gt;Node17 -->
<g id="edge21" class="edge">
<title>Node15&#45;&gt;Node17</title>
<path fill="none" stroke="midnightblue" d="M453.08,-56.08C445.65,-48.22 434.65,-36.57 425.69,-27.08"/>
<polygon fill="midnightblue" stroke="midnightblue" points="428.18,-24.62 418.76,-19.75 423.09,-29.42 428.18,-24.62"/>
</g>
<!-- Node18&#45;&gt;Node4 -->
<g id="edge30" class="edge">
<title>Node18&#45;&gt;Node4</title>
<path fill="none" stroke="midnightblue" d="M334.37,-224.45C293.08,-216.86 241.42,-204.42 227.5,-188 203.1,-159.23 206.41,-111.72 210.65,-85.61"/>
<polygon fill="midnightblue" stroke="midnightblue" points="214.13,-86.03 212.51,-75.56 207.25,-84.76 214.13,-86.03"/>
</g>
<!-- Node18&#45;&gt;Node6 -->
<g id="edge23" class="edge">
<title>Node18&#45;&gt;Node6</title>
<path fill="none" stroke="midnightblue" d="M366.05,-224.41C350.34,-217.28 330.88,-205.46 321.5,-188 293.79,-136.44 308.97,-63.62 318.56,-29.72"/>
<polygon fill="midnightblue" stroke="midnightblue" points="322.02,-30.39 321.53,-19.8 315.31,-28.38 322.02,-30.39"/>
</g>
<!-- Node18&#45;&gt;Node9 -->
<g id="edge31" class="edge">
<title>Node18&#45;&gt;Node9</title>
<path fill="none" stroke="midnightblue" d="M456.16,-224.98C524.25,-216.65 633.3,-202.96 737.83,-188.06"/>
<polygon fill="midnightblue" stroke="midnightblue" points="738.53,-191.5 747.93,-186.61 737.53,-184.57 738.53,-191.5"/>
</g>
<!-- Node19 -->
<g id="node19" class="node">
<title>Node19</title>
<g id="a_node19"><a xlink:title=" ">
<polygon fill="none" stroke="#bfbfbf" points="236.5,-168.5 236.5,-187.5 274.5,-187.5 274.5,-168.5 236.5,-168.5"/>
<text text-anchor="middle" x="255.5" y="-175.5" font-family="Helvetica,sans-Serif" font-size="10.00">map</text>
</a>
</g>
</g>
<!-- Node18&#45;&gt;Node19 -->
<g id="edge24" class="edge">
<title>Node18&#45;&gt;Node19</title>
<path fill="none" stroke="midnightblue" d="M368.27,-224.44C345.6,-215.31 309.53,-200.77 284.31,-190.61"/>
<polygon fill="midnightblue" stroke="midnightblue" points="285.48,-187.31 274.89,-186.82 282.86,-193.8 285.48,-187.31"/>
</g>
<!-- Node20 -->
<g id="node20" class="node">
<title>Node20</title>
<g id="a_node20"><a xlink:title=" ">
<polygon fill="none" stroke="#bfbfbf" points="330.5,-168.5 330.5,-187.5 378.5,-187.5 378.5,-168.5 330.5,-168.5"/>
<text text-anchor="middle" x="354.5" y="-175.5" font-family="Helvetica,sans-Serif" font-size="10.00">mutex</text>
</a>
</g>
</g>
<!-- Node18&#45;&gt;Node20 -->
<g id="edge25" class="edge">
<title>Node18&#45;&gt;Node20</title>
<path fill="none" stroke="midnightblue" d="M383.72,-224.08C378.83,-216.53 371.67,-205.49 365.67,-196.23"/>
<polygon fill="midnightblue" stroke="midnightblue" points="368.55,-194.24 360.17,-187.75 362.67,-198.05 368.55,-194.24"/>
</g>
<!-- Node21 -->
<g id="node21" class="node">
<title>Node21</title>
<g id="a_node21"><a xlink:title=" ">
<polygon fill="none" stroke="#bfbfbf" points="396.5,-168.5 396.5,-187.5 454.5,-187.5 454.5,-168.5 396.5,-168.5"/>
<text text-anchor="middle" x="425.5" y="-175.5" font-family="Helvetica,sans-Serif" font-size="10.00">memory</text>
</a>
</g>
</g>
<!-- Node18&#45;&gt;Node21 -->
<g id="edge26" class="edge">
<title>Node18&#45;&gt;Node21</title>
<path fill="none" stroke="midnightblue" d="M395.44,-224.08C400.48,-216.53 407.84,-205.49 414.01,-196.23"/>
<polygon fill="midnightblue" stroke="midnightblue" points="417.03,-198.01 419.67,-187.75 411.21,-194.13 417.03,-198.01"/>
</g>
<!-- Node22 -->
<g id="node22" class="node">
<title>Node22</title>
<g id="a_node22"><a xlink:title=" ">
<polygon fill="none" stroke="#bfbfbf" points="473,-168.5 473,-187.5 538,-187.5 538,-168.5 473,-168.5"/>
<text text-anchor="middle" x="505.5" y="-175.5" font-family="Helvetica,sans-Serif" font-size="10.00">functional</text>
</a>
</g>
</g>
<!-- Node18&#45;&gt;Node22 -->
<g id="edge27" class="edge">
<title>Node18&#45;&gt;Node22</title>
<path fill="none" stroke="midnightblue" d="M407.88,-224.44C426.72,-215.68 456.23,-201.94 477.88,-191.86"/>
<polygon fill="midnightblue" stroke="midnightblue" points="479.62,-194.91 487.21,-187.52 476.66,-188.56 479.62,-194.91"/>
</g>
<!-- Node23 -->
<g id="node23" class="node">
<title>Node23</title>
<g id="a_node23"><a xlink:title=" ">
<polygon fill="none" stroke="#bfbfbf" points="556,-168.5 556,-187.5 625,-187.5 625,-168.5 556,-168.5"/>
<text text-anchor="middle" x="590.5" y="-175.5" font-family="Helvetica,sans-Serif" font-size="10.00">type_traits</text>
</a>
</g>
</g>
<!-- Node18&#45;&gt;Node23 -->
<g id="edge28" class="edge">
<title>Node18&#45;&gt;Node23</title>
<path fill="none" stroke="midnightblue" d="M421.35,-224.44C455.9,-215.16 511.18,-200.31 549.08,-190.13"/>
<polygon fill="midnightblue" stroke="midnightblue" points="550.05,-193.49 558.8,-187.52 548.23,-186.73 550.05,-193.49"/>
</g>
<!-- Node24 -->
<g id="node24" class="node">
<title>Node24</title>
<g id="a_node24"><a xlink:title=" ">
<polygon fill="none" stroke="#bfbfbf" points="643.5,-168.5 643.5,-187.5 729.5,-187.5 729.5,-168.5 643.5,-168.5"/>
<text text-anchor="middle" x="686.5" y="-175.5" font-family="Helvetica,sans-Serif" font-size="10.00">shared_mutex</text>
</a>
</g>
</g>
<!-- Node18&#45;&gt;Node24 -->
<g id="edge29" class="edge">
<title>Node18&#45;&gt;Node24</title>
<path fill="none" stroke="midnightblue" d="M436.56,-224.44C489.99,-214.73 576.99,-198.91 632.97,-188.73"/>
<polygon fill="midnightblue" stroke="midnightblue" points="633.83,-192.13 643.04,-186.9 632.58,-185.25 633.83,-192.13"/>
</g>
</g>
</svg>
