<?xml version="1.0" encoding="UTF-8" standalone="no"?>
<!DOCTYPE svg PUBLIC "-//W3C//DTD SVG 1.1//EN"
 "http://www.w3.org/Graphics/SVG/1.1/DTD/svg11.dtd">
<!-- Generated by graphviz version 2.43.0 (0)
 -->
<!-- Title: ntp/include/details/time.hpp Pages: 1 -->
<svg width="456pt" height="207pt"
 viewBox="0.00 0.00 456.00 207.00" xmlns="http://www.w3.org/2000/svg" xmlns:xlink="http://www.w3.org/1999/xlink">
<g id="graph0" class="graph" transform="scale(1 1) rotate(0) translate(4 203)">
<title>ntp/include/details/time.hpp</title>
<polygon fill="white" stroke="transparent" points="-4,4 -4,-203 452,-203 452,4 -4,4"/>
<!-- Node1 -->
<g id="node1" class="node">
<title>Node1</title>
<g id="a_node1"><a xlink:title="Utils to work with std::chrono.">
<polygon fill="#bfbfbf" stroke="black" points="164.5,-168.5 164.5,-198.5 271.5,-198.5 271.5,-168.5 164.5,-168.5"/>
<text text-anchor="start" x="172.5" y="-186.5" font-family="Helvetica,sans-Serif" font-size="10.00">ntp/include/details</text>
<text text-anchor="middle" x="218" y="-175.5" font-family="Helvetica,sans-Serif" font-size="10.00">/time.hpp</text>
</a>
</g>
</g>
<!-- Node2 -->
<g id="node2" class="node">
<title>Node2</title>
<g id="a_node2"><a xlink:href="io_8hpp.html" target="_top" xlink:title="Implementation of threadpool IO callback.">
<polygon fill="white" stroke="black" points="0,-112.5 0,-131.5 128,-131.5 128,-112.5 0,-112.5"/>
<text text-anchor="middle" x="64" y="-119.5" font-family="Helvetica,sans-Serif" font-size="10.00">ntp/include/pool/io.hpp</text>
</a>
</g>
</g>
<!-- Node1&#45;&gt;Node2 -->
<g id="edge1" class="edge">
<title>Node1&#45;&gt;Node2</title>
<path fill="none" stroke="midnightblue" d="M171.82,-164.66C143.58,-153.75 108.71,-140.27 86.41,-131.66"/>
<polygon fill="midnightblue" stroke="midnightblue" points="170.91,-168.06 181.5,-168.4 173.44,-161.53 170.91,-168.06"/>
</g>
<!-- Node6 -->
<g id="node6" class="node">
<title>Node6</title>
<g id="a_node6"><a xlink:href="timer_8hpp.html" target="_top" xlink:title="Implementation of threadpool timer callback.">
<polygon fill="white" stroke="black" points="146,-112.5 146,-131.5 290,-131.5 290,-112.5 146,-112.5"/>
<text text-anchor="middle" x="218" y="-119.5" font-family="Helvetica,sans-Serif" font-size="10.00">ntp/include/pool/timer.hpp</text>
</a>
</g>
</g>
<!-- Node1&#45;&gt;Node6 -->
<g id="edge5" class="edge">
<title>Node1&#45;&gt;Node6</title>
<path fill="none" stroke="midnightblue" d="M218,-158.29C218,-148.86 218,-138.65 218,-131.66"/>
<polygon fill="midnightblue" stroke="midnightblue" points="214.5,-158.4 218,-168.4 221.5,-158.4 214.5,-158.4"/>
</g>
<!-- Node7 -->
<g id="node7" class="node">
<title>Node7</title>
<g id="a_node7"><a xlink:href="wait_8hpp.html" target="_top" xlink:title="Implementation of threadpool wait callback.">
<polygon fill="white" stroke="black" points="308,-112.5 308,-131.5 448,-131.5 448,-112.5 308,-112.5"/>
<text text-anchor="middle" x="378" y="-119.5" font-family="Helvetica,sans-Serif" font-size="10.00">ntp/include/pool/wait.hpp</text>
</a>
</g>
</g>
<!-- Node1&#45;&gt;Node7 -->
<g id="edge7" class="edge">
<title>Node1&#45;&gt;Node7</title>
<path fill="none" stroke="midnightblue" d="M265.59,-164.8C295.01,-153.86 331.45,-140.31 354.72,-131.66"/>
<polygon fill="midnightblue" stroke="midnightblue" points="264.07,-161.63 255.92,-168.4 266.51,-168.19 264.07,-161.63"/>
</g>
<!-- Node3 -->
<g id="node3" class="node">
<title>Node3</title>
<g id="a_node3"><a xlink:href="threadpool_8hpp.html" target="_top" xlink:title="Threadpool implementations.">
<polygon fill="white" stroke="black" points="132.5,-56.5 132.5,-75.5 303.5,-75.5 303.5,-56.5 132.5,-56.5"/>
<text text-anchor="middle" x="218" y="-63.5" font-family="Helvetica,sans-Serif" font-size="10.00">ntp/include/pool/threadpool.hpp</text>
</a>
</g>
</g>
<!-- Node2&#45;&gt;Node3 -->
<g id="edge2" class="edge">
<title>Node2&#45;&gt;Node3</title>
<path fill="none" stroke="midnightblue" d="M98.11,-109.04C127.09,-98.88 167.96,-84.55 193.71,-75.52"/>
<polygon fill="midnightblue" stroke="midnightblue" points="96.68,-105.83 88.4,-112.44 99,-112.44 96.68,-105.83"/>
</g>
<!-- Node4 -->
<g id="node4" class="node">
<title>Node4</title>
<g id="a_node4"><a xlink:href="ntp_8hpp.html" target="_top" xlink:title="Main ntp library header.">
<polygon fill="white" stroke="black" points="89,-0.5 89,-19.5 199,-19.5 199,-0.5 89,-0.5"/>
<text text-anchor="middle" x="144" y="-7.5" font-family="Helvetica,sans-Serif" font-size="10.00">ntp/include/ntp.hpp</text>
</a>
</g>
</g>
<!-- Node3&#45;&gt;Node4 -->
<g id="edge3" class="edge">
<title>Node3&#45;&gt;Node4</title>
<path fill="none" stroke="midnightblue" d="M197.97,-50.38C184.59,-40.62 167.44,-28.11 156.11,-19.83"/>
<polygon fill="midnightblue" stroke="midnightblue" points="195.97,-53.26 206.11,-56.32 200.1,-47.6 195.97,-53.26"/>
</g>
<!-- Node5 -->
<g id="node5" class="node">
<title>Node5</title>
<g id="a_node5"><a xlink:href="threadpool_8cpp.html" target="_top" xlink:title="Threadpool implementation (traits and some helper functions)">
<polygon fill="white" stroke="black" points="217.5,-0.5 217.5,-19.5 366.5,-19.5 366.5,-0.5 217.5,-0.5"/>
<text text-anchor="middle" x="292" y="-7.5" font-family="Helvetica,sans-Serif" font-size="10.00">ntp/src/pool/threadpool.cpp</text>
</a>
</g>
</g>
<!-- Node3&#45;&gt;Node5 -->
<g id="edge4" class="edge">
<title>Node3&#45;&gt;Node5</title>
<path fill="none" stroke="midnightblue" d="M238.03,-50.38C251.41,-40.62 268.56,-28.11 279.89,-19.83"/>
<polygon fill="midnightblue" stroke="midnightblue" points="235.9,-47.6 229.89,-56.32 240.03,-53.26 235.9,-47.6"/>
</g>
<!-- Node6&#45;&gt;Node3 -->
<g id="edge6" class="edge">
<title>Node6&#45;&gt;Node3</title>
<path fill="none" stroke="midnightblue" d="M218,-101.8C218,-92.91 218,-82.78 218,-75.75"/>
<polygon fill="midnightblue" stroke="midnightblue" points="214.5,-102.08 218,-112.08 221.5,-102.08 214.5,-102.08"/>
</g>
<!-- Node7&#45;&gt;Node3 -->
<g id="edge8" class="edge">
<title>Node7&#45;&gt;Node3</title>
<path fill="none" stroke="midnightblue" d="M342.95,-109.17C312.83,-99 270.1,-84.59 243.23,-75.52"/>
<polygon fill="midnightblue" stroke="midnightblue" points="342.05,-112.56 352.65,-112.44 344.29,-105.93 342.05,-112.56"/>
</g>
</g>
</svg>
