<?xml version="1.0" encoding="UTF-8" standalone="no"?>
<!DOCTYPE svg PUBLIC "-//W3C//DTD SVG 1.1//EN"
 "http://www.w3.org/Graphics/SVG/1.1/DTD/svg11.dtd">
<!-- Generated by graphviz version 2.43.0 (0)
 -->
<!-- Title: ntp/include/details/time.hpp Pages: 1 -->
<svg width="490pt" height="207pt"
 viewBox="0.00 0.00 490.00 207.00" xmlns="http://www.w3.org/2000/svg" xmlns:xlink="http://www.w3.org/1999/xlink">
<g id="graph0" class="graph" transform="scale(1 1) rotate(0) translate(4 203)">
<title>ntp/include/details/time.hpp</title>
<!-- Node1 -->
<g id="node1" class="node">
<title>Node1</title>
<g id="a_node1"><a xlink:title="Utils to work with std::chrono.">
<polygon fill="#bfbfbf" stroke="black" points="121.5,-168.5 121.5,-198.5 228.5,-198.5 228.5,-168.5 121.5,-168.5"/>
<text text-anchor="start" x="129.5" y="-186.5" font-family="Helvetica,sans-Serif" font-size="10.00">ntp/include/details</text>
<text text-anchor="middle" x="175" y="-175.5" font-family="Helvetica,sans-Serif" font-size="10.00">/time.hpp</text>
</a>
</g>
</g>
<!-- Node2 -->
<g id="node2" class="node">
<title>Node2</title>
<g id="a_node2"><a xlink:href="ntp_8hpp.html" target="_top" xlink:title="Main ntp library header.">
<polygon fill="none" stroke="black" points="0,-0.5 0,-19.5 110,-19.5 110,-0.5 0,-0.5"/>
<text text-anchor="middle" x="55" y="-7.5" font-family="Helvetica,sans-Serif" font-size="10.00">ntp/include/ntp.hpp</text>
</a>
</g>
</g>
<!-- Node1&#45;&gt;Node2 -->
<g id="edge1" class="edge">
<title>Node1&#45;&gt;Node2</title>
<path fill="none" stroke="midnightblue" d="M111.36,-177.96C79.96,-172.12 44.68,-159.39 25,-132 -0.76,-96.14 33.58,-40.6 48.6,-19.51"/>
<polygon fill="midnightblue" stroke="midnightblue" points="110.96,-181.44 121.4,-179.62 112.1,-174.53 110.96,-181.44"/>
</g>
<!-- Node3 -->
<g id="node3" class="node">
<title>Node3</title>
<g id="a_node3"><a xlink:href="io_8hpp.html" target="_top" xlink:title="Implementation of threadpool IO callback.">
<polygon fill="none" stroke="black" points="34,-112.5 34,-131.5 162,-131.5 162,-112.5 34,-112.5"/>
<text text-anchor="middle" x="98" y="-119.5" font-family="Helvetica,sans-Serif" font-size="10.00">ntp/include/pool/io.hpp</text>
</a>
</g>
</g>
<!-- Node1&#45;&gt;Node3 -->
<g id="edge2" class="edge">
<title>Node1&#45;&gt;Node3</title>
<path fill="none" stroke="midnightblue" d="M148.71,-162.19C135.23,-151.77 119.52,-139.63 109.2,-131.66"/>
<polygon fill="midnightblue" stroke="midnightblue" points="146.7,-165.05 156.75,-168.4 150.98,-159.52 146.7,-165.05"/>
</g>
<!-- Node6 -->
<g id="node6" class="node">
<title>Node6</title>
<g id="a_node6"><a xlink:href="timer_8hpp.html" target="_top" xlink:title="Implementation of threadpool timer callback.">
<polygon fill="none" stroke="black" points="180,-112.5 180,-131.5 324,-131.5 324,-112.5 180,-112.5"/>
<text text-anchor="middle" x="252" y="-119.5" font-family="Helvetica,sans-Serif" font-size="10.00">ntp/include/pool/timer.hpp</text>
</a>
</g>
</g>
<!-- Node1&#45;&gt;Node6 -->
<g id="edge6" class="edge">
<title>Node1&#45;&gt;Node6</title>
<path fill="none" stroke="midnightblue" d="M201.29,-162.19C214.77,-151.77 230.48,-139.63 240.8,-131.66"/>
<polygon fill="midnightblue" stroke="midnightblue" points="199.02,-159.52 193.25,-168.4 203.3,-165.05 199.02,-159.52"/>
</g>
<!-- Node7 -->
<g id="node7" class="node">
<title>Node7</title>
<g id="a_node7"><a xlink:href="wait_8hpp.html" target="_top" xlink:title="Implementation of threadpool wait callback.">
<polygon fill="none" stroke="black" points="342,-112.5 342,-131.5 482,-131.5 482,-112.5 342,-112.5"/>
<text text-anchor="middle" x="412" y="-119.5" font-family="Helvetica,sans-Serif" font-size="10.00">ntp/include/pool/wait.hpp</text>
</a>
</g>
</g>
<!-- Node1&#45;&gt;Node7 -->
<g id="edge8" class="edge">
<title>Node1&#45;&gt;Node7</title>
<path fill="none" stroke="midnightblue" d="M238.69,-166.51C283.45,-155.27 341.59,-140.68 377.85,-131.57"/>
<polygon fill="midnightblue" stroke="midnightblue" points="237.63,-163.17 228.78,-169 239.33,-169.96 237.63,-163.17"/>
</g>
<!-- Node4 -->
<g id="node4" class="node">
<title>Node4</title>
<g id="a_node4"><a xlink:href="threadpool_8hpp.html" target="_top" xlink:title="Threadpool implementations.">
<polygon fill="none" stroke="black" points="141.5,-56.5 141.5,-75.5 312.5,-75.5 312.5,-56.5 141.5,-56.5"/>
<text text-anchor="middle" x="227" y="-63.5" font-family="Helvetica,sans-Serif" font-size="10.00">ntp/include/pool/threadpool.hpp</text>
</a>
</g>
</g>
<!-- Node3&#45;&gt;Node4 -->
<g id="edge3" class="edge">
<title>Node3&#45;&gt;Node4</title>
<path fill="none" stroke="midnightblue" d="M127.85,-108.5C152.04,-98.38 185.46,-84.39 206.66,-75.52"/>
<polygon fill="midnightblue" stroke="midnightblue" points="126.31,-105.35 118.44,-112.44 129.02,-111.81 126.31,-105.35"/>
</g>
<!-- Node4&#45;&gt;Node2 -->
<g id="edge4" class="edge">
<title>Node4&#45;&gt;Node2</title>
<path fill="none" stroke="midnightblue" d="M190.17,-53.44C157.74,-43.26 111.26,-28.66 82.13,-19.52"/>
<polygon fill="midnightblue" stroke="midnightblue" points="189.16,-56.79 199.75,-56.44 191.25,-50.11 189.16,-56.79"/>
</g>
<!-- Node5 -->
<g id="node5" class="node">
<title>Node5</title>
<g id="a_node5"><a xlink:href="threadpool_8cpp.html" target="_top" xlink:title="Threadpool implementation (traits and some helper functions)">
<polygon fill="none" stroke="black" points="152.5,-0.5 152.5,-19.5 301.5,-19.5 301.5,-0.5 152.5,-0.5"/>
<text text-anchor="middle" x="227" y="-7.5" font-family="Helvetica,sans-Serif" font-size="10.00">ntp/src/pool/threadpool.cpp</text>
</a>
</g>
</g>
<!-- Node4&#45;&gt;Node5 -->
<g id="edge5" class="edge">
<title>Node4&#45;&gt;Node5</title>
<path fill="none" stroke="midnightblue" d="M227,-45.8C227,-36.91 227,-26.78 227,-19.75"/>
<polygon fill="midnightblue" stroke="midnightblue" points="223.5,-46.08 227,-56.08 230.5,-46.08 223.5,-46.08"/>
</g>
<!-- Node6&#45;&gt;Node4 -->
<g id="edge7" class="edge">
<title>Node6&#45;&gt;Node4</title>
<path fill="none" stroke="midnightblue" d="M243.66,-102.98C239.42,-93.82 234.45,-83.09 231.05,-75.75"/>
<polygon fill="midnightblue" stroke="midnightblue" points="240.49,-104.48 247.87,-112.08 246.85,-101.54 240.49,-104.48"/>
</g>
<!-- Node7&#45;&gt;Node4 -->
<g id="edge9" class="edge">
<title>Node7&#45;&gt;Node4</title>
<path fill="none" stroke="midnightblue" d="M372.83,-109.57C337.93,-99.38 287.65,-84.7 256.18,-75.52"/>
<polygon fill="midnightblue" stroke="midnightblue" points="372.11,-113 382.69,-112.44 374.07,-106.28 372.11,-113"/>
</g>
</g>
</svg>
