<?xml version="1.0" encoding="UTF-8" standalone="no"?>
<!DOCTYPE svg PUBLIC "-//W3C//DTD SVG 1.1//EN"
 "http://www.w3.org/Graphics/SVG/1.1/DTD/svg11.dtd">
<!-- Generated by graphviz version 2.43.0 (0)
 -->
<!-- Title: ntp/include/pool/timer.hpp Pages: 1 -->
<svg width="952pt" height="308pt"
 viewBox="0.00 0.00 951.68 308.00" xmlns="http://www.w3.org/2000/svg" xmlns:xlink="http://www.w3.org/1999/xlink">
<g id="graph0" class="graph" transform="scale(1 1) rotate(0) translate(4 304)">
<title>ntp/include/pool/timer.hpp</title>
<!-- Node1 -->
<g id="node1" class="node">
<title>Node1</title>
<g id="a_node1"><a xlink:title="Implementation of threadpool timer callback.">
<polygon fill="#bfbfbf" stroke="black" points="136.5,-280.5 136.5,-299.5 280.5,-299.5 280.5,-280.5 136.5,-280.5"/>
<text text-anchor="middle" x="208.5" y="-287.5" font-family="Helvetica,sans-Serif" font-size="10.00">ntp/include/pool/timer.hpp</text>
</a>
</g>
</g>
<!-- Node2 -->
<g id="node2" class="node">
<title>Node2</title>
<g id="a_node2"><a xlink:title=" ">
<polygon fill="none" stroke="#bfbfbf" points="0,-224.5 0,-243.5 41,-243.5 41,-224.5 0,-224.5"/>
<text text-anchor="middle" x="20.5" y="-231.5" font-family="Helvetica,sans-Serif" font-size="10.00">tuple</text>
</a>
</g>
</g>
<!-- Node1&#45;&gt;Node2 -->
<g id="edge1" class="edge">
<title>Node1&#45;&gt;Node2</title>
<path fill="none" stroke="midnightblue" d="M177.36,-280.43C147.26,-272.1 100.14,-258.92 50.94,-244.38"/>
<polygon fill="midnightblue" stroke="midnightblue" points="51.66,-240.94 41.08,-241.46 49.67,-247.65 51.66,-240.94"/>
</g>
<!-- Node3 -->
<g id="node3" class="node">
<title>Node3</title>
<g id="a_node3"><a xlink:title=" ">
<polygon fill="none" stroke="#bfbfbf" points="59,-224.5 59,-243.5 104,-243.5 104,-224.5 59,-224.5"/>
<text text-anchor="middle" x="81.5" y="-231.5" font-family="Helvetica,sans-Serif" font-size="10.00">utility</text>
</a>
</g>
</g>
<!-- Node1&#45;&gt;Node3 -->
<g id="edge2" class="edge">
<title>Node1&#45;&gt;Node3</title>
<path fill="none" stroke="midnightblue" d="M188.38,-280.44C167.48,-271.56 134.57,-257.56 110.78,-247.45"/>
<polygon fill="midnightblue" stroke="midnightblue" points="112.1,-244.21 101.53,-243.52 109.36,-250.65 112.1,-244.21"/>
</g>
<!-- Node4 -->
<g id="node4" class="node">
<title>Node4</title>
<g id="a_node4"><a xlink:title=" ">
<polygon fill="none" stroke="#bfbfbf" points="64.5,-168.5 64.5,-187.5 114.5,-187.5 114.5,-168.5 64.5,-168.5"/>
<text text-anchor="middle" x="89.5" y="-175.5" font-family="Helvetica,sans-Serif" font-size="10.00">chrono</text>
</a>
</g>
</g>
<!-- Node1&#45;&gt;Node4 -->
<g id="edge3" class="edge">
<title>Node1&#45;&gt;Node4</title>
<path fill="none" stroke="midnightblue" d="M196.76,-280.49C184.95,-271.76 166.42,-257.58 151.5,-244 134.31,-228.35 116.12,-208.89 103.92,-195.36"/>
<polygon fill="midnightblue" stroke="midnightblue" points="106.43,-192.92 97.16,-187.79 101.21,-197.58 106.43,-192.92"/>
</g>
<!-- Node5 -->
<g id="node5" class="node">
<title>Node5</title>
<g id="a_node5"><a xlink:href="ntp__config_8hpp_source.html" target="_top" xlink:title=" ">
<polygon fill="none" stroke="black" points="391.5,-56.5 391.5,-75.5 479.5,-75.5 479.5,-56.5 391.5,-56.5"/>
<text text-anchor="middle" x="435.5" y="-63.5" font-family="Helvetica,sans-Serif" font-size="10.00">ntp_config.hpp</text>
</a>
</g>
</g>
<!-- Node1&#45;&gt;Node5 -->
<g id="edge4" class="edge">
<title>Node1&#45;&gt;Node5</title>
<path fill="none" stroke="midnightblue" d="M280.61,-284.42C456.21,-272.53 894.78,-238.05 936.5,-188 1004.41,-106.53 548.43,-194.18 462.5,-132 447.83,-121.38 441.09,-101.27 438.03,-86.22"/>
<polygon fill="midnightblue" stroke="midnightblue" points="441.41,-85.23 436.32,-75.93 434.5,-86.37 441.41,-85.23"/>
</g>
<!-- Node6 -->
<g id="node6" class="node">
<title>Node6</title>
<g id="a_node6"><a xlink:href="time_8hpp.html" target="_top" xlink:title="Utils to work with std::chrono.">
<polygon fill="none" stroke="black" points="160.5,-224.5 160.5,-243.5 256.5,-243.5 256.5,-224.5 160.5,-224.5"/>
<text text-anchor="middle" x="208.5" y="-231.5" font-family="Helvetica,sans-Serif" font-size="10.00">details/time.hpp</text>
</a>
</g>
</g>
<!-- Node1&#45;&gt;Node6 -->
<g id="edge5" class="edge">
<title>Node1&#45;&gt;Node6</title>
<path fill="none" stroke="midnightblue" d="M208.5,-280.08C208.5,-273.01 208.5,-262.86 208.5,-253.99"/>
<polygon fill="midnightblue" stroke="midnightblue" points="212,-253.75 208.5,-243.75 205,-253.75 212,-253.75"/>
</g>
<!-- Node9 -->
<g id="node9" class="node">
<title>Node9</title>
<g id="a_node9"><a xlink:href="utils_8hpp.html" target="_top" xlink:title="Some useful implementation stuff.">
<polygon fill="none" stroke="black" points="282,-168.5 282,-187.5 377,-187.5 377,-168.5 282,-168.5"/>
<text text-anchor="middle" x="329.5" y="-175.5" font-family="Helvetica,sans-Serif" font-size="10.00">details/utils.hpp</text>
</a>
</g>
</g>
<!-- Node1&#45;&gt;Node9 -->
<g id="edge10" class="edge">
<title>Node1&#45;&gt;Node9</title>
<path fill="none" stroke="midnightblue" d="M220.2,-280.44C231.97,-271.68 250.48,-257.46 265.5,-244 283.08,-228.24 301.89,-208.8 314.53,-195.3"/>
<polygon fill="midnightblue" stroke="midnightblue" points="317.3,-197.46 321.54,-187.75 312.17,-192.7 317.3,-197.46"/>
</g>
<!-- Node17 -->
<g id="node17" class="node">
<title>Node17</title>
<g id="a_node17"><a xlink:href="basic__callback_8hpp.html" target="_top" xlink:title="Interfaces and base classes for callback wrappers.">
<polygon fill="none" stroke="black" points="488,-224.5 488,-243.5 621,-243.5 621,-224.5 488,-224.5"/>
<text text-anchor="middle" x="554.5" y="-231.5" font-family="Helvetica,sans-Serif" font-size="10.00">pool/basic_callback.hpp</text>
</a>
</g>
</g>
<!-- Node1&#45;&gt;Node17 -->
<g id="edge22" class="edge">
<title>Node1&#45;&gt;Node17</title>
<path fill="none" stroke="midnightblue" d="M263.32,-280.44C324.82,-270.85 424.48,-255.29 489.76,-245.1"/>
<polygon fill="midnightblue" stroke="midnightblue" points="490.59,-248.52 499.93,-243.52 489.51,-241.6 490.59,-248.52"/>
</g>
<!-- Node6&#45;&gt;Node4 -->
<g id="edge8" class="edge">
<title>Node6&#45;&gt;Node4</title>
<path fill="none" stroke="midnightblue" d="M189.64,-224.44C170.23,-215.64 139.77,-201.81 117.54,-191.72"/>
<polygon fill="midnightblue" stroke="midnightblue" points="118.82,-188.46 108.27,-187.52 115.93,-194.84 118.82,-188.46"/>
</g>
<!-- Node6&#45;&gt;Node5 -->
<g id="edge9" class="edge">
<title>Node6&#45;&gt;Node5</title>
<path fill="none" stroke="midnightblue" d="M215.81,-224.36C227.13,-211.25 249.98,-185.99 272.5,-168 317.72,-131.88 376.69,-98.24 409.88,-80.37"/>
<polygon fill="midnightblue" stroke="midnightblue" points="411.74,-83.35 418.92,-75.55 408.45,-77.17 411.74,-83.35"/>
</g>
<!-- Node7 -->
<g id="node7" class="node">
<title>Node7</title>
<g id="a_node7"><a xlink:title=" ">
<polygon fill="none" stroke="#bfbfbf" points="544.5,-0.5 544.5,-19.5 614.5,-19.5 614.5,-0.5 544.5,-0.5"/>
<text text-anchor="middle" x="579.5" y="-7.5" font-family="Helvetica,sans-Serif" font-size="10.00">Windows.h</text>
</a>
</g>
</g>
<!-- Node6&#45;&gt;Node7 -->
<g id="edge6" class="edge">
<title>Node6&#45;&gt;Node7</title>
<path fill="none" stroke="midnightblue" d="M205.22,-224.21C195.22,-195.69 168.36,-104.77 212.5,-56 233.78,-32.49 440.85,-18.46 534.23,-13.29"/>
<polygon fill="midnightblue" stroke="midnightblue" points="534.44,-16.78 544.24,-12.74 534.06,-9.79 534.44,-16.78"/>
</g>
<!-- Node8 -->
<g id="node8" class="node">
<title>Node8</title>
<g id="a_node8"><a xlink:title=" ">
<polygon fill="none" stroke="#bfbfbf" points="133,-168.5 133,-187.5 172,-187.5 172,-168.5 133,-168.5"/>
<text text-anchor="middle" x="152.5" y="-175.5" font-family="Helvetica,sans-Serif" font-size="10.00">ratio</text>
</a>
</g>
</g>
<!-- Node6&#45;&gt;Node8 -->
<g id="edge7" class="edge">
<title>Node6&#45;&gt;Node8</title>
<path fill="none" stroke="midnightblue" d="M199.5,-224.32C191.31,-216.42 178.99,-204.55 169.03,-194.94"/>
<polygon fill="midnightblue" stroke="midnightblue" points="171.29,-192.26 161.66,-187.83 166.43,-197.29 171.29,-192.26"/>
</g>
<!-- Node9&#45;&gt;Node5 -->
<g id="edge11" class="edge">
<title>Node9&#45;&gt;Node5</title>
<path fill="none" stroke="midnightblue" d="M337.89,-168.14C349.77,-155.59 372.22,-131.97 391.5,-112 400.91,-102.25 411.53,-91.39 419.98,-82.77"/>
<polygon fill="midnightblue" stroke="midnightblue" points="422.52,-85.18 427.03,-75.6 417.53,-80.28 422.52,-85.18"/>
</g>
<!-- Node10 -->
<g id="node10" class="node">
<title>Node10</title>
<g id="a_node10"><a xlink:href="ntrtl_8h.html" target="_top" xlink:title="Contains necessary declarations/definitions of internal windows objects and functions.">
<polygon fill="none" stroke="black" points="221.5,-112.5 221.5,-131.5 301.5,-131.5 301.5,-112.5 221.5,-112.5"/>
<text text-anchor="middle" x="261.5" y="-119.5" font-family="Helvetica,sans-Serif" font-size="10.00">native/ntrtl.h</text>
</a>
</g>
</g>
<!-- Node9&#45;&gt;Node10 -->
<g id="edge12" class="edge">
<title>Node9&#45;&gt;Node10</title>
<path fill="none" stroke="midnightblue" d="M318.57,-168.32C308.33,-160.18 292.78,-147.84 280.5,-138.09"/>
<polygon fill="midnightblue" stroke="midnightblue" points="282.63,-135.31 272.62,-131.83 278.28,-140.79 282.63,-135.31"/>
</g>
<!-- Node13 -->
<g id="node13" class="node">
<title>Node13</title>
<g id="a_node13"><a xlink:href="allocator_8hpp.html" target="_top" xlink:title="Allocator implementations.">
<polygon fill="none" stroke="black" points="471.5,-112.5 471.5,-131.5 587.5,-131.5 587.5,-112.5 471.5,-112.5"/>
<text text-anchor="middle" x="529.5" y="-119.5" font-family="Helvetica,sans-Serif" font-size="10.00">details/allocator.hpp</text>
</a>
</g>
</g>
<!-- Node9&#45;&gt;Node13 -->
<g id="edge15" class="edge">
<title>Node9&#45;&gt;Node13</title>
<path fill="none" stroke="midnightblue" d="M361.19,-168.44C395.57,-159.16 450.58,-144.31 488.29,-134.13"/>
<polygon fill="midnightblue" stroke="midnightblue" points="489.22,-137.5 497.96,-131.52 487.39,-130.74 489.22,-137.5"/>
</g>
<!-- Node11 -->
<g id="node11" class="node">
<title>Node11</title>
<g id="a_node11"><a xlink:title=" ">
<polygon fill="none" stroke="#bfbfbf" points="221.5,-56.5 221.5,-75.5 289.5,-75.5 289.5,-56.5 221.5,-56.5"/>
<text text-anchor="middle" x="255.5" y="-63.5" font-family="Helvetica,sans-Serif" font-size="10.00">windows.h</text>
</a>
</g>
</g>
<!-- Node10&#45;&gt;Node11 -->
<g id="edge13" class="edge">
<title>Node10&#45;&gt;Node11</title>
<path fill="none" stroke="midnightblue" d="M260.51,-112.08C259.71,-104.93 258.57,-94.64 257.58,-85.69"/>
<polygon fill="midnightblue" stroke="midnightblue" points="261.06,-85.3 256.47,-75.75 254.1,-86.08 261.06,-85.3"/>
</g>
<!-- Node12 -->
<g id="node12" class="node">
<title>Node12</title>
<g id="a_node12"><a xlink:title=" ">
<polygon fill="none" stroke="#bfbfbf" points="308,-56.5 308,-75.5 373,-75.5 373,-56.5 308,-56.5"/>
<text text-anchor="middle" x="340.5" y="-63.5" font-family="Helvetica,sans-Serif" font-size="10.00">winternl.h</text>
</a>
</g>
</g>
<!-- Node10&#45;&gt;Node12 -->
<g id="edge14" class="edge">
<title>Node10&#45;&gt;Node12</title>
<path fill="none" stroke="midnightblue" d="M274.19,-112.32C286.4,-103.98 305.08,-91.21 319.5,-81.35"/>
<polygon fill="midnightblue" stroke="midnightblue" points="321.56,-84.19 327.84,-75.65 317.61,-78.41 321.56,-84.19"/>
</g>
<!-- Node13&#45;&gt;Node5 -->
<g id="edge17" class="edge">
<title>Node13&#45;&gt;Node5</title>
<path fill="none" stroke="midnightblue" d="M514.4,-112.32C499.6,-103.82 476.81,-90.73 459.52,-80.8"/>
<polygon fill="midnightblue" stroke="midnightblue" points="460.98,-77.6 450.57,-75.65 457.49,-83.67 460.98,-77.6"/>
</g>
<!-- Node13&#45;&gt;Node7 -->
<g id="edge16" class="edge">
<title>Node13&#45;&gt;Node7</title>
<path fill="none" stroke="midnightblue" d="M533.42,-112.37C541.57,-94.46 560.44,-52.92 571.34,-28.95"/>
<polygon fill="midnightblue" stroke="midnightblue" points="574.64,-30.14 575.59,-19.59 568.27,-27.25 574.64,-30.14"/>
</g>
<!-- Node14 -->
<g id="node14" class="node">
<title>Node14</title>
<g id="a_node14"><a xlink:href="exception_8hpp.html" target="_top" xlink:title="Win32 error wrapper implementations.">
<polygon fill="none" stroke="black" points="643.5,-56.5 643.5,-75.5 765.5,-75.5 765.5,-56.5 643.5,-56.5"/>
<text text-anchor="middle" x="704.5" y="-63.5" font-family="Helvetica,sans-Serif" font-size="10.00">details/exception.hpp</text>
</a>
</g>
</g>
<!-- Node13&#45;&gt;Node14 -->
<g id="edge18" class="edge">
<title>Node13&#45;&gt;Node14</title>
<path fill="none" stroke="midnightblue" d="M557.23,-112.44C586.93,-103.28 634.22,-88.69 667.17,-78.52"/>
<polygon fill="midnightblue" stroke="midnightblue" points="668.38,-81.81 676.9,-75.52 666.31,-75.12 668.38,-81.81"/>
</g>
<!-- Node14&#45;&gt;Node7 -->
<g id="edge19" class="edge">
<title>Node14&#45;&gt;Node7</title>
<path fill="none" stroke="midnightblue" d="M684.69,-56.44C664.21,-47.6 632.02,-33.69 608.64,-23.59"/>
<polygon fill="midnightblue" stroke="midnightblue" points="609.78,-20.27 599.21,-19.52 607.01,-26.7 609.78,-20.27"/>
</g>
<!-- Node15 -->
<g id="node15" class="node">
<title>Node15</title>
<g id="a_node15"><a xlink:title=" ">
<polygon fill="none" stroke="#bfbfbf" points="708,-0.5 708,-19.5 773,-19.5 773,-0.5 708,-0.5"/>
<text text-anchor="middle" x="740.5" y="-7.5" font-family="Helvetica,sans-Serif" font-size="10.00">stdexcept</text>
</a>
</g>
</g>
<!-- Node14&#45;&gt;Node15 -->
<g id="edge20" class="edge">
<title>Node14&#45;&gt;Node15</title>
<path fill="none" stroke="midnightblue" d="M710.44,-56.08C715.48,-48.53 722.84,-37.49 729.01,-28.23"/>
<polygon fill="midnightblue" stroke="midnightblue" points="732.03,-30.01 734.67,-19.75 726.21,-26.13 732.03,-30.01"/>
</g>
<!-- Node16 -->
<g id="node16" class="node">
<title>Node16</title>
<g id="a_node16"><a xlink:title=" ">
<polygon fill="none" stroke="#bfbfbf" points="645.5,-0.5 645.5,-19.5 689.5,-19.5 689.5,-0.5 645.5,-0.5"/>
<text text-anchor="middle" x="667.5" y="-7.5" font-family="Helvetica,sans-Serif" font-size="10.00">string</text>
</a>
</g>
</g>
<!-- Node14&#45;&gt;Node16 -->
<g id="edge21" class="edge">
<title>Node14&#45;&gt;Node16</title>
<path fill="none" stroke="midnightblue" d="M698.39,-56.08C693.22,-48.53 685.65,-37.49 679.31,-28.23"/>
<polygon fill="midnightblue" stroke="midnightblue" points="682.04,-26.02 673.5,-19.75 676.26,-29.98 682.04,-26.02"/>
</g>
<!-- Node17&#45;&gt;Node5 -->
<g id="edge30" class="edge">
<title>Node17&#45;&gt;Node5</title>
<path fill="none" stroke="midnightblue" d="M487.91,-224.63C465.62,-218.3 443.03,-207.25 429.5,-188 407.91,-157.28 419.35,-110.57 428.25,-85.11"/>
<polygon fill="midnightblue" stroke="midnightblue" points="431.58,-86.2 431.8,-75.6 425.02,-83.74 431.58,-86.2"/>
</g>
<!-- Node17&#45;&gt;Node7 -->
<g id="edge23" class="edge">
<title>Node17&#45;&gt;Node7</title>
<path fill="none" stroke="midnightblue" d="M522.61,-224.42C489.06,-213.8 443.68,-193.9 463.5,-168 500.72,-119.37 559.28,-180.63 596.5,-132 619.72,-101.66 601.86,-54.13 589.22,-28.6"/>
<polygon fill="midnightblue" stroke="midnightblue" points="592.3,-26.94 584.57,-19.7 586.1,-30.18 592.3,-26.94"/>
</g>
<!-- Node17&#45;&gt;Node9 -->
<g id="edge31" class="edge">
<title>Node17&#45;&gt;Node9</title>
<path fill="none" stroke="midnightblue" d="M518.85,-224.44C479.84,-215.08 417.23,-200.06 374.78,-189.87"/>
<polygon fill="midnightblue" stroke="midnightblue" points="375.53,-186.45 364.99,-187.52 373.89,-193.25 375.53,-186.45"/>
</g>
<!-- Node18 -->
<g id="node18" class="node">
<title>Node18</title>
<g id="a_node18"><a xlink:title=" ">
<polygon fill="none" stroke="#bfbfbf" points="663.5,-168.5 663.5,-187.5 701.5,-187.5 701.5,-168.5 663.5,-168.5"/>
<text text-anchor="middle" x="682.5" y="-175.5" font-family="Helvetica,sans-Serif" font-size="10.00">map</text>
</a>
</g>
</g>
<!-- Node17&#45;&gt;Node18 -->
<g id="edge24" class="edge">
<title>Node17&#45;&gt;Node18</title>
<path fill="none" stroke="midnightblue" d="M574.78,-224.44C596.1,-215.45 629.8,-201.23 653.83,-191.1"/>
<polygon fill="midnightblue" stroke="midnightblue" points="655.3,-194.27 663.15,-187.16 652.58,-187.83 655.3,-194.27"/>
</g>
<!-- Node19 -->
<g id="node19" class="node">
<title>Node19</title>
<g id="a_node19"><a xlink:title=" ">
<polygon fill="none" stroke="#bfbfbf" points="719.5,-168.5 719.5,-187.5 767.5,-187.5 767.5,-168.5 719.5,-168.5"/>
<text text-anchor="middle" x="743.5" y="-175.5" font-family="Helvetica,sans-Serif" font-size="10.00">mutex</text>
</a>
</g>
</g>
<!-- Node17&#45;&gt;Node19 -->
<g id="edge25" class="edge">
<title>Node17&#45;&gt;Node19</title>
<path fill="none" stroke="midnightblue" d="M584.45,-224.44C618.46,-214.73 673.84,-198.9 709.46,-188.73"/>
<polygon fill="midnightblue" stroke="midnightblue" points="710.74,-192 719.39,-185.89 708.81,-185.27 710.74,-192"/>
</g>
<!-- Node20 -->
<g id="node20" class="node">
<title>Node20</title>
<g id="a_node20"><a xlink:title=" ">
<polygon fill="none" stroke="#bfbfbf" points="785.5,-168.5 785.5,-187.5 843.5,-187.5 843.5,-168.5 785.5,-168.5"/>
<text text-anchor="middle" x="814.5" y="-175.5" font-family="Helvetica,sans-Serif" font-size="10.00">memory</text>
</a>
</g>
</g>
<!-- Node17&#45;&gt;Node20 -->
<g id="edge26" class="edge">
<title>Node17&#45;&gt;Node20</title>
<path fill="none" stroke="midnightblue" d="M598.82,-224.46C641.59,-216.12 708.41,-202.82 775.57,-188.15"/>
<polygon fill="midnightblue" stroke="midnightblue" points="776.46,-191.54 785.48,-185.98 774.96,-184.7 776.46,-191.54"/>
</g>
<!-- Node21 -->
<g id="node21" class="node">
<title>Node21</title>
<g id="a_node21"><a xlink:title=" ">
<polygon fill="none" stroke="#bfbfbf" points="862,-168.5 862,-187.5 927,-187.5 927,-168.5 862,-168.5"/>
<text text-anchor="middle" x="894.5" y="-175.5" font-family="Helvetica,sans-Serif" font-size="10.00">functional</text>
</a>
</g>
</g>
<!-- Node17&#45;&gt;Node21 -->
<g id="edge27" class="edge">
<title>Node17&#45;&gt;Node21</title>
<path fill="none" stroke="midnightblue" d="M618.63,-224.47C676.86,-216.47 765.34,-203.65 851.97,-188"/>
<polygon fill="midnightblue" stroke="midnightblue" points="852.77,-191.41 861.98,-186.17 851.51,-184.52 852.77,-191.41"/>
</g>
<!-- Node22 -->
<g id="node22" class="node">
<title>Node22</title>
<g id="a_node22"><a xlink:title=" ">
<polygon fill="none" stroke="#bfbfbf" points="472,-168.5 472,-187.5 541,-187.5 541,-168.5 472,-168.5"/>
<text text-anchor="middle" x="506.5" y="-175.5" font-family="Helvetica,sans-Serif" font-size="10.00">type_traits</text>
</a>
</g>
</g>
<!-- Node17&#45;&gt;Node22 -->
<g id="edge28" class="edge">
<title>Node17&#45;&gt;Node22</title>
<path fill="none" stroke="midnightblue" d="M546.57,-224.08C539.65,-216.3 529.43,-204.8 521.05,-195.37"/>
<polygon fill="midnightblue" stroke="midnightblue" points="523.54,-192.9 514.28,-187.75 518.31,-197.55 523.54,-192.9"/>
</g>
<!-- Node23 -->
<g id="node23" class="node">
<title>Node23</title>
<g id="a_node23"><a xlink:title=" ">
<polygon fill="none" stroke="#bfbfbf" points="559.5,-168.5 559.5,-187.5 645.5,-187.5 645.5,-168.5 559.5,-168.5"/>
<text text-anchor="middle" x="602.5" y="-175.5" font-family="Helvetica,sans-Serif" font-size="10.00">shared_mutex</text>
</a>
</g>
</g>
<!-- Node17&#45;&gt;Node23 -->
<g id="edge29" class="edge">
<title>Node17&#45;&gt;Node23</title>
<path fill="none" stroke="midnightblue" d="M562.43,-224.08C569.35,-216.3 579.57,-204.8 587.95,-195.37"/>
<polygon fill="midnightblue" stroke="midnightblue" points="590.69,-197.55 594.72,-187.75 585.46,-192.9 590.69,-197.55"/>
</g>
</g>
</svg>
