<?xml version="1.0" encoding="UTF-8" standalone="no"?>
<!DOCTYPE svg PUBLIC "-//W3C//DTD SVG 1.1//EN"
 "http://www.w3.org/Graphics/SVG/1.1/DTD/svg11.dtd">
<!-- Generated by graphviz version 2.43.0 (0)
 -->
<!-- Title: ntp/src/details/utils.cpp Pages: 1 -->
<svg width="504pt" height="252pt"
 viewBox="0.00 0.00 503.50 252.00" xmlns="http://www.w3.org/2000/svg" xmlns:xlink="http://www.w3.org/1999/xlink">
<g id="graph0" class="graph" transform="scale(1 1) rotate(0) translate(4 248)">
<title>ntp/src/details/utils.cpp</title>
<!-- Node1 -->
<g id="node1" class="node">
<title>Node1</title>
<g id="a_node1"><a xlink:title="Implementation of helper functions and classes.">
<polygon fill="#bfbfbf" stroke="black" points="116,-224.5 116,-243.5 246,-243.5 246,-224.5 116,-224.5"/>
<text text-anchor="middle" x="181" y="-231.5" font-family="Helvetica,sans-Serif" font-size="10.00">ntp/src/details/utils.cpp</text>
</a>
</g>
</g>
<!-- Node2 -->
<g id="node2" class="node">
<title>Node2</title>
<g id="a_node2"><a xlink:title=" ">
<polygon fill="none" stroke="#bfbfbf" points="67.5,-168.5 67.5,-187.5 114.5,-187.5 114.5,-168.5 67.5,-168.5"/>
<text text-anchor="middle" x="91" y="-175.5" font-family="Helvetica,sans-Serif" font-size="10.00">vector</text>
</a>
</g>
</g>
<!-- Node1&#45;&gt;Node2 -->
<g id="edge1" class="edge">
<title>Node1&#45;&gt;Node2</title>
<path fill="none" stroke="midnightblue" d="M166.54,-224.32C152.5,-215.9 130.95,-202.97 114.46,-193.07"/>
<polygon fill="midnightblue" stroke="midnightblue" points="115.8,-189.8 105.42,-187.65 112.2,-195.8 115.8,-189.8"/>
</g>
<!-- Node3 -->
<g id="node3" class="node">
<title>Node3</title>
<g id="a_node3"><a xlink:href="ntp__config_8hpp_source.html" target="_top" xlink:title=" ">
<polygon fill="none" stroke="black" points="175,-56.5 175,-75.5 263,-75.5 263,-56.5 175,-56.5"/>
<text text-anchor="middle" x="219" y="-63.5" font-family="Helvetica,sans-Serif" font-size="10.00">ntp_config.hpp</text>
</a>
</g>
</g>
<!-- Node1&#45;&gt;Node3 -->
<g id="edge2" class="edge">
<title>Node1&#45;&gt;Node3</title>
<path fill="none" stroke="midnightblue" d="M183.04,-224.08C189.02,-197.95 206.59,-121.21 214.75,-85.58"/>
<polygon fill="midnightblue" stroke="midnightblue" points="218.22,-86.1 217.04,-75.57 211.4,-84.53 218.22,-86.1"/>
</g>
<!-- Node4 -->
<g id="node4" class="node">
<title>Node4</title>
<g id="a_node4"><a xlink:href="ntrtl_8h.html" target="_top" xlink:title="Contains necessary declarations/definitions of internal windows objects and functions.">
<polygon fill="none" stroke="black" points="73,-112.5 73,-131.5 153,-131.5 153,-112.5 73,-112.5"/>
<text text-anchor="middle" x="113" y="-119.5" font-family="Helvetica,sans-Serif" font-size="10.00">native/ntrtl.h</text>
</a>
</g>
</g>
<!-- Node1&#45;&gt;Node4 -->
<g id="edge3" class="edge">
<title>Node1&#45;&gt;Node4</title>
<path fill="none" stroke="midnightblue" d="M175.66,-224.37C164.49,-206.3 138.45,-164.18 123.7,-140.31"/>
<polygon fill="midnightblue" stroke="midnightblue" points="126.55,-138.26 118.31,-131.59 120.59,-141.94 126.55,-138.26"/>
</g>
<!-- Node7 -->
<g id="node7" class="node">
<title>Node7</title>
<g id="a_node7"><a xlink:href="utils_8hpp.html" target="_top" xlink:title="Some useful implementation stuff.">
<polygon fill="none" stroke="black" points="209.5,-168.5 209.5,-187.5 304.5,-187.5 304.5,-168.5 209.5,-168.5"/>
<text text-anchor="middle" x="257" y="-175.5" font-family="Helvetica,sans-Serif" font-size="10.00">details/utils.hpp</text>
</a>
</g>
</g>
<!-- Node1&#45;&gt;Node7 -->
<g id="edge6" class="edge">
<title>Node1&#45;&gt;Node7</title>
<path fill="none" stroke="midnightblue" d="M193.21,-224.32C204.78,-216.11 222.38,-203.6 236.16,-193.81"/>
<polygon fill="midnightblue" stroke="midnightblue" points="238.44,-196.48 244.57,-187.83 234.39,-190.77 238.44,-196.48"/>
</g>
<!-- Node11 -->
<g id="node11" class="node">
<title>Node11</title>
<g id="a_node11"><a xlink:href="exception_8hpp.html" target="_top" xlink:title="Win32 error wrapper implementations.">
<polygon fill="none" stroke="black" points="333,-56.5 333,-75.5 455,-75.5 455,-56.5 333,-56.5"/>
<text text-anchor="middle" x="394" y="-63.5" font-family="Helvetica,sans-Serif" font-size="10.00">details/exception.hpp</text>
</a>
</g>
</g>
<!-- Node1&#45;&gt;Node11 -->
<g id="edge17" class="edge">
<title>Node1&#45;&gt;Node11</title>
<path fill="none" stroke="midnightblue" d="M246.03,-228.21C308.05,-219.75 398.02,-196.38 440,-132 451.44,-114.45 433.21,-94.89 416.43,-81.86"/>
<polygon fill="midnightblue" stroke="midnightblue" points="418.1,-78.74 407.95,-75.68 413.97,-84.4 418.1,-78.74"/>
</g>
<!-- Node5 -->
<g id="node5" class="node">
<title>Node5</title>
<g id="a_node5"><a xlink:title=" ">
<polygon fill="none" stroke="#bfbfbf" points="0,-56.5 0,-75.5 68,-75.5 68,-56.5 0,-56.5"/>
<text text-anchor="middle" x="34" y="-63.5" font-family="Helvetica,sans-Serif" font-size="10.00">windows.h</text>
</a>
</g>
</g>
<!-- Node4&#45;&gt;Node5 -->
<g id="edge4" class="edge">
<title>Node4&#45;&gt;Node5</title>
<path fill="none" stroke="midnightblue" d="M100.31,-112.32C88.1,-103.98 69.42,-91.21 55,-81.35"/>
<polygon fill="midnightblue" stroke="midnightblue" points="56.89,-78.41 46.66,-75.65 52.94,-84.19 56.89,-78.41"/>
</g>
<!-- Node6 -->
<g id="node6" class="node">
<title>Node6</title>
<g id="a_node6"><a xlink:title=" ">
<polygon fill="none" stroke="#bfbfbf" points="86.5,-56.5 86.5,-75.5 151.5,-75.5 151.5,-56.5 86.5,-56.5"/>
<text text-anchor="middle" x="119" y="-63.5" font-family="Helvetica,sans-Serif" font-size="10.00">winternl.h</text>
</a>
</g>
</g>
<!-- Node4&#45;&gt;Node6 -->
<g id="edge5" class="edge">
<title>Node4&#45;&gt;Node6</title>
<path fill="none" stroke="midnightblue" d="M113.99,-112.08C114.79,-104.93 115.93,-94.64 116.92,-85.69"/>
<polygon fill="midnightblue" stroke="midnightblue" points="120.4,-86.08 118.03,-75.75 113.44,-85.3 120.4,-86.08"/>
</g>
<!-- Node7&#45;&gt;Node3 -->
<g id="edge8" class="edge">
<title>Node7&#45;&gt;Node3</title>
<path fill="none" stroke="midnightblue" d="M253.06,-168.49C248.99,-159.53 242.61,-144.94 238,-132 232.46,-116.42 227.27,-98.35 223.72,-85.22"/>
<polygon fill="midnightblue" stroke="midnightblue" points="227.1,-84.29 221.15,-75.51 220.33,-86.08 227.1,-84.29"/>
</g>
<!-- Node7&#45;&gt;Node4 -->
<g id="edge9" class="edge">
<title>Node7&#45;&gt;Node4</title>
<path fill="none" stroke="midnightblue" d="M234.18,-168.44C210.17,-159.44 172.17,-145.19 145.13,-135.05"/>
<polygon fill="midnightblue" stroke="midnightblue" points="146.3,-131.75 135.71,-131.52 143.84,-138.3 146.3,-131.75"/>
</g>
<!-- Node8 -->
<g id="node8" class="node">
<title>Node8</title>
<g id="a_node8"><a xlink:title=" ">
<polygon fill="none" stroke="#bfbfbf" points="381,-112.5 381,-131.5 431,-131.5 431,-112.5 381,-112.5"/>
<text text-anchor="middle" x="406" y="-119.5" font-family="Helvetica,sans-Serif" font-size="10.00">atomic</text>
</a>
</g>
</g>
<!-- Node7&#45;&gt;Node8 -->
<g id="edge7" class="edge">
<title>Node7&#45;&gt;Node8</title>
<path fill="none" stroke="midnightblue" d="M280.61,-168.44C305.46,-159.44 344.77,-145.19 372.75,-135.05"/>
<polygon fill="midnightblue" stroke="midnightblue" points="374.29,-138.21 382.5,-131.52 371.91,-131.63 374.29,-138.21"/>
</g>
<!-- Node9 -->
<g id="node9" class="node">
<title>Node9</title>
<g id="a_node9"><a xlink:href="allocator_8hpp.html" target="_top" xlink:title="Allocator implementations.">
<polygon fill="none" stroke="black" points="247,-112.5 247,-131.5 363,-131.5 363,-112.5 247,-112.5"/>
<text text-anchor="middle" x="305" y="-119.5" font-family="Helvetica,sans-Serif" font-size="10.00">details/allocator.hpp</text>
</a>
</g>
</g>
<!-- Node7&#45;&gt;Node9 -->
<g id="edge10" class="edge">
<title>Node7&#45;&gt;Node9</title>
<path fill="none" stroke="midnightblue" d="M264.93,-168.08C271.85,-160.3 282.07,-148.8 290.45,-139.37"/>
<polygon fill="midnightblue" stroke="midnightblue" points="293.19,-141.55 297.22,-131.75 287.96,-136.9 293.19,-141.55"/>
</g>
<!-- Node9&#45;&gt;Node3 -->
<g id="edge12" class="edge">
<title>Node9&#45;&gt;Node3</title>
<path fill="none" stroke="midnightblue" d="M291.18,-112.32C277.77,-103.9 257.18,-90.97 241.41,-81.07"/>
<polygon fill="midnightblue" stroke="midnightblue" points="243.11,-78.01 232.78,-75.65 239.39,-83.94 243.11,-78.01"/>
</g>
<!-- Node10 -->
<g id="node10" class="node">
<title>Node10</title>
<g id="a_node10"><a xlink:title=" ">
<polygon fill="none" stroke="#bfbfbf" points="277,-0.5 277,-19.5 347,-19.5 347,-0.5 277,-0.5"/>
<text text-anchor="middle" x="312" y="-7.5" font-family="Helvetica,sans-Serif" font-size="10.00">Windows.h</text>
</a>
</g>
</g>
<!-- Node9&#45;&gt;Node10 -->
<g id="edge11" class="edge">
<title>Node9&#45;&gt;Node10</title>
<path fill="none" stroke="midnightblue" d="M305.55,-112.37C306.68,-94.62 309.28,-53.67 310.82,-29.6"/>
<polygon fill="midnightblue" stroke="midnightblue" points="314.31,-29.79 311.45,-19.59 307.33,-29.35 314.31,-29.79"/>
</g>
<!-- Node9&#45;&gt;Node11 -->
<g id="edge13" class="edge">
<title>Node9&#45;&gt;Node11</title>
<path fill="none" stroke="midnightblue" d="M319.3,-112.32C333.18,-103.9 354.49,-90.97 370.8,-81.07"/>
<polygon fill="midnightblue" stroke="midnightblue" points="373,-83.83 379.74,-75.65 369.37,-77.85 373,-83.83"/>
</g>
<!-- Node11&#45;&gt;Node10 -->
<g id="edge14" class="edge">
<title>Node11&#45;&gt;Node10</title>
<path fill="none" stroke="midnightblue" d="M380.83,-56.32C368.15,-47.98 348.77,-35.21 333.79,-25.35"/>
<polygon fill="midnightblue" stroke="midnightblue" points="335.42,-22.23 325.14,-19.65 331.57,-28.08 335.42,-22.23"/>
</g>
<!-- Node12 -->
<g id="node12" class="node">
<title>Node12</title>
<g id="a_node12"><a xlink:title=" ">
<polygon fill="none" stroke="#bfbfbf" points="430.5,-0.5 430.5,-19.5 495.5,-19.5 495.5,-0.5 430.5,-0.5"/>
<text text-anchor="middle" x="463" y="-7.5" font-family="Helvetica,sans-Serif" font-size="10.00">stdexcept</text>
</a>
</g>
</g>
<!-- Node11&#45;&gt;Node12 -->
<g id="edge15" class="edge">
<title>Node11&#45;&gt;Node12</title>
<path fill="none" stroke="midnightblue" d="M405.09,-56.32C415.49,-48.18 431.26,-35.84 443.72,-26.09"/>
<polygon fill="midnightblue" stroke="midnightblue" points="445.99,-28.75 451.71,-19.83 441.68,-23.24 445.99,-28.75"/>
</g>
<!-- Node13 -->
<g id="node13" class="node">
<title>Node13</title>
<g id="a_node13"><a xlink:title=" ">
<polygon fill="none" stroke="#bfbfbf" points="368,-0.5 368,-19.5 412,-19.5 412,-0.5 368,-0.5"/>
<text text-anchor="middle" x="390" y="-7.5" font-family="Helvetica,sans-Serif" font-size="10.00">string</text>
</a>
</g>
</g>
<!-- Node11&#45;&gt;Node13 -->
<g id="edge16" class="edge">
<title>Node11&#45;&gt;Node13</title>
<path fill="none" stroke="midnightblue" d="M393.34,-56.08C392.82,-49.01 392.06,-38.86 391.41,-29.99"/>
<polygon fill="midnightblue" stroke="midnightblue" points="394.88,-29.47 390.65,-19.75 387.9,-29.98 394.88,-29.47"/>
</g>
</g>
</svg>
