<?xml version="1.0" encoding="UTF-8" standalone="no"?>
<!DOCTYPE svg PUBLIC "-//W3C//DTD SVG 1.1//EN"
 "http://www.w3.org/Graphics/SVG/1.1/DTD/svg11.dtd">
<!-- Generated by graphviz version 2.43.0 (0)
 -->
<!-- Title: ntp/include/details/utils.hpp Pages: 1 -->
<svg width="618pt" height="274pt"
 viewBox="0.00 0.00 617.50 274.00" xmlns="http://www.w3.org/2000/svg" xmlns:xlink="http://www.w3.org/1999/xlink">
<g id="graph0" class="graph" transform="scale(1 1) rotate(0) translate(4 270)">
<title>ntp/include/details/utils.hpp</title>
<!-- Node1 -->
<g id="node1" class="node">
<title>Node1</title>
<g id="a_node1"><a xlink:title="Some useful implementation stuff.">
<polygon fill="#bfbfbf" stroke="black" points="244.5,-235.5 244.5,-265.5 351.5,-265.5 351.5,-235.5 244.5,-235.5"/>
<text text-anchor="start" x="252.5" y="-253.5" font-family="Helvetica,sans-Serif" font-size="10.00">ntp/include/details</text>
<text text-anchor="middle" x="298" y="-242.5" font-family="Helvetica,sans-Serif" font-size="10.00">/utils.hpp</text>
</a>
</g>
</g>
<!-- Node2 -->
<g id="node2" class="node">
<title>Node2</title>
<g id="a_node2"><a xlink:href="logger__internal_8hpp.html" target="_top" xlink:title="Internal logger subsystem implementation.">
<polygon fill="none" stroke="black" points="28,-168.5 28,-198.5 142,-198.5 142,-168.5 28,-168.5"/>
<text text-anchor="start" x="36" y="-186.5" font-family="Helvetica,sans-Serif" font-size="10.00">ntp/include/logger</text>
<text text-anchor="middle" x="85" y="-175.5" font-family="Helvetica,sans-Serif" font-size="10.00">/logger_internal.hpp</text>
</a>
</g>
</g>
<!-- Node1&#45;&gt;Node2 -->
<g id="edge1" class="edge">
<title>Node1&#45;&gt;Node2</title>
<path fill="none" stroke="midnightblue" d="M242.11,-232.44C207.58,-221.91 163.81,-208.55 131.24,-198.61"/>
<polygon fill="midnightblue" stroke="midnightblue" points="241.46,-235.9 252.04,-235.48 243.5,-229.21 241.46,-235.9"/>
</g>
<!-- Node3 -->
<g id="node3" class="node">
<title>Node3</title>
<g id="a_node3"><a xlink:href="basic__callback_8hpp.html" target="_top" xlink:title="Interfaces and base classes for callback wrappers.">
<polygon fill="none" stroke="black" points="236.5,-168.5 236.5,-198.5 359.5,-198.5 359.5,-168.5 236.5,-168.5"/>
<text text-anchor="start" x="244.5" y="-186.5" font-family="Helvetica,sans-Serif" font-size="10.00">ntp/include/pool/basic</text>
<text text-anchor="middle" x="298" y="-175.5" font-family="Helvetica,sans-Serif" font-size="10.00">_callback.hpp</text>
</a>
</g>
</g>
<!-- Node1&#45;&gt;Node3 -->
<g id="edge2" class="edge">
<title>Node1&#45;&gt;Node3</title>
<path fill="none" stroke="midnightblue" d="M298,-225.11C298,-216.15 298,-206.32 298,-198.58"/>
<polygon fill="midnightblue" stroke="midnightblue" points="294.5,-225.4 298,-235.4 301.5,-225.4 294.5,-225.4"/>
</g>
<!-- Node4 -->
<g id="node4" class="node">
<title>Node4</title>
<g id="a_node4"><a xlink:href="io_8hpp.html" target="_top" xlink:title="Implementation of threadpool IO callback.">
<polygon fill="none" stroke="black" points="0,-112.5 0,-131.5 128,-131.5 128,-112.5 0,-112.5"/>
<text text-anchor="middle" x="64" y="-119.5" font-family="Helvetica,sans-Serif" font-size="10.00">ntp/include/pool/io.hpp</text>
</a>
</g>
</g>
<!-- Node1&#45;&gt;Node4 -->
<g id="edge13" class="edge">
<title>Node1&#45;&gt;Node4</title>
<path fill="none" stroke="midnightblue" d="M264.43,-230.53C234.74,-213.83 190.16,-188.98 151,-168 126.87,-155.07 98.68,-140.61 81.08,-131.65"/>
<polygon fill="midnightblue" stroke="midnightblue" points="262.72,-233.58 273.15,-235.44 266.15,-227.48 262.72,-233.58"/>
</g>
<!-- Node8 -->
<g id="node8" class="node">
<title>Node8</title>
<g id="a_node8"><a xlink:href="timer_8hpp.html" target="_top" xlink:title="Implementation of threadpool timer callback.">
<polygon fill="none" stroke="black" points="146,-112.5 146,-131.5 290,-131.5 290,-112.5 146,-112.5"/>
<text text-anchor="middle" x="218" y="-119.5" font-family="Helvetica,sans-Serif" font-size="10.00">ntp/include/pool/timer.hpp</text>
</a>
</g>
</g>
<!-- Node1&#45;&gt;Node8 -->
<g id="edge14" class="edge">
<title>Node1&#45;&gt;Node8</title>
<path fill="none" stroke="midnightblue" d="M258.65,-229.95C246.58,-222.01 234.51,-211.67 227,-199 214.26,-177.51 215.38,-146.6 216.87,-131.69"/>
<polygon fill="midnightblue" stroke="midnightblue" points="257.03,-233.06 267.38,-235.32 260.69,-227.1 257.03,-233.06"/>
</g>
<!-- Node9 -->
<g id="node9" class="node">
<title>Node9</title>
<g id="a_node9"><a xlink:href="wait_8hpp.html" target="_top" xlink:title="Implementation of threadpool wait callback.">
<polygon fill="none" stroke="black" points="308,-112.5 308,-131.5 448,-131.5 448,-112.5 308,-112.5"/>
<text text-anchor="middle" x="378" y="-119.5" font-family="Helvetica,sans-Serif" font-size="10.00">ntp/include/pool/wait.hpp</text>
</a>
</g>
</g>
<!-- Node1&#45;&gt;Node9 -->
<g id="edge15" class="edge">
<title>Node1&#45;&gt;Node9</title>
<path fill="none" stroke="midnightblue" d="M337.35,-229.95C349.42,-222.01 361.49,-211.67 369,-199 381.74,-177.51 380.62,-146.6 379.13,-131.69"/>
<polygon fill="midnightblue" stroke="midnightblue" points="335.31,-227.1 328.62,-235.32 338.97,-233.06 335.31,-227.1"/>
</g>
<!-- Node10 -->
<g id="node10" class="node">
<title>Node10</title>
<g id="a_node10"><a xlink:href="work_8hpp.html" target="_top" xlink:title="Work callback wrapper and manager implementation.">
<polygon fill="none" stroke="black" points="466.5,-112.5 466.5,-131.5 609.5,-131.5 609.5,-112.5 466.5,-112.5"/>
<text text-anchor="middle" x="538" y="-119.5" font-family="Helvetica,sans-Serif" font-size="10.00">ntp/include/pool/work.hpp</text>
</a>
</g>
</g>
<!-- Node1&#45;&gt;Node10 -->
<g id="edge16" class="edge">
<title>Node1&#45;&gt;Node10</title>
<path fill="none" stroke="midnightblue" d="M331.55,-230.2C361.16,-213.34 405.61,-188.43 445,-168 470.48,-154.79 500.44,-140.51 519.32,-131.66"/>
<polygon fill="midnightblue" stroke="midnightblue" points="329.43,-227.38 322.48,-235.38 332.9,-233.46 329.43,-227.38"/>
</g>
<!-- Node11 -->
<g id="node11" class="node">
<title>Node11</title>
<g id="a_node11"><a xlink:href="utils_8cpp.html" target="_top" xlink:title="Implementation of helper functions and classes.">
<polygon fill="none" stroke="black" points="454,-174 454,-193 584,-193 584,-174 454,-174"/>
<text text-anchor="middle" x="519" y="-181" font-family="Helvetica,sans-Serif" font-size="10.00">ntp/src/details/utils.cpp</text>
</a>
</g>
</g>
<!-- Node1&#45;&gt;Node11 -->
<g id="edge17" class="edge">
<title>Node1&#45;&gt;Node11</title>
<path fill="none" stroke="midnightblue" d="M355.49,-232.59C398.65,-219.9 455.95,-203.04 490,-193.03"/>
<polygon fill="midnightblue" stroke="midnightblue" points="354.29,-229.3 345.68,-235.48 356.26,-236.01 354.29,-229.3"/>
</g>
<!-- Node3&#45;&gt;Node4 -->
<g id="edge3" class="edge">
<title>Node3&#45;&gt;Node4</title>
<path fill="none" stroke="midnightblue" d="M233.08,-165.99C189.06,-154.8 132.69,-140.47 97.45,-131.51"/>
<polygon fill="midnightblue" stroke="midnightblue" points="232.29,-169.4 242.84,-168.47 234.01,-162.62 232.29,-169.4"/>
</g>
<!-- Node3&#45;&gt;Node8 -->
<g id="edge7" class="edge">
<title>Node3&#45;&gt;Node8</title>
<path fill="none" stroke="midnightblue" d="M270.69,-162.19C256.68,-151.77 240.36,-139.63 229.64,-131.66"/>
<polygon fill="midnightblue" stroke="midnightblue" points="268.93,-165.24 279.04,-168.4 273.11,-159.62 268.93,-165.24"/>
</g>
<!-- Node3&#45;&gt;Node9 -->
<g id="edge9" class="edge">
<title>Node3&#45;&gt;Node9</title>
<path fill="none" stroke="midnightblue" d="M325.31,-162.19C339.32,-151.77 355.64,-139.63 366.36,-131.66"/>
<polygon fill="midnightblue" stroke="midnightblue" points="322.89,-159.62 316.96,-168.4 327.07,-165.24 322.89,-159.62"/>
</g>
<!-- Node3&#45;&gt;Node10 -->
<g id="edge11" class="edge">
<title>Node3&#45;&gt;Node10</title>
<path fill="none" stroke="midnightblue" d="M364.3,-166.06C409.49,-154.86 467.47,-140.49 503.69,-131.51"/>
<polygon fill="midnightblue" stroke="midnightblue" points="363.44,-162.67 354.57,-168.47 365.12,-169.47 363.44,-162.67"/>
</g>
<!-- Node5 -->
<g id="node5" class="node">
<title>Node5</title>
<g id="a_node5"><a xlink:href="threadpool_8hpp.html" target="_top" xlink:title="Threadpool implementations.">
<polygon fill="none" stroke="black" points="212.5,-56.5 212.5,-75.5 383.5,-75.5 383.5,-56.5 212.5,-56.5"/>
<text text-anchor="middle" x="298" y="-63.5" font-family="Helvetica,sans-Serif" font-size="10.00">ntp/include/pool/threadpool.hpp</text>
</a>
</g>
</g>
<!-- Node4&#45;&gt;Node5 -->
<g id="edge4" class="edge">
<title>Node4&#45;&gt;Node5</title>
<path fill="none" stroke="midnightblue" d="M111,-110.15C155.22,-99.95 220.52,-84.88 261.1,-75.52"/>
<polygon fill="midnightblue" stroke="midnightblue" points="110.03,-106.78 101.08,-112.44 111.61,-113.61 110.03,-106.78"/>
</g>
<!-- Node6 -->
<g id="node6" class="node">
<title>Node6</title>
<g id="a_node6"><a xlink:href="ntp_8hpp.html" target="_top" xlink:title="Main ntp library header.">
<polygon fill="none" stroke="black" points="169,-0.5 169,-19.5 279,-19.5 279,-0.5 169,-0.5"/>
<text text-anchor="middle" x="224" y="-7.5" font-family="Helvetica,sans-Serif" font-size="10.00">ntp/include/ntp.hpp</text>
</a>
</g>
</g>
<!-- Node5&#45;&gt;Node6 -->
<g id="edge5" class="edge">
<title>Node5&#45;&gt;Node6</title>
<path fill="none" stroke="midnightblue" d="M277.97,-50.38C264.59,-40.62 247.44,-28.11 236.11,-19.83"/>
<polygon fill="midnightblue" stroke="midnightblue" points="275.97,-53.26 286.11,-56.32 280.1,-47.6 275.97,-53.26"/>
</g>
<!-- Node7 -->
<g id="node7" class="node">
<title>Node7</title>
<g id="a_node7"><a xlink:href="threadpool_8cpp.html" target="_top" xlink:title="Threadpool implementation (traits and some helper functions)">
<polygon fill="none" stroke="black" points="297.5,-0.5 297.5,-19.5 446.5,-19.5 446.5,-0.5 297.5,-0.5"/>
<text text-anchor="middle" x="372" y="-7.5" font-family="Helvetica,sans-Serif" font-size="10.00">ntp/src/pool/threadpool.cpp</text>
</a>
</g>
</g>
<!-- Node5&#45;&gt;Node7 -->
<g id="edge6" class="edge">
<title>Node5&#45;&gt;Node7</title>
<path fill="none" stroke="midnightblue" d="M318.03,-50.38C331.41,-40.62 348.56,-28.11 359.89,-19.83"/>
<polygon fill="midnightblue" stroke="midnightblue" points="315.9,-47.6 309.89,-56.32 320.03,-53.26 315.9,-47.6"/>
</g>
<!-- Node8&#45;&gt;Node5 -->
<g id="edge8" class="edge">
<title>Node8&#45;&gt;Node5</title>
<path fill="none" stroke="midnightblue" d="M239.3,-106.62C253.92,-96.76 272.83,-83.99 285.18,-75.65"/>
<polygon fill="midnightblue" stroke="midnightblue" points="237.18,-103.83 230.85,-112.32 241.1,-109.63 237.18,-103.83"/>
</g>
<!-- Node9&#45;&gt;Node5 -->
<g id="edge10" class="edge">
<title>Node9&#45;&gt;Node5</title>
<path fill="none" stroke="midnightblue" d="M356.7,-106.62C342.08,-96.76 323.17,-83.99 310.82,-75.65"/>
<polygon fill="midnightblue" stroke="midnightblue" points="354.9,-109.63 365.15,-112.32 358.82,-103.83 354.9,-109.63"/>
</g>
<!-- Node10&#45;&gt;Node5 -->
<g id="edge12" class="edge">
<title>Node10&#45;&gt;Node5</title>
<path fill="none" stroke="midnightblue" d="M490.08,-110.22C444.73,-100.01 377.56,-84.9 335.85,-75.52"/>
<polygon fill="midnightblue" stroke="midnightblue" points="489.45,-113.66 499.97,-112.44 490.98,-106.83 489.45,-113.66"/>
</g>
</g>
</svg>
