<?xml version="1.0" encoding="UTF-8" standalone="no"?>
<!DOCTYPE svg PUBLIC "-//W3C//DTD SVG 1.1//EN"
 "http://www.w3.org/Graphics/SVG/1.1/DTD/svg11.dtd">
<!-- Generated by graphviz version 2.43.0 (0)
 -->
<!-- Title: ntp/include/details/utils.hpp Pages: 1 -->
<svg width="399pt" height="263pt"
 viewBox="0.00 0.00 399.39 263.00" xmlns="http://www.w3.org/2000/svg" xmlns:xlink="http://www.w3.org/1999/xlink">
<g id="graph0" class="graph" transform="scale(1 1) rotate(0) translate(4 259)">
<title>ntp/include/details/utils.hpp</title>
<!-- Node1 -->
<g id="node1" class="node">
<title>Node1</title>
<g id="a_node1"><a xlink:title="Some useful implementation stuff.">
<polygon fill="#bfbfbf" stroke="black" points="37.89,-224.5 37.89,-254.5 144.89,-254.5 144.89,-224.5 37.89,-224.5"/>
<text text-anchor="start" x="45.89" y="-242.5" font-family="Helvetica,sans-Serif" font-size="10.00">ntp/include/details</text>
<text text-anchor="middle" x="91.39" y="-231.5" font-family="Helvetica,sans-Serif" font-size="10.00">/utils.hpp</text>
</a>
</g>
</g>
<!-- Node2 -->
<g id="node2" class="node">
<title>Node2</title>
<g id="a_node2"><a xlink:href="ntp__config_8hpp_source.html" target="_top" xlink:title=" ">
<polygon fill="none" stroke="black" points="67.39,-0.5 67.39,-19.5 155.39,-19.5 155.39,-0.5 67.39,-0.5"/>
<text text-anchor="middle" x="111.39" y="-7.5" font-family="Helvetica,sans-Serif" font-size="10.00">ntp_config.hpp</text>
</a>
</g>
</g>
<!-- Node1&#45;&gt;Node2 -->
<g id="edge1" class="edge">
<title>Node1&#45;&gt;Node2</title>
<path fill="none" stroke="midnightblue" d="M69.49,-224.43C37.83,-202.19 -14.92,-156.79 4.39,-112 21.22,-72.97 61.37,-42.01 87.42,-25.12"/>
<polygon fill="midnightblue" stroke="midnightblue" points="89.38,-28.02 95.99,-19.74 85.66,-22.09 89.38,-28.02"/>
</g>
<!-- Node3 -->
<g id="node3" class="node">
<title>Node3</title>
<g id="a_node3"><a xlink:href="ntrtl_8h.html" target="_top" xlink:title="Contains necessary declarations/definitions of internal windows objects and functions.">
<polygon fill="none" stroke="black" points="51.39,-168.5 51.39,-187.5 131.39,-187.5 131.39,-168.5 51.39,-168.5"/>
<text text-anchor="middle" x="91.39" y="-175.5" font-family="Helvetica,sans-Serif" font-size="10.00">native/ntrtl.h</text>
</a>
</g>
</g>
<!-- Node1&#45;&gt;Node3 -->
<g id="edge2" class="edge">
<title>Node1&#45;&gt;Node3</title>
<path fill="none" stroke="midnightblue" d="M91.39,-224.4C91.39,-216.47 91.39,-206.46 91.39,-197.86"/>
<polygon fill="midnightblue" stroke="midnightblue" points="94.89,-197.66 91.39,-187.66 87.89,-197.66 94.89,-197.66"/>
</g>
<!-- Node6 -->
<g id="node6" class="node">
<title>Node6</title>
<g id="a_node6"><a xlink:href="allocator_8hpp.html" target="_top" xlink:title="Allocator implementations.">
<polygon fill="none" stroke="black" points="186.39,-168.5 186.39,-187.5 302.39,-187.5 302.39,-168.5 186.39,-168.5"/>
<text text-anchor="middle" x="244.39" y="-175.5" font-family="Helvetica,sans-Serif" font-size="10.00">details/allocator.hpp</text>
</a>
</g>
</g>
<!-- Node1&#45;&gt;Node6 -->
<g id="edge5" class="edge">
<title>Node1&#45;&gt;Node6</title>
<path fill="none" stroke="midnightblue" d="M127.65,-224.4C153.43,-214.37 187.75,-201.03 212.49,-191.4"/>
<polygon fill="midnightblue" stroke="midnightblue" points="214.08,-194.54 222.13,-187.66 211.54,-188.02 214.08,-194.54"/>
</g>
<!-- Node4 -->
<g id="node4" class="node">
<title>Node4</title>
<g id="a_node4"><a xlink:title=" ">
<polygon fill="none" stroke="#bfbfbf" points="13.39,-112.5 13.39,-131.5 81.39,-131.5 81.39,-112.5 13.39,-112.5"/>
<text text-anchor="middle" x="47.39" y="-119.5" font-family="Helvetica,sans-Serif" font-size="10.00">windows.h</text>
</a>
</g>
</g>
<!-- Node3&#45;&gt;Node4 -->
<g id="edge3" class="edge">
<title>Node3&#45;&gt;Node4</title>
<path fill="none" stroke="midnightblue" d="M84.12,-168.08C77.85,-160.38 68.6,-149.03 60.96,-139.65"/>
<polygon fill="midnightblue" stroke="midnightblue" points="63.55,-137.29 54.52,-131.75 58.12,-141.71 63.55,-137.29"/>
</g>
<!-- Node5 -->
<g id="node5" class="node">
<title>Node5</title>
<g id="a_node5"><a xlink:title=" ">
<polygon fill="none" stroke="#bfbfbf" points="99.89,-112.5 99.89,-131.5 164.89,-131.5 164.89,-112.5 99.89,-112.5"/>
<text text-anchor="middle" x="132.39" y="-119.5" font-family="Helvetica,sans-Serif" font-size="10.00">winternl.h</text>
</a>
</g>
</g>
<!-- Node3&#45;&gt;Node5 -->
<g id="edge4" class="edge">
<title>Node3&#45;&gt;Node5</title>
<path fill="none" stroke="midnightblue" d="M98.16,-168.08C103.95,-160.46 112.45,-149.26 119.53,-139.94"/>
<polygon fill="midnightblue" stroke="midnightblue" points="122.49,-141.83 125.75,-131.75 116.91,-137.6 122.49,-141.83"/>
</g>
<!-- Node7 -->
<g id="node7" class="node">
<title>Node7</title>
<g id="a_node7"><a xlink:href="exception_8hpp.html" target="_top" xlink:title="Win32 error wrapper implementations.">
<polygon fill="none" stroke="black" points="183.39,-112.5 183.39,-131.5 305.39,-131.5 305.39,-112.5 183.39,-112.5"/>
<text text-anchor="middle" x="244.39" y="-119.5" font-family="Helvetica,sans-Serif" font-size="10.00">details/exception.hpp</text>
</a>
</g>
</g>
<!-- Node6&#45;&gt;Node7 -->
<g id="edge6" class="edge">
<title>Node6&#45;&gt;Node7</title>
<path fill="none" stroke="midnightblue" d="M244.39,-168.08C244.39,-161.01 244.39,-150.86 244.39,-141.99"/>
<polygon fill="midnightblue" stroke="midnightblue" points="247.89,-141.75 244.39,-131.75 240.89,-141.75 247.89,-141.75"/>
</g>
<!-- Node10 -->
<g id="node10" class="node">
<title>Node10</title>
<g id="a_node10"><a xlink:href="windows_8hpp_source.html" target="_top" xlink:title=" ">
<polygon fill="none" stroke="black" points="275.39,-56.5 275.39,-75.5 391.39,-75.5 391.39,-56.5 275.39,-56.5"/>
<text text-anchor="middle" x="333.39" y="-63.5" font-family="Helvetica,sans-Serif" font-size="10.00">details/windows.hpp</text>
</a>
</g>
</g>
<!-- Node6&#45;&gt;Node10 -->
<g id="edge12" class="edge">
<title>Node6&#45;&gt;Node10</title>
<path fill="none" stroke="midnightblue" d="M265.38,-168.42C281.06,-160.99 301.85,-148.78 314.39,-132 324.4,-118.61 329.15,-100.04 331.4,-86.18"/>
<polygon fill="midnightblue" stroke="midnightblue" points="334.92,-86.23 332.76,-75.86 327.98,-85.32 334.92,-86.23"/>
</g>
<!-- Node8 -->
<g id="node8" class="node">
<title>Node8</title>
<g id="a_node8"><a xlink:title=" ">
<polygon fill="none" stroke="#bfbfbf" points="129.89,-56.5 129.89,-75.5 194.89,-75.5 194.89,-56.5 129.89,-56.5"/>
<text text-anchor="middle" x="162.39" y="-63.5" font-family="Helvetica,sans-Serif" font-size="10.00">stdexcept</text>
</a>
</g>
</g>
<!-- Node7&#45;&gt;Node8 -->
<g id="edge7" class="edge">
<title>Node7&#45;&gt;Node8</title>
<path fill="none" stroke="midnightblue" d="M231.22,-112.32C218.54,-103.98 199.16,-91.21 184.18,-81.35"/>
<polygon fill="midnightblue" stroke="midnightblue" points="185.81,-78.23 175.53,-75.65 181.96,-84.08 185.81,-78.23"/>
</g>
<!-- Node9 -->
<g id="node9" class="node">
<title>Node9</title>
<g id="a_node9"><a xlink:title=" ">
<polygon fill="none" stroke="#bfbfbf" points="213.39,-56.5 213.39,-75.5 257.39,-75.5 257.39,-56.5 213.39,-56.5"/>
<text text-anchor="middle" x="235.39" y="-63.5" font-family="Helvetica,sans-Serif" font-size="10.00">string</text>
</a>
</g>
</g>
<!-- Node7&#45;&gt;Node9 -->
<g id="edge8" class="edge">
<title>Node7&#45;&gt;Node9</title>
<path fill="none" stroke="midnightblue" d="M242.9,-112.08C241.71,-104.93 240,-94.64 238.51,-85.69"/>
<polygon fill="midnightblue" stroke="midnightblue" points="241.95,-85.04 236.85,-75.75 235.04,-86.19 241.95,-85.04"/>
</g>
<!-- Node7&#45;&gt;Node10 -->
<g id="edge9" class="edge">
<title>Node7&#45;&gt;Node10</title>
<path fill="none" stroke="midnightblue" d="M258.69,-112.32C272.57,-103.9 293.88,-90.97 310.19,-81.07"/>
<polygon fill="midnightblue" stroke="midnightblue" points="312.39,-83.83 319.13,-75.65 308.76,-77.85 312.39,-83.83"/>
</g>
<!-- Node10&#45;&gt;Node2 -->
<g id="edge10" class="edge">
<title>Node10&#45;&gt;Node2</title>
<path fill="none" stroke="midnightblue" d="M298.21,-56.44C259.81,-47.1 198.21,-32.12 156.34,-21.93"/>
<polygon fill="midnightblue" stroke="midnightblue" points="156.95,-18.48 146.4,-19.52 155.29,-25.28 156.95,-18.48"/>
</g>
<!-- Node11 -->
<g id="node11" class="node">
<title>Node11</title>
<g id="a_node11"><a xlink:title=" ">
<polygon fill="none" stroke="#bfbfbf" points="298.39,-0.5 298.39,-19.5 368.39,-19.5 368.39,-0.5 298.39,-0.5"/>
<text text-anchor="middle" x="333.39" y="-7.5" font-family="Helvetica,sans-Serif" font-size="10.00">Windows.h</text>
</a>
</g>
</g>
<!-- Node10&#45;&gt;Node11 -->
<g id="edge11" class="edge">
<title>Node10&#45;&gt;Node11</title>
<path fill="none" stroke="midnightblue" d="M333.39,-56.08C333.39,-49.01 333.39,-38.86 333.39,-29.99"/>
<polygon fill="midnightblue" stroke="midnightblue" points="336.89,-29.75 333.39,-19.75 329.89,-29.75 336.89,-29.75"/>
</g>
</g>
</svg>
