<?xml version="1.0" encoding="UTF-8" standalone="no"?>
<!DOCTYPE svg PUBLIC "-//W3C//DTD SVG 1.1//EN"
 "http://www.w3.org/Graphics/SVG/1.1/DTD/svg11.dtd">
<!-- Generated by graphviz version 2.43.0 (0)
 -->
<!-- Title: ntp/src/details/utils.cpp Pages: 1 -->
<svg width="524pt" height="308pt"
 viewBox="0.00 0.00 524.00 308.00" xmlns="http://www.w3.org/2000/svg" xmlns:xlink="http://www.w3.org/1999/xlink">
<g id="graph0" class="graph" transform="scale(1 1) rotate(0) translate(4 304)">
<title>ntp/src/details/utils.cpp</title>
<!-- Node1 -->
<g id="node1" class="node">
<title>Node1</title>
<g id="a_node1"><a xlink:title="Implementation of helper functions and classes.">
<polygon fill="#bfbfbf" stroke="black" points="134.5,-280.5 134.5,-299.5 264.5,-299.5 264.5,-280.5 134.5,-280.5"/>
<text text-anchor="middle" x="199.5" y="-287.5" font-family="Helvetica,sans-Serif" font-size="10.00">ntp/src/details/utils.cpp</text>
</a>
</g>
</g>
<!-- Node2 -->
<g id="node2" class="node">
<title>Node2</title>
<g id="a_node2"><a xlink:title=" ">
<polygon fill="none" stroke="#bfbfbf" points="0,-224.5 0,-243.5 47,-243.5 47,-224.5 0,-224.5"/>
<text text-anchor="middle" x="23.5" y="-231.5" font-family="Helvetica,sans-Serif" font-size="10.00">vector</text>
</a>
</g>
</g>
<!-- Node1&#45;&gt;Node2 -->
<g id="edge1" class="edge">
<title>Node1&#45;&gt;Node2</title>
<path fill="none" stroke="midnightblue" d="M171.61,-280.44C140.43,-270.88 89.95,-255.39 56.74,-245.2"/>
<polygon fill="midnightblue" stroke="midnightblue" points="57.62,-241.81 47.03,-242.22 55.57,-248.5 57.62,-241.81"/>
</g>
<!-- Node3 -->
<g id="node3" class="node">
<title>Node3</title>
<g id="a_node3"><a xlink:href="ntp__config_8hpp_source.html" target="_top" xlink:title=" ">
<polygon fill="none" stroke="black" points="63.5,-0.5 63.5,-19.5 151.5,-19.5 151.5,-0.5 63.5,-0.5"/>
<text text-anchor="middle" x="107.5" y="-7.5" font-family="Helvetica,sans-Serif" font-size="10.00">ntp_config.hpp</text>
</a>
</g>
</g>
<!-- Node1&#45;&gt;Node3 -->
<g id="edge2" class="edge">
<title>Node1&#45;&gt;Node3</title>
<path fill="none" stroke="midnightblue" d="M175.88,-280.48C139.91,-265.79 75.5,-232.09 75.5,-179 75.5,-179 75.5,-179 75.5,-121 75.5,-87.33 89.49,-50.08 98.97,-28.72"/>
<polygon fill="midnightblue" stroke="midnightblue" points="102.17,-30.14 103.18,-19.59 95.82,-27.21 102.17,-30.14"/>
</g>
<!-- Node4 -->
<g id="node4" class="node">
<title>Node4</title>
<g id="a_node4"><a xlink:href="ntrtl_8h.html" target="_top" xlink:title="Contains necessary declarations/definitions of internal windows objects and functions.">
<polygon fill="none" stroke="black" points="335.5,-168.5 335.5,-187.5 415.5,-187.5 415.5,-168.5 335.5,-168.5"/>
<text text-anchor="middle" x="375.5" y="-175.5" font-family="Helvetica,sans-Serif" font-size="10.00">native/ntrtl.h</text>
</a>
</g>
</g>
<!-- Node1&#45;&gt;Node4 -->
<g id="edge3" class="edge">
<title>Node1&#45;&gt;Node4</title>
<path fill="none" stroke="midnightblue" d="M223.5,-280.43C244.39,-272.46 275.06,-259.5 299.5,-244 322.02,-229.72 344.87,-209.18 359.55,-195.03"/>
<polygon fill="midnightblue" stroke="midnightblue" points="362.12,-197.41 366.81,-187.91 357.22,-192.42 362.12,-197.41"/>
</g>
<!-- Node7 -->
<g id="node7" class="node">
<title>Node7</title>
<g id="a_node7"><a xlink:href="utils_8hpp.html" target="_top" xlink:title="Some useful implementation stuff.">
<polygon fill="none" stroke="black" points="152,-224.5 152,-243.5 247,-243.5 247,-224.5 152,-224.5"/>
<text text-anchor="middle" x="199.5" y="-231.5" font-family="Helvetica,sans-Serif" font-size="10.00">details/utils.hpp</text>
</a>
</g>
</g>
<!-- Node1&#45;&gt;Node7 -->
<g id="edge6" class="edge">
<title>Node1&#45;&gt;Node7</title>
<path fill="none" stroke="midnightblue" d="M199.5,-280.08C199.5,-273.01 199.5,-262.86 199.5,-253.99"/>
<polygon fill="midnightblue" stroke="midnightblue" points="203,-253.75 199.5,-243.75 196,-253.75 203,-253.75"/>
</g>
<!-- Node9 -->
<g id="node9" class="node">
<title>Node9</title>
<g id="a_node9"><a xlink:href="exception_8hpp.html" target="_top" xlink:title="Win32 error wrapper implementations.">
<polygon fill="none" stroke="black" points="224.5,-112.5 224.5,-131.5 346.5,-131.5 346.5,-112.5 224.5,-112.5"/>
<text text-anchor="middle" x="285.5" y="-119.5" font-family="Helvetica,sans-Serif" font-size="10.00">details/exception.hpp</text>
</a>
</g>
</g>
<!-- Node1&#45;&gt;Node9 -->
<g id="edge17" class="edge">
<title>Node1&#45;&gt;Node9</title>
<path fill="none" stroke="midnightblue" d="M215.48,-280.44C228.49,-272.64 246.31,-259.93 256.5,-244 276.98,-211.96 283.01,-166.77 284.78,-141.66"/>
<polygon fill="midnightblue" stroke="midnightblue" points="288.27,-141.84 285.32,-131.66 281.28,-141.45 288.27,-141.84"/>
</g>
<!-- Node5 -->
<g id="node5" class="node">
<title>Node5</title>
<g id="a_node5"><a xlink:title=" ">
<polygon fill="none" stroke="#bfbfbf" points="364.5,-112.5 364.5,-131.5 432.5,-131.5 432.5,-112.5 364.5,-112.5"/>
<text text-anchor="middle" x="398.5" y="-119.5" font-family="Helvetica,sans-Serif" font-size="10.00">windows.h</text>
</a>
</g>
</g>
<!-- Node4&#45;&gt;Node5 -->
<g id="edge4" class="edge">
<title>Node4&#45;&gt;Node5</title>
<path fill="none" stroke="midnightblue" d="M379.3,-168.08C382.41,-160.77 386.92,-150.18 390.79,-141.1"/>
<polygon fill="midnightblue" stroke="midnightblue" points="394.07,-142.32 394.77,-131.75 387.63,-139.58 394.07,-142.32"/>
</g>
<!-- Node6 -->
<g id="node6" class="node">
<title>Node6</title>
<g id="a_node6"><a xlink:title=" ">
<polygon fill="none" stroke="#bfbfbf" points="451,-112.5 451,-131.5 516,-131.5 516,-112.5 451,-112.5"/>
<text text-anchor="middle" x="483.5" y="-119.5" font-family="Helvetica,sans-Serif" font-size="10.00">winternl.h</text>
</a>
</g>
</g>
<!-- Node4&#45;&gt;Node6 -->
<g id="edge5" class="edge">
<title>Node4&#45;&gt;Node6</title>
<path fill="none" stroke="midnightblue" d="M392.85,-168.32C410.17,-159.66 437.02,-146.24 457,-136.25"/>
<polygon fill="midnightblue" stroke="midnightblue" points="458.81,-139.26 466.19,-131.65 455.68,-133 458.81,-139.26"/>
</g>
<!-- Node7&#45;&gt;Node3 -->
<g id="edge7" class="edge">
<title>Node7&#45;&gt;Node3</title>
<path fill="none" stroke="midnightblue" d="M178.08,-224.36C162.8,-217.03 143.14,-204.98 132.5,-188 100.96,-137.68 102.6,-63.68 105.45,-29.53"/>
<polygon fill="midnightblue" stroke="midnightblue" points="108.93,-29.85 106.41,-19.56 101.96,-29.18 108.93,-29.85"/>
</g>
<!-- Node7&#45;&gt;Node4 -->
<g id="edge8" class="edge">
<title>Node7&#45;&gt;Node4</title>
<path fill="none" stroke="midnightblue" d="M227.39,-224.44C257.25,-215.28 304.81,-200.69 337.96,-190.52"/>
<polygon fill="midnightblue" stroke="midnightblue" points="339.21,-193.8 347.74,-187.52 337.16,-187.1 339.21,-193.8"/>
</g>
<!-- Node8 -->
<g id="node8" class="node">
<title>Node8</title>
<g id="a_node8"><a xlink:href="allocator_8hpp.html" target="_top" xlink:title="Allocator implementations.">
<polygon fill="none" stroke="black" points="141.5,-168.5 141.5,-187.5 257.5,-187.5 257.5,-168.5 141.5,-168.5"/>
<text text-anchor="middle" x="199.5" y="-175.5" font-family="Helvetica,sans-Serif" font-size="10.00">details/allocator.hpp</text>
</a>
</g>
</g>
<!-- Node7&#45;&gt;Node8 -->
<g id="edge9" class="edge">
<title>Node7&#45;&gt;Node8</title>
<path fill="none" stroke="midnightblue" d="M199.5,-224.08C199.5,-217.01 199.5,-206.86 199.5,-197.99"/>
<polygon fill="midnightblue" stroke="midnightblue" points="203,-197.75 199.5,-187.75 196,-197.75 203,-197.75"/>
</g>
<!-- Node8&#45;&gt;Node9 -->
<g id="edge10" class="edge">
<title>Node8&#45;&gt;Node9</title>
<path fill="none" stroke="midnightblue" d="M213.32,-168.32C226.73,-159.9 247.32,-146.97 263.09,-137.07"/>
<polygon fill="midnightblue" stroke="midnightblue" points="265.11,-139.94 271.72,-131.65 261.39,-134.01 265.11,-139.94"/>
</g>
<!-- Node12 -->
<g id="node12" class="node">
<title>Node12</title>
<g id="a_node12"><a xlink:href="windows_8hpp_source.html" target="_top" xlink:title=" ">
<polygon fill="none" stroke="black" points="141.5,-56.5 141.5,-75.5 257.5,-75.5 257.5,-56.5 141.5,-56.5"/>
<text text-anchor="middle" x="199.5" y="-63.5" font-family="Helvetica,sans-Serif" font-size="10.00">details/windows.hpp</text>
</a>
</g>
</g>
<!-- Node8&#45;&gt;Node12 -->
<g id="edge16" class="edge">
<title>Node8&#45;&gt;Node12</title>
<path fill="none" stroke="midnightblue" d="M199.5,-168.37C199.5,-150.62 199.5,-109.67 199.5,-85.6"/>
<polygon fill="midnightblue" stroke="midnightblue" points="203,-85.59 199.5,-75.59 196,-85.59 203,-85.59"/>
</g>
<!-- Node10 -->
<g id="node10" class="node">
<title>Node10</title>
<g id="a_node10"><a xlink:title=" ">
<polygon fill="none" stroke="#bfbfbf" points="338,-56.5 338,-75.5 403,-75.5 403,-56.5 338,-56.5"/>
<text text-anchor="middle" x="370.5" y="-63.5" font-family="Helvetica,sans-Serif" font-size="10.00">stdexcept</text>
</a>
</g>
</g>
<!-- Node9&#45;&gt;Node10 -->
<g id="edge11" class="edge">
<title>Node9&#45;&gt;Node10</title>
<path fill="none" stroke="midnightblue" d="M299.16,-112.32C312.42,-103.9 332.77,-90.97 348.35,-81.07"/>
<polygon fill="midnightblue" stroke="midnightblue" points="350.31,-83.97 356.88,-75.65 346.56,-78.06 350.31,-83.97"/>
</g>
<!-- Node11 -->
<g id="node11" class="node">
<title>Node11</title>
<g id="a_node11"><a xlink:title=" ">
<polygon fill="none" stroke="#bfbfbf" points="275.5,-56.5 275.5,-75.5 319.5,-75.5 319.5,-56.5 275.5,-56.5"/>
<text text-anchor="middle" x="297.5" y="-63.5" font-family="Helvetica,sans-Serif" font-size="10.00">string</text>
</a>
</g>
</g>
<!-- Node9&#45;&gt;Node11 -->
<g id="edge12" class="edge">
<title>Node9&#45;&gt;Node11</title>
<path fill="none" stroke="midnightblue" d="M287.48,-112.08C289.07,-104.93 291.36,-94.64 293.35,-85.69"/>
<polygon fill="midnightblue" stroke="midnightblue" points="296.8,-86.27 295.56,-75.75 289.97,-84.75 296.8,-86.27"/>
</g>
<!-- Node9&#45;&gt;Node12 -->
<g id="edge13" class="edge">
<title>Node9&#45;&gt;Node12</title>
<path fill="none" stroke="midnightblue" d="M271.68,-112.32C258.27,-103.9 237.68,-90.97 221.91,-81.07"/>
<polygon fill="midnightblue" stroke="midnightblue" points="223.61,-78.01 213.28,-75.65 219.89,-83.94 223.61,-78.01"/>
</g>
<!-- Node12&#45;&gt;Node3 -->
<g id="edge14" class="edge">
<title>Node12&#45;&gt;Node3</title>
<path fill="none" stroke="midnightblue" d="M184.72,-56.32C170.23,-47.82 147.93,-34.73 131.01,-24.8"/>
<polygon fill="midnightblue" stroke="midnightblue" points="132.64,-21.7 122.24,-19.65 129.1,-27.74 132.64,-21.7"/>
</g>
<!-- Node13 -->
<g id="node13" class="node">
<title>Node13</title>
<g id="a_node13"><a xlink:title=" ">
<polygon fill="none" stroke="#bfbfbf" points="169.5,-0.5 169.5,-19.5 239.5,-19.5 239.5,-0.5 169.5,-0.5"/>
<text text-anchor="middle" x="204.5" y="-7.5" font-family="Helvetica,sans-Serif" font-size="10.00">Windows.h</text>
</a>
</g>
</g>
<!-- Node12&#45;&gt;Node13 -->
<g id="edge15" class="edge">
<title>Node12&#45;&gt;Node13</title>
<path fill="none" stroke="midnightblue" d="M200.33,-56.08C200.98,-49.01 201.92,-38.86 202.74,-29.99"/>
<polygon fill="midnightblue" stroke="midnightblue" points="206.25,-30.03 203.69,-19.75 199.28,-29.39 206.25,-30.03"/>
</g>
</g>
</svg>
