<?xml version="1.0" encoding="UTF-8" standalone="no"?>
<!DOCTYPE svg PUBLIC "-//W3C//DTD SVG 1.1//EN"
 "http://www.w3.org/Graphics/SVG/1.1/DTD/svg11.dtd">
<!-- Generated by graphviz version 2.43.0 (0)
 -->
<!-- Title: ntp/include/details/utils.hpp Pages: 1 -->
<svg width="466pt" height="207pt"
 viewBox="0.00 0.00 465.50 207.00" xmlns="http://www.w3.org/2000/svg" xmlns:xlink="http://www.w3.org/1999/xlink">
<g id="graph0" class="graph" transform="scale(1 1) rotate(0) translate(4 203)">
<title>ntp/include/details/utils.hpp</title>
<!-- Node1 -->
<g id="node1" class="node">
<title>Node1</title>
<g id="a_node1"><a xlink:title="Some useful implementation stuff.">
<polygon fill="#bfbfbf" stroke="black" points="160,-168.5 160,-198.5 267,-198.5 267,-168.5 160,-168.5"/>
<text text-anchor="start" x="168" y="-186.5" font-family="Helvetica,sans-Serif" font-size="10.00">ntp/include/details</text>
<text text-anchor="middle" x="213.5" y="-175.5" font-family="Helvetica,sans-Serif" font-size="10.00">/utils.hpp</text>
</a>
</g>
</g>
<!-- Node2 -->
<g id="node2" class="node">
<title>Node2</title>
<g id="a_node2"><a xlink:href="ntp__config_8hpp_source.html" target="_top" xlink:title=" ">
<polygon fill="none" stroke="black" points="169.5,-56.5 169.5,-75.5 257.5,-75.5 257.5,-56.5 169.5,-56.5"/>
<text text-anchor="middle" x="213.5" y="-63.5" font-family="Helvetica,sans-Serif" font-size="10.00">ntp_config.hpp</text>
</a>
</g>
</g>
<!-- Node1&#45;&gt;Node2 -->
<g id="edge1" class="edge">
<title>Node1&#45;&gt;Node2</title>
<path fill="none" stroke="midnightblue" d="M213.5,-168.34C213.5,-147.62 213.5,-109.02 213.5,-85.9"/>
<polygon fill="midnightblue" stroke="midnightblue" points="217,-85.67 213.5,-75.67 210,-85.67 217,-85.67"/>
</g>
<!-- Node3 -->
<g id="node3" class="node">
<title>Node3</title>
<g id="a_node3"><a xlink:href="ntrtl_8h.html" target="_top" xlink:title="Contains necessary declarations/definitions of internal windows objects and functions.">
<polygon fill="none" stroke="black" points="77.5,-112.5 77.5,-131.5 157.5,-131.5 157.5,-112.5 77.5,-112.5"/>
<text text-anchor="middle" x="117.5" y="-119.5" font-family="Helvetica,sans-Serif" font-size="10.00">native/ntrtl.h</text>
</a>
</g>
</g>
<!-- Node1&#45;&gt;Node3 -->
<g id="edge2" class="edge">
<title>Node1&#45;&gt;Node3</title>
<path fill="none" stroke="midnightblue" d="M190.75,-168.4C175.51,-158.95 155.51,-146.56 140.26,-137.11"/>
<polygon fill="midnightblue" stroke="midnightblue" points="141.81,-133.95 131.47,-131.66 138.12,-139.9 141.81,-133.95"/>
</g>
<!-- Node6 -->
<g id="node6" class="node">
<title>Node6</title>
<g id="a_node6"><a xlink:href="allocator_8hpp.html" target="_top" xlink:title="Allocator implementations.">
<polygon fill="none" stroke="black" points="259.5,-112.5 259.5,-131.5 375.5,-131.5 375.5,-112.5 259.5,-112.5"/>
<text text-anchor="middle" x="317.5" y="-119.5" font-family="Helvetica,sans-Serif" font-size="10.00">details/allocator.hpp</text>
</a>
</g>
</g>
<!-- Node1&#45;&gt;Node6 -->
<g id="edge5" class="edge">
<title>Node1&#45;&gt;Node6</title>
<path fill="none" stroke="midnightblue" d="M238.15,-168.4C254.82,-158.86 276.73,-146.32 293.31,-136.84"/>
<polygon fill="midnightblue" stroke="midnightblue" points="295.43,-139.66 302.37,-131.66 291.95,-133.59 295.43,-139.66"/>
</g>
<!-- Node4 -->
<g id="node4" class="node">
<title>Node4</title>
<g id="a_node4"><a xlink:title=" ">
<polygon fill="none" stroke="#bfbfbf" points="83.5,-56.5 83.5,-75.5 151.5,-75.5 151.5,-56.5 83.5,-56.5"/>
<text text-anchor="middle" x="117.5" y="-63.5" font-family="Helvetica,sans-Serif" font-size="10.00">windows.h</text>
</a>
</g>
</g>
<!-- Node3&#45;&gt;Node4 -->
<g id="edge3" class="edge">
<title>Node3&#45;&gt;Node4</title>
<path fill="none" stroke="midnightblue" d="M117.5,-112.08C117.5,-105.01 117.5,-94.86 117.5,-85.99"/>
<polygon fill="midnightblue" stroke="midnightblue" points="121,-85.75 117.5,-75.75 114,-85.75 121,-85.75"/>
</g>
<!-- Node5 -->
<g id="node5" class="node">
<title>Node5</title>
<g id="a_node5"><a xlink:title=" ">
<polygon fill="none" stroke="#bfbfbf" points="0,-56.5 0,-75.5 65,-75.5 65,-56.5 0,-56.5"/>
<text text-anchor="middle" x="32.5" y="-63.5" font-family="Helvetica,sans-Serif" font-size="10.00">winternl.h</text>
</a>
</g>
</g>
<!-- Node3&#45;&gt;Node5 -->
<g id="edge4" class="edge">
<title>Node3&#45;&gt;Node5</title>
<path fill="none" stroke="midnightblue" d="M103.84,-112.32C90.58,-103.9 70.23,-90.97 54.65,-81.07"/>
<polygon fill="midnightblue" stroke="midnightblue" points="56.44,-78.06 46.12,-75.65 52.69,-83.97 56.44,-78.06"/>
</g>
<!-- Node6&#45;&gt;Node2 -->
<g id="edge7" class="edge">
<title>Node6&#45;&gt;Node2</title>
<path fill="none" stroke="midnightblue" d="M300.79,-112.32C284.19,-103.7 258.5,-90.36 239.28,-80.39"/>
<polygon fill="midnightblue" stroke="midnightblue" points="240.66,-77.16 230.17,-75.65 237.43,-83.37 240.66,-77.16"/>
</g>
<!-- Node7 -->
<g id="node7" class="node">
<title>Node7</title>
<g id="a_node7"><a xlink:title=" ">
<polygon fill="none" stroke="#bfbfbf" points="387.5,-0.5 387.5,-19.5 457.5,-19.5 457.5,-0.5 387.5,-0.5"/>
<text text-anchor="middle" x="422.5" y="-7.5" font-family="Helvetica,sans-Serif" font-size="10.00">Windows.h</text>
</a>
</g>
</g>
<!-- Node6&#45;&gt;Node7 -->
<g id="edge6" class="edge">
<title>Node6&#45;&gt;Node7</title>
<path fill="none" stroke="midnightblue" d="M349.03,-112.45C368.35,-105.63 392.06,-94.16 406.5,-76 417,-62.8 420.74,-43.66 422.01,-29.57"/>
<polygon fill="midnightblue" stroke="midnightblue" points="425.5,-29.74 422.57,-19.56 418.51,-29.35 425.5,-29.74"/>
</g>
<!-- Node8 -->
<g id="node8" class="node">
<title>Node8</title>
<g id="a_node8"><a xlink:href="exception_8hpp.html" target="_top" xlink:title="Win32 error wrapper implementations.">
<polygon fill="none" stroke="black" points="275.5,-56.5 275.5,-75.5 397.5,-75.5 397.5,-56.5 275.5,-56.5"/>
<text text-anchor="middle" x="336.5" y="-63.5" font-family="Helvetica,sans-Serif" font-size="10.00">details/exception.hpp</text>
</a>
</g>
</g>
<!-- Node6&#45;&gt;Node8 -->
<g id="edge8" class="edge">
<title>Node6&#45;&gt;Node8</title>
<path fill="none" stroke="midnightblue" d="M320.64,-112.08C323.18,-104.85 326.86,-94.41 330.03,-85.4"/>
<polygon fill="midnightblue" stroke="midnightblue" points="333.4,-86.35 333.42,-75.75 326.8,-84.02 333.4,-86.35"/>
</g>
<!-- Node8&#45;&gt;Node7 -->
<g id="edge9" class="edge">
<title>Node8&#45;&gt;Node7</title>
<path fill="none" stroke="midnightblue" d="M350.32,-56.32C363.73,-47.9 384.32,-34.97 400.09,-25.07"/>
<polygon fill="midnightblue" stroke="midnightblue" points="402.11,-27.94 408.72,-19.65 398.39,-22.01 402.11,-27.94"/>
</g>
<!-- Node9 -->
<g id="node9" class="node">
<title>Node9</title>
<g id="a_node9"><a xlink:title=" ">
<polygon fill="none" stroke="#bfbfbf" points="235,-0.5 235,-19.5 300,-19.5 300,-0.5 235,-0.5"/>
<text text-anchor="middle" x="267.5" y="-7.5" font-family="Helvetica,sans-Serif" font-size="10.00">stdexcept</text>
</a>
</g>
</g>
<!-- Node8&#45;&gt;Node9 -->
<g id="edge10" class="edge">
<title>Node8&#45;&gt;Node9</title>
<path fill="none" stroke="midnightblue" d="M325.41,-56.32C315.01,-48.18 299.24,-35.84 286.78,-26.09"/>
<polygon fill="midnightblue" stroke="midnightblue" points="288.82,-23.24 278.79,-19.83 284.51,-28.75 288.82,-23.24"/>
</g>
<!-- Node10 -->
<g id="node10" class="node">
<title>Node10</title>
<g id="a_node10"><a xlink:title=" ">
<polygon fill="none" stroke="#bfbfbf" points="318.5,-0.5 318.5,-19.5 362.5,-19.5 362.5,-0.5 318.5,-0.5"/>
<text text-anchor="middle" x="340.5" y="-7.5" font-family="Helvetica,sans-Serif" font-size="10.00">string</text>
</a>
</g>
</g>
<!-- Node8&#45;&gt;Node10 -->
<g id="edge11" class="edge">
<title>Node8&#45;&gt;Node10</title>
<path fill="none" stroke="midnightblue" d="M337.16,-56.08C337.68,-49.01 338.44,-38.86 339.09,-29.99"/>
<polygon fill="midnightblue" stroke="midnightblue" points="342.6,-29.98 339.85,-19.75 335.62,-29.47 342.6,-29.98"/>
</g>
</g>
</svg>
