<?xml version="1.0" encoding="UTF-8" standalone="no"?>
<!DOCTYPE svg PUBLIC "-//W3C//DTD SVG 1.1//EN"
 "http://www.w3.org/Graphics/SVG/1.1/DTD/svg11.dtd">
<!-- Generated by graphviz version 2.43.0 (0)
 -->
<!-- Title: ntp/src/details/utils.cpp Pages: 1 -->
<svg width="504pt" height="252pt"
 viewBox="0.00 0.00 504.00 252.00" xmlns="http://www.w3.org/2000/svg" xmlns:xlink="http://www.w3.org/1999/xlink">
<g id="graph0" class="graph" transform="scale(1 1) rotate(0) translate(4 248)">
<title>ntp/src/details/utils.cpp</title>
<!-- Node1 -->
<g id="node1" class="node">
<title>Node1</title>
<g id="a_node1"><a xlink:title="Implementation of helper functions and classes.">
<polygon fill="#bfbfbf" stroke="black" points="134.5,-224.5 134.5,-243.5 264.5,-243.5 264.5,-224.5 134.5,-224.5"/>
<text text-anchor="middle" x="199.5" y="-231.5" font-family="Helvetica,sans-Serif" font-size="10.00">ntp/src/details/utils.cpp</text>
</a>
</g>
</g>
<!-- Node2 -->
<g id="node2" class="node">
<title>Node2</title>
<g id="a_node2"><a xlink:title=" ">
<polygon fill="none" stroke="#bfbfbf" points="0,-168.5 0,-187.5 47,-187.5 47,-168.5 0,-168.5"/>
<text text-anchor="middle" x="23.5" y="-175.5" font-family="Helvetica,sans-Serif" font-size="10.00">vector</text>
</a>
</g>
</g>
<!-- Node1&#45;&gt;Node2 -->
<g id="edge1" class="edge">
<title>Node1&#45;&gt;Node2</title>
<path fill="none" stroke="midnightblue" d="M171.61,-224.44C140.43,-214.88 89.95,-199.39 56.74,-189.2"/>
<polygon fill="midnightblue" stroke="midnightblue" points="57.62,-185.81 47.03,-186.22 55.57,-192.5 57.62,-185.81"/>
</g>
<!-- Node3 -->
<g id="node3" class="node">
<title>Node3</title>
<g id="a_node3"><a xlink:href="ntp__config_8hpp_source.html" target="_top" xlink:title=" ">
<polygon fill="none" stroke="black" points="60.5,-56.5 60.5,-75.5 148.5,-75.5 148.5,-56.5 60.5,-56.5"/>
<text text-anchor="middle" x="104.5" y="-63.5" font-family="Helvetica,sans-Serif" font-size="10.00">ntp_config.hpp</text>
</a>
</g>
</g>
<!-- Node1&#45;&gt;Node3 -->
<g id="edge2" class="edge">
<title>Node1&#45;&gt;Node3</title>
<path fill="none" stroke="midnightblue" d="M184.8,-224.2C172.25,-216.08 154.38,-203.04 142.5,-188 118.35,-157.43 109.43,-111.33 106.23,-85.76"/>
<polygon fill="midnightblue" stroke="midnightblue" points="109.68,-85.15 105.12,-75.59 102.72,-85.91 109.68,-85.15"/>
</g>
<!-- Node4 -->
<g id="node4" class="node">
<title>Node4</title>
<g id="a_node4"><a xlink:href="ntrtl_8h.html" target="_top" xlink:title="Contains necessary declarations/definitions of internal windows objects and functions.">
<polygon fill="none" stroke="black" points="330.5,-112.5 330.5,-131.5 410.5,-131.5 410.5,-112.5 330.5,-112.5"/>
<text text-anchor="middle" x="370.5" y="-119.5" font-family="Helvetica,sans-Serif" font-size="10.00">native/ntrtl.h</text>
</a>
</g>
</g>
<!-- Node1&#45;&gt;Node4 -->
<g id="edge3" class="edge">
<title>Node1&#45;&gt;Node4</title>
<path fill="none" stroke="midnightblue" d="M224.05,-224.48C245.01,-216.62 275.49,-203.8 299.5,-188 320.97,-173.87 342.27,-153.25 355.86,-139.05"/>
<polygon fill="midnightblue" stroke="midnightblue" points="358.62,-141.21 362.91,-131.52 353.52,-136.43 358.62,-141.21"/>
</g>
<!-- Node7 -->
<g id="node7" class="node">
<title>Node7</title>
<g id="a_node7"><a xlink:href="utils_8hpp.html" target="_top" xlink:title="Some useful implementation stuff.">
<polygon fill="none" stroke="black" points="152,-168.5 152,-187.5 247,-187.5 247,-168.5 152,-168.5"/>
<text text-anchor="middle" x="199.5" y="-175.5" font-family="Helvetica,sans-Serif" font-size="10.00">details/utils.hpp</text>
</a>
</g>
</g>
<!-- Node1&#45;&gt;Node7 -->
<g id="edge6" class="edge">
<title>Node1&#45;&gt;Node7</title>
<path fill="none" stroke="midnightblue" d="M199.5,-224.08C199.5,-217.01 199.5,-206.86 199.5,-197.99"/>
<polygon fill="midnightblue" stroke="midnightblue" points="203,-197.75 199.5,-187.75 196,-197.75 203,-197.75"/>
</g>
<!-- Node10 -->
<g id="node10" class="node">
<title>Node10</title>
<g id="a_node10"><a xlink:href="exception_8hpp.html" target="_top" xlink:title="Win32 error wrapper implementations.">
<polygon fill="none" stroke="black" points="204.5,-56.5 204.5,-75.5 326.5,-75.5 326.5,-56.5 204.5,-56.5"/>
<text text-anchor="middle" x="265.5" y="-63.5" font-family="Helvetica,sans-Serif" font-size="10.00">details/exception.hpp</text>
</a>
</g>
</g>
<!-- Node1&#45;&gt;Node10 -->
<g id="edge16" class="edge">
<title>Node1&#45;&gt;Node10</title>
<path fill="none" stroke="midnightblue" d="M215.99,-224.43C229.12,-216.72 246.85,-204.12 256.5,-188 275.55,-156.19 272.66,-110.91 268.99,-85.73"/>
<polygon fill="midnightblue" stroke="midnightblue" points="272.42,-84.99 267.33,-75.69 265.51,-86.13 272.42,-84.99"/>
</g>
<!-- Node5 -->
<g id="node5" class="node">
<title>Node5</title>
<g id="a_node5"><a xlink:title=" ">
<polygon fill="none" stroke="#bfbfbf" points="344.5,-56.5 344.5,-75.5 412.5,-75.5 412.5,-56.5 344.5,-56.5"/>
<text text-anchor="middle" x="378.5" y="-63.5" font-family="Helvetica,sans-Serif" font-size="10.00">windows.h</text>
</a>
</g>
</g>
<!-- Node4&#45;&gt;Node5 -->
<g id="edge4" class="edge">
<title>Node4&#45;&gt;Node5</title>
<path fill="none" stroke="midnightblue" d="M371.82,-112.08C372.88,-104.93 374.41,-94.64 375.73,-85.69"/>
<polygon fill="midnightblue" stroke="midnightblue" points="379.2,-86.16 377.2,-75.75 372.28,-85.13 379.2,-86.16"/>
</g>
<!-- Node6 -->
<g id="node6" class="node">
<title>Node6</title>
<g id="a_node6"><a xlink:title=" ">
<polygon fill="none" stroke="#bfbfbf" points="431,-56.5 431,-75.5 496,-75.5 496,-56.5 431,-56.5"/>
<text text-anchor="middle" x="463.5" y="-63.5" font-family="Helvetica,sans-Serif" font-size="10.00">winternl.h</text>
</a>
</g>
</g>
<!-- Node4&#45;&gt;Node6 -->
<g id="edge5" class="edge">
<title>Node4&#45;&gt;Node6</title>
<path fill="none" stroke="midnightblue" d="M385.44,-112.32C400.09,-103.82 422.63,-90.73 439.74,-80.8"/>
<polygon fill="midnightblue" stroke="midnightblue" points="441.7,-83.7 448.6,-75.65 438.19,-77.65 441.7,-83.7"/>
</g>
<!-- Node7&#45;&gt;Node3 -->
<g id="edge7" class="edge">
<title>Node7&#45;&gt;Node3</title>
<path fill="none" stroke="midnightblue" d="M181.16,-168.41C166.35,-160.67 145.84,-148.06 132.5,-132 121.23,-118.43 113.79,-99.63 109.43,-85.74"/>
<polygon fill="midnightblue" stroke="midnightblue" points="112.71,-84.48 106.58,-75.84 105.99,-86.42 112.71,-84.48"/>
</g>
<!-- Node7&#45;&gt;Node4 -->
<g id="edge8" class="edge">
<title>Node7&#45;&gt;Node4</title>
<path fill="none" stroke="midnightblue" d="M226.6,-168.44C255.49,-159.32 301.42,-144.81 333.61,-134.65"/>
<polygon fill="midnightblue" stroke="midnightblue" points="335.05,-137.87 343.53,-131.52 332.94,-131.19 335.05,-137.87"/>
</g>
<!-- Node8 -->
<g id="node8" class="node">
<title>Node8</title>
<g id="a_node8"><a xlink:href="allocator_8hpp.html" target="_top" xlink:title="Allocator implementations.">
<polygon fill="none" stroke="black" points="141.5,-112.5 141.5,-131.5 257.5,-131.5 257.5,-112.5 141.5,-112.5"/>
<text text-anchor="middle" x="199.5" y="-119.5" font-family="Helvetica,sans-Serif" font-size="10.00">details/allocator.hpp</text>
</a>
</g>
</g>
<!-- Node7&#45;&gt;Node8 -->
<g id="edge9" class="edge">
<title>Node7&#45;&gt;Node8</title>
<path fill="none" stroke="midnightblue" d="M199.5,-168.08C199.5,-161.01 199.5,-150.86 199.5,-141.99"/>
<polygon fill="midnightblue" stroke="midnightblue" points="203,-141.75 199.5,-131.75 196,-141.75 203,-141.75"/>
</g>
<!-- Node8&#45;&gt;Node3 -->
<g id="edge11" class="edge">
<title>Node8&#45;&gt;Node3</title>
<path fill="none" stroke="midnightblue" d="M184.24,-112.32C169.28,-103.82 146.25,-90.73 128.77,-80.8"/>
<polygon fill="midnightblue" stroke="midnightblue" points="130.15,-77.55 119.73,-75.65 126.69,-83.64 130.15,-77.55"/>
</g>
<!-- Node9 -->
<g id="node9" class="node">
<title>Node9</title>
<g id="a_node9"><a xlink:title=" ">
<polygon fill="none" stroke="#bfbfbf" points="148.5,-0.5 148.5,-19.5 218.5,-19.5 218.5,-0.5 148.5,-0.5"/>
<text text-anchor="middle" x="183.5" y="-7.5" font-family="Helvetica,sans-Serif" font-size="10.00">Windows.h</text>
</a>
</g>
</g>
<!-- Node8&#45;&gt;Node9 -->
<g id="edge10" class="edge">
<title>Node8&#45;&gt;Node9</title>
<path fill="none" stroke="midnightblue" d="M198.24,-112.37C195.66,-94.62 189.71,-53.67 186.21,-29.6"/>
<polygon fill="midnightblue" stroke="midnightblue" points="189.65,-28.98 184.75,-19.59 182.73,-29.99 189.65,-28.98"/>
</g>
<!-- Node8&#45;&gt;Node10 -->
<g id="edge12" class="edge">
<title>Node8&#45;&gt;Node10</title>
<path fill="none" stroke="midnightblue" d="M210.1,-112.32C219.96,-104.26 234.85,-92.08 246.72,-82.37"/>
<polygon fill="midnightblue" stroke="midnightblue" points="249.18,-84.88 254.7,-75.83 244.75,-79.46 249.18,-84.88"/>
</g>
<!-- Node10&#45;&gt;Node9 -->
<g id="edge13" class="edge">
<title>Node10&#45;&gt;Node9</title>
<path fill="none" stroke="midnightblue" d="M252.33,-56.32C239.65,-47.98 220.27,-35.21 205.29,-25.35"/>
<polygon fill="midnightblue" stroke="midnightblue" points="206.92,-22.23 196.64,-19.65 203.07,-28.08 206.92,-22.23"/>
</g>
<!-- Node11 -->
<g id="node11" class="node">
<title>Node11</title>
<g id="a_node11"><a xlink:title=" ">
<polygon fill="none" stroke="#bfbfbf" points="302,-0.5 302,-19.5 367,-19.5 367,-0.5 302,-0.5"/>
<text text-anchor="middle" x="334.5" y="-7.5" font-family="Helvetica,sans-Serif" font-size="10.00">stdexcept</text>
</a>
</g>
</g>
<!-- Node10&#45;&gt;Node11 -->
<g id="edge14" class="edge">
<title>Node10&#45;&gt;Node11</title>
<path fill="none" stroke="midnightblue" d="M276.59,-56.32C286.99,-48.18 302.76,-35.84 315.22,-26.09"/>
<polygon fill="midnightblue" stroke="midnightblue" points="317.49,-28.75 323.21,-19.83 313.18,-23.24 317.49,-28.75"/>
</g>
<!-- Node12 -->
<g id="node12" class="node">
<title>Node12</title>
<g id="a_node12"><a xlink:title=" ">
<polygon fill="none" stroke="#bfbfbf" points="239.5,-0.5 239.5,-19.5 283.5,-19.5 283.5,-0.5 239.5,-0.5"/>
<text text-anchor="middle" x="261.5" y="-7.5" font-family="Helvetica,sans-Serif" font-size="10.00">string</text>
</a>
</g>
</g>
<!-- Node10&#45;&gt;Node12 -->
<g id="edge15" class="edge">
<title>Node10&#45;&gt;Node12</title>
<path fill="none" stroke="midnightblue" d="M264.84,-56.08C264.32,-49.01 263.56,-38.86 262.91,-29.99"/>
<polygon fill="midnightblue" stroke="midnightblue" points="266.38,-29.47 262.15,-19.75 259.4,-29.98 266.38,-29.47"/>
</g>
</g>
</svg>
