<?xml version="1.0" encoding="UTF-8" standalone="no"?>
<!DOCTYPE svg PUBLIC "-//W3C//DTD SVG 1.1//EN"
 "http://www.w3.org/Graphics/SVG/1.1/DTD/svg11.dtd">
<!-- Generated by graphviz version 2.43.0 (0)
 -->
<!-- Title: ntp/include/pool/wait.hpp Pages: 1 -->
<svg width="1163pt" height="308pt"
 viewBox="0.00 0.00 1163.00 308.00" xmlns="http://www.w3.org/2000/svg" xmlns:xlink="http://www.w3.org/1999/xlink">
<g id="graph0" class="graph" transform="scale(1 1) rotate(0) translate(4 304)">
<title>ntp/include/pool/wait.hpp</title>
<!-- Node1 -->
<g id="node1" class="node">
<title>Node1</title>
<g id="a_node1"><a xlink:title="Implementation of threadpool wait callback.">
<polygon fill="#bfbfbf" stroke="black" points="136.5,-280.5 136.5,-299.5 276.5,-299.5 276.5,-280.5 136.5,-280.5"/>
<text text-anchor="middle" x="206.5" y="-287.5" font-family="Helvetica,sans-Serif" font-size="10.00">ntp/include/pool/wait.hpp</text>
</a>
</g>
</g>
<!-- Node2 -->
<g id="node2" class="node">
<title>Node2</title>
<g id="a_node2"><a xlink:title=" ">
<polygon fill="none" stroke="#bfbfbf" points="0,-224.5 0,-243.5 41,-243.5 41,-224.5 0,-224.5"/>
<text text-anchor="middle" x="20.5" y="-231.5" font-family="Helvetica,sans-Serif" font-size="10.00">tuple</text>
</a>
</g>
</g>
<!-- Node1&#45;&gt;Node2 -->
<g id="edge1" class="edge">
<title>Node1&#45;&gt;Node2</title>
<path fill="none" stroke="midnightblue" d="M176.05,-280.48C146.36,-272.13 99.68,-258.88 50.87,-244.37"/>
<polygon fill="midnightblue" stroke="midnightblue" points="51.66,-240.95 41.08,-241.45 49.66,-247.66 51.66,-240.95"/>
</g>
<!-- Node3 -->
<g id="node3" class="node">
<title>Node3</title>
<g id="a_node3"><a xlink:title=" ">
<polygon fill="none" stroke="#bfbfbf" points="59,-224.5 59,-243.5 104,-243.5 104,-224.5 59,-224.5"/>
<text text-anchor="middle" x="81.5" y="-231.5" font-family="Helvetica,sans-Serif" font-size="10.00">utility</text>
</a>
</g>
</g>
<!-- Node1&#45;&gt;Node3 -->
<g id="edge2" class="edge">
<title>Node1&#45;&gt;Node3</title>
<path fill="none" stroke="midnightblue" d="M186.69,-280.44C166.21,-271.6 134.02,-257.69 110.64,-247.59"/>
<polygon fill="midnightblue" stroke="midnightblue" points="111.78,-244.27 101.21,-243.52 109.01,-250.7 111.78,-244.27"/>
</g>
<!-- Node4 -->
<g id="node4" class="node">
<title>Node4</title>
<g id="a_node4"><a xlink:title=" ">
<polygon fill="none" stroke="#bfbfbf" points="122.5,-224.5 122.5,-243.5 178.5,-243.5 178.5,-224.5 122.5,-224.5"/>
<text text-anchor="middle" x="150.5" y="-231.5" font-family="Helvetica,sans-Serif" font-size="10.00">optional</text>
</a>
</g>
</g>
<!-- Node1&#45;&gt;Node4 -->
<g id="edge3" class="edge">
<title>Node1&#45;&gt;Node4</title>
<path fill="none" stroke="midnightblue" d="M197.5,-280.32C189.31,-272.42 176.99,-260.55 167.03,-250.94"/>
<polygon fill="midnightblue" stroke="midnightblue" points="169.29,-248.26 159.66,-243.83 164.43,-253.29 169.29,-248.26"/>
</g>
<!-- Node5 -->
<g id="node5" class="node">
<title>Node5</title>
<g id="a_node5"><a xlink:href="ntp__config_8hpp_source.html" target="_top" xlink:title=" ">
<polygon fill="none" stroke="black" points="711.5,-56.5 711.5,-75.5 799.5,-75.5 799.5,-56.5 711.5,-56.5"/>
<text text-anchor="middle" x="755.5" y="-63.5" font-family="Helvetica,sans-Serif" font-size="10.00">ntp_config.hpp</text>
</a>
</g>
</g>
<!-- Node1&#45;&gt;Node5 -->
<g id="edge4" class="edge">
<title>Node1&#45;&gt;Node5</title>
<path fill="none" stroke="midnightblue" d="M276.67,-285.73C409.37,-278.06 689.82,-254.24 756.5,-188 781.06,-163.61 780.05,-145.99 773.5,-112 771.71,-102.7 768.02,-92.89 764.44,-84.8"/>
<polygon fill="midnightblue" stroke="midnightblue" points="767.56,-83.21 760.12,-75.66 761.23,-86.2 767.56,-83.21"/>
</g>
<!-- Node6 -->
<g id="node6" class="node">
<title>Node6</title>
<g id="a_node6"><a xlink:href="time_8hpp.html" target="_top" xlink:title="Utils to work with std::chrono.">
<polygon fill="none" stroke="black" points="204.5,-112.5 204.5,-131.5 300.5,-131.5 300.5,-112.5 204.5,-112.5"/>
<text text-anchor="middle" x="252.5" y="-119.5" font-family="Helvetica,sans-Serif" font-size="10.00">details/time.hpp</text>
</a>
</g>
</g>
<!-- Node1&#45;&gt;Node6 -->
<g id="edge5" class="edge">
<title>Node1&#45;&gt;Node6</title>
<path fill="none" stroke="midnightblue" d="M206.74,-280.21C207.52,-259.86 210.92,-208.18 225.5,-168 229.03,-158.27 234.74,-148.32 240,-140.26"/>
<polygon fill="midnightblue" stroke="midnightblue" points="243.04,-142.01 245.82,-131.79 237.27,-138.05 243.04,-142.01"/>
</g>
<!-- Node10 -->
<g id="node10" class="node">
<title>Node10</title>
<g id="a_node10"><a xlink:href="utils_8hpp.html" target="_top" xlink:title="Some useful implementation stuff.">
<polygon fill="none" stroke="black" points="822,-168.5 822,-187.5 917,-187.5 917,-168.5 822,-168.5"/>
<text text-anchor="middle" x="869.5" y="-175.5" font-family="Helvetica,sans-Serif" font-size="10.00">details/utils.hpp</text>
</a>
</g>
</g>
<!-- Node1&#45;&gt;Node10 -->
<g id="edge10" class="edge">
<title>Node1&#45;&gt;Node10</title>
<path fill="none" stroke="midnightblue" d="M276.74,-286.57C425.08,-281.03 760.56,-266.2 807.5,-244 829.45,-233.62 847.63,-211.82 858.51,-196.34"/>
<polygon fill="midnightblue" stroke="midnightblue" points="861.66,-197.93 864.31,-187.67 855.84,-194.03 861.66,-197.93"/>
</g>
<!-- Node18 -->
<g id="node18" class="node">
<title>Node18</title>
<g id="a_node18"><a xlink:href="basic__callback_8hpp.html" target="_top" xlink:title="Interfaces and base classes for callback wrappers.">
<polygon fill="none" stroke="black" points="425,-224.5 425,-243.5 558,-243.5 558,-224.5 425,-224.5"/>
<text text-anchor="middle" x="491.5" y="-231.5" font-family="Helvetica,sans-Serif" font-size="10.00">pool/basic_callback.hpp</text>
</a>
</g>
</g>
<!-- Node1&#45;&gt;Node18 -->
<g id="edge22" class="edge">
<title>Node1&#45;&gt;Node18</title>
<path fill="none" stroke="midnightblue" d="M251.66,-280.44C301.79,-270.94 382.72,-255.61 436.51,-245.42"/>
<polygon fill="midnightblue" stroke="midnightblue" points="437.38,-248.82 446.55,-243.52 436.08,-241.94 437.38,-248.82"/>
</g>
<!-- Node6&#45;&gt;Node5 -->
<g id="edge9" class="edge">
<title>Node6&#45;&gt;Node5</title>
<path fill="none" stroke="midnightblue" d="M300.73,-115.82C394.89,-105.71 602.61,-83.41 701.34,-72.81"/>
<polygon fill="midnightblue" stroke="midnightblue" points="701.83,-76.28 711.4,-71.73 701.08,-69.32 701.83,-76.28"/>
</g>
<!-- Node7 -->
<g id="node7" class="node">
<title>Node7</title>
<g id="a_node7"><a xlink:title=" ">
<polygon fill="none" stroke="#bfbfbf" points="644.5,-0.5 644.5,-19.5 714.5,-19.5 714.5,-0.5 644.5,-0.5"/>
<text text-anchor="middle" x="679.5" y="-7.5" font-family="Helvetica,sans-Serif" font-size="10.00">Windows.h</text>
</a>
</g>
</g>
<!-- Node6&#45;&gt;Node7 -->
<g id="edge6" class="edge">
<title>Node6&#45;&gt;Node7</title>
<path fill="none" stroke="midnightblue" d="M252.37,-112.22C252.69,-97.97 255.58,-70 272.5,-56 299.94,-33.29 533.85,-18.56 634.14,-13.23"/>
<polygon fill="midnightblue" stroke="midnightblue" points="634.47,-16.72 644.27,-12.7 634.1,-9.73 634.47,-16.72"/>
</g>
<!-- Node8 -->
<g id="node8" class="node">
<title>Node8</title>
<g id="a_node8"><a xlink:title=" ">
<polygon fill="none" stroke="#bfbfbf" points="281,-56.5 281,-75.5 320,-75.5 320,-56.5 281,-56.5"/>
<text text-anchor="middle" x="300.5" y="-63.5" font-family="Helvetica,sans-Serif" font-size="10.00">ratio</text>
</a>
</g>
</g>
<!-- Node6&#45;&gt;Node8 -->
<g id="edge7" class="edge">
<title>Node6&#45;&gt;Node8</title>
<path fill="none" stroke="midnightblue" d="M260.43,-112.08C267.35,-104.3 277.57,-92.8 285.95,-83.37"/>
<polygon fill="midnightblue" stroke="midnightblue" points="288.69,-85.55 292.72,-75.75 283.46,-80.9 288.69,-85.55"/>
</g>
<!-- Node9 -->
<g id="node9" class="node">
<title>Node9</title>
<g id="a_node9"><a xlink:title=" ">
<polygon fill="none" stroke="#bfbfbf" points="174.5,-56.5 174.5,-75.5 224.5,-75.5 224.5,-56.5 174.5,-56.5"/>
<text text-anchor="middle" x="199.5" y="-63.5" font-family="Helvetica,sans-Serif" font-size="10.00">chrono</text>
</a>
</g>
</g>
<!-- Node6&#45;&gt;Node9 -->
<g id="edge8" class="edge">
<title>Node6&#45;&gt;Node9</title>
<path fill="none" stroke="midnightblue" d="M243.75,-112.08C236.03,-104.22 224.6,-92.57 215.28,-83.08"/>
<polygon fill="midnightblue" stroke="midnightblue" points="217.59,-80.44 208.09,-75.75 212.6,-85.34 217.59,-80.44"/>
</g>
<!-- Node10&#45;&gt;Node5 -->
<g id="edge11" class="edge">
<title>Node10&#45;&gt;Node5</title>
<path fill="none" stroke="midnightblue" d="M861.73,-168.33C850.22,-155.63 827.82,-131.36 807.5,-112 796.7,-101.71 784.04,-90.74 773.93,-82.2"/>
<polygon fill="midnightblue" stroke="midnightblue" points="776.04,-79.41 766.12,-75.68 771.55,-84.78 776.04,-79.41"/>
</g>
<!-- Node11 -->
<g id="node11" class="node">
<title>Node11</title>
<g id="a_node11"><a xlink:href="ntrtl_8h.html" target="_top" xlink:title="Contains necessary declarations/definitions of internal windows objects and functions.">
<polygon fill="none" stroke="black" points="859.5,-112.5 859.5,-131.5 939.5,-131.5 939.5,-112.5 859.5,-112.5"/>
<text text-anchor="middle" x="899.5" y="-119.5" font-family="Helvetica,sans-Serif" font-size="10.00">native/ntrtl.h</text>
</a>
</g>
</g>
<!-- Node10&#45;&gt;Node11 -->
<g id="edge12" class="edge">
<title>Node10&#45;&gt;Node11</title>
<path fill="none" stroke="midnightblue" d="M874.45,-168.08C878.6,-160.61 884.65,-149.72 889.77,-140.52"/>
<polygon fill="midnightblue" stroke="midnightblue" points="892.84,-142.19 894.64,-131.75 886.72,-138.79 892.84,-142.19"/>
</g>
<!-- Node14 -->
<g id="node14" class="node">
<title>Node14</title>
<g id="a_node14"><a xlink:href="allocator_8hpp.html" target="_top" xlink:title="Allocator implementations.">
<polygon fill="none" stroke="black" points="957.5,-112.5 957.5,-131.5 1073.5,-131.5 1073.5,-112.5 957.5,-112.5"/>
<text text-anchor="middle" x="1015.5" y="-119.5" font-family="Helvetica,sans-Serif" font-size="10.00">details/allocator.hpp</text>
</a>
</g>
</g>
<!-- Node10&#45;&gt;Node14 -->
<g id="edge15" class="edge">
<title>Node10&#45;&gt;Node14</title>
<path fill="none" stroke="midnightblue" d="M892.63,-168.44C916.98,-159.44 955.51,-145.19 982.92,-135.05"/>
<polygon fill="midnightblue" stroke="midnightblue" points="984.31,-138.27 992.47,-131.52 981.88,-131.7 984.31,-138.27"/>
</g>
<!-- Node12 -->
<g id="node12" class="node">
<title>Node12</title>
<g id="a_node12"><a xlink:title=" ">
<polygon fill="none" stroke="#bfbfbf" points="901.5,-56.5 901.5,-75.5 969.5,-75.5 969.5,-56.5 901.5,-56.5"/>
<text text-anchor="middle" x="935.5" y="-63.5" font-family="Helvetica,sans-Serif" font-size="10.00">windows.h</text>
</a>
</g>
</g>
<!-- Node11&#45;&gt;Node12 -->
<g id="edge13" class="edge">
<title>Node11&#45;&gt;Node12</title>
<path fill="none" stroke="midnightblue" d="M905.44,-112.08C910.48,-104.53 917.84,-93.49 924.01,-84.23"/>
<polygon fill="midnightblue" stroke="midnightblue" points="927.03,-86.01 929.67,-75.75 921.21,-82.13 927.03,-86.01"/>
</g>
<!-- Node13 -->
<g id="node13" class="node">
<title>Node13</title>
<g id="a_node13"><a xlink:title=" ">
<polygon fill="none" stroke="#bfbfbf" points="818,-56.5 818,-75.5 883,-75.5 883,-56.5 818,-56.5"/>
<text text-anchor="middle" x="850.5" y="-63.5" font-family="Helvetica,sans-Serif" font-size="10.00">winternl.h</text>
</a>
</g>
</g>
<!-- Node11&#45;&gt;Node13 -->
<g id="edge14" class="edge">
<title>Node11&#45;&gt;Node13</title>
<path fill="none" stroke="midnightblue" d="M891.41,-112.08C884.34,-104.3 873.91,-92.8 865.35,-83.37"/>
<polygon fill="midnightblue" stroke="midnightblue" points="867.75,-80.8 858.44,-75.75 862.57,-85.51 867.75,-80.8"/>
</g>
<!-- Node14&#45;&gt;Node5 -->
<g id="edge17" class="edge">
<title>Node14&#45;&gt;Node5</title>
<path fill="none" stroke="midnightblue" d="M974.3,-112.44C928.85,-103 855.66,-87.8 806.59,-77.61"/>
<polygon fill="midnightblue" stroke="midnightblue" points="807.01,-74.12 796.51,-75.52 805.58,-80.98 807.01,-74.12"/>
</g>
<!-- Node14&#45;&gt;Node7 -->
<g id="edge16" class="edge">
<title>Node14&#45;&gt;Node7</title>
<path fill="none" stroke="midnightblue" d="M1013.18,-112.14C1008.92,-97.79 998.42,-69.66 978.5,-56 938.17,-28.33 798.14,-17.1 724.92,-13.04"/>
<polygon fill="midnightblue" stroke="midnightblue" points="724.79,-9.52 714.62,-12.49 724.42,-16.51 724.79,-9.52"/>
</g>
<!-- Node15 -->
<g id="node15" class="node">
<title>Node15</title>
<g id="a_node15"><a xlink:href="exception_8hpp.html" target="_top" xlink:title="Win32 error wrapper implementations.">
<polygon fill="none" stroke="black" points="1025.5,-56.5 1025.5,-75.5 1147.5,-75.5 1147.5,-56.5 1025.5,-56.5"/>
<text text-anchor="middle" x="1086.5" y="-63.5" font-family="Helvetica,sans-Serif" font-size="10.00">details/exception.hpp</text>
</a>
</g>
</g>
<!-- Node14&#45;&gt;Node15 -->
<g id="edge18" class="edge">
<title>Node14&#45;&gt;Node15</title>
<path fill="none" stroke="midnightblue" d="M1026.91,-112.32C1037.61,-104.18 1053.84,-91.84 1066.66,-82.09"/>
<polygon fill="midnightblue" stroke="midnightblue" points="1069.04,-84.67 1074.89,-75.83 1064.81,-79.1 1069.04,-84.67"/>
</g>
<!-- Node15&#45;&gt;Node7 -->
<g id="edge19" class="edge">
<title>Node15&#45;&gt;Node7</title>
<path fill="none" stroke="midnightblue" d="M1025.13,-56.86C942.69,-45.92 798.09,-26.73 724.81,-17.01"/>
<polygon fill="midnightblue" stroke="midnightblue" points="724.91,-13.49 714.53,-15.65 723.99,-20.43 724.91,-13.49"/>
</g>
<!-- Node16 -->
<g id="node16" class="node">
<title>Node16</title>
<g id="a_node16"><a xlink:title=" ">
<polygon fill="none" stroke="#bfbfbf" points="1090,-0.5 1090,-19.5 1155,-19.5 1155,-0.5 1090,-0.5"/>
<text text-anchor="middle" x="1122.5" y="-7.5" font-family="Helvetica,sans-Serif" font-size="10.00">stdexcept</text>
</a>
</g>
</g>
<!-- Node15&#45;&gt;Node16 -->
<g id="edge20" class="edge">
<title>Node15&#45;&gt;Node16</title>
<path fill="none" stroke="midnightblue" d="M1092.44,-56.08C1097.48,-48.53 1104.84,-37.49 1111.01,-28.23"/>
<polygon fill="midnightblue" stroke="midnightblue" points="1114.03,-30.01 1116.67,-19.75 1108.21,-26.13 1114.03,-30.01"/>
</g>
<!-- Node17 -->
<g id="node17" class="node">
<title>Node17</title>
<g id="a_node17"><a xlink:title=" ">
<polygon fill="none" stroke="#bfbfbf" points="1027.5,-0.5 1027.5,-19.5 1071.5,-19.5 1071.5,-0.5 1027.5,-0.5"/>
<text text-anchor="middle" x="1049.5" y="-7.5" font-family="Helvetica,sans-Serif" font-size="10.00">string</text>
</a>
</g>
</g>
<!-- Node15&#45;&gt;Node17 -->
<g id="edge21" class="edge">
<title>Node15&#45;&gt;Node17</title>
<path fill="none" stroke="midnightblue" d="M1080.39,-56.08C1075.22,-48.53 1067.65,-37.49 1061.31,-28.23"/>
<polygon fill="midnightblue" stroke="midnightblue" points="1064.04,-26.02 1055.5,-19.75 1058.26,-29.98 1064.04,-26.02"/>
</g>
<!-- Node18&#45;&gt;Node5 -->
<g id="edge30" class="edge">
<title>Node18&#45;&gt;Node5</title>
<path fill="none" stroke="midnightblue" d="M558.24,-229.26C622.13,-224.23 712.28,-212.86 736.5,-188 763.12,-160.68 761.76,-112.24 758.57,-85.69"/>
<polygon fill="midnightblue" stroke="midnightblue" points="762.03,-85.19 757.16,-75.78 755.1,-86.17 762.03,-85.19"/>
</g>
<!-- Node18&#45;&gt;Node7 -->
<g id="edge23" class="edge">
<title>Node18&#45;&gt;Node7</title>
<path fill="none" stroke="midnightblue" d="M434.25,-224.5C393.32,-215.68 348.56,-198.73 367.5,-168 426.32,-72.55 562.94,-33.08 634.29,-18.51"/>
<polygon fill="midnightblue" stroke="midnightblue" points="635.19,-21.91 644.32,-16.54 633.84,-15.04 635.19,-21.91"/>
</g>
<!-- Node18&#45;&gt;Node10 -->
<g id="edge31" class="edge">
<title>Node18&#45;&gt;Node10</title>
<path fill="none" stroke="midnightblue" d="M551.4,-224.44C622.83,-214.24 741.38,-197.3 811.82,-187.24"/>
<polygon fill="midnightblue" stroke="midnightblue" points="812.45,-190.69 821.85,-185.81 811.46,-183.76 812.45,-190.69"/>
</g>
<!-- Node19 -->
<g id="node19" class="node">
<title>Node19</title>
<g id="a_node19"><a xlink:title=" ">
<polygon fill="none" stroke="#bfbfbf" points="376.5,-168.5 376.5,-187.5 414.5,-187.5 414.5,-168.5 376.5,-168.5"/>
<text text-anchor="middle" x="395.5" y="-175.5" font-family="Helvetica,sans-Serif" font-size="10.00">map</text>
</a>
</g>
</g>
<!-- Node18&#45;&gt;Node19 -->
<g id="edge24" class="edge">
<title>Node18&#45;&gt;Node19</title>
<path fill="none" stroke="midnightblue" d="M476.08,-224.32C460.96,-215.82 437.68,-202.73 420.03,-192.8"/>
<polygon fill="midnightblue" stroke="midnightblue" points="421.32,-189.51 410.89,-187.65 417.89,-195.61 421.32,-189.51"/>
</g>
<!-- Node20 -->
<g id="node20" class="node">
<title>Node20</title>
<g id="a_node20"><a xlink:title=" ">
<polygon fill="none" stroke="#bfbfbf" points="432.5,-168.5 432.5,-187.5 480.5,-187.5 480.5,-168.5 432.5,-168.5"/>
<text text-anchor="middle" x="456.5" y="-175.5" font-family="Helvetica,sans-Serif" font-size="10.00">mutex</text>
</a>
</g>
</g>
<!-- Node18&#45;&gt;Node20 -->
<g id="edge25" class="edge">
<title>Node18&#45;&gt;Node20</title>
<path fill="none" stroke="midnightblue" d="M485.72,-224.08C480.83,-216.53 473.67,-205.49 467.67,-196.23"/>
<polygon fill="midnightblue" stroke="midnightblue" points="470.55,-194.24 462.17,-187.75 464.67,-198.05 470.55,-194.24"/>
</g>
<!-- Node21 -->
<g id="node21" class="node">
<title>Node21</title>
<g id="a_node21"><a xlink:title=" ">
<polygon fill="none" stroke="#bfbfbf" points="498.5,-168.5 498.5,-187.5 556.5,-187.5 556.5,-168.5 498.5,-168.5"/>
<text text-anchor="middle" x="527.5" y="-175.5" font-family="Helvetica,sans-Serif" font-size="10.00">memory</text>
</a>
</g>
</g>
<!-- Node18&#45;&gt;Node21 -->
<g id="edge26" class="edge">
<title>Node18&#45;&gt;Node21</title>
<path fill="none" stroke="midnightblue" d="M497.44,-224.08C502.48,-216.53 509.84,-205.49 516.01,-196.23"/>
<polygon fill="midnightblue" stroke="midnightblue" points="519.03,-198.01 521.67,-187.75 513.21,-194.13 519.03,-198.01"/>
</g>
<!-- Node22 -->
<g id="node22" class="node">
<title>Node22</title>
<g id="a_node22"><a xlink:title=" ">
<polygon fill="none" stroke="#bfbfbf" points="575,-168.5 575,-187.5 640,-187.5 640,-168.5 575,-168.5"/>
<text text-anchor="middle" x="607.5" y="-175.5" font-family="Helvetica,sans-Serif" font-size="10.00">functional</text>
</a>
</g>
</g>
<!-- Node18&#45;&gt;Node22 -->
<g id="edge27" class="edge">
<title>Node18&#45;&gt;Node22</title>
<path fill="none" stroke="midnightblue" d="M509.88,-224.44C528.72,-215.68 558.23,-201.94 579.88,-191.86"/>
<polygon fill="midnightblue" stroke="midnightblue" points="581.62,-194.91 589.21,-187.52 578.66,-188.56 581.62,-194.91"/>
</g>
<!-- Node23 -->
<g id="node23" class="node">
<title>Node23</title>
<g id="a_node23"><a xlink:title=" ">
<polygon fill="none" stroke="#bfbfbf" points="658,-168.5 658,-187.5 727,-187.5 727,-168.5 658,-168.5"/>
<text text-anchor="middle" x="692.5" y="-175.5" font-family="Helvetica,sans-Serif" font-size="10.00">type_traits</text>
</a>
</g>
</g>
<!-- Node18&#45;&gt;Node23 -->
<g id="edge28" class="edge">
<title>Node18&#45;&gt;Node23</title>
<path fill="none" stroke="midnightblue" d="M523.35,-224.44C557.9,-215.16 613.18,-200.31 651.08,-190.13"/>
<polygon fill="midnightblue" stroke="midnightblue" points="652.05,-193.49 660.8,-187.52 650.23,-186.73 652.05,-193.49"/>
</g>
<!-- Node24 -->
<g id="node24" class="node">
<title>Node24</title>
<g id="a_node24"><a xlink:title=" ">
<polygon fill="none" stroke="#bfbfbf" points="234.5,-168.5 234.5,-187.5 320.5,-187.5 320.5,-168.5 234.5,-168.5"/>
<text text-anchor="middle" x="277.5" y="-175.5" font-family="Helvetica,sans-Serif" font-size="10.00">shared_mutex</text>
</a>
</g>
</g>
<!-- Node18&#45;&gt;Node24 -->
<g id="edge29" class="edge">
<title>Node18&#45;&gt;Node24</title>
<path fill="none" stroke="midnightblue" d="M457.59,-224.44C420.65,-215.12 361.45,-200.18 321.08,-190"/>
<polygon fill="midnightblue" stroke="midnightblue" points="321.8,-186.57 311.25,-187.52 320.09,-193.36 321.8,-186.57"/>
</g>
</g>
</svg>
