<?xml version="1.0" encoding="UTF-8" standalone="no"?>
<!DOCTYPE svg PUBLIC "-//W3C//DTD SVG 1.1//EN"
 "http://www.w3.org/Graphics/SVG/1.1/DTD/svg11.dtd">
<!-- Generated by graphviz version 2.43.0 (0)
 -->
<!-- Title: ntp/include/pool/wait.hpp Pages: 1 -->
<svg width="1160pt" height="364pt"
 viewBox="0.00 0.00 1159.50 364.00" xmlns="http://www.w3.org/2000/svg" xmlns:xlink="http://www.w3.org/1999/xlink">
<g id="graph0" class="graph" transform="scale(1 1) rotate(0) translate(4 360)">
<title>ntp/include/pool/wait.hpp</title>
<!-- Node1 -->
<g id="node1" class="node">
<title>Node1</title>
<g id="a_node1"><a xlink:title="Implementation of threadpool wait callback.">
<polygon fill="#bfbfbf" stroke="black" points="136.5,-336.5 136.5,-355.5 276.5,-355.5 276.5,-336.5 136.5,-336.5"/>
<text text-anchor="middle" x="206.5" y="-343.5" font-family="Helvetica,sans-Serif" font-size="10.00">ntp/include/pool/wait.hpp</text>
</a>
</g>
</g>
<!-- Node2 -->
<g id="node2" class="node">
<title>Node2</title>
<g id="a_node2"><a xlink:title=" ">
<polygon fill="none" stroke="#bfbfbf" points="0,-280.5 0,-299.5 41,-299.5 41,-280.5 0,-280.5"/>
<text text-anchor="middle" x="20.5" y="-287.5" font-family="Helvetica,sans-Serif" font-size="10.00">tuple</text>
</a>
</g>
</g>
<!-- Node1&#45;&gt;Node2 -->
<g id="edge1" class="edge">
<title>Node1&#45;&gt;Node2</title>
<path fill="none" stroke="midnightblue" d="M176.05,-336.48C146.36,-328.13 99.68,-314.88 50.87,-300.37"/>
<polygon fill="midnightblue" stroke="midnightblue" points="51.66,-296.95 41.08,-297.45 49.66,-303.66 51.66,-296.95"/>
</g>
<!-- Node3 -->
<g id="node3" class="node">
<title>Node3</title>
<g id="a_node3"><a xlink:title=" ">
<polygon fill="none" stroke="#bfbfbf" points="59,-280.5 59,-299.5 104,-299.5 104,-280.5 59,-280.5"/>
<text text-anchor="middle" x="81.5" y="-287.5" font-family="Helvetica,sans-Serif" font-size="10.00">utility</text>
</a>
</g>
</g>
<!-- Node1&#45;&gt;Node3 -->
<g id="edge2" class="edge">
<title>Node1&#45;&gt;Node3</title>
<path fill="none" stroke="midnightblue" d="M186.69,-336.44C166.21,-327.6 134.02,-313.69 110.64,-303.59"/>
<polygon fill="midnightblue" stroke="midnightblue" points="111.78,-300.27 101.21,-299.52 109.01,-306.7 111.78,-300.27"/>
</g>
<!-- Node4 -->
<g id="node4" class="node">
<title>Node4</title>
<g id="a_node4"><a xlink:title=" ">
<polygon fill="none" stroke="#bfbfbf" points="122.5,-280.5 122.5,-299.5 178.5,-299.5 178.5,-280.5 122.5,-280.5"/>
<text text-anchor="middle" x="150.5" y="-287.5" font-family="Helvetica,sans-Serif" font-size="10.00">optional</text>
</a>
</g>
</g>
<!-- Node1&#45;&gt;Node4 -->
<g id="edge3" class="edge">
<title>Node1&#45;&gt;Node4</title>
<path fill="none" stroke="midnightblue" d="M197.5,-336.32C189.31,-328.42 176.99,-316.55 167.03,-306.94"/>
<polygon fill="midnightblue" stroke="midnightblue" points="169.29,-304.26 159.66,-299.83 164.43,-309.29 169.29,-304.26"/>
</g>
<!-- Node5 -->
<g id="node5" class="node">
<title>Node5</title>
<g id="a_node5"><a xlink:href="ntp__config_8hpp_source.html" target="_top" xlink:title=" ">
<polygon fill="none" stroke="black" points="200.5,-0.5 200.5,-19.5 288.5,-19.5 288.5,-0.5 200.5,-0.5"/>
<text text-anchor="middle" x="244.5" y="-7.5" font-family="Helvetica,sans-Serif" font-size="10.00">ntp_config.hpp</text>
</a>
</g>
</g>
<!-- Node1&#45;&gt;Node5 -->
<g id="edge4" class="edge">
<title>Node1&#45;&gt;Node5</title>
<path fill="none" stroke="midnightblue" d="M206.5,-336.44C206.5,-317.94 206.5,-272.81 206.5,-235 206.5,-235 206.5,-235 206.5,-121 206.5,-86.81 223.1,-49.76 234.36,-28.57"/>
<polygon fill="midnightblue" stroke="midnightblue" points="237.45,-30.22 239.22,-19.77 231.32,-26.83 237.45,-30.22"/>
</g>
<!-- Node6 -->
<g id="node6" class="node">
<title>Node6</title>
<g id="a_node6"><a xlink:href="time_8hpp.html" target="_top" xlink:title="Utils to work with std::chrono.">
<polygon fill="none" stroke="black" points="252.5,-280.5 252.5,-299.5 348.5,-299.5 348.5,-280.5 252.5,-280.5"/>
<text text-anchor="middle" x="300.5" y="-287.5" font-family="Helvetica,sans-Serif" font-size="10.00">details/time.hpp</text>
</a>
</g>
</g>
<!-- Node1&#45;&gt;Node6 -->
<g id="edge5" class="edge">
<title>Node1&#45;&gt;Node6</title>
<path fill="none" stroke="midnightblue" d="M221.6,-336.32C236.4,-327.82 259.19,-314.73 276.48,-304.8"/>
<polygon fill="midnightblue" stroke="midnightblue" points="278.51,-307.67 285.43,-299.65 275.02,-301.6 278.51,-307.67"/>
</g>
<!-- Node11 -->
<g id="node11" class="node">
<title>Node11</title>
<g id="a_node11"><a xlink:href="utils_8hpp.html" target="_top" xlink:title="Some useful implementation stuff.">
<polygon fill="none" stroke="black" points="361,-224.5 361,-243.5 456,-243.5 456,-224.5 361,-224.5"/>
<text text-anchor="middle" x="408.5" y="-231.5" font-family="Helvetica,sans-Serif" font-size="10.00">details/utils.hpp</text>
</a>
</g>
</g>
<!-- Node1&#45;&gt;Node11 -->
<g id="edge11" class="edge">
<title>Node1&#45;&gt;Node11</title>
<path fill="none" stroke="midnightblue" d="M264.26,-336.43C294.03,-329.97 329.8,-318.85 357.5,-300 375.42,-287.8 389.96,-267.36 398.86,-252.65"/>
<polygon fill="midnightblue" stroke="midnightblue" points="402.14,-253.97 404.09,-243.56 396.07,-250.47 402.14,-253.97"/>
</g>
<!-- Node19 -->
<g id="node19" class="node">
<title>Node19</title>
<g id="a_node19"><a xlink:href="basic__callback_8hpp.html" target="_top" xlink:title="Interfaces and base classes for callback wrappers.">
<polygon fill="none" stroke="black" points="710,-280.5 710,-299.5 843,-299.5 843,-280.5 710,-280.5"/>
<text text-anchor="middle" x="776.5" y="-287.5" font-family="Helvetica,sans-Serif" font-size="10.00">pool/basic_callback.hpp</text>
</a>
</g>
</g>
<!-- Node1&#45;&gt;Node19 -->
<g id="edge22" class="edge">
<title>Node1&#45;&gt;Node19</title>
<path fill="none" stroke="midnightblue" d="M276.68,-338.35C384.02,-328.18 588.22,-308.84 699.51,-298.29"/>
<polygon fill="midnightblue" stroke="midnightblue" points="700.03,-301.76 709.65,-297.33 699.37,-294.79 700.03,-301.76"/>
</g>
<!-- Node7 -->
<g id="node7" class="node">
<title>Node7</title>
<g id="a_node7"><a xlink:title=" ">
<polygon fill="none" stroke="#bfbfbf" points="235,-224.5 235,-243.5 274,-243.5 274,-224.5 235,-224.5"/>
<text text-anchor="middle" x="254.5" y="-231.5" font-family="Helvetica,sans-Serif" font-size="10.00">ratio</text>
</a>
</g>
</g>
<!-- Node6&#45;&gt;Node7 -->
<g id="edge6" class="edge">
<title>Node6&#45;&gt;Node7</title>
<path fill="none" stroke="midnightblue" d="M292.9,-280.08C286.27,-272.3 276.48,-260.8 268.44,-251.37"/>
<polygon fill="midnightblue" stroke="midnightblue" points="271.1,-249.09 261.95,-243.75 265.77,-253.63 271.1,-249.09"/>
</g>
<!-- Node8 -->
<g id="node8" class="node">
<title>Node8</title>
<g id="a_node8"><a xlink:title=" ">
<polygon fill="none" stroke="#bfbfbf" points="292.5,-224.5 292.5,-243.5 342.5,-243.5 342.5,-224.5 292.5,-224.5"/>
<text text-anchor="middle" x="317.5" y="-231.5" font-family="Helvetica,sans-Serif" font-size="10.00">chrono</text>
</a>
</g>
</g>
<!-- Node6&#45;&gt;Node8 -->
<g id="edge7" class="edge">
<title>Node6&#45;&gt;Node8</title>
<path fill="none" stroke="midnightblue" d="M303.31,-280.08C305.58,-272.85 308.87,-262.41 311.71,-253.4"/>
<polygon fill="midnightblue" stroke="midnightblue" points="315.08,-254.34 314.75,-243.75 308.4,-252.24 315.08,-254.34"/>
</g>
<!-- Node9 -->
<g id="node9" class="node">
<title>Node9</title>
<g id="a_node9"><a xlink:href="windows_8hpp_source.html" target="_top" xlink:title=" ">
<polygon fill="none" stroke="black" points="543.5,-56.5 543.5,-75.5 659.5,-75.5 659.5,-56.5 543.5,-56.5"/>
<text text-anchor="middle" x="601.5" y="-63.5" font-family="Helvetica,sans-Serif" font-size="10.00">details/windows.hpp</text>
</a>
</g>
</g>
<!-- Node6&#45;&gt;Node9 -->
<g id="edge8" class="edge">
<title>Node6&#45;&gt;Node9</title>
<path fill="none" stroke="midnightblue" d="M348.55,-284.56C409.56,-276.31 513.91,-253.02 572.5,-188 598.32,-159.34 602.23,-111.79 602.23,-85.65"/>
<polygon fill="midnightblue" stroke="midnightblue" points="605.73,-85.51 602.04,-75.58 598.73,-85.64 605.73,-85.51"/>
</g>
<!-- Node9&#45;&gt;Node5 -->
<g id="edge9" class="edge">
<title>Node9&#45;&gt;Node5</title>
<path fill="none" stroke="midnightblue" d="M544.93,-56.44C477.47,-46.24 365.49,-29.3 298.96,-19.24"/>
<polygon fill="midnightblue" stroke="midnightblue" points="299.1,-15.72 288.69,-17.68 298.06,-22.64 299.1,-15.72"/>
</g>
<!-- Node10 -->
<g id="node10" class="node">
<title>Node10</title>
<g id="a_node10"><a xlink:title=" ">
<polygon fill="none" stroke="#bfbfbf" points="566.5,-0.5 566.5,-19.5 636.5,-19.5 636.5,-0.5 566.5,-0.5"/>
<text text-anchor="middle" x="601.5" y="-7.5" font-family="Helvetica,sans-Serif" font-size="10.00">Windows.h</text>
</a>
</g>
</g>
<!-- Node9&#45;&gt;Node10 -->
<g id="edge10" class="edge">
<title>Node9&#45;&gt;Node10</title>
<path fill="none" stroke="midnightblue" d="M601.5,-56.08C601.5,-49.01 601.5,-38.86 601.5,-29.99"/>
<polygon fill="midnightblue" stroke="midnightblue" points="605,-29.75 601.5,-19.75 598,-29.75 605,-29.75"/>
</g>
<!-- Node11&#45;&gt;Node5 -->
<g id="edge12" class="edge">
<title>Node11&#45;&gt;Node5</title>
<path fill="none" stroke="midnightblue" d="M386.19,-224.39C353.29,-210.42 292.55,-179.5 263.5,-132 243.97,-100.07 242.32,-54.83 243.19,-29.69"/>
<polygon fill="midnightblue" stroke="midnightblue" points="246.68,-29.85 243.71,-19.68 239.69,-29.48 246.68,-29.85"/>
</g>
<!-- Node12 -->
<g id="node12" class="node">
<title>Node12</title>
<g id="a_node12"><a xlink:href="ntrtl_8h.html" target="_top" xlink:title="Contains necessary declarations/definitions of internal windows objects and functions.">
<polygon fill="none" stroke="black" points="349.5,-168.5 349.5,-187.5 429.5,-187.5 429.5,-168.5 349.5,-168.5"/>
<text text-anchor="middle" x="389.5" y="-175.5" font-family="Helvetica,sans-Serif" font-size="10.00">native/ntrtl.h</text>
</a>
</g>
</g>
<!-- Node11&#45;&gt;Node12 -->
<g id="edge13" class="edge">
<title>Node11&#45;&gt;Node12</title>
<path fill="none" stroke="midnightblue" d="M405.36,-224.08C402.82,-216.85 399.14,-206.41 395.97,-197.4"/>
<polygon fill="midnightblue" stroke="midnightblue" points="399.2,-196.02 392.58,-187.75 392.6,-198.35 399.2,-196.02"/>
</g>
<!-- Node15 -->
<g id="node15" class="node">
<title>Node15</title>
<g id="a_node15"><a xlink:href="allocator_8hpp.html" target="_top" xlink:title="Allocator implementations.">
<polygon fill="none" stroke="black" points="447.5,-168.5 447.5,-187.5 563.5,-187.5 563.5,-168.5 447.5,-168.5"/>
<text text-anchor="middle" x="505.5" y="-175.5" font-family="Helvetica,sans-Serif" font-size="10.00">details/allocator.hpp</text>
</a>
</g>
</g>
<!-- Node11&#45;&gt;Node15 -->
<g id="edge16" class="edge">
<title>Node11&#45;&gt;Node15</title>
<path fill="none" stroke="midnightblue" d="M424.08,-224.32C439.5,-215.74 463.31,-202.49 481.21,-192.52"/>
<polygon fill="midnightblue" stroke="midnightblue" points="482.92,-195.58 489.95,-187.65 479.51,-189.46 482.92,-195.58"/>
</g>
<!-- Node13 -->
<g id="node13" class="node">
<title>Node13</title>
<g id="a_node13"><a xlink:title=" ">
<polygon fill="none" stroke="#bfbfbf" points="272.5,-112.5 272.5,-131.5 340.5,-131.5 340.5,-112.5 272.5,-112.5"/>
<text text-anchor="middle" x="306.5" y="-119.5" font-family="Helvetica,sans-Serif" font-size="10.00">windows.h</text>
</a>
</g>
</g>
<!-- Node12&#45;&gt;Node13 -->
<g id="edge14" class="edge">
<title>Node12&#45;&gt;Node13</title>
<path fill="none" stroke="midnightblue" d="M376.16,-168.32C363.34,-159.98 343.72,-147.21 328.56,-137.35"/>
<polygon fill="midnightblue" stroke="midnightblue" points="330.09,-134.17 319.8,-131.65 326.28,-140.04 330.09,-134.17"/>
</g>
<!-- Node14 -->
<g id="node14" class="node">
<title>Node14</title>
<g id="a_node14"><a xlink:title=" ">
<polygon fill="none" stroke="#bfbfbf" points="359,-112.5 359,-131.5 424,-131.5 424,-112.5 359,-112.5"/>
<text text-anchor="middle" x="391.5" y="-119.5" font-family="Helvetica,sans-Serif" font-size="10.00">winternl.h</text>
</a>
</g>
</g>
<!-- Node12&#45;&gt;Node14 -->
<g id="edge15" class="edge">
<title>Node12&#45;&gt;Node14</title>
<path fill="none" stroke="midnightblue" d="M389.83,-168.08C390.09,-161.01 390.47,-150.86 390.8,-141.99"/>
<polygon fill="midnightblue" stroke="midnightblue" points="394.3,-141.87 391.18,-131.75 387.31,-141.61 394.3,-141.87"/>
</g>
<!-- Node15&#45;&gt;Node9 -->
<g id="edge21" class="edge">
<title>Node15&#45;&gt;Node9</title>
<path fill="none" stroke="midnightblue" d="M524.12,-168.47C539.15,-160.77 559.97,-148.18 573.5,-132 584.82,-118.46 592.25,-99.66 596.59,-85.76"/>
<polygon fill="midnightblue" stroke="midnightblue" points="600.04,-86.43 599.43,-75.85 593.31,-84.5 600.04,-86.43"/>
</g>
<!-- Node16 -->
<g id="node16" class="node">
<title>Node16</title>
<g id="a_node16"><a xlink:href="exception_8hpp.html" target="_top" xlink:title="Win32 error wrapper implementations.">
<polygon fill="none" stroke="black" points="442.5,-112.5 442.5,-131.5 564.5,-131.5 564.5,-112.5 442.5,-112.5"/>
<text text-anchor="middle" x="503.5" y="-119.5" font-family="Helvetica,sans-Serif" font-size="10.00">details/exception.hpp</text>
</a>
</g>
</g>
<!-- Node15&#45;&gt;Node16 -->
<g id="edge17" class="edge">
<title>Node15&#45;&gt;Node16</title>
<path fill="none" stroke="midnightblue" d="M505.17,-168.08C504.91,-161.01 504.53,-150.86 504.2,-141.99"/>
<polygon fill="midnightblue" stroke="midnightblue" points="507.69,-141.61 503.82,-131.75 500.7,-141.87 507.69,-141.61"/>
</g>
<!-- Node16&#45;&gt;Node9 -->
<g id="edge20" class="edge">
<title>Node16&#45;&gt;Node9</title>
<path fill="none" stroke="midnightblue" d="M519.25,-112.32C534.82,-103.74 558.88,-90.49 576.96,-80.52"/>
<polygon fill="midnightblue" stroke="midnightblue" points="578.72,-83.55 585.79,-75.65 575.35,-77.42 578.72,-83.55"/>
</g>
<!-- Node17 -->
<g id="node17" class="node">
<title>Node17</title>
<g id="a_node17"><a xlink:title=" ">
<polygon fill="none" stroke="#bfbfbf" points="398,-56.5 398,-75.5 463,-75.5 463,-56.5 398,-56.5"/>
<text text-anchor="middle" x="430.5" y="-63.5" font-family="Helvetica,sans-Serif" font-size="10.00">stdexcept</text>
</a>
</g>
</g>
<!-- Node16&#45;&gt;Node17 -->
<g id="edge18" class="edge">
<title>Node16&#45;&gt;Node17</title>
<path fill="none" stroke="midnightblue" d="M491.77,-112.32C480.66,-104.11 463.76,-91.6 450.52,-81.81"/>
<polygon fill="midnightblue" stroke="midnightblue" points="452.56,-78.97 442.44,-75.83 448.4,-84.59 452.56,-78.97"/>
</g>
<!-- Node18 -->
<g id="node18" class="node">
<title>Node18</title>
<g id="a_node18"><a xlink:title=" ">
<polygon fill="none" stroke="#bfbfbf" points="481.5,-56.5 481.5,-75.5 525.5,-75.5 525.5,-56.5 481.5,-56.5"/>
<text text-anchor="middle" x="503.5" y="-63.5" font-family="Helvetica,sans-Serif" font-size="10.00">string</text>
</a>
</g>
</g>
<!-- Node16&#45;&gt;Node18 -->
<g id="edge19" class="edge">
<title>Node16&#45;&gt;Node18</title>
<path fill="none" stroke="midnightblue" d="M503.5,-112.08C503.5,-105.01 503.5,-94.86 503.5,-85.99"/>
<polygon fill="midnightblue" stroke="midnightblue" points="507,-85.75 503.5,-75.75 500,-85.75 507,-85.75"/>
</g>
<!-- Node19&#45;&gt;Node9 -->
<g id="edge29" class="edge">
<title>Node19&#45;&gt;Node9</title>
<path fill="none" stroke="midnightblue" d="M746.27,-280.39C726.99,-273.46 702.83,-261.88 687.5,-244 647.34,-197.16 676.16,-164.96 644.5,-112 637.95,-101.04 628.27,-90.6 619.76,-82.55"/>
<polygon fill="midnightblue" stroke="midnightblue" points="621.86,-79.72 612.1,-75.61 617.17,-84.92 621.86,-79.72"/>
</g>
<!-- Node19&#45;&gt;Node11 -->
<g id="edge30" class="edge">
<title>Node19&#45;&gt;Node11</title>
<path fill="none" stroke="midnightblue" d="M718.19,-280.44C649.18,-270.32 534.98,-253.56 466.22,-243.47"/>
<polygon fill="midnightblue" stroke="midnightblue" points="466.41,-239.96 456.01,-241.97 465.39,-246.89 466.41,-239.96"/>
</g>
<!-- Node20 -->
<g id="node20" class="node">
<title>Node20</title>
<g id="a_node20"><a xlink:title=" ">
<polygon fill="none" stroke="#bfbfbf" points="696.5,-224.5 696.5,-243.5 734.5,-243.5 734.5,-224.5 696.5,-224.5"/>
<text text-anchor="middle" x="715.5" y="-231.5" font-family="Helvetica,sans-Serif" font-size="10.00">map</text>
</a>
</g>
</g>
<!-- Node19&#45;&gt;Node20 -->
<g id="edge23" class="edge">
<title>Node19&#45;&gt;Node20</title>
<path fill="none" stroke="midnightblue" d="M766.7,-280.32C757.68,-272.34 744.09,-260.31 733.18,-250.65"/>
<polygon fill="midnightblue" stroke="midnightblue" points="735.29,-247.84 725.48,-243.83 730.65,-253.08 735.29,-247.84"/>
</g>
<!-- Node21 -->
<g id="node21" class="node">
<title>Node21</title>
<g id="a_node21"><a xlink:title=" ">
<polygon fill="none" stroke="#bfbfbf" points="752.5,-224.5 752.5,-243.5 800.5,-243.5 800.5,-224.5 752.5,-224.5"/>
<text text-anchor="middle" x="776.5" y="-231.5" font-family="Helvetica,sans-Serif" font-size="10.00">mutex</text>
</a>
</g>
</g>
<!-- Node19&#45;&gt;Node21 -->
<g id="edge24" class="edge">
<title>Node19&#45;&gt;Node21</title>
<path fill="none" stroke="midnightblue" d="M776.5,-280.08C776.5,-273.01 776.5,-262.86 776.5,-253.99"/>
<polygon fill="midnightblue" stroke="midnightblue" points="780,-253.75 776.5,-243.75 773,-253.75 780,-253.75"/>
</g>
<!-- Node22 -->
<g id="node22" class="node">
<title>Node22</title>
<g id="a_node22"><a xlink:title=" ">
<polygon fill="none" stroke="#bfbfbf" points="818.5,-224.5 818.5,-243.5 876.5,-243.5 876.5,-224.5 818.5,-224.5"/>
<text text-anchor="middle" x="847.5" y="-231.5" font-family="Helvetica,sans-Serif" font-size="10.00">memory</text>
</a>
</g>
</g>
<!-- Node19&#45;&gt;Node22 -->
<g id="edge25" class="edge">
<title>Node19&#45;&gt;Node22</title>
<path fill="none" stroke="midnightblue" d="M787.91,-280.32C798.61,-272.18 814.84,-259.84 827.66,-250.09"/>
<polygon fill="midnightblue" stroke="midnightblue" points="830.04,-252.67 835.89,-243.83 825.81,-247.1 830.04,-252.67"/>
</g>
<!-- Node23 -->
<g id="node23" class="node">
<title>Node23</title>
<g id="a_node23"><a xlink:title=" ">
<polygon fill="none" stroke="#bfbfbf" points="895,-224.5 895,-243.5 960,-243.5 960,-224.5 895,-224.5"/>
<text text-anchor="middle" x="927.5" y="-231.5" font-family="Helvetica,sans-Serif" font-size="10.00">functional</text>
</a>
</g>
</g>
<!-- Node19&#45;&gt;Node23 -->
<g id="edge26" class="edge">
<title>Node19&#45;&gt;Node23</title>
<path fill="none" stroke="midnightblue" d="M800.43,-280.44C825.72,-271.4 865.8,-257.06 894.18,-246.92"/>
<polygon fill="midnightblue" stroke="midnightblue" points="895.45,-250.18 903.69,-243.52 893.09,-243.59 895.45,-250.18"/>
</g>
<!-- Node24 -->
<g id="node24" class="node">
<title>Node24</title>
<g id="a_node24"><a xlink:title=" ">
<polygon fill="none" stroke="#bfbfbf" points="978,-224.5 978,-243.5 1047,-243.5 1047,-224.5 978,-224.5"/>
<text text-anchor="middle" x="1012.5" y="-231.5" font-family="Helvetica,sans-Serif" font-size="10.00">type_traits</text>
</a>
</g>
</g>
<!-- Node19&#45;&gt;Node24 -->
<g id="edge27" class="edge">
<title>Node19&#45;&gt;Node24</title>
<path fill="none" stroke="midnightblue" d="M813.89,-280.44C855.74,-270.87 923.48,-255.37 968.01,-245.18"/>
<polygon fill="midnightblue" stroke="midnightblue" points="969,-248.54 977.97,-242.9 967.44,-241.72 969,-248.54"/>
</g>
<!-- Node25 -->
<g id="node25" class="node">
<title>Node25</title>
<g id="a_node25"><a xlink:title=" ">
<polygon fill="none" stroke="#bfbfbf" points="1065.5,-224.5 1065.5,-243.5 1151.5,-243.5 1151.5,-224.5 1065.5,-224.5"/>
<text text-anchor="middle" x="1108.5" y="-231.5" font-family="Helvetica,sans-Serif" font-size="10.00">shared_mutex</text>
</a>
</g>
</g>
<!-- Node19&#45;&gt;Node25 -->
<g id="edge28" class="edge">
<title>Node19&#45;&gt;Node25</title>
<path fill="none" stroke="midnightblue" d="M830.73,-280.48C885.01,-271.91 971.2,-258.18 1055.39,-244.17"/>
<polygon fill="midnightblue" stroke="midnightblue" points="1056.09,-247.6 1065.38,-242.5 1054.94,-240.7 1056.09,-247.6"/>
</g>
</g>
</svg>
