<?xml version="1.0" encoding="UTF-8" standalone="no"?>
<!DOCTYPE svg PUBLIC "-//W3C//DTD SVG 1.1//EN"
 "http://www.w3.org/Graphics/SVG/1.1/DTD/svg11.dtd">
<!-- Generated by graphviz version 2.43.0 (0)
 -->
<!-- Title: ntp/include/pool/wait.hpp Pages: 1 -->
<svg width="955pt" height="308pt"
 viewBox="0.00 0.00 954.50 308.00" xmlns="http://www.w3.org/2000/svg" xmlns:xlink="http://www.w3.org/1999/xlink">
<g id="graph0" class="graph" transform="scale(1 1) rotate(0) translate(4 304)">
<title>ntp/include/pool/wait.hpp</title>
<polygon fill="white" stroke="transparent" points="-4,4 -4,-304 950.5,-304 950.5,4 -4,4"/>
<!-- Node1 -->
<g id="node1" class="node">
<title>Node1</title>
<g id="a_node1"><a xlink:title="Implementation of threadpool wait callback.">
<polygon fill="#bfbfbf" stroke="black" points="136.5,-280.5 136.5,-299.5 276.5,-299.5 276.5,-280.5 136.5,-280.5"/>
<text text-anchor="middle" x="206.5" y="-287.5" font-family="Helvetica,sans-Serif" font-size="10.00">ntp/include/pool/wait.hpp</text>
</a>
</g>
</g>
<!-- Node2 -->
<g id="node2" class="node">
<title>Node2</title>
<g id="a_node2"><a xlink:title=" ">
<polygon fill="white" stroke="#bfbfbf" points="0,-224.5 0,-243.5 41,-243.5 41,-224.5 0,-224.5"/>
<text text-anchor="middle" x="20.5" y="-231.5" font-family="Helvetica,sans-Serif" font-size="10.00">tuple</text>
</a>
</g>
</g>
<!-- Node1&#45;&gt;Node2 -->
<g id="edge1" class="edge">
<title>Node1&#45;&gt;Node2</title>
<path fill="none" stroke="midnightblue" d="M176.05,-280.48C146.36,-272.13 99.68,-258.88 50.87,-244.37"/>
<polygon fill="midnightblue" stroke="midnightblue" points="51.66,-240.95 41.08,-241.45 49.66,-247.66 51.66,-240.95"/>
</g>
<!-- Node3 -->
<g id="node3" class="node">
<title>Node3</title>
<g id="a_node3"><a xlink:title=" ">
<polygon fill="white" stroke="#bfbfbf" points="59,-224.5 59,-243.5 104,-243.5 104,-224.5 59,-224.5"/>
<text text-anchor="middle" x="81.5" y="-231.5" font-family="Helvetica,sans-Serif" font-size="10.00">utility</text>
</a>
</g>
</g>
<!-- Node1&#45;&gt;Node3 -->
<g id="edge2" class="edge">
<title>Node1&#45;&gt;Node3</title>
<path fill="none" stroke="midnightblue" d="M186.69,-280.44C166.21,-271.6 134.02,-257.69 110.64,-247.59"/>
<polygon fill="midnightblue" stroke="midnightblue" points="111.78,-244.27 101.21,-243.52 109.01,-250.7 111.78,-244.27"/>
</g>
<!-- Node4 -->
<g id="node4" class="node">
<title>Node4</title>
<g id="a_node4"><a xlink:title=" ">
<polygon fill="white" stroke="#bfbfbf" points="122.5,-224.5 122.5,-243.5 178.5,-243.5 178.5,-224.5 122.5,-224.5"/>
<text text-anchor="middle" x="150.5" y="-231.5" font-family="Helvetica,sans-Serif" font-size="10.00">optional</text>
</a>
</g>
</g>
<!-- Node1&#45;&gt;Node4 -->
<g id="edge3" class="edge">
<title>Node1&#45;&gt;Node4</title>
<path fill="none" stroke="midnightblue" d="M197.5,-280.32C189.31,-272.42 176.99,-260.55 167.03,-250.94"/>
<polygon fill="midnightblue" stroke="midnightblue" points="169.29,-248.26 159.66,-243.83 164.43,-253.29 169.29,-248.26"/>
</g>
<!-- Node5 -->
<g id="node5" class="node">
<title>Node5</title>
<g id="a_node5"><a xlink:href="ntp__config_8hpp_source.html" target="_top" xlink:title=" ">
<polygon fill="white" stroke="black" points="244.5,-56.5 244.5,-75.5 332.5,-75.5 332.5,-56.5 244.5,-56.5"/>
<text text-anchor="middle" x="288.5" y="-63.5" font-family="Helvetica,sans-Serif" font-size="10.00">ntp_config.hpp</text>
</a>
</g>
</g>
<!-- Node1&#45;&gt;Node5 -->
<g id="edge4" class="edge">
<title>Node1&#45;&gt;Node5</title>
<path fill="none" stroke="midnightblue" d="M209.71,-280.3C221.83,-247.49 264.9,-130.88 281.71,-85.38"/>
<polygon fill="midnightblue" stroke="midnightblue" points="285.04,-86.48 285.22,-75.88 278.47,-84.05 285.04,-86.48"/>
</g>
<!-- Node6 -->
<g id="node6" class="node">
<title>Node6</title>
<g id="a_node6"><a xlink:href="time_8hpp.html" target="_top" xlink:title="Utils to work with std::chrono.">
<polygon fill="white" stroke="black" points="120.5,-112.5 120.5,-131.5 216.5,-131.5 216.5,-112.5 120.5,-112.5"/>
<text text-anchor="middle" x="168.5" y="-119.5" font-family="Helvetica,sans-Serif" font-size="10.00">details/time.hpp</text>
</a>
</g>
</g>
<!-- Node1&#45;&gt;Node6 -->
<g id="edge5" class="edge">
<title>Node1&#45;&gt;Node6</title>
<path fill="none" stroke="midnightblue" d="M204.46,-280.08C198.48,-253.95 180.91,-177.21 172.75,-141.58"/>
<polygon fill="midnightblue" stroke="midnightblue" points="176.1,-140.53 170.46,-131.57 169.28,-142.1 176.1,-140.53"/>
</g>
<!-- Node10 -->
<g id="node10" class="node">
<title>Node10</title>
<g id="a_node10"><a xlink:href="utils_8hpp.html" target="_top" xlink:title="Some useful implementation stuff.">
<polygon fill="white" stroke="black" points="822,-168.5 822,-187.5 917,-187.5 917,-168.5 822,-168.5"/>
<text text-anchor="middle" x="869.5" y="-175.5" font-family="Helvetica,sans-Serif" font-size="10.00">details/utils.hpp</text>
</a>
</g>
</g>
<!-- Node1&#45;&gt;Node10 -->
<g id="edge10" class="edge">
<title>Node1&#45;&gt;Node10</title>
<path fill="none" stroke="midnightblue" d="M276.52,-280.78C344.04,-272.56 449,-259.01 539.5,-244 639.7,-227.38 756.09,-203.33 820.41,-189.63"/>
<polygon fill="midnightblue" stroke="midnightblue" points="821.22,-193.03 830.27,-187.52 819.76,-186.19 821.22,-193.03"/>
</g>
<!-- Node19 -->
<g id="node19" class="node">
<title>Node19</title>
<g id="a_node19"><a xlink:href="basic__callback_8hpp.html" target="_top" xlink:title="Interfaces and base classes for callback wrappers.">
<polygon fill="white" stroke="black" points="397,-224.5 397,-243.5 530,-243.5 530,-224.5 397,-224.5"/>
<text text-anchor="middle" x="463.5" y="-231.5" font-family="Helvetica,sans-Serif" font-size="10.00">pool/basic_callback.hpp</text>
</a>
</g>
</g>
<!-- Node1&#45;&gt;Node19 -->
<g id="edge23" class="edge">
<title>Node1&#45;&gt;Node19</title>
<path fill="none" stroke="midnightblue" d="M247.22,-280.44C292.15,-271 364.5,-255.8 413,-245.61"/>
<polygon fill="midnightblue" stroke="midnightblue" points="413.9,-249 422.97,-243.52 412.46,-242.15 413.9,-249"/>
</g>
<!-- Node6&#45;&gt;Node5 -->
<g id="edge9" class="edge">
<title>Node6&#45;&gt;Node5</title>
<path fill="none" stroke="midnightblue" d="M187.51,-112.44C207.09,-103.64 237.81,-89.81 260.23,-79.72"/>
<polygon fill="midnightblue" stroke="midnightblue" points="261.89,-82.81 269.57,-75.52 259.02,-76.43 261.89,-82.81"/>
</g>
<!-- Node7 -->
<g id="node7" class="node">
<title>Node7</title>
<g id="a_node7"><a xlink:title=" ">
<polygon fill="white" stroke="#bfbfbf" points="363.5,-0.5 363.5,-19.5 433.5,-19.5 433.5,-0.5 363.5,-0.5"/>
<text text-anchor="middle" x="398.5" y="-7.5" font-family="Helvetica,sans-Serif" font-size="10.00">Windows.h</text>
</a>
</g>
</g>
<!-- Node6&#45;&gt;Node7 -->
<g id="edge6" class="edge">
<title>Node6&#45;&gt;Node7</title>
<path fill="none" stroke="midnightblue" d="M174.92,-112.44C185.82,-98.5 209.34,-70.97 235.5,-56 272.21,-34.99 319.24,-23.37 353.34,-17.23"/>
<polygon fill="midnightblue" stroke="midnightblue" points="354.21,-20.64 363.48,-15.5 353.03,-13.74 354.21,-20.64"/>
</g>
<!-- Node8 -->
<g id="node8" class="node">
<title>Node8</title>
<g id="a_node8"><a xlink:title=" ">
<polygon fill="white" stroke="#bfbfbf" points="149,-56.5 149,-75.5 188,-75.5 188,-56.5 149,-56.5"/>
<text text-anchor="middle" x="168.5" y="-63.5" font-family="Helvetica,sans-Serif" font-size="10.00">ratio</text>
</a>
</g>
</g>
<!-- Node6&#45;&gt;Node8 -->
<g id="edge7" class="edge">
<title>Node6&#45;&gt;Node8</title>
<path fill="none" stroke="midnightblue" d="M168.5,-112.08C168.5,-105.01 168.5,-94.86 168.5,-85.99"/>
<polygon fill="midnightblue" stroke="midnightblue" points="172,-85.75 168.5,-75.75 165,-85.75 172,-85.75"/>
</g>
<!-- Node9 -->
<g id="node9" class="node">
<title>Node9</title>
<g id="a_node9"><a xlink:title=" ">
<polygon fill="white" stroke="#bfbfbf" points="80.5,-56.5 80.5,-75.5 130.5,-75.5 130.5,-56.5 80.5,-56.5"/>
<text text-anchor="middle" x="105.5" y="-63.5" font-family="Helvetica,sans-Serif" font-size="10.00">chrono</text>
</a>
</g>
</g>
<!-- Node6&#45;&gt;Node9 -->
<g id="edge8" class="edge">
<title>Node6&#45;&gt;Node9</title>
<path fill="none" stroke="midnightblue" d="M158.38,-112.32C148.97,-104.26 134.76,-92.08 123.43,-82.37"/>
<polygon fill="midnightblue" stroke="midnightblue" points="125.68,-79.68 115.81,-75.83 121.12,-85 125.68,-79.68"/>
</g>
<!-- Node10&#45;&gt;Node5 -->
<g id="edge12" class="edge">
<title>Node10&#45;&gt;Node5</title>
<path fill="none" stroke="midnightblue" d="M821.95,-169.27C818.75,-168.82 815.58,-168.39 812.5,-168 644.63,-146.8 597.1,-175.18 433.5,-132 388.64,-120.16 340.15,-95.83 312.15,-80.52"/>
<polygon fill="midnightblue" stroke="midnightblue" points="313.58,-77.31 303.14,-75.52 310.19,-83.43 313.58,-77.31"/>
</g>
<!-- Node11 -->
<g id="node11" class="node">
<title>Node11</title>
<g id="a_node11"><a xlink:title=" ">
<polygon fill="white" stroke="#bfbfbf" points="442.5,-112.5 442.5,-131.5 492.5,-131.5 492.5,-112.5 442.5,-112.5"/>
<text text-anchor="middle" x="467.5" y="-119.5" font-family="Helvetica,sans-Serif" font-size="10.00">atomic</text>
</a>
</g>
</g>
<!-- Node10&#45;&gt;Node11 -->
<g id="edge11" class="edge">
<title>Node10&#45;&gt;Node11</title>
<path fill="none" stroke="midnightblue" d="M821.94,-169.34C818.74,-168.87 815.58,-168.42 812.5,-168 677.87,-149.59 639.98,-157.48 502.72,-131.98"/>
<polygon fill="midnightblue" stroke="midnightblue" points="503.13,-128.5 492.66,-130.09 501.84,-135.38 503.13,-128.5"/>
</g>
<!-- Node12 -->
<g id="node12" class="node">
<title>Node12</title>
<g id="a_node12"><a xlink:href="ntrtl_8h.html" target="_top" xlink:title="Contains necessary declarations/definitions of internal windows objects and functions.">
<polygon fill="white" stroke="black" points="829.5,-112.5 829.5,-131.5 909.5,-131.5 909.5,-112.5 829.5,-112.5"/>
<text text-anchor="middle" x="869.5" y="-119.5" font-family="Helvetica,sans-Serif" font-size="10.00">native/ntrtl.h</text>
</a>
</g>
</g>
<!-- Node10&#45;&gt;Node12 -->
<g id="edge13" class="edge">
<title>Node10&#45;&gt;Node12</title>
<path fill="none" stroke="midnightblue" d="M869.5,-168.08C869.5,-161.01 869.5,-150.86 869.5,-141.99"/>
<polygon fill="midnightblue" stroke="midnightblue" points="873,-141.75 869.5,-131.75 866,-141.75 873,-141.75"/>
</g>
<!-- Node15 -->
<g id="node15" class="node">
<title>Node15</title>
<g id="a_node15"><a xlink:href="allocator_8hpp.html" target="_top" xlink:title="Allocator implementations.">
<polygon fill="white" stroke="black" points="510.5,-112.5 510.5,-131.5 626.5,-131.5 626.5,-112.5 510.5,-112.5"/>
<text text-anchor="middle" x="568.5" y="-119.5" font-family="Helvetica,sans-Serif" font-size="10.00">details/allocator.hpp</text>
</a>
</g>
</g>
<!-- Node10&#45;&gt;Node15 -->
<g id="edge16" class="edge">
<title>Node10&#45;&gt;Node15</title>
<path fill="none" stroke="midnightblue" d="M821.81,-168.44C768.64,-158.9 682.68,-143.48 625.87,-133.29"/>
<polygon fill="midnightblue" stroke="midnightblue" points="626.43,-129.84 615.97,-131.52 625.2,-136.73 626.43,-129.84"/>
</g>
<!-- Node13 -->
<g id="node13" class="node">
<title>Node13</title>
<g id="a_node13"><a xlink:title=" ">
<polygon fill="white" stroke="#bfbfbf" points="878.5,-56.5 878.5,-75.5 946.5,-75.5 946.5,-56.5 878.5,-56.5"/>
<text text-anchor="middle" x="912.5" y="-63.5" font-family="Helvetica,sans-Serif" font-size="10.00">windows.h</text>
</a>
</g>
</g>
<!-- Node12&#45;&gt;Node13 -->
<g id="edge14" class="edge">
<title>Node12&#45;&gt;Node13</title>
<path fill="none" stroke="midnightblue" d="M876.6,-112.08C882.74,-104.38 891.77,-93.03 899.24,-83.65"/>
<polygon fill="midnightblue" stroke="midnightblue" points="902.04,-85.75 905.53,-75.75 896.56,-81.39 902.04,-85.75"/>
</g>
<!-- Node14 -->
<g id="node14" class="node">
<title>Node14</title>
<g id="a_node14"><a xlink:title=" ">
<polygon fill="white" stroke="#bfbfbf" points="795,-56.5 795,-75.5 860,-75.5 860,-56.5 795,-56.5"/>
<text text-anchor="middle" x="827.5" y="-63.5" font-family="Helvetica,sans-Serif" font-size="10.00">winternl.h</text>
</a>
</g>
</g>
<!-- Node12&#45;&gt;Node14 -->
<g id="edge15" class="edge">
<title>Node12&#45;&gt;Node14</title>
<path fill="none" stroke="midnightblue" d="M862.56,-112.08C856.57,-104.38 847.75,-93.03 840.45,-83.65"/>
<polygon fill="midnightblue" stroke="midnightblue" points="843.21,-81.5 834.31,-75.75 837.68,-85.79 843.21,-81.5"/>
</g>
<!-- Node15&#45;&gt;Node5 -->
<g id="edge18" class="edge">
<title>Node15&#45;&gt;Node5</title>
<path fill="none" stroke="midnightblue" d="M524.13,-112.44C474.88,-102.94 395.37,-87.61 342.53,-77.42"/>
<polygon fill="midnightblue" stroke="midnightblue" points="343.14,-73.97 332.66,-75.52 341.82,-80.85 343.14,-73.97"/>
</g>
<!-- Node15&#45;&gt;Node7 -->
<g id="edge17" class="edge">
<title>Node15&#45;&gt;Node7</title>
<path fill="none" stroke="midnightblue" d="M542.21,-112.48C520.57,-104.79 489.64,-92.2 465.5,-76 444.8,-62.11 424.79,-41.45 412.11,-27.16"/>
<polygon fill="midnightblue" stroke="midnightblue" points="414.74,-24.85 405.54,-19.59 409.45,-29.44 414.74,-24.85"/>
</g>
<!-- Node16 -->
<g id="node16" class="node">
<title>Node16</title>
<g id="a_node16"><a xlink:href="exception_8hpp.html" target="_top" xlink:title="Win32 error wrapper implementations.">
<polygon fill="white" stroke="black" points="474.5,-56.5 474.5,-75.5 596.5,-75.5 596.5,-56.5 474.5,-56.5"/>
<text text-anchor="middle" x="535.5" y="-63.5" font-family="Helvetica,sans-Serif" font-size="10.00">details/exception.hpp</text>
</a>
</g>
</g>
<!-- Node15&#45;&gt;Node16 -->
<g id="edge19" class="edge">
<title>Node15&#45;&gt;Node16</title>
<path fill="none" stroke="midnightblue" d="M563.05,-112.08C558.49,-104.61 551.83,-93.72 546.21,-84.52"/>
<polygon fill="midnightblue" stroke="midnightblue" points="549.05,-82.46 540.85,-75.75 543.08,-86.11 549.05,-82.46"/>
</g>
<!-- Node16&#45;&gt;Node7 -->
<g id="edge20" class="edge">
<title>Node16&#45;&gt;Node7</title>
<path fill="none" stroke="midnightblue" d="M513.79,-56.44C491.15,-47.52 455.43,-33.44 429.75,-23.32"/>
<polygon fill="midnightblue" stroke="midnightblue" points="430.69,-19.93 420.11,-19.52 428.13,-26.44 430.69,-19.93"/>
</g>
<!-- Node17 -->
<g id="node17" class="node">
<title>Node17</title>
<g id="a_node17"><a xlink:title=" ">
<polygon fill="white" stroke="#bfbfbf" points="525,-0.5 525,-19.5 590,-19.5 590,-0.5 525,-0.5"/>
<text text-anchor="middle" x="557.5" y="-7.5" font-family="Helvetica,sans-Serif" font-size="10.00">stdexcept</text>
</a>
</g>
</g>
<!-- Node16&#45;&gt;Node17 -->
<g id="edge21" class="edge">
<title>Node16&#45;&gt;Node17</title>
<path fill="none" stroke="midnightblue" d="M539.13,-56.08C542.11,-48.77 546.43,-38.18 550.12,-29.1"/>
<polygon fill="midnightblue" stroke="midnightblue" points="553.4,-30.33 553.93,-19.75 546.92,-27.69 553.4,-30.33"/>
</g>
<!-- Node18 -->
<g id="node18" class="node">
<title>Node18</title>
<g id="a_node18"><a xlink:title=" ">
<polygon fill="white" stroke="#bfbfbf" points="462.5,-0.5 462.5,-19.5 506.5,-19.5 506.5,-0.5 462.5,-0.5"/>
<text text-anchor="middle" x="484.5" y="-7.5" font-family="Helvetica,sans-Serif" font-size="10.00">string</text>
</a>
</g>
</g>
<!-- Node16&#45;&gt;Node18 -->
<g id="edge22" class="edge">
<title>Node16&#45;&gt;Node18</title>
<path fill="none" stroke="midnightblue" d="M527.08,-56.08C519.65,-48.22 508.65,-36.57 499.69,-27.08"/>
<polygon fill="midnightblue" stroke="midnightblue" points="502.18,-24.62 492.76,-19.75 497.09,-29.42 502.18,-24.62"/>
</g>
<!-- Node19&#45;&gt;Node5 -->
<g id="edge31" class="edge">
<title>Node19&#45;&gt;Node5</title>
<path fill="none" stroke="midnightblue" d="M408.37,-224.45C367.08,-216.86 315.42,-204.42 301.5,-188 277.1,-159.23 280.41,-111.72 284.65,-85.61"/>
<polygon fill="midnightblue" stroke="midnightblue" points="288.13,-86.03 286.51,-75.56 281.25,-84.76 288.13,-86.03"/>
</g>
<!-- Node19&#45;&gt;Node7 -->
<g id="edge24" class="edge">
<title>Node19&#45;&gt;Node7</title>
<path fill="none" stroke="midnightblue" d="M440.05,-224.41C424.34,-217.28 404.88,-205.46 395.5,-188 367.79,-136.44 382.97,-63.62 392.56,-29.72"/>
<polygon fill="midnightblue" stroke="midnightblue" points="396.02,-30.39 395.53,-19.8 389.31,-28.38 396.02,-30.39"/>
</g>
<!-- Node19&#45;&gt;Node10 -->
<g id="edge32" class="edge">
<title>Node19&#45;&gt;Node10</title>
<path fill="none" stroke="midnightblue" d="M530.16,-224.98C598.25,-216.65 707.3,-202.96 811.83,-188.06"/>
<polygon fill="midnightblue" stroke="midnightblue" points="812.53,-191.5 821.93,-186.61 811.53,-184.57 812.53,-191.5"/>
</g>
<!-- Node20 -->
<g id="node20" class="node">
<title>Node20</title>
<g id="a_node20"><a xlink:title=" ">
<polygon fill="white" stroke="#bfbfbf" points="310.5,-168.5 310.5,-187.5 348.5,-187.5 348.5,-168.5 310.5,-168.5"/>
<text text-anchor="middle" x="329.5" y="-175.5" font-family="Helvetica,sans-Serif" font-size="10.00">map</text>
</a>
</g>
</g>
<!-- Node19&#45;&gt;Node20 -->
<g id="edge25" class="edge">
<title>Node19&#45;&gt;Node20</title>
<path fill="none" stroke="midnightblue" d="M442.27,-224.44C419.6,-215.31 383.53,-200.77 358.31,-190.61"/>
<polygon fill="midnightblue" stroke="midnightblue" points="359.48,-187.31 348.89,-186.82 356.86,-193.8 359.48,-187.31"/>
</g>
<!-- Node21 -->
<g id="node21" class="node">
<title>Node21</title>
<g id="a_node21"><a xlink:title=" ">
<polygon fill="white" stroke="#bfbfbf" points="404.5,-168.5 404.5,-187.5 452.5,-187.5 452.5,-168.5 404.5,-168.5"/>
<text text-anchor="middle" x="428.5" y="-175.5" font-family="Helvetica,sans-Serif" font-size="10.00">mutex</text>
</a>
</g>
</g>
<!-- Node19&#45;&gt;Node21 -->
<g id="edge26" class="edge">
<title>Node19&#45;&gt;Node21</title>
<path fill="none" stroke="midnightblue" d="M457.72,-224.08C452.83,-216.53 445.67,-205.49 439.67,-196.23"/>
<polygon fill="midnightblue" stroke="midnightblue" points="442.55,-194.24 434.17,-187.75 436.67,-198.05 442.55,-194.24"/>
</g>
<!-- Node22 -->
<g id="node22" class="node">
<title>Node22</title>
<g id="a_node22"><a xlink:title=" ">
<polygon fill="white" stroke="#bfbfbf" points="470.5,-168.5 470.5,-187.5 528.5,-187.5 528.5,-168.5 470.5,-168.5"/>
<text text-anchor="middle" x="499.5" y="-175.5" font-family="Helvetica,sans-Serif" font-size="10.00">memory</text>
</a>
</g>
</g>
<!-- Node19&#45;&gt;Node22 -->
<g id="edge27" class="edge">
<title>Node19&#45;&gt;Node22</title>
<path fill="none" stroke="midnightblue" d="M469.44,-224.08C474.48,-216.53 481.84,-205.49 488.01,-196.23"/>
<polygon fill="midnightblue" stroke="midnightblue" points="491.03,-198.01 493.67,-187.75 485.21,-194.13 491.03,-198.01"/>
</g>
<!-- Node23 -->
<g id="node23" class="node">
<title>Node23</title>
<g id="a_node23"><a xlink:title=" ">
<polygon fill="white" stroke="#bfbfbf" points="547,-168.5 547,-187.5 612,-187.5 612,-168.5 547,-168.5"/>
<text text-anchor="middle" x="579.5" y="-175.5" font-family="Helvetica,sans-Serif" font-size="10.00">functional</text>
</a>
</g>
</g>
<!-- Node19&#45;&gt;Node23 -->
<g id="edge28" class="edge">
<title>Node19&#45;&gt;Node23</title>
<path fill="none" stroke="midnightblue" d="M481.88,-224.44C500.72,-215.68 530.23,-201.94 551.88,-191.86"/>
<polygon fill="midnightblue" stroke="midnightblue" points="553.62,-194.91 561.21,-187.52 550.66,-188.56 553.62,-194.91"/>
</g>
<!-- Node24 -->
<g id="node24" class="node">
<title>Node24</title>
<g id="a_node24"><a xlink:title=" ">
<polygon fill="white" stroke="#bfbfbf" points="630,-168.5 630,-187.5 699,-187.5 699,-168.5 630,-168.5"/>
<text text-anchor="middle" x="664.5" y="-175.5" font-family="Helvetica,sans-Serif" font-size="10.00">type_traits</text>
</a>
</g>
</g>
<!-- Node19&#45;&gt;Node24 -->
<g id="edge29" class="edge">
<title>Node19&#45;&gt;Node24</title>
<path fill="none" stroke="midnightblue" d="M495.35,-224.44C529.9,-215.16 585.18,-200.31 623.08,-190.13"/>
<polygon fill="midnightblue" stroke="midnightblue" points="624.05,-193.49 632.8,-187.52 622.23,-186.73 624.05,-193.49"/>
</g>
<!-- Node25 -->
<g id="node25" class="node">
<title>Node25</title>
<g id="a_node25"><a xlink:title=" ">
<polygon fill="white" stroke="#bfbfbf" points="717.5,-168.5 717.5,-187.5 803.5,-187.5 803.5,-168.5 717.5,-168.5"/>
<text text-anchor="middle" x="760.5" y="-175.5" font-family="Helvetica,sans-Serif" font-size="10.00">shared_mutex</text>
</a>
</g>
</g>
<!-- Node19&#45;&gt;Node25 -->
<g id="edge30" class="edge">
<title>Node19&#45;&gt;Node25</title>
<path fill="none" stroke="midnightblue" d="M510.56,-224.44C563.99,-214.73 650.99,-198.91 706.97,-188.73"/>
<polygon fill="midnightblue" stroke="midnightblue" points="707.83,-192.13 717.04,-186.9 706.58,-185.25 707.83,-192.13"/>
</g>
</g>
</svg>
