<?xml version="1.0" encoding="UTF-8" standalone="no"?>
<!DOCTYPE svg PUBLIC "-//W3C//DTD SVG 1.1//EN"
 "http://www.w3.org/Graphics/SVG/1.1/DTD/svg11.dtd">
<!-- Generated by graphviz version 2.43.0 (0)
 -->
<!-- Title: ntp/include/pool/work.hpp Pages: 1 -->
<svg width="921pt" height="308pt"
 viewBox="0.00 0.00 920.50 308.00" xmlns="http://www.w3.org/2000/svg" xmlns:xlink="http://www.w3.org/1999/xlink">
<g id="graph0" class="graph" transform="scale(1 1) rotate(0) translate(4 304)">
<title>ntp/include/pool/work.hpp</title>
<!-- Node1 -->
<g id="node1" class="node">
<title>Node1</title>
<g id="a_node1"><a xlink:title="Work callback wrapper and manager implementation.">
<polygon fill="#bfbfbf" stroke="black" points="629.5,-280.5 629.5,-299.5 772.5,-299.5 772.5,-280.5 629.5,-280.5"/>
<text text-anchor="middle" x="701" y="-287.5" font-family="Helvetica,sans-Serif" font-size="10.00">ntp/include/pool/work.hpp</text>
</a>
</g>
</g>
<!-- Node2 -->
<g id="node2" class="node">
<title>Node2</title>
<g id="a_node2"><a xlink:title=" ">
<polygon fill="none" stroke="#bfbfbf" points="210,-0.5 210,-19.5 280,-19.5 280,-0.5 210,-0.5"/>
<text text-anchor="middle" x="245" y="-7.5" font-family="Helvetica,sans-Serif" font-size="10.00">Windows.h</text>
</a>
</g>
</g>
<!-- Node1&#45;&gt;Node2 -->
<g id="edge1" class="edge">
<title>Node1&#45;&gt;Node2</title>
<path fill="none" stroke="midnightblue" d="M629.28,-285.2C450.61,-274.77 0,-242.21 0,-179 0,-179 0,-179 0,-121 0,-34.34 129.14,-15.53 199.9,-11.73"/>
<polygon fill="midnightblue" stroke="midnightblue" points="200.07,-15.23 209.9,-11.27 199.75,-8.24 200.07,-15.23"/>
</g>
<!-- Node3 -->
<g id="node3" class="node">
<title>Node3</title>
<g id="a_node3"><a xlink:title=" ">
<polygon fill="none" stroke="#bfbfbf" points="729.5,-224.5 729.5,-243.5 790.5,-243.5 790.5,-224.5 729.5,-224.5"/>
<text text-anchor="middle" x="760" y="-231.5" font-family="Helvetica,sans-Serif" font-size="10.00">atlsync.h</text>
</a>
</g>
</g>
<!-- Node1&#45;&gt;Node3 -->
<g id="edge2" class="edge">
<title>Node1&#45;&gt;Node3</title>
<path fill="none" stroke="midnightblue" d="M710.48,-280.32C719.2,-272.34 732.34,-260.31 742.9,-250.65"/>
<polygon fill="midnightblue" stroke="midnightblue" points="745.33,-253.17 750.35,-243.83 740.61,-248 745.33,-253.17"/>
</g>
<!-- Node4 -->
<g id="node4" class="node">
<title>Node4</title>
<g id="a_node4"><a xlink:title=" ">
<polygon fill="none" stroke="#bfbfbf" points="808.5,-224.5 808.5,-243.5 849.5,-243.5 849.5,-224.5 808.5,-224.5"/>
<text text-anchor="middle" x="829" y="-231.5" font-family="Helvetica,sans-Serif" font-size="10.00">tuple</text>
</a>
</g>
</g>
<!-- Node1&#45;&gt;Node4 -->
<g id="edge3" class="edge">
<title>Node1&#45;&gt;Node4</title>
<path fill="none" stroke="midnightblue" d="M721.28,-280.44C742.35,-271.56 775.52,-257.56 799.49,-247.45"/>
<polygon fill="midnightblue" stroke="midnightblue" points="800.96,-250.63 808.81,-243.52 798.24,-244.18 800.96,-250.63"/>
</g>
<!-- Node5 -->
<g id="node5" class="node">
<title>Node5</title>
<g id="a_node5"><a xlink:title=" ">
<polygon fill="none" stroke="#bfbfbf" points="867.5,-224.5 867.5,-243.5 912.5,-243.5 912.5,-224.5 867.5,-224.5"/>
<text text-anchor="middle" x="890" y="-231.5" font-family="Helvetica,sans-Serif" font-size="10.00">utility</text>
</a>
</g>
</g>
<!-- Node1&#45;&gt;Node5 -->
<g id="edge4" class="edge">
<title>Node1&#45;&gt;Node5</title>
<path fill="none" stroke="midnightblue" d="M731.3,-280.42C761.13,-271.96 808.24,-258.58 857.45,-244.44"/>
<polygon fill="midnightblue" stroke="midnightblue" points="858.67,-247.73 867.32,-241.6 856.74,-241 858.67,-247.73"/>
</g>
<!-- Node6 -->
<g id="node6" class="node">
<title>Node6</title>
<g id="a_node6"><a xlink:href="ntp__config_8hpp_source.html" target="_top" xlink:title=" ">
<polygon fill="none" stroke="black" points="619,-56.5 619,-75.5 707,-75.5 707,-56.5 619,-56.5"/>
<text text-anchor="middle" x="663" y="-63.5" font-family="Helvetica,sans-Serif" font-size="10.00">ntp_config.hpp</text>
</a>
</g>
</g>
<!-- Node1&#45;&gt;Node6 -->
<g id="edge5" class="edge">
<title>Node1&#45;&gt;Node6</title>
<path fill="none" stroke="midnightblue" d="M700.84,-280.38C700.18,-254.49 696.92,-175.28 681,-112 678.69,-102.82 674.93,-93.02 671.45,-84.91"/>
<polygon fill="midnightblue" stroke="midnightblue" points="674.61,-83.41 667.31,-75.73 668.23,-86.29 674.61,-83.41"/>
</g>
<!-- Node7 -->
<g id="node7" class="node">
<title>Node7</title>
<g id="a_node7"><a xlink:href="utils_8hpp.html" target="_top" xlink:title="Some useful implementation stuff.">
<polygon fill="none" stroke="black" points="539.5,-168.5 539.5,-187.5 634.5,-187.5 634.5,-168.5 539.5,-168.5"/>
<text text-anchor="middle" x="587" y="-175.5" font-family="Helvetica,sans-Serif" font-size="10.00">details/utils.hpp</text>
</a>
</g>
</g>
<!-- Node1&#45;&gt;Node7 -->
<g id="edge6" class="edge">
<title>Node1&#45;&gt;Node7</title>
<path fill="none" stroke="midnightblue" d="M692.05,-280.37C672.91,-261.89 627.72,-218.29 603.32,-194.74"/>
<polygon fill="midnightblue" stroke="midnightblue" points="605.53,-192.02 595.9,-187.59 600.67,-197.05 605.53,-192.02"/>
</g>
<!-- Node15 -->
<g id="node15" class="node">
<title>Node15</title>
<g id="a_node15"><a xlink:href="basic__callback_8hpp.html" target="_top" xlink:title="Interfaces and base classes for callback wrappers.">
<polygon fill="none" stroke="black" points="323.5,-224.5 323.5,-243.5 456.5,-243.5 456.5,-224.5 323.5,-224.5"/>
<text text-anchor="middle" x="390" y="-231.5" font-family="Helvetica,sans-Serif" font-size="10.00">pool/basic_callback.hpp</text>
</a>
</g>
</g>
<!-- Node1&#45;&gt;Node15 -->
<g id="edge18" class="edge">
<title>Node1&#45;&gt;Node15</title>
<path fill="none" stroke="midnightblue" d="M651.72,-280.44C596.67,-270.89 507.6,-255.42 448.92,-245.23"/>
<polygon fill="midnightblue" stroke="midnightblue" points="449.5,-241.78 439.05,-243.52 448.3,-248.68 449.5,-241.78"/>
</g>
<!-- Node7&#45;&gt;Node6 -->
<g id="edge7" class="edge">
<title>Node7&#45;&gt;Node6</title>
<path fill="none" stroke="midnightblue" d="M592.96,-168.37C605.51,-150.22 634.81,-107.8 651.26,-83.99"/>
<polygon fill="midnightblue" stroke="midnightblue" points="654.26,-85.81 657.06,-75.59 648.5,-81.83 654.26,-85.81"/>
</g>
<!-- Node8 -->
<g id="node8" class="node">
<title>Node8</title>
<g id="a_node8"><a xlink:href="ntrtl_8h.html" target="_top" xlink:title="Contains necessary declarations/definitions of internal windows objects and functions.">
<polygon fill="none" stroke="black" points="348,-112.5 348,-131.5 428,-131.5 428,-112.5 348,-112.5"/>
<text text-anchor="middle" x="388" y="-119.5" font-family="Helvetica,sans-Serif" font-size="10.00">native/ntrtl.h</text>
</a>
</g>
</g>
<!-- Node7&#45;&gt;Node8 -->
<g id="edge8" class="edge">
<title>Node7&#45;&gt;Node8</title>
<path fill="none" stroke="midnightblue" d="M555.47,-168.44C521.41,-159.2 466.99,-144.44 429.48,-134.26"/>
<polygon fill="midnightblue" stroke="midnightblue" points="429.95,-130.76 419.38,-131.52 428.12,-137.51 429.95,-130.76"/>
</g>
<!-- Node11 -->
<g id="node11" class="node">
<title>Node11</title>
<g id="a_node11"><a xlink:href="allocator_8hpp.html" target="_top" xlink:title="Allocator implementations.">
<polygon fill="none" stroke="black" points="481,-112.5 481,-131.5 597,-131.5 597,-112.5 481,-112.5"/>
<text text-anchor="middle" x="539" y="-119.5" font-family="Helvetica,sans-Serif" font-size="10.00">details/allocator.hpp</text>
</a>
</g>
</g>
<!-- Node7&#45;&gt;Node11 -->
<g id="edge11" class="edge">
<title>Node7&#45;&gt;Node11</title>
<path fill="none" stroke="midnightblue" d="M579.07,-168.08C572.15,-160.3 561.93,-148.8 553.55,-139.37"/>
<polygon fill="midnightblue" stroke="midnightblue" points="556.04,-136.9 546.78,-131.75 550.81,-141.55 556.04,-136.9"/>
</g>
<!-- Node9 -->
<g id="node9" class="node">
<title>Node9</title>
<g id="a_node9"><a xlink:title=" ">
<polygon fill="none" stroke="#bfbfbf" points="354,-56.5 354,-75.5 422,-75.5 422,-56.5 354,-56.5"/>
<text text-anchor="middle" x="388" y="-63.5" font-family="Helvetica,sans-Serif" font-size="10.00">windows.h</text>
</a>
</g>
</g>
<!-- Node8&#45;&gt;Node9 -->
<g id="edge9" class="edge">
<title>Node8&#45;&gt;Node9</title>
<path fill="none" stroke="midnightblue" d="M388,-112.08C388,-105.01 388,-94.86 388,-85.99"/>
<polygon fill="midnightblue" stroke="midnightblue" points="391.5,-85.75 388,-75.75 384.5,-85.75 391.5,-85.75"/>
</g>
<!-- Node10 -->
<g id="node10" class="node">
<title>Node10</title>
<g id="a_node10"><a xlink:title=" ">
<polygon fill="none" stroke="#bfbfbf" points="270.5,-56.5 270.5,-75.5 335.5,-75.5 335.5,-56.5 270.5,-56.5"/>
<text text-anchor="middle" x="303" y="-63.5" font-family="Helvetica,sans-Serif" font-size="10.00">winternl.h</text>
</a>
</g>
</g>
<!-- Node8&#45;&gt;Node10 -->
<g id="edge10" class="edge">
<title>Node8&#45;&gt;Node10</title>
<path fill="none" stroke="midnightblue" d="M374.34,-112.32C361.08,-103.9 340.73,-90.97 325.15,-81.07"/>
<polygon fill="midnightblue" stroke="midnightblue" points="326.94,-78.06 316.62,-75.65 323.19,-83.97 326.94,-78.06"/>
</g>
<!-- Node11&#45;&gt;Node2 -->
<g id="edge12" class="edge">
<title>Node11&#45;&gt;Node2</title>
<path fill="none" stroke="midnightblue" d="M525.77,-112.34C501.47,-96.55 450.43,-63.98 431,-56 384.73,-37 328.56,-24.79 290.13,-17.95"/>
<polygon fill="midnightblue" stroke="midnightblue" points="290.72,-14.5 280.27,-16.24 289.53,-21.39 290.72,-14.5"/>
</g>
<!-- Node11&#45;&gt;Node6 -->
<g id="edge13" class="edge">
<title>Node11&#45;&gt;Node6</title>
<path fill="none" stroke="midnightblue" d="M558.65,-112.44C578.96,-103.6 610.9,-89.69 634.1,-79.59"/>
<polygon fill="midnightblue" stroke="midnightblue" points="635.67,-82.72 643.44,-75.52 632.88,-76.3 635.67,-82.72"/>
</g>
<!-- Node12 -->
<g id="node12" class="node">
<title>Node12</title>
<g id="a_node12"><a xlink:href="exception_8hpp.html" target="_top" xlink:title="Win32 error wrapper implementations.">
<polygon fill="none" stroke="black" points="478,-56.5 478,-75.5 600,-75.5 600,-56.5 478,-56.5"/>
<text text-anchor="middle" x="539" y="-63.5" font-family="Helvetica,sans-Serif" font-size="10.00">details/exception.hpp</text>
</a>
</g>
</g>
<!-- Node11&#45;&gt;Node12 -->
<g id="edge14" class="edge">
<title>Node11&#45;&gt;Node12</title>
<path fill="none" stroke="midnightblue" d="M539,-112.08C539,-105.01 539,-94.86 539,-85.99"/>
<polygon fill="midnightblue" stroke="midnightblue" points="542.5,-85.75 539,-75.75 535.5,-85.75 542.5,-85.75"/>
</g>
<!-- Node12&#45;&gt;Node2 -->
<g id="edge15" class="edge">
<title>Node12&#45;&gt;Node2</title>
<path fill="none" stroke="midnightblue" d="M492.41,-56.44C437.05,-46.27 345.27,-29.42 290.42,-19.34"/>
<polygon fill="midnightblue" stroke="midnightblue" points="290.76,-15.85 280.29,-17.48 289.5,-22.73 290.76,-15.85"/>
</g>
<!-- Node13 -->
<g id="node13" class="node">
<title>Node13</title>
<g id="a_node13"><a xlink:title=" ">
<polygon fill="none" stroke="#bfbfbf" points="469.5,-0.5 469.5,-19.5 534.5,-19.5 534.5,-0.5 469.5,-0.5"/>
<text text-anchor="middle" x="502" y="-7.5" font-family="Helvetica,sans-Serif" font-size="10.00">stdexcept</text>
</a>
</g>
</g>
<!-- Node12&#45;&gt;Node13 -->
<g id="edge16" class="edge">
<title>Node12&#45;&gt;Node13</title>
<path fill="none" stroke="midnightblue" d="M532.89,-56.08C527.72,-48.53 520.15,-37.49 513.81,-28.23"/>
<polygon fill="midnightblue" stroke="midnightblue" points="516.54,-26.02 508,-19.75 510.76,-29.98 516.54,-26.02"/>
</g>
<!-- Node14 -->
<g id="node14" class="node">
<title>Node14</title>
<g id="a_node14"><a xlink:title=" ">
<polygon fill="none" stroke="#bfbfbf" points="553,-0.5 553,-19.5 597,-19.5 597,-0.5 553,-0.5"/>
<text text-anchor="middle" x="575" y="-7.5" font-family="Helvetica,sans-Serif" font-size="10.00">string</text>
</a>
</g>
</g>
<!-- Node12&#45;&gt;Node14 -->
<g id="edge17" class="edge">
<title>Node12&#45;&gt;Node14</title>
<path fill="none" stroke="midnightblue" d="M544.94,-56.08C549.98,-48.53 557.34,-37.49 563.51,-28.23"/>
<polygon fill="midnightblue" stroke="midnightblue" points="566.53,-30.01 569.17,-19.75 560.71,-26.13 566.53,-30.01"/>
</g>
<!-- Node15&#45;&gt;Node2 -->
<g id="edge19" class="edge">
<title>Node15&#45;&gt;Node2</title>
<path fill="none" stroke="midnightblue" d="M323.4,-233.89C236.33,-233.47 90.88,-226.77 57,-188 -1.76,-120.76 144.76,-50.99 212.67,-23.34"/>
<polygon fill="midnightblue" stroke="midnightblue" points="214.1,-26.54 222.08,-19.57 211.5,-20.04 214.1,-26.54"/>
</g>
<!-- Node15&#45;&gt;Node6 -->
<g id="edge26" class="edge">
<title>Node15&#45;&gt;Node6</title>
<path fill="none" stroke="midnightblue" d="M456.7,-229.77C523.05,-225.11 618.52,-213.98 644,-188 670.71,-160.77 669.32,-112.29 666.09,-85.71"/>
<polygon fill="midnightblue" stroke="midnightblue" points="669.55,-85.19 664.67,-75.79 662.62,-86.18 669.55,-85.19"/>
</g>
<!-- Node15&#45;&gt;Node7 -->
<g id="edge27" class="edge">
<title>Node15&#45;&gt;Node7</title>
<path fill="none" stroke="midnightblue" d="M421.22,-224.44C454.93,-215.2 508.8,-200.44 545.93,-190.26"/>
<polygon fill="midnightblue" stroke="midnightblue" points="547.21,-193.54 555.93,-187.52 545.36,-186.78 547.21,-193.54"/>
</g>
<!-- Node16 -->
<g id="node16" class="node">
<title>Node16</title>
<g id="a_node16"><a xlink:title=" ">
<polygon fill="none" stroke="#bfbfbf" points="341,-168.5 341,-187.5 379,-187.5 379,-168.5 341,-168.5"/>
<text text-anchor="middle" x="360" y="-175.5" font-family="Helvetica,sans-Serif" font-size="10.00">map</text>
</a>
</g>
</g>
<!-- Node15&#45;&gt;Node16 -->
<g id="edge20" class="edge">
<title>Node15&#45;&gt;Node16</title>
<path fill="none" stroke="midnightblue" d="M385.05,-224.08C380.9,-216.61 374.85,-205.72 369.73,-196.52"/>
<polygon fill="midnightblue" stroke="midnightblue" points="372.78,-194.79 364.86,-187.75 366.66,-198.19 372.78,-194.79"/>
</g>
<!-- Node17 -->
<g id="node17" class="node">
<title>Node17</title>
<g id="a_node17"><a xlink:title=" ">
<polygon fill="none" stroke="#bfbfbf" points="397,-168.5 397,-187.5 445,-187.5 445,-168.5 397,-168.5"/>
<text text-anchor="middle" x="421" y="-175.5" font-family="Helvetica,sans-Serif" font-size="10.00">mutex</text>
</a>
</g>
</g>
<!-- Node15&#45;&gt;Node17 -->
<g id="edge21" class="edge">
<title>Node15&#45;&gt;Node17</title>
<path fill="none" stroke="midnightblue" d="M395.12,-224.08C399.41,-216.61 405.66,-205.72 410.94,-196.52"/>
<polygon fill="midnightblue" stroke="midnightblue" points="414.03,-198.17 415.98,-187.75 407.96,-194.68 414.03,-198.17"/>
</g>
<!-- Node18 -->
<g id="node18" class="node">
<title>Node18</title>
<g id="a_node18"><a xlink:title=" ">
<polygon fill="none" stroke="#bfbfbf" points="463,-168.5 463,-187.5 521,-187.5 521,-168.5 463,-168.5"/>
<text text-anchor="middle" x="492" y="-175.5" font-family="Helvetica,sans-Serif" font-size="10.00">memory</text>
</a>
</g>
</g>
<!-- Node15&#45;&gt;Node18 -->
<g id="edge22" class="edge">
<title>Node15&#45;&gt;Node18</title>
<path fill="none" stroke="midnightblue" d="M406.39,-224.32C422.67,-215.7 447.87,-202.36 466.72,-192.39"/>
<polygon fill="midnightblue" stroke="midnightblue" points="468.45,-195.43 475.65,-187.65 465.18,-189.24 468.45,-195.43"/>
</g>
<!-- Node19 -->
<g id="node19" class="node">
<title>Node19</title>
<g id="a_node19"><a xlink:title=" ">
<polygon fill="none" stroke="#bfbfbf" points="66.5,-168.5 66.5,-187.5 131.5,-187.5 131.5,-168.5 66.5,-168.5"/>
<text text-anchor="middle" x="99" y="-175.5" font-family="Helvetica,sans-Serif" font-size="10.00">functional</text>
</a>
</g>
</g>
<!-- Node15&#45;&gt;Node19 -->
<g id="edge23" class="edge">
<title>Node15&#45;&gt;Node19</title>
<path fill="none" stroke="midnightblue" d="M339.14,-224.43C290.72,-216.14 215.56,-202.93 141.6,-188.27"/>
<polygon fill="midnightblue" stroke="midnightblue" points="142.14,-184.81 131.65,-186.28 140.77,-191.67 142.14,-184.81"/>
</g>
<!-- Node20 -->
<g id="node20" class="node">
<title>Node20</title>
<g id="a_node20"><a xlink:title=" ">
<polygon fill="none" stroke="#bfbfbf" points="149.5,-168.5 149.5,-187.5 218.5,-187.5 218.5,-168.5 149.5,-168.5"/>
<text text-anchor="middle" x="184" y="-175.5" font-family="Helvetica,sans-Serif" font-size="10.00">type_traits</text>
</a>
</g>
</g>
<!-- Node15&#45;&gt;Node20 -->
<g id="edge24" class="edge">
<title>Node15&#45;&gt;Node20</title>
<path fill="none" stroke="midnightblue" d="M357.36,-224.44C321.95,-215.16 265.29,-200.31 226.45,-190.13"/>
<polygon fill="midnightblue" stroke="midnightblue" points="227.05,-186.67 216.49,-187.52 225.27,-193.44 227.05,-186.67"/>
</g>
<!-- Node21 -->
<g id="node21" class="node">
<title>Node21</title>
<g id="a_node21"><a xlink:title=" ">
<polygon fill="none" stroke="#bfbfbf" points="237,-168.5 237,-187.5 323,-187.5 323,-168.5 237,-168.5"/>
<text text-anchor="middle" x="280" y="-175.5" font-family="Helvetica,sans-Serif" font-size="10.00">shared_mutex</text>
</a>
</g>
</g>
<!-- Node15&#45;&gt;Node21 -->
<g id="edge25" class="edge">
<title>Node15&#45;&gt;Node21</title>
<path fill="none" stroke="midnightblue" d="M372.33,-224.32C354.61,-215.62 327.1,-202.12 306.71,-192.11"/>
<polygon fill="midnightblue" stroke="midnightblue" points="308.15,-188.92 297.63,-187.65 305.06,-195.2 308.15,-188.92"/>
</g>
</g>
</svg>
