<?xml version="1.0" encoding="UTF-8" standalone="no"?>
<!DOCTYPE svg PUBLIC "-//W3C//DTD SVG 1.1//EN"
 "http://www.w3.org/Graphics/SVG/1.1/DTD/svg11.dtd">
<!-- Generated by graphviz version 2.43.0 (0)
 -->
<!-- Title: ntp/include/pool/work.hpp Pages: 1 -->
<svg width="775pt" height="364pt"
 viewBox="0.00 0.00 775.00 364.00" xmlns="http://www.w3.org/2000/svg" xmlns:xlink="http://www.w3.org/1999/xlink">
<g id="graph0" class="graph" transform="scale(1 1) rotate(0) translate(4 360)">
<title>ntp/include/pool/work.hpp</title>
<!-- Node1 -->
<g id="node1" class="node">
<title>Node1</title>
<g id="a_node1"><a xlink:title="Work callback wrapper and manager implementation.">
<polygon fill="#bfbfbf" stroke="black" points="61,-336.5 61,-355.5 204,-355.5 204,-336.5 61,-336.5"/>
<text text-anchor="middle" x="132.5" y="-343.5" font-family="Helvetica,sans-Serif" font-size="10.00">ntp/include/pool/work.hpp</text>
</a>
</g>
</g>
<!-- Node2 -->
<g id="node2" class="node">
<title>Node2</title>
<g id="a_node2"><a xlink:title=" ">
<polygon fill="none" stroke="#bfbfbf" points="0,-280.5 0,-299.5 41,-299.5 41,-280.5 0,-280.5"/>
<text text-anchor="middle" x="20.5" y="-287.5" font-family="Helvetica,sans-Serif" font-size="10.00">tuple</text>
</a>
</g>
</g>
<!-- Node1&#45;&gt;Node2 -->
<g id="edge1" class="edge">
<title>Node1&#45;&gt;Node2</title>
<path fill="none" stroke="midnightblue" d="M114.51,-336.32C96.46,-327.62 68.45,-314.12 47.7,-304.11"/>
<polygon fill="midnightblue" stroke="midnightblue" points="48.98,-300.84 38.45,-299.65 45.94,-307.15 48.98,-300.84"/>
</g>
<!-- Node3 -->
<g id="node3" class="node">
<title>Node3</title>
<g id="a_node3"><a xlink:title=" ">
<polygon fill="none" stroke="#bfbfbf" points="59,-280.5 59,-299.5 104,-299.5 104,-280.5 59,-280.5"/>
<text text-anchor="middle" x="81.5" y="-287.5" font-family="Helvetica,sans-Serif" font-size="10.00">utility</text>
</a>
</g>
</g>
<!-- Node1&#45;&gt;Node3 -->
<g id="edge2" class="edge">
<title>Node1&#45;&gt;Node3</title>
<path fill="none" stroke="midnightblue" d="M124.08,-336.08C116.65,-328.22 105.65,-316.57 96.69,-307.08"/>
<polygon fill="midnightblue" stroke="midnightblue" points="99.18,-304.62 89.76,-299.75 94.09,-309.42 99.18,-304.62"/>
</g>
<!-- Node4 -->
<g id="node4" class="node">
<title>Node4</title>
<g id="a_node4"><a xlink:href="windows_8hpp_source.html" target="_top" xlink:title=" ">
<polygon fill="none" stroke="black" points="214.5,-56.5 214.5,-75.5 330.5,-75.5 330.5,-56.5 214.5,-56.5"/>
<text text-anchor="middle" x="272.5" y="-63.5" font-family="Helvetica,sans-Serif" font-size="10.00">details/windows.hpp</text>
</a>
</g>
</g>
<!-- Node1&#45;&gt;Node4 -->
<g id="edge3" class="edge">
<title>Node1&#45;&gt;Node4</title>
<path fill="none" stroke="midnightblue" d="M132.5,-336.44C132.5,-317.94 132.5,-272.81 132.5,-235 132.5,-235 132.5,-235 132.5,-177 132.5,-125.35 192.15,-94.26 233.58,-78.9"/>
<polygon fill="midnightblue" stroke="midnightblue" points="234.9,-82.14 243.15,-75.5 232.56,-75.54 234.9,-82.14"/>
</g>
<!-- Node7 -->
<g id="node7" class="node">
<title>Node7</title>
<g id="a_node7"><a xlink:href="utils_8hpp.html" target="_top" xlink:title="Some useful implementation stuff.">
<polygon fill="none" stroke="black" points="672,-224.5 672,-243.5 767,-243.5 767,-224.5 672,-224.5"/>
<text text-anchor="middle" x="719.5" y="-231.5" font-family="Helvetica,sans-Serif" font-size="10.00">details/utils.hpp</text>
</a>
</g>
</g>
<!-- Node1&#45;&gt;Node7 -->
<g id="edge6" class="edge">
<title>Node1&#45;&gt;Node7</title>
<path fill="none" stroke="midnightblue" d="M204.27,-336.79C268.73,-328.95 365.82,-315.97 449.5,-300 531.19,-284.4 625.38,-260.31 678.14,-246.26"/>
<polygon fill="midnightblue" stroke="midnightblue" points="679.37,-249.55 688.12,-243.59 677.56,-242.79 679.37,-249.55"/>
</g>
<!-- Node15 -->
<g id="node15" class="node">
<title>Node15</title>
<g id="a_node15"><a xlink:href="basic__callback_8hpp.html" target="_top" xlink:title="Interfaces and base classes for callback wrappers.">
<polygon fill="none" stroke="black" points="307,-280.5 307,-299.5 440,-299.5 440,-280.5 307,-280.5"/>
<text text-anchor="middle" x="373.5" y="-287.5" font-family="Helvetica,sans-Serif" font-size="10.00">pool/basic_callback.hpp</text>
</a>
</g>
</g>
<!-- Node1&#45;&gt;Node15 -->
<g id="edge17" class="edge">
<title>Node1&#45;&gt;Node15</title>
<path fill="none" stroke="midnightblue" d="M170.69,-336.44C212.64,-327.04 280.09,-311.93 325.57,-301.74"/>
<polygon fill="midnightblue" stroke="midnightblue" points="326.5,-305.12 335.49,-299.52 324.97,-298.29 326.5,-305.12"/>
</g>
<!-- Node5 -->
<g id="node5" class="node">
<title>Node5</title>
<g id="a_node5"><a xlink:href="ntp__config_8hpp_source.html" target="_top" xlink:title=" ">
<polygon fill="none" stroke="black" points="500.5,-0.5 500.5,-19.5 588.5,-19.5 588.5,-0.5 500.5,-0.5"/>
<text text-anchor="middle" x="544.5" y="-7.5" font-family="Helvetica,sans-Serif" font-size="10.00">ntp_config.hpp</text>
</a>
</g>
</g>
<!-- Node4&#45;&gt;Node5 -->
<g id="edge4" class="edge">
<title>Node4&#45;&gt;Node5</title>
<path fill="none" stroke="midnightblue" d="M315.6,-56.44C363.35,-46.96 440.36,-31.67 491.69,-21.48"/>
<polygon fill="midnightblue" stroke="midnightblue" points="492.48,-24.9 501.6,-19.52 491.11,-18.03 492.48,-24.9"/>
</g>
<!-- Node6 -->
<g id="node6" class="node">
<title>Node6</title>
<g id="a_node6"><a xlink:title=" ">
<polygon fill="none" stroke="#bfbfbf" points="237.5,-0.5 237.5,-19.5 307.5,-19.5 307.5,-0.5 237.5,-0.5"/>
<text text-anchor="middle" x="272.5" y="-7.5" font-family="Helvetica,sans-Serif" font-size="10.00">Windows.h</text>
</a>
</g>
</g>
<!-- Node4&#45;&gt;Node6 -->
<g id="edge5" class="edge">
<title>Node4&#45;&gt;Node6</title>
<path fill="none" stroke="midnightblue" d="M272.5,-56.08C272.5,-49.01 272.5,-38.86 272.5,-29.99"/>
<polygon fill="midnightblue" stroke="midnightblue" points="276,-29.75 272.5,-19.75 269,-29.75 276,-29.75"/>
</g>
<!-- Node7&#45;&gt;Node5 -->
<g id="edge7" class="edge">
<title>Node7&#45;&gt;Node5</title>
<path fill="none" stroke="midnightblue" d="M720.13,-224.24C721.22,-203.06 721.38,-148.17 697.5,-112 668.48,-68.06 613.07,-38.73 577.5,-23.48"/>
<polygon fill="midnightblue" stroke="midnightblue" points="578.61,-20.15 568.03,-19.55 575.92,-26.61 578.61,-20.15"/>
</g>
<!-- Node8 -->
<g id="node8" class="node">
<title>Node8</title>
<g id="a_node8"><a xlink:href="ntrtl_8h.html" target="_top" xlink:title="Contains necessary declarations/definitions of internal windows objects and functions.">
<polygon fill="none" stroke="black" points="611.5,-168.5 611.5,-187.5 691.5,-187.5 691.5,-168.5 611.5,-168.5"/>
<text text-anchor="middle" x="651.5" y="-175.5" font-family="Helvetica,sans-Serif" font-size="10.00">native/ntrtl.h</text>
</a>
</g>
</g>
<!-- Node7&#45;&gt;Node8 -->
<g id="edge8" class="edge">
<title>Node7&#45;&gt;Node8</title>
<path fill="none" stroke="midnightblue" d="M708.57,-224.32C698.33,-216.18 682.78,-203.84 670.5,-194.09"/>
<polygon fill="midnightblue" stroke="midnightblue" points="672.63,-191.31 662.62,-187.83 668.28,-196.79 672.63,-191.31"/>
</g>
<!-- Node11 -->
<g id="node11" class="node">
<title>Node11</title>
<g id="a_node11"><a xlink:href="allocator_8hpp.html" target="_top" xlink:title="Allocator implementations.">
<polygon fill="none" stroke="black" points="323.5,-168.5 323.5,-187.5 439.5,-187.5 439.5,-168.5 323.5,-168.5"/>
<text text-anchor="middle" x="381.5" y="-175.5" font-family="Helvetica,sans-Serif" font-size="10.00">details/allocator.hpp</text>
</a>
</g>
</g>
<!-- Node7&#45;&gt;Node11 -->
<g id="edge11" class="edge">
<title>Node7&#45;&gt;Node11</title>
<path fill="none" stroke="midnightblue" d="M671.79,-225.38C612.46,-215.9 510.97,-199.68 445.07,-189.16"/>
<polygon fill="midnightblue" stroke="midnightblue" points="445.24,-185.64 434.82,-187.52 444.14,-192.55 445.24,-185.64"/>
</g>
<!-- Node9 -->
<g id="node9" class="node">
<title>Node9</title>
<g id="a_node9"><a xlink:title=" ">
<polygon fill="none" stroke="#bfbfbf" points="620.5,-112.5 620.5,-131.5 688.5,-131.5 688.5,-112.5 620.5,-112.5"/>
<text text-anchor="middle" x="654.5" y="-119.5" font-family="Helvetica,sans-Serif" font-size="10.00">windows.h</text>
</a>
</g>
</g>
<!-- Node8&#45;&gt;Node9 -->
<g id="edge9" class="edge">
<title>Node8&#45;&gt;Node9</title>
<path fill="none" stroke="midnightblue" d="M652,-168.08C652.39,-161.01 652.95,-150.86 653.45,-141.99"/>
<polygon fill="midnightblue" stroke="midnightblue" points="656.95,-141.93 654.01,-131.75 649.96,-141.54 656.95,-141.93"/>
</g>
<!-- Node10 -->
<g id="node10" class="node">
<title>Node10</title>
<g id="a_node10"><a xlink:title=" ">
<polygon fill="none" stroke="#bfbfbf" points="537,-112.5 537,-131.5 602,-131.5 602,-112.5 537,-112.5"/>
<text text-anchor="middle" x="569.5" y="-119.5" font-family="Helvetica,sans-Serif" font-size="10.00">winternl.h</text>
</a>
</g>
</g>
<!-- Node8&#45;&gt;Node10 -->
<g id="edge10" class="edge">
<title>Node8&#45;&gt;Node10</title>
<path fill="none" stroke="midnightblue" d="M638.33,-168.32C625.65,-159.98 606.27,-147.21 591.29,-137.35"/>
<polygon fill="midnightblue" stroke="midnightblue" points="592.92,-134.23 582.64,-131.65 589.07,-140.08 592.92,-134.23"/>
</g>
<!-- Node11&#45;&gt;Node4 -->
<g id="edge16" class="edge">
<title>Node11&#45;&gt;Node4</title>
<path fill="none" stroke="midnightblue" d="M363.5,-168.4C348.31,-160.5 326.69,-147.66 311.5,-132 298.08,-118.16 287.25,-98.88 280.44,-84.92"/>
<polygon fill="midnightblue" stroke="midnightblue" points="283.61,-83.43 276.21,-75.84 277.26,-86.39 283.61,-83.43"/>
</g>
<!-- Node12 -->
<g id="node12" class="node">
<title>Node12</title>
<g id="a_node12"><a xlink:href="exception_8hpp.html" target="_top" xlink:title="Win32 error wrapper implementations.">
<polygon fill="none" stroke="black" points="320.5,-112.5 320.5,-131.5 442.5,-131.5 442.5,-112.5 320.5,-112.5"/>
<text text-anchor="middle" x="381.5" y="-119.5" font-family="Helvetica,sans-Serif" font-size="10.00">details/exception.hpp</text>
</a>
</g>
</g>
<!-- Node11&#45;&gt;Node12 -->
<g id="edge12" class="edge">
<title>Node11&#45;&gt;Node12</title>
<path fill="none" stroke="midnightblue" d="M381.5,-168.08C381.5,-161.01 381.5,-150.86 381.5,-141.99"/>
<polygon fill="midnightblue" stroke="midnightblue" points="385,-141.75 381.5,-131.75 378,-141.75 385,-141.75"/>
</g>
<!-- Node12&#45;&gt;Node4 -->
<g id="edge15" class="edge">
<title>Node12&#45;&gt;Node4</title>
<path fill="none" stroke="midnightblue" d="M363.99,-112.32C346.43,-103.62 319.17,-90.12 298.97,-80.11"/>
<polygon fill="midnightblue" stroke="midnightblue" points="300.48,-76.96 289.97,-75.65 297.38,-83.23 300.48,-76.96"/>
</g>
<!-- Node13 -->
<g id="node13" class="node">
<title>Node13</title>
<g id="a_node13"><a xlink:title=" ">
<polygon fill="none" stroke="#bfbfbf" points="349,-56.5 349,-75.5 414,-75.5 414,-56.5 349,-56.5"/>
<text text-anchor="middle" x="381.5" y="-63.5" font-family="Helvetica,sans-Serif" font-size="10.00">stdexcept</text>
</a>
</g>
</g>
<!-- Node12&#45;&gt;Node13 -->
<g id="edge13" class="edge">
<title>Node12&#45;&gt;Node13</title>
<path fill="none" stroke="midnightblue" d="M381.5,-112.08C381.5,-105.01 381.5,-94.86 381.5,-85.99"/>
<polygon fill="midnightblue" stroke="midnightblue" points="385,-85.75 381.5,-75.75 378,-85.75 385,-85.75"/>
</g>
<!-- Node14 -->
<g id="node14" class="node">
<title>Node14</title>
<g id="a_node14"><a xlink:title=" ">
<polygon fill="none" stroke="#bfbfbf" points="432.5,-56.5 432.5,-75.5 476.5,-75.5 476.5,-56.5 432.5,-56.5"/>
<text text-anchor="middle" x="454.5" y="-63.5" font-family="Helvetica,sans-Serif" font-size="10.00">string</text>
</a>
</g>
</g>
<!-- Node12&#45;&gt;Node14 -->
<g id="edge14" class="edge">
<title>Node12&#45;&gt;Node14</title>
<path fill="none" stroke="midnightblue" d="M393.23,-112.32C404.34,-104.11 421.24,-91.6 434.48,-81.81"/>
<polygon fill="midnightblue" stroke="midnightblue" points="436.6,-84.59 442.56,-75.83 432.44,-78.97 436.6,-84.59"/>
</g>
<!-- Node15&#45;&gt;Node4 -->
<g id="edge24" class="edge">
<title>Node15&#45;&gt;Node4</title>
<path fill="none" stroke="midnightblue" d="M306.57,-281.32C260.12,-274.45 204.07,-262.56 189.5,-244 148.37,-191.6 219.09,-115.51 254.33,-82.85"/>
<polygon fill="midnightblue" stroke="midnightblue" points="256.98,-85.18 262.05,-75.87 252.29,-79.99 256.98,-85.18"/>
</g>
<!-- Node15&#45;&gt;Node7 -->
<g id="edge25" class="edge">
<title>Node15&#45;&gt;Node7</title>
<path fill="none" stroke="midnightblue" d="M428.37,-280.49C484.35,-271.8 574.02,-257.86 661.78,-244.11"/>
<polygon fill="midnightblue" stroke="midnightblue" points="662.58,-247.53 671.92,-242.52 661.49,-240.61 662.58,-247.53"/>
</g>
<!-- Node16 -->
<g id="node16" class="node">
<title>Node16</title>
<g id="a_node16"><a xlink:title=" ">
<polygon fill="none" stroke="#bfbfbf" points="615.5,-224.5 615.5,-243.5 653.5,-243.5 653.5,-224.5 615.5,-224.5"/>
<text text-anchor="middle" x="634.5" y="-231.5" font-family="Helvetica,sans-Serif" font-size="10.00">map</text>
</a>
</g>
</g>
<!-- Node15&#45;&gt;Node16 -->
<g id="edge18" class="edge">
<title>Node15&#45;&gt;Node16</title>
<path fill="none" stroke="midnightblue" d="M427.58,-280.45C472.84,-272.87 539.25,-260.75 605.53,-244.01"/>
<polygon fill="midnightblue" stroke="midnightblue" points="606.49,-247.38 615.31,-241.5 604.75,-240.59 606.49,-247.38"/>
</g>
<!-- Node17 -->
<g id="node17" class="node">
<title>Node17</title>
<g id="a_node17"><a xlink:title=" ">
<polygon fill="none" stroke="#bfbfbf" points="198.5,-224.5 198.5,-243.5 246.5,-243.5 246.5,-224.5 198.5,-224.5"/>
<text text-anchor="middle" x="222.5" y="-231.5" font-family="Helvetica,sans-Serif" font-size="10.00">mutex</text>
</a>
</g>
</g>
<!-- Node15&#45;&gt;Node17 -->
<g id="edge19" class="edge">
<title>Node15&#45;&gt;Node17</title>
<path fill="none" stroke="midnightblue" d="M349.57,-280.44C324.28,-271.4 284.2,-257.06 255.82,-246.92"/>
<polygon fill="midnightblue" stroke="midnightblue" points="256.91,-243.59 246.31,-243.52 254.55,-250.18 256.91,-243.59"/>
</g>
<!-- Node18 -->
<g id="node18" class="node">
<title>Node18</title>
<g id="a_node18"><a xlink:title=" ">
<polygon fill="none" stroke="#bfbfbf" points="264.5,-224.5 264.5,-243.5 322.5,-243.5 322.5,-224.5 264.5,-224.5"/>
<text text-anchor="middle" x="293.5" y="-231.5" font-family="Helvetica,sans-Serif" font-size="10.00">memory</text>
</a>
</g>
</g>
<!-- Node15&#45;&gt;Node18 -->
<g id="edge20" class="edge">
<title>Node15&#45;&gt;Node18</title>
<path fill="none" stroke="midnightblue" d="M360.65,-280.32C348.28,-271.98 329.37,-259.21 314.76,-249.35"/>
<polygon fill="midnightblue" stroke="midnightblue" points="316.57,-246.35 306.32,-243.65 312.65,-252.15 316.57,-246.35"/>
</g>
<!-- Node19 -->
<g id="node19" class="node">
<title>Node19</title>
<g id="a_node19"><a xlink:title=" ">
<polygon fill="none" stroke="#bfbfbf" points="341,-224.5 341,-243.5 406,-243.5 406,-224.5 341,-224.5"/>
<text text-anchor="middle" x="373.5" y="-231.5" font-family="Helvetica,sans-Serif" font-size="10.00">functional</text>
</a>
</g>
</g>
<!-- Node15&#45;&gt;Node19 -->
<g id="edge21" class="edge">
<title>Node15&#45;&gt;Node19</title>
<path fill="none" stroke="midnightblue" d="M373.5,-280.08C373.5,-273.01 373.5,-262.86 373.5,-253.99"/>
<polygon fill="midnightblue" stroke="midnightblue" points="377,-253.75 373.5,-243.75 370,-253.75 377,-253.75"/>
</g>
<!-- Node20 -->
<g id="node20" class="node">
<title>Node20</title>
<g id="a_node20"><a xlink:title=" ">
<polygon fill="none" stroke="#bfbfbf" points="424,-224.5 424,-243.5 493,-243.5 493,-224.5 424,-224.5"/>
<text text-anchor="middle" x="458.5" y="-231.5" font-family="Helvetica,sans-Serif" font-size="10.00">type_traits</text>
</a>
</g>
</g>
<!-- Node15&#45;&gt;Node20 -->
<g id="edge22" class="edge">
<title>Node15&#45;&gt;Node20</title>
<path fill="none" stroke="midnightblue" d="M387.16,-280.32C400.42,-271.9 420.77,-258.97 436.35,-249.07"/>
<polygon fill="midnightblue" stroke="midnightblue" points="438.31,-251.97 444.88,-243.65 434.56,-246.06 438.31,-251.97"/>
</g>
<!-- Node21 -->
<g id="node21" class="node">
<title>Node21</title>
<g id="a_node21"><a xlink:title=" ">
<polygon fill="none" stroke="#bfbfbf" points="511.5,-224.5 511.5,-243.5 597.5,-243.5 597.5,-224.5 511.5,-224.5"/>
<text text-anchor="middle" x="554.5" y="-231.5" font-family="Helvetica,sans-Serif" font-size="10.00">shared_mutex</text>
</a>
</g>
</g>
<!-- Node15&#45;&gt;Node21 -->
<g id="edge23" class="edge">
<title>Node15&#45;&gt;Node21</title>
<path fill="none" stroke="midnightblue" d="M402.18,-280.44C433.03,-271.24 482.23,-256.56 516.33,-246.39"/>
<polygon fill="midnightblue" stroke="midnightblue" points="517.37,-249.73 525.95,-243.52 515.37,-243.02 517.37,-249.73"/>
</g>
</g>
</svg>
