<?xml version="1.0" encoding="UTF-8" standalone="no"?>
<!DOCTYPE svg PUBLIC "-//W3C//DTD SVG 1.1//EN"
 "http://www.w3.org/Graphics/SVG/1.1/DTD/svg11.dtd">
<!-- Generated by graphviz version 2.43.0 (0)
 -->
<!-- Title: ntp/include/pool/work.hpp Pages: 1 -->
<svg width="1003pt" height="308pt"
 viewBox="0.00 0.00 1002.50 308.00" xmlns="http://www.w3.org/2000/svg" xmlns:xlink="http://www.w3.org/1999/xlink">
<g id="graph0" class="graph" transform="scale(1 1) rotate(0) translate(4 304)">
<title>ntp/include/pool/work.hpp</title>
<!-- Node1 -->
<g id="node1" class="node">
<title>Node1</title>
<g id="a_node1"><a xlink:title="Work callback wrapper and manager implementation.">
<polygon fill="#bfbfbf" stroke="black" points="553.5,-280.5 553.5,-299.5 696.5,-299.5 696.5,-280.5 553.5,-280.5"/>
<text text-anchor="middle" x="625" y="-287.5" font-family="Helvetica,sans-Serif" font-size="10.00">ntp/include/pool/work.hpp</text>
</a>
</g>
</g>
<!-- Node2 -->
<g id="node2" class="node">
<title>Node2</title>
<g id="a_node2"><a xlink:title=" ">
<polygon fill="none" stroke="#bfbfbf" points="327,-0.5 327,-19.5 397,-19.5 397,-0.5 327,-0.5"/>
<text text-anchor="middle" x="362" y="-7.5" font-family="Helvetica,sans-Serif" font-size="10.00">Windows.h</text>
</a>
</g>
</g>
<!-- Node1&#45;&gt;Node2 -->
<g id="edge1" class="edge">
<title>Node1&#45;&gt;Node2</title>
<path fill="none" stroke="midnightblue" d="M553.3,-283.81C389.14,-270.96 0,-234.64 0,-179 0,-179 0,-179 0,-121 0,-55.49 219.8,-25.28 316.86,-15.14"/>
<polygon fill="midnightblue" stroke="midnightblue" points="317.37,-18.6 326.96,-14.11 316.66,-11.64 317.37,-18.6"/>
</g>
<!-- Node3 -->
<g id="node3" class="node">
<title>Node3</title>
<g id="a_node3"><a xlink:title=" ">
<polygon fill="none" stroke="#bfbfbf" points="653.5,-224.5 653.5,-243.5 714.5,-243.5 714.5,-224.5 653.5,-224.5"/>
<text text-anchor="middle" x="684" y="-231.5" font-family="Helvetica,sans-Serif" font-size="10.00">atlsync.h</text>
</a>
</g>
</g>
<!-- Node1&#45;&gt;Node3 -->
<g id="edge2" class="edge">
<title>Node1&#45;&gt;Node3</title>
<path fill="none" stroke="midnightblue" d="M634.48,-280.32C643.2,-272.34 656.34,-260.31 666.9,-250.65"/>
<polygon fill="midnightblue" stroke="midnightblue" points="669.33,-253.17 674.35,-243.83 664.61,-248 669.33,-253.17"/>
</g>
<!-- Node4 -->
<g id="node4" class="node">
<title>Node4</title>
<g id="a_node4"><a xlink:title=" ">
<polygon fill="none" stroke="#bfbfbf" points="732.5,-224.5 732.5,-243.5 773.5,-243.5 773.5,-224.5 732.5,-224.5"/>
<text text-anchor="middle" x="753" y="-231.5" font-family="Helvetica,sans-Serif" font-size="10.00">tuple</text>
</a>
</g>
</g>
<!-- Node1&#45;&gt;Node4 -->
<g id="edge3" class="edge">
<title>Node1&#45;&gt;Node4</title>
<path fill="none" stroke="midnightblue" d="M645.28,-280.44C666.35,-271.56 699.52,-257.56 723.49,-247.45"/>
<polygon fill="midnightblue" stroke="midnightblue" points="724.96,-250.63 732.81,-243.52 722.24,-244.18 724.96,-250.63"/>
</g>
<!-- Node5 -->
<g id="node5" class="node">
<title>Node5</title>
<g id="a_node5"><a xlink:title=" ">
<polygon fill="none" stroke="#bfbfbf" points="791.5,-224.5 791.5,-243.5 836.5,-243.5 836.5,-224.5 791.5,-224.5"/>
<text text-anchor="middle" x="814" y="-231.5" font-family="Helvetica,sans-Serif" font-size="10.00">utility</text>
</a>
</g>
</g>
<!-- Node1&#45;&gt;Node5 -->
<g id="edge4" class="edge">
<title>Node1&#45;&gt;Node5</title>
<path fill="none" stroke="midnightblue" d="M654.95,-280.44C689.43,-270.59 745.88,-254.46 781.43,-244.3"/>
<polygon fill="midnightblue" stroke="midnightblue" points="782.66,-247.6 791.31,-241.48 780.73,-240.86 782.66,-247.6"/>
</g>
<!-- Node6 -->
<g id="node6" class="node">
<title>Node6</title>
<g id="a_node6"><a xlink:href="ntp__config_8hpp_source.html" target="_top" xlink:title=" ">
<polygon fill="none" stroke="black" points="531,-56.5 531,-75.5 619,-75.5 619,-56.5 531,-56.5"/>
<text text-anchor="middle" x="575" y="-63.5" font-family="Helvetica,sans-Serif" font-size="10.00">ntp_config.hpp</text>
</a>
</g>
</g>
<!-- Node1&#45;&gt;Node6 -->
<g id="edge5" class="edge">
<title>Node1&#45;&gt;Node6</title>
<path fill="none" stroke="midnightblue" d="M623.04,-280.3C615.67,-247.56 589.5,-131.38 579.2,-85.67"/>
<polygon fill="midnightblue" stroke="midnightblue" points="582.61,-84.87 577,-75.88 575.78,-86.41 582.61,-84.87"/>
</g>
<!-- Node7 -->
<g id="node7" class="node">
<title>Node7</title>
<g id="a_node7"><a xlink:href="utils_8hpp.html" target="_top" xlink:title="Some useful implementation stuff.">
<polygon fill="none" stroke="black" points="615.5,-168.5 615.5,-187.5 710.5,-187.5 710.5,-168.5 615.5,-168.5"/>
<text text-anchor="middle" x="663" y="-175.5" font-family="Helvetica,sans-Serif" font-size="10.00">details/utils.hpp</text>
</a>
</g>
</g>
<!-- Node1&#45;&gt;Node7 -->
<g id="edge6" class="edge">
<title>Node1&#45;&gt;Node7</title>
<path fill="none" stroke="midnightblue" d="M627.15,-280.49C630.39,-267.97 636.9,-243.94 644,-224 647.24,-214.9 651.36,-204.99 654.93,-196.79"/>
<polygon fill="midnightblue" stroke="midnightblue" points="658.19,-198.07 659.06,-187.51 651.8,-195.22 658.19,-198.07"/>
</g>
<!-- Node16 -->
<g id="node16" class="node">
<title>Node16</title>
<g id="a_node16"><a xlink:href="basic__callback_8hpp.html" target="_top" xlink:title="Interfaces and base classes for callback wrappers.">
<polygon fill="none" stroke="black" points="254.5,-224.5 254.5,-243.5 387.5,-243.5 387.5,-224.5 254.5,-224.5"/>
<text text-anchor="middle" x="321" y="-231.5" font-family="Helvetica,sans-Serif" font-size="10.00">pool/basic_callback.hpp</text>
</a>
</g>
</g>
<!-- Node1&#45;&gt;Node16 -->
<g id="edge19" class="edge">
<title>Node1&#45;&gt;Node16</title>
<path fill="none" stroke="midnightblue" d="M576.83,-280.44C523.13,-270.9 436.31,-255.48 378.95,-245.29"/>
<polygon fill="midnightblue" stroke="midnightblue" points="379.4,-241.82 368.94,-243.52 378.18,-248.71 379.4,-241.82"/>
</g>
<!-- Node7&#45;&gt;Node6 -->
<g id="edge8" class="edge">
<title>Node7&#45;&gt;Node6</title>
<path fill="none" stroke="midnightblue" d="M656.09,-168.37C641.51,-150.14 607.34,-107.43 588.34,-83.68"/>
<polygon fill="midnightblue" stroke="midnightblue" points="590.85,-81.21 581.87,-75.59 585.39,-85.59 590.85,-81.21"/>
</g>
<!-- Node8 -->
<g id="node8" class="node">
<title>Node8</title>
<g id="a_node8"><a xlink:title=" ">
<polygon fill="none" stroke="#bfbfbf" points="638,-112.5 638,-131.5 688,-131.5 688,-112.5 638,-112.5"/>
<text text-anchor="middle" x="663" y="-119.5" font-family="Helvetica,sans-Serif" font-size="10.00">atomic</text>
</a>
</g>
</g>
<!-- Node7&#45;&gt;Node8 -->
<g id="edge7" class="edge">
<title>Node7&#45;&gt;Node8</title>
<path fill="none" stroke="midnightblue" d="M663,-168.08C663,-161.01 663,-150.86 663,-141.99"/>
<polygon fill="midnightblue" stroke="midnightblue" points="666.5,-141.75 663,-131.75 659.5,-141.75 666.5,-141.75"/>
</g>
<!-- Node9 -->
<g id="node9" class="node">
<title>Node9</title>
<g id="a_node9"><a xlink:href="ntrtl_8h.html" target="_top" xlink:title="Contains necessary declarations/definitions of internal windows objects and functions.">
<polygon fill="none" stroke="black" points="840,-112.5 840,-131.5 920,-131.5 920,-112.5 840,-112.5"/>
<text text-anchor="middle" x="880" y="-119.5" font-family="Helvetica,sans-Serif" font-size="10.00">native/ntrtl.h</text>
</a>
</g>
</g>
<!-- Node7&#45;&gt;Node9 -->
<g id="edge9" class="edge">
<title>Node7&#45;&gt;Node9</title>
<path fill="none" stroke="midnightblue" d="M697.38,-168.44C734.92,-159.1 795.13,-144.12 836.07,-133.93"/>
<polygon fill="midnightblue" stroke="midnightblue" points="836.92,-137.33 845.78,-131.52 835.23,-130.53 836.92,-137.33"/>
</g>
<!-- Node12 -->
<g id="node12" class="node">
<title>Node12</title>
<g id="a_node12"><a xlink:href="allocator_8hpp.html" target="_top" xlink:title="Allocator implementations.">
<polygon fill="none" stroke="black" points="706,-112.5 706,-131.5 822,-131.5 822,-112.5 706,-112.5"/>
<text text-anchor="middle" x="764" y="-119.5" font-family="Helvetica,sans-Serif" font-size="10.00">details/allocator.hpp</text>
</a>
</g>
</g>
<!-- Node7&#45;&gt;Node12 -->
<g id="edge12" class="edge">
<title>Node7&#45;&gt;Node12</title>
<path fill="none" stroke="midnightblue" d="M679.23,-168.32C695.35,-159.7 720.3,-146.36 738.96,-136.39"/>
<polygon fill="midnightblue" stroke="midnightblue" points="740.64,-139.46 747.81,-131.65 737.34,-133.28 740.64,-139.46"/>
</g>
<!-- Node10 -->
<g id="node10" class="node">
<title>Node10</title>
<g id="a_node10"><a xlink:title=" ">
<polygon fill="none" stroke="#bfbfbf" points="843,-56.5 843,-75.5 911,-75.5 911,-56.5 843,-56.5"/>
<text text-anchor="middle" x="877" y="-63.5" font-family="Helvetica,sans-Serif" font-size="10.00">windows.h</text>
</a>
</g>
</g>
<!-- Node9&#45;&gt;Node10 -->
<g id="edge10" class="edge">
<title>Node9&#45;&gt;Node10</title>
<path fill="none" stroke="midnightblue" d="M879.5,-112.08C879.11,-105.01 878.55,-94.86 878.05,-85.99"/>
<polygon fill="midnightblue" stroke="midnightblue" points="881.54,-85.54 877.49,-75.75 874.55,-85.93 881.54,-85.54"/>
</g>
<!-- Node11 -->
<g id="node11" class="node">
<title>Node11</title>
<g id="a_node11"><a xlink:title=" ">
<polygon fill="none" stroke="#bfbfbf" points="929.5,-56.5 929.5,-75.5 994.5,-75.5 994.5,-56.5 929.5,-56.5"/>
<text text-anchor="middle" x="962" y="-63.5" font-family="Helvetica,sans-Serif" font-size="10.00">winternl.h</text>
</a>
</g>
</g>
<!-- Node9&#45;&gt;Node11 -->
<g id="edge11" class="edge">
<title>Node9&#45;&gt;Node11</title>
<path fill="none" stroke="midnightblue" d="M893.17,-112.32C905.85,-103.98 925.23,-91.21 940.21,-81.35"/>
<polygon fill="midnightblue" stroke="midnightblue" points="942.43,-84.08 948.86,-75.65 938.58,-78.23 942.43,-84.08"/>
</g>
<!-- Node12&#45;&gt;Node2 -->
<g id="edge13" class="edge">
<title>Node12&#45;&gt;Node2</title>
<path fill="none" stroke="midnightblue" d="M749.46,-112.37C725.17,-98.35 674.4,-70.7 628,-56 552.65,-32.14 461.06,-20.18 407.38,-14.8"/>
<polygon fill="midnightblue" stroke="midnightblue" points="407.45,-11.29 397.16,-13.81 406.78,-18.26 407.45,-11.29"/>
</g>
<!-- Node12&#45;&gt;Node6 -->
<g id="edge14" class="edge">
<title>Node12&#45;&gt;Node6</title>
<path fill="none" stroke="midnightblue" d="M734.05,-112.44C701.84,-103.24 650.47,-88.56 614.86,-78.39"/>
<polygon fill="midnightblue" stroke="midnightblue" points="615.38,-74.9 604.81,-75.52 613.46,-81.63 615.38,-74.9"/>
</g>
<!-- Node13 -->
<g id="node13" class="node">
<title>Node13</title>
<g id="a_node13"><a xlink:href="exception_8hpp.html" target="_top" xlink:title="Win32 error wrapper implementations.">
<polygon fill="none" stroke="black" points="698,-56.5 698,-75.5 820,-75.5 820,-56.5 698,-56.5"/>
<text text-anchor="middle" x="759" y="-63.5" font-family="Helvetica,sans-Serif" font-size="10.00">details/exception.hpp</text>
</a>
</g>
</g>
<!-- Node12&#45;&gt;Node13 -->
<g id="edge15" class="edge">
<title>Node12&#45;&gt;Node13</title>
<path fill="none" stroke="midnightblue" d="M763.17,-112.08C762.52,-105.01 761.58,-94.86 760.76,-85.99"/>
<polygon fill="midnightblue" stroke="midnightblue" points="764.22,-85.39 759.81,-75.75 757.25,-86.03 764.22,-85.39"/>
</g>
<!-- Node13&#45;&gt;Node2 -->
<g id="edge16" class="edge">
<title>Node13&#45;&gt;Node2</title>
<path fill="none" stroke="midnightblue" d="M697.84,-56.68C617.61,-45.77 478.67,-26.87 407.26,-17.16"/>
<polygon fill="midnightblue" stroke="midnightblue" points="407.61,-13.67 397.23,-15.79 406.66,-20.61 407.61,-13.67"/>
</g>
<!-- Node14 -->
<g id="node14" class="node">
<title>Node14</title>
<g id="a_node14"><a xlink:title=" ">
<polygon fill="none" stroke="#bfbfbf" points="762.5,-0.5 762.5,-19.5 827.5,-19.5 827.5,-0.5 762.5,-0.5"/>
<text text-anchor="middle" x="795" y="-7.5" font-family="Helvetica,sans-Serif" font-size="10.00">stdexcept</text>
</a>
</g>
</g>
<!-- Node13&#45;&gt;Node14 -->
<g id="edge17" class="edge">
<title>Node13&#45;&gt;Node14</title>
<path fill="none" stroke="midnightblue" d="M764.94,-56.08C769.98,-48.53 777.34,-37.49 783.51,-28.23"/>
<polygon fill="midnightblue" stroke="midnightblue" points="786.53,-30.01 789.17,-19.75 780.71,-26.13 786.53,-30.01"/>
</g>
<!-- Node15 -->
<g id="node15" class="node">
<title>Node15</title>
<g id="a_node15"><a xlink:title=" ">
<polygon fill="none" stroke="#bfbfbf" points="700,-0.5 700,-19.5 744,-19.5 744,-0.5 700,-0.5"/>
<text text-anchor="middle" x="722" y="-7.5" font-family="Helvetica,sans-Serif" font-size="10.00">string</text>
</a>
</g>
</g>
<!-- Node13&#45;&gt;Node15 -->
<g id="edge18" class="edge">
<title>Node13&#45;&gt;Node15</title>
<path fill="none" stroke="midnightblue" d="M752.89,-56.08C747.72,-48.53 740.15,-37.49 733.81,-28.23"/>
<polygon fill="midnightblue" stroke="midnightblue" points="736.54,-26.02 728,-19.75 730.76,-29.98 736.54,-26.02"/>
</g>
<!-- Node16&#45;&gt;Node2 -->
<g id="edge20" class="edge">
<title>Node16&#45;&gt;Node2</title>
<path fill="none" stroke="midnightblue" d="M254.4,-229.41C192.87,-224.54 107.91,-213.32 87,-188 81.34,-181.15 83.27,-176.07 87,-168 129.07,-77.13 250.5,-36.09 317.05,-19.97"/>
<polygon fill="midnightblue" stroke="midnightblue" points="317.91,-23.37 326.85,-17.68 316.31,-16.55 317.91,-23.37"/>
</g>
<!-- Node16&#45;&gt;Node6 -->
<g id="edge27" class="edge">
<title>Node16&#45;&gt;Node6</title>
<path fill="none" stroke="midnightblue" d="M254.4,-228.88C195.15,-223.67 114.89,-212.24 95,-188 89.36,-181.13 89.4,-174.9 95,-168 148.14,-102.51 406.38,-77.9 520.54,-70.12"/>
<polygon fill="midnightblue" stroke="midnightblue" points="521.06,-73.59 530.8,-69.43 520.59,-66.6 521.06,-73.59"/>
</g>
<!-- Node16&#45;&gt;Node7 -->
<g id="edge28" class="edge">
<title>Node16&#45;&gt;Node7</title>
<path fill="none" stroke="midnightblue" d="M375.19,-224.44C438.03,-214.52 541.19,-198.23 605.44,-188.09"/>
<polygon fill="midnightblue" stroke="midnightblue" points="606.07,-191.53 615.4,-186.52 604.98,-184.62 606.07,-191.53"/>
</g>
<!-- Node17 -->
<g id="node17" class="node">
<title>Node17</title>
<g id="a_node17"><a xlink:title=" ">
<polygon fill="none" stroke="#bfbfbf" points="521,-168.5 521,-187.5 559,-187.5 559,-168.5 521,-168.5"/>
<text text-anchor="middle" x="540" y="-175.5" font-family="Helvetica,sans-Serif" font-size="10.00">map</text>
</a>
</g>
</g>
<!-- Node16&#45;&gt;Node17 -->
<g id="edge21" class="edge">
<title>Node16&#45;&gt;Node17</title>
<path fill="none" stroke="midnightblue" d="M361.48,-224.44C398.18,-216.47 453.95,-203.81 510.89,-188.15"/>
<polygon fill="midnightblue" stroke="midnightblue" points="512.08,-191.45 520.78,-185.4 510.21,-184.7 512.08,-191.45"/>
</g>
<!-- Node18 -->
<g id="node18" class="node">
<title>Node18</title>
<g id="a_node18"><a xlink:title=" ">
<polygon fill="none" stroke="#bfbfbf" points="104,-168.5 104,-187.5 152,-187.5 152,-168.5 104,-168.5"/>
<text text-anchor="middle" x="128" y="-175.5" font-family="Helvetica,sans-Serif" font-size="10.00">mutex</text>
</a>
</g>
</g>
<!-- Node16&#45;&gt;Node18 -->
<g id="edge22" class="edge">
<title>Node16&#45;&gt;Node18</title>
<path fill="none" stroke="midnightblue" d="M290.42,-224.44C255.35,-214.63 198.02,-198.59 161.69,-188.43"/>
<polygon fill="midnightblue" stroke="midnightblue" points="162.61,-185.05 152.04,-185.73 160.72,-191.79 162.61,-185.05"/>
</g>
<!-- Node19 -->
<g id="node19" class="node">
<title>Node19</title>
<g id="a_node19"><a xlink:title=" ">
<polygon fill="none" stroke="#bfbfbf" points="170,-168.5 170,-187.5 228,-187.5 228,-168.5 170,-168.5"/>
<text text-anchor="middle" x="199" y="-175.5" font-family="Helvetica,sans-Serif" font-size="10.00">memory</text>
</a>
</g>
</g>
<!-- Node16&#45;&gt;Node19 -->
<g id="edge23" class="edge">
<title>Node16&#45;&gt;Node19</title>
<path fill="none" stroke="midnightblue" d="M301.67,-224.44C281.68,-215.6 250.26,-201.69 227.44,-191.59"/>
<polygon fill="midnightblue" stroke="midnightblue" points="228.8,-188.36 218.24,-187.52 225.97,-194.76 228.8,-188.36"/>
</g>
<!-- Node20 -->
<g id="node20" class="node">
<title>Node20</title>
<g id="a_node20"><a xlink:title=" ">
<polygon fill="none" stroke="#bfbfbf" points="246.5,-168.5 246.5,-187.5 311.5,-187.5 311.5,-168.5 246.5,-168.5"/>
<text text-anchor="middle" x="279" y="-175.5" font-family="Helvetica,sans-Serif" font-size="10.00">functional</text>
</a>
</g>
</g>
<!-- Node16&#45;&gt;Node20 -->
<g id="edge24" class="edge">
<title>Node16&#45;&gt;Node20</title>
<path fill="none" stroke="midnightblue" d="M314.06,-224.08C308.07,-216.38 299.25,-205.03 291.95,-195.65"/>
<polygon fill="midnightblue" stroke="midnightblue" points="294.71,-193.5 285.81,-187.75 289.18,-197.79 294.71,-193.5"/>
</g>
<!-- Node21 -->
<g id="node21" class="node">
<title>Node21</title>
<g id="a_node21"><a xlink:title=" ">
<polygon fill="none" stroke="#bfbfbf" points="329.5,-168.5 329.5,-187.5 398.5,-187.5 398.5,-168.5 329.5,-168.5"/>
<text text-anchor="middle" x="364" y="-175.5" font-family="Helvetica,sans-Serif" font-size="10.00">type_traits</text>
</a>
</g>
</g>
<!-- Node16&#45;&gt;Node21 -->
<g id="edge25" class="edge">
<title>Node16&#45;&gt;Node21</title>
<path fill="none" stroke="midnightblue" d="M328.1,-224.08C334.24,-216.38 343.27,-205.03 350.74,-195.65"/>
<polygon fill="midnightblue" stroke="midnightblue" points="353.54,-197.75 357.03,-187.75 348.06,-193.39 353.54,-197.75"/>
</g>
<!-- Node22 -->
<g id="node22" class="node">
<title>Node22</title>
<g id="a_node22"><a xlink:title=" ">
<polygon fill="none" stroke="#bfbfbf" points="417,-168.5 417,-187.5 503,-187.5 503,-168.5 417,-168.5"/>
<text text-anchor="middle" x="460" y="-175.5" font-family="Helvetica,sans-Serif" font-size="10.00">shared_mutex</text>
</a>
</g>
</g>
<!-- Node16&#45;&gt;Node22 -->
<g id="edge26" class="edge">
<title>Node16&#45;&gt;Node22</title>
<path fill="none" stroke="midnightblue" d="M343.02,-224.44C366.1,-215.48 402.56,-201.31 428.64,-191.18"/>
<polygon fill="midnightblue" stroke="midnightblue" points="430.02,-194.4 438.08,-187.52 427.49,-187.88 430.02,-194.4"/>
</g>
</g>
</svg>
